<svg xmlns="http://www.w3.org/2000/svg" xmlns:xlink="http://www.w3.org/1999/xlink" width="160.924" height="46.679" viewBox="0 0 160.924 46.679">
  <defs>
    <clipPath id="clip-path">
      <rect id="Rectangle_1982" data-name="Rectangle 1982" width="160.924" height="46.679" transform="translate(0 0)" fill="none"/>
    </clipPath>
    <clipPath id="clip-path-2">
      <rect id="Rectangle_1983" data-name="Rectangle 1983" width="54.935" height="38.844" transform="translate(105.056 6.644) rotate(-1.4)" fill="none"/>
    </clipPath>
  </defs>
  <g id="Group_1437" data-name="Group 1437" transform="translate(0 0)">
    <g id="Group_1438" data-name="Group 1438">
      <g id="Group_1437-2" data-name="Group 1437" clip-path="url(#clip-path)">
        <path id="Path_4191" data-name="Path 4191" d="M2.94,46.484H38.859l.269-6.964s1.505.133,4.952.524c3.889.441,10.251,1.207,19.7,2.473,10.556,1.419,36.451,4.878,53.357,3.064,14.386-1.547,33.742-4.549,34.262-4.689.457-.125.113-2.255-.063-2.885-.171-.609-1.3-.926-1.3-.926L3.245,34.889Z" fill="#2e160e"/>
        <path id="Path_4192" data-name="Path 4192" d="M2.94,46.484H38.859l.269-6.964s1.505.133,4.952.524c3.889.441,10.251,1.207,19.7,2.473,10.556,1.419,36.451,4.878,53.357,3.064,14.386-1.547,33.742-4.549,34.262-4.689.457-.125.113-2.255-.063-2.885-.171-.609-1.3-.926-1.3-.926L3.245,34.889Z" fill="none" stroke="#221f20" stroke-miterlimit="10" stroke-width="0.391"/>
        <path id="Path_4193" data-name="Path 4193" d="M18.193,20.69a.431.431,0,1,1-.533.3.432.432,0,0,1,.533-.3" fill="#221f20"/>
        <path id="Path_4194" data-name="Path 4194" d="M17.166,21.245a.238.238,0,1,1-.294.164.239.239,0,0,1,.294-.164" fill="#221f20"/>
        <path id="Path_4195" data-name="Path 4195" d="M17.573,20.143a.238.238,0,1,1-.334.042.238.238,0,0,1,.334-.042" fill="#221f20"/>
        <path id="Path_4196" data-name="Path 4196" d="M20.032,21.058a.432.432,0,1,1-.484.372.432.432,0,0,1,.484-.372" fill="#221f20"/>
        <path id="Path_4197" data-name="Path 4197" d="M19.1,21.757a.238.238,0,1,1-.267.2.238.238,0,0,1,.267-.2" fill="#221f20"/>
        <path id="Path_4198" data-name="Path 4198" d="M19.338,20.607a.238.238,0,1,1-.324.09.237.237,0,0,1,.324-.09" fill="#221f20"/>
        <path id="Path_4199" data-name="Path 4199" d="M21.906,21.6a.431.431,0,1,1-.458.4.431.431,0,0,1,.458-.4" fill="#221f20"/>
        <path id="Path_4200" data-name="Path 4200" d="M21.021,22.358a.238.238,0,1,1-.253.223.238.238,0,0,1,.253-.223" fill="#221f20"/>
        <path id="Path_4201" data-name="Path 4201" d="M21.184,21.195a.238.238,0,1,1-.318.112.238.238,0,0,1,.318-.112" fill="#221f20"/>
        <path id="Path_4202" data-name="Path 4202" d="M23.919,22.193a.431.431,0,1,1-.459.4.431.431,0,0,1,.459-.4" fill="#221f20"/>
        <path id="Path_4203" data-name="Path 4203" d="M23.032,22.951a.238.238,0,1,1-.253.222.238.238,0,0,1,.253-.222" fill="#221f20"/>
        <path id="Path_4204" data-name="Path 4204" d="M23.2,21.788a.238.238,0,1,1-.318.111.238.238,0,0,1,.318-.111" fill="#221f20"/>
        <path id="Path_4205" data-name="Path 4205" d="M25.916,23.187a.432.432,0,1,1-.523.315.432.432,0,0,1,.523-.315" fill="#221f20"/>
        <path id="Path_4206" data-name="Path 4206" d="M24.909,23.777a.238.238,0,1,1-.288.174.238.238,0,0,1,.288-.174" fill="#221f20"/>
        <path id="Path_4207" data-name="Path 4207" d="M25.277,22.662a.238.238,0,1,1-.333.054.238.238,0,0,1,.333-.054" fill="#221f20"/>
        <path id="Path_4208" data-name="Path 4208" d="M27.687,24.18a.432.432,0,1,1-.593.146.432.432,0,0,1,.593-.146" fill="#221f20"/>
        <path id="Path_4209" data-name="Path 4209" d="M26.55,24.445a.238.238,0,1,1-.327.081.238.238,0,0,1,.327-.081" fill="#221f20"/>
        <path id="Path_4210" data-name="Path 4210" d="M27.232,23.489a.238.238,0,1,1-.333-.047.238.238,0,0,1,.333.047" fill="#221f20"/>
        <path id="Path_4211" data-name="Path 4211" d="M29.392,25.353a.432.432,0,1,1-.592.146.43.43,0,0,1,.592-.146" fill="#221f20"/>
        <path id="Path_4212" data-name="Path 4212" d="M28.256,25.619a.238.238,0,1,1-.327.081.238.238,0,0,1,.327-.081" fill="#221f20"/>
        <path id="Path_4213" data-name="Path 4213" d="M28.938,24.662a.238.238,0,1,1-.333-.047.238.238,0,0,1,.333.047" fill="#221f20"/>
        <path id="Path_4214" data-name="Path 4214" d="M30.965,26.4a.432.432,0,1,1-.592.146.43.43,0,0,1,.592-.146" fill="#221f20"/>
        <path id="Path_4215" data-name="Path 4215" d="M29.829,26.661a.238.238,0,1,1-.327.081.238.238,0,0,1,.327-.081" fill="#221f20"/>
        <path id="Path_4216" data-name="Path 4216" d="M30.511,25.7a.238.238,0,1,1-.333-.047.238.238,0,0,1,.333.047" fill="#221f20"/>
        <path id="Path_4217" data-name="Path 4217" d="M32.2,27.739a.432.432,0,1,1-.607.062.432.432,0,0,1,.607-.062" fill="#221f20"/>
        <path id="Path_4218" data-name="Path 4218" d="M31.04,27.842a.238.238,0,1,1-.335.034.238.238,0,0,1,.335-.034" fill="#221f20"/>
        <path id="Path_4219" data-name="Path 4219" d="M31.85,26.99a.239.239,0,1,1-.324-.094.238.238,0,0,1,.324.094" fill="#221f20"/>
        <path id="Path_4220" data-name="Path 4220" d="M33.118,29.454a.432.432,0,1,1-.588-.164.431.431,0,0,1,.588.164" fill="#221f20"/>
        <path id="Path_4221" data-name="Path 4221" d="M32,29.126a.238.238,0,1,1-.324-.09.237.237,0,0,1,.324.09" fill="#221f20"/>
        <path id="Path_4222" data-name="Path 4222" d="M33.062,28.628a.238.238,0,1,1-.267-.2.238.238,0,0,1,.267.2" fill="#221f20"/>
        <path id="Path_4223" data-name="Path 4223" d="M34.276,31.2a.431.431,0,1,1-.566-.228.432.432,0,0,1,.566.228" fill="#221f20"/>
        <path id="Path_4224" data-name="Path 4224" d="M33.2,30.754a.238.238,0,1,1-.312-.126.238.238,0,0,1,.312.126" fill="#221f20"/>
        <path id="Path_4225" data-name="Path 4225" d="M34.312,30.377a.238.238,0,1,1-.243-.234.239.239,0,0,1,.243.234" fill="#221f20"/>
        <path id="Path_4226" data-name="Path 4226" d="M34.823,33.214a.431.431,0,1,1-.566-.228.432.432,0,0,1,.566.228" fill="#221f20"/>
        <path id="Path_4227" data-name="Path 4227" d="M33.746,32.764a.238.238,0,1,1-.312-.126.238.238,0,0,1,.312.126" fill="#221f20"/>
        <path id="Path_4228" data-name="Path 4228" d="M34.859,32.388a.238.238,0,1,1-.243-.234.239.239,0,0,1,.243.234" fill="#221f20"/>
        <path id="Path_4229" data-name="Path 4229" d="M35.25,35.329A.431.431,0,1,1,34.735,35a.431.431,0,0,1,.515.328" fill="#221f20"/>
        <path id="Path_4230" data-name="Path 4230" d="M34.273,34.69a.238.238,0,1,1-.284-.181.237.237,0,0,1,.284.181" fill="#221f20"/>
        <path id="Path_4231" data-name="Path 4231" d="M35.436,34.523a.238.238,0,1,1-.2-.274.239.239,0,0,1,.2.274" fill="#221f20"/>
        <path id="Path_4232" data-name="Path 4232" d="M16.244,20.1a.431.431,0,1,1-.533.3.432.432,0,0,1,.533-.3" fill="#221f20"/>
        <path id="Path_4233" data-name="Path 4233" d="M15.218,20.651a.238.238,0,1,1-.294.164.239.239,0,0,1,.294-.164" fill="#221f20"/>
        <path id="Path_4234" data-name="Path 4234" d="M15.624,19.549a.238.238,0,1,1-.334.042.238.238,0,0,1,.334-.042" fill="#221f20"/>
        <path id="Path_4235" data-name="Path 4235" d="M14.33,19.792a.431.431,0,1,1-.533.3.432.432,0,0,1,.533-.3" fill="#221f20"/>
        <path id="Path_4236" data-name="Path 4236" d="M13.3,20.347a.238.238,0,1,1-.294.164.238.238,0,0,1,.294-.164" fill="#221f20"/>
        <path id="Path_4237" data-name="Path 4237" d="M13.71,19.245a.238.238,0,1,1-.334.042.238.238,0,0,1,.334-.042" fill="#221f20"/>
        <path id="Path_4238" data-name="Path 4238" d="M12.493,19.308a.431.431,0,1,1-.533.3.432.432,0,0,1,.533-.3" fill="#221f20"/>
        <path id="Path_4239" data-name="Path 4239" d="M11.467,19.863a.238.238,0,1,1-.294.164.238.238,0,0,1,.294-.164" fill="#221f20"/>
        <path id="Path_4240" data-name="Path 4240" d="M11.873,18.761a.238.238,0,1,1-.334.042.238.238,0,0,1,.334-.042" fill="#221f20"/>
        <path id="Path_4241" data-name="Path 4241" d="M10.85,18.832a.431.431,0,1,1-.533.3.432.432,0,0,1,.533-.3" fill="#221f20"/>
        <path id="Path_4242" data-name="Path 4242" d="M9.824,19.387a.238.238,0,1,1-.294.164.238.238,0,0,1,.294-.164" fill="#221f20"/>
        <path id="Path_4243" data-name="Path 4243" d="M10.23,18.285a.238.238,0,1,1-.334.042.238.238,0,0,1,.334-.042" fill="#221f20"/>
        <path id="Path_4244" data-name="Path 4244" d="M9.215,18.647a.431.431,0,1,1-.582.183.432.432,0,0,1,.582-.183" fill="#221f20"/>
        <path id="Path_4245" data-name="Path 4245" d="M8.1,18.983a.238.238,0,1,1-.321.1.238.238,0,0,1,.321-.1" fill="#221f20"/>
        <path id="Path_4246" data-name="Path 4246" d="M8.719,17.986a.238.238,0,1,1-.336-.026.239.239,0,0,1,.336.026" fill="#221f20"/>
        <path id="Path_4247" data-name="Path 4247" d="M7.717,17.368a.431.431,0,1,1-.608.054.431.431,0,0,1,.608-.054" fill="#221f20"/>
        <path id="Path_4248" data-name="Path 4248" d="M6.553,17.457a.238.238,0,1,1-.335.03.238.238,0,0,1,.335-.03" fill="#221f20"/>
        <path id="Path_4249" data-name="Path 4249" d="M7.373,16.616a.238.238,0,1,1-.322-.1.238.238,0,0,1,.322.1" fill="#221f20"/>
        <path id="Path_4250" data-name="Path 4250" d="M6.4,16.179a.432.432,0,1,1-.61-.037.431.431,0,0,1,.61.037" fill="#221f20"/>
        <path id="Path_4251" data-name="Path 4251" d="M5.234,16.094a.238.238,0,1,1-.336-.02.239.239,0,0,1,.336.02" fill="#221f20"/>
        <path id="Path_4252" data-name="Path 4252" d="M6.169,15.384a.238.238,0,1,1-.3-.144.238.238,0,0,1,.3.144" fill="#221f20"/>
        <path id="Path_4253" data-name="Path 4253" d="M5.266,14.54a.432.432,0,1,1-.6-.094.432.432,0,0,1,.6.094" fill="#221f20"/>
        <path id="Path_4254" data-name="Path 4254" d="M4.116,14.345a.238.238,0,1,1-.333-.052.238.238,0,0,1,.333.052" fill="#221f20"/>
        <path id="Path_4255" data-name="Path 4255" d="M5.114,13.727a.238.238,0,1,1-.289-.173.238.238,0,0,1,.289.173" fill="#221f20"/>
        <path id="Path_4256" data-name="Path 4256" d="M4.556,12.987a.432.432,0,1,1-.516-.325.431.431,0,0,1,.516.325" fill="#221f20"/>
        <path id="Path_4257" data-name="Path 4257" d="M3.576,12.353a.238.238,0,1,1-.285-.179.238.238,0,0,1,.285.179" fill="#221f20"/>
        <path id="Path_4258" data-name="Path 4258" d="M4.738,12.18a.238.238,0,1,1-.2-.273.238.238,0,0,1,.2.273" fill="#221f20"/>
        <path id="Path_4259" data-name="Path 4259" d="M4.306,11.057a.432.432,0,1,1-.453-.409.432.432,0,0,1,.453.409" fill="#221f20"/>
        <path id="Path_4260" data-name="Path 4260" d="M3.45,10.264a.238.238,0,1,1-.25-.226.238.238,0,0,1,.25.226" fill="#221f20"/>
        <path id="Path_4261" data-name="Path 4261" d="M4.624,10.294a.238.238,0,1,1-.147-.3.238.238,0,0,1,.147.3" fill="#221f20"/>
        <path id="Path_4262" data-name="Path 4262" d="M2.406,11.781C4.817,27.1,31.5,17.268,33.765,35.9" fill="none" stroke="#221f20" stroke-miterlimit="10" stroke-width="0.195" stroke-dasharray="1.563 1.563"/>
        <path id="Path_4263" data-name="Path 4263" d="M3.855,7.906c.141-.317.3-.744.317-.772l.147-.184C16.29,10.807,33,15.192,47.925,18.393c5.6,1.2,13.636,3.568,18.951,5.135,1.758.516,3.278.965,4.334,1.258a.468.468,0,0,0,.148.02.638.638,0,0,0,.571-.4.591.591,0,0,0-.2-.758c-.277-.176-.844-.5-1.387-.809-.41-.234-.8-.457-1.012-.586-.395-.239-.813-.489-1.243-.747-2.728-1.625-7.292-4.349-6.628-5.619a64.632,64.632,0,0,1,5.71-8.36C68.239,6.1,70.85,2.659,72.23.764c.023-.028.043-.055.062-.083L72.261.6a53.516,53.516,0,0,1,5.022,3.869c2.329,1.849,3.634,2.908,5.549,4.327,16.953,12.122,27.235,16.929,35.876,18.031,8.414,1.079,17.414,2.376,24.187,3.439,3.994.626,5.682,1.9,6.53,3.416a5.219,5.219,0,0,1,.614,3.4,197.956,197.956,0,0,1-42.379,5.886c-17.848.465-61.669-6.206-74.163-7.324-11.572-1.036-30.252-.754-30.252-.754-6.714-9.1-.45-24.59.934-27.748" fill="#fff"/>
        <path id="Path_4264" data-name="Path 4264" d="M3.855,7.906c.141-.317.3-.744.317-.772l.147-.184C16.29,10.807,33,15.192,47.925,18.393c5.6,1.2,13.636,3.568,18.951,5.135,1.758.516,3.278.965,4.334,1.258a.468.468,0,0,0,.148.02.638.638,0,0,0,.571-.4.591.591,0,0,0-.2-.758c-.277-.176-.844-.5-1.387-.809-.41-.234-.8-.457-1.012-.586-.395-.239-.813-.489-1.243-.747-2.728-1.625-7.292-4.349-6.628-5.619a64.632,64.632,0,0,1,5.71-8.36C68.239,6.1,70.85,2.659,72.23.764c.023-.028.043-.055.062-.083L72.261.6a53.516,53.516,0,0,1,5.022,3.869c2.329,1.849,3.634,2.908,5.549,4.327,16.953,12.122,27.235,16.929,35.876,18.031,8.414,1.079,17.414,2.376,24.187,3.439,3.994.626,5.682,1.9,6.53,3.416a5.219,5.219,0,0,1,.614,3.4,197.956,197.956,0,0,1-42.379,5.886c-17.848.465-61.669-6.206-74.163-7.324-11.572-1.036-30.252-.754-30.252-.754-6.714-9.1-.45-24.59.934-27.748" fill="none" stroke="#221f20" stroke-miterlimit="10" stroke-width="0.391"/>
        <path id="Path_4265" data-name="Path 4265" d="M38.859,46.484l5.221-6.44c-3.447-.391-4.951-.524-4.951-.524Z" fill="#160602"/>
        <path id="Path_4266" data-name="Path 4266" d="M38.859,46.484l5.221-6.44c-3.447-.391-4.951-.524-4.951-.524Z" fill="none" stroke="#2e160e" stroke-linejoin="round" stroke-width="0.391"/>
      </g>
    </g>
    <g id="Group_1440" data-name="Group 1440">
      <g id="Group_1439" data-name="Group 1439" clip-path="url(#clip-path-2)">
        <path id="Path_4267" data-name="Path 4267" d="M126.121,28.852a.188.188,0,1,1-.255-.11.2.2,0,0,1,.255.11" fill="#221f20"/>
        <path id="Path_4268" data-name="Path 4268" d="M126.561,30.247a.194.194,0,0,1-.26-.094.2.2,0,0,1,.07-.27.194.194,0,0,1,.26.094.2.2,0,0,1-.07.27" fill="#221f20"/>
        <path id="Path_4269" data-name="Path 4269" d="M126.809,31.276a.188.188,0,1,1,.341-.154" fill="#221f20"/>
        <path id="Path_4270" data-name="Path 4270" d="M127.578,32.521a.2.2,0,0,1-.255-.111.2.2,0,0,1,.085-.263.2.2,0,0,1,.256.11.2.2,0,0,1-.086.264" fill="#221f20"/>
        <path id="Path_4271" data-name="Path 4271" d="M128.178,33.393a.188.188,0,1,1-.255-.111.2.2,0,0,1,.255.111" fill="#221f20"/>
        <path id="Path_4272" data-name="Path 4272" d="M128.615,34.787a.2.2,0,0,1-.259-.095.2.2,0,0,1,.07-.27.2.2,0,0,1,.261.094.2.2,0,0,1-.072.271" fill="#221f20"/>
        <path id="Path_4273" data-name="Path 4273" d="M128.779,35.818a.2.2,0,0,1,.122-.246.193.193,0,0,1,.238.148" fill="#221f20"/>
        <path id="Path_4274" data-name="Path 4274" d="M127.15,31.123a.188.188,0,1,1-.341.153" fill="#221f20"/>
        <path id="Path_4275" data-name="Path 4275" d="M129.037,37.2a.207.207,0,0,1,.053-.407.205.205,0,0,1-.053.407" fill="#221f20"/>
        <path id="Path_4276" data-name="Path 4276" d="M128.713,38.244a.211.211,0,0,1-.144.078.168.168,0,0,1-.137-.047.2.2,0,0,1,0-.273.219.219,0,0,1,.127-.072.192.192,0,0,1,.142.031.17.17,0,0,1,.07.128.214.214,0,0,1-.054.155" fill="#221f20"/>
        <path id="Path_4277" data-name="Path 4277" d="M127.355,38.861a.187.187,0,0,1,.026-.141.2.2,0,0,1,.113-.09.206.206,0,0,1,.25.1.164.164,0,0,1,0,.145.21.21,0,0,1-.127.106.227.227,0,0,1-.167-.008.168.168,0,0,1-.093-.115" fill="#221f20"/>
        <path id="Path_4278" data-name="Path 4278" d="M126.391,38.58a.2.2,0,0,1,.133.235.189.189,0,0,1-.258.118" fill="#221f20"/>
        <path id="Path_4279" data-name="Path 4279" d="M129.14,35.721a.193.193,0,0,1-.131.248.2.2,0,0,1-.23-.15" fill="#221f20"/>
        <path id="Path_4280" data-name="Path 4280" d="M125.289,37.805a.2.2,0,0,1,.144,0,.217.217,0,0,1,.11.091.194.194,0,0,1,.023.069.211.211,0,0,1,0,.071.2.2,0,0,1-.074.125.165.165,0,0,1-.143.027.231.231,0,0,1-.074-.036.28.28,0,0,1-.057-.069.213.213,0,0,1-.025-.166.163.163,0,0,1,.1-.111" fill="#221f20"/>
        <path id="Path_4281" data-name="Path 4281" d="M124.985,36.754a.26.26,0,0,1,.03-.085.2.2,0,0,1,.057-.061.16.16,0,0,1,.143-.025.206.206,0,0,1,.112.092.2.2,0,0,1,.025.066.174.174,0,0,1,0,.072.211.211,0,0,1-.069.124.2.2,0,0,1-.136.051.166.166,0,0,1-.128-.07.214.214,0,0,1-.036-.164" fill="#221f20"/>
        <path id="Path_4282" data-name="Path 4282" d="M126.131,35.844a.193.193,0,0,1-.031.14.212.212,0,0,1-.109.087.2.2,0,0,1-.136,0,.208.208,0,0,1-.111-.091.155.155,0,0,1-.006-.145.213.213,0,0,1,.13-.112.227.227,0,0,1,.173.008.165.165,0,0,1,.09.118" fill="#221f20"/>
        <path id="Path_4283" data-name="Path 4283" d="M126.867,36.192a.01.01,0,0,0,.006.012l.009-.007a.362.362,0,0,0,.01-.047.3.3,0,0,1,.044-.134.135.135,0,0,1,.137-.059.186.186,0,0,1,.1.05.381.381,0,0,1,.045.062.346.346,0,0,1,.026.091" fill="#221f20"/>
        <path id="Path_4284" data-name="Path 4284" d="M126.265,38.932a.224.224,0,0,1-.126-.108.172.172,0,0,1,0-.147.189.189,0,0,1,.108-.095.2.2,0,0,1,.144,0" fill="#221f20"/>
        <path id="Path_4285" data-name="Path 4285" d="M128.136,28.749a.188.188,0,1,1-.256-.1.2.2,0,0,1,.256.1" fill="#221f20"/>
        <path id="Path_4286" data-name="Path 4286" d="M128.6,30.115a.193.193,0,0,1-.261-.085.2.2,0,0,1,.065-.269.193.193,0,0,1,.261.085.2.2,0,0,1-.065.269" fill="#221f20"/>
        <path id="Path_4287" data-name="Path 4287" d="M128.862,31.126a.188.188,0,1,1,.337-.162" fill="#221f20"/>
        <path id="Path_4288" data-name="Path 4288" d="M129.649,32.335a.2.2,0,1,1,.081-.264.195.195,0,0,1-.081.264" fill="#221f20"/>
        <path id="Path_4289" data-name="Path 4289" d="M130.262,33.18a.188.188,0,1,1-.256-.1.2.2,0,0,1,.256.1" fill="#221f20"/>
        <path id="Path_4290" data-name="Path 4290" d="M130.723,34.546a.193.193,0,0,1-.261-.085.2.2,0,0,1,.065-.269.193.193,0,0,1,.261.085.2.2,0,0,1-.065.269" fill="#221f20"/>
        <path id="Path_4291" data-name="Path 4291" d="M130.988,35.558a.188.188,0,1,1,.337-.162" fill="#221f20"/>
        <path id="Path_4292" data-name="Path 4292" d="M129.2,30.965a.188.188,0,1,1-.337.162" fill="#221f20"/>
        <path id="Path_4293" data-name="Path 4293" d="M126.9,37.46a.336.336,0,1,1,.474-.012.336.336,0,0,1-.474.012" fill="#221f20"/>
        <path id="Path_4294" data-name="Path 4294" d="M131.094,29.242a.161.161,0,1,1,.188-.258.162.162,0,1,1-.188.258" fill="#221f20"/>
        <path id="Path_4295" data-name="Path 4295" d="M130.69,29.981a.174.174,0,0,1-.247-.022.161.161,0,1,1,.227-.225.174.174,0,0,1,.02.247" fill="#221f20"/>
        <path id="Path_4296" data-name="Path 4296" d="M129.7,30.586a.181.181,0,0,1,0-.247.172.172,0,0,1,.239.037.176.176,0,0,1,0,.249.169.169,0,0,1-.242-.039" fill="#221f20"/>
        <path id="Path_4297" data-name="Path 4297" d="M128.928,30.841a.18.18,0,0,1,.224.089.172.172,0,0,1-.054.244" fill="#221f20"/>
        <path id="Path_4298" data-name="Path 4298" d="M134.071,29.928a.336.336,0,1,0,.474-.012.334.334,0,0,0-.474.012" fill="#221f20"/>
        <path id="Path_4299" data-name="Path 4299" d="M138.36,31.983a.336.336,0,1,0,.431.2.336.336,0,0,0-.431-.2" fill="#221f20"/>
        <path id="Path_4300" data-name="Path 4300" d="M132.1,34.456a.213.213,0,1,1-.283,0,.2.2,0,0,1,.283,0" fill="#221f20"/>
        <path id="Path_4301" data-name="Path 4301" d="M132.8,33.613a.189.189,0,1,1-.043.28.2.2,0,0,1,.043-.28" fill="#221f20"/>
        <path id="Path_4302" data-name="Path 4302" d="M134.09,32.829a.2.2,0,0,1-.041.277.206.206,0,0,1-.284-.006.2.2,0,0,1,.04-.278.2.2,0,0,1,.285.007" fill="#221f20"/>
        <path id="Path_4303" data-name="Path 4303" d="M135.081,32.388a.2.2,0,0,1-.278-.041.2.2,0,0,1,.075-.273" fill="#221f20"/>
        <path id="Path_4304" data-name="Path 4304" d="M130.885,35.349a.2.2,0,0,1,.283-.018.2.2,0,0,1-.016.28" fill="#221f20"/>
        <path id="Path_4305" data-name="Path 4305" d="M136.276,31.491a.213.213,0,0,1-.376.193.213.213,0,0,1,.376-.193" fill="#221f20"/>
        <path id="Path_4306" data-name="Path 4306" d="M137.209,30.905a.2.2,0,0,1,.26.116.214.214,0,0,1-.4.131.2.2,0,0,1,.142-.247" fill="#221f20"/>
        <path id="Path_4307" data-name="Path 4307" d="M138.737,30.852a.2.2,0,0,1-.2.192.209.209,0,0,1-.223-.167.191.191,0,0,1,.2-.206.225.225,0,0,1,.161.049.17.17,0,0,1,.065.132" fill="#221f20"/>
        <path id="Path_4308" data-name="Path 4308" d="M139.644,31.35a.212.212,0,0,1-.093-.118.185.185,0,0,1,.009-.144.167.167,0,0,1,.119-.088.235.235,0,0,1,.165.034" fill="#221f20"/>
        <path id="Path_4309" data-name="Path 4309" d="M134.878,32.074a.2.2,0,0,1,.28.044.2.2,0,0,1-.078.271" fill="#221f20"/>
        <path id="Path_4310" data-name="Path 4310" d="M140.505,32.4a.206.206,0,0,1-.135-.054.219.219,0,0,1-.047-.262.2.2,0,0,1,.107-.1.157.157,0,0,1,.146.02.231.231,0,0,1,.094.15.237.237,0,0,1-.036.175.156.156,0,0,1-.129.069" fill="#221f20"/>
        <path id="Path_4311" data-name="Path 4311" d="M140.211,33.493a.237.237,0,0,1-.164.065.163.163,0,0,1-.129-.073.192.192,0,0,1-.027-.141.213.213,0,0,1,.066-.126.218.218,0,0,1,.131-.056.2.2,0,0,1,.14.039.156.156,0,0,1,.06.134.227.227,0,0,1-.077.158" fill="#221f20"/>
        <path id="Path_4312" data-name="Path 4312" d="M138.7,33.506a.2.2,0,0,1,.114-.086.211.211,0,0,1,.069-.013.283.283,0,0,1,.069.011.2.2,0,0,1,.061.034.208.208,0,0,1,.047.051.215.215,0,0,1,.037.14.157.157,0,0,1-.083.121.222.222,0,0,1-.177.01.237.237,0,0,1-.141-.118.156.156,0,0,1,0-.15" fill="#221f20"/>
        <path id="Path_4313" data-name="Path 4313" d="M138.547,32.572a.21.21,0,0,1-.2.186c-.108,0-.184-.1-.173-.237" fill="#221f20"/>
        <path id="Path_4314" data-name="Path 4314" d="M139.844,31.034a.234.234,0,0,1,.1.136.164.164,0,0,1-.029.144.189.189,0,0,1-.127.069.217.217,0,0,1-.145-.033" fill="#221f20"/>
        <path id="Path_4315" data-name="Path 4315" d="M133.093,31.068a.22.22,0,1,1,.286.022.2.2,0,0,1-.286-.022" fill="#221f20"/>
        <path id="Path_4316" data-name="Path 4316" d="M132.317,31.871a.189.189,0,1,1,.064-.279.2.2,0,0,1-.064.279" fill="#221f20"/>
        <path id="Path_4317" data-name="Path 4317" d="M130.976,32.64a.2.2,0,0,1,.046-.28.209.209,0,0,1,.289,0,.2.2,0,0,1-.046.28.207.207,0,0,1-.289,0" fill="#221f20"/>
        <path id="Path_4318" data-name="Path 4318" d="M129.972,33.132a.189.189,0,1,1,.222.3" fill="#221f20"/>
        <path id="Path_4319" data-name="Path 4319" d="M134.439,30.31a.189.189,0,1,1-.221-.3" fill="#221f20"/>
        <path id="Path_4320" data-name="Path 4320" d="M133.03,29.249a.169.169,0,0,1-.186.2.2.2,0,0,1-.1-.028.212.212,0,0,1-.062-.061.15.15,0,0,1,0-.145.275.275,0,0,1,.094-.1.186.186,0,0,1,.047-.028c.015,0,.026-.012.038-.009a.219.219,0,0,1,.168.171" fill="#221f20"/>
        <path id="Path_4321" data-name="Path 4321" d="M133.769,28.727a.184.184,0,0,1,.246.08.179.179,0,1,1-.246-.08" fill="#221f20"/>
      </g>
    </g>
    <g id="Group_1442" data-name="Group 1442">
      <g id="Group_1441" data-name="Group 1441" clip-path="url(#clip-path)">
        <path id="Path_4322" data-name="Path 4322" d="M4.437,6.575,4.32,6.95C16.29,10.807,33,15.192,47.926,18.393c5.6,1.2,13.635,3.568,18.95,5.135,1.758.516,3.279.965,4.334,1.258a.476.476,0,0,0,.148.02.637.637,0,0,0,.571-.4.592.592,0,0,0-.2-.758c-.278-.176-.844-.5-1.388-.809-.41-.234-.8-.457-1.012-.586-.395-.238-.813-.489-1.243-.746-2.727-1.626-7.292-4.35-6.628-5.62a64.734,64.734,0,0,1,5.71-8.36C68.24,6.1,70.85,2.659,72.23.764,71.89.435,71.577.138,71.523.2c-.258.336-.95,1.411-1.188,1.739l.011-.008c-1.415,1.946-2.681,3.631-3.8,5.128a65.358,65.358,0,0,0-5.784,8.468c-1,1.923,3.025,4.326,6.921,6.652.43.254.848.5,1.243.742.215.133.609.36,1.028.6.1.059.215.121.32.184-.9-.262-1.981-.579-3.177-.93-5.327-1.571-13.374-3.943-19.009-5.151C33.185,14.434,16.5,10.057,4.558,6.2L4.2,7.1c.14-.317.226-.5.238-.524" fill="#c1c1c1"/>
        <path id="Path_4323" data-name="Path 4323" d="M4.437,6.575,4.32,6.95C16.29,10.807,33,15.192,47.926,18.393c5.6,1.2,13.635,3.568,18.95,5.135,1.758.516,3.279.965,4.334,1.258a.476.476,0,0,0,.148.02.637.637,0,0,0,.571-.4.592.592,0,0,0-.2-.758c-.278-.176-.844-.5-1.388-.809-.41-.234-.8-.457-1.012-.586-.395-.238-.813-.489-1.243-.746-2.727-1.626-7.292-4.35-6.628-5.62a64.734,64.734,0,0,1,5.71-8.36C68.24,6.1,70.85,2.659,72.23.764,71.89.435,71.577.138,71.523.2c-.258.336-.95,1.411-1.188,1.739l.011-.008c-1.415,1.946-2.681,3.631-3.8,5.128a65.358,65.358,0,0,0-5.784,8.468c-1,1.923,3.025,4.326,6.921,6.652.43.254.848.5,1.243.742.215.133.609.36,1.028.6.1.059.215.121.32.184-.9-.262-1.981-.579-3.177-.93-5.327-1.571-13.374-3.943-19.009-5.151C33.185,14.434,16.5,10.057,4.558,6.2L4.2,7.1C4.339,6.782,4.425,6.6,4.437,6.575Z" fill="none" stroke="#221f20" stroke-miterlimit="10" stroke-width="0.391"/>
      </g>
    </g>
  </g>
</svg>
