<svg id="Group_1385" data-name="Group 1385" xmlns="http://www.w3.org/2000/svg" xmlns:xlink="http://www.w3.org/1999/xlink" width="70.416" height="106.132" viewBox="0 0 70.416 106.132">
  <defs>
    <clipPath id="clip-path">
      <rect id="Rectangle_1916" data-name="Rectangle 1916" width="70.416" height="106.132" fill="none"/>
    </clipPath>
  </defs>
  <g id="Group_1384" data-name="Group 1384" clip-path="url(#clip-path)">
    <path id="Path_1065" data-name="Path 1065" d="M7.673,83.36S3.432,77.305,4.924,62.723s10.77-46.066,14.25-52.2,3.064-7.308,8.865-7.98a91.512,91.512,0,0,1,10.274.109c6.38.249,7.954,4.06,18.017,33.9" fill="#2e160e"/>
    <path id="Path_1066" data-name="Path 1066" d="M7.673,83.36S3.432,77.305,4.924,62.723s10.77-46.066,14.25-52.2,3.064-7.308,8.865-7.98a91.512,91.512,0,0,1,10.274.109c6.38.249,7.954,4.06,18.017,33.9" fill="none" stroke="#221f20" stroke-miterlimit="10" stroke-width="0.498"/>
    <path id="Path_1067" data-name="Path 1067" d="M10.972,176.063a131.022,131.022,0,0,1-.552-34.52c1.8-14.859-.52-47.115-2.182-55.207C4.427,67.777,6.482,53.755,16.689,22.954c1.1-3.33,5.385-14.5,8.646-16.532,2.892-1.8,13.772-2.268,16.844.642C48.843,13.376,62.685,48.521,66.4,78.382c2.817,22.643-5.966,37.035-5.966,71.667,0,20.049-9.708,51.393-29.992,47.555-12.262-2.319-18.559-16.237-19.47-21.541" fill="#fff"/>
    <path id="Path_1068" data-name="Path 1068" d="M10.972,176.063a131.022,131.022,0,0,1-.552-34.52c1.8-14.859-.52-47.115-2.182-55.207C4.427,67.777,6.482,53.755,16.689,22.954c1.1-3.33,5.385-14.5,8.646-16.532,2.892-1.8,13.772-2.268,16.844.642C48.843,13.376,62.685,48.521,66.4,78.382c2.817,22.643-5.966,37.035-5.966,71.667,0,20.049-9.708,51.393-29.992,47.555C18.18,195.285,11.883,181.367,10.972,176.063Z" fill="none" stroke="#221f20" stroke-miterlimit="10" stroke-width="0.508"/>
    <path id="Path_1069" data-name="Path 1069" d="M11.12,110.663c.412-5.4,1.186-16.975.835-24.077-.471-9.675,6.219-11.993,10.251-12.51,2.669-.343,14.769-1.1,23.235.33C55.452,76.1,57.751,83.192,58.122,93.32c.039,1.086.068,2.676.1,4.519.145,8.045.985,23.122,2.686,29.3" fill="none" stroke="#221f20" stroke-miterlimit="10" stroke-width="0.435" stroke-dasharray="1.964 1.964"/>
    <path id="Path_1070" data-name="Path 1070" d="M61.4,130.741c-3.016-4.306-3.993-23.04-4.169-32.884-.033-1.837-.061-3.424-.1-4.5-.363-9.918-2.473-16.384-11.853-17.971-8.355-1.413-20.305-.662-22.942-.324-4.511.579-9.805,3.045-9.384,11.475.467,9.5-1.932,34.423-1.954,34.677" fill="none" stroke="#221f20" stroke-linecap="round" stroke-miterlimit="10" stroke-width="0.87"/>
    <line id="Line_3" data-name="Line 3" x2="0.033" y2="0.994" transform="translate(38.065 76.31)" fill="none" stroke="#221f20" stroke-miterlimit="10" stroke-width="0.249"/>
    <path id="Path_1071" data-name="Path 1071" d="M38.163,79.3l.564,17.2.056,2.131c.414,16.112.414,16.112,6.42,19.755l.411.25c5.359,3.257,7.107,9.854,7.107,17.823,0,7.941-1.735,17.244-3.362,25.969-1.1,5.881-2.134,11.437-2.514,16-.567,6.8-2.609,11.692-6.07,14.526a10.654,10.654,0,0,1-7.349,2.5,7.034,7.034,0,0,1-4.842-1.73c-3.3-2.658-5.294-7.861-5.928-15.464a156.444,156.444,0,0,0-2.69-16.4c-3.053-15.408-6.512-32.872,2.884-40.043a45.231,45.231,0,0,1,6.1-3.882c6.441-3.551,7.105-4.87,7.127-39.3" fill="none" stroke="#221f20" stroke-miterlimit="10" stroke-width="0.249" stroke-dasharray="1.997 1.997"/>
    <path id="Path_1072" data-name="Path 1072" d="M36.076,77.636v-.994" fill="none" stroke="#221f20" stroke-miterlimit="10" stroke-width="0.249"/>
    <path id="Path_1073" data-name="Path 1073" d="M44.27,128.182C39.118,126.633,24.9,129,22.5,129c-2.036.017-2.263-2.332-1.427-3.934a11.76,11.76,0,0,1,2.385-2.453,46.52,46.52,0,0,1,5.97-3.812c6.457-3.551,8.059-4.874,7.571-42.488l.731,20.225.07,2.124c.418,16.344.418,16.658,6.893,20.574l.417.243a11.944,11.944,0,0,1,4.561,5.24v.017c.209,2.941-.244,5.013-5.4,3.446" fill="#7c3922"/>
    <path id="Path_1074" data-name="Path 1074" d="M44.27,128.182C39.118,126.633,24.9,129,22.5,129c-2.036.017-2.263-2.332-1.427-3.934a11.76,11.76,0,0,1,2.385-2.453,46.52,46.52,0,0,1,5.97-3.812c6.457-3.551,8.059-4.874,7.571-42.488l.731,20.225.07,2.124c.418,16.344.418,16.658,6.893,20.574l.417.243a11.944,11.944,0,0,1,4.561,5.24v.017C49.875,127.677,49.422,129.749,44.27,128.182Z" fill="none" stroke="#221f20" stroke-miterlimit="10" stroke-width="0.498"/>
    <path id="Path_1075" data-name="Path 1075" d="M33.815,74.578s.273,1.732,3.173,1.732c2.734,0,3.272-1.532,3.272-1.532" fill="none" stroke="#221f20" stroke-miterlimit="10" stroke-width="0.497"/>
    <path id="Path_1076" data-name="Path 1076" d="M28.951,103.4a15.055,15.055,0,0,1,15.493,0" fill="none" stroke="#221f20" stroke-linecap="round" stroke-miterlimit="10" stroke-width="2.611"/>
    <path id="Path_1077" data-name="Path 1077" d="M28.62,96.112s8.037-4.474,15.825,0" fill="none" stroke="#221f20" stroke-linecap="round" stroke-miterlimit="10" stroke-width="2.611"/>
    <path id="Path_1078" data-name="Path 1078" d="M28.2,88.489s7.871-4.888,15.742,0" fill="none" stroke="#221f20" stroke-linecap="round" stroke-miterlimit="10" stroke-width="2.611"/>
    <path id="Path_1079" data-name="Path 1079" d="M27.377,81.116s9.362-5.22,17.067,0" fill="none" stroke="#221f20" stroke-linecap="round" stroke-miterlimit="10" stroke-width="2.611"/>
    <path id="Path_1080" data-name="Path 1080" d="M16.737,77.081S27.406,91.975,26.19,119.52" fill="none" stroke="#221f20" stroke-miterlimit="10" stroke-width="0.249" stroke-dasharray="1.988 1.988"/>
    <path id="Path_1081" data-name="Path 1081" d="M45.614,118.637s2.061-27.579,8.109-38.681" fill="none" stroke="#221f20" stroke-miterlimit="10" stroke-width="0.249" stroke-dasharray="1.988 1.988"/>
  </g>
</svg>
