<svg id="Group_1383" data-name="Group 1383" xmlns="http://www.w3.org/2000/svg" xmlns:xlink="http://www.w3.org/1999/xlink" width="70.078" height="105.624" viewBox="0 0 70.078 105.624">
  <defs>
    <clipPath id="clip-path">
      <rect id="Rectangle_1912" data-name="Rectangle 1912" width="70.079" height="105.624" fill="none"/>
    </clipPath>
  </defs>
  <g id="Group_1382" data-name="Group 1382" clip-path="url(#clip-path)">
    <path id="Path_1046" data-name="Path 1046" d="M6.1,82.9s-4-11.8-2.465-22.566c2.044-14.351,4.492-22.07,7.837-32.64C15.788,14.053,20.5,1.815,31.806,2.435c13.114.718,19.232,22.067,27.258,46.2" fill="#2e160e"/>
    <path id="Path_1047" data-name="Path 1047" d="M6.1,82.9s-4-11.8-2.465-22.566c2.044-14.351,4.492-22.07,7.837-32.64C15.788,14.053,20.5,1.815,31.806,2.435c13.114.718,19.232,22.067,27.258,46.2" fill="none" stroke="#221f20" stroke-miterlimit="10" stroke-width="0.496"/>
    <path id="Path_1048" data-name="Path 1048" d="M9.391,175.375a130.693,130.693,0,0,1-.552-34.436c1.791-14.823-.518-47-2.176-55.074-3.8-18.513-.706-30.524,6.889-56.9C14.2,26.7,16.869,17.335,19.9,12.311c6.479-10.724,17.2-9.752,22.906.166C47.375,20.414,62.041,47.4,65.745,77.191c2.81,22.589-7.013,37.684-7.013,72.232,0,20-9.684,51.269-29.919,47.441-12.232-2.314-18.514-16.2-19.422-21.489" fill="#fff"/>
    <path id="Path_1049" data-name="Path 1049" d="M9.391,175.375a130.693,130.693,0,0,1-.552-34.436c1.791-14.823-.518-47-2.176-55.074-3.8-18.513-.706-30.524,6.889-56.9C14.2,26.7,16.869,17.335,19.9,12.311c6.479-10.724,17.2-9.752,22.906.166C47.375,20.414,62.041,47.4,65.745,77.191c2.81,22.589-7.013,37.684-7.013,72.232,0,20-9.684,51.269-29.919,47.441C16.581,194.55,10.3,180.665,9.391,175.375Z" fill="none" stroke="#221f20" stroke-miterlimit="10" stroke-width="0.506"/>
    <path id="Path_1050" data-name="Path 1050" d="M9.537,110.136c.412-5.385,1.183-16.935.834-24.021-.47-9.651,6.2-11.963,10.226-12.479,2.663-.342,14.733-1.1,23.178.329,9.987,1.69,12.28,8.764,12.65,18.868.04,1.083.068,2.67.1,4.508.144,8.026.983,23.069,2.68,29.235" fill="none" stroke="#221f20" stroke-miterlimit="10" stroke-width="0.433" stroke-dasharray="1.96 1.96"/>
    <path id="Path_1051" data-name="Path 1051" d="M59.694,130.163c-3.009-4.3-3.983-22.984-4.159-32.8-.033-1.833-.061-3.416-.1-4.489-.363-9.894-2.467-16.344-11.825-17.927-8.334-1.409-20.255-.661-22.886-.323-4.5.577-9.781,3.038-9.361,11.447.466,9.479-1.927,34.338-1.949,34.592" fill="none" stroke="#221f20" stroke-linecap="round" stroke-miterlimit="10" stroke-width="0.866"/>
    <line id="Line_2" data-name="Line 2" x2="0.033" y2="0.991" transform="translate(36.417 75.865)" fill="none" stroke="#221f20" stroke-miterlimit="10" stroke-width="0.433"/>
    <path id="Path_1052" data-name="Path 1052" d="M36.515,78.847l.563,17.159.055,2.125c.414,16.073.414,16.073,6.4,19.708l.41.249c5.346,3.249,7.09,9.83,7.09,17.779,0,7.922-1.731,17.2-3.355,25.906-1.094,5.867-2.128,11.409-2.507,15.957-.565,6.788-2.6,11.664-6.055,14.491a10.631,10.631,0,0,1-7.331,2.5,7.016,7.016,0,0,1-4.831-1.725c-3.291-2.653-5.281-7.843-5.913-15.427A156.147,156.147,0,0,0,18.362,161.2c-3.045-15.37-6.5-32.792,2.878-39.945a45.234,45.234,0,0,1,6.083-3.872c6.426-3.543,7.088-4.858,7.11-39.2" fill="none" stroke="#221f20" stroke-miterlimit="10" stroke-width="0.433" stroke-dasharray="1.992 1.992"/>
    <path id="Path_1053" data-name="Path 1053" d="M34.433,77.188V76.2" fill="none" stroke="#221f20" stroke-miterlimit="10" stroke-width="0.433"/>
    <path id="Path_1054" data-name="Path 1054" d="M35.342,75.865c.5,37.523-1.108,38.843-7.541,42.39a44.348,44.348,0,0,0-5.961,3.792c-4.279,3.265-5.71,8.928-5.71,15.6,0,7.183,1.655,15.54,3.2,23.359a156.761,156.761,0,0,1,2.7,16.472c.755,9.063,3.416,13,5.515,14.71a5.954,5.954,0,0,0,4.177,1.534l.058-.007.061.007a9.758,9.758,0,0,0,6.665-2.289c3.226-2.653,5.136-7.292,5.677-13.79.383-4.6,1.421-10.164,2.521-16.057,3.193-17.12,6.812-36.523-3.276-42.655l-.409-.248c-6.455-3.916-6.463-4.227-6.882-20.531l-.055-2.112Z" fill="#2e160e"/>
    <path id="Path_1055" data-name="Path 1055" d="M35.342,75.865c.5,37.523-1.108,38.843-7.541,42.39a44.348,44.348,0,0,0-5.961,3.792c-4.279,3.265-5.71,8.928-5.71,15.6,0,7.183,1.655,15.54,3.2,23.359a156.761,156.761,0,0,1,2.7,16.472c.755,9.063,3.416,13,5.515,14.71a5.954,5.954,0,0,0,4.177,1.534l.058-.007.061.007a9.758,9.758,0,0,0,6.665-2.289c3.226-2.653,5.136-7.292,5.677-13.79.383-4.6,1.421-10.164,2.521-16.057,3.193-17.12,6.812-36.523-3.276-42.655l-.409-.248c-6.455-3.916-6.463-4.227-6.882-20.531l-.055-2.112-.744-20.18" fill="none" stroke="#221f20" stroke-miterlimit="10" stroke-width="0.496"/>
    <path id="Path_1056" data-name="Path 1056" d="M32.178,74.137s.272,1.728,3.164,1.728c2.727,0,3.265-1.529,3.265-1.529" fill="none" stroke="#221f20" stroke-miterlimit="10" stroke-width="0.496"/>
    <path id="Path_1057" data-name="Path 1057" d="M15.141,76.634s10.643,14.857,9.43,42.336" fill="none" stroke="#221f20" stroke-miterlimit="10" stroke-width="0.433" stroke-dasharray="1.984 1.984"/>
    <path id="Path_1058" data-name="Path 1058" d="M43.948,118.088S46,90.576,52.037,79.5" fill="none" stroke="#221f20" stroke-miterlimit="10" stroke-width="0.433" stroke-dasharray="1.984 1.984"/>
    <path id="Path_1059" data-name="Path 1059" d="M35.345,75.865l.744,20.178.054,2.113c.417,16.305.427,16.617,6.878,20.53l.412.253a11.78,11.78,0,0,1,4.557,5.226c.2,2.936-.218,5-5.375,3.457s-19.325.8-21.735.808c-2.068.01-2.262-2.43-1.364-4.027a11.736,11.736,0,0,1,2.326-2.355,44.357,44.357,0,0,1,5.96-3.794c6.432-3.545,8.039-4.864,7.543-42.389" fill="#7c3922"/>
    <path id="Path_1060" data-name="Path 1060" d="M35.345,75.865l.744,20.178.054,2.113c.417,16.305.427,16.617,6.878,20.53l.412.253a11.78,11.78,0,0,1,4.557,5.226c.2,2.936-.218,5-5.375,3.457s-19.325.8-21.735.808c-2.068.01-2.262-2.43-1.364-4.027a11.736,11.736,0,0,1,2.326-2.355,44.357,44.357,0,0,1,5.96-3.794C34.234,114.709,35.841,113.39,35.345,75.865Z" fill="none" stroke="#221f20" stroke-miterlimit="10" stroke-width="0.496"/>
    <path id="Path_1061" data-name="Path 1061" d="M27.326,102.891a15.014,15.014,0,0,1,15.454,0" fill="none" stroke="#221f20" stroke-linecap="round" stroke-miterlimit="10" stroke-width="2.598"/>
    <path id="Path_1062" data-name="Path 1062" d="M27,95.618s8.017-4.463,15.786,0" fill="none" stroke="#221f20" stroke-linecap="round" stroke-miterlimit="10" stroke-width="2.598"/>
    <path id="Path_1063" data-name="Path 1063" d="M26.582,88.014s7.852-4.876,15.7,0" fill="none" stroke="#221f20" stroke-linecap="round" stroke-miterlimit="10" stroke-width="2.598"/>
    <path id="Path_1064" data-name="Path 1064" d="M25.755,80.659s9.339-5.207,17.026,0" fill="none" stroke="#221f20" stroke-linecap="round" stroke-miterlimit="10" stroke-width="2.598"/>
  </g>
</svg>
