<svg xmlns="http://www.w3.org/2000/svg" xmlns:xlink="http://www.w3.org/1999/xlink" width="70.416" height="106.131" viewBox="0 0 70.416 106.131">
  <defs>
    <clipPath id="clip-path">
      <rect id="Rectangle_1917" data-name="Rectangle 1917" width="70.416" height="106.131" transform="translate(0 -0.001)" fill="none"/>
    </clipPath>
  </defs>
  <g id="Group_1387" data-name="Group 1387" transform="translate(0 0.001)">
    <g id="Group_1386" data-name="Group 1386" clip-path="url(#clip-path)">
      <path id="Path_1082" data-name="Path 1082" d="M5.609,80.371S1.5,68.517,3.05,58.579c2.1-13.427,3.05-19.122,8.622-36.188,3.267-10,9.435-19.968,20.132-19.968,11.485,0,18.953,7.386,31.068,50.127" fill="#2e160e"/>
      <path id="Path_1083" data-name="Path 1083" d="M5.609,80.371S1.5,68.517,3.05,58.579c2.1-13.427,3.05-19.122,8.622-36.188,3.267-10,9.435-19.968,20.132-19.968,11.485,0,18.953,7.386,31.068,50.127" fill="none" stroke="#221f20" stroke-miterlimit="10" stroke-width="0.498"/>
      <path id="Path_1084" data-name="Path 1084" d="M8.99,175.365a134.248,134.248,0,0,1-.566-35.373c1.839-15.227-.533-48.279-2.236-56.572-3.905-19.018.2-32.071,3.574-46.066C11.418,30.478,13.92,22.3,17.4,15.96c3.185-5.8,7.626-11.05,14.4-10.99,5.609.049,10.777,3,14.772,10.188,4.487,8.073,17.7,33.11,21.023,57.989,3.093,23.176-7.925,40.072-7.925,75.56,0,20.545-9.949,52.664-30.734,48.732C16.376,195.062,9.924,180.8,8.99,175.365" fill="#fff"/>
      <path id="Path_1085" data-name="Path 1085" d="M8.99,175.365a134.248,134.248,0,0,1-.566-35.373c1.839-15.227-.533-48.279-2.236-56.572-3.905-19.018.2-32.071,3.574-46.066C11.418,30.478,13.92,22.3,17.4,15.96c3.185-5.8,7.626-11.05,14.4-10.99,5.609.049,10.777,3,14.772,10.188,4.487,8.073,17.7,33.11,21.023,57.989,3.093,23.176-7.925,40.072-7.925,75.56,0,20.545-9.949,52.664-30.734,48.732C16.376,195.062,9.924,180.8,8.99,175.365Z" fill="none" stroke="#221f20" stroke-miterlimit="10" stroke-width="0.508"/>
      <path id="Path_1086" data-name="Path 1086" d="M9.139,108.373c.423-5.522,1.218-17.408.859-24.7-.483-9.914,6.371-12.289,10.5-12.82,2.735-.351,15.133-1.129,23.809.339,10.258,1.735,12.614,9,12.994,19.381.041,1.112.07,2.743.1,4.63.147,8.254,1.011,23.732,2.758,30.052" fill="none" stroke="#221f20" stroke-miterlimit="10" stroke-width="0.435" stroke-dasharray="2.014 2.014"/>
      <path id="Path_1087" data-name="Path 1087" d="M60.662,128.922c-3.091-4.412-4.091-23.61-4.272-33.7-.034-1.882-.063-3.508-.1-4.611C55.915,80.451,53.753,73.826,44.14,72.2c-8.561-1.448-20.806-.679-23.508-.333-4.623.593-10.048,3.121-9.616,11.759.478,9.737-1.98,35.273-2,35.534" fill="none" stroke="#221f20" stroke-linecap="round" stroke-miterlimit="10" stroke-width="0.87"/>
      <line id="Line_4" data-name="Line 4" x2="0.033" y2="1.019" transform="translate(36.751 73.147)" fill="none" stroke="#221f20" stroke-miterlimit="10" stroke-width="0.255"/>
      <path id="Path_1088" data-name="Path 1088" d="M36.852,76.211l.578,17.626.057,2.183c.425,16.511.425,16.511,6.579,20.244l.421.256c5.492,3.337,7.283,10.1,7.283,18.263,0,8.137-1.778,17.671-3.446,26.611-1.124,6.027-2.186,11.72-2.575,16.391-.581,6.973-2.674,11.981-6.22,14.885A10.919,10.919,0,0,1,32,195.234a7.208,7.208,0,0,1-4.962-1.773c-3.381-2.724-5.425-8.055-6.074-15.846A160.309,160.309,0,0,0,18.2,160.809c-3.127-15.789-6.673-33.684,2.956-41.033A46.564,46.564,0,0,1,27.41,115.8c6.6-3.639,7.28-4.99,7.3-40.269" fill="none" stroke="#221f20" stroke-miterlimit="10" stroke-width="0.255" stroke-dasharray="2.046 2.046"/>
      <path id="Path_1089" data-name="Path 1089" d="M34.714,74.506V73.487" fill="none" stroke="#221f20" stroke-miterlimit="10" stroke-width="0.255"/>
      <path id="Path_1090" data-name="Path 1090" d="M43.125,126.3c-5.291-1.584-19.86.836-22.332.836-2.089.017-2.315-2.384-1.462-4.02a11.7,11.7,0,0,1,2.454-2.526,45.423,45.423,0,0,1,6.11-3.9c6.614-3.638,8.268-5,7.745-43.55l.766,20.731.07,2.175c.418,16.745.435,17.057,7.067,21.079l.417.261a12.045,12.045,0,0,1,4.683,5.378v.017c.208,2.994-.244,5.118-5.518,3.516" fill="#7c3922"/>
      <path id="Path_1091" data-name="Path 1091" d="M43.125,126.3c-5.291-1.584-19.86.836-22.332.836-2.089.017-2.315-2.384-1.462-4.02a11.7,11.7,0,0,1,2.454-2.526,45.423,45.423,0,0,1,6.11-3.9c6.614-3.638,8.268-5,7.745-43.55l.766,20.731.07,2.175c.418,16.745.435,17.057,7.067,21.079l.417.261a12.045,12.045,0,0,1,4.683,5.378v.017C48.851,125.779,48.4,127.9,43.125,126.3Z" fill="none" stroke="#221f20" stroke-miterlimit="10" stroke-width="0.498"/>
      <path id="Path_1092" data-name="Path 1092" d="M32.4,71.372s.279,1.775,3.251,1.775c2.8,0,3.354-1.57,3.354-1.57" fill="none" stroke="#221f20" stroke-miterlimit="10" stroke-width="0.509"/>
      <path id="Path_1093" data-name="Path 1093" d="M27.413,108.635a16.815,16.815,0,0,1,15.876-.424" fill="none" stroke="#221f20" stroke-linecap="round" stroke-miterlimit="10" stroke-width="2.611"/>
      <path id="Path_1094" data-name="Path 1094" d="M27.413,100.909a15.426,15.426,0,0,1,15.876,0" fill="none" stroke="#221f20" stroke-linecap="round" stroke-miterlimit="10" stroke-width="2.611"/>
      <path id="Path_1095" data-name="Path 1095" d="M27.073,93.438s8.235-4.585,16.216,0" fill="none" stroke="#221f20" stroke-linecap="round" stroke-miterlimit="10" stroke-width="2.611"/>
      <path id="Path_1096" data-name="Path 1096" d="M26.649,85.627s8.065-5.009,16.131,0" fill="none" stroke="#221f20" stroke-linecap="round" stroke-miterlimit="10" stroke-width="2.611"/>
      <path id="Path_1097" data-name="Path 1097" d="M25.8,78.071s9.594-5.349,17.489,0" fill="none" stroke="#221f20" stroke-linecap="round" stroke-miterlimit="10" stroke-width="2.611"/>
      <path id="Path_1098" data-name="Path 1098" d="M14.9,73.937S25.829,89.2,24.584,117.425" fill="none" stroke="#221f20" stroke-miterlimit="10" stroke-width="0.255" stroke-dasharray="2.038 2.038"/>
      <path id="Path_1099" data-name="Path 1099" d="M44.487,116.52S46.6,88.259,52.8,76.883" fill="none" stroke="#221f20" stroke-miterlimit="10" stroke-width="0.255" stroke-dasharray="2.038 2.038"/>
    </g>
  </g>
</svg>
