<svg id="Group_1402" data-name="Group 1402" xmlns="http://www.w3.org/2000/svg" xmlns:xlink="http://www.w3.org/1999/xlink" width="151.095" height="52.713" viewBox="0 0 151.095 52.713">
  <defs>
    <clipPath id="clip-path">
      <rect id="Rectangle_1936" data-name="Rectangle 1936" width="151.095" height="52.713" transform="translate(0 0)" fill="none"/>
    </clipPath>
  </defs>
  <g id="Group_1402-2" data-name="Group 1402" clip-path="url(#clip-path)">
    <path id="Path_2288" data-name="Path 2288" d="M2.731,52.518H38.52l.269-6.94s1.5.133,4.938.526c3.879.436,10.219,1.2,19.635,2.465,10.519,1.41,36.323,4.86,53.166,3.049,14.339-1.538,33.628-4.529,34.142-4.673.46-.124.117-2.247-.058-2.87s-1.3-.927-1.3-.927L3.035,40.963Z" fill="#2e160e"/>
    <path id="Path_2289" data-name="Path 2289" d="M2.731,52.518H38.52l.269-6.94s1.5.133,4.938.526c3.879.436,10.219,1.2,19.635,2.465,10.519,1.41,36.323,4.86,53.166,3.049,14.339-1.538,33.628-4.529,34.142-4.673.46-.124.117-2.247-.058-2.87s-1.3-.927-1.3-.927L3.035,40.963Z" fill="none" stroke="#221f20" stroke-miterlimit="10" stroke-width="0.389"/>
    <path id="Path_2290" data-name="Path 2290" d="M3.035,40.964s18.615-.28,30.146.752c12.451,1.113,56.118,7.761,73.9,7.3a196.989,196.989,0,0,0,42.23-5.865,5.22,5.22,0,0,0-.611-3.384c-.849-1.508-2.528-2.781-6.508-3.408-6.749-1.055-15.717-2.352-24.1-3.423C109.219,31.8,104.768,31.462,95,22.746,87.987,16.916,76.269,7.811,74.976,6.962,73.465,5.973,72.2,5.14,71.089,4.5c-3.166-1.823-5.109-2.111-8.135-.2,0,0-.187.151-.538.424-.027.016-.054.039-.085.062l-2.177.191c-4.417,3.135-10.266,6.944-17.1,8.813-8.685,2.372-18.884.518-26.338-1.234C12.249,11.5,8.869,10.206,7.054,9.673L5.7,9.79l-.164.015v0C4.9,11.2-4.115,31.255,3.035,40.964" fill="#fff"/>
    <path id="Path_2291" data-name="Path 2291" d="M3.035,40.964s18.615-.28,30.146.752c12.451,1.113,56.118,7.761,73.9,7.3a196.989,196.989,0,0,0,42.23-5.865,5.22,5.22,0,0,0-.611-3.384c-.849-1.508-2.528-2.781-6.508-3.408-6.749-1.055-15.717-2.352-24.1-3.423C109.219,31.8,104.768,31.462,95,22.746,87.987,16.916,76.269,7.811,74.976,6.962,73.465,5.973,72.2,5.14,71.089,4.5c-3.166-1.823-5.109-2.111-8.135-.2,0,0-.187.151-.538.424-.027.016-.054.039-.085.062l-2.177.191c-4.417,3.135-10.266,6.944-17.1,8.813-8.685,2.372-18.884.518-26.338-1.234C12.249,11.5,8.869,10.206,7.054,9.673L5.7,9.79l-.164.015v0C4.9,11.2-4.115,31.255,3.035,40.964Z" fill="none" stroke="#221f20" stroke-miterlimit="10" stroke-width="0.584"/>
    <path id="Path_2292" data-name="Path 2292" d="M39.025,42.348c.77-5.673,5.152-10.082,10.117-12.975,2.609-1.52,10.917-3.8,16.683-3.356a83.146,83.146,0,0,1,12.4,2.006,96.52,96.52,0,0,1,12.516,4.608,68.869,68.869,0,0,0,4.722-5.889c.609-.849,1.707-2.232-1.14-4.558" fill="none" stroke="#221f20" stroke-linecap="round" stroke-miterlimit="10" stroke-width="0.667"/>
    <circle id="Ellipse_157" data-name="Ellipse 157" cx="0.568" cy="0.568" r="0.568" transform="translate(90.175 23.182)" fill="none" stroke="#221f20" stroke-miterlimit="10" stroke-width="0.389"/>
    <circle id="Ellipse_158" data-name="Ellipse 158" cx="0.568" cy="0.568" r="0.568" transform="translate(84.997 19.056)" fill="none" stroke="#221f20" stroke-miterlimit="10" stroke-width="0.389"/>
    <circle id="Ellipse_159" data-name="Ellipse 159" cx="0.568" cy="0.568" r="0.568" transform="translate(79.794 14.787)" fill="none" stroke="#221f20" stroke-miterlimit="10" stroke-width="0.389"/>
    <circle id="Ellipse_160" data-name="Ellipse 160" cx="0.568" cy="0.568" r="0.568" transform="translate(74.53 11.321)" fill="none" stroke="#221f20" stroke-miterlimit="10" stroke-width="0.389"/>
    <circle id="Ellipse_161" data-name="Ellipse 161" cx="0.568" cy="0.568" r="0.568" transform="translate(68.723 7.729)" fill="none" stroke="#221f20" stroke-miterlimit="10" stroke-width="0.389"/>
    <path id="Path_2293" data-name="Path 2293" d="M93.473,21.484s.912-2.041-.865.141c-.864,1.062-1.866,2.126-1.866,2.126" fill="none" stroke="#221f20" stroke-miterlimit="10" stroke-width="1.168"/>
    <path id="Path_2294" data-name="Path 2294" d="M88.21,17.232s.626-1.877-.674-.3c-.872,1.056-1.865,2.585-1.865,2.585" fill="none" stroke="#221f20" stroke-miterlimit="10" stroke-width="1.168"/>
    <path id="Path_2295" data-name="Path 2295" d="M83.092,13.088s.912-2.041-.865.141c-.864,1.062-1.866,2.126-1.866,2.126" fill="none" stroke="#221f20" stroke-miterlimit="10" stroke-width="1.168"/>
    <path id="Path_2296" data-name="Path 2296" d="M77.992,9.3s.912-2.041-.865.141c-.864,1.062-2.03,2.452-2.03,2.452" fill="none" stroke="#221f20" stroke-miterlimit="10" stroke-width="1.168"/>
    <path id="Path_2297" data-name="Path 2297" d="M72.5,4.7s1.209-1.891-1.177.511a12.636,12.636,0,0,0-1.866,2.961" fill="none" stroke="#221f20" stroke-miterlimit="10" stroke-width="1.168"/>
    <path id="Path_2298" data-name="Path 2298" d="M84.059,13.943c-.146-.058-11.973-9.755-14.006-11.116-.061-.042-.851-.584-1-.522" fill="none" stroke="#221f20" stroke-miterlimit="10" stroke-width="0.195"/>
    <path id="Path_2299" data-name="Path 2299" d="M38.52,52.518,43.727,46.1c-3.435-.393-4.938-.526-4.938-.526Z" fill="#160602"/>
    <path id="Path_2300" data-name="Path 2300" d="M38.52,52.518,43.727,46.1c-3.435-.393-4.938-.526-4.938-.526Z" fill="none" stroke="#2e160e" stroke-linejoin="round" stroke-width="0.389"/>
    <path id="Path_2301" data-name="Path 2301" d="M5.384,10.459q.344.165.69.327" fill="none" stroke="#221f20" stroke-miterlimit="10" stroke-width="0.333"/>
    <path id="Path_2302" data-name="Path 2302" d="M7.469,11.417c11.146,4.868,24.374,6.781,34.148,5.019,9.206-1.66,20.953-10.979,21.665-11.55,3.126-2.043,4.99-1.322,10.682,2.411l2.361,1.728c1.192.782,10.911,8.414,18.161,14.427,0,0,2.183,1-.3,4.066-1.124,1.388-2.044,2.431-2.692,3.134" fill="none" stroke="#221f20" stroke-miterlimit="10" stroke-width="0.333" stroke-dasharray="1.532 1.532"/>
    <path id="Path_2303" data-name="Path 2303" d="M90.972,31.21c-.346.363-.534.543-.534.543s-.237-.123-.681-.335" fill="none" stroke="#221f20" stroke-miterlimit="10" stroke-width="0.333"/>
    <path id="Path_2304" data-name="Path 2304" d="M88.374,30.783c-4.123-1.828-13.847-5.6-23.88-5.6-12.644,0-22.863,5.32-25.984,15.573" fill="none" stroke="#221f20" stroke-miterlimit="10" stroke-width="0.333" stroke-dasharray="1.526 1.526"/>
    <path id="Path_2305" data-name="Path 2305" d="M38.3,41.495c-.065.246-.127.5-.184.746" fill="none" stroke="#221f20" stroke-miterlimit="10" stroke-width="0.333"/>
    <line id="Line_8" data-name="Line 8" x1="2.529" y1="1.219" transform="translate(88.068 30.408)" fill="none" stroke="#221f20" stroke-miterlimit="10" stroke-width="0.779"/>
    <path id="Path_2306" data-name="Path 2306" d="M90.349,29.972q-.192-.312-.417-.637" fill="none" stroke="#221f20" stroke-miterlimit="10" stroke-width="0.333"/>
    <path id="Path_2307" data-name="Path 2307" d="M89,28.106C83.318,21.087,68.737,10.731,63.1,7.623" fill="none" stroke="#221f20" stroke-miterlimit="10" stroke-width="0.333" stroke-dasharray="1.541 1.541"/>
    <path id="Path_2308" data-name="Path 2308" d="M62.415,7.26c-.257-.131-.487-.24-.687-.326" fill="none" stroke="#221f20" stroke-miterlimit="10" stroke-width="0.333"/>
    <path id="Path_2309" data-name="Path 2309" d="M5.539,9.805c.023-.051.035-.074.035-.074.043.019.086.043.129.058,12.465,5.982,26.47,7.668,35.742,5.994,8.058-1.453,18.288-9,20.886-11l-1-.65c-.382.272-.775.557-1.18.841-4.417,3.135-10.266,6.944-17.1,8.813-8.684,2.372-18.883.518-26.337-1.235C12.249,11.5,8.869,10.206,7.054,9.673c-.876-.265-1.387-.347-1.48-.137Z" fill="#c1c1c1"/>
    <path id="Path_2310" data-name="Path 2310" d="M5.539,9.805c.023-.051.035-.074.035-.074.043.019.086.043.129.058,12.465,5.982,26.47,7.668,35.742,5.994,8.058-1.453,18.288-9,20.886-11l-1-.65c-.382.272-.775.557-1.18.841-4.417,3.135-10.266,6.944-17.1,8.813-8.684,2.372-18.883.518-26.337-1.235C12.249,11.5,8.869,10.206,7.054,9.673c-.876-.265-1.387-.347-1.48-.137Z" fill="none" stroke="#221f20" stroke-miterlimit="10" stroke-width="0.389"/>
    <path id="Path_2311" data-name="Path 2311" d="M61.139,3.839c.1.5,1.141.853,1.141.853l.136.031c.351-.273.538-.424.538-.424,3.026-1.909,4.969-1.621,8.135.2l.6-.335L65.98.229s-5.012,2.765-4.841,3.61" fill="#c1c1c1"/>
    <path id="Path_2312" data-name="Path 2312" d="M61.139,3.839c.1.5,1.141.853,1.141.853l.136.031c.351-.273.538-.424.538-.424,3.026-1.909,4.969-1.621,8.135.2l.6-.335L65.98.229S60.968,2.994,61.139,3.839Z" fill="none" stroke="#221f20" stroke-miterlimit="10" stroke-width="0.389"/>
  </g>
</svg>
