<svg xmlns="http://www.w3.org/2000/svg" xmlns:xlink="http://www.w3.org/1999/xlink" width="151.462" height="52.845" viewBox="0 0 151.462 52.845">
  <defs>
    <clipPath id="clip-path">
      <rect id="Rectangle_1937" data-name="Rectangle 1937" width="151.462" height="52.845" transform="translate(0 0)" fill="none"/>
    </clipPath>
  </defs>
  <g id="Group_1403" data-name="Group 1403" transform="translate(0 0)">
    <g id="Group_1403-2" data-name="Group 1403" clip-path="url(#clip-path)">
      <path id="Path_2313" data-name="Path 2313" d="M2.736,52.649h35.88l.269-6.957s1.507.133,4.95.524c3.888.441,10.244,1.206,19.683,2.475,10.54,1.413,36.407,4.868,53.3,3.056,14.37-1.542,33.709-4.544,34.224-4.684.461-.125.114-2.253-.062-2.881-.168-.609-1.3-.926-1.3-.926L3.044,41.066Z" fill="#2e160e"/>
      <path id="Path_2314" data-name="Path 2314" d="M2.736,52.649h35.88l.269-6.957s1.507.133,4.95.524c3.888.441,10.244,1.206,19.683,2.475,10.54,1.413,36.407,4.868,53.3,3.056,14.37-1.542,33.709-4.544,34.224-4.684.461-.125.114-2.253-.062-2.881-.168-.609-1.3-.926-1.3-.926L3.044,41.066Z" fill="none" stroke="#221f20" stroke-miterlimit="10" stroke-width="0.39"/>
      <path id="Path_2315" data-name="Path 2315" d="M3.044,41.067s18.656-.281,30.219.753c12.477,1.117,56.254,7.781,74.079,7.316a197.381,197.381,0,0,0,42.332-5.879,5.224,5.224,0,0,0-.609-3.4c-.851-1.511-2.533-2.788-6.523-3.412-6.765-1.062-15.756-2.358-24.16-3.432-8.9-1.14-13.359-1.475-23.146-10.212C88.2,16.961,76.455,7.834,75.155,6.983c-1.515-.992-2.78-1.823-3.892-2.467-3.17-1.827-5.122-2.116-8.155-.2,0,0-.2.164-.578.453-.035.027-.074.058-.117.089l-2.182.188c-4.419,3.131-10.256,6.921-17.072,8.783-8.705,2.378-18.929.52-26.4-1.237C12.144,11.5,8.685,10.157,6.913,9.653L5.6,9.766H5.585c-.222.473-9.888,21.331-2.541,31.3" fill="#fff"/>
      <path id="Path_2316" data-name="Path 2316" d="M3.044,41.067s18.656-.281,30.219.753c12.477,1.117,56.254,7.781,74.079,7.316a197.381,197.381,0,0,0,42.332-5.879,5.224,5.224,0,0,0-.609-3.4c-.851-1.511-2.533-2.788-6.523-3.412-6.765-1.062-15.756-2.358-24.16-3.432-8.9-1.14-13.359-1.475-23.146-10.212C88.2,16.961,76.455,7.834,75.155,6.983c-1.515-.992-2.78-1.823-3.892-2.467-3.17-1.827-5.122-2.116-8.155-.2,0,0-.2.164-.578.453-.035.027-.074.058-.117.089l-2.182.188c-4.419,3.131-10.256,6.921-17.072,8.783-8.705,2.378-18.929.52-26.4-1.237C12.144,11.5,8.685,10.157,6.913,9.653L5.6,9.766H5.585C5.363,10.239-4.3,31.1,3.044,41.067Z" fill="none" stroke="#221f20" stroke-miterlimit="10" stroke-width="0.586"/>
      <path id="Path_2317" data-name="Path 2317" d="M45.636,43.113a17.5,17.5,0,0,1,7.6-13.849,20.176,20.176,0,0,1,12.752-3.182,83.369,83.369,0,0,1,12.432,2.011,96.758,96.758,0,0,1,12.546,4.619,68.472,68.472,0,0,0,4.733-5.9c.611-.851,1.712-2.238-1.142-4.569" fill="none" stroke="#221f20" stroke-linecap="round" stroke-miterlimit="10" stroke-width="0.668"/>
      <path id="Path_2318" data-name="Path 2318" d="M90.395,23.811a.57.57,0,1,0,.568-.569A.568.568,0,0,0,90.395,23.811Z" fill="none" stroke="#221f20" stroke-miterlimit="10" stroke-width="0.39"/>
      <path id="Path_2319" data-name="Path 2319" d="M85.2,19.675a.57.57,0,1,0,.569-.569A.569.569,0,0,0,85.2,19.675Z" fill="none" stroke="#221f20" stroke-miterlimit="10" stroke-width="0.39"/>
      <path id="Path_2320" data-name="Path 2320" d="M79.988,15.4a.57.57,0,1,0,.569-.569A.569.569,0,0,0,79.988,15.4Z" fill="none" stroke="#221f20" stroke-miterlimit="10" stroke-width="0.39"/>
      <path id="Path_2321" data-name="Path 2321" d="M74.712,11.921a.57.57,0,1,0,.569-.569A.569.569,0,0,0,74.712,11.921Z" fill="none" stroke="#221f20" stroke-miterlimit="10" stroke-width="0.39"/>
      <path id="Path_2322" data-name="Path 2322" d="M68.891,8.32a.57.57,0,1,0,.569-.569A.569.569,0,0,0,68.891,8.32Z" fill="none" stroke="#221f20" stroke-miterlimit="10" stroke-width="0.39"/>
      <path id="Path_2323" data-name="Path 2323" d="M93.7,21.538s.914-2.046-.867.142c-.866,1.064-1.87,2.13-1.87,2.13" fill="none" stroke="#221f20" stroke-miterlimit="10" stroke-width="1.171"/>
      <path id="Path_2324" data-name="Path 2324" d="M88.425,17.276s.628-1.881-.675-.3c-.873,1.059-1.871,2.591-1.871,2.591" fill="none" stroke="#221f20" stroke-miterlimit="10" stroke-width="1.171"/>
      <path id="Path_2325" data-name="Path 2325" d="M83.295,13.123s.914-2.046-.867.142c-.866,1.064-1.87,2.13-1.87,2.13" fill="none" stroke="#221f20" stroke-miterlimit="10" stroke-width="1.171"/>
      <path id="Path_2326" data-name="Path 2326" d="M78.183,9.321s.914-2.046-.867.142c-.866,1.064-2.035,2.458-2.035,2.458" fill="none" stroke="#221f20" stroke-miterlimit="10" stroke-width="1.171"/>
      <path id="Path_2327" data-name="Path 2327" d="M72.681,4.716s1.212-1.9-1.18.512A12.662,12.662,0,0,0,69.631,8.2" fill="none" stroke="#221f20" stroke-miterlimit="10" stroke-width="1.171"/>
      <path id="Path_2328" data-name="Path 2328" d="M84.264,13.979c-.146-.059-12-9.778-14.039-11.143-.062-.042-.854-.586-1-.523" fill="none" stroke="#221f20" stroke-miterlimit="10" stroke-width="0.195"/>
      <path id="Path_2329" data-name="Path 2329" d="M38.616,52.649l5.219-6.433c-3.443-.391-4.95-.524-4.95-.524Z" fill="#160602"/>
      <path id="Path_2330" data-name="Path 2330" d="M38.616,52.649l5.219-6.433c-3.443-.391-4.95-.524-4.95-.524Z" fill="none" stroke="#2e160e" stroke-linejoin="round" stroke-width="0.39"/>
      <path id="Path_2331" data-name="Path 2331" d="M109.813,31.7a145.208,145.208,0,0,1,0,17.235" fill="none" stroke="#221f20" stroke-miterlimit="10" stroke-width="0.334" stroke-dasharray="1.531 1.531"/>
      <path id="Path_2332" data-name="Path 2332" d="M108.872,31.464s.954,15.869,0,17.6" fill="none" stroke="#221f20" stroke-linecap="round" stroke-miterlimit="10" stroke-width="0.668"/>
      <path id="Path_2333" data-name="Path 2333" d="M5.48,10.326c.229.111.46.22.691.328" fill="none" stroke="#221f20" stroke-miterlimit="10" stroke-width="0.334"/>
      <path id="Path_2334" data-name="Path 2334" d="M7.57,11.286c11.173,4.88,24.433,6.8,34.23,5.031,9.228-1.664,21-11.006,21.719-11.578,3.133-2.048,5-1.325,10.707,2.417l2.367,1.732c1.194.784,10.937,8.435,18.2,14.462,0,0,2.188,1-.3,4.076-1.127,1.391-2.049,2.436-2.7,3.142" fill="none" stroke="#221f20" stroke-miterlimit="10" stroke-width="0.334" stroke-dasharray="1.535 1.535"/>
      <path id="Path_2335" data-name="Path 2335" d="M91.275,31.127c-.347.364-.535.544-.535.544s-.238-.123-.683-.336" fill="none" stroke="#221f20" stroke-miterlimit="10" stroke-width="0.334"/>
      <path id="Path_2336" data-name="Path 2336" d="M88.708,30.715C84.6,28.889,74.82,25.086,64.733,25.086c-12.467,0-18.565,8.566-19.658,16.4" fill="none" stroke="#221f20" stroke-miterlimit="10" stroke-width="0.334" stroke-dasharray="1.49 1.49"/>
      <path id="Path_2337" data-name="Path 2337" d="M44.986,42.233c-.026.254-.046.508-.061.76" fill="none" stroke="#221f20" stroke-miterlimit="10" stroke-width="0.334"/>
      <line id="Line_9" data-name="Line 9" x1="2.535" y1="1.222" transform="translate(88.364 30.323)" fill="none" stroke="#221f20" stroke-miterlimit="10" stroke-width="0.781"/>
      <path id="Path_2338" data-name="Path 2338" d="M90.395,30.323c-.129-.208-.268-.421-.419-.638" fill="none" stroke="#221f20" stroke-miterlimit="10" stroke-width="0.334"/>
      <path id="Path_2339" data-name="Path 2339" d="M89.047,28.452c-5.7-7.036-20.317-17.417-25.971-20.533" fill="none" stroke="#221f20" stroke-miterlimit="10" stroke-width="0.334" stroke-dasharray="1.545 1.545"/>
      <path id="Path_2340" data-name="Path 2340" d="M62.393,7.556c-.258-.131-.488-.241-.688-.327" fill="none" stroke="#221f20" stroke-miterlimit="10" stroke-width="0.334"/>
      <path id="Path_2341" data-name="Path 2341" d="M5.586,9.766l0-.008s.008,0,.012.008C18.125,15.8,32.225,17.5,41.548,15.825,49.554,14.38,59.7,6.936,62.414,4.855l-.93-.707c-.4.289-.819.59-1.253.894-4.419,3.131-10.255,6.922-17.071,8.784-8.7,2.377-18.929.519-26.4-1.238C12.144,11.5,8.686,10.156,6.913,9.653c-.78-.227-1.233-.285-1.323-.09Z" fill="#c1c1c1"/>
      <path id="Path_2342" data-name="Path 2342" d="M5.586,9.766l0-.008s.008,0,.012.008C18.125,15.8,32.225,17.5,41.548,15.825,49.554,14.38,59.7,6.936,62.414,4.855l-.93-.707c-.4.289-.819.59-1.253.894-4.419,3.131-10.255,6.922-17.071,8.784-8.7,2.377-18.929.519-26.4-1.238C12.144,11.5,8.686,10.156,6.913,9.653c-.78-.227-1.233-.285-1.323-.09Z" fill="none" stroke="#221f20" stroke-miterlimit="10" stroke-width="0.39"/>
      <path id="Path_2343" data-name="Path 2343" d="M61.285,3.852c.1.5,1.148.855,1.148.855l.1.058c.375-.288.578-.452.578-.452,3.033-1.913,4.985-1.624,8.155.2l.6-.34L66.141.229s-5.024,2.776-4.856,3.623" fill="#c1c1c1"/>
      <path id="Path_2344" data-name="Path 2344" d="M61.285,3.852c.1.5,1.148.855,1.148.855l.1.058c.375-.288.578-.452.578-.452,3.033-1.913,4.985-1.624,8.155.2l.6-.34L66.141.229S61.117,3.005,61.285,3.852Z" fill="none" stroke="#221f20" stroke-miterlimit="10" stroke-width="0.39"/>
    </g>
  </g>
</svg>
