<svg xmlns="http://www.w3.org/2000/svg" xmlns:xlink="http://www.w3.org/1999/xlink" width="150.62" height="52.514" viewBox="0 0 150.62 52.514">
  <defs>
    <clipPath id="clip-path">
      <rect id="Rectangle_1934" data-name="Rectangle 1934" width="150.62" height="52.514" transform="translate(0 0)" fill="none"/>
    </clipPath>
  </defs>
  <g id="Group_1400" data-name="Group 1400" transform="translate(0 0)">
    <g id="Group_1400-2" data-name="Group 1400" clip-path="url(#clip-path)">
      <path id="Path_1856" data-name="Path 1856" d="M2.951,40.693a1.042,1.042,0,0,0,.074.109s18.553-.284,30.051.745c12.408,1.11,55.942,7.741,73.668,7.279a196.542,196.542,0,0,0,42.1-5.85,5.2,5.2,0,0,0-.61-3.374c-.846-1.5-2.519-2.772-6.487-3.393-6.727-1.056-15.668-2.349-24.026-3.416-8.848-1.13-12.947-1.58-21.03-8.483l-1.988-1.673c-3.144-2.613-7.24-5.889-10.908-8.774-.264-.209-.524-.415-.781-.613-.07-.058-.147-.12-.229-.182-2.345-1.841-4.456-3.475-5.943-4.609-1.079-.819-1.829-1.374-2.1-1.556-3-1.968-5.016-3.3-6.825-3.77-1.685-.435-3.195-.124-5.16,1.114,0,0-.24.194-.679.532-.089.07-.19.148-.3.229C58.71,7.33,49.016,14.306,41.314,15.7c-9.274,1.673-23.3-.023-35.758-6.033,0,0-.02.039-.051.113C4.752,11.422-3.986,31.05,2.951,40.693" fill="#fff"/>
      <path id="Path_1857" data-name="Path 1857" d="M2.951,40.693a1.042,1.042,0,0,0,.074.109s18.553-.284,30.051.745c12.408,1.11,55.942,7.741,73.668,7.279a196.542,196.542,0,0,0,42.1-5.85,5.2,5.2,0,0,0-.61-3.374c-.846-1.5-2.519-2.772-6.487-3.393-6.727-1.056-15.668-2.349-24.026-3.416-8.848-1.13-12.947-1.58-21.03-8.483l-1.988-1.673c-3.144-2.613-7.24-5.889-10.908-8.774-.264-.209-.524-.415-.781-.613-.07-.058-.147-.12-.229-.182-2.345-1.841-4.456-3.475-5.943-4.609-1.079-.819-1.829-1.374-2.1-1.556-3-1.968-5.016-3.3-6.825-3.77-1.685-.435-3.195-.124-5.16,1.114,0,0-.24.194-.679.532-.089.07-.19.148-.3.229C58.71,7.33,49.016,14.306,41.314,15.7c-9.274,1.673-23.3-.023-35.758-6.033,0,0-.02.039-.051.113C4.752,11.422-3.986,31.05,2.951,40.693Z" fill="none" stroke="#221f20" stroke-miterlimit="10" stroke-width="0.582"/>
      <path id="Path_1858" data-name="Path 1858" d="M85.642,26.878a3.651,3.651,0,0,0-.084-.754" fill="none" stroke="#221f20" stroke-miterlimit="10" stroke-width="0.332"/>
      <path id="Path_1859" data-name="Path 1859" d="M85.045,24.711C81.985,18.519,67.99,9.137,62.5,6.213" fill="none" stroke="#221f20" stroke-miterlimit="10" stroke-width="0.332" stroke-dasharray="1.509 1.509"/>
      <path id="Path_1860" data-name="Path 1860" d="M61.828,5.868c-.258-.128-.488-.236-.687-.321" fill="none" stroke="#221f20" stroke-miterlimit="10" stroke-width="0.332"/>
      <path id="Path_1861" data-name="Path 1861" d="M46.156,42.875q.02-.384.045-.761" fill="none" stroke="#221f20" stroke-miterlimit="10" stroke-width="0.332"/>
      <path id="Path_1862" data-name="Path 1862" d="M46.323,40.585c.6-6.263,2.46-10.964,8.281-14.542,6.163-3.789,21.223-.31,24.179.426,10.568,2.63,14.669,2.649,17.6-.429" fill="none" stroke="#221f20" stroke-miterlimit="10" stroke-width="0.332" stroke-dasharray="1.532 1.532"/>
      <path id="Path_1863" data-name="Path 1863" d="M96.891,25.467q.234-.286.461-.6" fill="none" stroke="#221f20" stroke-miterlimit="10" stroke-width="0.332"/>
      <path id="Path_1864" data-name="Path 1864" d="M96.754,24.1c-2.347,3.676-5.338,4.712-17.784,1.614a79.351,79.351,0,0,0-12.245-2.043c-5.749-.443-9.964.133-12.528,1.709-6.777,4.166-8.426,9.991-8.817,17.454" fill="none" stroke="#221f20" stroke-linecap="round" stroke-miterlimit="10" stroke-width="0.665"/>
      <path id="Path_1865" data-name="Path 1865" d="M2.718,52.32H38.4l.268-6.922s6.8.61,24.5,2.982c10.486,1.4,36.2,4.844,53,3.039,14.29-1.533,33.522-4.515,34.035-4.654.458-.129.116-2.244-.058-2.865s-1.293-.924-1.293-.924a196.542,196.542,0,0,1-42.1,5.85c-17.726.462-61.26-6.169-73.668-7.279C21.577,40.518,3.025,40.8,3.025,40.8a1.042,1.042,0,0,1-.074-.109Z" fill="#2e160e"/>
      <path id="Path_1866" data-name="Path 1866" d="M2.718,52.32H38.4l.268-6.922s6.8.61,24.5,2.982c10.486,1.4,36.2,4.844,53,3.039,14.29-1.533,33.522-4.515,34.035-4.654.458-.129.116-2.244-.058-2.865s-1.293-.924-1.293-.924a196.542,196.542,0,0,1-42.1,5.85c-17.726.462-61.26-6.169-73.668-7.279C21.577,40.518,3.025,40.8,3.025,40.8a1.042,1.042,0,0,1-.074-.109Z" fill="none" stroke="#221f20" stroke-miterlimit="10" stroke-width="0.388"/>
      <circle id="Ellipse_152" data-name="Ellipse 152" cx="0.566" cy="0.566" r="0.566" transform="translate(89.891 23.073)" fill="none" stroke="#221f20" stroke-miterlimit="10" stroke-width="0.388"/>
      <circle id="Ellipse_153" data-name="Ellipse 153" cx="0.566" cy="0.566" r="0.566" transform="translate(84.729 18.96)" fill="none" stroke="#221f20" stroke-miterlimit="10" stroke-width="0.388"/>
      <circle id="Ellipse_154" data-name="Ellipse 154" cx="0.566" cy="0.566" r="0.566" transform="translate(79.542 14.704)" fill="none" stroke="#221f20" stroke-miterlimit="10" stroke-width="0.388"/>
      <circle id="Ellipse_155" data-name="Ellipse 155" cx="0.566" cy="0.566" r="0.566" transform="translate(74.295 11.248)" fill="none" stroke="#221f20" stroke-miterlimit="10" stroke-width="0.388"/>
      <circle id="Ellipse_156" data-name="Ellipse 156" cx="0.566" cy="0.566" r="0.566" transform="translate(68.507 7.668)" fill="none" stroke="#221f20" stroke-miterlimit="10" stroke-width="0.388"/>
      <path id="Path_1867" data-name="Path 1867" d="M5.505,9.775c.031-.074.05-.113.05-.113,12.458,6.01,26.484,7.706,35.759,6.033,7.7-1.39,17.4-8.366,20.463-10.687.108-.082.209-.159.3-.229l-.936-.695c-4.515,3.249-10.785,7.589-18.223,9.624-8.657,2.364-18.824.516-26.255-1.231-6.6-1.553-10.819-3.649-11.107-3.009Z" fill="#c1c1c1"/>
      <path id="Path_1868" data-name="Path 1868" d="M5.505,9.775c.031-.074.05-.113.05-.113,12.458,6.01,26.484,7.706,35.759,6.033,7.7-1.39,17.4-8.366,20.463-10.687.108-.082.209-.159.3-.229l-.936-.695c-4.515,3.249-10.785,7.589-18.223,9.624-8.657,2.364-18.824.516-26.255-1.231-6.6-1.553-10.819-3.649-11.107-3.009Z" fill="none" stroke="#221f20" stroke-miterlimit="10" stroke-width="0.388"/>
      <path id="Path_1869" data-name="Path 1869" d="M67.915,3.133c1.809.47,3.824,1.8,6.825,3.77.275.182,1.025.737,2.1,1.556,1.487,1.134,3.6,2.768,5.943,4.608C79.864,10.711,71.51,3.9,69.833,2.78c-.062-.039-.85-.583-1-.52l-.7.454Z" fill="#7f3616"/>
      <path id="Path_1870" data-name="Path 1870" d="M67.915,3.133c1.809.47,3.824,1.8,6.825,3.77.275.182,1.025.737,2.1,1.556,1.487,1.134,3.6,2.768,5.943,4.608C79.864,10.711,71.51,3.9,69.833,2.78c-.062-.039-.85-.583-1-.52l-.7.454Z" fill="none" stroke="#221f20" stroke-miterlimit="10" stroke-width="0.388"/>
      <path id="Path_1871" data-name="Path 1871" d="M60.752,3.832c.058.295.6.808,1.025,1.176.629-.477.978-.761.978-.761C66.831,1.677,68.939,3.1,74.739,6.9c.276.182,1.025.737,2.105,1.556l.124-.093L65.578.229s-5,2.761-4.826,3.6" fill="#c9c9c9"/>
      <path id="Path_1872" data-name="Path 1872" d="M60.752,3.832c.058.295.6.808,1.025,1.176.629-.477.978-.761.978-.761C66.831,1.677,68.939,3.1,74.739,6.9c.276.182,1.025.737,2.105,1.556l.124-.093L65.578.229S60.581,2.99,60.752,3.832Z" fill="none" stroke="#221f20" stroke-miterlimit="10" stroke-width="0.388"/>
      <path id="Path_1873" data-name="Path 1873" d="M94.774,26.494s-2.4-1.6.079-3.923c0,0,.254-.157,1.84,1.739" fill="none" stroke="#221f20" stroke-miterlimit="10" stroke-width="0.381"/>
      <path id="Path_1874" data-name="Path 1874" d="M38.4,52.318l5.188-6.4L38.667,45.4Z" fill="#160602"/>
      <path id="Path_1875" data-name="Path 1875" d="M38.4,52.318l5.188-6.4L38.667,45.4Z" fill="none" stroke="#2e160e" stroke-linejoin="round" stroke-width="0.388"/>
      <path id="Path_1876" data-name="Path 1876" d="M5.366,10.389q.342.165.688.326" fill="none" stroke="#221f20" stroke-miterlimit="10" stroke-width="0.332"/>
      <path id="Path_1877" data-name="Path 1877" d="M7.429,11.337c11.114,4.858,24.31,6.767,34.057,5.01C50.663,14.693,62.373,5.4,63.084,4.834,66.2,2.8,68.058,3.516,73.732,7.237L76.085,8.96c1.125.737,9.874,7.6,16.937,13.417" fill="none" stroke="#221f20" stroke-miterlimit="10" stroke-width="0.332" stroke-dasharray="1.509 1.509"/>
      <path id="Path_1878" data-name="Path 1878" d="M93.6,22.857l.585.484" fill="none" stroke="#221f20" stroke-miterlimit="10" stroke-width="0.332"/>
      <path id="Path_1879" data-name="Path 1879" d="M93.179,21.379s.909-2.035-.862.141c-.862,1.058-1.86,2.119-1.86,2.119" fill="none" stroke="#221f20" stroke-miterlimit="10" stroke-width="1.165"/>
      <path id="Path_1880" data-name="Path 1880" d="M87.932,17.141s.624-1.871-.671-.3c-.869,1.053-1.86,2.576-1.86,2.576" fill="none" stroke="#221f20" stroke-miterlimit="10" stroke-width="1.165"/>
      <path id="Path_1881" data-name="Path 1881" d="M82.831,13.01s.909-2.035-.862.141c-.862,1.058-1.86,2.119-1.86,2.119" fill="none" stroke="#221f20" stroke-miterlimit="10" stroke-width="1.165"/>
      <path id="Path_1882" data-name="Path 1882" d="M77.747,9.229s.909-2.035-.862.141c-.862,1.058-2.024,2.444-2.024,2.444" fill="none" stroke="#221f20" stroke-miterlimit="10" stroke-width="1.165"/>
      <path id="Path_1883" data-name="Path 1883" d="M72.082,4.691s1.205-1.885-1.173.51a12.574,12.574,0,0,0-1.86,2.951" fill="none" stroke="#221f20" stroke-miterlimit="10" stroke-width="1.165"/>
      <path id="Path_1884" data-name="Path 1884" d="M60.928,45.4c5.384-9.8,20.982-8.156,33.516-6.832a90.143,90.143,0,0,0,12.342.792c4.378-.205,6.766-1.111,7.3-2.768.713-2.213-1.9-4.277-2.035-4.382" fill="none" stroke="#221f20" stroke-miterlimit="10" stroke-width="0.195" stroke-dasharray="1.562 1.562"/>
      <path id="Path_1885" data-name="Path 1885" d="M60.243,45.022c5.634-10.259,21.519-8.581,34.283-7.233a89.38,89.38,0,0,0,12.223.789c4.93-.231,6.306-1.339,6.593-2.227.456-1.41-1.783-3.736-2.572-4.363" fill="none" stroke="#221f20" stroke-miterlimit="10" stroke-width="0.39"/>
    </g>
  </g>
</svg>
