<svg xmlns="http://www.w3.org/2000/svg" xmlns:xlink="http://www.w3.org/1999/xlink" width="151.27" height="52.775" viewBox="0 0 151.27 52.775">
  <defs>
    <clipPath id="clip-path">
      <rect id="Rectangle_1939" data-name="Rectangle 1939" width="151.27" height="52.775" transform="translate(0 0)" fill="none"/>
    </clipPath>
  </defs>
  <g id="Group_1405" data-name="Group 1405" transform="translate(0 0)">
    <g id="Group_1405-2" data-name="Group 1405" clip-path="url(#clip-path)">
      <path id="Path_2599" data-name="Path 2599" d="M2.734,52.58H38.568l.269-6.948s1.5.133,4.94.523c3.883.44,10.23,1.2,19.661,2.472,10.527,1.411,36.361,4.865,53.227,3.052,14.352-1.54,33.662-4.534,34.181-4.678.46-.125.113-2.25-.062-2.874s-1.3-.928-1.3-.928L3.038,41.012Z" fill="#2e160e"/>
      <path id="Path_2600" data-name="Path 2600" d="M2.734,52.58H38.568l.269-6.948s1.5.133,4.94.523c3.883.44,10.23,1.2,19.661,2.472,10.527,1.411,36.361,4.865,53.227,3.052,14.352-1.54,33.662-4.534,34.181-4.678.46-.125.113-2.25-.062-2.874s-1.3-.928-1.3-.928L3.038,41.012Z" fill="none" stroke="#221f20" stroke-miterlimit="10" stroke-width="0.39"/>
      <path id="Path_2601" data-name="Path 2601" d="M69.135,2.308l.055,1.209a37.906,37.906,0,0,1,5.871,3.454c.686.448,4.269,3.193,8.535,6.546C81.206,11.6,71.919,4.024,70.137,2.83c-.062-.042-.854-.584-1-.522" fill="#c1c1c1"/>
      <path id="Path_2602" data-name="Path 2602" d="M69.135,2.308l.055,1.209a37.906,37.906,0,0,1,5.871,3.454c.686.448,4.269,3.193,8.535,6.546C81.206,11.6,71.919,4.024,70.137,2.83,70.075,2.788,69.283,2.246,69.135,2.308Z" fill="none" stroke="#221f20" stroke-miterlimit="10" stroke-width="0.195"/>
      <path id="Path_2603" data-name="Path 2603" d="M69.641,5.794l2.128-1.623L66.057.229S61.039,3,61.21,3.846c.1.494,1.145.853,1.145.853l1.905.771" fill="#c1c1c1"/>
      <path id="Path_2604" data-name="Path 2604" d="M69.641,5.794l2.128-1.623L66.057.229S61.039,3,61.21,3.846c.1.494,1.145.853,1.145.853l1.905.771" fill="none" stroke="#221f20" stroke-miterlimit="10" stroke-width="0.39"/>
      <path id="Path_2605" data-name="Path 2605" d="M3.039,41.012s18.635-.281,30.184.753c12.46,1.115,56.181,7.77,73.983,7.306a197.192,197.192,0,0,0,42.28-5.872,5.2,5.2,0,0,0-.612-3.388c-.847-1.509-2.531-2.784-6.511-3.411-6.758-1.057-15.737-2.355-24.131-3.427-8.889-1.139-13.341-1.474-23.115-10.2-3.163-2.627-7.276-5.914-10.959-8.815a.965.965,0,0,1-.095-.07,1.6,1.6,0,0,0-.144-.113c-.086-.066-.195-.152-.324-.257-4.265-3.353-7.848-6.1-8.533-6.547a38.166,38.166,0,0,0-5.873-3.454c-2.117-.854-3.813-.69-6.16.788,0,0-.37.3-1.033.8L59.8,5.283c-4.371,3.08-10.075,6.71-16.695,8.523-8.694,2.374-18.9.519-26.368-1.236-4.6-1.08-8.05-2.425-9.825-2.932l-1.321.109-.008,0s-9.965,21.2-2.545,31.268" fill="#fff"/>
      <path id="Path_2606" data-name="Path 2606" d="M3.039,41.012s18.635-.281,30.184.753c12.46,1.115,56.181,7.77,73.983,7.306a197.192,197.192,0,0,0,42.28-5.872,5.2,5.2,0,0,0-.612-3.388c-.847-1.509-2.531-2.784-6.511-3.411-6.758-1.057-15.737-2.355-24.131-3.427-8.889-1.139-13.341-1.474-23.115-10.2-3.163-2.627-7.276-5.914-10.959-8.815a.965.965,0,0,1-.095-.07,1.6,1.6,0,0,0-.144-.113c-.086-.066-.195-.152-.324-.257-4.265-3.353-7.848-6.1-8.533-6.547a38.166,38.166,0,0,0-5.873-3.454c-2.117-.854-3.813-.69-6.16.788,0,0-.37.3-1.033.8L59.8,5.283c-4.371,3.08-10.075,6.71-16.695,8.523-8.694,2.374-18.9.519-26.368-1.236-4.6-1.08-8.05-2.425-9.825-2.932l-1.321.109-.008,0S-4.381,30.941,3.039,41.012Z" fill="none" stroke="#221f20" stroke-miterlimit="10" stroke-width="0.585"/>
      <path id="Path_2607" data-name="Path 2607" d="M88.84,32.5l1.9,1.226c-.035.05,2.412-3.572,4.836-6.952.611-.851,1.709-2.235-1.141-4.564" fill="none" stroke="#221f20" stroke-linecap="round" stroke-miterlimit="10" stroke-width="0.668"/>
      <path id="Path_2608" data-name="Path 2608" d="M4.265,12.826c30.425,14.186,46.243,4.235,54.742-1.111,1.411-.888,2.63-1.655,3.7-2.186,1.62-.805,2.465-1,4.328.325C69.9,11.9,74.14,15.133,77.879,17.99c3.324,2.539,6.463,4.938,8.131,6.108a1.263,1.263,0,0,1,.313,1.764c-.759,1.4-1.852,3.135-1.863,3.152l-.2.316,4.58,3.17" fill="none" stroke="#221f20" stroke-linecap="round" stroke-miterlimit="10" stroke-width="0.668"/>
      <line id="Line_11" data-name="Line 11" x1="0.629" y1="0.435" transform="translate(89.829 32.235)" fill="none" stroke="#221f20" stroke-miterlimit="10" stroke-width="0.334"/>
      <line id="Line_12" data-name="Line 12" x1="1.942" y1="1.344" transform="translate(86.593 29.995)" fill="none" stroke="#221f20" stroke-miterlimit="10" stroke-width="0.334" stroke-dasharray="1.574 1.574"/>
      <path id="Path_2609" data-name="Path 2609" d="M85.946,29.548l-.629-.435c.1-.166.241-.389.4-.648" fill="none" stroke="#221f20" stroke-miterlimit="10" stroke-width="0.334"/>
      <path id="Path_2610" data-name="Path 2610" d="M86.487,27.162c.18-.311.358-.627.521-.929a2.031,2.031,0,0,0-.551-2.773C84.8,22.3,81.669,19.9,78.352,17.37c-3.744-2.86-7.987-6.1-10.866-8.152-2.091-1.488-3.224-1.333-5.127-.388-1.1.549-2.339,1.325-3.768,2.225-4.347,2.734-10.3,6.479-18.95,7.819-9.875,1.53-21.192-.529-33.659-6.12" fill="none" stroke="#221f20" stroke-miterlimit="10" stroke-width="0.334" stroke-dasharray="1.514 1.514"/>
      <path id="Path_2611" data-name="Path 2611" d="M5.288,12.44l-.694-.321" fill="none" stroke="#221f20" stroke-miterlimit="10" stroke-width="0.334"/>
      <path id="Path_2612" data-name="Path 2612" d="M90.281,23.779a.568.568,0,1,0,.568-.569A.568.568,0,0,0,90.281,23.779Z" fill="none" stroke="#221f20" stroke-miterlimit="10" stroke-width="0.39"/>
      <path id="Path_2613" data-name="Path 2613" d="M85.1,19.648a.569.569,0,1,0,.569-.569A.569.569,0,0,0,85.1,19.648Z" fill="none" stroke="#221f20" stroke-miterlimit="10" stroke-width="0.39"/>
      <path id="Path_2614" data-name="Path 2614" d="M79.888,15.374a.569.569,0,1,0,.569-.569A.569.569,0,0,0,79.888,15.374Z" fill="none" stroke="#221f20" stroke-miterlimit="10" stroke-width="0.39"/>
      <path id="Path_2615" data-name="Path 2615" d="M74.618,11.9a.569.569,0,1,0,.569-.569A.569.569,0,0,0,74.618,11.9Z" fill="none" stroke="#221f20" stroke-miterlimit="10" stroke-width="0.39"/>
      <path id="Path_2616" data-name="Path 2616" d="M68.8,8.308a.569.569,0,1,0,.569-.569A.569.569,0,0,0,68.8,8.308Z" fill="none" stroke="#221f20" stroke-miterlimit="10" stroke-width="0.39"/>
      <path id="Path_2617" data-name="Path 2617" d="M93.583,21.509s.913-2.044-.866.141c-.865,1.063-1.868,2.128-1.868,2.128" fill="none" stroke="#221f20" stroke-miterlimit="10" stroke-width="1.17"/>
      <path id="Path_2618" data-name="Path 2618" d="M88.313,17.253s.627-1.879-.674-.3c-.872,1.057-1.868,2.587-1.868,2.587" fill="none" stroke="#221f20" stroke-miterlimit="10" stroke-width="1.17"/>
      <path id="Path_2619" data-name="Path 2619" d="M83.19,13.1s.913-2.044-.866.141c-.865,1.063-1.868,2.128-1.868,2.128" fill="none" stroke="#221f20" stroke-miterlimit="10" stroke-width="1.17"/>
      <path id="Path_2620" data-name="Path 2620" d="M78.084,9.307s.913-2.044-.866.141c-.865,1.063-2.032,2.455-2.032,2.455" fill="none" stroke="#221f20" stroke-miterlimit="10" stroke-width="1.17"/>
      <path id="Path_2621" data-name="Path 2621" d="M72.59,4.708s1.21-1.893-1.178.512a12.629,12.629,0,0,0-1.868,2.964" fill="none" stroke="#221f20" stroke-miterlimit="10" stroke-width="1.17"/>
      <path id="Path_2622" data-name="Path 2622" d="M38.568,52.58l5.209-6.425c-3.435-.39-4.94-.523-4.94-.523Z" fill="#160602"/>
      <path id="Path_2623" data-name="Path 2623" d="M38.568,52.58l5.209-6.425c-3.435-.39-4.94-.523-4.94-.523Z" fill="none" stroke="#2e160e" stroke-linejoin="round" stroke-width="0.39"/>
      <path id="Path_2624" data-name="Path 2624" d="M5.43,10.559q.344.167.691.328" fill="none" stroke="#221f20" stroke-miterlimit="10" stroke-width="0.334"/>
      <path id="Path_2625" data-name="Path 2625" d="M7.518,11.518c11.158,4.873,24.4,6.788,34.186,5.024C50.921,14.881,62.681,5.551,63.4,4.979c3.13-2.045,4.995-1.323,10.694,2.414l2.363,1.73c1.194.782,10.924,8.424,18.182,14.444,0,0,1.965.769-.521,3.839a39.881,39.881,0,0,0-2.589,3.565" fill="none" stroke="#221f20" stroke-miterlimit="10" stroke-width="0.334" stroke-dasharray="1.534 1.534"/>
      <path id="Path_2626" data-name="Path 2626" d="M91.119,31.621c-.255.423-.379.658-.379.658" fill="none" stroke="#221f20" stroke-miterlimit="10" stroke-width="0.334"/>
      <line id="Line_13" data-name="Line 13" x1="2.183" y1="1.42" transform="translate(88.557 30.331)" fill="none" stroke="#221f20" stroke-miterlimit="10" stroke-width="0.78"/>
      <path id="Path_2627" data-name="Path 2627" d="M121.948,33.8a.206.206,0,1,1,.085-.264.2.2,0,0,1-.085.264" fill="#221f20"/>
      <path id="Path_2628" data-name="Path 2628" d="M122.546,34.671a.187.187,0,1,1-.255-.11.2.2,0,0,1,.255.11" fill="#221f20"/>
      <path id="Path_2629" data-name="Path 2629" d="M122.984,36.063a.193.193,0,0,1-.259-.093.2.2,0,0,1,.069-.27.2.2,0,0,1,.26.093.2.2,0,0,1-.07.27" fill="#221f20"/>
      <path id="Path_2630" data-name="Path 2630" d="M123.232,37.089a.187.187,0,1,1,.34-.153" fill="#221f20"/>
      <path id="Path_2631" data-name="Path 2631" d="M124,38.331a.2.2,0,0,1-.255-.11.2.2,0,0,1,.086-.263.206.206,0,0,1,.169.373" fill="#221f20"/>
      <path id="Path_2632" data-name="Path 2632" d="M124.6,39.2a.2.2,0,0,1-.086.263.206.206,0,1,1,.086-.263" fill="#221f20"/>
      <path id="Path_2633" data-name="Path 2633" d="M125.034,40.593a.194.194,0,0,1-.258-.095.188.188,0,1,1,.258.095" fill="#221f20"/>
      <path id="Path_2634" data-name="Path 2634" d="M125.2,41.621a.2.2,0,0,1,.122-.246.2.2,0,0,1,.238.148" fill="#221f20"/>
      <path id="Path_2635" data-name="Path 2635" d="M123.572,36.937a.2.2,0,0,1-.086.263.2.2,0,0,1-.255-.11" fill="#221f20"/>
      <path id="Path_2636" data-name="Path 2636" d="M125.454,43a.207.207,0,0,1,.053-.406.2.2,0,0,1-.053.406" fill="#221f20"/>
      <path id="Path_2637" data-name="Path 2637" d="M125.132,44.041a.211.211,0,0,1-.144.078.164.164,0,0,1-.136-.048.2.2,0,0,1,0-.271.222.222,0,0,1,.127-.072.191.191,0,0,1,.142.031.168.168,0,0,1,.07.127.213.213,0,0,1-.054.155" fill="#221f20"/>
      <path id="Path_2638" data-name="Path 2638" d="M123.777,44.657a.186.186,0,0,1,.026-.141.2.2,0,0,1,.113-.089.2.2,0,0,1,.249.1.164.164,0,0,1,0,.145.211.211,0,0,1-.126.106.227.227,0,0,1-.167-.008.17.17,0,0,1-.093-.115" fill="#221f20"/>
      <path id="Path_2639" data-name="Path 2639" d="M122.814,44.376a.2.2,0,0,1,.134.235.19.19,0,0,1-.258.117" fill="#221f20"/>
      <path id="Path_2640" data-name="Path 2640" d="M125.557,41.524a.194.194,0,0,1-.131.248.2.2,0,0,1-.229-.151" fill="#221f20"/>
      <path id="Path_2641" data-name="Path 2641" d="M121.716,43.6a.2.2,0,0,1,.144,0,.211.211,0,0,1,.109.091.189.189,0,0,1,.024.069.205.205,0,0,1,0,.07.2.2,0,0,1-.073.125.162.162,0,0,1-.143.027.23.23,0,0,1-.074-.036.263.263,0,0,1-.057-.069.217.217,0,0,1-.025-.166.161.161,0,0,1,.1-.11" fill="#221f20"/>
      <path id="Path_2642" data-name="Path 2642" d="M121.412,42.555a.26.26,0,0,1,.03-.085.194.194,0,0,1,.056-.061.157.157,0,0,1,.143-.024.2.2,0,0,1,.112.091.2.2,0,0,1,.025.066.158.158,0,0,1,0,.072.214.214,0,0,1-.069.124.2.2,0,0,1-.135.05.163.163,0,0,1-.128-.069.214.214,0,0,1-.036-.164" fill="#221f20"/>
      <path id="Path_2643" data-name="Path 2643" d="M122.556,41.647a.193.193,0,0,1-.031.14.218.218,0,0,1-.109.087.217.217,0,0,1-.246-.1.155.155,0,0,1-.006-.145.211.211,0,0,1,.129-.112.23.23,0,0,1,.174.008.166.166,0,0,1,.089.118" fill="#221f20"/>
      <path id="Path_2644" data-name="Path 2644" d="M123.29,41.994a.01.01,0,0,0,.006.012l.009-.007a.261.261,0,0,0,.009-.047.33.33,0,0,1,.044-.134.136.136,0,0,1,.138-.058.181.181,0,0,1,.1.049.33.33,0,0,1,.045.062.346.346,0,0,1,.026.091" fill="#221f20"/>
      <path id="Path_2645" data-name="Path 2645" d="M122.689,44.728a.222.222,0,0,1-.125-.108.165.165,0,0,1,0-.147.192.192,0,0,1,.107-.1.21.21,0,0,1,.144,0" fill="#221f20"/>
      <path id="Path_2646" data-name="Path 2646" d="M124.556,34.569a.187.187,0,1,1-.336.161.187.187,0,1,1,.336-.161" fill="#221f20"/>
      <path id="Path_2647" data-name="Path 2647" d="M125.016,35.932a.192.192,0,0,1-.26-.085.2.2,0,0,1,.065-.269.194.194,0,0,1,.26.085.2.2,0,0,1-.065.269" fill="#221f20"/>
      <path id="Path_2648" data-name="Path 2648" d="M125.28,36.94a.187.187,0,1,1,.336-.162" fill="#221f20"/>
      <path id="Path_2649" data-name="Path 2649" d="M126.066,38.146a.2.2,0,1,1,.081-.263.2.2,0,0,1-.081.263" fill="#221f20"/>
      <path id="Path_2650" data-name="Path 2650" d="M126.677,38.989a.187.187,0,1,1-.336.161.187.187,0,1,1,.336-.161" fill="#221f20"/>
      <path id="Path_2651" data-name="Path 2651" d="M127.137,40.352a.192.192,0,0,1-.26-.085.2.2,0,0,1,.065-.269.194.194,0,0,1,.26.085.2.2,0,0,1-.065.269" fill="#221f20"/>
      <path id="Path_2652" data-name="Path 2652" d="M127.4,41.361a.187.187,0,1,1,.336-.162" fill="#221f20"/>
      <path id="Path_2653" data-name="Path 2653" d="M125.617,36.779a.188.188,0,1,1-.338.161" fill="#221f20"/>
      <path id="Path_2654" data-name="Path 2654" d="M123.32,43.259a.335.335,0,1,1,.473-.012.335.335,0,0,1-.473.012" fill="#221f20"/>
      <path id="Path_2655" data-name="Path 2655" d="M127.507,35.06a.161.161,0,1,1,.188-.258.162.162,0,1,1-.188.258" fill="#221f20"/>
      <path id="Path_2656" data-name="Path 2656" d="M127.1,35.8a.173.173,0,0,1-.246-.022.161.161,0,1,1,.226-.224.174.174,0,0,1,.02.246" fill="#221f20"/>
      <path id="Path_2657" data-name="Path 2657" d="M126.119,36.4a.181.181,0,0,1,0-.247.172.172,0,0,1,.238.037.176.176,0,0,1,0,.249.168.168,0,0,1-.241-.039" fill="#221f20"/>
      <path id="Path_2658" data-name="Path 2658" d="M125.346,36.655a.179.179,0,0,1,.224.089.171.171,0,0,1-.055.244" fill="#221f20"/>
      <path id="Path_2659" data-name="Path 2659" d="M130.477,35.745a.335.335,0,1,0,.473-.012.335.335,0,0,0-.473.012" fill="#221f20"/>
      <path id="Path_2660" data-name="Path 2660" d="M134.756,37.795a.335.335,0,1,0,.43.2.335.335,0,0,0-.43-.2" fill="#221f20"/>
      <path id="Path_2661" data-name="Path 2661" d="M128.516,40.262a.213.213,0,1,1-.282,0,.2.2,0,0,1,.282,0" fill="#221f20"/>
      <path id="Path_2662" data-name="Path 2662" d="M129.208,39.421a.188.188,0,1,1-.043.279.2.2,0,0,1,.043-.279" fill="#221f20"/>
      <path id="Path_2663" data-name="Path 2663" d="M130.5,38.639a.2.2,0,0,1-.041.276.2.2,0,0,1-.283-.006.2.2,0,0,1,.039-.277.2.2,0,0,1,.285.007" fill="#221f20"/>
      <path id="Path_2664" data-name="Path 2664" d="M131.484,38.2a.2.2,0,0,1-.278-.041.2.2,0,0,1,.075-.272" fill="#221f20"/>
      <path id="Path_2665" data-name="Path 2665" d="M127.3,41.153a.2.2,0,0,1,.283-.018.2.2,0,0,1-.017.279" fill="#221f20"/>
      <path id="Path_2666" data-name="Path 2666" d="M132.677,37.3a.213.213,0,0,1-.375.193.212.212,0,0,1,.375-.193" fill="#221f20"/>
      <path id="Path_2667" data-name="Path 2667" d="M133.607,36.72a.2.2,0,0,1,.26.116.213.213,0,0,1-.4.13.2.2,0,0,1,.142-.246" fill="#221f20"/>
      <path id="Path_2668" data-name="Path 2668" d="M135.132,36.667a.2.2,0,0,1-.2.191.208.208,0,0,1-.223-.166.191.191,0,0,1,.2-.206.226.226,0,0,1,.161.05.168.168,0,0,1,.065.131" fill="#221f20"/>
      <path id="Path_2669" data-name="Path 2669" d="M136.037,37.163a.21.21,0,0,1-.092-.118.19.19,0,0,1,.008-.144.168.168,0,0,1,.119-.087.237.237,0,0,1,.164.033" fill="#221f20"/>
      <path id="Path_2670" data-name="Path 2670" d="M131.283,37.885a.2.2,0,0,1,.278.044.2.2,0,0,1-.077.27" fill="#221f20"/>
      <path id="Path_2671" data-name="Path 2671" d="M136.9,38.213a.2.2,0,0,1-.134-.054.217.217,0,0,1-.069-.123.222.222,0,0,1,.021-.139.2.2,0,0,1,.107-.1.154.154,0,0,1,.145.02.224.224,0,0,1,.094.15.234.234,0,0,1-.035.174.156.156,0,0,1-.129.069" fill="#221f20"/>
      <path id="Path_2672" data-name="Path 2672" d="M136.6,39.3a.232.232,0,0,1-.164.064.159.159,0,0,1-.129-.072.2.2,0,0,1-.026-.141.213.213,0,0,1,.066-.125.218.218,0,0,1,.13-.056.2.2,0,0,1,.14.038.161.161,0,0,1,.06.134.227.227,0,0,1-.077.158" fill="#221f20"/>
      <path id="Path_2673" data-name="Path 2673" d="M135.1,39.315a.2.2,0,0,1,.113-.086.221.221,0,0,1,.07-.013.332.332,0,0,1,.068.011.192.192,0,0,1,.061.034.208.208,0,0,1,.047.051.215.215,0,0,1,.037.14.16.16,0,0,1-.083.121.22.22,0,0,1-.176.009.236.236,0,0,1-.141-.117.156.156,0,0,1,0-.15" fill="#221f20"/>
      <path id="Path_2674" data-name="Path 2674" d="M134.943,38.382a.208.208,0,0,1-.2.185c-.107,0-.183-.1-.172-.236" fill="#221f20"/>
      <path id="Path_2675" data-name="Path 2675" d="M136.237,36.848a.235.235,0,0,1,.1.135.163.163,0,0,1-.029.144.185.185,0,0,1-.127.069.217.217,0,0,1-.145-.033" fill="#221f20"/>
      <path id="Path_2676" data-name="Path 2676" d="M129.5,36.882a.219.219,0,1,1,.285.022.2.2,0,0,1-.285-.022" fill="#221f20"/>
      <path id="Path_2677" data-name="Path 2677" d="M128.727,37.684a.189.189,0,1,1,.064-.279.2.2,0,0,1-.064.279" fill="#221f20"/>
      <path id="Path_2678" data-name="Path 2678" d="M127.39,38.45a.2.2,0,0,1,.046-.279.209.209,0,0,1,.289,0,.2.2,0,0,1-.046.279.209.209,0,0,1-.289,0" fill="#221f20"/>
      <path id="Path_2679" data-name="Path 2679" d="M126.388,38.941a.189.189,0,1,1,.222.3" fill="#221f20"/>
      <path id="Path_2680" data-name="Path 2680" d="M130.844,36.126a.189.189,0,1,1-.221-.3" fill="#221f20"/>
      <path id="Path_2681" data-name="Path 2681" d="M129.438,35.068a.169.169,0,0,1-.186.2.188.188,0,0,1-.16-.089.15.15,0,0,1,0-.145.283.283,0,0,1,.094-.1.209.209,0,0,1,.046-.027c.015,0,.026-.013.038-.01a.217.217,0,0,1,.168.171" fill="#221f20"/>
      <path id="Path_2682" data-name="Path 2682" d="M130.175,34.547a.187.187,0,1,1-.069.248.183.183,0,0,1,.069-.248" fill="#221f20"/>
      <path id="Path_2683" data-name="Path 2683" d="M128.709,34.269a.191.191,0,0,1-.091.233.176.176,0,0,1-.251-.084" fill="#221f20"/>
      <path id="Path_2684" data-name="Path 2684" d="M5.584,9.549l.008.2C18.1,15.779,32.182,17.483,41.5,15.8c7.7-1.388,17.365-8.324,20.5-10.7l-.589-.963Q60.634,4.7,59.8,5.284c-4.371,3.08-10.075,6.71-16.695,8.523-8.694,2.374-18.9.518-26.368-1.236-4.6-1.08-8.051-2.425-9.825-2.932-.783-.226-1.239-.285-1.329-.09" fill="#c1c1c1"/>
      <path id="Path_2685" data-name="Path 2685" d="M5.584,9.549l.008.2C18.1,15.779,32.182,17.483,41.5,15.8c7.7-1.388,17.365-8.324,20.5-10.7l-.589-.963Q60.634,4.7,59.8,5.284c-4.371,3.08-10.075,6.71-16.695,8.523-8.694,2.374-18.9.518-26.368-1.236-4.6-1.08-8.051-2.425-9.825-2.932C6.13,9.413,5.674,9.354,5.584,9.549Z" fill="none" stroke="#221f20" stroke-miterlimit="10" stroke-width="0.39"/>
    </g>
  </g>
</svg>
