<svg id="Component_102_111" data-name="Component 102 – 111" xmlns="http://www.w3.org/2000/svg" width="43" height="43" viewBox="0 0 43 43">
  <circle id="Ellipse_129" data-name="Ellipse 129" cx="21.5" cy="21.5" r="21.5" fill="#fff"/>
  <g id="Group_1372" data-name="Group 1372" transform="translate(814.67 -597.141)">
    <path id="Path_1033" data-name="Path 1033" d="M-763.805,613.825l2.385-2.411a4.292,4.292,0,0,1,6.07-.033h0a4.293,4.293,0,0,1,.033,6.071l-3.456,3.493a4.293,4.293,0,0,1-6.071.033h0c-.389-.385-.791-.827-1.156-1.192" transform="translate(-29.398 0)" fill="none" stroke="#111" stroke-miterlimit="10" stroke-width="2"/>
    <path id="Path_1034" data-name="Path 1034" d="M-792,653.6l-2.323,2.348a4.293,4.293,0,0,1-6.07.033h0a4.293,4.293,0,0,1-.033-6.071l3.456-3.493a4.292,4.292,0,0,1,6.07-.033h0c.421.417.912.977,1.306,1.372" transform="translate(0 -28.846)" fill="none" stroke="#111" stroke-miterlimit="10" stroke-width="2"/>
  </g>
</svg>
