<svg id="Component_104_182" data-name="Component 104 – 182" xmlns="http://www.w3.org/2000/svg" width="43" height="43" viewBox="0 0 43 43">
  <circle id="Ellipse_131" data-name="Ellipse 131" cx="21.5" cy="21.5" r="21.5" fill="#fff"/>
  <g id="Group_910" data-name="Group 910" transform="translate(-76.537 -228.684)">
    <path id="Path_884" data-name="Path 884" d="M142.762,270.955l-1.319,1.143,2.584,2.981h-9.752v1.745h9.752l-2.584,2.981,1.319,1.143,4.331-5Z" transform="translate(-36.67 -25.587)"/>
    <path id="Path_885" data-name="Path 885" d="M101.514,258.11H92.828V242.62h8.685v3.933h1.936v-4.777a1.082,1.082,0,0,0-1.069-1.092H91.961a1.082,1.082,0,0,0-1.069,1.092v17.177a1.082,1.082,0,0,0,1.069,1.092h10.419a1.082,1.082,0,0,0,1.069-1.092v-4.777h-1.936Z" transform="translate(0 0)"/>
  </g>
</svg>
