<svg id="Component_103_95" data-name="Component 103 – 95" xmlns="http://www.w3.org/2000/svg" width="43" height="43" viewBox="0 0 43 43">
  <circle id="Ellipse_130" data-name="Ellipse 130" cx="21.5" cy="21.5" r="21.5" fill="#fff"/>
  <g id="Group_1373" data-name="Group 1373" transform="translate(981.807 -1096.309)">
    <path id="Path_1035" data-name="Path 1035" d="M-949.995,1112.71a6.272,6.272,0,0,1,6.181-5.21,6.249,6.249,0,0,1,4.365,1.769" transform="translate(-16.06)" fill="none" stroke="#000" stroke-miterlimit="10" stroke-width="2"/>
    <path id="Path_1036" data-name="Path 1036" d="M-962.529,1145.566h-2.688a4.283,4.283,0,0,1-4.283-4.283h0a4.283,4.283,0,0,1,4.283-4.283" transform="translate(0 -24.29)" fill="none" stroke="#000" stroke-miterlimit="10" stroke-width="2"/>
    <path id="Path_1037" data-name="Path 1037" d="M-915,1148.425v-11.657a4.4,4.4,0,0,1,4.454-4.769,4.73,4.73,0,0,1,4.73,4.73v.214a4.593,4.593,0,0,1-4.593,4.593h-2.175" transform="translate(-44.874 -20.173)" fill="none" stroke="#000" stroke-miterlimit="10" stroke-width="2"/>
    <path id="Path_1038" data-name="Path 1038" d="M-931.654,1208l-4.415,4.194-4.3-4.194" transform="translate(-23.982 -82.75)" fill="none" stroke="#000" stroke-miterlimit="10" stroke-width="2"/>
  </g>
</svg>
