<svg xmlns="http://www.w3.org/2000/svg" xmlns:xlink="http://www.w3.org/1999/xlink" width="150.494" height="52.503" viewBox="0 0 150.494 52.503">
  <defs>
    <clipPath id="clip-path">
      <rect id="Rectangle_1921" data-name="Rectangle 1921" width="150.494" height="52.503" transform="translate(0 0)" fill="none"/>
    </clipPath>
  </defs>
  <g id="Group_1391" data-name="Group 1391" transform="translate(0 0)">
    <g id="Group_1390" data-name="Group 1390" clip-path="url(#clip-path)">
      <path id="Path_1128" data-name="Path 1128" d="M2.72,52.309H38.367l.268-6.912s1.5.132,4.918.523c3.863.435,10.178,1.2,19.557,2.456,10.477,1.4,36.179,4.841,52.955,3.037,14.282-1.532,33.494-4.511,34.006-4.655.458-.124.116-2.238-.058-2.858s-1.292-.924-1.292-.924L3.023,40.8Z" fill="#2e160e"/>
      <path id="Path_1129" data-name="Path 1129" d="M2.72,52.309H38.367l.268-6.912s1.5.132,4.918.523c3.863.435,10.178,1.2,19.557,2.456,10.477,1.4,36.179,4.841,52.955,3.037,14.282-1.532,33.494-4.511,34.006-4.655.458-.124.116-2.238-.058-2.858s-1.292-.924-1.292-.924L3.023,40.8Z" fill="none" stroke="#221f20" stroke-miterlimit="10" stroke-width="0.388"/>
      <path id="Path_1130" data-name="Path 1130" d="M3.023,40.8s18.541-.279,30.026.749c12.4,1.109,55.9,7.73,73.61,7.269a196.226,196.226,0,0,0,42.063-5.842,5.2,5.2,0,0,0-.61-3.371c-.845-1.5-2.517-2.769-6.481-3.394-6.722-1.051-15.655-2.343-24.007-3.409-8.839-1.133-13.273-1.466-23-10.147C87.637,16.849,75.965,7.78,74.678,6.934c-1.505-.985-2.766-1.815-3.872-2.451-3.153-1.815-5.089-2.1-8.1-.2,0,0-.186.152-.535.423-.027.016-.054.039-.085.062l-2.168.19c-4.4,3.123-10.225,6.916-17.033,8.778-8.65,2.362-18.808.516-26.232-1.229-4.45-1.048-7.816-2.339-9.624-2.871L5.68,9.751l-.163.015v0C4.881,11.155-4.1,31.131,3.023,40.8" fill="#fff"/>
      <path id="Path_1131" data-name="Path 1131" d="M3.023,40.8s18.541-.279,30.026.749c12.4,1.109,55.9,7.73,73.61,7.269a196.226,196.226,0,0,0,42.063-5.842,5.2,5.2,0,0,0-.61-3.371c-.845-1.5-2.517-2.769-6.481-3.394-6.722-1.051-15.655-2.343-24.007-3.409-8.839-1.133-13.273-1.466-23-10.147C87.637,16.849,75.965,7.78,74.678,6.934c-1.505-.985-2.766-1.815-3.872-2.451-3.153-1.815-5.089-2.1-8.1-.2,0,0-.186.152-.535.423-.027.016-.054.039-.085.062l-2.168.19c-4.4,3.123-10.225,6.916-17.033,8.778-8.65,2.362-18.808.516-26.232-1.229-4.45-1.048-7.816-2.339-9.624-2.871L5.68,9.751l-.163.015v0C4.881,11.155-4.1,31.131,3.023,40.8Z" fill="none" stroke="#221f20" stroke-miterlimit="10" stroke-width="0.582"/>
      <path id="Path_1132" data-name="Path 1132" d="M38.87,42.179c.767-5.65,5.131-10.042,10.077-12.923,2.6-1.514,10.873-3.786,16.617-3.343a82.779,82.779,0,0,1,12.352,2A96.106,96.106,0,0,1,90.382,32.5a68.461,68.461,0,0,0,4.7-5.866c.607-.846,1.7-2.223-1.135-4.54" fill="none" stroke="#221f20" stroke-linecap="round" stroke-miterlimit="10" stroke-width="0.664"/>
      <path id="Path_1133" data-name="Path 1133" d="M89.816,23.656a.565.565,0,1,0,.566-.566A.566.566,0,0,0,89.816,23.656Z" fill="none" stroke="#221f20" stroke-miterlimit="10" stroke-width="0.388"/>
      <path id="Path_1134" data-name="Path 1134" d="M84.659,19.546a.566.566,0,1,0,.566-.566A.566.566,0,0,0,84.659,19.546Z" fill="none" stroke="#221f20" stroke-miterlimit="10" stroke-width="0.388"/>
      <path id="Path_1135" data-name="Path 1135" d="M79.476,15.294a.566.566,0,1,0,.566-.566A.566.566,0,0,0,79.476,15.294Z" fill="none" stroke="#221f20" stroke-miterlimit="10" stroke-width="0.388"/>
      <path id="Path_1136" data-name="Path 1136" d="M74.233,11.841a.565.565,0,1,0,.566-.566A.566.566,0,0,0,74.233,11.841Z" fill="none" stroke="#221f20" stroke-miterlimit="10" stroke-width="0.388"/>
      <path id="Path_1137" data-name="Path 1137" d="M68.45,8.264a.566.566,0,1,0,.566-.566A.566.566,0,0,0,68.45,8.264Z" fill="none" stroke="#221f20" stroke-miterlimit="10" stroke-width="0.388"/>
      <path id="Path_1138" data-name="Path 1138" d="M93.1,21.4s.908-2.033-.861.141c-.861,1.057-1.859,2.117-1.859,2.117" fill="none" stroke="#221f20" stroke-miterlimit="10" stroke-width="1.164"/>
      <path id="Path_1139" data-name="Path 1139" d="M87.859,17.163s.624-1.869-.671-.3c-.867,1.052-1.858,2.575-1.858,2.575" fill="none" stroke="#221f20" stroke-miterlimit="10" stroke-width="1.164"/>
      <path id="Path_1140" data-name="Path 1140" d="M82.762,13.036s.908-2.033-.861.141c-.861,1.057-1.859,2.117-1.859,2.117" fill="none" stroke="#221f20" stroke-miterlimit="10" stroke-width="1.164"/>
      <path id="Path_1141" data-name="Path 1141" d="M77.682,9.259s.908-2.033-.861.141c-.861,1.057-2.022,2.442-2.022,2.442" fill="none" stroke="#221f20" stroke-miterlimit="10" stroke-width="1.164"/>
      <path id="Path_1142" data-name="Path 1142" d="M72.216,4.682s1.2-1.884-1.172.509A12.6,12.6,0,0,0,69.185,8.14" fill="none" stroke="#221f20" stroke-miterlimit="10" stroke-width="1.164"/>
      <path id="Path_1143" data-name="Path 1143" d="M83.725,13.887C83.58,13.829,71.8,4.171,69.775,2.815c-.061-.041-.848-.582-1-.52" fill="none" stroke="#221f20" stroke-miterlimit="10" stroke-width="0.194"/>
      <path id="Path_1144" data-name="Path 1144" d="M38.367,52.309l5.186-6.389c-3.421-.391-4.918-.523-4.918-.523Z" fill="#160602"/>
      <path id="Path_1145" data-name="Path 1145" d="M38.367,52.309l5.186-6.389c-3.421-.391-4.918-.523-4.918-.523Z" fill="none" stroke="#2e160e" stroke-linejoin="round" stroke-width="0.388"/>
      <path id="Path_1146" data-name="Path 1146" d="M5.362,10.418q.342.165.687.326" fill="none" stroke="#221f20" stroke-miterlimit="10" stroke-width="0.332"/>
      <path id="Path_1147" data-name="Path 1147" d="M7.439,11.371c11.1,4.849,24.278,6.754,34.012,5C50.62,14.717,62.32,5.435,63.03,4.866c3.115-2.035,4.97-1.317,10.641,2.4l2.35,1.721c1.187.779,10.868,8.381,18.089,14.37,0,0,2.175,1-.3,4.05-1.12,1.382-2.037,2.421-2.681,3.122" fill="none" stroke="#221f20" stroke-miterlimit="10" stroke-width="0.332" stroke-dasharray="1.526 1.526"/>
      <path id="Path_1148" data-name="Path 1148" d="M90.61,31.086c-.345.361-.531.541-.531.541s-.237-.123-.679-.334" fill="none" stroke="#221f20" stroke-miterlimit="10" stroke-width="0.332"/>
      <path id="Path_1149" data-name="Path 1149" d="M88.022,30.66c-4.107-1.82-13.792-5.577-23.785-5.577-12.594,0-22.772,5.3-25.881,15.511" fill="none" stroke="#221f20" stroke-miterlimit="10" stroke-width="0.332" stroke-dasharray="1.52 1.52"/>
      <path id="Path_1150" data-name="Path 1150" d="M38.147,41.33q-.1.367-.183.743" fill="none" stroke="#221f20" stroke-miterlimit="10" stroke-width="0.332"/>
      <line id="Line_5" data-name="Line 5" x1="2.519" y1="1.214" transform="translate(87.718 30.287)" fill="none" stroke="#221f20" stroke-miterlimit="10" stroke-width="0.776"/>
      <path id="Path_1151" data-name="Path 1151" d="M89.989,29.853c-.127-.207-.266-.418-.415-.634" fill="none" stroke="#221f20" stroke-miterlimit="10" stroke-width="0.332"/>
      <path id="Path_1152" data-name="Path 1152" d="M88.651,27.994C82.987,21,68.464,10.688,62.846,7.592" fill="none" stroke="#221f20" stroke-miterlimit="10" stroke-width="0.332" stroke-dasharray="1.535 1.535"/>
      <path id="Path_1153" data-name="Path 1153" d="M62.166,7.231c-.256-.13-.485-.239-.684-.324" fill="none" stroke="#221f20" stroke-miterlimit="10" stroke-width="0.332"/>
      <path id="Path_1154" data-name="Path 1154" d="M5.517,9.766c.023-.05.035-.074.035-.074.043.02.085.043.128.058,12.416,5.958,26.365,7.638,35.6,5.97,8.026-1.447,18.216-8.964,20.8-10.954l-.993-.648c-.38.272-.772.555-1.176.838-4.4,3.123-10.224,6.916-17.032,8.778-8.65,2.362-18.808.516-26.233-1.23-4.449-1.047-7.816-2.338-9.623-2.87C6.153,9.37,5.645,9.289,5.552,9.5Z" fill="#c1c1c1"/>
      <path id="Path_1155" data-name="Path 1155" d="M5.517,9.766c.023-.05.035-.074.035-.074.043.02.085.043.128.058,12.416,5.958,26.365,7.638,35.6,5.97,8.026-1.447,18.216-8.964,20.8-10.954l-.993-.648c-.38.272-.772.555-1.176.838-4.4,3.123-10.224,6.916-17.032,8.778-8.65,2.362-18.808.516-26.233-1.23-4.449-1.047-7.816-2.338-9.623-2.87C6.153,9.37,5.645,9.289,5.552,9.5Z" fill="none" stroke="#221f20" stroke-miterlimit="10" stroke-width="0.388"/>
      <path id="Path_1156" data-name="Path 1156" d="M60.9,3.824c.1.493,1.137.849,1.137.849l.135.031c.349-.271.536-.422.536-.422,3.013-1.9,4.949-1.614,8.1.2L71.4,4.15,65.717.228s-4.992,2.754-4.821,3.6" fill="#c1c1c1"/>
      <path id="Path_1157" data-name="Path 1157" d="M60.9,3.824c.1.493,1.137.849,1.137.849l.135.031c.349-.271.536-.422.536-.422,3.013-1.9,4.949-1.614,8.1.2L71.4,4.15,65.717.228S60.725,2.982,60.9,3.824Z" fill="none" stroke="#221f20" stroke-miterlimit="10" stroke-width="0.388"/>
    </g>
  </g>
</svg>
