<svg xmlns="http://www.w3.org/2000/svg" xmlns:xlink="http://www.w3.org/1999/xlink" width="150.35" height="52.419" viewBox="0 0 150.35 52.419">
  <defs>
    <clipPath id="clip-path">
      <rect id="Rectangle_1920" data-name="Rectangle 1920" width="150.349" height="52.419" transform="translate(0 0)" fill="none"/>
    </clipPath>
  </defs>
  <g id="Group_1389" data-name="Group 1389" transform="translate(0 0)">
    <g id="Group_1388" data-name="Group 1388" clip-path="url(#clip-path)">
      <path id="Path_1100" data-name="Path 1100" d="M2.946,40.62a.823.823,0,0,0,.074.108s18.519-.282,30,.745C45.4,42.581,88.858,49.2,106.552,48.738A196.145,196.145,0,0,0,148.579,42.9a5.2,5.2,0,0,0-.609-3.368c-.844-1.5-2.515-2.767-6.475-3.387-6.716-1.054-15.64-2.344-23.984-3.41-8.831-1.128-12.923-1.577-20.991-8.467L94.536,22.6c-3.139-2.608-7.228-5.879-10.89-8.758q-.395-.315-.779-.613c-.069-.058-.147-.12-.228-.182-2.341-1.837-4.449-3.468-5.933-4.6-1.077-.817-1.825-1.371-2.1-1.553-3-1.965-5.007-3.294-6.813-3.763C66.111,2.694,64.6,3,62.643,4.24c0,0-.24.194-.678.531-.089.07-.19.147-.3.228C58.6,7.317,48.929,14.28,41.24,15.668c-9.257,1.67-23.258-.024-35.694-6.022,0,0-.019.038-.05.112C4.744,11.4-3.979,30.994,2.946,40.62" fill="#fff"/>
      <path id="Path_1101" data-name="Path 1101" d="M2.946,40.62a.823.823,0,0,0,.074.108s18.519-.282,30,.745C45.4,42.581,88.858,49.2,106.552,48.738A196.145,196.145,0,0,0,148.579,42.9a5.2,5.2,0,0,0-.609-3.368c-.844-1.5-2.515-2.767-6.475-3.387-6.716-1.054-15.64-2.344-23.984-3.41-8.831-1.128-12.923-1.577-20.991-8.467L94.536,22.6c-3.139-2.608-7.228-5.879-10.89-8.758q-.395-.315-.779-.613c-.069-.058-.147-.12-.228-.182-2.341-1.837-4.449-3.468-5.933-4.6-1.077-.817-1.825-1.371-2.1-1.553-3-1.965-5.007-3.294-6.813-3.763C66.111,2.694,64.6,3,62.643,4.24c0,0-.24.194-.678.531-.089.07-.19.147-.3.228C58.6,7.317,48.929,14.28,41.24,15.668c-9.257,1.67-23.258-.024-35.694-6.022,0,0-.019.038-.05.112C4.744,11.4-3.979,30.994,2.946,40.62Z" fill="none" stroke="#221f20" stroke-miterlimit="10" stroke-width="0.581"/>
      <path id="Path_1102" data-name="Path 1102" d="M85.489,26.83a3.644,3.644,0,0,0-.085-.753" fill="none" stroke="#221f20" stroke-miterlimit="10" stroke-width="0.332"/>
      <path id="Path_1103" data-name="Path 1103" d="M84.893,24.667C81.838,18.486,67.868,9.121,62.386,6.2" fill="none" stroke="#221f20" stroke-miterlimit="10" stroke-width="0.332" stroke-dasharray="1.506 1.506"/>
      <path id="Path_1104" data-name="Path 1104" d="M61.716,5.857c-.258-.128-.487-.235-.685-.32" fill="none" stroke="#221f20" stroke-miterlimit="10" stroke-width="0.332"/>
      <path id="Path_1105" data-name="Path 1105" d="M46.073,42.8c.013-.255.028-.509.044-.759" fill="none" stroke="#221f20" stroke-miterlimit="10" stroke-width="0.332"/>
      <path id="Path_1106" data-name="Path 1106" d="M46.239,40.512c.6-6.252,2.455-10.944,8.266-14.516,6.152-3.782,21.185-.31,24.136.425,10.549,2.626,14.643,2.644,17.572-.428" fill="none" stroke="#221f20" stroke-miterlimit="10" stroke-width="0.332" stroke-dasharray="1.529 1.529"/>
      <path id="Path_1107" data-name="Path 1107" d="M96.717,25.421c.156-.19.309-.391.461-.6" fill="none" stroke="#221f20" stroke-miterlimit="10" stroke-width="0.332"/>
      <path id="Path_1108" data-name="Path 1108" d="M96.58,24.057c-2.343,3.669-5.328,4.7-17.752,1.612a79.07,79.07,0,0,0-12.223-2.04c-5.738-.443-9.946.132-12.506,1.706-6.764,4.159-8.41,9.972-8.8,17.422" fill="none" stroke="#221f20" stroke-linecap="round" stroke-miterlimit="10" stroke-width="0.663"/>
      <path id="Path_1109" data-name="Path 1109" d="M2.713,52.226H38.33l.267-6.909s6.786.608,24.452,2.976c10.467,1.4,36.14,4.836,52.9,3.034,14.265-1.531,33.462-4.507,33.974-4.646.457-.128.116-2.24-.058-2.86-.171-.6-1.291-.923-1.291-.923a196.1,196.1,0,0,1-42.026,5.84c-17.694.461-61.15-6.157-73.535-7.266-11.478-1.027-30-.744-30-.744a1.021,1.021,0,0,1-.073-.108Z" fill="#2e160e"/>
      <path id="Path_1110" data-name="Path 1110" d="M2.713,52.226H38.33l.267-6.909s6.786.608,24.452,2.976c10.467,1.4,36.14,4.836,52.9,3.034,14.265-1.531,33.462-4.507,33.974-4.646.457-.128.116-2.24-.058-2.86-.171-.6-1.291-.923-1.291-.923a196.1,196.1,0,0,1-42.026,5.84c-17.694.461-61.15-6.157-73.535-7.266-11.478-1.027-30-.744-30-.744a1.021,1.021,0,0,1-.073-.108Z" fill="none" stroke="#221f20" stroke-miterlimit="10" stroke-width="0.388"/>
      <circle id="Ellipse_132" data-name="Ellipse 132" cx="0.565" cy="0.565" r="0.565" transform="translate(89.729 23.031)" fill="none" stroke="#221f20" stroke-miterlimit="10" stroke-width="0.388"/>
      <circle id="Ellipse_133" data-name="Ellipse 133" cx="0.565" cy="0.565" r="0.565" transform="translate(84.577 18.926)" fill="none" stroke="#221f20" stroke-miterlimit="10" stroke-width="0.388"/>
      <circle id="Ellipse_134" data-name="Ellipse 134" cx="0.565" cy="0.565" r="0.565" transform="translate(79.4 14.677)" fill="none" stroke="#221f20" stroke-miterlimit="10" stroke-width="0.388"/>
      <circle id="Ellipse_135" data-name="Ellipse 135" cx="0.565" cy="0.565" r="0.565" transform="translate(74.162 11.228)" fill="none" stroke="#221f20" stroke-miterlimit="10" stroke-width="0.388"/>
      <circle id="Ellipse_136" data-name="Ellipse 136" cx="0.565" cy="0.565" r="0.565" transform="translate(68.384 7.655)" fill="none" stroke="#221f20" stroke-miterlimit="10" stroke-width="0.388"/>
      <path id="Path_1111" data-name="Path 1111" d="M5.5,9.758c.03-.074.049-.112.049-.112,12.436,6,26.437,7.692,35.7,6.022C48.928,14.28,58.6,7.317,61.667,5l.3-.228-.935-.694c-4.507,3.244-10.765,7.576-18.19,9.607-8.642,2.36-18.791.515-26.208-1.229-6.588-1.55-10.8-3.643-11.087-3Z" fill="#c1c1c1"/>
      <path id="Path_1112" data-name="Path 1112" d="M5.5,9.758c.03-.074.049-.112.049-.112,12.436,6,26.437,7.692,35.7,6.022C48.928,14.28,58.6,7.317,61.667,5l.3-.228-.935-.694c-4.507,3.244-10.765,7.576-18.19,9.607-8.642,2.36-18.791.515-26.208-1.229-6.588-1.55-10.8-3.643-11.087-3Z" fill="none" stroke="#221f20" stroke-miterlimit="10" stroke-width="0.388"/>
      <path id="Path_1113" data-name="Path 1113" d="M67.793,3.127c1.806.469,3.817,1.8,6.813,3.763.275.182,1.023.736,2.1,1.554,1.484,1.131,3.592,2.763,5.933,4.6C79.721,10.691,71.381,3.894,69.707,2.774c-.062-.038-.848-.581-1-.519l-.7.453Z" fill="#7f3616"/>
      <path id="Path_1114" data-name="Path 1114" d="M67.793,3.127c1.806.469,3.817,1.8,6.813,3.763.275.182,1.023.736,2.1,1.554,1.484,1.131,3.592,2.763,5.933,4.6C79.721,10.691,71.381,3.894,69.707,2.774c-.062-.038-.848-.581-1-.519l-.7.453Z" fill="none" stroke="#221f20" stroke-miterlimit="10" stroke-width="0.388"/>
      <path id="Path_1115" data-name="Path 1115" d="M60.643,3.825c.058.295.6.806,1.023,1.174.628-.476.977-.759.977-.759C66.712,1.674,68.816,3.1,74.605,6.89c.275.182,1.023.737,2.1,1.554l.124-.093L65.46.229s-4.987,2.755-4.817,3.6" fill="#c9c9c9"/>
      <path id="Path_1116" data-name="Path 1116" d="M60.643,3.825c.058.295.6.806,1.023,1.174.628-.476.977-.759.977-.759C66.712,1.674,68.816,3.1,74.605,6.89c.275.182,1.023.737,2.1,1.554l.124-.093L65.46.229S60.473,2.984,60.643,3.825Z" fill="none" stroke="#221f20" stroke-miterlimit="10" stroke-width="0.388"/>
      <path id="Path_1117" data-name="Path 1117" d="M94.6,26.446s-2.392-1.6.079-3.916c0,0,.254-.157,1.836,1.736" fill="none" stroke="#221f20" stroke-miterlimit="10" stroke-width="0.38"/>
      <path id="Path_1118" data-name="Path 1118" d="M38.332,52.224l5.178-6.386L38.6,45.316Z" fill="#160602"/>
      <path id="Path_1119" data-name="Path 1119" d="M38.332,52.224l5.178-6.386L38.6,45.316Z" fill="none" stroke="#2e160e" stroke-linejoin="round" stroke-width="0.388"/>
      <path id="Path_1120" data-name="Path 1120" d="M5.356,10.371c.228.11.457.218.686.326" fill="none" stroke="#221f20" stroke-miterlimit="10" stroke-width="0.332"/>
      <path id="Path_1121" data-name="Path 1121" d="M7.415,11.316c11.094,4.849,24.266,6.755,34,5C50.571,14.666,62.26,5.392,62.97,4.824c3.11-2.033,4.965-1.315,10.629,2.4l2.349,1.72c1.123.736,9.856,7.587,16.906,13.393" fill="none" stroke="#221f20" stroke-miterlimit="10" stroke-width="0.332" stroke-dasharray="1.506 1.506"/>
      <path id="Path_1122" data-name="Path 1122" d="M93.436,22.816q.294.243.584.484" fill="none" stroke="#221f20" stroke-miterlimit="10" stroke-width="0.332"/>
      <path id="Path_1123" data-name="Path 1123" d="M93.012,21.341s.908-2.031-.861.141c-.86,1.056-1.856,2.115-1.856,2.115" fill="none" stroke="#221f20" stroke-miterlimit="10" stroke-width="1.163"/>
      <path id="Path_1124" data-name="Path 1124" d="M87.774,17.11s.623-1.868-.67-.3c-.867,1.051-1.857,2.571-1.857,2.571" fill="none" stroke="#221f20" stroke-miterlimit="10" stroke-width="1.163"/>
      <path id="Path_1125" data-name="Path 1125" d="M82.682,12.986s.908-2.031-.861.141c-.86,1.056-1.856,2.115-1.856,2.115" fill="none" stroke="#221f20" stroke-miterlimit="10" stroke-width="1.163"/>
      <path id="Path_1126" data-name="Path 1126" d="M77.607,9.213s.908-2.031-.861.141c-.86,1.056-2.019,2.439-2.019,2.439" fill="none" stroke="#221f20" stroke-miterlimit="10" stroke-width="1.163"/>
      <path id="Path_1127" data-name="Path 1127" d="M71.952,4.682s1.2-1.882-1.171.509a12.561,12.561,0,0,0-1.857,2.946" fill="none" stroke="#221f20" stroke-miterlimit="10" stroke-width="1.163"/>
    </g>
  </g>
</svg>
