<svg xmlns="http://www.w3.org/2000/svg" xmlns:xlink="http://www.w3.org/1999/xlink" width="150.494" height="52.741" viewBox="0 0 150.494 52.741">
  <defs>
    <clipPath id="clip-path">
      <rect id="Rectangle_1923" data-name="Rectangle 1923" width="150.494" height="52.741" transform="translate(0 0)" fill="none"/>
    </clipPath>
  </defs>
  <g id="Group_1392" data-name="Group 1392" transform="translate(0 0)">
    <g id="Group_1392-2" data-name="Group 1392" clip-path="url(#clip-path)">
      <path id="Path_1158" data-name="Path 1158" d="M2.719,52.547H38.37l.267-6.912s1.5.132,4.915.52c3.863.438,10.178,1.2,19.561,2.459,10.473,1.4,36.174,4.841,52.954,3.037,14.278-1.532,33.489-4.515,34.005-4.655.458-.124.113-2.238-.062-2.858s-1.291-.924-1.291-.924L3.025,41.038Z" fill="#2e160e"/>
      <path id="Path_1159" data-name="Path 1159" d="M2.719,52.547H38.37l.267-6.912s1.5.132,4.915.52c3.863.438,10.178,1.2,19.561,2.459,10.473,1.4,36.174,4.841,52.954,3.037,14.278-1.532,33.489-4.515,34.005-4.655.458-.124.113-2.238-.062-2.858s-1.291-.924-1.291-.924L3.025,41.038Z" fill="none" stroke="#221f20" stroke-miterlimit="10" stroke-width="0.388"/>
      <path id="Path_1160" data-name="Path 1160" d="M3.025,41.038s18.537-.279,30.026.749c12.4,1.109,55.894,7.73,73.6,7.269a196.169,196.169,0,0,0,42.062-5.842,5.166,5.166,0,0,0-.609-3.371c-.841-1.5-2.517-2.773-6.477-3.394-6.722-1.051-15.655-2.342-24.007-3.409-8.843-1.133-11.458-.749-21.027-8.441l.7-.481L67.48.838l-.578.446-4.2,3.235s-.175.139-.5.388c-.065.05-.135.108-.213.166C59.272,7.16,49.218,14.526,41.282,15.957c-9.259,1.672-23.254-.019-35.693-6.012-.012,0-.023-.011-.035-.015S-4.36,31.019,3.025,41.038" fill="#fff"/>
      <path id="Path_1161" data-name="Path 1161" d="M3.025,41.038s18.537-.279,30.026.749c12.4,1.109,55.894,7.73,73.6,7.269a196.169,196.169,0,0,0,42.062-5.842,5.166,5.166,0,0,0-.609-3.371c-.841-1.5-2.517-2.773-6.477-3.394-6.722-1.051-15.655-2.342-24.007-3.409-8.843-1.133-11.458-.749-21.027-8.441l.7-.481L67.48.838l-.578.446-4.2,3.235s-.175.139-.5.388c-.065.05-.135.108-.213.166C59.272,7.16,49.218,14.526,41.282,15.957c-9.259,1.672-23.254-.019-35.693-6.012-.012,0-.023-.011-.035-.015S-4.36,31.019,3.025,41.038Z" fill="none" stroke="#221f20" stroke-miterlimit="10" stroke-width="0.582"/>
      <path id="Path_1162" data-name="Path 1162" d="M45.344,43.072a17.392,17.392,0,0,1,7.549-13.761A20.06,20.06,0,0,1,65.564,26.15a82.755,82.755,0,0,1,12.352,2,66.15,66.15,0,0,1,7.52,2.528" fill="none" stroke="#221f20" stroke-linecap="round" stroke-miterlimit="10" stroke-width="0.664"/>
      <path id="Path_1163" data-name="Path 1163" d="M38.369,52.547l5.182-6.392c-3.417-.388-4.914-.52-4.914-.52Z" fill="#160602"/>
      <path id="Path_1164" data-name="Path 1164" d="M38.369,52.547l5.182-6.392c-3.417-.388-4.914-.52-4.914-.52Z" fill="none" stroke="#2e160e" stroke-linejoin="round" stroke-width="0.388"/>
      <path id="Path_1165" data-name="Path 1165" d="M85.581,29.873q-.342-.136-.705-.276" fill="none" stroke="#221f20" stroke-miterlimit="10" stroke-width="0.332"/>
      <path id="Path_1166" data-name="Path 1166" d="M83.464,29.07a58.49,58.49,0,0,0-19.226-3.749c-12.382,0-18.44,8.5-19.531,16.284" fill="none" stroke="#221f20" stroke-miterlimit="10" stroke-width="0.332" stroke-dasharray="1.511 1.511"/>
      <path id="Path_1167" data-name="Path 1167" d="M44.617,42.358q-.038.379-.06.755" fill="none" stroke="#221f20" stroke-miterlimit="10" stroke-width="0.332"/>
      <path id="Path_1168" data-name="Path 1168" d="M5.364,10.655q.342.165.687.326" fill="none" stroke="#221f20" stroke-miterlimit="10" stroke-width="0.332"/>
      <path id="Path_1169" data-name="Path 1169" d="M7.393,11.588C18.5,16.452,31.7,18.365,41.452,16.607a32.012,32.012,0,0,0,8.091-2.868" fill="none" stroke="#221f20" stroke-miterlimit="10" stroke-width="0.332" stroke-dasharray="1.474 1.474"/>
      <path id="Path_1170" data-name="Path 1170" d="M50.2,13.409c.226-.115.452-.231.676-.349" fill="none" stroke="#221f20" stroke-miterlimit="10" stroke-width="0.332"/>
      <path id="Path_1171" data-name="Path 1171" d="M63.77,3.7c-1.109.96-7.692,5.94-9.488,6.992-1.876,1.1-4.511,4.356-4.623,4.494l-.174.216,1.5,2.339c.723.718,3.86-.679,6.363-1.977.811-.49,7.734-4.695,8.2-5.092a2.36,2.36,0,0,1,1.954.312c.336.214,3.509,2.822,6.868,5.585,3.475,2.856,7.413,6.094,9.52,7.761.3.237.58.455.84.657,2.407,1.874,2.682,2.169,1.822,3.616-.7,1.173-3.995,6.536-4.029,6.59a30.474,30.474,0,0,0-2.083,5.86l-.064.265,2.517,1.654.206-.117a19.794,19.794,0,0,0,6.439-6.726c2.292-3.815,6.982-11,7.254-11.379,0,0,1.141-1.718.613.487" fill="none" stroke="#221f20" stroke-linecap="round" stroke-miterlimit="10" stroke-width="0.664"/>
      <path id="Path_1172" data-name="Path 1172" d="M96.784,23.79a4.091,4.091,0,0,0-.457.611" fill="none" stroke="#221f20" stroke-miterlimit="10" stroke-width="0.332"/>
      <path id="Path_1173" data-name="Path 1173" d="M95.462,25.545c-1.674,2.213-4.511,6.711-6.6,10.183A20.609,20.609,0,0,1,84.1,41.2" fill="none" stroke="#221f20" stroke-miterlimit="10" stroke-width="0.332" stroke-dasharray="1.438 1.438"/>
      <path id="Path_1174" data-name="Path 1174" d="M83.531,41.629c-.268.195-.481.336-.623.427l-.636-.417" fill="none" stroke="#221f20" stroke-miterlimit="10" stroke-width="0.332"/>
      <path id="Path_1175" data-name="Path 1175" d="M81.889,41.387l-.636-.418c.045-.173.112-.424.2-.731" fill="none" stroke="#221f20" stroke-miterlimit="10" stroke-width="0.332"/>
      <path id="Path_1176" data-name="Path 1176" d="M81.9,38.757a22.611,22.611,0,0,1,1.286-3.184c.019-.029,3.321-5.4,4.021-6.575,1.242-2.091.289-2.833-2.013-4.624-.258-.2-.536-.418-.835-.654-2.1-1.662-6.036-4.9-9.508-7.752-4.073-3.349-6.587-5.412-6.945-5.64-.758-.482-2.218-.809-2.875-.246-.321.274-5,3.143-8.072,5.005-2.2,1.138-4.872,2.238-5.431,2.092l-.269-.423" fill="none" stroke="#221f20" stroke-miterlimit="10" stroke-width="0.332" stroke-dasharray="1.549 1.549"/>
      <path id="Path_1177" data-name="Path 1177" d="M50.847,16.1l-.408-.642c.116-.139.285-.339.491-.577" fill="none" stroke="#221f20" stroke-miterlimit="10" stroke-width="0.332"/>
      <path id="Path_1178" data-name="Path 1178" d="M52.026,13.67a14.159,14.159,0,0,1,2.648-2.311c1.567-.918,9.144-6.6,12.25-9.017" fill="none" stroke="#221f20" stroke-miterlimit="10" stroke-width="0.332" stroke-dasharray="1.629 1.629"/>
      <path id="Path_1179" data-name="Path 1179" d="M67.563,1.841c.273-.216.475-.38.588-.478" fill="none" stroke="#221f20" stroke-miterlimit="10" stroke-width="0.332"/>
      <path id="Path_1180" data-name="Path 1180" d="M63.336,10.259,61.1,7.28a1.306,1.306,0,0,0-1.812-.329L56.967,8.693a1.306,1.306,0,0,0-.186,1.832L59.022,13.5a1.305,1.305,0,0,0,1.812.329l2.316-1.742a1.306,1.306,0,0,0,.186-1.832m-5.935-.2a.5.5,0,0,1,.071-.7l2.315-1.741a.5.5,0,0,1,.688.124l2.241,2.979a.5.5,0,0,1-.071.7L60.33,13.163a.5.5,0,0,1-.688-.125Z" fill="#fff"/>
      <path id="Path_1181" data-name="Path 1181" d="M63.336,10.259,61.1,7.28a1.306,1.306,0,0,0-1.812-.329L56.967,8.693a1.306,1.306,0,0,0-.186,1.832L59.022,13.5a1.305,1.305,0,0,0,1.812.329l2.316-1.742A1.306,1.306,0,0,0,63.336,10.259Zm-5.935-.2a.5.5,0,0,1,.071-.7l2.315-1.741a.5.5,0,0,1,.688.124l2.241,2.979a.5.5,0,0,1-.071.7L60.33,13.163a.5.5,0,0,1-.688-.125Z" fill="none" stroke="#221f20" stroke-miterlimit="10" stroke-width="0.388"/>
      <path id="Path_1182" data-name="Path 1182" d="M60.761,9.664h0a.38.38,0,0,0,.533.071l.88-.672a.381.381,0,0,0-.464-.6l-.878.672a.38.38,0,0,0-.071.534" fill="#fff"/>
      <path id="Path_1183" data-name="Path 1183" d="M60.761,9.664h0a.38.38,0,0,0,.533.071l.88-.672a.381.381,0,0,0-.464-.6l-.878.672A.38.38,0,0,0,60.761,9.664Z" fill="none" stroke="#221f20" stroke-miterlimit="10" stroke-width="0.388"/>
      <path id="Path_1184" data-name="Path 1184" d="M90.247,31.826,87.055,29.9a1.307,1.307,0,0,0-1.8.373l-1.5,2.481a1.306,1.306,0,0,0,.512,1.769l3.193,1.925a1.306,1.306,0,0,0,1.8-.373l1.5-2.481a1.306,1.306,0,0,0-.513-1.769M84.668,33.86a.5.5,0,0,1-.195-.672l1.5-2.481a.5.5,0,0,1,.685-.141l3.193,1.924a.5.5,0,0,1,.194.672l-1.5,2.481a.5.5,0,0,1-.685.142Z" fill="#fff"/>
      <path id="Path_1185" data-name="Path 1185" d="M90.247,31.826,87.055,29.9a1.307,1.307,0,0,0-1.8.373l-1.5,2.481a1.306,1.306,0,0,0,.512,1.769l3.193,1.925a1.306,1.306,0,0,0,1.8-.373l1.5-2.481A1.306,1.306,0,0,0,90.247,31.826ZM84.668,33.86a.5.5,0,0,1-.195-.672l1.5-2.481a.5.5,0,0,1,.685-.141l3.193,1.924a.5.5,0,0,1,.194.672l-1.5,2.481a.5.5,0,0,1-.685.142Z" fill="none" stroke="#221f20" stroke-miterlimit="10" stroke-width="0.388"/>
      <path id="Path_1186" data-name="Path 1186" d="M87.9,32.143h0a.382.382,0,0,0,.522-.134l.538-.91a.381.381,0,0,0-.655-.388l-.539.91a.381.381,0,0,0,.134.522" fill="#fff"/>
      <path id="Path_1187" data-name="Path 1187" d="M87.9,32.143h0a.382.382,0,0,0,.522-.134l.538-.91a.381.381,0,0,0-.655-.388l-.539.91A.381.381,0,0,0,87.9,32.143Z" fill="none" stroke="#221f20" stroke-miterlimit="10" stroke-width="0.388"/>
      <path id="Path_1188" data-name="Path 1188" d="M5.554,9.736l.035.209c12.439,5.993,26.434,7.684,35.693,6.013,7.936-1.432,17.99-8.8,20.713-10.884l-.9-.718C56.58,7.6,50.312,11.939,42.884,13.972c-8.65,2.362-18.809.516-26.233-1.23C10.057,11.191,5.841,9.1,5.554,9.736" fill="#c1c1c1"/>
      <path id="Path_1189" data-name="Path 1189" d="M5.554,9.736l.035.209c12.439,5.993,26.434,7.684,35.693,6.013,7.936-1.432,17.99-8.8,20.713-10.884l-.9-.718C56.58,7.6,50.312,11.939,42.884,13.972c-8.65,2.362-18.809.516-26.233-1.23C10.057,11.191,5.841,9.1,5.554,9.736Z" fill="none" stroke="#221f20" stroke-miterlimit="10" stroke-width="0.388"/>
      <path id="Path_1190" data-name="Path 1190" d="M60.894,4.061c.1.493,1.14.849,1.14.849l.175,0c.322-.249.5-.388.5-.388l4.2-3.235L65.382.233s-4.655,2.986-4.488,3.828" fill="#c1c1c1"/>
      <path id="Path_1191" data-name="Path 1191" d="M60.894,4.061c.1.493,1.14.849,1.14.849l.175,0c.322-.249.5-.388.5-.388l4.2-3.235L65.382.233S60.727,3.219,60.894,4.061Z" fill="none" stroke="#221f20" stroke-miterlimit="10" stroke-width="0.388"/>
    </g>
  </g>
</svg>
