<?xml version="1.0" encoding="UTF-8"?><svg id="Layer_2" xmlns="http://www.w3.org/2000/svg" viewBox="0 0 157.32 60.84"><defs><style>.cls-1{fill:#2b1710;}.cls-2,.cls-3{fill:#fff;}.cls-4{stroke-dasharray:0 0 2.07 2.07;}.cls-4,.cls-5,.cls-6,.cls-7,.cls-8,.cls-9,.cls-10,.cls-11,.cls-12,.cls-13,.cls-14{fill:none;}.cls-4,.cls-5,.cls-7,.cls-8,.cls-9,.cls-3,.cls-10,.cls-11,.cls-12,.cls-13,.cls-14{stroke:#000;}.cls-4,.cls-5,.cls-7,.cls-8,.cls-9,.cls-3,.cls-10,.cls-11,.cls-12,.cls-14{stroke-linecap:round;}.cls-4,.cls-5,.cls-7,.cls-8,.cls-9,.cls-10,.cls-11,.cls-12,.cls-14{stroke-width:.55px;}.cls-4,.cls-3,.cls-10,.cls-12,.cls-14{stroke-linejoin:round;}.cls-5{stroke-dasharray:0 0 2.29 2.29;}.cls-5,.cls-6,.cls-7,.cls-8,.cls-9,.cls-11,.cls-13{stroke-miterlimit:10;}.cls-6{stroke:#221f20;stroke-width:.65px;}.cls-7{stroke-dasharray:0 0 2.15 2.15;}.cls-8{stroke-dasharray:0 0 2.3 2.3;}.cls-9{stroke-dasharray:0 0 2.37 2.37;}.cls-3{stroke-width:.58px;}.cls-10{stroke-dasharray:0 0 2.34 2.34;}.cls-12{stroke-dasharray:0 0 2.24 2.24;}.cls-13{stroke-width:.54px;}</style></defs><g id="Layer_1-2"><g><path class="cls-1" d="m156.79,45.32s.14,1.41,0,1.41c-22.28,14.94-153.38,1.23-153.38,1.23-.25-.75-1.29-8.02-1.29-10.09-.04-1.32,2.83-2.45,7.07-2.64,4.11.24,40.25,2.73,40.25,2.73,0,0,30.87,2.77,30.94,1.89,24.37,6.92,51.4,1.56,51.4,1.56,0,0,17.03-1.37,24.33.61,2.22,1.03.67,3.3.67,3.3Z"/><path class="cls-1" d="m157.27,52.05c-5.22,7.48-34.02,9.12-39.68,8.74-5.66-.38-96.19-1.1-106.8-1.81C.17,58.27.04,55.41.04,55.41c0,0-.1-4.28,0-5.47.35-.69,1.54-1.07,1.54-1.07,0,0,.88-.32.63-1.07,0,0,131.1,13.72,153.38-1.23,1.03.14,1.68,1.09,1.68,1.09,0,0,.13,4.39,0,4.39Z"/><path class="cls-3" d="m125.93,55.57s10.14-.71,10.8-1.37c0-.05,2.17-10.35-14.43-22.06l-5.72-4.05s-1.59-.75-7.39.44c0,0,8.87,7.56,13.45,15.58,3.16,5.14,3.3,11.46,3.3,11.46Z"/><g><path class="cls-11" d="m116.26,29.21c.26.27.53.53.79.78"/><path class="cls-9" d="m118.81,31.57c6.84,5.8,13.11,7.56,16.46,20.71"/><path class="cls-11" d="m135.55,53.44c.08.35.16.71.24,1.08"/></g><g><path class="cls-11" d="m110.6,28.78s.31.25.85.7"/><path class="cls-8" d="m113.19,30.99c4.61,4.16,13.77,13.5,13.68,21.9"/><path class="cls-11" d="m126.79,54.04c-.04.37-.1.73-.19,1.09"/></g><path class="cls-3" d="m56.98,37.53S65.89,1.23,68.78.29c5.47,2.7,11.07,5.91,14.97,6.16.06.06,1.01,1.26,0,4.4s-4.03,12.92-4.03,12.92"/><path class="cls-3" d="m58.91,28.44s-19.58-4.87-28.33-4.68c-1.31-.12-7.16-.82-8.07-.92-.81-.09-1.68-.25-1.68-.25l-5.9-.38s.9-6.79.38-10.52c.05-.09,21.53,1.54,21.53,1.54l25.24,4.1-3.17,11.11Z"/><g><path class="cls-14" d="m58.26,35.53c.1-.29.21-.64.34-1.05"/><path class="cls-12" d="m59.27,32.34c2.26-7.39,6.76-22.82,8.92-28.93"/><path class="cls-14" d="m68.57,2.36c.16-.43.3-.77.42-1.02"/></g><g><path class="cls-14" d="m77.58,23.78s.15-.38.4-1.03"/><path class="cls-4" d="m78.73,20.82c1.13-2.96,2.82-7.52,3.78-10.75"/><path class="cls-14" d="m82.79,9.06c.1-.39.19-.75.26-1.07"/></g><g><path class="cls-14" d="m58.04,27s-.38-.09-1.08-.23"/><path class="cls-10" d="m54.67,26.29c-6.67-1.34-22.09-4.14-35.95-4.49"/><path class="cls-14" d="m17.55,21.78c-.37,0-.74,0-1.11-.01"/></g><g><path class="cls-14" d="m59.47,19.11s-.38-.09-1.08-.23"/><path class="cls-10" d="m56.1,18.4c-6.67-1.34-22.09-4.14-35.95-4.49"/><path class="cls-14" d="m18.97,13.88c-.37,0-.74,0-1.11-.01"/></g><path class="cls-3" d="m117.33,28.62s-14.93-4.84-54.37,26.2l-23.62-1.7S73.56,14.32,105.38,19.22c13.08,6.16,14.94,6.04,12.1,9.2"/><g><path class="cls-11" d="m41.61,52.24c.22-.21.49-.47.79-.77"/><path class="cls-7" d="m43.97,50c9.26-8.62,37.23-32.72,58.82-29.91"/><path class="cls-11" d="m103.85,20.25c.36.06.73.13,1.09.21"/></g><g><path class="cls-11" d="m61.74,54.67s.26-.28.77-.79"/><path class="cls-5" d="m64.13,52.27c6.98-6.72,28.27-25.23,51.22-25.65"/><path class="cls-11" d="m116.51,26.61c.37,0,.74.01,1.11.02"/></g><circle class="cls-13" cx="43.19" cy="20.24" r="1.08"/><circle class="cls-13" cx="39.44" cy="19.73" r="1.08"/><circle class="cls-13" cx="35.73" cy="19.16" r="1.08"/><g><path id="Path_1184" class="cls-2" d="m44.2,17.27l-.79,6.18c-.19,1.18.61,2.3,1.79,2.5l4.81.62c1.2.1,2.25-.78,2.36-1.98l.79-6.19c.19-1.18-.6-2.3-1.79-2.5l-4.81-.62c-1.2-.1-2.25.78-2.36,1.98m6.88,7.16c-.04.45-.44.79-.9.75l-4.81-.62c-.45-.08-.75-.5-.68-.95l.79-6.18c.05-.45.44-.79.9-.75l4.81.62c.45.08.75.5.68.95l-.79,6.18Z"/><path id="Path_1185" class="cls-6" d="m44.2,17.27l-.79,6.18c-.19,1.18.61,2.3,1.79,2.5l4.81.62c1.2.1,2.25-.78,2.36-1.98l.79-6.19c.19-1.18-.6-2.3-1.79-2.5l-4.81-.62c-1.2-.1-2.25.78-2.36,1.98Zm6.88,7.16c-.04.45-.44.79-.9.75l-4.81-.62c-.45-.08-.75-.5-.68-.95l.79-6.18c.05-.45.44-.79.9-.75l4.81.62c.45.08.75.5.68.95l-.79,6.18Z"/><path id="Path_1186" class="cls-2" d="m46.27,20.64h0c.04-.35-.21-.67-.56-.71l-1.76-.21c-.35-.03-.66.24-.68.59-.03.33.21.62.53.68l1.76.21c.35.04.67-.21.71-.56,0,0,0,0,0,0"/><path id="Path_1187" class="cls-6" d="m46.27,20.64h0c.04-.35-.21-.67-.56-.71l-1.76-.21c-.35-.03-.66.24-.68.59-.03.33.21.62.53.68l1.76.21c.35.04.67-.21.71-.56,0,0,0,0,0,0Z"/></g></g></g></svg>