<svg xmlns="http://www.w3.org/2000/svg" xmlns:xlink="http://www.w3.org/1999/xlink" width="150.506" height="47.181" viewBox="0 0 150.506 47.181">
  <defs>
    <clipPath id="clip-path">
      <rect id="Rectangle_1926" data-name="Rectangle 1926" width="150.506" height="47.181" transform="translate(0 0)" fill="none"/>
    </clipPath>
  </defs>
  <g id="Group_1393" data-name="Group 1393" transform="translate(0 0)">
    <g id="Group_1394" data-name="Group 1394" clip-path="url(#clip-path)">
      <path id="Path_1192" data-name="Path 1192" d="M3.012,46.982H39.584l.275-7.091s1.536.135,5.041.533c3.964.45,10.442,1.23,20.063,2.519,10.748,1.445,37.114,4.966,54.328,3.12C133.938,44.487,149.656,42.1,150,41.682c.5-.6.278-2.2.1-2.837-.175-.621-1.285-.462-1.285-.462L3.322,35.176Z" fill="#2e160e"/>
      <path id="Path_1193" data-name="Path 1193" d="M3.012,46.982H39.584l.275-7.091s1.536.135,5.041.533c3.964.45,10.442,1.23,20.063,2.519,10.748,1.445,37.114,4.966,54.328,3.12C133.938,44.487,149.656,42.1,150,41.682c.5-.6.278-2.2.1-2.837-.175-.621-1.285-.462-1.285-.462L3.322,35.176Z" fill="none" stroke="#221f20" stroke-miterlimit="10" stroke-width="0.398"/>
      <path id="Path_1194" data-name="Path 1194" d="M3.322,35.176s19.02-.286,30.807.768c12.717,1.138,57.339,7.93,75.508,7.457,23.6-.617,39.179-5.018,39.179-5.018a8.749,8.749,0,0,0-.426-4.182c-1.5-3.545-5.857-4.974-8.965-5.7-4.23-.987-9.482-.669-18.539-1.532-15-1.425-37.822-21.149-44.75-26.223-1.388,1.91-4.11,5.5-5.22,6.976A65.824,65.824,0,0,0,65.1,16.231c-.672,1.293,3.971,4.067,6.749,5.722.438.263.867.518,1.269.76.215.132.609.358,1.027.6.557.318,1.13.645,1.413.824a.6.6,0,0,1,.207.772.651.651,0,0,1-.581.4.5.5,0,0,1-.152-.02c-1.074-.3-2.622-.756-4.413-1.282C65.21,22.411,57.029,20,51.327,18.778,36.13,15.519,19.115,11.054,4.659,6.351l.123-.382L4.7,6.132v0c-.864,1.89-8.536,19.327-1.381,29.04" fill="#fff"/>
      <path id="Path_1195" data-name="Path 1195" d="M3.322,35.176s19.02-.286,30.807.768c12.717,1.138,57.339,7.93,75.508,7.457,23.6-.617,39.179-5.018,39.179-5.018a8.749,8.749,0,0,0-.426-4.182c-1.5-3.545-5.857-4.974-8.965-5.7-4.23-.987-9.482-.669-18.539-1.532-15-1.425-37.822-21.149-44.75-26.223-1.388,1.91-4.11,5.5-5.22,6.976A65.824,65.824,0,0,0,65.1,16.231c-.672,1.293,3.971,4.067,6.749,5.722.438.263.867.518,1.269.76.215.132.609.358,1.027.6.557.318,1.13.645,1.413.824a.6.6,0,0,1,.207.772.651.651,0,0,1-.581.4.5.5,0,0,1-.152-.02c-1.074-.3-2.622-.756-4.413-1.282C65.21,22.411,57.029,20,51.327,18.778,36.13,15.519,19.115,11.054,4.659,6.351l.123-.382L4.7,6.132v0C3.839,8.026-3.833,25.463,3.322,35.176Z" fill="none" stroke="#221f20" stroke-miterlimit="10" stroke-width="0.597"/>
      <path id="Path_1196" data-name="Path 1196" d="M39.584,46.982,44.9,40.424c-3.505-.4-5.041-.533-5.041-.533Z" fill="#160602"/>
      <path id="Path_1197" data-name="Path 1197" d="M39.584,46.982,44.9,40.424c-3.505-.4-5.041-.533-5.041-.533Z" fill="none" stroke="#2e160e" stroke-linejoin="round" stroke-width="0.398"/>
      <path id="Path_1198" data-name="Path 1198" d="M4.659,6.351c14.456,4.7,31.471,9.168,46.668,12.427,5.7,1.221,13.883,3.633,19.294,5.228,1.791.526,3.339.983,4.414,1.282a.486.486,0,0,0,.151.02.651.651,0,0,0,.581-.4.6.6,0,0,0-.207-.772c-.283-.179-.856-.506-1.413-.824-.418-.239-.812-.465-1.026-.6-.4-.242-.832-.5-1.27-.76C69.074,20.3,64.43,17.524,65.1,16.231A65.8,65.8,0,0,1,70.916,7.72c1.11-1.476,3.832-5.066,5.221-6.976L75.8.5c-.111-.08-.218-.156-.322-.227-1.44,1.985-4.055,5.443-5.2,6.967a66.642,66.642,0,0,0-5.889,8.623c-1.019,1.958,3.084,4.405,7.047,6.773.438.258.864.513,1.266.756.218.135.62.366,1.046.609.108.059.219.123.326.187-.915-.267-2.017-.589-3.235-.947-5.423-1.6-13.616-4.015-19.35-5.245C36.321,14.747,19.338,10.29,4.906,5.595l-.2.537.079-.163Z" fill="#c1c1c1"/>
      <path id="Path_1199" data-name="Path 1199" d="M4.659,6.351c14.456,4.7,31.471,9.168,46.668,12.427,5.7,1.221,13.883,3.633,19.294,5.228,1.791.526,3.339.983,4.414,1.282a.486.486,0,0,0,.151.02.651.651,0,0,0,.581-.4.6.6,0,0,0-.207-.772c-.283-.179-.856-.506-1.413-.824-.418-.239-.812-.465-1.026-.6-.4-.242-.832-.5-1.27-.76C69.074,20.3,64.43,17.524,65.1,16.231A65.8,65.8,0,0,1,70.916,7.72c1.11-1.476,3.832-5.066,5.221-6.976L75.8.5c-.111-.08-.218-.156-.322-.227-1.44,1.985-4.055,5.443-5.2,6.967a66.642,66.642,0,0,0-5.889,8.623c-1.019,1.958,3.084,4.405,7.047,6.773.438.258.864.513,1.266.756.218.135.62.366,1.046.609.108.059.219.123.326.187-.915-.267-2.017-.589-3.235-.947-5.423-1.6-13.616-4.015-19.35-5.245C36.321,14.747,19.338,10.29,4.906,5.595l-.2.537.079-.163Z" fill="none" stroke="#221f20" stroke-miterlimit="10" stroke-width="0.398"/>
    </g>
  </g>
</svg>
