<svg xmlns="http://www.w3.org/2000/svg" xmlns:xlink="http://www.w3.org/1999/xlink" width="151.973" height="53.263" viewBox="0 0 151.973 53.263">
  <defs>
    <clipPath id="clip-path">
      <rect id="Rectangle_1945" data-name="Rectangle 1945" width="151.973" height="53.263" transform="translate(0 0)" fill="none"/>
    </clipPath>
  </defs>
  <g id="Group_1414" data-name="Group 1414" transform="translate(0 0)">
    <g id="Group_1414-2" data-name="Group 1414" clip-path="url(#clip-path)">
      <path id="Path_3126" data-name="Path 3126" d="M2.748,53.067h36l.27-6.98s1.512.133,4.963.525c3.9.442,10.278,1.21,19.749,2.479,10.58,1.418,36.534,4.889,53.478,3.071,14.419-1.551,33.82-4.559,34.34-4.7.459-.126.114-2.26-.062-2.891-.173-.611-1.3-.928-1.3-.928L3.054,41.445Z" fill="#2e160e"/>
      <path id="Path_3127" data-name="Path 3127" d="M2.748,53.067h36l.27-6.98s1.512.133,4.963.525c3.9.442,10.278,1.21,19.749,2.479,10.58,1.418,36.534,4.889,53.478,3.071,14.419-1.551,33.82-4.559,34.34-4.7.459-.126.114-2.26-.062-2.891-.173-.611-1.3-.928-1.3-.928L3.054,41.445Z" fill="none" stroke="#221f20" stroke-miterlimit="10" stroke-width="0.392"/>
      <path id="Path_3128" data-name="Path 3128" d="M3.053,41.446s18.723-.286,30.325.756c12.519,1.12,56.444,7.806,74.328,7.34a198.4,198.4,0,0,0,42.476-5.9,5.229,5.229,0,0,0-.615-3.407c-.85-1.516-2.542-2.8-6.541-3.424-6.792-1.065-15.809-2.366-24.246-3.447-8.927-1.14-11.567-.756-21.23-8.523l.7-.486L68.145.851l-.584.446L63.323,4.564l-.532.419c-.016.012-.036.027-.055.043-2.55,1.959-12.9,9.62-21.046,11.089-9.358,1.688-23.51-.024-36.083-6.087,0,0-10.008,21.3-2.554,31.418" fill="#fff"/>
      <path id="Path_3129" data-name="Path 3129" d="M3.053,41.446s18.723-.286,30.325.756c12.519,1.12,56.444,7.806,74.328,7.34a198.4,198.4,0,0,0,42.476-5.9,5.229,5.229,0,0,0-.615-3.407c-.85-1.516-2.542-2.8-6.541-3.424-6.792-1.065-15.809-2.366-24.246-3.447-8.927-1.14-11.567-.756-21.23-8.523l.7-.486L68.145.851l-.584.446L63.323,4.564l-.532.419c-.016.012-.036.027-.055.043-2.55,1.959-12.9,9.62-21.046,11.089-9.358,1.688-23.51-.024-36.083-6.087C5.607,10.028-4.4,31.325,3.053,41.446Z" fill="none" stroke="#221f20" stroke-miterlimit="10" stroke-width="0.588"/>
      <path id="Path_3130" data-name="Path 3130" d="M45.791,43.5a17.558,17.558,0,0,1,7.623-13.9,20.255,20.255,0,0,1,12.8-3.193,83.667,83.667,0,0,1,12.473,2.018,66.805,66.805,0,0,1,7.594,2.554" fill="none" stroke="#221f20" stroke-linecap="round" stroke-miterlimit="10" stroke-width="0.671"/>
      <path id="Path_3131" data-name="Path 3131" d="M38.749,53.067l5.233-6.455c-3.451-.392-4.963-.525-4.963-.525Z" fill="#160602"/>
      <path id="Path_3132" data-name="Path 3132" d="M38.749,53.067l5.233-6.455c-3.451-.392-4.963-.525-4.963-.525Z" fill="none" stroke="#2e160e" stroke-linejoin="round" stroke-width="0.392"/>
      <path id="Path_3133" data-name="Path 3133" d="M86.424,30.169q-.345-.137-.712-.279" fill="none" stroke="#221f20" stroke-miterlimit="10" stroke-width="0.335"/>
      <path id="Path_3134" data-name="Path 3134" d="M84.286,29.357a59.051,59.051,0,0,0-19.415-3.786c-12.5,0-18.622,8.587-19.723,16.444" fill="none" stroke="#221f20" stroke-miterlimit="10" stroke-width="0.335" stroke-dasharray="1.525 1.525"/>
      <path id="Path_3135" data-name="Path 3135" d="M45.057,42.776c-.025.255-.046.51-.06.762" fill="none" stroke="#221f20" stroke-miterlimit="10" stroke-width="0.335"/>
      <path id="Path_3136" data-name="Path 3136" d="M5.418,10.762q.345.167.694.329" fill="none" stroke="#221f20" stroke-miterlimit="10" stroke-width="0.335"/>
      <path id="Path_3137" data-name="Path 3137" d="M7.467,11.7c11.22,4.912,24.55,6.844,34.394,5.069a32.3,32.3,0,0,0,8.17-2.9" fill="none" stroke="#221f20" stroke-miterlimit="10" stroke-width="0.335" stroke-dasharray="1.488 1.488"/>
      <path id="Path_3138" data-name="Path 3138" d="M50.7,13.543c.228-.116.456-.233.682-.352" fill="none" stroke="#221f20" stroke-miterlimit="10" stroke-width="0.335"/>
      <path id="Path_3139" data-name="Path 3139" d="M64.4,3.737c-1.12.97-7.767,6-9.581,7.06-1.894,1.11-4.556,4.4-4.668,4.539l-.176.218,1.511,2.362c.729.725,3.9-.685,6.425-2,.818-.5,7.81-4.741,8.278-5.143a2.391,2.391,0,0,1,1.973.315c.339.216,3.543,2.851,6.936,5.64,3.508,2.885,7.485,6.155,9.612,7.837.3.24.586.46.849.664,2.431,1.893,2.708,2.19,1.84,3.652-.7,1.185-4.035,6.6-4.068,6.654a30.728,30.728,0,0,0-2.1,5.918l-.065.268L83.7,43.4l.208-.119a19.981,19.981,0,0,0,6.5-6.792c2.314-3.852,7.049-11.11,7.324-11.49,0,0,1.152-1.735.619.491" fill="none" stroke="#221f20" stroke-linecap="round" stroke-miterlimit="10" stroke-width="0.671"/>
      <path id="Path_3140" data-name="Path 3140" d="M97.737,24.026a4.054,4.054,0,0,0-.461.617" fill="none" stroke="#221f20" stroke-miterlimit="10" stroke-width="0.335"/>
      <path id="Path_3141" data-name="Path 3141" d="M96.4,25.8c-1.69,2.235-4.555,6.777-6.661,10.283A20.813,20.813,0,0,1,84.93,41.6" fill="none" stroke="#221f20" stroke-miterlimit="10" stroke-width="0.335" stroke-dasharray="1.452 1.452"/>
      <path id="Path_3142" data-name="Path 3142" d="M84.355,42.038c-.271.2-.488.341-.631.433l-.642-.422" fill="none" stroke="#221f20" stroke-miterlimit="10" stroke-width="0.335"/>
      <path id="Path_3143" data-name="Path 3143" d="M82.695,41.8l-.642-.422c.046-.175.113-.429.2-.739" fill="none" stroke="#221f20" stroke-miterlimit="10" stroke-width="0.335"/>
      <path id="Path_3144" data-name="Path 3144" d="M82.711,39.14a22.707,22.707,0,0,1,1.3-3.216c.019-.029,3.353-5.449,4.06-6.638,1.255-2.112.292-2.861-2.032-4.671-.261-.2-.542-.422-.844-.66-2.122-1.678-6.1-4.945-9.6-7.828-4.113-3.382-6.652-5.466-7.013-5.7-.766-.487-2.24-.818-2.9-.249-.325.276-5.053,3.174-8.152,5.054-2.219,1.15-4.92,2.261-5.484,2.113l-.272-.427" fill="none" stroke="#221f20" stroke-miterlimit="10" stroke-width="0.335" stroke-dasharray="1.565 1.565"/>
      <path id="Path_3145" data-name="Path 3145" d="M51.348,16.259l-.412-.648c.117-.141.287-.342.5-.583" fill="none" stroke="#221f20" stroke-miterlimit="10" stroke-width="0.335"/>
      <path id="Path_3146" data-name="Path 3146" d="M52.538,13.807a14.357,14.357,0,0,1,2.674-2.334c1.583-.926,9.234-6.666,12.37-9.1" fill="none" stroke="#221f20" stroke-miterlimit="10" stroke-width="0.335" stroke-dasharray="1.645 1.645"/>
      <path id="Path_3147" data-name="Path 3147" d="M68.228,1.861c.276-.219.479-.384.594-.483" fill="none" stroke="#221f20" stroke-miterlimit="10" stroke-width="0.335"/>
      <path id="Path_3148" data-name="Path 3148" d="M63.959,10.361,61.7,7.353a1.318,1.318,0,0,0-1.83-.332L57.528,8.78a1.318,1.318,0,0,0-.188,1.85L59.6,13.638a1.318,1.318,0,0,0,1.83.332l2.338-1.759a1.318,1.318,0,0,0,.188-1.85m-5.993-.2a.5.5,0,0,1,.071-.7L60.376,7.7a.5.5,0,0,1,.694.126l2.263,3.008a.5.5,0,0,1-.071.7l-2.338,1.759a.5.5,0,0,1-.695-.126Z" fill="#fff"/>
      <path id="Path_3149" data-name="Path 3149" d="M63.959,10.361,61.7,7.353a1.318,1.318,0,0,0-1.83-.332L57.528,8.78a1.318,1.318,0,0,0-.188,1.85L59.6,13.638a1.318,1.318,0,0,0,1.83.332l2.338-1.759A1.318,1.318,0,0,0,63.959,10.361Zm-5.993-.2a.5.5,0,0,1,.071-.7L60.376,7.7a.5.5,0,0,1,.694.126l2.263,3.008a.5.5,0,0,1-.071.7l-2.338,1.759a.5.5,0,0,1-.695-.126Z" fill="none" stroke="#221f20" stroke-miterlimit="10" stroke-width="0.392"/>
      <path id="Path_3150" data-name="Path 3150" d="M61.359,9.761h0a.384.384,0,0,0,.539.072l.888-.679a.385.385,0,1,0-.467-.611l-.888.679a.384.384,0,0,0-.072.539" fill="#fff"/>
      <path id="Path_3151" data-name="Path 3151" d="M61.359,9.761h0a.384.384,0,0,0,.539.072l.888-.679a.385.385,0,1,0-.467-.611l-.888.679A.384.384,0,0,0,61.359,9.761Z" fill="none" stroke="#221f20" stroke-miterlimit="10" stroke-width="0.392"/>
      <path id="Path_3152" data-name="Path 3152" d="M91.136,32.14,87.912,30.2a1.319,1.319,0,0,0-1.821.377l-1.511,2.5a1.32,1.32,0,0,0,.518,1.787l3.223,1.943a1.319,1.319,0,0,0,1.822-.376l1.51-2.506a1.317,1.317,0,0,0-.517-1.786M85.5,34.194a.5.5,0,0,1-.2-.678l1.51-2.506a.5.5,0,0,1,.692-.143l3.223,1.944a.5.5,0,0,1,.2.678l-1.511,2.506a.5.5,0,0,1-.691.143Z" fill="#fff"/>
      <path id="Path_3153" data-name="Path 3153" d="M91.136,32.14,87.912,30.2a1.319,1.319,0,0,0-1.821.377l-1.511,2.5a1.32,1.32,0,0,0,.518,1.787l3.223,1.943a1.319,1.319,0,0,0,1.822-.376l1.51-2.506A1.317,1.317,0,0,0,91.136,32.14ZM85.5,34.194a.5.5,0,0,1-.2-.678l1.51-2.506a.5.5,0,0,1,.692-.143l3.223,1.944a.5.5,0,0,1,.2.678l-1.511,2.506a.5.5,0,0,1-.691.143Z" fill="none" stroke="#221f20" stroke-miterlimit="10" stroke-width="0.392"/>
      <path id="Path_3154" data-name="Path 3154" d="M88.771,32.46h0a.384.384,0,0,0,.526-.135l.544-.919a.385.385,0,0,0-.662-.392l-.544.919a.384.384,0,0,0,.136.527" fill="#fff"/>
      <path id="Path_3155" data-name="Path 3155" d="M88.771,32.46h0a.384.384,0,0,0,.526-.135l.544-.919a.385.385,0,0,0-.662-.392l-.544.919A.384.384,0,0,0,88.771,32.46Z" fill="none" stroke="#221f20" stroke-miterlimit="10" stroke-width="0.392"/>
      <path id="Path_3156" data-name="Path 3156" d="M111.406,32.373a145.721,145.721,0,0,1,0,17.293" fill="none" stroke="#221f20" stroke-miterlimit="10" stroke-width="0.335" stroke-dasharray="1.536 1.536"/>
      <path id="Path_3157" data-name="Path 3157" d="M110.461,32.14s.957,15.922,0,17.663" fill="none" stroke="#221f20" stroke-linecap="round" stroke-miterlimit="10" stroke-width="0.671"/>
      <path id="Path_3158" data-name="Path 3158" d="M5.607,9.832v.2C18.18,16.091,32.332,17.8,41.69,16.115c8.2-1.481,18.645-9.24,21.1-11.132l-1.1-.584c-4.556,3.283-10.885,7.662-18.39,9.71-8.731,2.386-18.99.525-26.487-1.241C10.158,11.3,5.9,9.186,5.607,9.832" fill="#c1c1c1"/>
      <path id="Path_3159" data-name="Path 3159" d="M5.607,9.832v.2C18.18,16.091,32.332,17.8,41.69,16.115c8.2-1.481,18.645-9.24,21.1-11.132l-1.1-.584c-4.556,3.283-10.885,7.662-18.39,9.71-8.731,2.386-18.99.525-26.487-1.241C10.158,11.3,5.9,9.186,5.607,9.832Z" fill="none" stroke="#221f20" stroke-miterlimit="10" stroke-width="0.392"/>
      <path id="Path_3160" data-name="Path 3160" d="M61.494,4.105c.1.494,1.152.858,1.152.858l.09.062.055-.043.532-.419L67.561,1.3,66.026.235s-4.7,3.02-4.532,3.87" fill="#c1c1c1"/>
      <path id="Path_3161" data-name="Path 3161" d="M61.494,4.105c.1.494,1.152.858,1.152.858l.09.062.055-.043.532-.419L67.561,1.3,66.026.235S61.322,3.255,61.494,4.105Z" fill="none" stroke="#221f20" stroke-miterlimit="10" stroke-width="0.392"/>
    </g>
  </g>
</svg>
