<svg xmlns="http://www.w3.org/2000/svg" xmlns:xlink="http://www.w3.org/1999/xlink" width="156.894" height="52.738" viewBox="0 0 156.894 52.738">
  <defs>
    <clipPath id="clip-path">
      <rect id="Rectangle_1941" data-name="Rectangle 1941" width="156.892" height="52.738" transform="translate(0 0)" fill="none"/>
    </clipPath>
    <clipPath id="clip-path-2">
      <rect id="Rectangle_1942" data-name="Rectangle 1942" width="54.764" height="38.722" transform="translate(101.199 12.475) rotate(-1.4)" fill="none"/>
    </clipPath>
  </defs>
  <g id="Group_1407" data-name="Group 1407" transform="translate(0 0)">
    <g id="Group_1408" data-name="Group 1408">
      <g id="Group_1407-2" data-name="Group 1407" clip-path="url(#clip-path)">
        <path id="Path_2718" data-name="Path 2718" d="M2.733,52.543H38.54l.269-6.946s1.5.132,4.936.526c3.877.436,10.219,1.2,19.643,2.466,10.523,1.41,36.338,4.862,53.191,3.05,14.341-1.539,33.637-4.531,34.156-4.671.455-.129.113-2.252-.063-2.875-.171-.608-1.3-.927-1.3-.927L3.037,40.984Z" fill="#2e160e"/>
        <path id="Path_2719" data-name="Path 2719" d="M2.733,52.543H38.54l.269-6.946s1.5.132,4.936.526c3.877.436,10.219,1.2,19.643,2.466,10.523,1.41,36.338,4.862,53.191,3.05,14.341-1.539,33.637-4.531,34.156-4.671.455-.129.113-2.252-.063-2.875-.171-.608-1.3-.927-1.3-.927L3.037,40.984Z" fill="none" stroke="#221f20" stroke-miterlimit="10" stroke-width="0.39"/>
        <path id="Path_2720" data-name="Path 2720" d="M3.037,40.984s18.622-.284,30.158.748c12.455,1.114,56.14,7.768,73.933,7.305a197.213,197.213,0,0,0,42.247-5.871,5.193,5.193,0,0,0-.612-3.386c-.845-1.508-2.528-2.782-6.506-3.4-6.755-1.06-15.728-2.357-24.115-3.428-8.879-1.134-13.328-1.473-23.1-10.192C88.022,16.923,76.3,7.814,75.006,6.965c-1.391-.912-2.571-1.687-3.615-2.3-3.327-1.967-5.3-2.325-8.408-.362,0,0-.222.179-.627.491-.109.086-.23.179-.366.281C58.9,7.413,49.184,14.4,41.466,15.789c-9.3,1.679-23.375-.023-35.877-6.046,0,0-.008-.008-.012-.008s-9.954,21.182-2.54,31.249" fill="#fff"/>
        <path id="Path_2721" data-name="Path 2721" d="M3.037,40.984s18.622-.284,30.158.748c12.455,1.114,56.14,7.768,73.933,7.305a197.213,197.213,0,0,0,42.247-5.871,5.193,5.193,0,0,0-.612-3.386c-.845-1.508-2.528-2.782-6.506-3.4-6.755-1.06-15.728-2.357-24.115-3.428-8.879-1.134-13.328-1.473-23.1-10.192C88.022,16.923,76.3,7.814,75.006,6.965c-1.391-.912-2.571-1.687-3.615-2.3-3.327-1.967-5.3-2.325-8.408-.362,0,0-.222.179-.627.491-.109.086-.23.179-.366.281C58.9,7.413,49.184,14.4,41.466,15.789c-9.3,1.679-23.375-.023-35.877-6.046,0,0-.008-.008-.012-.008S-4.377,30.917,3.037,40.984Z" fill="none" stroke="#221f20" stroke-miterlimit="10" stroke-width="0.584"/>
        <path id="Path_2722" data-name="Path 2722" d="M45.544,43.024A17.461,17.461,0,0,1,53.127,29.2a20.144,20.144,0,0,1,12.726-3.176,83.142,83.142,0,0,1,12.406,2.007c5.036,1.253,13.172,4.037,13.172,4.037s1.652-1.94,4.073-5.318c.609-.85,1.709-2.233-1.14-4.56" fill="none" stroke="#221f20" stroke-linecap="round" stroke-miterlimit="10" stroke-width="0.667"/>
        <circle id="Ellipse_162" data-name="Ellipse 162" cx="0.568" cy="0.568" r="0.568" transform="translate(90.213 23.192)" fill="none" stroke="#221f20" stroke-miterlimit="10" stroke-width="0.39"/>
        <circle id="Ellipse_163" data-name="Ellipse 163" cx="0.568" cy="0.568" r="0.568" transform="translate(85.033 19.065)" fill="none" stroke="#221f20" stroke-miterlimit="10" stroke-width="0.39"/>
        <circle id="Ellipse_164" data-name="Ellipse 164" cx="0.568" cy="0.568" r="0.568" transform="translate(79.828 14.794)" fill="none" stroke="#221f20" stroke-miterlimit="10" stroke-width="0.39"/>
        <circle id="Ellipse_165" data-name="Ellipse 165" cx="0.568" cy="0.568" r="0.568" transform="translate(74.562 11.326)" fill="none" stroke="#221f20" stroke-miterlimit="10" stroke-width="0.39"/>
        <circle id="Ellipse_166" data-name="Ellipse 166" cx="0.568" cy="0.568" r="0.568" transform="translate(68.753 7.733)" fill="none" stroke="#221f20" stroke-miterlimit="10" stroke-width="0.39"/>
        <path id="Path_2723" data-name="Path 2723" d="M93.513,21.493s.912-2.042-.865.141c-.865,1.063-1.867,2.127-1.867,2.127" fill="none" stroke="#221f20" stroke-miterlimit="10" stroke-width="1.169"/>
        <path id="Path_2724" data-name="Path 2724" d="M88.247,17.239s.627-1.878-.674-.3C86.7,18,85.707,19.524,85.707,19.524" fill="none" stroke="#221f20" stroke-miterlimit="10" stroke-width="1.169"/>
        <path id="Path_2725" data-name="Path 2725" d="M83.128,13.094s.912-2.042-.865.141C81.4,14.3,80.4,15.362,80.4,15.362" fill="none" stroke="#221f20" stroke-miterlimit="10" stroke-width="1.169"/>
        <path id="Path_2726" data-name="Path 2726" d="M78.026,9.3s.912-2.042-.865.141C76.3,10.5,75.13,11.894,75.13,11.894" fill="none" stroke="#221f20" stroke-miterlimit="10" stroke-width="1.169"/>
        <path id="Path_2727" data-name="Path 2727" d="M72.535,4.7s1.209-1.892-1.177.511a12.615,12.615,0,0,0-1.867,2.962" fill="none" stroke="#221f20" stroke-miterlimit="10" stroke-width="1.169"/>
        <path id="Path_2728" data-name="Path 2728" d="M84.1,13.949C83.949,13.89,72.117,4.19,70.084,2.828c-.062-.041-.852-.584-1-.522" fill="none" stroke="#221f20" stroke-miterlimit="10" stroke-width="0.195"/>
        <path id="Path_2729" data-name="Path 2729" d="M38.54,52.543l5.2-6.42c-3.432-.394-4.936-.526-4.936-.526Z" fill="#160602"/>
        <path id="Path_2730" data-name="Path 2730" d="M38.54,52.543l5.2-6.42c-3.432-.394-4.936-.526-4.936-.526Z" fill="none" stroke="#2e160e" stroke-linejoin="round" stroke-width="0.39"/>
        <path id="Path_2731" data-name="Path 2731" d="M111.426,32.071c.787.625,3.021,2.946,2.567,4.353-.287.886-1.66,1.991-6.579,2.222a89.1,89.1,0,0,1-12.195-.787c-12.735-1.345-28.584-3.019-34.205,7.217" fill="none" stroke="#221f20" stroke-linecap="round" stroke-miterlimit="10" stroke-width="0.667"/>
        <path id="Path_2732" data-name="Path 2732" d="M37.142,42.153C36.9,29.163,26.31,26.676,16.968,24.481c-1.576-.37-3.064-.719-4.509-1.115-2.79-.764-4.653-2.157-5.539-4.14-1.642-3.676.641-8.367.663-8.413" fill="none" stroke="#221f20" stroke-linecap="round" stroke-miterlimit="10" stroke-width="0.667"/>
        <path id="Path_2733" data-name="Path 2733" d="M6.842,10.6c-.1.2-2.425,4.926-.635,8.942.985,2.209,3.019,3.749,6.046,4.578,1.459.4,2.954.75,4.537,1.122,9.509,2.233,19.341,4.542,19.573,16.927" fill="none" stroke="#221f20" stroke-miterlimit="10" stroke-width="0.334" stroke-dasharray="1.528 1.528"/>
        <path id="Path_2734" data-name="Path 2734" d="M18.47,26.647a.43.43,0,1,1-.531.3.43.43,0,0,1,.531-.3" fill="#221f20"/>
        <path id="Path_2735" data-name="Path 2735" d="M17.447,27.2a.238.238,0,1,1-.293.163.237.237,0,0,1,.293-.163" fill="#221f20"/>
        <path id="Path_2736" data-name="Path 2736" d="M17.852,26.1a.237.237,0,1,1-.333.042.237.237,0,0,1,.333-.042" fill="#221f20"/>
        <path id="Path_2737" data-name="Path 2737" d="M20.3,27.014a.43.43,0,1,1-.483.37.43.43,0,0,1,.483-.37" fill="#221f20"/>
        <path id="Path_2738" data-name="Path 2738" d="M19.372,27.71a.238.238,0,1,1-.266.2.236.236,0,0,1,.266-.2" fill="#221f20"/>
        <path id="Path_2739" data-name="Path 2739" d="M19.612,26.564a.237.237,0,1,1-.323.09.237.237,0,0,1,.323-.09" fill="#221f20"/>
        <path id="Path_2740" data-name="Path 2740" d="M22.172,27.552a.43.43,0,1,1-.457.4.43.43,0,0,1,.457-.4" fill="#221f20"/>
        <path id="Path_2741" data-name="Path 2741" d="M21.29,28.31a.237.237,0,1,1-.252.222.237.237,0,0,1,.252-.222" fill="#221f20"/>
        <path id="Path_2742" data-name="Path 2742" d="M21.452,27.15a.237.237,0,1,1-.317.112.239.239,0,0,1,.317-.112" fill="#221f20"/>
        <path id="Path_2743" data-name="Path 2743" d="M24.179,28.145a.43.43,0,1,1-.457.4.43.43,0,0,1,.457-.4" fill="#221f20"/>
        <path id="Path_2744" data-name="Path 2744" d="M23.3,28.9a.238.238,0,1,1-.252.221A.237.237,0,0,1,23.3,28.9" fill="#221f20"/>
        <path id="Path_2745" data-name="Path 2745" d="M23.46,27.741a.237.237,0,1,1-.317.111.238.238,0,0,1,.317-.111" fill="#221f20"/>
        <path id="Path_2746" data-name="Path 2746" d="M26.169,29.136a.43.43,0,1,1-.521.314.43.43,0,0,1,.521-.314" fill="#221f20"/>
        <path id="Path_2747" data-name="Path 2747" d="M25.166,29.725a.237.237,0,1,1-.287.173.236.236,0,0,1,.287-.173" fill="#221f20"/>
        <path id="Path_2748" data-name="Path 2748" d="M25.532,28.612a.237.237,0,1,1-.331.053.237.237,0,0,1,.331-.053" fill="#221f20"/>
        <path id="Path_2749" data-name="Path 2749" d="M27.934,30.126a.43.43,0,1,1-.591.146.431.431,0,0,1,.591-.146" fill="#221f20"/>
        <path id="Path_2750" data-name="Path 2750" d="M26.8,30.391a.237.237,0,1,1-.245.406.237.237,0,1,1,.245-.406" fill="#221f20"/>
        <path id="Path_2751" data-name="Path 2751" d="M27.481,29.437a.238.238,0,1,1-.332-.047.236.236,0,0,1,.332.047" fill="#221f20"/>
        <path id="Path_2752" data-name="Path 2752" d="M29.635,31.3a.43.43,0,1,1-.591.146.431.431,0,0,1,.591-.146" fill="#221f20"/>
        <path id="Path_2753" data-name="Path 2753" d="M28.5,31.56a.238.238,0,0,1-.246.407.238.238,0,0,1,.246-.407" fill="#221f20"/>
        <path id="Path_2754" data-name="Path 2754" d="M29.182,30.607a.238.238,0,1,1-.332-.047.236.236,0,0,1,.332.047" fill="#221f20"/>
        <path id="Path_2755" data-name="Path 2755" d="M31.2,32.334a.43.43,0,1,1-.591.146.431.431,0,0,1,.591-.146" fill="#221f20"/>
        <path id="Path_2756" data-name="Path 2756" d="M30.07,32.6a.237.237,0,1,1-.245.406.237.237,0,1,1,.245-.406" fill="#221f20"/>
        <path id="Path_2757" data-name="Path 2757" d="M30.75,31.645a.238.238,0,1,1-.332-.047.236.236,0,0,1,.332.047" fill="#221f20"/>
        <path id="Path_2758" data-name="Path 2758" d="M32.436,33.673a.43.43,0,1,1-.605.061.429.429,0,0,1,.605-.061" fill="#221f20"/>
        <path id="Path_2759" data-name="Path 2759" d="M31.278,33.776a.237.237,0,1,1-.334.034.237.237,0,0,1,.334-.034" fill="#221f20"/>
        <path id="Path_2760" data-name="Path 2760" d="M32.084,32.928a.237.237,0,1,1-.322-.093.238.238,0,0,1,.322.093" fill="#221f20"/>
        <path id="Path_2761" data-name="Path 2761" d="M33.349,35.383a.43.43,0,1,1-.586-.163.431.431,0,0,1,.586.163" fill="#221f20"/>
        <path id="Path_2762" data-name="Path 2762" d="M32.233,35.057a.238.238,0,1,1-.323-.09.237.237,0,0,1,.323.09" fill="#221f20"/>
        <path id="Path_2763" data-name="Path 2763" d="M33.293,34.561a.238.238,0,1,1-.266-.205.238.238,0,0,1,.266.205" fill="#221f20"/>
        <path id="Path_2764" data-name="Path 2764" d="M34.5,37.128a.43.43,0,1,1-.564-.228.43.43,0,0,1,.564.228" fill="#221f20"/>
        <path id="Path_2765" data-name="Path 2765" d="M33.43,36.679a.237.237,0,1,1-.311-.126.237.237,0,0,1,.311.126" fill="#221f20"/>
        <path id="Path_2766" data-name="Path 2766" d="M34.54,36.3a.238.238,0,1,1-.242-.233.239.239,0,0,1,.242.233" fill="#221f20"/>
        <path id="Path_2767" data-name="Path 2767" d="M35.049,39.132a.43.43,0,1,1-.564-.228.43.43,0,0,1,.564.228" fill="#221f20"/>
        <path id="Path_2768" data-name="Path 2768" d="M33.975,38.684a.237.237,0,1,1-.311-.126.237.237,0,0,1,.311.126" fill="#221f20"/>
        <path id="Path_2769" data-name="Path 2769" d="M35.085,38.308a.238.238,0,1,1-.242-.233.238.238,0,0,1,.242.233" fill="#221f20"/>
        <path id="Path_2770" data-name="Path 2770" d="M35.474,41.24a.43.43,0,1,1-.513-.327.429.429,0,0,1,.513.327" fill="#221f20"/>
        <path id="Path_2771" data-name="Path 2771" d="M34.5,40.6a.237.237,0,1,1-.283-.18.237.237,0,0,1,.283.18" fill="#221f20"/>
        <path id="Path_2772" data-name="Path 2772" d="M35.66,40.437a.237.237,0,1,1-.195-.273.237.237,0,0,1,.195.273" fill="#221f20"/>
        <path id="Path_2773" data-name="Path 2773" d="M16.528,26.055a.43.43,0,1,1-.531.3.429.429,0,0,1,.531-.3" fill="#221f20"/>
        <path id="Path_2774" data-name="Path 2774" d="M15.505,26.608a.238.238,0,1,1-.293.163.237.237,0,0,1,.293-.163" fill="#221f20"/>
        <path id="Path_2775" data-name="Path 2775" d="M15.91,25.51a.238.238,0,1,1-.334.042.238.238,0,0,1,.334-.042" fill="#221f20"/>
        <path id="Path_2776" data-name="Path 2776" d="M14.62,25.752a.43.43,0,1,1-.531.3.429.429,0,0,1,.531-.3" fill="#221f20"/>
        <path id="Path_2777" data-name="Path 2777" d="M13.6,26.305a.238.238,0,1,1-.293.163.237.237,0,0,1,.293-.163" fill="#221f20"/>
        <path id="Path_2778" data-name="Path 2778" d="M14,25.206a.237.237,0,1,1-.333.042A.237.237,0,0,1,14,25.206" fill="#221f20"/>
        <path id="Path_2779" data-name="Path 2779" d="M12.789,25.269a.43.43,0,1,1-.531.3.429.429,0,0,1,.531-.3" fill="#221f20"/>
        <path id="Path_2780" data-name="Path 2780" d="M11.766,25.823a.238.238,0,1,1-.294.163.237.237,0,0,1,.294-.163" fill="#221f20"/>
        <path id="Path_2781" data-name="Path 2781" d="M12.17,24.724a.237.237,0,1,1-.333.042.237.237,0,0,1,.333-.042" fill="#221f20"/>
        <path id="Path_2782" data-name="Path 2782" d="M11.151,24.8a.43.43,0,1,1-.531.3.43.43,0,0,1,.531-.3" fill="#221f20"/>
        <path id="Path_2783" data-name="Path 2783" d="M10.127,25.348a.238.238,0,1,1-.293.163.237.237,0,0,1,.293-.163" fill="#221f20"/>
        <path id="Path_2784" data-name="Path 2784" d="M10.532,24.249a.237.237,0,1,1-.333.042.237.237,0,0,1,.333-.042" fill="#221f20"/>
        <path id="Path_2785" data-name="Path 2785" d="M9.521,24.611a.43.43,0,1,1-.58.182.429.429,0,0,1,.58-.182" fill="#221f20"/>
        <path id="Path_2786" data-name="Path 2786" d="M8.407,24.945a.238.238,0,1,1-.32.1.238.238,0,0,1,.32-.1" fill="#221f20"/>
        <path id="Path_2787" data-name="Path 2787" d="M9.026,23.951a.237.237,0,1,1-.335-.026.238.238,0,0,1,.335.026" fill="#221f20"/>
        <path id="Path_2788" data-name="Path 2788" d="M8.027,23.335a.43.43,0,1,1-.606.054.43.43,0,0,1,.606-.054" fill="#221f20"/>
        <path id="Path_2789" data-name="Path 2789" d="M6.867,23.424a.237.237,0,1,1-.334.03.237.237,0,0,1,.334-.03" fill="#221f20"/>
        <path id="Path_2790" data-name="Path 2790" d="M7.684,22.585a.238.238,0,1,1-.321-.1.237.237,0,0,1,.321.1" fill="#221f20"/>
        <path id="Path_2791" data-name="Path 2791" d="M6.712,22.15a.43.43,0,1,1-.607-.036.43.43,0,0,1,.607.036" fill="#221f20"/>
        <path id="Path_2792" data-name="Path 2792" d="M5.551,22.065a.237.237,0,1,1-.335-.02.237.237,0,0,1,.335.02" fill="#221f20"/>
        <path id="Path_2793" data-name="Path 2793" d="M6.484,21.357a.237.237,0,1,1-.3-.144.237.237,0,0,1,.3.144" fill="#221f20"/>
        <path id="Path_2794" data-name="Path 2794" d="M5.584,20.516a.43.43,0,1,1-.6-.094.43.43,0,0,1,.6.094" fill="#221f20"/>
        <path id="Path_2795" data-name="Path 2795" d="M4.437,20.322a.238.238,0,1,1-.332-.052.238.238,0,0,1,.332.052" fill="#221f20"/>
        <path id="Path_2796" data-name="Path 2796" d="M5.432,19.7a.237.237,0,1,1-.288-.172.237.237,0,0,1,.288.172" fill="#221f20"/>
        <path id="Path_2797" data-name="Path 2797" d="M4.876,18.968a.43.43,0,1,1-.515-.324.43.43,0,0,1,.515.324" fill="#221f20"/>
        <path id="Path_2798" data-name="Path 2798" d="M3.9,18.336a.237.237,0,1,1-.284-.179.237.237,0,0,1,.284.179" fill="#221f20"/>
        <path id="Path_2799" data-name="Path 2799" d="M5.057,18.163a.237.237,0,1,1-.2-.272.239.239,0,0,1,.2.272" fill="#221f20"/>
        <path id="Path_2800" data-name="Path 2800" d="M4.627,17.044a.43.43,0,1,1-.451-.408.43.43,0,0,1,.451.408" fill="#221f20"/>
        <path id="Path_2801" data-name="Path 2801" d="M3.773,16.254a.237.237,0,1,1-.249-.225.237.237,0,0,1,.249.225" fill="#221f20"/>
        <path id="Path_2802" data-name="Path 2802" d="M4.944,16.283a.238.238,0,1,1-.147-.3.237.237,0,0,1,.147.3" fill="#221f20"/>
        <path id="Path_2803" data-name="Path 2803" d="M61.592,45.312c5.371-9.781,20.934-8.138,33.44-6.816a90.188,90.188,0,0,0,12.314.79c4.369-.2,6.751-1.109,7.284-2.762.711-2.208-1.9-4.267-2.031-4.372" fill="none" stroke="#221f20" stroke-miterlimit="10" stroke-width="0.334" stroke-dasharray="1.528 1.528"/>
      </g>
    </g>
    <g id="Group_1410" data-name="Group 1410">
      <g id="Group_1409" data-name="Group 1409" clip-path="url(#clip-path-2)">
        <path id="Path_2804" data-name="Path 2804" d="M122.2,34.613a.188.188,0,1,1-.255-.11.2.2,0,0,1,.255.11" fill="#221f20"/>
        <path id="Path_2805" data-name="Path 2805" d="M122.636,36a.193.193,0,0,1-.259-.093.2.2,0,0,1,.069-.27.194.194,0,0,1,.259.094.2.2,0,0,1-.069.269" fill="#221f20"/>
        <path id="Path_2806" data-name="Path 2806" d="M122.883,37.029a.2.2,0,0,1,.085-.263.2.2,0,0,1,.255.11" fill="#221f20"/>
        <path id="Path_2807" data-name="Path 2807" d="M123.65,38.27a.206.206,0,1,1,.086-.263.2.2,0,0,1-.086.263" fill="#221f20"/>
        <path id="Path_2808" data-name="Path 2808" d="M124.249,39.14a.187.187,0,1,1-.255-.11.2.2,0,0,1,.255.11" fill="#221f20"/>
        <path id="Path_2809" data-name="Path 2809" d="M124.685,40.53a.2.2,0,0,1-.259-.095.2.2,0,0,1,.07-.269.2.2,0,0,1,.26.094.2.2,0,0,1-.071.27" fill="#221f20"/>
        <path id="Path_2810" data-name="Path 2810" d="M124.847,41.558a.2.2,0,0,1,.122-.246.2.2,0,0,1,.238.148" fill="#221f20"/>
        <path id="Path_2811" data-name="Path 2811" d="M123.224,36.877a.187.187,0,1,1-.34.153" fill="#221f20"/>
        <path id="Path_2812" data-name="Path 2812" d="M125.105,42.938a.206.206,0,0,1,.053-.4.2.2,0,0,1-.053.4" fill="#221f20"/>
        <path id="Path_2813" data-name="Path 2813" d="M124.782,43.975a.211.211,0,0,1-.144.078.164.164,0,0,1-.136-.048.2.2,0,0,1,0-.271.22.22,0,0,1,.126-.072.191.191,0,0,1,.142.031.168.168,0,0,1,.07.127.213.213,0,0,1-.054.155" fill="#221f20"/>
        <path id="Path_2814" data-name="Path 2814" d="M123.428,44.591a.187.187,0,0,1,.026-.141.2.2,0,0,1,.113-.089.2.2,0,0,1,.249.1.164.164,0,0,1,0,.145.206.206,0,0,1-.126.1.222.222,0,0,1-.167-.008.166.166,0,0,1-.093-.114" fill="#221f20"/>
        <path id="Path_2815" data-name="Path 2815" d="M122.467,44.31a.2.2,0,0,1,.134.234.19.19,0,0,1-.258.118" fill="#221f20"/>
        <path id="Path_2816" data-name="Path 2816" d="M125.207,41.46a.192.192,0,0,1-.131.247.2.2,0,0,1-.229-.15" fill="#221f20"/>
        <path id="Path_2817" data-name="Path 2817" d="M121.369,43.538a.2.2,0,0,1,.144,0,.211.211,0,0,1,.109.091.171.171,0,0,1,.023.069.183.183,0,0,1,0,.07.2.2,0,0,1-.073.125.165.165,0,0,1-.143.027.23.23,0,0,1-.074-.036.28.28,0,0,1-.057-.069.217.217,0,0,1-.025-.166.161.161,0,0,1,.1-.11" fill="#221f20"/>
        <path id="Path_2818" data-name="Path 2818" d="M121.065,42.491a.26.26,0,0,1,.03-.085.194.194,0,0,1,.056-.061.157.157,0,0,1,.143-.024.2.2,0,0,1,.112.092.191.191,0,0,1,.025.065.193.193,0,0,1,0,.072.214.214,0,0,1-.069.124.2.2,0,0,1-.135.05.163.163,0,0,1-.128-.069.214.214,0,0,1-.036-.164" fill="#221f20"/>
        <path id="Path_2819" data-name="Path 2819" d="M122.208,41.583a.193.193,0,0,1-.031.14.216.216,0,0,1-.109.086.2.2,0,0,1-.135,0,.218.218,0,0,1-.111-.091.158.158,0,0,1-.006-.145.214.214,0,0,1,.129-.112.23.23,0,0,1,.174.008.166.166,0,0,1,.089.118" fill="#221f20"/>
        <path id="Path_2820" data-name="Path 2820" d="M122.942,41.93a.01.01,0,0,0,.006.012l.009-.007a.261.261,0,0,0,.009-.047.33.33,0,0,1,.044-.134.135.135,0,0,1,.137-.058.192.192,0,0,1,.1.049.381.381,0,0,1,.045.062.346.346,0,0,1,.026.091" fill="#221f20"/>
        <path id="Path_2821" data-name="Path 2821" d="M122.342,44.662a.222.222,0,0,1-.125-.108.166.166,0,0,1,0-.146.185.185,0,0,1,.107-.1.2.2,0,0,1,.144,0" fill="#221f20"/>
        <path id="Path_2822" data-name="Path 2822" d="M124.206,34.51a.187.187,0,1,1-.255-.1.2.2,0,0,1,.255.1" fill="#221f20"/>
        <path id="Path_2823" data-name="Path 2823" d="M124.666,35.872a.192.192,0,0,1-.26-.085.2.2,0,0,1,.065-.268.192.192,0,0,1,.26.084.2.2,0,0,1-.065.269" fill="#221f20"/>
        <path id="Path_2824" data-name="Path 2824" d="M124.93,36.88a.187.187,0,1,1,.336-.162" fill="#221f20"/>
        <path id="Path_2825" data-name="Path 2825" d="M125.715,38.085a.2.2,0,1,1,.081-.263.195.195,0,0,1-.081.263" fill="#221f20"/>
        <path id="Path_2826" data-name="Path 2826" d="M126.326,38.928a.187.187,0,1,1-.256-.1.2.2,0,0,1,.256.1" fill="#221f20"/>
        <path id="Path_2827" data-name="Path 2827" d="M126.786,40.29a.192.192,0,0,1-.26-.085.2.2,0,0,1,.065-.268.192.192,0,0,1,.26.084.2.2,0,0,1-.065.269" fill="#221f20"/>
        <path id="Path_2828" data-name="Path 2828" d="M127.05,41.3a.187.187,0,1,1,.336-.162" fill="#221f20"/>
        <path id="Path_2829" data-name="Path 2829" d="M125.267,36.719a.187.187,0,1,1-.336.161" fill="#221f20"/>
        <path id="Path_2830" data-name="Path 2830" d="M122.972,43.195a.334.334,0,1,1,.473-.012.335.335,0,0,1-.473.012" fill="#221f20"/>
        <path id="Path_2831" data-name="Path 2831" d="M127.156,35a.161.161,0,1,1,.188-.257.161.161,0,1,1-.188.257" fill="#221f20"/>
        <path id="Path_2832" data-name="Path 2832" d="M126.753,35.739a.173.173,0,0,1-.246-.022.161.161,0,1,1,.226-.224.174.174,0,0,1,.02.246" fill="#221f20"/>
        <path id="Path_2833" data-name="Path 2833" d="M125.769,36.341a.182.182,0,0,1,0-.247.173.173,0,0,1,.238.037.176.176,0,0,1,0,.249.168.168,0,0,1-.241-.039" fill="#221f20"/>
        <path id="Path_2834" data-name="Path 2834" d="M125,36.6a.179.179,0,0,1,.224.089.17.17,0,0,1-.055.243" fill="#221f20"/>
        <path id="Path_2835" data-name="Path 2835" d="M130.123,35.686a.334.334,0,1,0,.473-.012.335.335,0,0,0-.473.012" fill="#221f20"/>
        <path id="Path_2836" data-name="Path 2836" d="M134.4,37.735a.335.335,0,1,0,.429.2.334.334,0,0,0-.429-.2" fill="#221f20"/>
        <path id="Path_2837" data-name="Path 2837" d="M128.164,40.2a.213.213,0,1,1-.282,0,.2.2,0,0,1,.282,0" fill="#221f20"/>
        <path id="Path_2838" data-name="Path 2838" d="M128.855,39.359a.188.188,0,1,1-.043.279.2.2,0,0,1,.043-.279" fill="#221f20"/>
        <path id="Path_2839" data-name="Path 2839" d="M130.142,38.577a.2.2,0,0,1-.041.276.2.2,0,0,1-.283-.006.2.2,0,0,1,.04-.277.2.2,0,0,1,.284.007" fill="#221f20"/>
        <path id="Path_2840" data-name="Path 2840" d="M131.13,38.138a.2.2,0,0,1-.278-.041.2.2,0,0,1,.076-.272" fill="#221f20"/>
        <path id="Path_2841" data-name="Path 2841" d="M126.947,41.09a.2.2,0,0,1,.283-.018.2.2,0,0,1-.017.279" fill="#221f20"/>
        <path id="Path_2842" data-name="Path 2842" d="M132.322,37.244a.213.213,0,0,1-.375.193.212.212,0,0,1,.375-.193" fill="#221f20"/>
        <path id="Path_2843" data-name="Path 2843" d="M133.251,36.66a.2.2,0,0,1,.259.116.213.213,0,0,1-.4.13.2.2,0,0,1,.142-.246" fill="#221f20"/>
        <path id="Path_2844" data-name="Path 2844" d="M134.775,36.607a.2.2,0,0,1-.2.191.209.209,0,0,1-.223-.166.191.191,0,0,1,.195-.206.226.226,0,0,1,.161.05.168.168,0,0,1,.065.131" fill="#221f20"/>
        <path id="Path_2845" data-name="Path 2845" d="M135.679,37.1a.21.21,0,0,1-.092-.118.19.19,0,0,1,.008-.144.168.168,0,0,1,.119-.087.233.233,0,0,1,.164.034" fill="#221f20"/>
        <path id="Path_2846" data-name="Path 2846" d="M130.928,37.825a.2.2,0,0,1,.279.044.2.2,0,0,1-.077.27" fill="#221f20"/>
        <path id="Path_2847" data-name="Path 2847" d="M136.538,38.152a.2.2,0,0,1-.134-.054.218.218,0,0,1-.069-.122.22.22,0,0,1,.021-.139.209.209,0,0,1,.107-.1.154.154,0,0,1,.145.02.23.23,0,0,1,.094.15.233.233,0,0,1-.035.174.156.156,0,0,1-.129.069" fill="#221f20"/>
        <path id="Path_2848" data-name="Path 2848" d="M136.245,39.239a.232.232,0,0,1-.164.064.157.157,0,0,1-.128-.072.192.192,0,0,1-.027-.141.213.213,0,0,1,.066-.125.218.218,0,0,1,.13-.056.2.2,0,0,1,.14.038.161.161,0,0,1,.06.134.227.227,0,0,1-.077.158" fill="#221f20"/>
        <path id="Path_2849" data-name="Path 2849" d="M134.742,39.253a.2.2,0,0,1,.113-.086.247.247,0,0,1,.07-.013.343.343,0,0,1,.068.011.2.2,0,0,1,.061.034.208.208,0,0,1,.047.051.215.215,0,0,1,.037.14.159.159,0,0,1-.083.12.22.22,0,0,1-.176.01.236.236,0,0,1-.141-.117.156.156,0,0,1,0-.15" fill="#221f20"/>
        <path id="Path_2850" data-name="Path 2850" d="M134.586,38.321a.208.208,0,0,1-.2.185c-.107,0-.183-.1-.171-.236" fill="#221f20"/>
        <path id="Path_2851" data-name="Path 2851" d="M135.879,36.788a.235.235,0,0,1,.1.135.163.163,0,0,1-.029.144.189.189,0,0,1-.127.069.217.217,0,0,1-.145-.033" fill="#221f20"/>
        <path id="Path_2852" data-name="Path 2852" d="M129.148,36.822a.219.219,0,1,1,.285.022.2.2,0,0,1-.285-.022" fill="#221f20"/>
        <path id="Path_2853" data-name="Path 2853" d="M128.374,37.623a.188.188,0,1,1,.064-.279.2.2,0,0,1-.064.279" fill="#221f20"/>
        <path id="Path_2854" data-name="Path 2854" d="M127.038,38.389a.2.2,0,0,1,.046-.279.208.208,0,0,1,.288,0,.2.2,0,0,1-.046.279.208.208,0,0,1-.288,0" fill="#221f20"/>
        <path id="Path_2855" data-name="Path 2855" d="M126.037,38.879a.188.188,0,1,1,.221.3" fill="#221f20"/>
        <path id="Path_2856" data-name="Path 2856" d="M130.49,36.066a.189.189,0,1,1-.221-.3" fill="#221f20"/>
        <path id="Path_2857" data-name="Path 2857" d="M129.086,35.009a.168.168,0,0,1-.186.2.2.2,0,0,1-.1-.029.2.2,0,0,1-.062-.06.152.152,0,0,1,0-.145.272.272,0,0,1,.094-.1.186.186,0,0,1,.047-.028c.014,0,.025-.013.037-.01a.217.217,0,0,1,.168.171" fill="#221f20"/>
      </g>
    </g>
    <g id="Group_1412" data-name="Group 1412">
      <g id="Group_1411" data-name="Group 1411" clip-path="url(#clip-path)">
        <path id="Path_2858" data-name="Path 2858" d="M82.769,38.2a.43.43,0,1,0,.32.517.43.43,0,0,0-.32-.517" fill="#221f20"/>
        <path id="Path_2859" data-name="Path 2859" d="M83.394,39.185a.237.237,0,1,0,.177.285.237.237,0,0,0-.177-.285" fill="#221f20"/>
        <path id="Path_2860" data-name="Path 2860" d="M83.575,38.028a.237.237,0,1,0,.271.2.237.237,0,0,0-.271-.2" fill="#221f20"/>
        <path id="Path_2861" data-name="Path 2861" d="M80.677,38.19a.43.43,0,1,0,.321.517.431.431,0,0,0-.321-.517" fill="#221f20"/>
        <path id="Path_2862" data-name="Path 2862" d="M81.3,39.17a.237.237,0,1,0,.177.285.237.237,0,0,0-.177-.285" fill="#221f20"/>
        <path id="Path_2863" data-name="Path 2863" d="M81.482,38.012a.237.237,0,1,0,.271.2.237.237,0,0,0-.271-.2" fill="#221f20"/>
        <path id="Path_2864" data-name="Path 2864" d="M78.485,38.562a.43.43,0,1,0,.407.452.43.43,0,0,0-.407-.452" fill="#221f20"/>
        <path id="Path_2865" data-name="Path 2865" d="M79.275,39.416a.237.237,0,1,0,.225.249.237.237,0,0,0-.225-.249" fill="#221f20"/>
        <path id="Path_2866" data-name="Path 2866" d="M79.246,38.245a.238.238,0,1,0,.3.147.237.237,0,0,0-.3-.147" fill="#221f20"/>
        <path id="Path_2867" data-name="Path 2867" d="M76.507,38.745a.43.43,0,1,0,.523.311.431.431,0,0,0-.523-.311" fill="#221f20"/>
        <path id="Path_2868" data-name="Path 2868" d="M77.514,39.327a.237.237,0,1,0,.289.172.238.238,0,0,0-.289-.172" fill="#221f20"/>
        <path id="Path_2869" data-name="Path 2869" d="M77.14,38.217a.238.238,0,1,0,.332.051.237.237,0,0,0-.332-.051" fill="#221f20"/>
        <path id="Path_2870" data-name="Path 2870" d="M74.656,38.925a.43.43,0,1,0,.523.311.431.431,0,0,0-.523-.311" fill="#221f20"/>
        <path id="Path_2871" data-name="Path 2871" d="M75.664,39.507a.237.237,0,1,0,.289.172.238.238,0,0,0-.289-.172" fill="#221f20"/>
        <path id="Path_2872" data-name="Path 2872" d="M75.29,38.4a.238.238,0,1,0,.332.051.237.237,0,0,0-.332-.051" fill="#221f20"/>
        <path id="Path_2873" data-name="Path 2873" d="M72.787,39.183a.43.43,0,1,0,.523.311.431.431,0,0,0-.523-.311" fill="#221f20"/>
        <path id="Path_2874" data-name="Path 2874" d="M73.794,39.765a.237.237,0,1,0,.289.172.238.238,0,0,0-.289-.172" fill="#221f20"/>
        <path id="Path_2875" data-name="Path 2875" d="M73.42,38.656a.238.238,0,1,0,.332.051.237.237,0,0,0-.332-.051" fill="#221f20"/>
        <path id="Path_2876" data-name="Path 2876" d="M71.016,39.784a.43.43,0,1,0,.561.234.429.429,0,0,0-.561-.234" fill="#221f20"/>
        <path id="Path_2877" data-name="Path 2877" d="M72.1,40.218a.237.237,0,1,0,.31.129.238.238,0,0,0-.31-.129" fill="#221f20"/>
        <path id="Path_2878" data-name="Path 2878" d="M71.568,39.172a.238.238,0,1,0,.336,0,.237.237,0,0,0-.336,0" fill="#221f20"/>
        <path id="Path_2879" data-name="Path 2879" d="M69.383,40.76a.43.43,0,1,0,.608.013.429.429,0,0,0-.608-.013" fill="#221f20"/>
        <path id="Path_2880" data-name="Path 2880" d="M70.547,40.771a.237.237,0,1,0,.335.007.236.236,0,0,0-.335-.007" fill="#221f20"/>
        <path id="Path_2881" data-name="Path 2881" d="M69.675,39.989a.237.237,0,1,0,.314-.119.237.237,0,0,0-.314.119" fill="#221f20"/>
        <path id="Path_2882" data-name="Path 2882" d="M67.452,41.309a.43.43,0,1,0,.606-.054.431.431,0,0,0-.606.054" fill="#221f20"/>
        <path id="Path_2883" data-name="Path 2883" d="M68.609,41.191a.237.237,0,1,0,.334-.03.237.237,0,0,0-.334.03" fill="#221f20"/>
        <path id="Path_2884" data-name="Path 2884" d="M67.656,40.51a.237.237,0,1,0,.3-.153.237.237,0,0,0-.3.153" fill="#221f20"/>
        <path id="Path_2885" data-name="Path 2885" d="M65.706,42.144a.43.43,0,1,0,.606-.054.431.431,0,0,0-.606.054" fill="#221f20"/>
        <path id="Path_2886" data-name="Path 2886" d="M66.863,42.026A.237.237,0,1,0,67.2,42a.237.237,0,0,0-.334.03" fill="#221f20"/>
        <path id="Path_2887" data-name="Path 2887" d="M65.911,41.345a.237.237,0,1,0,.3-.153.237.237,0,0,0-.3.153" fill="#221f20"/>
        <path id="Path_2888" data-name="Path 2888" d="M64.219,43.879a.43.43,0,1,0,.586-.164.43.43,0,0,0-.586.164" fill="#221f20"/>
        <path id="Path_2889" data-name="Path 2889" d="M65.335,43.552a.238.238,0,1,0,.323-.09.237.237,0,0,0-.323.09" fill="#221f20"/>
        <path id="Path_2890" data-name="Path 2890" d="M64.274,43.056a.237.237,0,1,0,.266-.2.238.238,0,0,0-.266.2" fill="#221f20"/>
        <path id="Path_2891" data-name="Path 2891" d="M88.749,38.712a.43.43,0,1,0,.258.551.43.43,0,0,0-.258-.551" fill="#221f20"/>
        <path id="Path_2892" data-name="Path 2892" d="M89.255,39.76a.237.237,0,1,0,.142.3.237.237,0,0,0-.142-.3" fill="#221f20"/>
        <path id="Path_2893" data-name="Path 2893" d="M89.569,38.632a.238.238,0,1,0,.246.229.239.239,0,0,0-.246-.229" fill="#221f20"/>
        <path id="Path_2894" data-name="Path 2894" d="M86.672,38.454a.43.43,0,1,0,.259.55.428.428,0,0,0-.259-.55" fill="#221f20"/>
        <path id="Path_2895" data-name="Path 2895" d="M87.18,39.5a.238.238,0,1,0,.143.3.239.239,0,0,0-.143-.3" fill="#221f20"/>
        <path id="Path_2896" data-name="Path 2896" d="M87.493,38.371a.237.237,0,1,0,.246.228.237.237,0,0,0-.246-.228" fill="#221f20"/>
        <path id="Path_2897" data-name="Path 2897" d="M84.452,38.567a.43.43,0,1,0,.352.5.43.43,0,0,0-.352-.5" fill="#221f20"/>
        <path id="Path_2898" data-name="Path 2898" d="M85.137,39.508a.237.237,0,1,0,.194.274.238.238,0,0,0-.194-.274" fill="#221f20"/>
        <path id="Path_2899" data-name="Path 2899" d="M85.245,38.342a.237.237,0,1,0,.283.181.237.237,0,0,0-.283-.181" fill="#221f20"/>
        <path id="Path_2900" data-name="Path 2900" d="M94.875,39.392a.43.43,0,1,0,.233.562.43.43,0,0,0-.233-.562" fill="#221f20"/>
        <path id="Path_2901" data-name="Path 2901" d="M95.335,40.46a.237.237,0,1,0,.129.31.237.237,0,0,0-.129-.31" fill="#221f20"/>
        <path id="Path_2902" data-name="Path 2902" d="M95.7,39.347a.238.238,0,1,0,.235.24.238.238,0,0,0-.235-.24" fill="#221f20"/>
        <path id="Path_2903" data-name="Path 2903" d="M92.812,39.042a.43.43,0,1,0,.234.561.43.43,0,0,0-.234-.561" fill="#221f20"/>
        <path id="Path_2904" data-name="Path 2904" d="M93.274,40.109a.237.237,0,1,0,.129.31.238.238,0,0,0-.129-.31" fill="#221f20"/>
        <path id="Path_2905" data-name="Path 2905" d="M93.635,39a.238.238,0,1,0,.236.239A.238.238,0,0,0,93.635,39" fill="#221f20"/>
        <path id="Path_2906" data-name="Path 2906" d="M90.589,39.057a.43.43,0,1,0,.33.511.43.43,0,0,0-.33-.511" fill="#221f20"/>
        <path id="Path_2907" data-name="Path 2907" d="M91.231,40.026a.237.237,0,1,0,.182.282.237.237,0,0,0-.182-.282" fill="#221f20"/>
        <path id="Path_2908" data-name="Path 2908" d="M91.391,38.866a.237.237,0,1,0,.274.194.238.238,0,0,0-.274-.194" fill="#221f20"/>
        <path id="Path_2909" data-name="Path 2909" d="M100.892,39.725a.43.43,0,1,0,.28.54.43.43,0,0,0-.28-.54" fill="#221f20"/>
        <path id="Path_2910" data-name="Path 2910" d="M101.44,40.751a.238.238,0,1,0,.154.3.237.237,0,0,0-.154-.3" fill="#221f20"/>
        <path id="Path_2911" data-name="Path 2911" d="M101.709,39.611a.237.237,0,1,0,.255.219.238.238,0,0,0-.255-.219" fill="#221f20"/>
        <path id="Path_2912" data-name="Path 2912" d="M98.807,39.551a.43.43,0,1,0,.281.54.431.431,0,0,0-.281-.54" fill="#221f20"/>
        <path id="Path_2913" data-name="Path 2913" d="M99.357,40.576a.238.238,0,1,0,.155.3.238.238,0,0,0-.155-.3" fill="#221f20"/>
        <path id="Path_2914" data-name="Path 2914" d="M99.623,39.435a.237.237,0,1,0,.255.218.237.237,0,0,0-.255-.218" fill="#221f20"/>
        <path id="Path_2915" data-name="Path 2915" d="M96.593,39.754a.43.43,0,1,0,.372.482.431.431,0,0,0-.372-.482" fill="#221f20"/>
        <path id="Path_2916" data-name="Path 2916" d="M97.315,40.666a.237.237,0,1,0,.2.266.238.238,0,0,0-.2-.266" fill="#221f20"/>
        <path id="Path_2917" data-name="Path 2917" d="M97.376,39.5a.237.237,0,1,0,.29.17.238.238,0,0,0-.29-.17" fill="#221f20"/>
        <path id="Path_2918" data-name="Path 2918" d="M106.794,40.059a.43.43,0,1,0,.28.54.43.43,0,0,0-.28-.54" fill="#221f20"/>
        <path id="Path_2919" data-name="Path 2919" d="M107.343,41.085a.238.238,0,1,0,.155.3.237.237,0,0,0-.155-.3" fill="#221f20"/>
        <path id="Path_2920" data-name="Path 2920" d="M107.611,39.945a.237.237,0,1,0,.255.219.238.238,0,0,0-.255-.219" fill="#221f20"/>
        <path id="Path_2921" data-name="Path 2921" d="M104.709,39.887a.43.43,0,1,0,.281.539.43.43,0,0,0-.281-.539" fill="#221f20"/>
        <path id="Path_2922" data-name="Path 2922" d="M105.26,40.911a.237.237,0,1,0,.155.3.238.238,0,0,0-.155-.3" fill="#221f20"/>
        <path id="Path_2923" data-name="Path 2923" d="M105.525,39.77a.237.237,0,1,0,.255.218.237.237,0,0,0-.255-.218" fill="#221f20"/>
        <path id="Path_2924" data-name="Path 2924" d="M102.5,40.091a.43.43,0,1,0,.372.481.429.429,0,0,0-.372-.481" fill="#221f20"/>
        <path id="Path_2925" data-name="Path 2925" d="M103.218,41a.237.237,0,1,0,.2.266.238.238,0,0,0-.2-.266" fill="#221f20"/>
        <path id="Path_2926" data-name="Path 2926" d="M103.278,39.833a.237.237,0,1,0,.29.17.238.238,0,0,0-.29-.17" fill="#221f20"/>
        <path id="Path_2927" data-name="Path 2927" d="M112.269,39.811a.43.43,0,1,0,.58.185.43.43,0,0,0-.58-.185" fill="#221f20"/>
        <path id="Path_2928" data-name="Path 2928" d="M113.382,40.151a.237.237,0,1,0,.32.1.237.237,0,0,0-.32-.1" fill="#221f20"/>
        <path id="Path_2929" data-name="Path 2929" d="M112.768,39.154a.237.237,0,1,0,.335-.025.237.237,0,0,0-.335.025" fill="#221f20"/>
        <path id="Path_2930" data-name="Path 2930" d="M110.446,39.99a.43.43,0,1,0,.458.4.431.431,0,0,0-.458-.4" fill="#221f20"/>
        <path id="Path_2931" data-name="Path 2931" d="M111.33,40.746a.238.238,0,1,0,.253.221.237.237,0,0,0-.253-.221" fill="#221f20"/>
        <path id="Path_2932" data-name="Path 2932" d="M111.165,39.587a.237.237,0,1,0,.317.111.238.238,0,0,0-.317-.111" fill="#221f20"/>
        <path id="Path_2933" data-name="Path 2933" d="M108.542,40.228a.43.43,0,1,0,.407.452.43.43,0,0,0-.407-.452" fill="#221f20"/>
        <path id="Path_2934" data-name="Path 2934" d="M109.332,41.082a.237.237,0,1,0,.225.249.237.237,0,0,0-.225-.249" fill="#221f20"/>
        <path id="Path_2935" data-name="Path 2935" d="M109.3,39.911a.238.238,0,1,0,.3.147.237.237,0,0,0-.3-.147" fill="#221f20"/>
        <path id="Path_2936" data-name="Path 2936" d="M115.735,36.4a.43.43,0,1,0,.354-.495.431.431,0,0,0-.354.495" fill="#221f20"/>
        <path id="Path_2937" data-name="Path 2937" d="M116.4,35.449a.237.237,0,1,0,.195-.273.237.237,0,0,0-.195.273" fill="#221f20"/>
        <path id="Path_2938" data-name="Path 2938" d="M115.262,35.728a.237.237,0,1,0,.079-.326.237.237,0,0,0-.079.326" fill="#221f20"/>
        <path id="Path_2939" data-name="Path 2939" d="M114.951,37.781a.43.43,0,1,0,.608-.02.431.431,0,0,0-.608.02" fill="#221f20"/>
        <path id="Path_2940" data-name="Path 2940" d="M116.113,37.728a.238.238,0,1,0,.336-.011.237.237,0,0,0-.336.011" fill="#221f20"/>
        <path id="Path_2941" data-name="Path 2941" d="M115.2,36.995a.237.237,0,1,0,.307-.136.237.237,0,0,0-.307.136" fill="#221f20"/>
        <path id="Path_2942" data-name="Path 2942" d="M113.631,38.942a.43.43,0,1,0,.607.034.43.43,0,0,0-.607-.034" fill="#221f20"/>
        <path id="Path_2943" data-name="Path 2943" d="M114.793,38.992a.238.238,0,1,0,.335.019.237.237,0,0,0-.335-.019" fill="#221f20"/>
        <path id="Path_2944" data-name="Path 2944" d="M113.949,38.181a.237.237,0,1,0,.317-.108.236.236,0,0,0-.317.108" fill="#221f20"/>
        <path id="Path_2945" data-name="Path 2945" d="M115.26,34.329a.43.43,0,1,0,.354-.495.431.431,0,0,0-.354.495" fill="#221f20"/>
        <path id="Path_2946" data-name="Path 2946" d="M115.924,33.374a.237.237,0,1,0,.195-.273.237.237,0,0,0-.195.273" fill="#221f20"/>
        <path id="Path_2947" data-name="Path 2947" d="M114.787,33.654a.237.237,0,1,0,.079-.326.237.237,0,0,0-.079.326" fill="#221f20"/>
        <path id="Path_2948" data-name="Path 2948" d="M64.594,45.548c5.784-8.1,24.051-5.182,35.048-4a47.775,47.775,0,0,0,11.76,0c4.331-.61,5.2-2.815,5.737-4.468a4.983,4.983,0,0,0-.853-4.326" fill="none" stroke="#221f20" stroke-miterlimit="10" stroke-width="0.334" stroke-dasharray="1.528 1.528"/>
        <path id="Path_2949" data-name="Path 2949" d="M2.733,17.765c2.4,15.275,29,5.47,31.262,24.043" fill="none" stroke="#221f20" stroke-miterlimit="10" stroke-width="0.334" stroke-dasharray="1.528 1.528"/>
        <path id="Path_2950" data-name="Path 2950" d="M5.174,10.527q.344.165.69.327" fill="none" stroke="#221f20" stroke-miterlimit="10" stroke-width="0.334"/>
        <path id="Path_2951" data-name="Path 2951" d="M7.249,11.479C18.4,16.353,31.641,18.268,41.422,16.5,50.631,14.844,62.383,5.522,63.1,4.951c3.128-2.045,4.992-1.323,10.686,2.412l2.362,1.728c1.192.782,10.915,8.418,18.168,14.433,0,0,2.185,1-.3,4.068-.913,1.127-1.547,1.96-1.98,2.554" fill="none" stroke="#221f20" stroke-miterlimit="10" stroke-width="0.334" stroke-dasharray="1.52 1.52"/>
        <path id="Path_2952" data-name="Path 2952" d="M91.594,30.765c-.31.451-.412.638-.412.638s-.248-.1-.706-.284" fill="none" stroke="#221f20" stroke-miterlimit="10" stroke-width="0.334"/>
        <path id="Path_2953" data-name="Path 2953" d="M89.074,30.581c-4.511-1.684-15.45-5.364-24.766-5.324-12.217.053-18.5,8.549-19.615,16.359" fill="none" stroke="#221f20" stroke-miterlimit="10" stroke-width="0.334" stroke-dasharray="1.505 1.505"/>
        <path id="Path_2954" data-name="Path 2954" d="M44.6,42.369q-.039.381-.061.758" fill="none" stroke="#221f20" stroke-miterlimit="10" stroke-width="0.334"/>
        <line id="Line_15" data-name="Line 15" x1="2.776" y1="1.169" transform="translate(88.422 29.925)" fill="none" stroke="#221f20" stroke-miterlimit="10" stroke-width="0.779"/>
        <path id="Path_2955" data-name="Path 2955" d="M83.392,27.237a.43.43,0,1,0,.309.523.429.429,0,0,0-.309-.523" fill="#221f20"/>
        <path id="Path_2956" data-name="Path 2956" d="M84,28.23a.237.237,0,1,0,.171.289A.237.237,0,0,0,84,28.23" fill="#221f20"/>
        <path id="Path_2957" data-name="Path 2957" d="M84.2,27.078a.237.237,0,1,0,.265.2.237.237,0,0,0-.265-.2" fill="#221f20"/>
        <path id="Path_2958" data-name="Path 2958" d="M81.258,26.679a.43.43,0,1,0,.379.475.429.429,0,0,0-.379-.475" fill="#221f20"/>
        <path id="Path_2959" data-name="Path 2959" d="M81.994,27.579a.237.237,0,1,0,.209.262.236.236,0,0,0-.209-.262" fill="#221f20"/>
        <path id="Path_2960" data-name="Path 2960" d="M82.037,26.409a.237.237,0,1,0,.292.165.237.237,0,0,0-.292-.165" fill="#221f20"/>
        <path id="Path_2961" data-name="Path 2961" d="M79.229,25.923a.43.43,0,1,0,.311.523.43.43,0,0,0-.311-.523" fill="#221f20"/>
        <path id="Path_2962" data-name="Path 2962" d="M79.836,26.914a.237.237,0,1,0,.171.288.237.237,0,0,0-.171-.288" fill="#221f20"/>
        <path id="Path_2963" data-name="Path 2963" d="M80.037,25.762a.237.237,0,1,0,.267.2.237.237,0,0,0-.267-.2" fill="#221f20"/>
        <path id="Path_2964" data-name="Path 2964" d="M77.123,25.232a.43.43,0,1,0,.195.576.43.43,0,0,0-.195-.576" fill="#221f20"/>
        <path id="Path_2965" data-name="Path 2965" d="M77.51,26.328a.237.237,0,1,0,.108.318.237.237,0,0,0-.108-.318" fill="#221f20"/>
        <path id="Path_2966" data-name="Path 2966" d="M77.947,25.242a.237.237,0,1,0,.219.254.236.236,0,0,0-.219-.254" fill="#221f20"/>
        <path id="Path_2967" data-name="Path 2967" d="M74.946,24.769a.43.43,0,1,0,.261.549.43.43,0,0,0-.261-.549" fill="#221f20"/>
        <path id="Path_2968" data-name="Path 2968" d="M75.459,25.813a.237.237,0,1,0,.144.3.237.237,0,0,0-.144-.3" fill="#221f20"/>
        <path id="Path_2969" data-name="Path 2969" d="M75.766,24.683a.237.237,0,1,0,.247.227.237.237,0,0,0-.247-.227" fill="#221f20"/>
        <path id="Path_2970" data-name="Path 2970" d="M72.611,24.3a.43.43,0,1,0,.334.508.43.43,0,0,0-.334-.508" fill="#221f20"/>
        <path id="Path_2971" data-name="Path 2971" d="M73.262,25.268a.237.237,0,1,0,.184.281.238.238,0,0,0-.184-.281" fill="#221f20"/>
        <path id="Path_2972" data-name="Path 2972" d="M73.412,24.107a.237.237,0,1,0,.276.191.237.237,0,0,0-.276-.191" fill="#221f20"/>
        <path id="Path_2973" data-name="Path 2973" d="M70.227,23.969a.43.43,0,1,0,.261.549.43.43,0,0,0-.261-.549" fill="#221f20"/>
        <path id="Path_2974" data-name="Path 2974" d="M70.74,25.013a.237.237,0,1,0,.144.3.237.237,0,0,0-.144-.3" fill="#221f20"/>
        <path id="Path_2975" data-name="Path 2975" d="M71.047,23.882a.237.237,0,1,0,.247.227.237.237,0,0,0-.247-.227" fill="#221f20"/>
        <path id="Path_2976" data-name="Path 2976" d="M67.923,23.869a.43.43,0,1,0,.351.5.431.431,0,0,0-.351-.5" fill="#221f20"/>
        <path id="Path_2977" data-name="Path 2977" d="M68.608,24.809a.237.237,0,1,0,.194.274.238.238,0,0,0-.194-.274" fill="#221f20"/>
        <path id="Path_2978" data-name="Path 2978" d="M68.715,23.643a.238.238,0,1,0,.283.181.238.238,0,0,0-.283-.181" fill="#221f20"/>
        <path id="Path_2979" data-name="Path 2979" d="M65.747,23.53a.43.43,0,1,0,.352.5.43.43,0,0,0-.352-.5" fill="#221f20"/>
        <path id="Path_2980" data-name="Path 2980" d="M66.432,24.47a.237.237,0,1,0,.194.274.238.238,0,0,0-.194-.274" fill="#221f20"/>
        <path id="Path_2981" data-name="Path 2981" d="M66.539,23.3a.238.238,0,1,0,.283.181.238.238,0,0,0-.283-.181" fill="#221f20"/>
        <path id="Path_2982" data-name="Path 2982" d="M63.522,23.825a.43.43,0,1,0,.425.436.43.43,0,0,0-.425-.436" fill="#221f20"/>
        <path id="Path_2983" data-name="Path 2983" d="M64.344,24.648a.238.238,0,1,0,.234.24.236.236,0,0,0-.234-.24" fill="#221f20"/>
        <path id="Path_2984" data-name="Path 2984" d="M64.271,23.48a.237.237,0,1,0,.306.135.236.236,0,0,0-.306-.135" fill="#221f20"/>
        <path id="Path_2985" data-name="Path 2985" d="M61.3,23.706a.43.43,0,1,0,.352.5.43.43,0,0,0-.352-.5" fill="#221f20"/>
        <path id="Path_2986" data-name="Path 2986" d="M61.988,24.646a.237.237,0,1,0,.194.274.238.238,0,0,0-.194-.274" fill="#221f20"/>
        <path id="Path_2987" data-name="Path 2987" d="M62.1,23.479a.238.238,0,1,0,.283.181.238.238,0,0,0-.283-.181" fill="#221f20"/>
        <path id="Path_2988" data-name="Path 2988" d="M58.965,24a.43.43,0,1,0,.457.4.43.43,0,0,0-.457-.4" fill="#221f20"/>
        <path id="Path_2989" data-name="Path 2989" d="M59.849,24.758a.238.238,0,1,0,.252.221.237.237,0,0,0-.252-.221" fill="#221f20"/>
        <path id="Path_2990" data-name="Path 2990" d="M59.684,23.6A.237.237,0,1,0,60,23.71a.238.238,0,0,0-.317-.111" fill="#221f20"/>
        <path id="Path_2991" data-name="Path 2991" d="M56.79,24.752a.43.43,0,1,0,.521.314.43.43,0,0,0-.521-.314" fill="#221f20"/>
        <path id="Path_2992" data-name="Path 2992" d="M57.793,25.34a.237.237,0,1,0,.287.173.236.236,0,0,0-.287-.173" fill="#221f20"/>
        <path id="Path_2993" data-name="Path 2993" d="M57.426,24.228a.237.237,0,1,0,.331.053.237.237,0,0,0-.331-.053" fill="#221f20"/>
        <path id="Path_2994" data-name="Path 2994" d="M54.729,25.731a.43.43,0,1,0,.591.146.431.431,0,0,0-.591-.146" fill="#221f20"/>
        <path id="Path_2995" data-name="Path 2995" d="M55.861,26a.237.237,0,1,0,.245.406A.237.237,0,1,0,55.861,26" fill="#221f20"/>
        <path id="Path_2996" data-name="Path 2996" d="M55.182,25.042A.238.238,0,1,0,55.514,25a.236.236,0,0,0-.332.047" fill="#221f20"/>
        <path id="Path_2997" data-name="Path 2997" d="M52.809,26.63a.43.43,0,1,0,.591.146.431.431,0,0,0-.591-.146" fill="#221f20"/>
        <path id="Path_2998" data-name="Path 2998" d="M53.942,26.9a.237.237,0,1,0,.245.406.237.237,0,1,0-.245-.406" fill="#221f20"/>
        <path id="Path_2999" data-name="Path 2999" d="M53.262,25.942a.237.237,0,1,0,.332-.047.236.236,0,0,0-.332.047" fill="#221f20"/>
        <path id="Path_3000" data-name="Path 3000" d="M51.264,27.738a.43.43,0,1,0,.591.146.431.431,0,0,0-.591-.146" fill="#221f20"/>
        <path id="Path_3001" data-name="Path 3001" d="M52.4,28a.238.238,0,1,0,.326.081A.239.239,0,0,0,52.4,28" fill="#221f20"/>
        <path id="Path_3002" data-name="Path 3002" d="M51.717,27.049A.238.238,0,1,0,52.049,27a.236.236,0,0,0-.332.047" fill="#221f20"/>
        <path id="Path_3003" data-name="Path 3003" d="M49.493,28.864a.43.43,0,1,0,.6.061.429.429,0,0,0-.6-.061" fill="#221f20"/>
        <path id="Path_3004" data-name="Path 3004" d="M50.652,28.967a.237.237,0,1,0,.334.034.237.237,0,0,0-.334-.034" fill="#221f20"/>
        <path id="Path_3005" data-name="Path 3005" d="M49.845,28.118a.237.237,0,1,0,.322-.093.238.238,0,0,0-.322.093" fill="#221f20"/>
        <path id="Path_3006" data-name="Path 3006" d="M47.873,30.7a.43.43,0,1,0,.586-.163.431.431,0,0,0-.586.163" fill="#221f20"/>
        <path id="Path_3007" data-name="Path 3007" d="M48.989,30.377a.238.238,0,1,0,.323-.09.237.237,0,0,0-.323.09" fill="#221f20"/>
        <path id="Path_3008" data-name="Path 3008" d="M47.928,29.881a.238.238,0,1,0,.266-.2.238.238,0,0,0-.266.2" fill="#221f20"/>
        <path id="Path_3009" data-name="Path 3009" d="M46.356,32.838a.43.43,0,1,0,.564-.228.43.43,0,0,0-.564.228" fill="#221f20"/>
        <path id="Path_3010" data-name="Path 3010" d="M47.429,32.389a.237.237,0,1,0,.311-.126.237.237,0,0,0-.311.126" fill="#221f20"/>
        <path id="Path_3011" data-name="Path 3011" d="M46.32,32.014a.238.238,0,1,0,.242-.233.238.238,0,0,0-.242.233" fill="#221f20"/>
        <path id="Path_3012" data-name="Path 3012" d="M45.028,35.031a.43.43,0,1,0,.564-.228.43.43,0,0,0-.564.228" fill="#221f20"/>
        <path id="Path_3013" data-name="Path 3013" d="M46.1,34.582a.237.237,0,1,0,.311-.126.237.237,0,0,0-.311.126" fill="#221f20"/>
        <path id="Path_3014" data-name="Path 3014" d="M44.992,34.207a.238.238,0,1,0,.242-.233.238.238,0,0,0-.242.233" fill="#221f20"/>
        <path id="Path_3015" data-name="Path 3015" d="M43.963,37.222a.43.43,0,1,0,.513-.327.429.429,0,0,0-.513.327" fill="#221f20"/>
        <path id="Path_3016" data-name="Path 3016" d="M44.936,36.585a.237.237,0,1,0,.283-.18.237.237,0,0,0-.283.18" fill="#221f20"/>
        <path id="Path_3017" data-name="Path 3017" d="M43.777,36.419a.237.237,0,1,0,.195-.273.237.237,0,0,0-.195.273" fill="#221f20"/>
        <path id="Path_3018" data-name="Path 3018" d="M43.281,39.679a.43.43,0,1,0,.513-.327.429.429,0,0,0-.513.327" fill="#221f20"/>
        <path id="Path_3019" data-name="Path 3019" d="M44.254,39.042a.237.237,0,1,0,.283-.18.237.237,0,0,0-.283.18" fill="#221f20"/>
        <path id="Path_3020" data-name="Path 3020" d="M43.1,38.875a.237.237,0,1,0,.195-.273.237.237,0,0,0-.195.273" fill="#221f20"/>
        <path id="Path_3021" data-name="Path 3021" d="M42.733,42.13a.43.43,0,1,0,.513-.327.429.429,0,0,0-.513.327" fill="#221f20"/>
        <path id="Path_3022" data-name="Path 3022" d="M43.706,41.494a.238.238,0,1,0,.283-.18.237.237,0,0,0-.283.18" fill="#221f20"/>
        <path id="Path_3023" data-name="Path 3023" d="M42.547,41.327a.237.237,0,1,0,.195-.273.237.237,0,0,0-.195.273" fill="#221f20"/>
        <path id="Path_3024" data-name="Path 3024" d="M90.087,30.839A3.678,3.678,0,0,0,90,30.082" fill="none" stroke="#221f20" stroke-miterlimit="10" stroke-width="0.334"/>
        <path id="Path_3025" data-name="Path 3025" d="M89.5,28.688c-3.347-6.825-20-17.537-24-19.256a22.424,22.424,0,0,0-3.755-1.008" fill="none" stroke="#221f20" stroke-miterlimit="10" stroke-width="0.334" stroke-dasharray="1.488 1.488"/>
        <path id="Path_3026" data-name="Path 3026" d="M61.013,8.267c-.26-.057-.509-.115-.743-.172" fill="none" stroke="#221f20" stroke-miterlimit="10" stroke-width="0.334"/>
        <path id="Path_3027" data-name="Path 3027" d="M66,11.818a.43.43,0,1,0-.081-.6.431.431,0,0,0,.081.6" fill="#221f20"/>
        <path id="Path_3028" data-name="Path 3028" d="M65.828,10.667a.238.238,0,1,0-.045-.333.239.239,0,0,0,.045.333" fill="#221f20"/>
        <path id="Path_3029" data-name="Path 3029" d="M65.191,11.65a.238.238,0,1,0-.166-.292.238.238,0,0,0,.166.292" fill="#221f20"/>
        <path id="Path_3030" data-name="Path 3030" d="M67.622,13.088a.43.43,0,1,0-.081-.6.43.43,0,0,0,.081.6" fill="#221f20"/>
        <path id="Path_3031" data-name="Path 3031" d="M67.452,11.937a.238.238,0,1,0-.045-.333.239.239,0,0,0,.045.333" fill="#221f20"/>
        <path id="Path_3032" data-name="Path 3032" d="M66.815,12.92a.238.238,0,1,0-.166-.292.238.238,0,0,0,.166.292" fill="#221f20"/>
        <path id="Path_3033" data-name="Path 3033" d="M69.364,14a.43.43,0,1,0-.081-.6.43.43,0,0,0,.081.6" fill="#221f20"/>
        <path id="Path_3034" data-name="Path 3034" d="M69.194,12.85a.238.238,0,1,0-.045-.333.239.239,0,0,0,.045.333" fill="#221f20"/>
        <path id="Path_3035" data-name="Path 3035" d="M68.557,13.833a.238.238,0,1,0-.166-.292.238.238,0,0,0,.166.292" fill="#221f20"/>
        <path id="Path_3036" data-name="Path 3036" d="M70.933,14.969a.43.43,0,1,0-.081-.6.429.429,0,0,0,.081.6" fill="#221f20"/>
        <path id="Path_3037" data-name="Path 3037" d="M70.762,13.818a.238.238,0,1,0-.045-.333.239.239,0,0,0,.045.333" fill="#221f20"/>
        <path id="Path_3038" data-name="Path 3038" d="M70.125,14.8a.238.238,0,1,0-.166-.292.238.238,0,0,0,.166.292" fill="#221f20"/>
        <path id="Path_3039" data-name="Path 3039" d="M72.372,16.11a.43.43,0,1,0-.081-.6.43.43,0,0,0,.081.6" fill="#221f20"/>
        <path id="Path_3040" data-name="Path 3040" d="M72.2,14.959a.238.238,0,1,0-.045-.333.239.239,0,0,0,.045.333" fill="#221f20"/>
        <path id="Path_3041" data-name="Path 3041" d="M71.565,15.942a.238.238,0,1,0-.166-.292.238.238,0,0,0,.166.292" fill="#221f20"/>
        <path id="Path_3042" data-name="Path 3042" d="M73.93,16.973a.43.43,0,1,0-.081-.6.43.43,0,0,0,.081.6" fill="#221f20"/>
        <path id="Path_3043" data-name="Path 3043" d="M73.76,15.823a.238.238,0,1,0-.045-.333.239.239,0,0,0,.045.333" fill="#221f20"/>
        <path id="Path_3044" data-name="Path 3044" d="M73.122,16.805a.238.238,0,1,0-.166-.292.238.238,0,0,0,.166.292" fill="#221f20"/>
        <path id="Path_3045" data-name="Path 3045" d="M75.517,18.164a.43.43,0,1,0-.081-.6.431.431,0,0,0,.081.6" fill="#221f20"/>
        <path id="Path_3046" data-name="Path 3046" d="M75.347,17.013a.238.238,0,1,0-.045-.333.239.239,0,0,0,.045.333" fill="#221f20"/>
        <path id="Path_3047" data-name="Path 3047" d="M74.71,18a.238.238,0,1,0-.166-.292A.238.238,0,0,0,74.71,18" fill="#221f20"/>
        <path id="Path_3048" data-name="Path 3048" d="M77.161,19.264a.43.43,0,1,0-.081-.6.431.431,0,0,0,.081.6" fill="#221f20"/>
        <path id="Path_3049" data-name="Path 3049" d="M76.991,18.113a.238.238,0,1,0-.045-.333.239.239,0,0,0,.045.333" fill="#221f20"/>
        <path id="Path_3050" data-name="Path 3050" d="M76.354,19.1a.238.238,0,1,0-.166-.292.238.238,0,0,0,.166.292" fill="#221f20"/>
        <path id="Path_3051" data-name="Path 3051" d="M78.753,20.54a.43.43,0,1,0-.081-.6.431.431,0,0,0,.081.6" fill="#221f20"/>
        <path id="Path_3052" data-name="Path 3052" d="M78.583,19.389a.238.238,0,1,0-.045-.333.239.239,0,0,0,.045.333" fill="#221f20"/>
        <path id="Path_3053" data-name="Path 3053" d="M77.946,20.372a.238.238,0,1,0-.166-.292.238.238,0,0,0,.166.292" fill="#221f20"/>
        <path id="Path_3054" data-name="Path 3054" d="M80.143,21.563a.43.43,0,1,0-.015-.608.43.43,0,0,0,.015.608" fill="#221f20"/>
        <path id="Path_3055" data-name="Path 3055" d="M80.1,20.4a.237.237,0,1,0-.009-.336.237.237,0,0,0,.009.336" fill="#221f20"/>
        <path id="Path_3056" data-name="Path 3056" d="M79.358,21.308A.237.237,0,1,0,79.225,21a.237.237,0,0,0,.133.308" fill="#221f20"/>
        <path id="Path_3057" data-name="Path 3057" d="M81.629,22.783a.43.43,0,1,0,.068-.605.431.431,0,0,0-.068.605" fill="#221f20"/>
        <path id="Path_3058" data-name="Path 3058" d="M81.743,21.626a.237.237,0,1,0,.037-.334.238.238,0,0,0-.037.334" fill="#221f20"/>
        <path id="Path_3059" data-name="Path 3059" d="M80.887,22.424a.238.238,0,1,0-.09-.323.237.237,0,0,0,.09.323" fill="#221f20"/>
        <path id="Path_3060" data-name="Path 3060" d="M64.426,11.248a.43.43,0,1,0-.348-.5.43.43,0,0,0,.348.5" fill="#221f20"/>
        <path id="Path_3061" data-name="Path 3061" d="M63.749,10.3a.237.237,0,1,0-.192-.276.239.239,0,0,0,.192.276" fill="#221f20"/>
        <path id="Path_3062" data-name="Path 3062" d="M63.631,11.467a.238.238,0,1,0-.281-.184.238.238,0,0,0,.281.184" fill="#221f20"/>
        <path id="Path_3063" data-name="Path 3063" d="M62.682,10.521a.43.43,0,1,0-.408-.451.43.43,0,0,0,.408.451" fill="#221f20"/>
        <path id="Path_3064" data-name="Path 3064" d="M61.891,9.669a.237.237,0,1,0-.225-.249.238.238,0,0,0,.225.249" fill="#221f20"/>
        <path id="Path_3065" data-name="Path 3065" d="M61.922,10.84a.238.238,0,1,0-.3-.146.237.237,0,0,0,.3.146" fill="#221f20"/>
        <path id="Path_3066" data-name="Path 3066" d="M83.081,24.321a.43.43,0,1,0-.082-.6.43.43,0,0,0,.082.6" fill="#221f20"/>
        <path id="Path_3067" data-name="Path 3067" d="M82.911,23.17a.238.238,0,1,0-.045-.333.239.239,0,0,0,.045.333" fill="#221f20"/>
        <path id="Path_3068" data-name="Path 3068" d="M82.274,24.153a.238.238,0,1,0-.166-.292.238.238,0,0,0,.166.292" fill="#221f20"/>
        <path id="Path_3069" data-name="Path 3069" d="M84.754,25.555a.43.43,0,1,0-.082-.6.43.43,0,0,0,.082.6" fill="#221f20"/>
        <path id="Path_3070" data-name="Path 3070" d="M84.584,24.405a.238.238,0,1,0-.045-.333.239.239,0,0,0,.045.333" fill="#221f20"/>
        <path id="Path_3071" data-name="Path 3071" d="M83.947,25.387a.238.238,0,1,0-.166-.292.238.238,0,0,0,.166.292" fill="#221f20"/>
        <path id="Path_3072" data-name="Path 3072" d="M86.183,27.009a.43.43,0,1,0-.082-.6.43.43,0,0,0,.082.6" fill="#221f20"/>
        <path id="Path_3073" data-name="Path 3073" d="M86.012,25.859a.238.238,0,1,0-.045-.333.239.239,0,0,0,.045.333" fill="#221f20"/>
        <path id="Path_3074" data-name="Path 3074" d="M85.375,26.841a.238.238,0,1,0-.166-.292.238.238,0,0,0,.166.292" fill="#221f20"/>
        <path id="Path_3075" data-name="Path 3075" d="M87.119,28.616a.43.43,0,1,0,.076-.6.43.43,0,0,0-.076.6" fill="#221f20"/>
        <path id="Path_3076" data-name="Path 3076" d="M87.25,27.46a.237.237,0,1,0,.042-.333.237.237,0,0,0-.042.333" fill="#221f20"/>
        <path id="Path_3077" data-name="Path 3077" d="M86.382,28.247a.237.237,0,1,0-.086-.325.237.237,0,0,0,.086.325" fill="#221f20"/>
        <path id="Path_3078" data-name="Path 3078" d="M87.958,30.179a.43.43,0,1,0,.206-.572.43.43,0,0,0-.206.572" fill="#221f20"/>
        <path id="Path_3079" data-name="Path 3079" d="M88.339,29.08a.238.238,0,1,0,.114-.316.237.237,0,0,0-.114.316" fill="#221f20"/>
        <path id="Path_3080" data-name="Path 3080" d="M87.32,29.657a.237.237,0,1,0-.012-.336.238.238,0,0,0,.012.336" fill="#221f20"/>
        <path id="Path_3081" data-name="Path 3081" d="M60.678,10.159a.43.43,0,1,0-.408-.451.43.43,0,0,0,.408.451" fill="#221f20"/>
        <path id="Path_3082" data-name="Path 3082" d="M59.887,9.307a.237.237,0,1,0-.225-.249.238.238,0,0,0,.225.249" fill="#221f20"/>
        <path id="Path_3083" data-name="Path 3083" d="M59.918,10.478a.238.238,0,1,0-.3-.146.237.237,0,0,0,.3.146" fill="#221f20"/>
        <path id="Path_3084" data-name="Path 3084" d="M57.4,10.024c3.883,1.257,3.785.71,8.427,3.152A92.507,92.507,0,0,1,75.608,19.2a54.324,54.324,0,0,1,8.327,7.129,91.373,91.373,0,0,0-18.2-3.586c-9.1-.682-22.454,4.081-23.909,20.3" fill="none" stroke="#221f20" stroke-miterlimit="10" stroke-width="0.334" stroke-dasharray="1.528 1.528"/>
        <path id="Path_3085" data-name="Path 3085" d="M85.068,27.7a.43.43,0,1,0,.309.523.429.429,0,0,0-.309-.523" fill="#221f20"/>
        <path id="Path_3086" data-name="Path 3086" d="M85.672,28.7a.237.237,0,1,0,.171.289.237.237,0,0,0-.171-.289" fill="#221f20"/>
        <path id="Path_3087" data-name="Path 3087" d="M85.877,27.544a.237.237,0,1,0,.266.2.237.237,0,0,0-.266-.2" fill="#221f20"/>
        <path id="Path_3088" data-name="Path 3088" d="M5.577,9.54l.012.2c12.5,6.023,26.574,7.725,35.877,6.046C49.184,14.4,58.9,7.413,61.99,5.071l-.628-.935q-.753.544-1.57,1.119c-4.371,3.081-10.082,6.724-16.721,8.539-8.684,2.373-18.891.518-26.344-1.235C12.134,11.48,8.69,10.14,6.913,9.634c-.787-.23-1.246-.293-1.336-.094" fill="#c1c1c1"/>
        <path id="Path_3089" data-name="Path 3089" d="M5.577,9.54l.012.2c12.5,6.023,26.574,7.725,35.877,6.046C49.184,14.4,58.9,7.413,61.99,5.071l-.628-.935q-.753.544-1.57,1.119c-4.371,3.081-10.082,6.724-16.721,8.539-8.684,2.373-18.891.518-26.344-1.235C12.134,11.48,8.69,10.14,6.913,9.634,6.126,9.4,5.667,9.341,5.577,9.54Z" fill="none" stroke="#221f20" stroke-miterlimit="10" stroke-width="0.39"/>
        <path id="Path_3090" data-name="Path 3090" d="M61.164,3.844c.1.491,1.145.849,1.145.849l.047.1c.405-.312.627-.491.627-.491,3.109-1.964,5.081-1.605,8.408.362l.323-.5L66.007.229s-5.014,2.766-4.843,3.615" fill="#c1c1c1"/>
        <path id="Path_3091" data-name="Path 3091" d="M61.164,3.844c.1.491,1.145.849,1.145.849l.047.1c.405-.312.627-.491.627-.491,3.109-1.964,5.081-1.605,8.408.362l.323-.5L66.007.229S60.993,2.995,61.164,3.844Z" fill="none" stroke="#221f20" stroke-miterlimit="10" stroke-width="0.39"/>
      </g>
    </g>
  </g>
</svg>
