<svg xmlns="http://www.w3.org/2000/svg" xmlns:xlink="http://www.w3.org/1999/xlink" width="151.755" height="46.315" viewBox="0 0 151.755 46.315">
  <defs>
    <clipPath id="clip-path">
      <rect id="Rectangle_1953" data-name="Rectangle 1953" width="151.755" height="46.315" transform="translate(0 0)" fill="none"/>
    </clipPath>
  </defs>
  <g id="Group_1429" data-name="Group 1429" transform="translate(0 0)">
    <g id="Group_1429-2" data-name="Group 1429" clip-path="url(#clip-path)">
      <path id="Path_3906" data-name="Path 3906" d="M3.031,46.119H38.91l.27-6.956s1.507.132,4.95.523c3.888.441,10.243,1.206,19.682,2.471,10.544,1.417,36.407,4.872,53.294,3.06,14.37-1.546,33.709-4.544,34.225-4.684.46-.125.113-2.253-.059-2.881-.172-.609-1.3-.925-1.3-.925L3.339,34.537Z" fill="#2e160e"/>
      <path id="Path_3907" data-name="Path 3907" d="M3.031,46.119H38.91l.27-6.956s1.507.132,4.95.523c3.888.441,10.243,1.206,19.682,2.471,10.544,1.417,36.407,4.872,53.294,3.06,14.37-1.546,33.709-4.544,34.225-4.684.46-.125.113-2.253-.059-2.881-.172-.609-1.3-.925-1.3-.925L3.339,34.537Z" fill="none" stroke="#221f20" stroke-miterlimit="10" stroke-width="0.39"/>
      <path id="Path_3908" data-name="Path 3908" d="M70.867,1.592c.237-.328.572-.847.817-1.19.548-.764,4.252,2.669,5.613,3.749,2.324,1.845,3.628,2.9,5.544,4.32l10.87,7.5c10.393,7.073,16.333,9.407,24.965,10.511,8.4,1.075,17.395,2.372,24.161,3.433,3.988.626,5.673,1.9,6.522,3.413a5.211,5.211,0,0,1,.612,3.4A197.574,197.574,0,0,1,107.638,42.6c-17.826.465-61.6-6.2-74.079-7.316C22,34.254,3.339,34.536,3.339,34.536c-7.434-10.074,1.063-28,1.192-28.28,11.946,3.85,28.622,8.226,43.52,11.42,7.456,1.6,19.04,5.209,23.283,6.394.211.059.389-.308.2-.425-.486-.306-1.906-1.1-2.391-1.39-3.516-2.136-8.945-5.08-8.009-6.874a64.824,64.824,0,0,1,5.741-8.406c1.174-1.563,2.505-3.335,3.988-5.383" fill="#fff"/>
      <path id="Path_3909" data-name="Path 3909" d="M70.867,1.592c.237-.328.572-.847.817-1.19.548-.764,4.252,2.669,5.613,3.749,2.324,1.845,3.628,2.9,5.544,4.32l10.87,7.5c10.393,7.073,16.333,9.407,24.965,10.511,8.4,1.075,17.395,2.372,24.161,3.433,3.988.626,5.673,1.9,6.522,3.413a5.211,5.211,0,0,1,.612,3.4A197.574,197.574,0,0,1,107.638,42.6c-17.826.465-61.6-6.2-74.079-7.316C22,34.254,3.339,34.536,3.339,34.536c-7.434-10.074,1.063-28,1.192-28.28,11.946,3.85,28.622,8.226,43.52,11.42,7.456,1.6,19.04,5.209,23.283,6.394.211.059.389-.308.2-.425-.486-.306-1.906-1.1-2.391-1.39-3.516-2.136-8.945-5.08-8.009-6.874a64.824,64.824,0,0,1,5.741-8.406C68.053,5.412,69.384,3.64,70.867,1.592Z" fill="none" stroke="#221f20" stroke-miterlimit="10" stroke-width="0.586"/>
      <path id="Path_3910" data-name="Path 3910" d="M71.9,23.327a3.98,3.98,0,0,0-.6-.494" fill="none" stroke="#221f20" stroke-miterlimit="10" stroke-width="0.195"/>
      <path id="Path_3911" data-name="Path 3911" d="M70,21.981c-.531-.33-1.148-.7-1.83-1.117-2.4-1.46-6.938-3.976-6.341-5.122a64.471,64.471,0,0,1,5.673-8.3c.951-1.266,2.59-3.53,3.968-5.436" fill="none" stroke="#221f20" stroke-miterlimit="10" stroke-width="0.195" stroke-dasharray="1.563 1.563"/>
      <path id="Path_3912" data-name="Path 3912" d="M71.934,1.368l.457-.632" fill="none" stroke="#221f20" stroke-miterlimit="10" stroke-width="0.195"/>
      <path id="Path_3913" data-name="Path 3913" d="M4.292,7l.741.237" fill="none" stroke="#221f20" stroke-miterlimit="10" stroke-width="0.195"/>
      <path id="Path_3914" data-name="Path 3914" d="M6.528,7.709c11.759,3.677,27.345,7.727,41.359,10.731,7.774,1.667,17.767,4.638,21.762,5.825" fill="none" stroke="#221f20" stroke-miterlimit="10" stroke-width="0.195" stroke-dasharray="1.573 1.573"/>
      <path id="Path_3915" data-name="Path 3915" d="M70.4,24.489c.323.1.574.17.746.219" fill="none" stroke="#221f20" stroke-miterlimit="10" stroke-width="0.195"/>
      <path id="Path_3916" data-name="Path 3916" d="M38.911,46.119l5.219-6.433c-3.443-.391-4.95-.523-4.95-.523Z" fill="#160602"/>
      <path id="Path_3917" data-name="Path 3917" d="M38.911,46.119l5.219-6.433c-3.443-.391-4.95-.523-4.95-.523Z" fill="none" stroke="#2e160e" stroke-linejoin="round" stroke-width="0.39"/>
      <path id="Path_3918" data-name="Path 3918" d="M137.394,29.086s1.671,5.786-32.319,2.2c-8.551-.9-26.469-5.112-31.251-6.575" fill="none" stroke="#221f20" stroke-linecap="round" stroke-miterlimit="10" stroke-width="0.668"/>
      <path id="Path_3919" data-name="Path 3919" d="M69.727,27.667a.727.727,0,0,0,.338-.495c.114-.453-.052-.641-.052-.641L59.177,23.808a.732.732,0,0,0-.319.5,1.163,1.163,0,0,0,.034.634Z" fill="none" stroke="#221f20" stroke-miterlimit="10" stroke-width="0.39"/>
      <path id="Path_3920" data-name="Path 3920" d="M45.81,21.722a.727.727,0,0,0,.338-.5c.114-.453-.052-.641-.052-.641L35.26,17.863a.732.732,0,0,0-.319.5,1.163,1.163,0,0,0,.034.634Z" fill="none" stroke="#221f20" stroke-miterlimit="10" stroke-width="0.39"/>
      <path id="Path_3921" data-name="Path 3921" d="M24.123,16.46a.727.727,0,0,0,.338-.495c.114-.453-.052-.641-.052-.641L13.573,12.6a.732.732,0,0,0-.319.5,1.163,1.163,0,0,0,.034.634Z" fill="none" stroke="#221f20" stroke-miterlimit="10" stroke-width="0.39"/>
      <path id="Path_3922" data-name="Path 3922" d="M81.755,9.306l-3.384,4.883a.732.732,0,0,0,.357.476,1.165,1.165,0,0,0,.606.191L82.7,9.994" fill="none" stroke="#221f20" stroke-miterlimit="10" stroke-width="0.39"/>
      <path id="Path_3923" data-name="Path 3923" d="M87.173,12.552a3.188,3.188,0,0,1-2.314,1.367L83.645,11.59A2.347,2.347,0,0,0,85.4,10.243Z" fill="none" stroke="#221f20" stroke-miterlimit="10" stroke-width="0.39"/>
      <path id="Path_3924" data-name="Path 3924" d="M87.085,12.767l7.193,6.822-.606.465L86.631,13.1" fill="none" stroke="#221f20" stroke-miterlimit="10" stroke-width="0.39"/>
      <path id="Path_3925" data-name="Path 3925" d="M86.811,13.282l6.384,7.139-.852.654L86.393,13.3" fill="none" stroke="#221f20" stroke-miterlimit="10" stroke-width="0.39"/>
      <path id="Path_3926" data-name="Path 3926" d="M87.022,14.145l4.809,7.118L90.876,22l-5.083-8.237" fill="none" stroke="#221f20" stroke-miterlimit="10" stroke-width="0.39"/>
      <path id="Path_3927" data-name="Path 3927" d="M85.193,13.879,89.71,22.4l1.038-.305" fill="none" stroke="#221f20" stroke-miterlimit="10" stroke-width="0.39"/>
      <path id="Path_3928" data-name="Path 3928" d="M88.158,19.472l.929,2.972-.881.454-3.346-8.979" fill="none" stroke="#221f20" stroke-miterlimit="10" stroke-width="0.39"/>
      <path id="Path_3929" data-name="Path 3929" d="M85.116,10.461s-5.91-5.028-4.944,1.129c0,0,0-.867.365-1.082s.166-3.123,3.6.706" fill="none" stroke="#221f20" stroke-miterlimit="10" stroke-width="0.39"/>
      <path id="Path_3930" data-name="Path 3930" d="M85.4,10.243s-.064-.51-.738-.133" fill="none" stroke="#221f20" stroke-miterlimit="10" stroke-width="0.39"/>
      <path id="Path_3931" data-name="Path 3931" d="M83.688,10.858s-.459.458-.043.733" fill="none" stroke="#221f20" stroke-miterlimit="10" stroke-width="0.39"/>
      <path id="Path_3932" data-name="Path 3932" d="M83.471,10.511s-1.25,1.5-2.074,1.368" fill="none" stroke="#221f20" stroke-miterlimit="10" stroke-width="0.39"/>
      <path id="Path_3933" data-name="Path 3933" d="M6.874,7a33.736,33.736,0,0,0-1.7,27.518" fill="none" stroke="#221f20" stroke-linecap="round" stroke-miterlimit="10" stroke-width="0.668"/>
    </g>
  </g>
</svg>
