<svg xmlns="http://www.w3.org/2000/svg" xmlns:xlink="http://www.w3.org/1999/xlink" width="152.525" height="46.546" viewBox="0 0 152.525 46.546">
  <defs>
    <clipPath id="clip-path">
      <rect id="Rectangle_1952" data-name="Rectangle 1952" width="152.525" height="46.546" transform="translate(0 0)" fill="none"/>
    </clipPath>
  </defs>
  <g id="Group_1428" data-name="Group 1428" transform="translate(0 0)">
    <g id="Group_1428-2" data-name="Group 1428" clip-path="url(#clip-path)">
      <path id="Path_3888" data-name="Path 3888" d="M3.051,46.35H39.112l.267-6.992s1.515.134,4.975.53c3.908.439,10.295,1.207,19.783,2.484,10.6,1.42,36.594,4.9,53.563,3.072,14.447-1.55,33.88-4.563,34.4-4.709.463-.125.118-2.263-.059-2.891s-1.306-.934-1.306-.934L3.357,34.709Z" fill="#2e160e"/>
      <path id="Path_3889" data-name="Path 3889" d="M3.051,46.35H39.112l.267-6.992s1.515.134,4.975.53c3.908.439,10.295,1.207,19.783,2.484,10.6,1.42,36.594,4.9,53.563,3.072,14.447-1.55,33.88-4.563,34.4-4.709.463-.125.118-2.263-.059-2.891s-1.306-.934-1.306-.934L3.357,34.709Z" fill="none" stroke="#221f20" stroke-miterlimit="10" stroke-width="0.392"/>
      <path id="Path_3890" data-name="Path 3890" d="M83.279,8.527l-.02-.016c-1.922-1.424-3.233-2.487-5.571-4.339C76.323,3.085,72.6-.364,72.046.405c-.243.342-.581.863-.82,1.193-1.491,2.06-2.829,3.841-4.01,5.411a65.071,65.071,0,0,0-5.768,8.451c-.941,1.8,4.516,4.759,8.048,6.9.49.3,1.914,1.091,2.4,1.4.184.114.008.483-.2.424-4.265-1.189-15.91-4.818-23.4-6.423-14.972-3.213-31.734-7.612-43.74-11.48-.129.282-8.671,18.3-1.2,28.422,0,0,18.754-.283,30.372.757,12.543,1.122,56.538,7.82,74.457,7.353a198.5,198.5,0,0,0,42.546-5.909,5.228,5.228,0,0,0-.616-3.41c-.855-1.518-2.546-2.8-6.556-3.433-6.8-1.063-15.835-2.37-24.283-3.449-8.639-1.106-14.6-3.437-24.965-10.483l-.11-.071v0" fill="#fff"/>
      <path id="Path_3891" data-name="Path 3891" d="M83.279,8.527l-.02-.016c-1.922-1.424-3.233-2.487-5.571-4.339C76.323,3.085,72.6-.364,72.046.405c-.243.342-.581.863-.82,1.193-1.491,2.06-2.829,3.841-4.01,5.411a65.071,65.071,0,0,0-5.768,8.451c-.941,1.8,4.516,4.759,8.048,6.9.49.3,1.914,1.091,2.4,1.4.184.114.008.483-.2.424-4.265-1.189-15.91-4.818-23.4-6.423-14.972-3.213-31.734-7.612-43.74-11.48-.129.282-8.671,18.3-1.2,28.422,0,0,18.754-.283,30.372.757,12.543,1.122,56.538,7.82,74.457,7.353a198.5,198.5,0,0,0,42.546-5.909,5.228,5.228,0,0,0-.616-3.41c-.855-1.518-2.546-2.8-6.556-3.433-6.8-1.063-15.835-2.37-24.283-3.449-8.639-1.106-14.6-3.437-24.965-10.483l-.11-.071v0" fill="none" stroke="#221f20" stroke-miterlimit="10" stroke-width="0.589"/>
      <path id="Path_3892" data-name="Path 3892" d="M72.268,23.444a4.015,4.015,0,0,0-.591-.49" fill="none" stroke="#221f20" stroke-miterlimit="10" stroke-width="0.336"/>
      <path id="Path_3893" data-name="Path 3893" d="M70.365,22.1c-.536-.333-1.159-.709-1.848-1.128-2.416-1.467-6.974-4-6.374-5.148a64.9,64.9,0,0,1,5.7-8.34c.959-1.277,2.612-3.56,4-5.478" fill="none" stroke="#221f20" stroke-miterlimit="10" stroke-width="0.336" stroke-dasharray="1.573 1.573"/>
      <path id="Path_3894" data-name="Path 3894" d="M72.308,1.36l.451-.623" fill="none" stroke="#221f20" stroke-miterlimit="10" stroke-width="0.336"/>
      <path id="Path_3895" data-name="Path 3895" d="M39.112,46.35l5.242-6.462c-3.461-.4-4.975-.53-4.975-.53Z" fill="#160602"/>
      <path id="Path_3896" data-name="Path 3896" d="M39.112,46.35l5.242-6.462c-3.461-.4-4.975-.53-4.975-.53Z" fill="none" stroke="#2e160e" stroke-linejoin="round" stroke-width="0.392"/>
      <path id="Path_3897" data-name="Path 3897" d="M138.09,29.232s1.68,5.815-32.483,2.208c-8.594-.908-15.182-1.774-19.988-3.245" fill="none" stroke="#221f20" stroke-linecap="round" stroke-miterlimit="10" stroke-width="0.672"/>
      <path id="Path_3898" data-name="Path 3898" d="M94.2,16.06l.538-.757-3.606-2.715a1.783,1.783,0,0,1-1.193.635" fill="#fff"/>
      <path id="Path_3899" data-name="Path 3899" d="M94.2,16.06l.538-.757-3.606-2.715a1.783,1.783,0,0,1-1.193.635" fill="none" stroke="#221f20" stroke-linecap="round" stroke-miterlimit="10" stroke-width="0.672"/>
      <path id="Path_3900" data-name="Path 3900" d="M87.116,11.34l.851-1.134-3.821-2.88-.867,1.2" fill="#fff"/>
      <path id="Path_3901" data-name="Path 3901" d="M87.116,11.34l.851-1.134-3.821-2.88-.867,1.2" fill="none" stroke="#221f20" stroke-linecap="round" stroke-miterlimit="10" stroke-width="0.672"/>
      <path id="Path_3902" data-name="Path 3902" d="M87.116,11.34c-1.726,2.3-5.5,7.321-5.85,7.824-.455.651.671.98,1.907.521s4.241-6.43,6.073-6.407a3.606,3.606,0,0,0,.695-.055" fill="none" stroke="#221f20" stroke-linecap="round" stroke-miterlimit="10" stroke-width="0.672"/>
      <path id="Path_3903" data-name="Path 3903" d="M83.279,8.527,70.492,26.246,84.272,30.1,94.2,16.064v0" fill="none" stroke="#221f20" stroke-linecap="round" stroke-miterlimit="10" stroke-width="0.672"/>
      <path id="Path_3904" data-name="Path 3904" d="M6.555,9.482s-4.754,9.7,1.02,25.137" fill="none" stroke="#221f20" stroke-linecap="round" stroke-miterlimit="10" stroke-width="0.672"/>
      <line id="Line_16" data-name="Line 16" x1="67.063" y1="17.588" transform="translate(3.427 8.658)" fill="none" stroke="#221f20" stroke-linecap="round" stroke-miterlimit="10" stroke-width="0.672"/>
      <line id="Line_17" data-name="Line 17" x1="67.063" y1="17.588" transform="translate(3.427 8.658)" fill="#221f20"/>
      <line id="Line_18" data-name="Line 18" x1="67.063" y1="17.588" transform="translate(3.427 8.658)" fill="none" stroke="#221f20" stroke-miterlimit="10" stroke-width="0.196" stroke-dasharray="1.569 1.569"/>
      <line id="Line_19" data-name="Line 19" x1="66.307" y1="17.564" transform="translate(4.589 8.12)" fill="none" stroke="#221f20" stroke-miterlimit="10" stroke-width="0.336" stroke-dasharray="1.538 1.538"/>
      <path id="Path_3905" data-name="Path 3905" d="M5.482,9.482S1.166,23.12,6.921,34.792" fill="none" stroke="#221f20" stroke-miterlimit="10" stroke-width="0.336" stroke-dasharray="1.538 1.538"/>
      <line id="Line_20" data-name="Line 20" x2="2.825" y2="1.883" transform="translate(87.116 11.34)" fill="none" stroke="#221f20" stroke-miterlimit="10" stroke-width="0.589"/>
    </g>
  </g>
</svg>
