<svg xmlns="http://www.w3.org/2000/svg" xmlns:xlink="http://www.w3.org/1999/xlink" width="151.714" height="52.929" viewBox="0 0 151.714 52.929">
  <defs>
    <clipPath id="clip-path">
      <rect id="Rectangle_1940" data-name="Rectangle 1940" width="151.714" height="52.929" transform="translate(0 0)" fill="none"/>
    </clipPath>
  </defs>
  <g id="Group_1406" data-name="Group 1406" transform="translate(0 0)">
    <g id="Group_1406-2" data-name="Group 1406" clip-path="url(#clip-path)">
      <path id="Path_2686" data-name="Path 2686" d="M2.742,52.734H38.678l.27-6.968s1.509.133,4.958.528c3.9.438,10.261,1.2,19.716,2.475,10.562,1.415,36.472,4.88,53.384,3.062,14.4-1.545,33.765-4.548,34.282-4.693.461-.125.117-2.256-.059-2.882s-1.3-.93-1.3-.93L3.047,41.132Z" fill="#2e160e"/>
      <path id="Path_2687" data-name="Path 2687" d="M2.742,52.734H38.678l.27-6.968s1.509.133,4.958.528c3.9.438,10.261,1.2,19.716,2.475,10.562,1.415,36.472,4.88,53.384,3.062,14.4-1.545,33.765-4.548,34.282-4.693.461-.125.117-2.256-.059-2.882s-1.3-.93-1.3-.93L3.047,41.132Z" fill="none" stroke="#221f20" stroke-miterlimit="10" stroke-width="0.391"/>
      <path id="Path_2688" data-name="Path 2688" d="M3.047,41.132s18.691-.282,30.27.755c12.5,1.118,56.348,7.793,74.206,7.328a197.849,197.849,0,0,0,42.4-5.889,5.244,5.244,0,0,0-.614-3.4c-.853-1.514-2.538-2.792-6.534-3.422-6.777-1.06-15.782-2.362-24.2-3.437-8.912-1.142-13.381-1.478-23.185-10.23-7.046-5.853-18.812-15-20.11-15.848C73.765,6,72.494,5.161,71.38,4.52c-3.179-1.83-5.13-2.12-8.169-.2,0,0-.187.153-.539.426a.977.977,0,0,0-.086.063L60.4,5c-4.434,3.147-10.308,6.972-17.17,8.849-8.721,2.381-18.962.52-26.446-1.24C12.3,11.55,8.9,10.248,7.082,9.713L5.726,9.83l-.165.015v0c-.641,1.4-9.693,21.535-2.514,31.283" fill="#fff"/>
      <path id="Path_2689" data-name="Path 2689" d="M3.047,41.132s18.691-.282,30.27.755c12.5,1.118,56.348,7.793,74.206,7.328a197.849,197.849,0,0,0,42.4-5.889,5.244,5.244,0,0,0-.614-3.4c-.853-1.514-2.538-2.792-6.534-3.422-6.777-1.06-15.782-2.362-24.2-3.437-8.912-1.142-13.381-1.478-23.185-10.23-7.046-5.853-18.812-15-20.11-15.848C73.765,6,72.494,5.161,71.38,4.52c-3.179-1.83-5.13-2.12-8.169-.2,0,0-.187.153-.539.426a.977.977,0,0,0-.086.063L60.4,5c-4.434,3.147-10.308,6.972-17.17,8.849-8.721,2.381-18.962.52-26.446-1.24C12.3,11.55,8.9,10.248,7.082,9.713L5.726,9.83l-.165.015v0C4.92,11.245-4.132,31.384,3.047,41.132Z" fill="none" stroke="#221f20" stroke-miterlimit="10" stroke-width="0.587"/>
      <path id="Path_2690" data-name="Path 2690" d="M39.185,42.521c.774-5.7,5.173-10.123,10.158-13.028,2.621-1.527,10.962-3.817,16.752-3.37a83.355,83.355,0,0,1,12.452,2.014,96.892,96.892,0,0,1,12.568,4.627,69.169,69.169,0,0,0,4.741-5.913c.611-.853,1.715-2.241-1.145-4.577" fill="none" stroke="#221f20" stroke-linecap="round" stroke-miterlimit="10" stroke-width="0.669"/>
      <path id="Path_2691" data-name="Path 2691" d="M90.544,23.848a.57.57,0,1,0,.57-.57A.57.57,0,0,0,90.544,23.848Z" fill="none" stroke="#221f20" stroke-miterlimit="10" stroke-width="0.391"/>
      <path id="Path_2692" data-name="Path 2692" d="M85.345,19.7a.57.57,0,1,0,.57-.57A.57.57,0,0,0,85.345,19.7Z" fill="none" stroke="#221f20" stroke-miterlimit="10" stroke-width="0.391"/>
      <path id="Path_2693" data-name="Path 2693" d="M80.121,15.418a.57.57,0,1,0,.57-.57A.57.57,0,0,0,80.121,15.418Z" fill="none" stroke="#221f20" stroke-miterlimit="10" stroke-width="0.391"/>
      <path id="Path_2694" data-name="Path 2694" d="M74.835,11.938a.57.57,0,1,0,.57-.57A.57.57,0,0,0,74.835,11.938Z" fill="none" stroke="#221f20" stroke-miterlimit="10" stroke-width="0.391"/>
      <path id="Path_2695" data-name="Path 2695" d="M69,8.331a.571.571,0,1,0,.57-.57A.57.57,0,0,0,69,8.331Z" fill="none" stroke="#221f20" stroke-miterlimit="10" stroke-width="0.391"/>
      <path id="Path_2696" data-name="Path 2696" d="M93.856,21.571s.916-2.05-.868.142c-.868,1.066-1.874,2.134-1.874,2.134" fill="none" stroke="#221f20" stroke-miterlimit="10" stroke-width="1.173"/>
      <path id="Path_2697" data-name="Path 2697" d="M88.571,17.3s.629-1.884-.676-.3c-.875,1.06-1.874,2.595-1.874,2.595" fill="none" stroke="#221f20" stroke-miterlimit="10" stroke-width="1.173"/>
      <path id="Path_2698" data-name="Path 2698" d="M83.433,13.142s.916-2.05-.868.142c-.868,1.066-1.874,2.134-1.874,2.134" fill="none" stroke="#221f20" stroke-miterlimit="10" stroke-width="1.173"/>
      <path id="Path_2699" data-name="Path 2699" d="M78.312,9.334s.916-2.05-.868.142c-.868,1.066-2.039,2.462-2.039,2.462" fill="none" stroke="#221f20" stroke-miterlimit="10" stroke-width="1.173"/>
      <path id="Path_2700" data-name="Path 2700" d="M72.8,4.721s1.214-1.9-1.182.513a12.675,12.675,0,0,0-1.873,2.973" fill="none" stroke="#221f20" stroke-miterlimit="10" stroke-width="1.173"/>
      <path id="Path_2701" data-name="Path 2701" d="M84.4,14c-.147-.059-12.023-9.8-14.063-11.162-.062-.041-.855-.586-1.006-.524" fill="none" stroke="#221f20" stroke-miterlimit="10" stroke-width="0.196"/>
      <path id="Path_2702" data-name="Path 2702" d="M38.678,52.734l5.228-6.44c-3.449-.4-4.958-.528-4.958-.528Z" fill="#160602"/>
      <path id="Path_2703" data-name="Path 2703" d="M38.678,52.734l5.228-6.44c-3.449-.4-4.958-.528-4.958-.528Z" fill="none" stroke="#2e160e" stroke-linejoin="round" stroke-width="0.391"/>
      <path id="Path_2704" data-name="Path 2704" d="M5.406,10.5c.23.111.461.22.693.329" fill="none" stroke="#221f20" stroke-miterlimit="10" stroke-width="0.335"/>
      <path id="Path_2705" data-name="Path 2705" d="M7.5,11.464c11.191,4.888,24.474,6.809,34.288,5.039,9.243-1.666,21.038-11.023,21.754-11.6,3.139-2.051,5.01-1.327,10.726,2.421l2.37,1.735c1.2.785,10.956,8.449,18.236,14.487,0,0,2.192,1-.3,4.082-1.129,1.394-2.053,2.441-2.7,3.147" fill="none" stroke="#221f20" stroke-miterlimit="10" stroke-width="0.335" stroke-dasharray="1.538 1.538"/>
      <path id="Path_2706" data-name="Path 2706" d="M91.344,31.338c-.348.364-.536.545-.536.545s-.238-.123-.684-.336" fill="none" stroke="#221f20" stroke-miterlimit="10" stroke-width="0.335"/>
      <path id="Path_2707" data-name="Path 2707" d="M88.736,30.909c-4.14-1.835-13.9-5.622-23.978-5.622-12.7,0-22.957,5.342-26.09,15.637" fill="none" stroke="#221f20" stroke-miterlimit="10" stroke-width="0.335" stroke-dasharray="1.533 1.533"/>
      <path id="Path_2708" data-name="Path 2708" d="M38.457,41.665c-.067.247-.128.5-.186.749" fill="none" stroke="#221f20" stroke-miterlimit="10" stroke-width="0.335"/>
      <line id="Line_14" data-name="Line 14" x1="2.539" y1="1.224" transform="translate(88.429 30.532)" fill="none" stroke="#221f20" stroke-miterlimit="10" stroke-width="0.782"/>
      <path id="Path_2709" data-name="Path 2709" d="M90.719,30.095c-.128-.208-.268-.422-.418-.639" fill="none" stroke="#221f20" stroke-miterlimit="10" stroke-width="0.335"/>
      <path id="Path_2710" data-name="Path 2710" d="M89.37,28.221C83.66,21.174,69.019,10.775,63.356,7.654" fill="none" stroke="#221f20" stroke-miterlimit="10" stroke-width="0.335" stroke-dasharray="1.548 1.548"/>
      <path id="Path_2711" data-name="Path 2711" d="M62.67,7.289c-.258-.132-.489-.241-.689-.327" fill="none" stroke="#221f20" stroke-miterlimit="10" stroke-width="0.335"/>
      <path id="Path_2712" data-name="Path 2712" d="M5.562,9.845c.023-.051.035-.074.035-.074.043.019.086.043.129.058,12.517,6.007,26.579,7.7,35.889,6.018C49.706,14.389,59.978,6.811,62.586,4.8l-1-.653c-.383.273-.778.559-1.185.844-4.434,3.148-10.307,6.972-17.17,8.849-8.72,2.382-18.961.52-26.445-1.239C12.3,11.55,8.9,10.248,7.083,9.712,6.2,9.446,5.691,9.364,5.6,9.575Z" fill="#c1c1c1"/>
      <path id="Path_2713" data-name="Path 2713" d="M5.562,9.845c.023-.051.035-.074.035-.074.043.019.086.043.129.058,12.517,6.007,26.579,7.7,35.889,6.018C49.706,14.389,59.978,6.811,62.586,4.8l-1-.653c-.383.273-.778.559-1.185.844-4.434,3.148-10.307,6.972-17.17,8.849-8.72,2.382-18.961.52-26.445-1.239C12.3,11.55,8.9,10.248,7.083,9.712,6.2,9.446,5.691,9.364,5.6,9.575Z" fill="none" stroke="#221f20" stroke-miterlimit="10" stroke-width="0.391"/>
      <path id="Path_2714" data-name="Path 2714" d="M61.389,3.855c.1.5,1.146.856,1.146.856l.137.032c.352-.274.539-.427.539-.427C66.25,2.4,68.2,2.69,71.38,4.52l.6-.337L66.25.23s-5.033,2.776-4.861,3.625" fill="#c1c1c1"/>
      <path id="Path_2715" data-name="Path 2715" d="M61.389,3.855c.1.5,1.146.856,1.146.856l.137.032c.352-.274.539-.427.539-.427C66.25,2.4,68.2,2.69,71.38,4.52l.6-.337L66.25.23S61.217,3.006,61.389,3.855Z" fill="none" stroke="#221f20" stroke-miterlimit="10" stroke-width="0.391"/>
      <path id="Path_2716" data-name="Path 2716" d="M118.258,33.056c.79.627,3.032,2.957,2.576,4.369-.287.89-1.666,2-6.6,2.23a89.473,89.473,0,0,1-12.241-.789c-12.782-1.351-28.69-3.031-34.332,7.243" fill="none" stroke="#221f20" stroke-linecap="round" stroke-miterlimit="10" stroke-width="0.669"/>
      <path id="Path_2717" data-name="Path 2717" d="M68.579,46.078c4.888-9.109,20.777-7.761,33.331-6.435a90.068,90.068,0,0,0,12.358.793c4.385-.205,6.776-1.112,7.311-2.772.714-2.216-1.9-4.282-2.038-4.388" fill="none" stroke="#221f20" stroke-miterlimit="10" stroke-width="0.335" stroke-dasharray="1.533 1.533"/>
    </g>
  </g>
</svg>
