<svg xmlns="http://www.w3.org/2000/svg" width="27.812" height="39.226" viewBox="0 0 27.812 39.226">
  <g id="Group_1134" data-name="Group 1134" transform="translate(140.031 4423.88)">
    <path id="Path_950" data-name="Path 950" d="M-117.889-4387.824c-1.436-2.154-4.112-2.591-8.25-2.616-3.881-.034-7.07.915-8.5,2.505-1.146,1.265-1.376,4.565-1.565,7.216-.017.316-.043.624-.068.915h.71c.026-.273.043-.564.068-.863.171-2.412.4-5.7,1.376-6.789a5.8,5.8,0,0,1,2.249-1.4,71.847,71.847,0,0,1,1.188,9.054h.71a69.778,69.778,0,0,0-1.223-9.285,15.837,15.837,0,0,1,3.266-.573,2.239,2.239,0,0,0,1.3,1.368c0,.051-.009.094-.009.146a16.706,16.706,0,0,0-2.71.256.522.522,0,0,0-.4.632.522.522,0,0,0,.633.4,16.472,16.472,0,0,1,2.445-.222c-.026.76-.051,1.607-.085,2.487a14.3,14.3,0,0,0-2.445.248.527.527,0,0,0-.4.633.531.531,0,0,0,.633.411,13.434,13.434,0,0,1,2.172-.223c-.017.633-.043,1.257-.068,1.864a8.9,8.9,0,0,0-2.437.539.544.544,0,0,0-.274.71.542.542,0,0,0,.487.316.591.591,0,0,0,.214-.043,7.359,7.359,0,0,1,1.966-.453c-.009.273-.017.539-.026.787h.71c.009-.265.017-.547.034-.83h.2c-.017.282-.026.556-.043.83h.71c.017-.256.026-.521.043-.8a4,4,0,0,1,1.547.436.534.534,0,0,0,.727-.205.534.534,0,0,0-.205-.727,5.311,5.311,0,0,0-2.018-.564c.034-.6.068-1.223.1-1.864a9.9,9.9,0,0,1,1.907.248.4.4,0,0,0,.137.017.539.539,0,0,0,.522-.394.537.537,0,0,0-.385-.649,10.1,10.1,0,0,0-2.129-.282c.051-.821.094-1.659.137-2.5a10.63,10.63,0,0,1,2.146.256.882.882,0,0,0,.137.017.529.529,0,0,0,.513-.4.531.531,0,0,0-.376-.649,11.641,11.641,0,0,0-2.36-.282c0-.06.009-.12.009-.18a2.329,2.329,0,0,0,1.231-1.316,9.621,9.621,0,0,1,3.5.8,53.824,53.824,0,0,0-2.471,9.028h.727a51.711,51.711,0,0,1,2.368-8.669,4.038,4.038,0,0,1,1.043,1.043c1.086,1.633,1.522,5.8,1.607,7.626h.71C-116.247-4381.788-116.709-4386.054-117.889-4387.824Zm-8.054,6.13h-.205c.017-.607.043-1.223.068-1.847h.239Q-125.891-4382.591-125.942-4381.694Zm.154-2.916h-.256c.034-.88.06-1.718.085-2.487h.308C-125.694-4386.259-125.737-4385.43-125.788-4384.609Zm.009-4.223a1.566,1.566,0,0,1-1.4-.872c.342-.017.684-.025,1.043-.025.616,0,1.188.025,1.744.051A1.577,1.577,0,0,1-125.78-4388.833Z" transform="translate(-0.546 -4.85)" fill="#fff"/>
    <path id="Path_951" data-name="Path 951" d="M-113.672-4384.655h-1.736c.47-1.633,2.377-8.883,1.043-15.543-.12-.59-.239-1.249-.376-1.949-1.342-7.011-3.847-20.066-9.678-20.066h-.026c-5.044.034-8.165,9.123-10.439,15.757l-.462,1.325c-2.65,7.652-3.531,14.175-2.753,20.476h-1.676c-.761-6.5.154-13.2,2.856-21.023l.453-1.317c2.573-7.506,5.779-16.843,12.012-16.885h.034c7.216,0,9.781,13.405,11.32,21.425.128.692.256,1.342.376,1.932C-111.406-4393.939-113.014-4387.031-113.672-4384.655Z" fill="#fff"/>
  </g>
</svg>
