<svg xmlns="http://www.w3.org/2000/svg" width="25.451" height="28" viewBox="0 0 25.451 28">
  <path id="Path_883" data-name="Path 883" d="M790.594,487.786h-3.809v-2.54h0a2.55,2.55,0,0,0-2.55-2.55H776.6a2.55,2.55,0,0,0-2.55,2.55v2.54h-3.812a2.55,2.55,0,0,0-2.55,2.55h0v16.543a3.818,3.818,0,0,0,3.818,3.818h17.815a3.817,3.817,0,0,0,3.818-3.815V490.336A2.55,2.55,0,0,0,790.594,487.786Zm-13.994-2.54h7.63v2.54H776.6Zm13.994,21.627a1.273,1.273,0,0,1-1.272,1.272H771.507a1.274,1.274,0,0,1-1.272-1.272V490.336H775.3l.027,0,.027,0h15.242Z" transform="translate(-767.689 -482.696)"/>
</svg>
