<svg xmlns="http://www.w3.org/2000/svg" width="18.964" height="20.861" viewBox="0 0 18.964 20.861">
  <g id="Group_900" data-name="Group 900" transform="translate(7949.002 8237.816)">
    <path id="Path_788" data-name="Path 788" d="M1314.534,172.689a.949.949,0,0,1-.948-.948V168.9H1307.9v2.845a.948.948,0,0,1-1.9,0V168.9a1.9,1.9,0,0,1,1.9-1.9h5.689a1.9,1.9,0,0,1,1.9,1.9v2.845A.949.949,0,0,1,1314.534,172.689Z" transform="translate(-9250.262 -8404.816)"/>
    <path id="Path_789" data-name="Path 789" d="M1318.068,171H1302.9a1.9,1.9,0,0,0-1.9,1.9v12.327a2.845,2.845,0,0,0,2.845,2.845h13.275a2.844,2.844,0,0,0,2.845-2.845V172.9A1.9,1.9,0,0,0,1318.068,171Zm0,14.223a.949.949,0,0,1-.948.948h-13.275a.949.949,0,0,1-.948-.948V172.9h15.171Z" transform="translate(-9250.002 -8405.023)"/>
  </g>
</svg>
