<svg xmlns="http://www.w3.org/2000/svg" width="28.243" height="28" viewBox="0 0 28.243 28">
  <g id="Group_910" data-name="Group 910" transform="translate(-90.892 -240.684)">
    <path id="Path_884" data-name="Path 884" d="M146.548,270.955l-1.907,1.653,3.737,4.311h-14.1v2.524h14.1l-3.737,4.311,1.907,1.653,6.263-7.226Z" transform="translate(-33.676 -23.497)"/>
    <path id="Path_885" data-name="Path 885" d="M106.252,265.884H93.692v-22.4h12.56v5.688h2.8v-6.907a1.565,1.565,0,0,0-1.546-1.58H92.438a1.565,1.565,0,0,0-1.546,1.58V267.1a1.565,1.565,0,0,0,1.546,1.58h15.067a1.565,1.565,0,0,0,1.546-1.58V260.2h-2.8Z"/>
  </g>
</svg>
