<svg xmlns="http://www.w3.org/2000/svg" width="24.695" height="30.172" viewBox="0 0 24.695 30.172">
  <g id="Group_909" data-name="Group 909" transform="translate(-326.996 -283.537)">
    <path id="Path_881" data-name="Path 881" d="M352.506,288.3v15.139h2.71V288.3l4.628,4.011,1.775-2.048-7.758-6.723L346.1,290.26l1.775,2.048Z" transform="translate(-14.517)"/>
    <path id="Path_882" data-name="Path 882" d="M350.18,329.216h-6.027v2.71h4.829v13.78H329.706v-13.78h4.829v-2.71h-6.026A1.513,1.513,0,0,0,327,330.728V346.9a1.513,1.513,0,0,0,1.512,1.512H350.18a1.513,1.513,0,0,0,1.512-1.512V330.728A1.513,1.513,0,0,0,350.18,329.216Z" transform="translate(0 -34.707)"/>
  </g>
</svg>
