<svg xmlns="http://www.w3.org/2000/svg" width="47.853" height="47.852" viewBox="0 0 47.853 47.852">
  <path id="Path_930" data-name="Path 930" d="M5571.053,5444.312c6.379,0,7.177,0,9.57.2,6.58.2,9.57,3.39,9.77,9.771.2,2.59.2,3.188.2,9.57s0,7.177-.2,9.57c-.2,6.38-3.389,9.571-9.77,9.77-2.592.2-3.191.2-9.57.2s-7.178,0-9.57-.2c-6.581-.2-9.571-3.39-9.771-9.77-.2-2.592-.2-3.189-.2-9.57s0-7.178.2-9.57c.2-6.381,3.391-9.571,9.771-9.771C5563.875,5444.312,5564.673,5444.312,5571.053,5444.312Zm0-4.386c-6.58,0-7.377,0-9.771.2-8.771.4-13.558,5.185-13.957,13.957-.2,2.393-.2,3.192-.2,9.771s0,7.377.2,9.769c.4,8.773,5.186,13.56,13.957,13.958,2.394.2,3.191.2,9.771.2s7.377,0,9.77-.2c8.772-.4,13.559-5.184,13.957-13.958.2-2.392.2-3.189.2-9.769s0-7.378-.2-9.771c-.4-8.772-5.185-13.558-13.957-13.957C5578.43,5439.925,5577.632,5439.925,5571.053,5439.925Zm0,11.563a12.362,12.362,0,1,0,12.362,12.363A12.424,12.424,0,0,0,5571.053,5451.489Zm0,20.338a7.976,7.976,0,1,1,7.975-7.975A8,8,0,0,1,5571.053,5471.827Zm12.76-23.528a2.792,2.792,0,1,0,2.791,2.792A2.726,2.726,0,0,0,5583.813,5448.3Z" transform="translate(-5547.127 -5439.925)"/>
</svg>
