<svg xmlns="http://www.w3.org/2000/svg" width="106.342" height="29.954" viewBox="0 0 106.342 29.954">
  <g id="Group_896" data-name="Group 896" transform="translate(-68 -14)">
    <path id="Path_688" data-name="Path 688" d="M1174.931,756.5l-8.823-10.423L1161,740.04v29.943h5.108v-16l5.478,6.469,3.346,3.954,3.346-3.954,5.477-6.469v16h5.108V740.04l-5.108,6.035Z" transform="translate(-1093 -726.031)"/>
    <path id="Path_689" data-name="Path 689" d="M1547.594,745.108V740H1526v29.952h5.108V756.717h11.842v-5.108h-11.842v-6.5Z" transform="translate(-1373.252 -726)"/>
    <path id="Path_690" data-name="Path 690" d="M1309.976,740a14.976,14.976,0,1,0,14.976,14.976A14.993,14.993,0,0,0,1309.976,740Zm0,24.844a9.868,9.868,0,1,1,9.868-9.868A9.879,9.879,0,0,1,1309.976,764.844Z" transform="translate(-1195.888 -726)"/>
    <path id="Path_691" data-name="Path 691" d="M1436.853,750.752A9.763,9.763,0,0,0,1427.1,741H1415.64l2.921,5.108h8.54a4.643,4.643,0,0,1,2.078,8.8,4.592,4.592,0,0,1-2.078.492h-3.255l8.756,15.324h5.614l-6.5-11.379A9.758,9.758,0,0,0,1436.853,750.752Z" transform="translate(-1288.517 -726.766)"/>
  </g>
</svg>
