<svg xmlns="http://www.w3.org/2000/svg" width="30.484" height="17.392" viewBox="0 0 30.484 17.392"><g transform="translate(-1538.133 -951.225)"><path d="M1568.421,960.469c-4.074,5.086-9.32,8.149-15.047,8.149s-10.972-3.062-15.045-8.147a.875.875,0,0,1,0-1.1c8.677-10.855,21.467-10.855,30.094,0a.875.875,0,0,1,0,1.1Zm-15.046-7.06a6.512,6.512,0,1,1-6.512,6.512,6.512,6.512,0,0,1,6.512-6.512Z" transform="translate(0 0)" fill-rule="evenodd"/><path d="M2217.377,1212.826a4.562,4.562,0,0,1,.961.1,1.879,1.879,0,1,0,2.915,2.063,4.551,4.551,0,1,1-3.876-2.165Z" transform="translate(-664.002 -257.456)" fill-rule="evenodd"/></g></svg>