<svg xmlns="http://www.w3.org/2000/svg" width="27.242" height="38.604" viewBox="0 0 27.242 38.604">
  <g id="Group_1133" data-name="Group 1133" transform="translate(294.659 4423.69)">
    <path id="Path_948" data-name="Path 948" d="M-268.6-4385.085h-1.749a48.924,48.924,0,0,0,1.208-13.231c-.22-6.32-3.168-23.683-10.705-23.683-1.521,0-3.05.845-4.529,2.509-5.94,6.667-9.387,23.954-8.441,34.405h-1.7c-.921-10.8,2.687-28.592,8.872-35.529,1.817-2.036,3.768-3.076,5.8-3.076,9.548,0,12.209,19.965,12.4,25.314A51,51,0,0,1-268.6-4385.085Z" transform="translate(0)" fill="#fff"/>
    <path id="Path_949" data-name="Path 949" d="M-272.812-4387.523c-1.419-2.121-4.056-2.552-8.137-2.577-3.827-.025-6.962.9-8.373,2.467-1.124,1.25-1.352,4.5-1.538,7.106-.017.22-.034.439-.051.65h.7c.017-.194.025-.4.042-.6.169-2.374.406-5.618,1.36-6.683a5.75,5.75,0,0,1,2.214-1.385,69.018,69.018,0,0,1,1.149,8.668h.7a68.627,68.627,0,0,0-1.183-8.9,15.072,15.072,0,0,1,3.287-.566,2.17,2.17,0,0,0,1.217,1.284c0,.068-.008.144-.008.211a16.317,16.317,0,0,0-2.67.254.516.516,0,0,0-.4.625.516.516,0,0,0,.625.4,15.039,15.039,0,0,1,2.408-.22c-.025.752-.059,1.58-.084,2.451a14.189,14.189,0,0,0-2.416.245.53.53,0,0,0-.4.625.521.521,0,0,0,.625.4,13.361,13.361,0,0,1,2.146-.22c-.025.625-.042,1.242-.068,1.842a8.615,8.615,0,0,0-2.4.532.522.522,0,0,0-.27.692.512.512,0,0,0,.482.313.474.474,0,0,0,.211-.042,7.132,7.132,0,0,1,1.935-.439c-.008.168-.008.346-.017.515h.693c.017-.177.017-.372.025-.558h.194l-.025.558h.693c.017-.169.025-.347.034-.524a4.1,4.1,0,0,1,1.529.422.517.517,0,0,0,.71-.194.525.525,0,0,0-.194-.718,5.138,5.138,0,0,0-1.994-.549c.034-.6.068-1.217.1-1.842a9.163,9.163,0,0,1,1.884.245.711.711,0,0,0,.135.017.54.54,0,0,0,.507-.389.518.518,0,0,0-.372-.642,10.054,10.054,0,0,0-2.1-.279q.063-1.217.127-2.459a10.627,10.627,0,0,1,2.121.254.668.668,0,0,0,.135.017.537.537,0,0,0,.507-.4.53.53,0,0,0-.38-.642,11.489,11.489,0,0,0-2.324-.279c.008-.084.008-.169.017-.254a2.208,2.208,0,0,0,1.132-1.225,9.813,9.813,0,0,1,3.523.794,50.594,50.594,0,0,0-2.383,8.644h.71a51.18,51.18,0,0,1,2.29-8.28,3.921,3.921,0,0,1,1.022,1.022c1.022,1.538,1.453,5.34,1.572,7.258h.7C-271.232-4381.913-271.7-4385.858-272.812-4387.523Zm-7.934,6.041h-.211c.025-.591.042-1.208.068-1.816h.237C-280.686-4382.682-280.72-4382.073-280.746-4381.482Zm.152-2.873h-.253c.025-.862.059-1.7.085-2.451h.3C-280.509-4385.985-280.551-4385.157-280.594-4384.354Zm.186-3.5h-.321v-.042c.042,0,.093.009.135.009a1.535,1.535,0,0,0,.194-.017A.107.107,0,0,0-280.408-4387.853Zm-.186-.591a1.62,1.62,0,0,1-1.453-.93c.355-.017.718-.034,1.1-.025.642,0,1.234.017,1.791.051A1.6,1.6,0,0,1-280.594-4388.444Z" transform="translate(-0.581 -5.209)" fill="#fff"/>
  </g>
</svg>
