<svg xmlns="http://www.w3.org/2000/svg" width="26.576" height="38" viewBox="0 0 26.576 38">
  <g id="Group_1136" data-name="Group 1136" transform="translate(35.298 4424.486)">
    <path id="Path_952" data-name="Path 952" d="M-13.788-4387.8c-1.39-2.076-3.965-2.5-7.946-2.526-3.744-.008-6.8.883-8.183,2.412-1.1,1.218-1.324,4.39-1.5,6.94-.016.253-.033.5-.049.728h.687c.016-.221.033-.45.049-.679.163-2.313.384-5.485,1.324-6.531a5.589,5.589,0,0,1,2.158-1.349,67.358,67.358,0,0,1,1.136,8.559h.687a69.51,69.51,0,0,0-1.169-8.78,14.409,14.409,0,0,1,3.139-.548,2.2,2.2,0,0,0,1.259,1.316.792.792,0,0,0-.008.139,16.187,16.187,0,0,0-2.608.245.515.515,0,0,0-.392.613.508.508,0,0,0,.613.385,14.8,14.8,0,0,1,2.354-.213c-.025.735-.057,1.545-.09,2.387a14.711,14.711,0,0,0-2.354.246.514.514,0,0,0-.384.613.508.508,0,0,0,.613.384,13.1,13.1,0,0,1,2.093-.212c-.025.613-.049,1.218-.065,1.8a8.233,8.233,0,0,0-2.346.523.513.513,0,0,0-.262.679.509.509,0,0,0,.466.3.562.562,0,0,0,.2-.042,7.117,7.117,0,0,1,1.9-.433c-.008.2-.016.4-.033.6h.687c.016-.2.025-.417.033-.638h.188c-.008.155-.016.318-.025.474l-.008.164h.678l.008-.123c.008-.155.016-.319.025-.483a3.854,3.854,0,0,1,1.5.417.511.511,0,0,0,.695-.2.5.5,0,0,0-.2-.694,4.879,4.879,0,0,0-1.937-.54c.033-.589.065-1.186.1-1.8a9.054,9.054,0,0,1,1.839.237.627.627,0,0,0,.131.016.5.5,0,0,0,.49-.384.509.509,0,0,0-.36-.622,10.48,10.48,0,0,0-2.052-.278c.049-.785.09-1.594.131-2.4a10.338,10.338,0,0,1,2.068.246.748.748,0,0,0,.131.016.523.523,0,0,0,.5-.384.516.516,0,0,0-.368-.621,10.768,10.768,0,0,0-2.273-.278c0-.057.008-.114.008-.171a2.206,2.206,0,0,0,1.185-1.267,9.292,9.292,0,0,1,3.368.769,50.732,50.732,0,0,0-2.346,8.534h.695a49.9,49.9,0,0,1,2.256-8.183,3.887,3.887,0,0,1,1,1.005c1.014,1.528,1.439,5.346,1.537,7.177h.687C-12.235-4382.221-12.693-4386.153-13.788-4387.8Zm-7.758,5.894h-.2c.016-.581.041-1.177.065-1.782a2.241,2.241,0,0,1,.229.008C-21.481-4383.079-21.513-4382.482-21.546-4381.91Zm.155-2.8h-.253c.033-.85.057-1.66.082-2.4h.3C-21.309-4386.308-21.35-4385.5-21.391-4384.714Zm0-4.063a1.518,1.518,0,0,1-1.349-.85c.335-.008.662-.024,1.005-.017.6,0,1.144.017,1.676.049A1.518,1.518,0,0,1-21.391-4388.777Z" transform="translate(-0.699 -6.235)" fill="#fff"/>
    <path id="Path_953" data-name="Path 953" d="M-9.9-4386.486h-1.684a43.277,43.277,0,0,0,.989-14.878c-.719-7.283-4.529-18.687-6.466-20.624-1.136-1.136-5.3-1.062-6.025-.343-3.1,3.106-5.616,10.39-7.455,15.711l-.213.6c-2.526,7.292-3.376,13.529-2.665,19.537h-1.643c-.711-6.2.18-12.613,2.763-20.077l.213-.6c1.995-5.771,4.48-12.957,7.848-16.324,1.373-1.374,6.589-1.406,8.33.343,2.575,2.566,6.27,14.886,6.94,21.621A44.974,44.974,0,0,1-9.9-4386.486Z" fill="#fff"/>
  </g>
</svg>
