<svg xmlns="http://www.w3.org/2000/svg" width="141.226" height="141.227" viewBox="0 0 141.226 141.227">
  <g id="Group_662" data-name="Group 662" transform="translate(-276.354 -399.631)">
    <circle id="Ellipse_80" data-name="Ellipse 80" cx="59.97" cy="59.97" r="59.97" transform="translate(279.354 417.919)" fill="none" stroke="#fff" stroke-miterlimit="10" stroke-width="6"/>
    <path id="Path_591" data-name="Path 591" d="M323.294,409.937a76.275,76.275,0,0,1-15.191,106.6" transform="translate(77.099 22.275)" fill="none" stroke="#4f110c" stroke-miterlimit="10" stroke-width="4"/>
    <path id="Path_592" data-name="Path 592" d="M283.636,415.743a76.47,76.47,0,0,1,57.127-13.022" transform="translate(11.483 0)" fill="none" stroke="#d1c5b2" stroke-miterlimit="10" stroke-width="4"/>
    <path id="Path_593" data-name="Path 593" d="M331.5,439.369l-36.041-23.615a2.429,2.429,0,0,0-3.759,2.032v46.6a2.427,2.427,0,0,0,3.733,2.047l36.041-22.993A2.426,2.426,0,0,0,331.5,439.369Zm-34.528,19.86V422.948L325.1,441.324Z" transform="translate(33.101 36.801)" fill="#fff"/>
  </g>
</svg>
