<svg xmlns="http://www.w3.org/2000/svg" width="50.773" height="51.016" viewBox="0 0 50.773 51.016">
  <g id="whatsapp.46d36d08" transform="translate(50.773) rotate(90)">
    <path id="Path_8" data-name="Path 8" d="M51.016,50.773l-13.1-3.587A25.278,25.278,0,1,1,50.578,25.279h0A25.323,25.323,0,0,1,47.5,37.363ZM42.921,36.75l.454-.768a20.975,20.975,0,0,0,2.931-10.7h0a21.034,21.034,0,1,0-9.846,17.79l.8-.5,7.75,2.121Z" transform="translate(0 0)"/>
    <path id="Path_9" data-name="Path 9" d="M17.689.077c-.267.158-.416.58-.733,1.211S15.112,5.026,14.9,5.6s-.319,1,.316,1.42,2.056,1.633,2.473,2,.479.736.16,1.369a17.236,17.236,0,0,1-3.135,5.08,18.975,18.975,0,0,1-4.371,3.516c-.635.368-.977.04-1.289-.269s-.74-.631-1.107-.948a4.312,4.312,0,0,0-1.058-.631,1.156,1.156,0,0,0-1.1.054c-.319.158-3.428,1.42-4.694,1.947S.021,20.176.021,20.562,0,21.352,0,21.773a2.312,2.312,0,0,0,.791,1.684,7.086,7.086,0,0,0,5.268,2.209,12.266,12.266,0,0,0,6.534-2.581A28.1,28.1,0,0,0,22.134,12.3a35.465,35.465,0,0,0,1.342-3.6,8.635,8.635,0,0,0,.256-3.98,6.511,6.511,0,0,0-3-4.264,5.3,5.3,0,0,0-3.04-.376Z" transform="translate(13.615 12.466)" fillRule="evenodd"/>
  </g>
</svg>
