<svg xmlns="http://www.w3.org/2000/svg" width="20.291" height="18.353" viewBox="0 0 20.291 18.353">
  <path id="Path_879" data-name="Path 879" d="M1288.163,171.633a6.078,6.078,0,0,0-4.413-1.769,5.777,5.777,0,0,0-3.98,1.621,6.053,6.053,0,0,0-8.393.147c-2.58,2.469-2.257,6.725.811,9.913l6.3,6.108a1.792,1.792,0,0,0,2.543.064l.184-.175.562-.525c.553-.525,1.308-1.262,2.294-2.22l2.248-2.2,1-.986C1290.438,178.34,1290.825,174.148,1288.163,171.633Zm-2.165,8.66-.23.221-.737.728-2.248,2.2c-.921.921-1.7,1.649-2.248,2.174l-.765.755-6.292-6.154c-2.359-2.451-2.635-5.528-.811-7.3a4.164,4.164,0,0,1,5.889-.007l.007.007.083.074a1.945,1.945,0,0,1,.295.276l.829.866.829-.866.258-.249.1-.083a4.164,4.164,0,0,1,5.889-.035l.035.035C1288.7,174.691,1288.421,177.778,1286,180.293Z" transform="translate(-1269.643 -169.863)"/>
</svg>
