<svg xmlns="http://www.w3.org/2000/svg" xmlns:xlink="http://www.w3.org/1999/xlink" width="156.39" height="52.962" viewBox="0 0 156.39 52.962">
  <defs>
    <clipPath id="clip-path">
      <rect id="Rectangle_1949" data-name="Rectangle 1949" width="156.39" height="52.962" transform="translate(0 0)" fill="none"/>
    </clipPath>
    <clipPath id="clip-path-2">
      <rect id="Rectangle_1950" data-name="Rectangle 1950" width="54.749" height="38.712" transform="translate(100.712 12.385) rotate(-1.399)" fill="none"/>
    </clipPath>
  </defs>
  <g id="Group_1422" data-name="Group 1422" transform="translate(0 0)">
    <g id="Group_1423" data-name="Group 1423">
      <g id="Group_1422-2" data-name="Group 1422" clip-path="url(#clip-path)">
        <path id="Path_3568" data-name="Path 3568" d="M2.732,52.767h35.8l.268-6.945s1.5.133,4.935.526c3.88.436,10.22,1.2,19.642,2.466,10.516,1.41,36.324,4.86,53.173,3.049,14.337-1.538,33.628-4.529,34.146-4.67.46-.128.113-2.251-.062-2.874s-1.3-.927-1.3-.927L3.036,41.211Z" fill="#2e160e"/>
        <path id="Path_3569" data-name="Path 3569" d="M2.732,52.767h35.8l.268-6.945s1.5.133,4.935.526c3.88.436,10.22,1.2,19.642,2.466,10.516,1.41,36.324,4.86,53.173,3.049,14.337-1.538,33.628-4.529,34.146-4.67.46-.128.113-2.251-.062-2.874s-1.3-.927-1.3-.927L3.036,41.211Z" fill="none" stroke="#221f20" stroke-miterlimit="10" stroke-width="0.389"/>
        <path id="Path_3570" data-name="Path 3570" d="M3.036,41.211s18.617-.284,30.153.748c12.449,1.114,56.125,7.766,73.91,7.3a197.094,197.094,0,0,0,42.235-5.87,5.187,5.187,0,0,0-.612-3.384c-.845-1.508-2.528-2.781-6.5-3.4-6.75-1.059-15.72-2.356-24.109-3.427-8.877-1.134-11.5-.752-21.11-8.475l.7-.483L67.76.845l-.56.432-4.235,3.26s-.191.152-.545.428c-.14.11-.308.238-.5.382-3.144,2.376-12.8,9.293-20.468,10.676C32.153,17.7,18.093,16,5.6,9.982L5.578,9.97S-4.377,31.147,3.036,41.211" fill="#fff"/>
        <path id="Path_3571" data-name="Path 3571" d="M3.036,41.211s18.617-.284,30.153.748c12.449,1.114,56.125,7.766,73.91,7.3a197.094,197.094,0,0,0,42.235-5.87,5.187,5.187,0,0,0-.612-3.384c-.845-1.508-2.528-2.781-6.5-3.4-6.75-1.059-15.72-2.356-24.109-3.427-8.877-1.134-11.5-.752-21.11-8.475l.7-.483L67.76.845l-.56.432-4.235,3.26s-.191.152-.545.428c-.14.11-.308.238-.5.382-3.144,2.376-12.8,9.293-20.468,10.676C32.153,17.7,18.093,16,5.6,9.982L5.578,9.97S-4.377,31.147,3.036,41.211Z" fill="none" stroke="#221f20" stroke-miterlimit="10" stroke-width="0.584"/>
        <path id="Path_3572" data-name="Path 3572" d="M45.533,43.251a17.458,17.458,0,0,1,7.58-13.817,20.133,20.133,0,0,1,12.724-3.175,83.165,83.165,0,0,1,12.4,2.006A66.439,66.439,0,0,1,85.791,30.8" fill="none" stroke="#221f20" stroke-linecap="round" stroke-miterlimit="10" stroke-width="0.667"/>
        <path id="Path_3573" data-name="Path 3573" d="M38.529,52.767l5.2-6.419c-3.431-.393-4.934-.526-4.934-.526Z" fill="#160602"/>
        <path id="Path_3574" data-name="Path 3574" d="M38.529,52.767l5.2-6.419c-3.431-.393-4.934-.526-4.934-.526Z" fill="none" stroke="#2e160e" stroke-linejoin="round" stroke-width="0.389"/>
        <path id="Path_3575" data-name="Path 3575" d="M85.936,30c-.229-.091-.465-.184-.708-.277" fill="none" stroke="#221f20" stroke-miterlimit="10" stroke-width="0.333"/>
        <path id="Path_3576" data-name="Path 3576" d="M83.81,29.19A58.716,58.716,0,0,0,64.5,25.426c-12.434,0-18.517,8.538-19.612,16.351" fill="none" stroke="#221f20" stroke-miterlimit="10" stroke-width="0.333" stroke-dasharray="1.517 1.517"/>
        <path id="Path_3577" data-name="Path 3577" d="M44.8,42.533q-.038.381-.06.758" fill="none" stroke="#221f20" stroke-miterlimit="10" stroke-width="0.333"/>
        <path id="Path_3578" data-name="Path 3578" d="M5.387,10.7c.229.11.459.22.69.327" fill="none" stroke="#221f20" stroke-miterlimit="10" stroke-width="0.333"/>
        <path id="Path_3579" data-name="Path 3579" d="M7.425,11.636c11.157,4.884,24.411,6.805,34.2,5.04a32.118,32.118,0,0,0,8.124-2.88" fill="none" stroke="#221f20" stroke-miterlimit="10" stroke-width="0.333" stroke-dasharray="1.48 1.48"/>
        <path id="Path_3580" data-name="Path 3580" d="M50.413,13.465q.341-.172.679-.35" fill="none" stroke="#221f20" stroke-miterlimit="10" stroke-width="0.333"/>
        <path id="Path_3581" data-name="Path 3581" d="M64.034,3.714c-1.113.964-7.724,5.964-9.527,7.021-1.883,1.1-4.53,4.373-4.642,4.512l-.175.217,1.5,2.349c.726.721,3.876-.681,6.39-1.985.813-.493,7.765-4.714,8.231-5.113a2.37,2.37,0,0,1,1.961.313c.338.214,3.524,2.834,6.9,5.608,3.489,2.868,7.443,6.12,9.559,7.793.3.238.582.457.843.66,2.418,1.882,2.693,2.178,1.83,3.631-.7,1.178-4.012,6.563-4.045,6.617a30.554,30.554,0,0,0-2.092,5.884l-.064.266,2.527,1.661.207-.118A19.864,19.864,0,0,0,89.9,36.277c2.3-3.831,7.01-11.048,7.283-11.426,0,0,1.146-1.725.615.489" fill="none" stroke="#221f20" stroke-linecap="round" stroke-miterlimit="10" stroke-width="0.667"/>
        <path id="Path_3582" data-name="Path 3582" d="M97.185,23.889a4.053,4.053,0,0,0-.458.613" fill="none" stroke="#221f20" stroke-miterlimit="10" stroke-width="0.333"/>
        <path id="Path_3583" data-name="Path 3583" d="M95.858,25.651c-1.681,2.222-4.529,6.739-6.624,10.225a20.68,20.68,0,0,1-4.785,5.49" fill="none" stroke="#221f20" stroke-miterlimit="10" stroke-width="0.333" stroke-dasharray="1.444 1.444"/>
        <path id="Path_3584" data-name="Path 3584" d="M83.877,41.8c-.269.195-.483.338-.626.429l-.638-.419" fill="none" stroke="#221f20" stroke-miterlimit="10" stroke-width="0.333"/>
        <path id="Path_3585" data-name="Path 3585" d="M82.228,41.558l-.638-.419c.045-.174.112-.427.2-.735" fill="none" stroke="#221f20" stroke-miterlimit="10" stroke-width="0.333"/>
        <path id="Path_3586" data-name="Path 3586" d="M82.244,38.917a22.68,22.68,0,0,1,1.292-3.2c.019-.029,3.334-5.419,4.037-6.6,1.247-2.1.29-2.845-2.021-4.643-.259-.2-.539-.42-.839-.657-2.11-1.669-6.061-4.918-9.547-7.784-4.09-3.363-6.614-5.435-6.973-5.663-.761-.485-2.228-.813-2.887-.247-.323.274-5.025,3.156-8.106,5.025-2.206,1.143-4.892,2.248-5.453,2.1l-.27-.425" fill="none" stroke="#221f20" stroke-miterlimit="10" stroke-width="0.333" stroke-dasharray="1.556 1.556"/>
        <path id="Path_3587" data-name="Path 3587" d="M51.058,16.166l-.409-.645c.116-.14.285-.34.493-.579" fill="none" stroke="#221f20" stroke-miterlimit="10" stroke-width="0.333"/>
        <path id="Path_3588" data-name="Path 3588" d="M52.242,13.727a14.23,14.23,0,0,1,2.659-2.32c1.574-.922,9.182-6.629,12.3-9.055" fill="none" stroke="#221f20" stroke-miterlimit="10" stroke-width="0.333" stroke-dasharray="1.635 1.635"/>
        <path id="Path_3589" data-name="Path 3589" d="M67.843,1.849c.274-.217.477-.381.59-.48" fill="none" stroke="#221f20" stroke-miterlimit="10" stroke-width="0.333"/>
        <path id="Path_3590" data-name="Path 3590" d="M63.6,10.3l-2.25-2.991a1.311,1.311,0,0,0-1.82-.331L57.2,8.729a1.31,1.31,0,0,0-.187,1.84l2.25,2.992a1.311,1.311,0,0,0,1.819.33l2.325-1.749A1.311,1.311,0,0,0,63.6,10.3m-5.959-.2a.5.5,0,0,1,.071-.7l2.325-1.749a.5.5,0,0,1,.691.125l2.25,2.991a.5.5,0,0,1-.071.7L60.58,13.218a.5.5,0,0,1-.691-.126Z" fill="#fff"/>
        <path id="Path_3591" data-name="Path 3591" d="M63.6,10.3l-2.25-2.991a1.311,1.311,0,0,0-1.82-.331L57.2,8.729a1.31,1.31,0,0,0-.187,1.84l2.25,2.992a1.311,1.311,0,0,0,1.819.33l2.325-1.749A1.311,1.311,0,0,0,63.6,10.3Zm-5.959-.2a.5.5,0,0,1,.071-.7l2.325-1.749a.5.5,0,0,1,.691.125l2.25,2.991a.5.5,0,0,1-.071.7L60.58,13.218a.5.5,0,0,1-.691-.126Z" fill="none" stroke="#221f20" stroke-miterlimit="10" stroke-width="0.389"/>
        <path id="Path_3592" data-name="Path 3592" d="M61.013,9.7h0a.381.381,0,0,0,.536.071l.883-.675a.382.382,0,0,0-.465-.607l-.883.675a.383.383,0,0,0-.071.536" fill="#fff"/>
        <path id="Path_3593" data-name="Path 3593" d="M61.013,9.7h0a.381.381,0,0,0,.536.071l.883-.675a.382.382,0,0,0-.465-.607l-.883.675A.383.383,0,0,0,61.013,9.7Z" fill="none" stroke="#221f20" stroke-miterlimit="10" stroke-width="0.389"/>
        <path id="Path_3594" data-name="Path 3594" d="M90.621,31.958l-3.206-1.933A1.311,1.311,0,0,0,85.6,30.4l-1.5,2.492a1.311,1.311,0,0,0,.515,1.776L87.822,36.6a1.313,1.313,0,0,0,1.812-.374l1.5-2.492a1.311,1.311,0,0,0-.515-1.776M85.019,34a.5.5,0,0,1-.195-.674l1.5-2.492a.5.5,0,0,1,.687-.142l3.206,1.933a.5.5,0,0,1,.195.674l-1.5,2.492a.5.5,0,0,1-.687.142Z" fill="#fff"/>
        <path id="Path_3595" data-name="Path 3595" d="M90.621,31.958l-3.206-1.933A1.311,1.311,0,0,0,85.6,30.4l-1.5,2.492a1.311,1.311,0,0,0,.515,1.776L87.822,36.6a1.313,1.313,0,0,0,1.812-.374l1.5-2.492A1.311,1.311,0,0,0,90.621,31.958ZM85.019,34a.5.5,0,0,1-.195-.674l1.5-2.492a.5.5,0,0,1,.687-.142l3.206,1.933a.5.5,0,0,1,.195.674l-1.5,2.492a.5.5,0,0,1-.687.142Z" fill="none" stroke="#221f20" stroke-miterlimit="10" stroke-width="0.389"/>
        <path id="Path_3596" data-name="Path 3596" d="M88.27,32.276h0a.382.382,0,0,0,.524-.134l.541-.914a.382.382,0,0,0-.658-.39l-.541.914a.382.382,0,0,0,.134.524" fill="#fff"/>
        <path id="Path_3597" data-name="Path 3597" d="M88.27,32.276h0a.382.382,0,0,0,.524-.134l.541-.914a.382.382,0,0,0-.658-.39l-.541.914A.382.382,0,0,0,88.27,32.276Z" fill="none" stroke="#221f20" stroke-miterlimit="10" stroke-width="0.389"/>
        <path id="Path_3598" data-name="Path 3598" d="M82.07,37.1c-9.158-.231-17.5,1.2-21.35,8.208" fill="none" stroke="#221f20" stroke-linecap="round" stroke-miterlimit="10" stroke-width="0.667"/>
        <path id="Path_3599" data-name="Path 3599" d="M111.119,32.306c.787.625,3.02,2.945,2.566,4.352-.286.886-1.659,1.99-6.576,2.221a89.042,89.042,0,0,1-12.193-.786c-2-.212-3.7-.412-5.805-.592" fill="none" stroke="#221f20" stroke-linecap="round" stroke-miterlimit="10" stroke-width="0.667"/>
        <path id="Path_3600" data-name="Path 3600" d="M36.855,42.385C36.611,29.4,26.025,26.912,16.686,24.718c-1.575-.37-3.063-.719-4.508-1.115-2.789-.763-4.652-2.156-5.537-4.139C5,15.789,7.282,11.1,7.3,11.054" fill="none" stroke="#221f20" stroke-linecap="round" stroke-miterlimit="10" stroke-width="0.667"/>
        <path id="Path_3601" data-name="Path 3601" d="M6.563,10.838c-.1.2-2.425,4.924-.635,8.94.985,2.208,3.019,3.747,6.045,4.576,1.458.4,2.953.75,4.535,1.122,9.506,2.233,19.336,4.541,19.568,16.923" fill="none" stroke="#221f20" stroke-miterlimit="10" stroke-width="0.333" stroke-dasharray="1.527 1.527"/>
        <path id="Path_3602" data-name="Path 3602" d="M18.188,26.883a.43.43,0,1,1-.531.3.43.43,0,0,1,.531-.3" fill="#221f20"/>
        <path id="Path_3603" data-name="Path 3603" d="M17.165,27.436a.238.238,0,1,1-.293.163.237.237,0,0,1,.293-.163" fill="#221f20"/>
        <path id="Path_3604" data-name="Path 3604" d="M17.57,26.338a.237.237,0,1,1-.333.042.237.237,0,0,1,.333-.042" fill="#221f20"/>
        <path id="Path_3605" data-name="Path 3605" d="M20.021,27.25a.43.43,0,1,1-.482.37.43.43,0,0,1,.482-.37" fill="#221f20"/>
        <path id="Path_3606" data-name="Path 3606" d="M19.09,27.946a.238.238,0,1,1-.266.2.237.237,0,0,1,.266-.2" fill="#221f20"/>
        <path id="Path_3607" data-name="Path 3607" d="M19.33,26.8a.237.237,0,1,1-.323.09.237.237,0,0,1,.323-.09" fill="#221f20"/>
        <path id="Path_3608" data-name="Path 3608" d="M21.889,27.788a.43.43,0,1,1-.456.4.43.43,0,0,1,.456-.4" fill="#221f20"/>
        <path id="Path_3609" data-name="Path 3609" d="M21.007,28.546a.237.237,0,1,1-.252.222.237.237,0,0,1,.252-.222" fill="#221f20"/>
        <path id="Path_3610" data-name="Path 3610" d="M21.169,27.386a.237.237,0,1,1-.317.112.239.239,0,0,1,.317-.112" fill="#221f20"/>
        <path id="Path_3611" data-name="Path 3611" d="M23.9,28.381a.43.43,0,1,1-.457.4.43.43,0,0,1,.457-.4" fill="#221f20"/>
        <path id="Path_3612" data-name="Path 3612" d="M23.012,29.137a.238.238,0,1,1-.252.221.237.237,0,0,1,.252-.221" fill="#221f20"/>
        <path id="Path_3613" data-name="Path 3613" d="M23.177,27.978a.237.237,0,1,1-.317.111.238.238,0,0,1,.317-.111" fill="#221f20"/>
        <path id="Path_3614" data-name="Path 3614" d="M25.885,29.372a.43.43,0,1,1-.521.314.43.43,0,0,1,.521-.314" fill="#221f20"/>
        <path id="Path_3615" data-name="Path 3615" d="M24.882,29.96a.237.237,0,1,1-.287.173.236.236,0,0,1,.287-.173" fill="#221f20"/>
        <path id="Path_3616" data-name="Path 3616" d="M25.249,28.848a.238.238,0,1,1-.332.053.239.239,0,0,1,.332-.053" fill="#221f20"/>
        <path id="Path_3617" data-name="Path 3617" d="M27.65,30.361a.43.43,0,1,1-.59.146.43.43,0,0,1,.59-.146" fill="#221f20"/>
        <path id="Path_3618" data-name="Path 3618" d="M26.518,30.626a.237.237,0,1,1-.245.406.237.237,0,1,1,.245-.406" fill="#221f20"/>
        <path id="Path_3619" data-name="Path 3619" d="M27.2,29.672a.237.237,0,1,1-.332-.047.236.236,0,0,1,.332.047" fill="#221f20"/>
        <path id="Path_3620" data-name="Path 3620" d="M29.35,31.531a.43.43,0,1,1-.59.146.43.43,0,0,1,.59-.146" fill="#221f20"/>
        <path id="Path_3621" data-name="Path 3621" d="M28.218,31.8a.237.237,0,1,1-.245.406.237.237,0,1,1,.245-.406" fill="#221f20"/>
        <path id="Path_3622" data-name="Path 3622" d="M28.9,30.842a.237.237,0,1,1-.332-.047.236.236,0,0,1,.332.047" fill="#221f20"/>
        <path id="Path_3623" data-name="Path 3623" d="M30.918,32.569a.43.43,0,1,1-.59.146.43.43,0,0,1,.59-.146" fill="#221f20"/>
        <path id="Path_3624" data-name="Path 3624" d="M29.785,32.834a.237.237,0,1,1-.245.406.237.237,0,1,1,.245-.406" fill="#221f20"/>
        <path id="Path_3625" data-name="Path 3625" d="M30.465,31.88a.237.237,0,1,1-.332-.047.236.236,0,0,1,.332.047" fill="#221f20"/>
        <path id="Path_3626" data-name="Path 3626" d="M32.151,33.908a.43.43,0,1,1-.605.061.429.429,0,0,1,.605-.061" fill="#221f20"/>
        <path id="Path_3627" data-name="Path 3627" d="M30.992,34.011a.237.237,0,1,1-.334.034.237.237,0,0,1,.334-.034" fill="#221f20"/>
        <path id="Path_3628" data-name="Path 3628" d="M31.8,33.162a.237.237,0,1,1-.322-.093.238.238,0,0,1,.322.093" fill="#221f20"/>
        <path id="Path_3629" data-name="Path 3629" d="M33.063,35.617a.43.43,0,1,1-.586-.163.431.431,0,0,1,.586.163" fill="#221f20"/>
        <path id="Path_3630" data-name="Path 3630" d="M31.947,35.291a.237.237,0,1,1-.323-.09.237.237,0,0,1,.323.09" fill="#221f20"/>
        <path id="Path_3631" data-name="Path 3631" d="M33.007,34.795a.238.238,0,1,1-.266-.2.238.238,0,0,1,.266.2" fill="#221f20"/>
        <path id="Path_3632" data-name="Path 3632" d="M34.217,37.362a.43.43,0,1,1-.564-.227.43.43,0,0,1,.564.227" fill="#221f20"/>
        <path id="Path_3633" data-name="Path 3633" d="M33.144,36.913a.237.237,0,1,1-.311-.126.237.237,0,0,1,.311.126" fill="#221f20"/>
        <path id="Path_3634" data-name="Path 3634" d="M34.253,36.538a.238.238,0,1,1-.242-.233.238.238,0,0,1,.242.233" fill="#221f20"/>
        <path id="Path_3635" data-name="Path 3635" d="M34.762,39.365a.43.43,0,1,1-.564-.227.43.43,0,0,1,.564.227" fill="#221f20"/>
        <path id="Path_3636" data-name="Path 3636" d="M33.689,38.917a.237.237,0,1,1-.311-.126.237.237,0,0,1,.311.126" fill="#221f20"/>
        <path id="Path_3637" data-name="Path 3637" d="M34.8,38.542a.238.238,0,1,1-.242-.233.238.238,0,0,1,.242.233" fill="#221f20"/>
        <path id="Path_3638" data-name="Path 3638" d="M35.188,41.473a.43.43,0,1,1-.513-.326.43.43,0,0,1,.513.326" fill="#221f20"/>
        <path id="Path_3639" data-name="Path 3639" d="M34.215,40.836a.237.237,0,1,1-.283-.18.237.237,0,0,1,.283.18" fill="#221f20"/>
        <path id="Path_3640" data-name="Path 3640" d="M35.373,40.67a.237.237,0,1,1-.195-.273.237.237,0,0,1,.195.273" fill="#221f20"/>
        <path id="Path_3641" data-name="Path 3641" d="M16.246,26.292a.43.43,0,1,1-.531.3.43.43,0,0,1,.531-.3" fill="#221f20"/>
        <path id="Path_3642" data-name="Path 3642" d="M15.224,26.845a.238.238,0,1,1-.293.163.237.237,0,0,1,.293-.163" fill="#221f20"/>
        <path id="Path_3643" data-name="Path 3643" d="M15.628,25.746a.237.237,0,1,1-.333.042.237.237,0,0,1,.333-.042" fill="#221f20"/>
        <path id="Path_3644" data-name="Path 3644" d="M14.339,25.989a.43.43,0,1,1-.531.3.43.43,0,0,1,.531-.3" fill="#221f20"/>
        <path id="Path_3645" data-name="Path 3645" d="M13.316,26.542a.238.238,0,1,1-.293.163.237.237,0,0,1,.293-.163" fill="#221f20"/>
        <path id="Path_3646" data-name="Path 3646" d="M13.721,25.443a.237.237,0,1,1-.333.042.237.237,0,0,1,.333-.042" fill="#221f20"/>
        <path id="Path_3647" data-name="Path 3647" d="M12.508,25.506a.43.43,0,1,1-.531.3.43.43,0,0,1,.531-.3" fill="#221f20"/>
        <path id="Path_3648" data-name="Path 3648" d="M11.485,26.059a.238.238,0,1,1-.293.163.237.237,0,0,1,.293-.163" fill="#221f20"/>
        <path id="Path_3649" data-name="Path 3649" d="M11.89,24.961a.237.237,0,1,1-.333.042.237.237,0,0,1,.333-.042" fill="#221f20"/>
        <path id="Path_3650" data-name="Path 3650" d="M10.871,25.032a.43.43,0,1,1-.531.3.43.43,0,0,1,.531-.3" fill="#221f20"/>
        <path id="Path_3651" data-name="Path 3651" d="M9.848,25.585a.238.238,0,1,1-.293.163.237.237,0,0,1,.293-.163" fill="#221f20"/>
        <path id="Path_3652" data-name="Path 3652" d="M10.252,24.486a.237.237,0,1,1-.333.042.237.237,0,0,1,.333-.042" fill="#221f20"/>
        <path id="Path_3653" data-name="Path 3653" d="M9.241,24.848a.43.43,0,1,1-.58.182.429.429,0,0,1,.58-.182" fill="#221f20"/>
        <path id="Path_3654" data-name="Path 3654" d="M8.128,25.182a.238.238,0,1,1-.32.1.238.238,0,0,1,.32-.1" fill="#221f20"/>
        <path id="Path_3655" data-name="Path 3655" d="M8.746,24.189a.237.237,0,1,1-.335-.026.239.239,0,0,1,.335.026" fill="#221f20"/>
        <path id="Path_3656" data-name="Path 3656" d="M7.748,23.572a.43.43,0,1,1-.606.054.43.43,0,0,1,.606-.054" fill="#221f20"/>
        <path id="Path_3657" data-name="Path 3657" d="M6.588,23.661a.237.237,0,1,1-.334.03.237.237,0,0,1,.334-.03" fill="#221f20"/>
        <path id="Path_3658" data-name="Path 3658" d="M7.405,22.823a.238.238,0,1,1-.321-.1.237.237,0,0,1,.321.1" fill="#221f20"/>
        <path id="Path_3659" data-name="Path 3659" d="M6.433,22.387a.43.43,0,1,1-.607-.036.43.43,0,0,1,.607.036" fill="#221f20"/>
        <path id="Path_3660" data-name="Path 3660" d="M5.273,22.3a.237.237,0,1,1-.335-.02.237.237,0,0,1,.335.02" fill="#221f20"/>
        <path id="Path_3661" data-name="Path 3661" d="M6.2,21.595a.237.237,0,1,1-.3-.144.237.237,0,0,1,.3.144" fill="#221f20"/>
        <path id="Path_3662" data-name="Path 3662" d="M5.306,20.754a.431.431,0,1,1-.6-.094.431.431,0,0,1,.6.094" fill="#221f20"/>
        <path id="Path_3663" data-name="Path 3663" d="M4.159,20.56a.237.237,0,1,1-.332-.052.238.238,0,0,1,.332.052" fill="#221f20"/>
        <path id="Path_3664" data-name="Path 3664" d="M5.154,19.943a.237.237,0,1,1-.288-.172.237.237,0,0,1,.288.172" fill="#221f20"/>
        <path id="Path_3665" data-name="Path 3665" d="M4.6,19.206a.43.43,0,1,1-.515-.324.43.43,0,0,1,.515.324" fill="#221f20"/>
        <path id="Path_3666" data-name="Path 3666" d="M3.621,18.575a.237.237,0,1,1-.284-.179.237.237,0,0,1,.284.179" fill="#221f20"/>
        <path id="Path_3667" data-name="Path 3667" d="M4.779,18.4a.237.237,0,1,1-.2-.272.239.239,0,0,1,.2.272" fill="#221f20"/>
        <path id="Path_3668" data-name="Path 3668" d="M4.349,17.283a.43.43,0,1,1-.451-.408.43.43,0,0,1,.451.408" fill="#221f20"/>
        <path id="Path_3669" data-name="Path 3669" d="M3.5,16.493a.238.238,0,1,1-.249-.225.238.238,0,0,1,.249.225" fill="#221f20"/>
        <path id="Path_3670" data-name="Path 3670" d="M4.666,16.522a.238.238,0,1,1-.147-.3.237.237,0,0,1,.147.3" fill="#221f20"/>
        <path id="Path_3671" data-name="Path 3671" d="M80.378,38.423a.43.43,0,1,0,.321.516.429.429,0,0,0-.321-.516" fill="#221f20"/>
        <path id="Path_3672" data-name="Path 3672" d="M81,39.4a.237.237,0,1,0,.177.285A.237.237,0,0,0,81,39.4" fill="#221f20"/>
        <path id="Path_3673" data-name="Path 3673" d="M81.183,38.246a.237.237,0,1,0,.271.2.237.237,0,0,0-.271-.2" fill="#221f20"/>
        <path id="Path_3674" data-name="Path 3674" d="M78.187,38.795a.43.43,0,1,0,.407.452.431.431,0,0,0-.407-.452" fill="#221f20"/>
        <path id="Path_3675" data-name="Path 3675" d="M78.976,39.649a.237.237,0,1,0,.225.249.237.237,0,0,0-.225-.249" fill="#221f20"/>
        <path id="Path_3676" data-name="Path 3676" d="M78.948,38.478a.237.237,0,1,0,.3.147.237.237,0,0,0-.3-.147" fill="#221f20"/>
        <path id="Path_3677" data-name="Path 3677" d="M76.209,38.978a.43.43,0,1,0,.523.311.431.431,0,0,0-.523-.311" fill="#221f20"/>
        <path id="Path_3678" data-name="Path 3678" d="M77.216,39.56a.237.237,0,1,0,.288.172.237.237,0,0,0-.288-.172" fill="#221f20"/>
        <path id="Path_3679" data-name="Path 3679" d="M76.842,38.451a.237.237,0,1,0,.332.051.237.237,0,0,0-.332-.051" fill="#221f20"/>
        <path id="Path_3680" data-name="Path 3680" d="M74.359,39.159a.43.43,0,1,0,.523.311.431.431,0,0,0-.523-.311" fill="#221f20"/>
        <path id="Path_3681" data-name="Path 3681" d="M75.366,39.74a.237.237,0,1,0,.288.172.237.237,0,0,0-.288-.172" fill="#221f20"/>
        <path id="Path_3682" data-name="Path 3682" d="M74.993,38.631a.237.237,0,1,0,.332.051.237.237,0,0,0-.332-.051" fill="#221f20"/>
        <path id="Path_3683" data-name="Path 3683" d="M72.49,39.417a.43.43,0,1,0,.523.311.431.431,0,0,0-.523-.311" fill="#221f20"/>
        <path id="Path_3684" data-name="Path 3684" d="M73.5,40a.237.237,0,1,0,.288.172A.237.237,0,0,0,73.5,40" fill="#221f20"/>
        <path id="Path_3685" data-name="Path 3685" d="M73.123,38.889a.237.237,0,1,0,.332.051.237.237,0,0,0-.332-.051" fill="#221f20"/>
        <path id="Path_3686" data-name="Path 3686" d="M70.72,40.017a.43.43,0,1,0,.561.234.429.429,0,0,0-.561-.234" fill="#221f20"/>
        <path id="Path_3687" data-name="Path 3687" d="M71.8,40.451a.237.237,0,1,0,.31.129.238.238,0,0,0-.31-.129" fill="#221f20"/>
        <path id="Path_3688" data-name="Path 3688" d="M71.272,39.4a.238.238,0,1,0,.336,0,.237.237,0,0,0-.336,0" fill="#221f20"/>
        <path id="Path_3689" data-name="Path 3689" d="M69.088,40.993a.43.43,0,1,0,.608.013.429.429,0,0,0-.608-.013" fill="#221f20"/>
        <path id="Path_3690" data-name="Path 3690" d="M70.251,41a.237.237,0,1,0,.336.007A.237.237,0,0,0,70.251,41" fill="#221f20"/>
        <path id="Path_3691" data-name="Path 3691" d="M69.38,40.222a.237.237,0,1,0,.313-.119.237.237,0,0,0-.313.119" fill="#221f20"/>
        <path id="Path_3692" data-name="Path 3692" d="M67.157,41.542a.43.43,0,1,0,.606-.054.431.431,0,0,0-.606.054" fill="#221f20"/>
        <path id="Path_3693" data-name="Path 3693" d="M68.314,41.423a.237.237,0,1,0,.334-.03.237.237,0,0,0-.334.03" fill="#221f20"/>
        <path id="Path_3694" data-name="Path 3694" d="M67.361,40.743a.237.237,0,1,0,.3-.153.237.237,0,0,0-.3.153" fill="#221f20"/>
        <path id="Path_3695" data-name="Path 3695" d="M65.412,42.376a.43.43,0,1,0,.606-.054.431.431,0,0,0-.606.054" fill="#221f20"/>
        <path id="Path_3696" data-name="Path 3696" d="M66.568,42.258a.237.237,0,1,0,.334-.03.237.237,0,0,0-.334.03" fill="#221f20"/>
        <path id="Path_3697" data-name="Path 3697" d="M65.616,41.577a.237.237,0,1,0,.3-.153.237.237,0,0,0-.3.153" fill="#221f20"/>
        <path id="Path_3698" data-name="Path 3698" d="M63.925,44.111a.43.43,0,1,0,.586-.164.43.43,0,0,0-.586.164" fill="#221f20"/>
        <path id="Path_3699" data-name="Path 3699" d="M65.041,43.784a.238.238,0,1,0,.323-.09.237.237,0,0,0-.323.09" fill="#221f20"/>
        <path id="Path_3700" data-name="Path 3700" d="M63.98,43.288a.237.237,0,1,0,.266-.2.238.238,0,0,0-.266.2" fill="#221f20"/>
        <path id="Path_3701" data-name="Path 3701" d="M88.59,38.945a.43.43,0,1,0,.257.551.431.431,0,0,0-.257-.551" fill="#221f20"/>
        <path id="Path_3702" data-name="Path 3702" d="M88.954,39.992a.237.237,0,1,0,.142.3.237.237,0,0,0-.142-.3" fill="#221f20"/>
        <path id="Path_3703" data-name="Path 3703" d="M89.268,38.865a.237.237,0,1,0,.246.229.239.239,0,0,0-.246-.229" fill="#221f20"/>
        <path id="Path_3704" data-name="Path 3704" d="M94.573,39.625a.43.43,0,1,0,.233.562.431.431,0,0,0-.233-.562" fill="#221f20"/>
        <path id="Path_3705" data-name="Path 3705" d="M95.032,40.693a.237.237,0,1,0,.129.31.237.237,0,0,0-.129-.31" fill="#221f20"/>
        <path id="Path_3706" data-name="Path 3706" d="M95.4,39.581a.238.238,0,1,0,.235.239.237.237,0,0,0-.235-.239" fill="#221f20"/>
        <path id="Path_3707" data-name="Path 3707" d="M92.51,39.275a.43.43,0,1,0,.234.561.43.43,0,0,0-.234-.561" fill="#221f20"/>
        <path id="Path_3708" data-name="Path 3708" d="M92.972,40.342a.237.237,0,1,0,.129.31.238.238,0,0,0-.129-.31" fill="#221f20"/>
        <path id="Path_3709" data-name="Path 3709" d="M93.334,39.229a.238.238,0,1,0,.235.239.238.238,0,0,0-.235-.239" fill="#221f20"/>
        <path id="Path_3710" data-name="Path 3710" d="M90.288,39.29a.43.43,0,1,0,.33.511.43.43,0,0,0-.33-.511" fill="#221f20"/>
        <path id="Path_3711" data-name="Path 3711" d="M90.93,40.259a.237.237,0,1,0,.182.282.237.237,0,0,0-.182-.282" fill="#221f20"/>
        <path id="Path_3712" data-name="Path 3712" d="M91.09,39.1a.237.237,0,1,0,.274.194.238.238,0,0,0-.274-.194" fill="#221f20"/>
        <path id="Path_3713" data-name="Path 3713" d="M100.588,39.958a.43.43,0,1,0,.28.54.43.43,0,0,0-.28-.54" fill="#221f20"/>
        <path id="Path_3714" data-name="Path 3714" d="M101.136,40.984a.237.237,0,1,0,.154.3.237.237,0,0,0-.154-.3" fill="#221f20"/>
        <path id="Path_3715" data-name="Path 3715" d="M101.4,39.844a.237.237,0,1,0,.255.219.238.238,0,0,0-.255-.219" fill="#221f20"/>
        <path id="Path_3716" data-name="Path 3716" d="M98.5,39.784a.43.43,0,1,0,.281.539.429.429,0,0,0-.281-.539" fill="#221f20"/>
        <path id="Path_3717" data-name="Path 3717" d="M99.053,40.809a.238.238,0,1,0,.155.3.238.238,0,0,0-.155-.3" fill="#221f20"/>
        <path id="Path_3718" data-name="Path 3718" d="M99.32,39.669a.237.237,0,1,0,.255.218.235.235,0,0,0-.255-.218" fill="#221f20"/>
        <path id="Path_3719" data-name="Path 3719" d="M96.29,39.987a.43.43,0,1,0,.372.481.429.429,0,0,0-.372-.481" fill="#221f20"/>
        <path id="Path_3720" data-name="Path 3720" d="M97.012,40.9a.237.237,0,1,0,.205.266.238.238,0,0,0-.205-.266" fill="#221f20"/>
        <path id="Path_3721" data-name="Path 3721" d="M97.073,39.73a.237.237,0,1,0,.29.17.238.238,0,0,0-.29-.17" fill="#221f20"/>
        <path id="Path_3722" data-name="Path 3722" d="M106.489,40.292a.43.43,0,1,0,.28.54.431.431,0,0,0-.28-.54" fill="#221f20"/>
        <path id="Path_3723" data-name="Path 3723" d="M107.037,41.317a.238.238,0,1,0,.155.3.237.237,0,0,0-.155-.3" fill="#221f20"/>
        <path id="Path_3724" data-name="Path 3724" d="M107.305,40.178a.237.237,0,1,0,.255.218.236.236,0,0,0-.255-.218" fill="#221f20"/>
        <path id="Path_3725" data-name="Path 3725" d="M104.4,40.12a.43.43,0,1,0,.281.539.43.43,0,0,0-.281-.539" fill="#221f20"/>
        <path id="Path_3726" data-name="Path 3726" d="M104.955,41.144a.237.237,0,1,0,.155.3.238.238,0,0,0-.155-.3" fill="#221f20"/>
        <path id="Path_3727" data-name="Path 3727" d="M105.22,40a.237.237,0,1,0,.255.218A.237.237,0,0,0,105.22,40" fill="#221f20"/>
        <path id="Path_3728" data-name="Path 3728" d="M102.19,40.324a.43.43,0,1,0,.372.481.429.429,0,0,0-.372-.481" fill="#221f20"/>
        <path id="Path_3729" data-name="Path 3729" d="M102.913,41.235a.237.237,0,1,0,.2.266.238.238,0,0,0-.2-.266" fill="#221f20"/>
        <path id="Path_3730" data-name="Path 3730" d="M102.973,40.066a.237.237,0,1,0,.29.17.238.238,0,0,0-.29-.17" fill="#221f20"/>
        <path id="Path_3731" data-name="Path 3731" d="M111.962,40.044a.43.43,0,1,0,.579.185.43.43,0,0,0-.579-.185" fill="#221f20"/>
        <path id="Path_3732" data-name="Path 3732" d="M113.074,40.384a.237.237,0,1,0,.32.1.237.237,0,0,0-.32-.1" fill="#221f20"/>
        <path id="Path_3733" data-name="Path 3733" d="M112.46,39.388a.238.238,0,1,0,.335-.025.238.238,0,0,0-.335.025" fill="#221f20"/>
        <path id="Path_3734" data-name="Path 3734" d="M110.14,40.223a.43.43,0,1,0,.456.4.43.43,0,0,0-.456-.4" fill="#221f20"/>
        <path id="Path_3735" data-name="Path 3735" d="M111.024,40.979a.238.238,0,1,0,.252.221.237.237,0,0,0-.252-.221" fill="#221f20"/>
        <path id="Path_3736" data-name="Path 3736" d="M110.858,39.82a.237.237,0,1,0,.317.111.238.238,0,0,0-.317-.111" fill="#221f20"/>
        <path id="Path_3737" data-name="Path 3737" d="M108.236,40.461a.43.43,0,1,0,.407.452.431.431,0,0,0-.407-.452" fill="#221f20"/>
        <path id="Path_3738" data-name="Path 3738" d="M109.026,41.314a.237.237,0,1,0,.225.249.237.237,0,0,0-.225-.249" fill="#221f20"/>
        <path id="Path_3739" data-name="Path 3739" d="M109,40.144a.237.237,0,1,0,.3.147.237.237,0,0,0-.3-.147" fill="#221f20"/>
        <path id="Path_3740" data-name="Path 3740" d="M115.427,36.638a.43.43,0,1,0,.353-.495.429.429,0,0,0-.353.495" fill="#221f20"/>
        <path id="Path_3741" data-name="Path 3741" d="M116.091,35.683a.237.237,0,1,0,.195-.273.237.237,0,0,0-.195.273" fill="#221f20"/>
        <path id="Path_3742" data-name="Path 3742" d="M114.954,35.962a.237.237,0,1,0,.079-.326.237.237,0,0,0-.079.326" fill="#221f20"/>
        <path id="Path_3743" data-name="Path 3743" d="M114.643,38.014a.43.43,0,1,0,.608-.02.431.431,0,0,0-.608.02" fill="#221f20"/>
        <path id="Path_3744" data-name="Path 3744" d="M115.805,37.961a.237.237,0,1,0,.335-.011.236.236,0,0,0-.335.011" fill="#221f20"/>
        <path id="Path_3745" data-name="Path 3745" d="M114.892,37.228a.237.237,0,1,0,.307-.136.237.237,0,0,0-.307.136" fill="#221f20"/>
        <path id="Path_3746" data-name="Path 3746" d="M113.324,39.175a.43.43,0,1,0,.607.034.43.43,0,0,0-.607-.034" fill="#221f20"/>
        <path id="Path_3747" data-name="Path 3747" d="M114.485,39.225a.237.237,0,1,0,.335.019.237.237,0,0,0-.335-.019" fill="#221f20"/>
        <path id="Path_3748" data-name="Path 3748" d="M113.641,38.414a.237.237,0,1,0,.318-.108.237.237,0,0,0-.318.108" fill="#221f20"/>
        <path id="Path_3749" data-name="Path 3749" d="M114.952,34.563a.43.43,0,1,0,.353-.495.429.429,0,0,0-.353.495" fill="#221f20"/>
        <path id="Path_3750" data-name="Path 3750" d="M115.616,33.609a.237.237,0,1,0,.195-.273.237.237,0,0,0-.195.273" fill="#221f20"/>
        <path id="Path_3751" data-name="Path 3751" d="M114.479,33.888a.237.237,0,1,0,.079-.326.237.237,0,0,0-.079.326" fill="#221f20"/>
        <path id="Path_3752" data-name="Path 3752" d="M88.658,38.128c2.187.183,3.993.382,6.071.6a89.829,89.829,0,0,0,12.311.79c4.367-.205,6.749-1.108,7.282-2.761.711-2.207-1.9-4.266-2.03-4.371" fill="none" stroke="#221f20" stroke-miterlimit="10" stroke-width="0.333" stroke-dasharray="1.527 1.527"/>
        <path id="Path_3753" data-name="Path 3753" d="M61.3,45.543c3.672-6.687,11.569-8.058,20.534-7.819" fill="none" stroke="#221f20" stroke-miterlimit="10" stroke-width="0.333" stroke-dasharray="1.527 1.527"/>
        <path id="Path_3754" data-name="Path 3754" d="M86.608,40.491c4.695.3,8.95.884,12.73,1.29a47.7,47.7,0,0,0,11.757,0c4.33-.609,5.2-2.814,5.735-4.467a4.976,4.976,0,0,0-.852-4.324" fill="none" stroke="#221f20" stroke-miterlimit="10" stroke-width="0.333" stroke-dasharray="1.527 1.527"/>
        <path id="Path_3755" data-name="Path 3755" d="M64.3,45.779c3.013-4.217,9.415-5.446,16.411-5.488" fill="none" stroke="#221f20" stroke-miterlimit="10" stroke-width="0.333" stroke-dasharray="1.527 1.527"/>
        <path id="Path_3756" data-name="Path 3756" d="M2.455,18c2.4,15.271,28.994,5.468,31.253,24.037" fill="none" stroke="#221f20" stroke-miterlimit="10" stroke-width="0.333" stroke-dasharray="1.527 1.527"/>
        <path id="Path_3757" data-name="Path 3757" d="M85.487,27.869a.43.43,0,1,0,.235.561.43.43,0,0,0-.235-.561" fill="#221f20"/>
        <path id="Path_3758" data-name="Path 3758" d="M85.949,28.936a.237.237,0,1,0,.13.31.237.237,0,0,0-.13-.31" fill="#221f20"/>
        <path id="Path_3759" data-name="Path 3759" d="M86.31,27.822a.238.238,0,1,0,.236.239.238.238,0,0,0-.236-.239" fill="#221f20"/>
        <path id="Path_3760" data-name="Path 3760" d="M83.8,27.147a.43.43,0,1,0,.309.523.429.429,0,0,0-.309-.523" fill="#221f20"/>
        <path id="Path_3761" data-name="Path 3761" d="M84.4,28.14a.237.237,0,1,0,.171.289.237.237,0,0,0-.171-.289" fill="#221f20"/>
        <path id="Path_3762" data-name="Path 3762" d="M84.6,26.988a.237.237,0,1,0,.266.2.237.237,0,0,0-.266-.2" fill="#221f20"/>
        <path id="Path_3763" data-name="Path 3763" d="M81.663,26.589a.43.43,0,1,0,.379.475.429.429,0,0,0-.379-.475" fill="#221f20"/>
        <path id="Path_3764" data-name="Path 3764" d="M82.4,27.489a.237.237,0,1,0,.209.262.236.236,0,0,0-.209-.262" fill="#221f20"/>
        <path id="Path_3765" data-name="Path 3765" d="M82.441,26.32a.237.237,0,1,0,.292.165.237.237,0,0,0-.292-.165" fill="#221f20"/>
        <path id="Path_3766" data-name="Path 3766" d="M79.634,25.833a.43.43,0,1,0,.311.523.43.43,0,0,0-.311-.523" fill="#221f20"/>
        <path id="Path_3767" data-name="Path 3767" d="M80.24,26.825a.237.237,0,1,0,.171.288.237.237,0,0,0-.171-.288" fill="#221f20"/>
        <path id="Path_3768" data-name="Path 3768" d="M80.442,25.672a.237.237,0,1,0,.267.2.237.237,0,0,0-.267-.2" fill="#221f20"/>
        <path id="Path_3769" data-name="Path 3769" d="M77.529,25.143a.43.43,0,1,0,.195.576.43.43,0,0,0-.195-.576" fill="#221f20"/>
        <path id="Path_3770" data-name="Path 3770" d="M77.916,26.239a.237.237,0,1,0,.108.318.237.237,0,0,0-.108-.318" fill="#221f20"/>
        <path id="Path_3771" data-name="Path 3771" d="M78.352,25.153a.237.237,0,1,0,.219.254.237.237,0,0,0-.219-.254" fill="#221f20"/>
        <path id="Path_3772" data-name="Path 3772" d="M75.352,24.68a.43.43,0,1,0,.261.549.43.43,0,0,0-.261-.549" fill="#221f20"/>
        <path id="Path_3773" data-name="Path 3773" d="M75.865,25.724a.237.237,0,1,0,.144.3.237.237,0,0,0-.144-.3" fill="#221f20"/>
        <path id="Path_3774" data-name="Path 3774" d="M76.172,24.594a.237.237,0,1,0,.247.227.237.237,0,0,0-.247-.227" fill="#221f20"/>
        <path id="Path_3775" data-name="Path 3775" d="M73.018,24.216a.43.43,0,1,0,.334.508.43.43,0,0,0-.334-.508" fill="#221f20"/>
        <path id="Path_3776" data-name="Path 3776" d="M73.669,25.179a.237.237,0,1,0,.184.28.236.236,0,0,0-.184-.28" fill="#221f20"/>
        <path id="Path_3777" data-name="Path 3777" d="M73.818,24.018a.237.237,0,1,0,.276.191.237.237,0,0,0-.276-.191" fill="#221f20"/>
        <path id="Path_3778" data-name="Path 3778" d="M70.634,23.88a.43.43,0,1,0,.261.549.43.43,0,0,0-.261-.549" fill="#221f20"/>
        <path id="Path_3779" data-name="Path 3779" d="M71.147,24.924a.237.237,0,1,0,.144.3.237.237,0,0,0-.144-.3" fill="#221f20"/>
        <path id="Path_3780" data-name="Path 3780" d="M71.454,23.794a.237.237,0,1,0,.247.227.237.237,0,0,0-.247-.227" fill="#221f20"/>
        <path id="Path_3781" data-name="Path 3781" d="M68.33,23.78a.43.43,0,1,0,.352.5.43.43,0,0,0-.352-.5" fill="#221f20"/>
        <path id="Path_3782" data-name="Path 3782" d="M69.016,24.72a.237.237,0,1,0,.194.274.238.238,0,0,0-.194-.274" fill="#221f20"/>
        <path id="Path_3783" data-name="Path 3783" d="M69.123,23.554a.238.238,0,1,0,.283.181.238.238,0,0,0-.283-.181" fill="#221f20"/>
        <path id="Path_3784" data-name="Path 3784" d="M66.155,23.442a.43.43,0,1,0,.352.5.43.43,0,0,0-.352-.5" fill="#221f20"/>
        <path id="Path_3785" data-name="Path 3785" d="M66.841,24.381a.237.237,0,1,0,.194.274.238.238,0,0,0-.194-.274" fill="#221f20"/>
        <path id="Path_3786" data-name="Path 3786" d="M66.948,23.215a.238.238,0,1,0,.283.181.238.238,0,0,0-.283-.181" fill="#221f20"/>
        <path id="Path_3787" data-name="Path 3787" d="M63.931,23.737a.43.43,0,1,0,.424.436.431.431,0,0,0-.424-.436" fill="#221f20"/>
        <path id="Path_3788" data-name="Path 3788" d="M64.753,24.559a.238.238,0,1,0,.234.24.236.236,0,0,0-.234-.24" fill="#221f20"/>
        <path id="Path_3789" data-name="Path 3789" d="M64.679,23.391a.238.238,0,1,0,.307.135.237.237,0,0,0-.307-.135" fill="#221f20"/>
        <path id="Path_3790" data-name="Path 3790" d="M61.712,23.617a.43.43,0,1,0,.352.5.43.43,0,0,0-.352-.5" fill="#221f20"/>
        <path id="Path_3791" data-name="Path 3791" d="M62.4,24.557a.237.237,0,1,0,.194.274.238.238,0,0,0-.194-.274" fill="#221f20"/>
        <path id="Path_3792" data-name="Path 3792" d="M62.505,23.391a.238.238,0,1,0,.283.181.238.238,0,0,0-.283-.181" fill="#221f20"/>
        <path id="Path_3793" data-name="Path 3793" d="M59.376,23.914a.43.43,0,1,0,.457.4.43.43,0,0,0-.457-.4" fill="#221f20"/>
        <path id="Path_3794" data-name="Path 3794" d="M60.259,24.67a.238.238,0,1,0,.252.221.237.237,0,0,0-.252-.221" fill="#221f20"/>
        <path id="Path_3795" data-name="Path 3795" d="M60.1,23.511a.237.237,0,1,0,.316.111.237.237,0,0,0-.316-.111" fill="#221f20"/>
        <path id="Path_3796" data-name="Path 3796" d="M57.2,24.663a.43.43,0,1,0,.521.314.43.43,0,0,0-.521-.314" fill="#221f20"/>
        <path id="Path_3797" data-name="Path 3797" d="M58.2,25.251a.237.237,0,1,0,.287.173.236.236,0,0,0-.287-.173" fill="#221f20"/>
        <path id="Path_3798" data-name="Path 3798" d="M57.837,24.139a.237.237,0,1,0,.331.053.237.237,0,0,0-.331-.053" fill="#221f20"/>
        <path id="Path_3799" data-name="Path 3799" d="M55.14,25.642a.43.43,0,1,0,.59.146.43.43,0,0,0-.59-.146" fill="#221f20"/>
        <path id="Path_3800" data-name="Path 3800" d="M56.273,25.906a.237.237,0,1,0,.245.406.237.237,0,1,0-.245-.406" fill="#221f20"/>
        <path id="Path_3801" data-name="Path 3801" d="M55.593,24.953a.237.237,0,1,0,.332-.047.236.236,0,0,0-.332.047" fill="#221f20"/>
        <path id="Path_3802" data-name="Path 3802" d="M53.221,26.541a.43.43,0,1,0,.59.146.43.43,0,0,0-.59-.146" fill="#221f20"/>
        <path id="Path_3803" data-name="Path 3803" d="M54.353,26.806a.237.237,0,1,0,.245.406.237.237,0,1,0-.245-.406" fill="#221f20"/>
        <path id="Path_3804" data-name="Path 3804" d="M53.674,25.852a.237.237,0,1,0,.332-.047.236.236,0,0,0-.332.047" fill="#221f20"/>
        <path id="Path_3805" data-name="Path 3805" d="M51.676,27.648a.43.43,0,1,0,.59.146.43.43,0,0,0-.59-.146" fill="#221f20"/>
        <path id="Path_3806" data-name="Path 3806" d="M52.808,27.913a.237.237,0,1,0,.245.406.237.237,0,1,0-.245-.406" fill="#221f20"/>
        <path id="Path_3807" data-name="Path 3807" d="M52.129,26.959a.237.237,0,1,0,.332-.047.236.236,0,0,0-.332.047" fill="#221f20"/>
        <path id="Path_3808" data-name="Path 3808" d="M49.906,28.774a.43.43,0,1,0,.605.061.429.429,0,0,0-.605-.061" fill="#221f20"/>
        <path id="Path_3809" data-name="Path 3809" d="M51.065,28.877a.237.237,0,1,0,.334.034.237.237,0,0,0-.334-.034" fill="#221f20"/>
        <path id="Path_3810" data-name="Path 3810" d="M50.258,28.029a.237.237,0,1,0,.322-.093.238.238,0,0,0-.322.093" fill="#221f20"/>
        <path id="Path_3811" data-name="Path 3811" d="M48.286,30.614a.43.43,0,1,0,.586-.163.431.431,0,0,0-.586.163" fill="#221f20"/>
        <path id="Path_3812" data-name="Path 3812" d="M49.4,30.287a.238.238,0,1,0,.323-.09.237.237,0,0,0-.323.09" fill="#221f20"/>
        <path id="Path_3813" data-name="Path 3813" d="M48.342,29.791a.238.238,0,1,0,.266-.2.238.238,0,0,0-.266.2" fill="#221f20"/>
        <path id="Path_3814" data-name="Path 3814" d="M46.77,32.747a.43.43,0,1,0,.564-.227.43.43,0,0,0-.564.227" fill="#221f20"/>
        <path id="Path_3815" data-name="Path 3815" d="M47.843,32.3a.237.237,0,1,0,.311-.126.237.237,0,0,0-.311.126" fill="#221f20"/>
        <path id="Path_3816" data-name="Path 3816" d="M46.734,31.923a.238.238,0,1,0,.242-.233.238.238,0,0,0-.242.233" fill="#221f20"/>
        <path id="Path_3817" data-name="Path 3817" d="M45.442,34.939a.43.43,0,1,0,.564-.227.43.43,0,0,0-.564.227" fill="#221f20"/>
        <path id="Path_3818" data-name="Path 3818" d="M46.515,34.491a.237.237,0,1,0,.311-.126.237.237,0,0,0-.311.126" fill="#221f20"/>
        <path id="Path_3819" data-name="Path 3819" d="M45.406,34.116a.238.238,0,1,0,.242-.233.238.238,0,0,0-.242.233" fill="#221f20"/>
        <path id="Path_3820" data-name="Path 3820" d="M44.377,37.13a.43.43,0,1,0,.513-.326.43.43,0,0,0-.513.326" fill="#221f20"/>
        <path id="Path_3821" data-name="Path 3821" d="M45.35,36.493a.237.237,0,1,0,.283-.18.237.237,0,0,0-.283.18" fill="#221f20"/>
        <path id="Path_3822" data-name="Path 3822" d="M44.192,36.327a.237.237,0,1,0,.195-.273.236.236,0,0,0-.195.273" fill="#221f20"/>
        <path id="Path_3823" data-name="Path 3823" d="M43.695,39.586a.43.43,0,1,0,.513-.326.43.43,0,0,0-.513.326" fill="#221f20"/>
        <path id="Path_3824" data-name="Path 3824" d="M44.668,38.95a.237.237,0,1,0,.283-.18.237.237,0,0,0-.283.18" fill="#221f20"/>
        <path id="Path_3825" data-name="Path 3825" d="M43.51,38.783a.237.237,0,1,0,.2-.273.237.237,0,0,0-.2.273" fill="#221f20"/>
        <path id="Path_3826" data-name="Path 3826" d="M43.147,42.037a.43.43,0,1,0,.513-.326.43.43,0,0,0-.513.326" fill="#221f20"/>
        <path id="Path_3827" data-name="Path 3827" d="M44.121,41.4a.237.237,0,1,0,.283-.18.237.237,0,0,0-.283.18" fill="#221f20"/>
        <path id="Path_3828" data-name="Path 3828" d="M42.962,41.234a.237.237,0,1,0,.195-.273.237.237,0,0,0-.195.273" fill="#221f20"/>
        <path id="Path_3829" data-name="Path 3829" d="M86.894,27.369a72.726,72.726,0,0,0-12.527-3.694c-7.649-1.6-14.58-1.616-20.539,1.065-5.139,2.312-10.554,7.892-11.7,17.465" fill="none" stroke="#221f20" stroke-miterlimit="10" stroke-width="0.333" stroke-dasharray="1.527 1.527"/>
      </g>
    </g>
    <g id="Group_1425" data-name="Group 1425">
      <g id="Group_1424" data-name="Group 1424" clip-path="url(#clip-path-2)">
        <path id="Path_3830" data-name="Path 3830" d="M121.706,34.517a.187.187,0,1,1-.254-.11.2.2,0,0,1,.254.11" fill="#221f20"/>
        <path id="Path_3831" data-name="Path 3831" d="M122.143,35.907a.193.193,0,0,1-.259-.093.2.2,0,0,1,.069-.27.194.194,0,0,1,.259.094.2.2,0,0,1-.069.269" fill="#221f20"/>
        <path id="Path_3832" data-name="Path 3832" d="M122.391,36.933a.194.194,0,0,1,.085-.263.2.2,0,0,1,.254.11" fill="#221f20"/>
        <path id="Path_3833" data-name="Path 3833" d="M123.157,38.173a.206.206,0,1,1,.086-.263.2.2,0,0,1-.086.263" fill="#221f20"/>
        <path id="Path_3834" data-name="Path 3834" d="M123.755,39.043a.2.2,0,0,1-.086.263.2.2,0,0,1-.254-.111.194.194,0,0,1,.085-.262.2.2,0,0,1,.255.11" fill="#221f20"/>
        <path id="Path_3835" data-name="Path 3835" d="M124.191,40.433a.194.194,0,0,1-.258-.095.2.2,0,0,1,.07-.269.194.194,0,0,1,.259.094.2.2,0,0,1-.071.27" fill="#221f20"/>
        <path id="Path_3836" data-name="Path 3836" d="M124.354,41.46a.2.2,0,0,1,.122-.246.2.2,0,0,1,.238.148" fill="#221f20"/>
        <path id="Path_3837" data-name="Path 3837" d="M122.731,36.78a.187.187,0,1,1-.34.152" fill="#221f20"/>
        <path id="Path_3838" data-name="Path 3838" d="M124.611,42.84a.206.206,0,0,1,.053-.4.2.2,0,0,1-.053.4" fill="#221f20"/>
        <path id="Path_3839" data-name="Path 3839" d="M124.289,43.877a.209.209,0,0,1-.143.078.165.165,0,0,1-.137-.048.2.2,0,0,1,0-.271.219.219,0,0,1,.127-.072.194.194,0,0,1,.141.031.17.17,0,0,1,.07.127.213.213,0,0,1-.054.155" fill="#221f20"/>
        <path id="Path_3840" data-name="Path 3840" d="M122.935,44.493a.187.187,0,0,1,.026-.141.2.2,0,0,1,.113-.089.2.2,0,0,1,.249.1.164.164,0,0,1,0,.145.206.206,0,0,1-.126.105.222.222,0,0,1-.167-.008.166.166,0,0,1-.093-.114" fill="#221f20"/>
        <path id="Path_3841" data-name="Path 3841" d="M121.974,44.212a.2.2,0,0,1,.134.234.189.189,0,0,1-.258.117" fill="#221f20"/>
        <path id="Path_3842" data-name="Path 3842" d="M124.714,41.363a.192.192,0,0,1-.131.247.2.2,0,0,1-.229-.15" fill="#221f20"/>
        <path id="Path_3843" data-name="Path 3843" d="M120.876,43.44a.2.2,0,0,1,.144,0,.211.211,0,0,1,.109.091.171.171,0,0,1,.023.069.183.183,0,0,1,0,.07.2.2,0,0,1-.073.125.165.165,0,0,1-.143.027.231.231,0,0,1-.074-.036.3.3,0,0,1-.057-.069.217.217,0,0,1-.025-.166.161.161,0,0,1,.1-.11" fill="#221f20"/>
        <path id="Path_3844" data-name="Path 3844" d="M120.573,42.393a.26.26,0,0,1,.03-.085.194.194,0,0,1,.056-.061.157.157,0,0,1,.143-.024.2.2,0,0,1,.112.092.214.214,0,0,1,.025.065.193.193,0,0,1,0,.072.214.214,0,0,1-.069.124.2.2,0,0,1-.135.05.161.161,0,0,1-.128-.07.212.212,0,0,1-.036-.163" fill="#221f20"/>
        <path id="Path_3845" data-name="Path 3845" d="M121.716,41.486a.193.193,0,0,1-.031.14.216.216,0,0,1-.109.086.2.2,0,0,1-.135,0,.218.218,0,0,1-.111-.091.158.158,0,0,1-.006-.145.213.213,0,0,1,.13-.112.228.228,0,0,1,.173.008.166.166,0,0,1,.089.118" fill="#221f20"/>
        <path id="Path_3846" data-name="Path 3846" d="M122.449,41.832a.01.01,0,0,0,.006.012l.009-.007a.261.261,0,0,0,.009-.047.33.33,0,0,1,.044-.134.135.135,0,0,1,.137-.058.192.192,0,0,1,.1.049.326.326,0,0,1,.044.062.292.292,0,0,1,.026.091" fill="#221f20"/>
        <path id="Path_3847" data-name="Path 3847" d="M121.849,44.563a.222.222,0,0,1-.125-.108.166.166,0,0,1,0-.146.185.185,0,0,1,.107-.095.2.2,0,0,1,.144,0" fill="#221f20"/>
        <path id="Path_3848" data-name="Path 3848" d="M123.713,34.415a.187.187,0,1,1-.255-.1.2.2,0,0,1,.255.1" fill="#221f20"/>
        <path id="Path_3849" data-name="Path 3849" d="M124.173,35.776a.192.192,0,0,1-.26-.085.2.2,0,0,1,.065-.268.192.192,0,0,1,.26.085.2.2,0,0,1-.065.268" fill="#221f20"/>
        <path id="Path_3850" data-name="Path 3850" d="M124.437,36.784a.187.187,0,1,1,.336-.162" fill="#221f20"/>
        <path id="Path_3851" data-name="Path 3851" d="M125.222,37.989a.2.2,0,1,1,.081-.263.195.195,0,0,1-.081.263" fill="#221f20"/>
        <path id="Path_3852" data-name="Path 3852" d="M125.832,38.831a.187.187,0,1,1-.255-.1.2.2,0,0,1,.255.1" fill="#221f20"/>
        <path id="Path_3853" data-name="Path 3853" d="M126.292,40.193a.192.192,0,0,1-.26-.085.2.2,0,0,1,.065-.268.192.192,0,0,1,.26.085.2.2,0,0,1-.065.268" fill="#221f20"/>
        <path id="Path_3854" data-name="Path 3854" d="M126.556,41.2a.187.187,0,1,1,.336-.162" fill="#221f20"/>
        <path id="Path_3855" data-name="Path 3855" d="M124.773,36.623a.187.187,0,1,1-.336.161" fill="#221f20"/>
        <path id="Path_3856" data-name="Path 3856" d="M122.479,43.1a.334.334,0,1,1,.473-.012.335.335,0,0,1-.473.012" fill="#221f20"/>
        <path id="Path_3857" data-name="Path 3857" d="M126.662,34.906a.161.161,0,1,1,.187-.257.161.161,0,1,1-.187.257" fill="#221f20"/>
        <path id="Path_3858" data-name="Path 3858" d="M126.259,35.643a.173.173,0,0,1-.246-.022.161.161,0,1,1,.226-.224.174.174,0,0,1,.02.246" fill="#221f20"/>
        <path id="Path_3859" data-name="Path 3859" d="M125.275,36.245a.182.182,0,0,1,0-.247.173.173,0,0,1,.238.037.176.176,0,0,1,0,.249.168.168,0,0,1-.241-.039" fill="#221f20"/>
        <path id="Path_3860" data-name="Path 3860" d="M124.5,36.5a.179.179,0,0,1,.224.089.17.17,0,0,1-.055.243" fill="#221f20"/>
        <path id="Path_3861" data-name="Path 3861" d="M129.628,35.59a.334.334,0,1,0,.473-.012.335.335,0,0,0-.473.012" fill="#221f20"/>
        <path id="Path_3862" data-name="Path 3862" d="M133.9,37.638a.334.334,0,1,0,.429.2.334.334,0,0,0-.429-.2" fill="#221f20"/>
        <path id="Path_3863" data-name="Path 3863" d="M127.67,40.1a.213.213,0,1,1-.283,0,.2.2,0,0,1,.283,0" fill="#221f20"/>
        <path id="Path_3864" data-name="Path 3864" d="M128.361,39.262a.188.188,0,1,1-.043.279.2.2,0,0,1,.043-.279" fill="#221f20"/>
        <path id="Path_3865" data-name="Path 3865" d="M129.647,38.481a.2.2,0,0,1-.041.276.2.2,0,0,1-.283-.006.2.2,0,0,1,.04-.277.2.2,0,0,1,.284.007" fill="#221f20"/>
        <path id="Path_3866" data-name="Path 3866" d="M130.635,38.042a.2.2,0,0,1-.277-.041.2.2,0,0,1,.075-.272" fill="#221f20"/>
        <path id="Path_3867" data-name="Path 3867" d="M126.453,40.992a.2.2,0,0,1,.283-.018.2.2,0,0,1-.017.279" fill="#221f20"/>
        <path id="Path_3868" data-name="Path 3868" d="M131.826,37.148a.213.213,0,0,1-.375.193.212.212,0,0,1,.375-.193" fill="#221f20"/>
        <path id="Path_3869" data-name="Path 3869" d="M132.756,36.564a.2.2,0,0,1,.259.116.213.213,0,0,1-.4.13.2.2,0,0,1,.142-.246" fill="#221f20"/>
        <path id="Path_3870" data-name="Path 3870" d="M134.279,36.511a.2.2,0,0,1-.2.191.208.208,0,0,1-.222-.166.19.19,0,0,1,.194-.206.227.227,0,0,1,.162.05.168.168,0,0,1,.065.131" fill="#221f20"/>
        <path id="Path_3871" data-name="Path 3871" d="M135.183,37.007a.21.21,0,0,1-.092-.118.187.187,0,0,1,.008-.143.167.167,0,0,1,.119-.088.233.233,0,0,1,.164.034" fill="#221f20"/>
        <path id="Path_3872" data-name="Path 3872" d="M130.433,37.728a.2.2,0,0,1,.279.044.2.2,0,0,1-.077.27" fill="#221f20"/>
        <path id="Path_3873" data-name="Path 3873" d="M136.041,38.056a.2.2,0,0,1-.134-.054.218.218,0,0,1-.069-.122.215.215,0,0,1,.022-.139.2.2,0,0,1,.106-.1.154.154,0,0,1,.145.02.23.23,0,0,1,.094.15.233.233,0,0,1-.035.174.156.156,0,0,1-.129.069" fill="#221f20"/>
        <path id="Path_3874" data-name="Path 3874" d="M135.748,39.142a.232.232,0,0,1-.164.064.157.157,0,0,1-.128-.072.192.192,0,0,1-.027-.141.212.212,0,0,1,.2-.181.2.2,0,0,1,.139.039.158.158,0,0,1,.06.133.227.227,0,0,1-.077.158" fill="#221f20"/>
        <path id="Path_3875" data-name="Path 3875" d="M134.245,39.156a.2.2,0,0,1,.113-.086.247.247,0,0,1,.07-.013.343.343,0,0,1,.068.011.2.2,0,0,1,.061.034.22.22,0,0,1,.083.191.156.156,0,0,1-.082.12.22.22,0,0,1-.176.01.236.236,0,0,1-.141-.117.156.156,0,0,1,0-.15" fill="#221f20"/>
        <path id="Path_3876" data-name="Path 3876" d="M134.09,38.224a.208.208,0,0,1-.2.185c-.107,0-.183-.1-.171-.236" fill="#221f20"/>
        <path id="Path_3877" data-name="Path 3877" d="M135.382,36.692a.235.235,0,0,1,.1.135.163.163,0,0,1-.029.144.189.189,0,0,1-.127.069.217.217,0,0,1-.145-.033" fill="#221f20"/>
        <path id="Path_3878" data-name="Path 3878" d="M128.653,36.726a.219.219,0,1,1,.285.022.2.2,0,0,1-.285-.022" fill="#221f20"/>
        <path id="Path_3879" data-name="Path 3879" d="M127.88,37.526a.188.188,0,1,1,.064-.278.2.2,0,0,1-.064.278" fill="#221f20"/>
        <path id="Path_3880" data-name="Path 3880" d="M126.544,38.292a.2.2,0,0,1,.046-.279.208.208,0,0,1,.288,0,.2.2,0,0,1-.046.279.208.208,0,0,1-.288,0" fill="#221f20"/>
        <path id="Path_3881" data-name="Path 3881" d="M125.544,38.783a.188.188,0,1,1,.221.3" fill="#221f20"/>
        <path id="Path_3882" data-name="Path 3882" d="M129.995,35.97a.188.188,0,1,1-.221-.3" fill="#221f20"/>
        <path id="Path_3883" data-name="Path 3883" d="M128.591,34.913a.168.168,0,0,1-.186.2.2.2,0,0,1-.1-.029.2.2,0,0,1-.062-.06.152.152,0,0,1,0-.145.272.272,0,0,1,.094-.1.186.186,0,0,1,.047-.028c.014,0,.026-.013.037-.01a.217.217,0,0,1,.168.171" fill="#221f20"/>
      </g>
    </g>
    <g id="Group_1427" data-name="Group 1427">
      <g id="Group_1426" data-name="Group 1426" clip-path="url(#clip-path)">
        <path id="Path_3884" data-name="Path 3884" d="M5.579,9.776l.023.206C18.093,16,32.154,17.7,41.455,16.023c7.672-1.382,17.324-8.3,20.467-10.675l-.576-.974c-4.53,3.26-10.824,7.614-18.283,9.655-8.685,2.372-18.886.518-26.341-1.234C10.1,11.237,5.867,9.133,5.579,9.776" fill="#c1c1c1"/>
        <path id="Path_3885" data-name="Path 3885" d="M5.579,9.776l.023.206C18.093,16,32.154,17.7,41.455,16.023c7.672-1.382,17.324-8.3,20.467-10.675l-.576-.974c-4.53,3.26-10.824,7.614-18.283,9.655-8.685,2.372-18.886.518-26.341-1.234C10.1,11.237,5.867,9.133,5.579,9.776Z" fill="none" stroke="#221f20" stroke-miterlimit="10" stroke-width="0.389"/>
        <path id="Path_3886" data-name="Path 3886" d="M61.147,4.081c.1.491,1.145.849,1.145.849l.129.035c.354-.276.545-.428.545-.428L67.2,1.277,65.653.233s-4.674,3-4.506,3.848" fill="#c1c1c1"/>
        <path id="Path_3887" data-name="Path 3887" d="M61.147,4.081c.1.491,1.145.849,1.145.849l.129.035c.354-.276.545-.428.545-.428L67.2,1.277,65.653.233S60.979,3.232,61.147,4.081Z" fill="none" stroke="#221f20" stroke-miterlimit="10" stroke-width="0.389"/>
      </g>
    </g>
  </g>
</svg>
