<svg xmlns="http://www.w3.org/2000/svg" xmlns:xlink="http://www.w3.org/1999/xlink" width="151.999" height="53.271" viewBox="0 0 151.999 53.271">
  <defs>
    <clipPath id="clip-path">
      <rect id="Rectangle_1948" data-name="Rectangle 1948" width="151.999" height="53.271" transform="translate(0 0)" fill="none"/>
    </clipPath>
  </defs>
  <g id="Group_1421" data-name="Group 1421" transform="translate(0 0)">
    <g id="Group_1421-2" data-name="Group 1421" clip-path="url(#clip-path)">
      <path id="Path_3530" data-name="Path 3530" d="M2.747,53.075H38.754l.27-6.985s1.512.133,4.963.529c3.9.439,10.28,1.21,19.757,2.48,10.577,1.418,36.535,4.889,53.484,3.067,14.419-1.547,33.823-4.556,34.344-4.7.463-.129.114-2.264-.062-2.891-.169-.611-1.3-.933-1.3-.933L3.053,41.451Z" fill="#2e160e"/>
      <path id="Path_3531" data-name="Path 3531" d="M2.747,53.075H38.754l.27-6.985s1.512.133,4.963.529c3.9.439,10.28,1.21,19.757,2.48,10.577,1.418,36.535,4.889,53.484,3.067,14.419-1.547,33.823-4.556,34.344-4.7.463-.129.114-2.264-.062-2.891-.169-.611-1.3-.933-1.3-.933L3.053,41.451Z" fill="none" stroke="#221f20" stroke-miterlimit="10" stroke-width="0.392"/>
      <path id="Path_3532" data-name="Path 3532" d="M3.053,41.451s18.726-.286,30.33.752c12.521,1.121,56.452,7.812,74.34,7.346a198.282,198.282,0,0,0,42.482-5.9,5.213,5.213,0,0,0-.615-3.4c-.85-1.517-2.542-2.8-6.542-3.424-6.789-1.066-15.811-2.371-24.25-3.448-8.928-1.14-11.569-.756-21.233-8.525l.7-.485L68.155.849l-.564.435L63.333,4.563s-.192.153-.549.431c-.141.11-.309.239-.5.384C59.121,7.768,49.414,14.725,41.7,16.116c-9.355,1.689-23.5-.02-36.061-6.076l-.024-.012S-4.4,31.328,3.053,41.451" fill="#fff"/>
      <path id="Path_3533" data-name="Path 3533" d="M3.053,41.451s18.726-.286,30.33.752c12.521,1.121,56.452,7.812,74.34,7.346a198.282,198.282,0,0,0,42.482-5.9,5.213,5.213,0,0,0-.615-3.4c-.85-1.517-2.542-2.8-6.542-3.424-6.789-1.066-15.811-2.371-24.25-3.448-8.928-1.14-11.569-.756-21.233-8.525l.7-.485L68.155.849l-.564.435L63.333,4.563s-.192.153-.549.431c-.141.11-.309.239-.5.384C59.121,7.768,49.414,14.725,41.7,16.116c-9.355,1.689-23.5-.02-36.061-6.076l-.024-.012S-4.4,31.328,3.053,41.451Z" fill="none" stroke="#221f20" stroke-miterlimit="10" stroke-width="0.588"/>
      <path id="Path_3534" data-name="Path 3534" d="M45.8,43.5a17.559,17.559,0,0,1,7.625-13.9,20.25,20.25,0,0,1,12.8-3.193A83.547,83.547,0,0,1,78.695,28.43a66.637,66.637,0,0,1,7.6,2.554" fill="none" stroke="#221f20" stroke-linecap="round" stroke-miterlimit="10" stroke-width="0.671"/>
      <path id="Path_3535" data-name="Path 3535" d="M38.754,53.075l5.234-6.456c-3.451-.4-4.964-.529-4.964-.529Z" fill="#160602"/>
      <path id="Path_3536" data-name="Path 3536" d="M38.754,53.075l5.234-6.456c-3.451-.4-4.964-.529-4.964-.529Z" fill="none" stroke="#2e160e" stroke-linejoin="round" stroke-width="0.392"/>
      <path id="Path_3537" data-name="Path 3537" d="M86.438,30.172q-.345-.137-.712-.279" fill="none" stroke="#221f20" stroke-miterlimit="10" stroke-width="0.335"/>
      <path id="Path_3538" data-name="Path 3538" d="M84.3,29.36a59.064,59.064,0,0,0-19.418-3.786c-12.506,0-18.625,8.588-19.726,16.446" fill="none" stroke="#221f20" stroke-miterlimit="10" stroke-width="0.335" stroke-dasharray="1.526 1.526"/>
      <path id="Path_3539" data-name="Path 3539" d="M45.064,42.781c-.025.255-.046.51-.06.762" fill="none" stroke="#221f20" stroke-miterlimit="10" stroke-width="0.335"/>
      <path id="Path_3540" data-name="Path 3540" d="M5.418,10.762c.23.111.462.221.694.329" fill="none" stroke="#221f20" stroke-miterlimit="10" stroke-width="0.335"/>
      <path id="Path_3541" data-name="Path 3541" d="M7.469,11.7c11.222,4.912,24.554,6.845,34.4,5.07a32.354,32.354,0,0,0,8.172-2.9" fill="none" stroke="#221f20" stroke-miterlimit="10" stroke-width="0.335" stroke-dasharray="1.489 1.489"/>
      <path id="Path_3542" data-name="Path 3542" d="M50.707,13.544c.229-.116.456-.233.683-.352" fill="none" stroke="#221f20" stroke-miterlimit="10" stroke-width="0.335"/>
      <path id="Path_3543" data-name="Path 3543" d="M64.408,3.736c-1.12.97-7.769,6-9.583,7.061-1.894,1.11-4.556,4.4-4.668,4.539l-.177.219,1.512,2.362c.729.726,3.9-.685,6.426-2,.819-.5,7.811-4.742,8.279-5.143a2.386,2.386,0,0,1,1.973.314c.339.216,3.544,2.851,6.937,5.641,3.509,2.885,7.487,6.156,9.615,7.839q.455.359.848.664c2.432,1.892,2.709,2.19,1.84,3.652-.7,1.185-4.035,6.6-4.068,6.655a30.861,30.861,0,0,0-2.105,5.919l-.064.268,2.542,1.67.208-.118a20,20,0,0,0,6.5-6.793C92.742,32.635,97.478,25.377,97.752,25c0,0,1.153-1.735.619.492" fill="none" stroke="#221f20" stroke-linecap="round" stroke-miterlimit="10" stroke-width="0.671"/>
      <path id="Path_3544" data-name="Path 3544" d="M97.752,24.028a4.054,4.054,0,0,0-.461.617" fill="none" stroke="#221f20" stroke-miterlimit="10" stroke-width="0.335"/>
      <path id="Path_3545" data-name="Path 3545" d="M96.417,25.8c-1.691,2.235-4.556,6.778-6.662,10.284A20.772,20.772,0,0,1,84.943,41.6" fill="none" stroke="#221f20" stroke-miterlimit="10" stroke-width="0.335" stroke-dasharray="1.452 1.452"/>
      <path id="Path_3546" data-name="Path 3546" d="M84.369,42.044c-.271.2-.488.341-.632.433l-.641-.422" fill="none" stroke="#221f20" stroke-miterlimit="10" stroke-width="0.335"/>
      <path id="Path_3547" data-name="Path 3547" d="M82.708,41.8l-.642-.422c.046-.175.113-.429.2-.739" fill="none" stroke="#221f20" stroke-miterlimit="10" stroke-width="0.335"/>
      <path id="Path_3548" data-name="Path 3548" d="M82.724,39.144a22.826,22.826,0,0,1,1.3-3.216c.019-.029,3.354-5.45,4.061-6.64,1.255-2.112.292-2.862-2.033-4.671-.261-.2-.542-.422-.843-.66-2.122-1.679-6.1-4.947-9.6-7.83-4.114-3.382-6.653-5.466-7.014-5.7-.766-.487-2.241-.817-2.9-.249-.325.277-5.054,3.175-8.153,5.056-2.219,1.149-4.92,2.26-5.485,2.113l-.272-.428" fill="none" stroke="#221f20" stroke-miterlimit="10" stroke-width="0.335" stroke-dasharray="1.565 1.565"/>
      <path id="Path_3549" data-name="Path 3549" d="M51.356,16.26l-.412-.648c.117-.141.287-.342.5-.583" fill="none" stroke="#221f20" stroke-miterlimit="10" stroke-width="0.335"/>
      <path id="Path_3550" data-name="Path 3550" d="M52.547,13.807a14.265,14.265,0,0,1,2.675-2.334C56.8,10.546,64.456,4.8,67.593,2.366" fill="none" stroke="#221f20" stroke-miterlimit="10" stroke-width="0.335" stroke-dasharray="1.645 1.645"/>
      <path id="Path_3551" data-name="Path 3551" d="M68.239,1.86c.276-.219.479-.384.594-.482" fill="none" stroke="#221f20" stroke-miterlimit="10" stroke-width="0.335"/>
      <path id="Path_3552" data-name="Path 3552" d="M63.97,10.361,61.707,7.352a1.321,1.321,0,0,0-1.831-.332L57.538,8.779a1.32,1.32,0,0,0-.188,1.851l2.263,3.009a1.321,1.321,0,0,0,1.831.332l2.338-1.759a1.32,1.32,0,0,0,.188-1.851m-5.994-.2a.5.5,0,0,1,.071-.7L60.386,7.7a.5.5,0,0,1,.695.126l2.263,3.009a.5.5,0,0,1-.071.7l-2.339,1.759a.5.5,0,0,1-.695-.126Z" fill="#fff"/>
      <path id="Path_3553" data-name="Path 3553" d="M63.97,10.361,61.707,7.352a1.321,1.321,0,0,0-1.831-.332L57.538,8.779a1.32,1.32,0,0,0-.188,1.851l2.263,3.009a1.321,1.321,0,0,0,1.831.332l2.338-1.759A1.32,1.32,0,0,0,63.97,10.361Zm-5.994-.2a.5.5,0,0,1,.071-.7L60.386,7.7a.5.5,0,0,1,.695.126l2.263,3.009a.5.5,0,0,1-.071.7l-2.339,1.759a.5.5,0,0,1-.695-.126Z" fill="none" stroke="#221f20" stroke-miterlimit="10" stroke-width="0.392"/>
      <path id="Path_3554" data-name="Path 3554" d="M61.369,9.761h0a.384.384,0,0,0,.539.072l.888-.679a.385.385,0,0,0-.467-.611l-.888.679a.384.384,0,0,0-.072.539" fill="#fff"/>
      <path id="Path_3555" data-name="Path 3555" d="M61.369,9.761h0a.384.384,0,0,0,.539.072l.888-.679a.385.385,0,0,0-.467-.611l-.888.679A.384.384,0,0,0,61.369,9.761Z" fill="none" stroke="#221f20" stroke-miterlimit="10" stroke-width="0.392"/>
      <path id="Path_3556" data-name="Path 3556" d="M91.15,32.144,87.925,30.2a1.318,1.318,0,0,0-1.821.376l-1.511,2.506a1.319,1.319,0,0,0,.517,1.787l3.225,1.944a1.319,1.319,0,0,0,1.822-.376l1.51-2.507a1.317,1.317,0,0,0-.517-1.786M85.515,34.2a.5.5,0,0,1-.2-.678l1.51-2.506a.5.5,0,0,1,.692-.143l3.224,1.944a.5.5,0,0,1,.2.678L89.431,36a.5.5,0,0,1-.692.143Z" fill="#fff"/>
      <path id="Path_3557" data-name="Path 3557" d="M91.15,32.144,87.925,30.2a1.318,1.318,0,0,0-1.821.376l-1.511,2.506a1.319,1.319,0,0,0,.517,1.787l3.225,1.944a1.319,1.319,0,0,0,1.822-.376l1.51-2.507A1.317,1.317,0,0,0,91.15,32.144ZM85.515,34.2a.5.5,0,0,1-.2-.678l1.51-2.506a.5.5,0,0,1,.692-.143l3.224,1.944a.5.5,0,0,1,.2.678L89.431,36a.5.5,0,0,1-.692.143Z" fill="none" stroke="#221f20" stroke-miterlimit="10" stroke-width="0.392"/>
      <path id="Path_3558" data-name="Path 3558" d="M88.785,32.464h0a.385.385,0,0,0,.527-.135l.544-.919a.385.385,0,0,0-.662-.392l-.544.919a.385.385,0,0,0,.135.527" fill="#fff"/>
      <path id="Path_3559" data-name="Path 3559" d="M88.785,32.464h0a.385.385,0,0,0,.527-.135l.544-.919a.385.385,0,0,0-.662-.392l-.544.919A.385.385,0,0,0,88.785,32.464Z" fill="none" stroke="#221f20" stroke-miterlimit="10" stroke-width="0.392"/>
      <path id="Path_3560" data-name="Path 3560" d="M82.548,37.316c-9.21-.232-17.6,1.206-21.474,8.256" fill="none" stroke="#221f20" stroke-linecap="round" stroke-miterlimit="10" stroke-width="0.671"/>
      <path id="Path_3561" data-name="Path 3561" d="M111.767,32.494c.792.629,3.038,2.962,2.581,4.377-.288.891-1.669,2-6.615,2.234a89.5,89.5,0,0,1-12.263-.79c-2.014-.213-3.724-.415-5.84-.6" fill="none" stroke="#221f20" stroke-linecap="round" stroke-miterlimit="10" stroke-width="0.671"/>
      <path id="Path_3562" data-name="Path 3562" d="M89.175,38.35c2.2.185,4.016.384,6.107.605a90.438,90.438,0,0,0,12.382.794c4.393-.206,6.789-1.114,7.324-2.777.716-2.22-1.908-4.291-2.041-4.4" fill="none" stroke="#221f20" stroke-miterlimit="10" stroke-width="0.335" stroke-dasharray="1.536 1.536"/>
      <path id="Path_3563" data-name="Path 3563" d="M61.656,45.809c3.693-6.726,11.636-8.1,20.654-7.864" fill="none" stroke="#221f20" stroke-miterlimit="10" stroke-width="0.335" stroke-dasharray="1.536 1.536"/>
      <path id="Path_3564" data-name="Path 3564" d="M5.611,9.832l.024.208C18.2,16.1,32.341,17.8,41.7,16.116c7.718-1.391,17.425-8.349,20.587-10.738L61.7,4.4c-4.556,3.279-10.887,7.659-18.389,9.712-8.736,2.386-19,.521-26.495-1.242C10.159,11.3,5.9,9.186,5.611,9.832" fill="#c1c1c1"/>
      <path id="Path_3565" data-name="Path 3565" d="M5.611,9.832l.024.208C18.2,16.1,32.341,17.8,41.7,16.116c7.718-1.391,17.425-8.349,20.587-10.738L61.7,4.4c-4.556,3.279-10.887,7.659-18.389,9.712-8.736,2.386-19,.521-26.495-1.242C10.159,11.3,5.9,9.186,5.611,9.832Z" fill="none" stroke="#221f20" stroke-miterlimit="10" stroke-width="0.392"/>
      <path id="Path_3566" data-name="Path 3566" d="M61.5,4.105c.1.494,1.152.854,1.152.854l.129.035c.357-.278.548-.431.548-.431l4.259-3.279L66.037.234s-4.7,3.017-4.533,3.871" fill="#c1c1c1"/>
      <path id="Path_3567" data-name="Path 3567" d="M61.5,4.105c.1.494,1.152.854,1.152.854l.129.035c.357-.278.548-.431.548-.431l4.259-3.279L66.037.234S61.335,3.251,61.5,4.105Z" fill="none" stroke="#221f20" stroke-miterlimit="10" stroke-width="0.392"/>
    </g>
  </g>
</svg>
