<svg xmlns="http://www.w3.org/2000/svg" xmlns:xlink="http://www.w3.org/1999/xlink" width="154.98" height="54.555" viewBox="0 0 154.98 54.555">
  <defs>
    <clipPath id="clip-path">
      <rect id="Rectangle_1946" data-name="Rectangle 1946" width="154.98" height="54.555" transform="translate(0 0)" fill="none"/>
    </clipPath>
    <clipPath id="clip-path-2">
      <path id="Path_3525" data-name="Path 3525" d="M99.687,38.594l.218,8.942,24.18,3.169,29.766-.728.874-10.438-.038-1.567L100.336,30.85Z" fill="none"/>
    </clipPath>
  </defs>
  <g id="Group_1415" data-name="Group 1415" transform="translate(0 0)">
    <g id="Group_1416" data-name="Group 1416">
      <g id="Group_1415-2" data-name="Group 1415" clip-path="url(#clip-path)">
        <path id="Path_3162" data-name="Path 3162" d="M2.744,53.008H38.705l.269-6.972s1.511.133,4.958.524c3.9.442,10.266,1.209,19.731,2.477,10.564,1.416,36.489,4.883,53.414,3.067,14.4-1.549,33.782-4.554,34.3-4.695.462-.125.113-2.257-.063-2.887-.172-.611-1.3-.928-1.3-.928L3.049,41.4Z" fill="#2e160e"/>
        <path id="Path_3163" data-name="Path 3163" d="M2.744,53.008H38.705l.269-6.972s1.511.133,4.958.524c3.9.442,10.266,1.209,19.731,2.477,10.564,1.416,36.489,4.883,53.414,3.067,14.4-1.549,33.782-4.554,34.3-4.695.462-.125.113-2.257-.063-2.887-.172-.611-1.3-.928-1.3-.928L3.049,41.4Z" fill="none" stroke="#221f20" stroke-miterlimit="10" stroke-width="0.391"/>
        <path id="Path_3164" data-name="Path 3164" d="M3.049,41.4s18.7-.286,30.291.755c12.505,1.119,56.38,7.8,74.245,7.332a198.161,198.161,0,0,0,42.428-5.892,5.223,5.223,0,0,0-.614-3.4c-.849-1.514-2.539-2.794-6.534-3.42-6.781-1.064-15.791-2.363-24.219-3.443-8.917-1.138-11.554-.755-21.206-8.513l.7-.486L68.068.849l-.583.446v0L63.252,4.558s-.211.172-.6.466c-.238.188-.54.418-.9.684C58.2,8.357,49.014,14.766,41.643,16.1c-9.308,1.679-23.362-.007-35.879-6.005-.054-.024-.105-.047-.16-.075,0,0-10,21.273-2.555,31.383" fill="#fff"/>
        <path id="Path_3165" data-name="Path 3165" d="M3.049,41.4s18.7-.286,30.291.755c12.505,1.119,56.38,7.8,74.245,7.332a198.161,198.161,0,0,0,42.428-5.892,5.223,5.223,0,0,0-.614-3.4c-.849-1.514-2.539-2.794-6.534-3.42-6.781-1.064-15.791-2.363-24.219-3.443-8.917-1.138-11.554-.755-21.206-8.513l.7-.486L68.068.849l-.583.446v0L63.252,4.558s-.211.172-.6.466c-.238.188-.54.418-.9.684C58.2,8.357,49.014,14.766,41.643,16.1c-9.308,1.679-23.362-.007-35.879-6.005-.054-.024-.105-.047-.16-.075C5.6,10.016-4.4,31.289,3.049,41.4Z" fill="none" stroke="#221f20" stroke-miterlimit="10" stroke-width="0.587"/>
        <path id="Path_3166" data-name="Path 3166" d="M45.739,43.449a17.536,17.536,0,0,1,7.615-13.88A20.222,20.222,0,0,1,66.135,26.38,83.41,83.41,0,0,1,78.594,28.4a66.662,66.662,0,0,1,7.586,2.551" fill="none" stroke="#221f20" stroke-linecap="round" stroke-miterlimit="10" stroke-width="0.67"/>
        <path id="Path_3167" data-name="Path 3167" d="M38.705,53.008l5.227-6.448c-3.447-.391-4.957-.524-4.957-.524Z" fill="#160602"/>
        <path id="Path_3168" data-name="Path 3168" d="M38.705,53.008l5.227-6.448c-3.447-.391-4.957-.524-4.957-.524Z" fill="none" stroke="#2e160e" stroke-linejoin="round" stroke-width="0.391"/>
        <path id="Path_3169" data-name="Path 3169" d="M5.411,10.75c.23.111.461.22.693.329" fill="none" stroke="#221f20" stroke-miterlimit="10" stroke-width="0.335"/>
        <path id="Path_3170" data-name="Path 3170" d="M7.459,11.691c11.208,4.906,24.522,6.836,34.355,5.063a32.253,32.253,0,0,0,8.161-2.893" fill="none" stroke="#221f20" stroke-miterlimit="10" stroke-width="0.335" stroke-dasharray="1.487 1.487"/>
        <path id="Path_3171" data-name="Path 3171" d="M50.642,13.528c.228-.116.456-.233.682-.352" fill="none" stroke="#221f20" stroke-miterlimit="10" stroke-width="0.335"/>
        <path id="Path_3172" data-name="Path 3172" d="M64.326,3.733c-1.12.969-7.76,5.991-9.57,7.052-1.893,1.109-4.552,4.394-4.664,4.534l-.175.218L51.425,17.9c.729.725,3.894-.684,6.418-1.994.818-.5,7.8-4.736,8.269-5.136a2.379,2.379,0,0,1,1.97.314c.339.216,3.54,2.847,6.929,5.634,3.5,2.881,7.477,6.147,9.6,7.828.3.24.585.459.847.663,2.428,1.89,2.705,2.188,1.839,3.648-.7,1.183-4.03,6.592-4.065,6.647a30.708,30.708,0,0,0-2.1,5.911l-.064.267,2.538,1.668.208-.118a19.954,19.954,0,0,0,6.5-6.784c2.311-3.849,7.042-11.1,7.316-11.478,0,0,1.151-1.733.618.491" fill="none" stroke="#221f20" stroke-linecap="round" stroke-miterlimit="10" stroke-width="0.67"/>
        <path id="Path_3173" data-name="Path 3173" d="M97.627,24a4.094,4.094,0,0,0-.46.616" fill="none" stroke="#221f20" stroke-miterlimit="10" stroke-width="0.335"/>
        <path id="Path_3174" data-name="Path 3174" d="M96.294,25.769C94.606,28,91.744,32.538,89.64,36.04a20.767,20.767,0,0,1-4.805,5.514" fill="none" stroke="#221f20" stroke-miterlimit="10" stroke-width="0.335" stroke-dasharray="1.451 1.451"/>
        <path id="Path_3175" data-name="Path 3175" d="M84.26,41.991c-.271.2-.487.341-.631.433L82.988,42" fill="none" stroke="#221f20" stroke-miterlimit="10" stroke-width="0.335"/>
        <path id="Path_3176" data-name="Path 3176" d="M82.6,41.749l-.641-.421c.045-.175.113-.429.2-.738" fill="none" stroke="#221f20" stroke-miterlimit="10" stroke-width="0.335"/>
        <path id="Path_3177" data-name="Path 3177" d="M82.618,39.1a22.654,22.654,0,0,1,1.3-3.212c.019-.029,3.349-5.443,4.055-6.632,1.253-2.109.292-2.857-2.03-4.664-.261-.2-.541-.422-.843-.66-2.119-1.676-6.088-4.94-9.59-7.819-4.109-3.378-6.645-5.46-7.005-5.689-.765-.487-2.238-.816-2.9-.249-.325.277-5.048,3.171-8.143,5.049-2.216,1.148-4.914,2.258-5.478,2.111l-.271-.427" fill="none" stroke="#221f20" stroke-miterlimit="10" stroke-width="0.335" stroke-dasharray="1.563 1.563"/>
        <path id="Path_3178" data-name="Path 3178" d="M51.291,16.241l-.412-.647c.117-.141.287-.342.5-.582" fill="none" stroke="#221f20" stroke-miterlimit="10" stroke-width="0.335"/>
        <path id="Path_3179" data-name="Path 3179" d="M52.479,13.791A14.321,14.321,0,0,1,55.15,11.46c1.581-.926,9.224-6.659,12.356-9.1" fill="none" stroke="#221f20" stroke-miterlimit="10" stroke-width="0.335" stroke-dasharray="1.643 1.643"/>
        <path id="Path_3180" data-name="Path 3180" d="M68.152,1.859c.276-.218.479-.383.593-.482" fill="none" stroke="#221f20" stroke-miterlimit="10" stroke-width="0.335"/>
        <path id="Path_3181" data-name="Path 3181" d="M63.887,10.35l-2.26-3.005A1.317,1.317,0,0,0,59.8,7.013L57.464,8.77a1.317,1.317,0,0,0-.188,1.848l2.26,3.005a1.317,1.317,0,0,0,1.828.332L63.7,12.2a1.317,1.317,0,0,0,.187-1.848m-5.986-.2a.5.5,0,0,1,.071-.7l2.336-1.757A.5.5,0,0,1,61,7.815l2.26,3a.5.5,0,0,1-.071.7l-2.336,1.757a.5.5,0,0,1-.693-.126Z" fill="#fff"/>
        <path id="Path_3182" data-name="Path 3182" d="M63.887,10.35l-2.26-3.005A1.317,1.317,0,0,0,59.8,7.013L57.464,8.77a1.317,1.317,0,0,0-.188,1.848l2.26,3.005a1.317,1.317,0,0,0,1.828.332L63.7,12.2A1.317,1.317,0,0,0,63.887,10.35Zm-5.986-.2a.5.5,0,0,1,.071-.7l2.336-1.757A.5.5,0,0,1,61,7.815l2.26,3a.5.5,0,0,1-.071.7l-2.336,1.757a.5.5,0,0,1-.693-.126Z" fill="none" stroke="#221f20" stroke-miterlimit="10" stroke-width="0.391"/>
        <path id="Path_3183" data-name="Path 3183" d="M61.29,9.75h0a.384.384,0,0,0,.538.072l.887-.679a.384.384,0,0,0-.466-.61l-.887.679a.383.383,0,0,0-.072.538" fill="#fff"/>
        <path id="Path_3184" data-name="Path 3184" d="M61.29,9.75h0a.384.384,0,0,0,.538.072l.887-.679a.384.384,0,0,0-.466-.61l-.887.679A.383.383,0,0,0,61.29,9.75Z" fill="none" stroke="#221f20" stroke-miterlimit="10" stroke-width="0.391"/>
        <path id="Path_3185" data-name="Path 3185" d="M91.034,32.1l-3.221-1.941a1.317,1.317,0,0,0-1.819.376l-1.509,2.5A1.317,1.317,0,0,0,85,34.826l3.22,1.942a1.319,1.319,0,0,0,1.82-.376l1.509-2.5a1.318,1.318,0,0,0-.517-1.785m-5.628,2.052a.5.5,0,0,1-.2-.677l1.509-2.5a.5.5,0,0,1,.69-.143l3.221,1.941a.5.5,0,0,1,.2.678l-1.509,2.5a.5.5,0,0,1-.691.142Z" fill="#fff"/>
        <path id="Path_3186" data-name="Path 3186" d="M91.034,32.1l-3.221-1.941a1.317,1.317,0,0,0-1.819.376l-1.509,2.5A1.317,1.317,0,0,0,85,34.826l3.22,1.942a1.319,1.319,0,0,0,1.82-.376l1.509-2.5A1.318,1.318,0,0,0,91.034,32.1Zm-5.628,2.052a.5.5,0,0,1-.2-.677l1.509-2.5a.5.5,0,0,1,.69-.143l3.221,1.941a.5.5,0,0,1,.2.678l-1.509,2.5a.5.5,0,0,1-.691.142Z" fill="none" stroke="#221f20" stroke-miterlimit="10" stroke-width="0.391"/>
        <path id="Path_3187" data-name="Path 3187" d="M88.671,32.424h0a.383.383,0,0,0,.526-.135l.544-.918a.384.384,0,1,0-.661-.391l-.544.918a.384.384,0,0,0,.135.526" fill="#fff"/>
        <path id="Path_3188" data-name="Path 3188" d="M88.671,32.424h0a.383.383,0,0,0,.526-.135l.544-.918a.384.384,0,1,0-.661-.391l-.544.918A.384.384,0,0,0,88.671,32.424Z" fill="none" stroke="#221f20" stroke-miterlimit="10" stroke-width="0.391"/>
        <path id="Path_3189" data-name="Path 3189" d="M110.423,32a145.631,145.631,0,0,1,0,17.274" fill="none" stroke="#221f20" stroke-miterlimit="10" stroke-width="0.335" stroke-dasharray="1.534 1.534"/>
        <path id="Path_3190" data-name="Path 3190" d="M109.48,31.77s.956,15.9,0,17.643" fill="none" stroke="#221f20" stroke-linecap="round" stroke-miterlimit="10" stroke-width="0.67"/>
        <path id="Path_3191" data-name="Path 3191" d="M111.385,34.292a.432.432,0,1,0,.432-.432.431.431,0,0,0-.432.432" fill="#221f20"/>
        <path id="Path_3192" data-name="Path 3192" d="M112.2,33.456a.238.238,0,1,0,.237-.238.237.237,0,0,0-.237.238" fill="#221f20"/>
        <path id="Path_3193" data-name="Path 3193" d="M111.028,33.545a.238.238,0,1,0,.132-.31.238.238,0,0,0-.132.31" fill="#221f20"/>
        <path id="Path_3194" data-name="Path 3194" d="M111.357,36.362a.432.432,0,1,0,.432-.432.431.431,0,0,0-.432.432" fill="#221f20"/>
        <path id="Path_3195" data-name="Path 3195" d="M112.173,35.526a.239.239,0,1,0,.238-.238.238.238,0,0,0-.238.238" fill="#221f20"/>
        <path id="Path_3196" data-name="Path 3196" d="M111,35.615a.238.238,0,1,0,.132-.31.238.238,0,0,0-.132.31" fill="#221f20"/>
        <path id="Path_3197" data-name="Path 3197" d="M111.33,38.432a.432.432,0,1,0,.432-.432.431.431,0,0,0-.432.432" fill="#221f20"/>
        <path id="Path_3198" data-name="Path 3198" d="M112.146,37.6a.238.238,0,1,0,.238-.238.238.238,0,0,0-.238.238" fill="#221f20"/>
        <path id="Path_3199" data-name="Path 3199" d="M110.973,37.685a.238.238,0,1,0,.132-.31.238.238,0,0,0-.132.31" fill="#221f20"/>
        <path id="Path_3200" data-name="Path 3200" d="M111.3,40.4a.432.432,0,1,0,.432-.432.431.431,0,0,0-.432.432" fill="#221f20"/>
        <path id="Path_3201" data-name="Path 3201" d="M112.119,39.559a.238.238,0,1,0,.238-.238.238.238,0,0,0-.238.238" fill="#221f20"/>
        <path id="Path_3202" data-name="Path 3202" d="M110.946,39.647a.238.238,0,1,0,.132-.31.238.238,0,0,0-.132.31" fill="#221f20"/>
        <path id="Path_3203" data-name="Path 3203" d="M111.357,42.357a.432.432,0,1,0,.432-.432.431.431,0,0,0-.432.432" fill="#221f20"/>
        <path id="Path_3204" data-name="Path 3204" d="M112.173,41.521a.239.239,0,1,0,.238-.238.238.238,0,0,0-.238.238" fill="#221f20"/>
        <path id="Path_3205" data-name="Path 3205" d="M111,41.61a.238.238,0,1,0,.132-.31.238.238,0,0,0-.132.31" fill="#221f20"/>
        <path id="Path_3206" data-name="Path 3206" d="M111.443,44.32a.432.432,0,1,0,.432-.432.431.431,0,0,0-.432.432" fill="#221f20"/>
        <path id="Path_3207" data-name="Path 3207" d="M112.259,43.484a.238.238,0,1,0,.238-.238.238.238,0,0,0-.238.238" fill="#221f20"/>
        <path id="Path_3208" data-name="Path 3208" d="M111.086,43.573a.238.238,0,1,0,.132-.31.238.238,0,0,0-.132.31" fill="#221f20"/>
        <path id="Path_3209" data-name="Path 3209" d="M111.416,46.283a.432.432,0,1,0,.432-.432.431.431,0,0,0-.432.432" fill="#221f20"/>
        <path id="Path_3210" data-name="Path 3210" d="M112.232,45.447a.238.238,0,1,0,.238-.238.238.238,0,0,0-.238.238" fill="#221f20"/>
        <path id="Path_3211" data-name="Path 3211" d="M111.059,45.535a.238.238,0,1,0,.132-.31.238.238,0,0,0-.132.31" fill="#221f20"/>
        <path id="Path_3212" data-name="Path 3212" d="M111.564,48.245a.432.432,0,1,0,.432-.432.431.431,0,0,0-.432.432" fill="#221f20"/>
        <path id="Path_3213" data-name="Path 3213" d="M112.38,47.409a.239.239,0,1,0,.238-.238.238.238,0,0,0-.238.238" fill="#221f20"/>
        <path id="Path_3214" data-name="Path 3214" d="M111.207,47.5a.238.238,0,1,0,.132-.31.238.238,0,0,0-.132.31" fill="#221f20"/>
        <path id="Path_3215" data-name="Path 3215" d="M112.857,32.567s.918,10.075.29,16.645" fill="none" stroke="#221f20" stroke-miterlimit="10" stroke-width="0.335" stroke-dasharray="1.534 1.534"/>
        <path id="Path_3216" data-name="Path 3216" d="M37.416,42.623c-.245-13.046-10.879-15.544-20.261-17.747-1.582-.372-3.077-.723-4.528-1.12-2.8-.767-4.673-2.166-5.563-4.158-1.648-3.692.644-8.4.667-8.449" fill="none" stroke="#221f20" stroke-linecap="round" stroke-miterlimit="10" stroke-width="0.67"/>
        <path id="Path_3217" data-name="Path 3217" d="M6.986,10.933c-.1.2-2.436,4.947-.638,8.98.989,2.218,3.032,3.765,6.073,4.6,1.464.4,2.966.754,4.555,1.127,9.55,2.243,19.424,4.562,19.658,17" fill="none" stroke="#221f20" stroke-miterlimit="10" stroke-width="0.335" stroke-dasharray="1.534 1.534"/>
        <path id="Path_3218" data-name="Path 3218" d="M18.481,26.848a.432.432,0,1,1-.534.3.432.432,0,0,1,.534-.3" fill="#221f20"/>
        <path id="Path_3219" data-name="Path 3219" d="M17.453,27.4a.239.239,0,1,1-.295.164.238.238,0,0,1,.295-.164" fill="#221f20"/>
        <path id="Path_3220" data-name="Path 3220" d="M17.86,26.3a.239.239,0,1,1-.335.042.239.239,0,0,1,.335-.042" fill="#221f20"/>
        <path id="Path_3221" data-name="Path 3221" d="M20.322,27.217a.432.432,0,1,1-.485.372.432.432,0,0,1,.485-.372" fill="#221f20"/>
        <path id="Path_3222" data-name="Path 3222" d="M19.386,27.917a.239.239,0,1,1-.267.2.238.238,0,0,1,.267-.2" fill="#221f20"/>
        <path id="Path_3223" data-name="Path 3223" d="M19.627,26.766a.238.238,0,1,1-.325.09.238.238,0,0,1,.325-.09" fill="#221f20"/>
        <path id="Path_3224" data-name="Path 3224" d="M22.2,27.758a.432.432,0,1,1-.458.4.432.432,0,0,1,.458-.4" fill="#221f20"/>
        <path id="Path_3225" data-name="Path 3225" d="M21.312,28.519a.238.238,0,1,1-.253.223.239.239,0,0,1,.253-.223" fill="#221f20"/>
        <path id="Path_3226" data-name="Path 3226" d="M21.475,27.354a.238.238,0,1,1-.318.112.238.238,0,0,1,.318-.112" fill="#221f20"/>
        <path id="Path_3227" data-name="Path 3227" d="M24.214,28.353a.432.432,0,1,1-.459.4.433.433,0,0,1,.459-.4" fill="#221f20"/>
        <path id="Path_3228" data-name="Path 3228" d="M23.326,29.112a.239.239,0,1,1-.254.222.238.238,0,0,1,.254-.222" fill="#221f20"/>
        <path id="Path_3229" data-name="Path 3229" d="M23.492,27.948a.239.239,0,0,1-.207.43.239.239,0,0,1,.207-.43" fill="#221f20"/>
        <path id="Path_3230" data-name="Path 3230" d="M26.212,29.349a.432.432,0,1,1-.523.316.432.432,0,0,1,.523-.316" fill="#221f20"/>
        <path id="Path_3231" data-name="Path 3231" d="M25.2,29.94a.239.239,0,1,1-.289.174.238.238,0,0,1,.289-.174" fill="#221f20"/>
        <path id="Path_3232" data-name="Path 3232" d="M25.573,28.823a.238.238,0,1,1-.333.054.238.238,0,0,1,.333-.054" fill="#221f20"/>
        <path id="Path_3233" data-name="Path 3233" d="M27.985,30.342a.432.432,0,1,1-.593.147.432.432,0,0,1,.593-.147" fill="#221f20"/>
        <path id="Path_3234" data-name="Path 3234" d="M26.848,30.608a.238.238,0,1,1-.327.081.238.238,0,0,1,.327-.081" fill="#221f20"/>
        <path id="Path_3235" data-name="Path 3235" d="M27.53,29.651A.238.238,0,1,1,27.2,29.6a.239.239,0,0,1,.334.047" fill="#221f20"/>
        <path id="Path_3236" data-name="Path 3236" d="M29.693,31.517a.432.432,0,1,1-.593.147.432.432,0,0,1,.593-.147" fill="#221f20"/>
        <path id="Path_3237" data-name="Path 3237" d="M28.556,31.783a.238.238,0,1,1-.327.081.238.238,0,0,1,.327-.081" fill="#221f20"/>
        <path id="Path_3238" data-name="Path 3238" d="M29.238,30.825a.238.238,0,1,1-.334-.047.239.239,0,0,1,.334.047" fill="#221f20"/>
        <path id="Path_3239" data-name="Path 3239" d="M31.268,32.56a.432.432,0,1,1-.593.147.432.432,0,0,1,.593-.147" fill="#221f20"/>
        <path id="Path_3240" data-name="Path 3240" d="M30.13,32.826a.238.238,0,1,1-.327.081.238.238,0,0,1,.327-.081" fill="#221f20"/>
        <path id="Path_3241" data-name="Path 3241" d="M30.813,31.869a.238.238,0,1,1-.334-.047.239.239,0,0,1,.334.047" fill="#221f20"/>
        <path id="Path_3242" data-name="Path 3242" d="M32.506,33.9a.432.432,0,1,1-.608.062.433.433,0,0,1,.608-.062" fill="#221f20"/>
        <path id="Path_3243" data-name="Path 3243" d="M31.343,34.009a.238.238,0,1,1-.335.034.238.238,0,0,1,.335-.034" fill="#221f20"/>
        <path id="Path_3244" data-name="Path 3244" d="M32.153,33.156a.239.239,0,1,1-.324-.094.239.239,0,0,1,.324.094" fill="#221f20"/>
        <path id="Path_3245" data-name="Path 3245" d="M33.423,35.622a.432.432,0,1,1-.588-.164.433.433,0,0,1,.588.164" fill="#221f20"/>
        <path id="Path_3246" data-name="Path 3246" d="M32.3,35.294a.238.238,0,1,1-.325-.091.238.238,0,0,1,.325.091" fill="#221f20"/>
        <path id="Path_3247" data-name="Path 3247" d="M33.367,34.8a.239.239,0,1,1-.267-.205.238.238,0,0,1,.267.205" fill="#221f20"/>
        <path id="Path_3248" data-name="Path 3248" d="M34.582,37.375a.432.432,0,1,1-.567-.228.433.433,0,0,1,.567.228" fill="#221f20"/>
        <path id="Path_3249" data-name="Path 3249" d="M33.505,36.924a.239.239,0,1,1-.313-.126.239.239,0,0,1,.313.126" fill="#221f20"/>
        <path id="Path_3250" data-name="Path 3250" d="M34.619,36.547a.239.239,0,1,1-.243-.234.239.239,0,0,1,.243.234" fill="#221f20"/>
        <path id="Path_3251" data-name="Path 3251" d="M35.13,39.387a.432.432,0,1,1-.567-.228.433.433,0,0,1,.567.228" fill="#221f20"/>
        <path id="Path_3252" data-name="Path 3252" d="M34.052,38.937a.239.239,0,1,1-.313-.126.239.239,0,0,1,.313.126" fill="#221f20"/>
        <path id="Path_3253" data-name="Path 3253" d="M35.166,38.56a.239.239,0,1,1-.243-.234.239.239,0,0,1,.243.234" fill="#221f20"/>
        <path id="Path_3254" data-name="Path 3254" d="M35.557,41.505a.432.432,0,1,1-.516-.328.432.432,0,0,1,.516.328" fill="#221f20"/>
        <path id="Path_3255" data-name="Path 3255" d="M34.58,40.865a.238.238,0,1,1-.285-.181.238.238,0,0,1,.285.181" fill="#221f20"/>
        <path id="Path_3256" data-name="Path 3256" d="M35.744,40.7a.238.238,0,1,1-.2-.274.238.238,0,0,1,.2.274" fill="#221f20"/>
        <path id="Path_3257" data-name="Path 3257" d="M16.53,26.254a.432.432,0,1,1-.534.3.432.432,0,0,1,.534-.3" fill="#221f20"/>
        <path id="Path_3258" data-name="Path 3258" d="M15.5,26.81a.239.239,0,1,1-.3.164.238.238,0,0,1,.3-.164" fill="#221f20"/>
        <path id="Path_3259" data-name="Path 3259" d="M15.909,25.707a.239.239,0,1,1-.335.042.239.239,0,0,1,.335-.042" fill="#221f20"/>
        <path id="Path_3260" data-name="Path 3260" d="M14.614,25.95a.432.432,0,1,1-.534.3.432.432,0,0,1,.534-.3" fill="#221f20"/>
        <path id="Path_3261" data-name="Path 3261" d="M13.586,26.5a.239.239,0,1,1-.3.164.238.238,0,0,1,.3-.164" fill="#221f20"/>
        <path id="Path_3262" data-name="Path 3262" d="M13.993,25.4a.239.239,0,1,1-.335.042.239.239,0,0,1,.335-.042" fill="#221f20"/>
        <path id="Path_3263" data-name="Path 3263" d="M12.775,25.465a.432.432,0,1,1-.534.3.432.432,0,0,1,.534-.3" fill="#221f20"/>
        <path id="Path_3264" data-name="Path 3264" d="M11.747,26.021a.239.239,0,1,1-.3.164.238.238,0,0,1,.3-.164" fill="#221f20"/>
        <path id="Path_3265" data-name="Path 3265" d="M12.154,24.918a.239.239,0,1,1-.335.042.239.239,0,0,1,.335-.042" fill="#221f20"/>
        <path id="Path_3266" data-name="Path 3266" d="M11.13,24.988a.432.432,0,1,1-.535.3.432.432,0,0,1,.535-.3" fill="#221f20"/>
        <path id="Path_3267" data-name="Path 3267" d="M10.1,25.544a.239.239,0,1,1-.3.164.238.238,0,0,1,.3-.164" fill="#221f20"/>
        <path id="Path_3268" data-name="Path 3268" d="M10.509,24.441a.239.239,0,1,1-.335.042.239.239,0,0,1,.335-.042" fill="#221f20"/>
        <path id="Path_3269" data-name="Path 3269" d="M9.493,24.8a.432.432,0,1,1-.583.183.431.431,0,0,1,.583-.183" fill="#221f20"/>
        <path id="Path_3270" data-name="Path 3270" d="M8.374,25.14a.239.239,0,1,1-.322.1.238.238,0,0,1,.322-.1" fill="#221f20"/>
        <path id="Path_3271" data-name="Path 3271" d="M8.995,24.142a.239.239,0,1,1-.336-.027.238.238,0,0,1,.336.027" fill="#221f20"/>
        <path id="Path_3272" data-name="Path 3272" d="M7.992,23.523a.432.432,0,1,1-.609.054.433.433,0,0,1,.609-.054" fill="#221f20"/>
        <path id="Path_3273" data-name="Path 3273" d="M6.828,23.612a.239.239,0,1,1-.336.03.239.239,0,0,1,.336-.03" fill="#221f20"/>
        <path id="Path_3274" data-name="Path 3274" d="M7.648,22.77a.238.238,0,1,1-.323-.1.239.239,0,0,1,.323.1" fill="#221f20"/>
        <path id="Path_3275" data-name="Path 3275" d="M6.672,22.332a.432.432,0,1,1-.61-.037.432.432,0,0,1,.61.037" fill="#221f20"/>
        <path id="Path_3276" data-name="Path 3276" d="M5.507,22.248a.238.238,0,1,1-.337-.02.24.24,0,0,1,.337.02" fill="#221f20"/>
        <path id="Path_3277" data-name="Path 3277" d="M6.443,21.536a.238.238,0,1,1-.3-.145.24.24,0,0,1,.3.145" fill="#221f20"/>
        <path id="Path_3278" data-name="Path 3278" d="M5.539,20.691a.432.432,0,1,1-.6-.094.433.433,0,0,1,.6.094" fill="#221f20"/>
        <path id="Path_3279" data-name="Path 3279" d="M4.387,20.5a.238.238,0,1,1-.333-.052.238.238,0,0,1,.333.052" fill="#221f20"/>
        <path id="Path_3280" data-name="Path 3280" d="M5.387,19.877A.238.238,0,1,1,5.1,19.7a.239.239,0,0,1,.29.173" fill="#221f20"/>
        <path id="Path_3281" data-name="Path 3281" d="M4.828,19.137a.432.432,0,1,1-.517-.325.432.432,0,0,1,.517.325" fill="#221f20"/>
        <path id="Path_3282" data-name="Path 3282" d="M3.847,18.5a.238.238,0,1,1-.285-.18.238.238,0,0,1,.285.18" fill="#221f20"/>
        <path id="Path_3283" data-name="Path 3283" d="M5.01,18.329a.239.239,0,1,1-.2-.273.239.239,0,0,1,.2.273" fill="#221f20"/>
        <path id="Path_3284" data-name="Path 3284" d="M4.578,17.2a.432.432,0,1,1-.453-.41.432.432,0,0,1,.453.41" fill="#221f20"/>
        <path id="Path_3285" data-name="Path 3285" d="M3.721,16.411a.238.238,0,1,1-.25-.226.237.237,0,0,1,.25.226" fill="#221f20"/>
        <path id="Path_3286" data-name="Path 3286" d="M4.9,16.44a.239.239,0,1,1-.149-.3.241.241,0,0,1,.149.3" fill="#221f20"/>
        <path id="Path_3287" data-name="Path 3287" d="M2.676,17.929c2.414,15.34,29.126,5.493,31.4,24.146" fill="none" stroke="#221f20" stroke-miterlimit="10" stroke-width="0.335" stroke-dasharray="1.534 1.534"/>
        <path id="Path_3288" data-name="Path 3288" d="M86.327,30.135q-.345-.136-.711-.278" fill="none" stroke="#221f20" stroke-miterlimit="10" stroke-width="0.335"/>
        <path id="Path_3289" data-name="Path 3289" d="M84.191,29.324A58.986,58.986,0,0,0,64.8,25.543c-12.49,0-18.6,8.576-19.7,16.425" fill="none" stroke="#221f20" stroke-miterlimit="10" stroke-width="0.335" stroke-dasharray="1.524 1.524"/>
        <path id="Path_3290" data-name="Path 3290" d="M45.006,42.728c-.025.255-.046.509-.06.761" fill="none" stroke="#221f20" stroke-miterlimit="10" stroke-width="0.335"/>
        <path id="Path_3291" data-name="Path 3291" d="M85.679,28.386a.432.432,0,1,0,.293.536.432.432,0,0,0-.293-.536" fill="#221f20"/>
        <path id="Path_3292" data-name="Path 3292" d="M86.252,29.4a.239.239,0,1,0,.162.3.238.238,0,0,0-.162-.3" fill="#221f20"/>
        <path id="Path_3293" data-name="Path 3293" d="M86.5,28.253a.239.239,0,1,0,.261.214.239.239,0,0,0-.261-.214" fill="#221f20"/>
        <path id="Path_3294" data-name="Path 3294" d="M84.116,27.6a.432.432,0,1,0,.311.526.433.433,0,0,0-.311-.526" fill="#221f20"/>
        <path id="Path_3295" data-name="Path 3295" d="M84.723,28.6a.239.239,0,1,0,.171.29.237.237,0,0,0-.171-.29" fill="#221f20"/>
        <path id="Path_3296" data-name="Path 3296" d="M84.928,27.439a.238.238,0,1,0,.267.2.238.238,0,0,0-.267-.2" fill="#221f20"/>
        <path id="Path_3297" data-name="Path 3297" d="M81.973,27.038a.432.432,0,1,0,.381.477.431.431,0,0,0-.381-.477" fill="#221f20"/>
        <path id="Path_3298" data-name="Path 3298" d="M82.712,27.942a.238.238,0,1,0,.21.264.238.238,0,0,0-.21-.264" fill="#221f20"/>
        <path id="Path_3299" data-name="Path 3299" d="M82.755,26.767a.238.238,0,1,0,.293.166.238.238,0,0,0-.293-.166" fill="#221f20"/>
        <path id="Path_3300" data-name="Path 3300" d="M79.935,26.279a.432.432,0,1,0,.312.525.432.432,0,0,0-.312-.525" fill="#221f20"/>
        <path id="Path_3301" data-name="Path 3301" d="M80.544,27.275a.238.238,0,1,0,.172.29.239.239,0,0,0-.172-.29" fill="#221f20"/>
        <path id="Path_3302" data-name="Path 3302" d="M80.747,26.117a.238.238,0,1,0,.268.2.239.239,0,0,0-.268-.2" fill="#221f20"/>
        <path id="Path_3303" data-name="Path 3303" d="M77.82,25.585a.432.432,0,1,0,.2.578.432.432,0,0,0-.2-.578" fill="#221f20"/>
        <path id="Path_3304" data-name="Path 3304" d="M78.209,26.686a.238.238,0,1,0,.108.319.238.238,0,0,0-.108-.319" fill="#221f20"/>
        <path id="Path_3305" data-name="Path 3305" d="M78.648,25.595a.238.238,0,1,0,.22.255.238.238,0,0,0-.22-.255" fill="#221f20"/>
        <path id="Path_3306" data-name="Path 3306" d="M75.634,25.12a.432.432,0,1,0,.263.552.432.432,0,0,0-.263-.552" fill="#221f20"/>
        <path id="Path_3307" data-name="Path 3307" d="M76.149,26.169a.238.238,0,1,0,.145.3.238.238,0,0,0-.145-.3" fill="#221f20"/>
        <path id="Path_3308" data-name="Path 3308" d="M76.458,25.034a.238.238,0,1,0,.248.228.238.238,0,0,0-.248-.228" fill="#221f20"/>
        <path id="Path_3309" data-name="Path 3309" d="M73.289,24.654a.432.432,0,1,0,.336.51.431.431,0,0,0-.336-.51" fill="#221f20"/>
        <path id="Path_3310" data-name="Path 3310" d="M73.943,25.621a.238.238,0,1,0,.185.282.238.238,0,0,0-.185-.282" fill="#221f20"/>
        <path id="Path_3311" data-name="Path 3311" d="M74.093,24.455a.238.238,0,1,0,.277.192.238.238,0,0,0-.277-.192" fill="#221f20"/>
        <path id="Path_3312" data-name="Path 3312" d="M70.894,24.316a.432.432,0,1,0,.263.552.432.432,0,0,0-.263-.552" fill="#221f20"/>
        <path id="Path_3313" data-name="Path 3313" d="M71.41,25.365a.238.238,0,1,0,.144.3.239.239,0,0,0-.144-.3" fill="#221f20"/>
        <path id="Path_3314" data-name="Path 3314" d="M71.718,24.23a.238.238,0,1,0,.248.228.238.238,0,0,0-.248-.228" fill="#221f20"/>
        <path id="Path_3315" data-name="Path 3315" d="M68.58,24.216a.432.432,0,1,0,.354.5.432.432,0,0,0-.354-.5" fill="#221f20"/>
        <path id="Path_3316" data-name="Path 3316" d="M69.269,25.16a.238.238,0,1,0,.195.275.238.238,0,0,0-.195-.275" fill="#221f20"/>
        <path id="Path_3317" data-name="Path 3317" d="M69.377,23.989a.239.239,0,1,0,.284.182.238.238,0,0,0-.284-.182" fill="#221f20"/>
        <path id="Path_3318" data-name="Path 3318" d="M66.395,23.876a.432.432,0,1,0,.354.5.432.432,0,0,0-.354-.5" fill="#221f20"/>
        <path id="Path_3319" data-name="Path 3319" d="M67.084,24.82a.238.238,0,1,0,.195.275.238.238,0,0,0-.195-.275" fill="#221f20"/>
        <path id="Path_3320" data-name="Path 3320" d="M67.191,23.648a.239.239,0,1,0,.284.182.238.238,0,0,0-.284-.182" fill="#221f20"/>
        <path id="Path_3321" data-name="Path 3321" d="M64.161,24.172a.432.432,0,1,0,.426.438.433.433,0,0,0-.426-.438" fill="#221f20"/>
        <path id="Path_3322" data-name="Path 3322" d="M64.987,25a.239.239,0,1,0,.235.242A.239.239,0,0,0,64.987,25" fill="#221f20"/>
        <path id="Path_3323" data-name="Path 3323" d="M64.913,23.825a.239.239,0,1,0,.309.136.238.238,0,0,0-.309-.136" fill="#221f20"/>
        <path id="Path_3324" data-name="Path 3324" d="M61.932,24.052a.432.432,0,1,0,.354.5.432.432,0,0,0-.354-.5" fill="#221f20"/>
        <path id="Path_3325" data-name="Path 3325" d="M62.62,25a.238.238,0,1,0,.195.275A.238.238,0,0,0,62.62,25" fill="#221f20"/>
        <path id="Path_3326" data-name="Path 3326" d="M62.728,23.825a.239.239,0,1,0,.284.182.238.238,0,0,0-.284-.182" fill="#221f20"/>
        <path id="Path_3327" data-name="Path 3327" d="M59.585,24.35a.432.432,0,1,0,.459.4.433.433,0,0,0-.459-.4" fill="#221f20"/>
        <path id="Path_3328" data-name="Path 3328" d="M60.473,25.109a.239.239,0,1,0,.254.222.238.238,0,0,0-.254-.222" fill="#221f20"/>
        <path id="Path_3329" data-name="Path 3329" d="M60.307,23.945a.239.239,0,0,0,.207.43.239.239,0,0,0-.207-.43" fill="#221f20"/>
        <path id="Path_3330" data-name="Path 3330" d="M57.4,25.1a.432.432,0,1,0,.523.316A.432.432,0,0,0,57.4,25.1" fill="#221f20"/>
        <path id="Path_3331" data-name="Path 3331" d="M58.408,25.693a.239.239,0,1,0,.289.174.238.238,0,0,0-.289-.174" fill="#221f20"/>
        <path id="Path_3332" data-name="Path 3332" d="M58.039,24.577a.238.238,0,1,0,.333.054.238.238,0,0,0-.333-.054" fill="#221f20"/>
        <path id="Path_3333" data-name="Path 3333" d="M55.33,26.086a.432.432,0,1,0,.593.147.432.432,0,0,0-.593-.147" fill="#221f20"/>
        <path id="Path_3334" data-name="Path 3334" d="M56.468,26.352a.238.238,0,1,0,.327.081.238.238,0,0,0-.327-.081" fill="#221f20"/>
        <path id="Path_3335" data-name="Path 3335" d="M55.785,25.394a.238.238,0,1,0,.334-.047.239.239,0,0,0-.334.047" fill="#221f20"/>
        <path id="Path_3336" data-name="Path 3336" d="M53.4,26.989a.432.432,0,1,0,.593.147.432.432,0,0,0-.593-.147" fill="#221f20"/>
        <path id="Path_3337" data-name="Path 3337" d="M54.54,27.255a.238.238,0,1,0,.327.081.238.238,0,0,0-.327-.081" fill="#221f20"/>
        <path id="Path_3338" data-name="Path 3338" d="M53.857,26.3a.238.238,0,1,0,.334-.047.239.239,0,0,0-.334.047" fill="#221f20"/>
        <path id="Path_3339" data-name="Path 3339" d="M51.85,28.1a.432.432,0,1,0,.593.147.432.432,0,0,0-.593-.147" fill="#221f20"/>
        <path id="Path_3340" data-name="Path 3340" d="M52.988,28.368a.238.238,0,1,0,.327.081.238.238,0,0,0-.327-.081" fill="#221f20"/>
        <path id="Path_3341" data-name="Path 3341" d="M52.305,27.41a.238.238,0,1,0,.334-.047.239.239,0,0,0-.334.047" fill="#221f20"/>
        <path id="Path_3342" data-name="Path 3342" d="M50.072,29.233a.432.432,0,1,0,.608.062.433.433,0,0,0-.608-.062" fill="#221f20"/>
        <path id="Path_3343" data-name="Path 3343" d="M51.236,29.336a.238.238,0,1,0,.335.034.238.238,0,0,0-.335-.034" fill="#221f20"/>
        <path id="Path_3344" data-name="Path 3344" d="M50.426,28.484a.239.239,0,1,0,.324-.094.24.24,0,0,0-.324.094" fill="#221f20"/>
        <path id="Path_3345" data-name="Path 3345" d="M48.445,31.08a.432.432,0,1,0,.588-.164.431.431,0,0,0-.588.164" fill="#221f20"/>
        <path id="Path_3346" data-name="Path 3346" d="M49.566,30.752a.238.238,0,1,0,.325-.091.238.238,0,0,0-.325.091" fill="#221f20"/>
        <path id="Path_3347" data-name="Path 3347" d="M48.5,30.254a.239.239,0,1,0,.267-.2.238.238,0,0,0-.267.2" fill="#221f20"/>
        <path id="Path_3348" data-name="Path 3348" d="M46.922,33.223a.431.431,0,1,0,.566-.228.433.433,0,0,0-.566.228" fill="#221f20"/>
        <path id="Path_3349" data-name="Path 3349" d="M48,32.773a.239.239,0,1,0,.313-.126.239.239,0,0,0-.313.126" fill="#221f20"/>
        <path id="Path_3350" data-name="Path 3350" d="M46.885,32.4a.239.239,0,1,0,.243-.234.239.239,0,0,0-.243.234" fill="#221f20"/>
        <path id="Path_3351" data-name="Path 3351" d="M45.588,35.426a.432.432,0,1,0,.567-.228.433.433,0,0,0-.567.228" fill="#221f20"/>
        <path id="Path_3352" data-name="Path 3352" d="M46.666,34.976a.239.239,0,1,0,.313-.126.239.239,0,0,0-.313.126" fill="#221f20"/>
        <path id="Path_3353" data-name="Path 3353" d="M45.552,34.6a.239.239,0,1,0,.243-.234.239.239,0,0,0-.243.234" fill="#221f20"/>
        <path id="Path_3354" data-name="Path 3354" d="M44.518,37.626a.432.432,0,1,0,.516-.328.432.432,0,0,0-.516.328" fill="#221f20"/>
        <path id="Path_3355" data-name="Path 3355" d="M45.5,36.987a.238.238,0,1,0,.285-.181.238.238,0,0,0-.285.181" fill="#221f20"/>
        <path id="Path_3356" data-name="Path 3356" d="M44.332,36.819a.238.238,0,1,0,.2-.274.238.238,0,0,0-.2.274" fill="#221f20"/>
        <path id="Path_3357" data-name="Path 3357" d="M43.833,40.094a.432.432,0,1,0,.516-.328.432.432,0,0,0-.516.328" fill="#221f20"/>
        <path id="Path_3358" data-name="Path 3358" d="M44.811,39.454a.238.238,0,1,0,.285-.181.238.238,0,0,0-.285.181" fill="#221f20"/>
        <path id="Path_3359" data-name="Path 3359" d="M43.647,39.287a.238.238,0,1,0,.2-.274.238.238,0,0,0-.2.274" fill="#221f20"/>
        <path id="Path_3360" data-name="Path 3360" d="M43.283,42.556a.432.432,0,1,0,.516-.328.432.432,0,0,0-.516.328" fill="#221f20"/>
        <path id="Path_3361" data-name="Path 3361" d="M44.261,41.917a.238.238,0,1,0,.285-.181.237.237,0,0,0-.285.181" fill="#221f20"/>
        <path id="Path_3362" data-name="Path 3362" d="M43.1,41.749a.238.238,0,1,0,.195-.274.236.236,0,0,0-.195.274" fill="#221f20"/>
        <path id="Path_3363" data-name="Path 3363" d="M87.641,28.179a73.006,73.006,0,0,0-12.584-3.711c-7.684-1.608-14.647-1.623-20.633,1.07-5.162,2.322-10.6,7.928-11.749,17.544" fill="none" stroke="#221f20" stroke-miterlimit="10" stroke-width="0.335" stroke-dasharray="1.534 1.534"/>
      </g>
    </g>
    <g id="Group_1418" data-name="Group 1418">
      <g id="Group_1417" data-name="Group 1417" clip-path="url(#clip-path-2)">
        <path id="Path_3364" data-name="Path 3364" d="M119.295,22.962a.2.2,0,0,1,.1-.1.243.243,0,0,1,.066-.021.2.2,0,0,1,.186.078.2.2,0,0,1,.046.136.164.164,0,0,1-.074.127.22.22,0,0,1-.17.027.2.2,0,0,1-.085-.037.184.184,0,0,1-.058-.06.16.16,0,0,1-.012-.147" fill="#221f20"/>
        <path id="Path_3365" data-name="Path 3365" d="M118.5,22.21a.216.216,0,0,1,.028-.166.164.164,0,0,1,.125-.076.2.2,0,0,1,.138.044.216.216,0,0,1,.076.121.216.216,0,0,1-.021.139.2.2,0,0,1-.108.1.158.158,0,0,1-.144-.017.206.206,0,0,1-.06-.058.274.274,0,0,1-.034-.084" fill="#221f20"/>
        <path id="Path_3366" data-name="Path 3366" d="M118.932,20.773a.2.2,0,0,1,.087.116.227.227,0,0,1-.01.143.211.211,0,0,1-.1.1.2.2,0,0,1-.144.015.184.184,0,0,1-.1-.264.217.217,0,0,1,.12-.12.165.165,0,0,1,.147.009" fill="#221f20"/>
        <path id="Path_3367" data-name="Path 3367" d="M119.819,20.316a.207.207,0,0,1-.145,0,.191.191,0,0,1-.112-.09.172.172,0,0,1-.006-.147.228.228,0,0,1,.12-.114" fill="#221f20"/>
        <path id="Path_3368" data-name="Path 3368" d="M120.786,22.694a.3.3,0,0,1-.022.093.335.335,0,0,1-.041.064.187.187,0,0,1-.094.054.136.136,0,0,1-.14-.051.328.328,0,0,1-.051-.132.208.208,0,0,0-.012-.047l-.009-.006s-.008.007,0,.012" fill="#221f20"/>
        <path id="Path_3369" data-name="Path 3369" d="M121.169,20.085a.208.208,0,0,1-.36.051.19.19,0,0,1-.041-.138.168.168,0,0,1,.078-.124.221.221,0,0,1,.164-.026.19.19,0,0,1,.159.237" fill="#221f20"/>
        <path id="Path_3370" data-name="Path 3370" d="M122.158,20.538a.214.214,0,0,1,.061.153.167.167,0,0,1-.064.131.208.208,0,0,1-.28-.3.168.168,0,0,1,.135-.054.214.214,0,0,1,.148.071" fill="#221f20"/>
        <path id="Path_3371" data-name="Path 3371" d="M122.617,21.965a.2.2,0,0,1-.221-.157.205.205,0,0,1,.125-.242.166.166,0,0,1,.144.016.215.215,0,0,1,.059.054.277.277,0,0,1,.035.08.2.2,0,0,1-.142.249" fill="#221f20"/>
        <path id="Path_3372" data-name="Path 3372" d="M122.342,22.96a.2.2,0,0,1,.223-.162.194.194,0,0,1,.143.242" fill="#221f20"/>
        <path id="Path_3373" data-name="Path 3373" d="M119.677,19.969a.191.191,0,0,1,.265.1.206.206,0,0,1-.123.242" fill="#221f20"/>
        <path id="Path_3374" data-name="Path 3374" d="M122.068,24.378a.2.2,0,0,1-.1-.259.188.188,0,1,1,.1.259" fill="#221f20"/>
        <path id="Path_3375" data-name="Path 3375" d="M121.86,25.415a.2.2,0,0,1-.25.123.2.2,0,0,1-.1-.259.2.2,0,0,1,.25-.123.2.2,0,0,1,.1.259" fill="#221f20"/>
        <path id="Path_3376" data-name="Path 3376" d="M121.162,26.7a.193.193,0,0,1-.114-.251.2.2,0,0,1,.243-.139.193.193,0,0,1,.114.251.2.2,0,0,1-.243.139" fill="#221f20"/>
        <path id="Path_3377" data-name="Path 3377" d="M120.594,27.6a.188.188,0,1,1,.349.136" fill="#221f20"/>
        <path id="Path_3378" data-name="Path 3378" d="M122.707,23.041a.2.2,0,0,1-.231.16.2.2,0,0,1-.135-.241" fill="#221f20"/>
        <path id="Path_3379" data-name="Path 3379" d="M120.234,29.018a.206.206,0,0,1,.151-.382.206.206,0,0,1-.151.382" fill="#221f20"/>
        <path id="Path_3380" data-name="Path 3380" d="M120.025,30.056a.188.188,0,1,1-.348-.137.188.188,0,1,1,.348.137" fill="#221f20"/>
        <path id="Path_3381" data-name="Path 3381" d="M119.328,31.343a.194.194,0,0,1-.114-.252.2.2,0,0,1,.243-.138.194.194,0,0,1,.114.252.2.2,0,0,1-.243.138" fill="#221f20"/>
        <path id="Path_3382" data-name="Path 3382" d="M118.76,32.238a.188.188,0,1,1,.348.138" fill="#221f20"/>
        <path id="Path_3383" data-name="Path 3383" d="M120.942,27.736a.188.188,0,1,1-.349-.137" fill="#221f20"/>
        <path id="Path_3384" data-name="Path 3384" d="M119.537,33.777a.207.207,0,1,1,.086-.265.2.2,0,0,1-.086.265" fill="#221f20"/>
        <path id="Path_3385" data-name="Path 3385" d="M120.137,34.649a.188.188,0,1,1-.256-.11.2.2,0,0,1,.256.11" fill="#221f20"/>
        <path id="Path_3386" data-name="Path 3386" d="M120.577,36.045a.194.194,0,0,1-.26-.094.2.2,0,0,1,.069-.27.2.2,0,0,1,.261.093.2.2,0,0,1-.07.271" fill="#221f20"/>
        <path id="Path_3387" data-name="Path 3387" d="M120.825,37.076a.188.188,0,1,1,.341-.154" fill="#221f20"/>
        <path id="Path_3388" data-name="Path 3388" d="M119.108,32.377a.188.188,0,1,1-.341.155" fill="#221f20"/>
        <path id="Path_3389" data-name="Path 3389" d="M121.6,38.322a.207.207,0,1,1,.086-.264.2.2,0,0,1-.086.264" fill="#221f20"/>
        <path id="Path_3390" data-name="Path 3390" d="M122.2,39.195a.2.2,0,0,1-.086.264.2.2,0,0,1-.256-.111.2.2,0,0,1,.086-.264.2.2,0,0,1,.256.111" fill="#221f20"/>
        <path id="Path_3391" data-name="Path 3391" d="M122.634,40.591a.2.2,0,0,1-.259-.1.2.2,0,0,1,.07-.27.2.2,0,0,1,.261.094.2.2,0,0,1-.072.271" fill="#221f20"/>
        <path id="Path_3392" data-name="Path 3392" d="M122.8,41.624a.2.2,0,0,1,.122-.247.2.2,0,0,1,.238.148" fill="#221f20"/>
        <path id="Path_3393" data-name="Path 3393" d="M121.167,36.923a.188.188,0,1,1-.342.153" fill="#221f20"/>
        <path id="Path_3394" data-name="Path 3394" d="M123.056,43.01a.207.207,0,0,1,.053-.407.205.205,0,0,1-.053.407" fill="#221f20"/>
        <path id="Path_3395" data-name="Path 3395" d="M122.732,44.052a.211.211,0,0,1-.144.078.167.167,0,0,1-.137-.047.2.2,0,0,1,0-.273.222.222,0,0,1,.128-.072.191.191,0,0,1,.142.031.17.17,0,0,1,.07.128.211.211,0,0,1-.054.155" fill="#221f20"/>
        <path id="Path_3396" data-name="Path 3396" d="M121.372,44.67a.186.186,0,0,1,.026-.141.209.209,0,0,1,.364.013.164.164,0,0,1,0,.145.216.216,0,0,1-.127.106.229.229,0,0,1-.168-.008.171.171,0,0,1-.093-.115" fill="#221f20"/>
        <path id="Path_3397" data-name="Path 3397" d="M120.407,44.388a.205.205,0,0,1,.135.235.191.191,0,0,1-.26.118" fill="#221f20"/>
        <path id="Path_3398" data-name="Path 3398" d="M123.159,41.526a.193.193,0,0,1-.131.248.2.2,0,0,1-.231-.15" fill="#221f20"/>
        <path id="Path_3399" data-name="Path 3399" d="M119.3,43.613a.2.2,0,0,1,.145,0,.215.215,0,0,1,.109.091.176.176,0,0,1,.023.069.189.189,0,0,1,0,.071.2.2,0,0,1-.073.126.162.162,0,0,1-.143.026.193.193,0,0,1-.075-.036.286.286,0,0,1-.058-.069.217.217,0,0,1-.025-.166.167.167,0,0,1,.1-.111" fill="#221f20"/>
        <path id="Path_3400" data-name="Path 3400" d="M119,42.561a.26.26,0,0,1,.03-.085.212.212,0,0,1,.057-.062.16.16,0,0,1,.143-.024.2.2,0,0,1,.113.092.218.218,0,0,1,.024.066.174.174,0,0,1,0,.072.217.217,0,0,1-.069.124.2.2,0,0,1-.136.051.163.163,0,0,1-.129-.07.214.214,0,0,1-.036-.164" fill="#221f20"/>
        <path id="Path_3401" data-name="Path 3401" d="M120.147,41.649a.193.193,0,0,1-.031.14.212.212,0,0,1-.109.087.2.2,0,0,1-.137,0,.209.209,0,0,1-.11-.092.155.155,0,0,1-.007-.145.217.217,0,0,1,.13-.113.229.229,0,0,1,.174.009.163.163,0,0,1,.09.118" fill="#221f20"/>
        <path id="Path_3402" data-name="Path 3402" d="M120.884,42a.01.01,0,0,0,.006.012L120.9,42a.362.362,0,0,0,.01-.047.3.3,0,0,1,.044-.134.133.133,0,0,1,.137-.059.186.186,0,0,1,.1.05.3.3,0,0,1,.045.062.312.312,0,0,1,.026.091" fill="#221f20"/>
        <path id="Path_3403" data-name="Path 3403" d="M120.281,44.741a.224.224,0,0,1-.126-.108.172.172,0,0,1,0-.147.2.2,0,0,1,.108-.1.212.212,0,0,1,.145,0" fill="#221f20"/>
        <path id="Path_3404" data-name="Path 3404" d="M124.18,24.506a.2.2,0,1,1,.251-.114.2.2,0,0,1-.251.114" fill="#221f20"/>
        <path id="Path_3405" data-name="Path 3405" d="M123.954,25.526a.188.188,0,1,1-.094-.26.2.2,0,0,1,.094.26" fill="#221f20"/>
        <path id="Path_3406" data-name="Path 3406" d="M123.236,26.778a.192.192,0,0,1-.109-.252.2.2,0,0,1,.245-.13.194.194,0,0,1,.109.252.2.2,0,0,1-.245.13" fill="#221f20"/>
        <path id="Path_3407" data-name="Path 3407" d="M122.654,27.648a.188.188,0,1,1,.345.145" fill="#221f20"/>
        <path id="Path_3408" data-name="Path 3408" d="M124.909,23.259a.188.188,0,1,1-.345-.146" fill="#221f20"/>
        <path id="Path_3409" data-name="Path 3409" d="M122.271,29.04a.2.2,0,1,1,.251-.114.2.2,0,0,1-.251.114" fill="#221f20"/>
        <path id="Path_3410" data-name="Path 3410" d="M122.045,30.06a.2.2,0,0,1-.252.114.2.2,0,0,1,.158-.374.2.2,0,0,1,.094.26" fill="#221f20"/>
        <path id="Path_3411" data-name="Path 3411" d="M121.327,31.313a.192.192,0,0,1-.109-.252.2.2,0,0,1,.245-.13.194.194,0,0,1,.109.252.2.2,0,0,1-.245.13" fill="#221f20"/>
        <path id="Path_3412" data-name="Path 3412" d="M120.744,32.183a.188.188,0,1,1,.345.145" fill="#221f20"/>
        <path id="Path_3413" data-name="Path 3413" d="M123,27.793a.188.188,0,1,1-.345-.146" fill="#221f20"/>
        <path id="Path_3414" data-name="Path 3414" d="M121.54,33.7a.2.2,0,1,1,.081-.264.2.2,0,0,1-.081.264" fill="#221f20"/>
        <path id="Path_3415" data-name="Path 3415" d="M122.154,34.546a.188.188,0,1,1-.257-.1.2.2,0,0,1,.257.1" fill="#221f20"/>
        <path id="Path_3416" data-name="Path 3416" d="M122.616,35.914a.193.193,0,0,1-.261-.085.2.2,0,0,1,.065-.27.193.193,0,0,1,.261.085.2.2,0,0,1-.065.27" fill="#221f20"/>
        <path id="Path_3417" data-name="Path 3417" d="M122.881,36.926a.188.188,0,1,1,.337-.162" fill="#221f20"/>
        <path id="Path_3418" data-name="Path 3418" d="M121.09,32.328a.188.188,0,1,1-.338.162" fill="#221f20"/>
        <path id="Path_3419" data-name="Path 3419" d="M123.669,38.137a.2.2,0,1,1,.081-.264.2.2,0,0,1-.081.264" fill="#221f20"/>
        <path id="Path_3420" data-name="Path 3420" d="M124.283,38.982a.188.188,0,1,1-.257-.1.2.2,0,0,1,.257.1" fill="#221f20"/>
        <path id="Path_3421" data-name="Path 3421" d="M124.745,40.35a.193.193,0,0,1-.261-.085.2.2,0,0,1,.065-.27.193.193,0,0,1,.261.085.2.2,0,0,1-.065.27" fill="#221f20"/>
        <path id="Path_3422" data-name="Path 3422" d="M125.01,41.363a.188.188,0,1,1,.337-.162" fill="#221f20"/>
        <path id="Path_3423" data-name="Path 3423" d="M123.219,36.765a.188.188,0,1,1-.338.162" fill="#221f20"/>
        <path id="Path_3424" data-name="Path 3424" d="M127.924,28.658a.335.335,0,1,1,.474-.012.335.335,0,0,1-.474.012" fill="#221f20"/>
        <path id="Path_3425" data-name="Path 3425" d="M132.112,26.393a.336.336,0,1,1,.421-.22.336.336,0,0,1-.421.22" fill="#221f20"/>
        <path id="Path_3426" data-name="Path 3426" d="M120.3,22.225a.336.336,0,1,1,.475-.012.336.336,0,0,1-.475.012" fill="#221f20"/>
        <path id="Path_3427" data-name="Path 3427" d="M118.673,32.625a.336.336,0,1,1,.475-.012.336.336,0,0,1-.475.012" fill="#221f20"/>
        <path id="Path_3428" data-name="Path 3428" d="M120.914,43.268a.336.336,0,1,1,.475-.012.336.336,0,0,1-.475.012" fill="#221f20"/>
        <path id="Path_3429" data-name="Path 3429" d="M131.5,32.265a.336.336,0,1,1,.469.074.336.336,0,0,1-.469-.074" fill="#221f20"/>
        <path id="Path_3430" data-name="Path 3430" d="M134.107,32.247a.225.225,0,1,1,.219-.23.225.225,0,0,1-.219.23" fill="#221f20"/>
        <path id="Path_3431" data-name="Path 3431" d="M135.982,34.08a.225.225,0,1,1,.219-.23.225.225,0,0,1-.219.23" fill="#221f20"/>
        <path id="Path_3432" data-name="Path 3432" d="M137.91,32.142a.225.225,0,1,1,.219-.23.225.225,0,0,1-.219.23" fill="#221f20"/>
        <path id="Path_3433" data-name="Path 3433" d="M135.887,30.2a.225.225,0,1,1,.219-.23.225.225,0,0,1-.219.23" fill="#221f20"/>
        <path id="Path_3434" data-name="Path 3434" d="M135.247,30.875a.225.225,0,1,1,.219-.23.225.225,0,0,1-.219.23" fill="#221f20"/>
        <path id="Path_3435" data-name="Path 3435" d="M134.626,31.566a.225.225,0,1,1,.219-.23.225.225,0,0,1-.219.23" fill="#221f20"/>
        <path id="Path_3436" data-name="Path 3436" d="M137.208,32.834a.225.225,0,1,1,.219-.23.225.225,0,0,1-.219.23" fill="#221f20"/>
        <path id="Path_3437" data-name="Path 3437" d="M136.587,33.525a.225.225,0,1,1,.219-.23.225.225,0,0,1-.219.23" fill="#221f20"/>
        <path id="Path_3438" data-name="Path 3438" d="M134.661,33.009a.225.225,0,1,0-.23-.219.225.225,0,0,0,.23.219" fill="#221f20"/>
        <path id="Path_3439" data-name="Path 3439" d="M135.312,33.556a.225.225,0,1,0-.23-.219.225.225,0,0,0,.23.219" fill="#221f20"/>
        <path id="Path_3440" data-name="Path 3440" d="M136.615,30.842a.225.225,0,1,0-.23-.219.225.225,0,0,0,.23.219" fill="#221f20"/>
        <path id="Path_3441" data-name="Path 3441" d="M137.269,31.5a.225.225,0,1,0-.23-.219.225.225,0,0,0,.23.219" fill="#221f20"/>
        <path id="Path_3442" data-name="Path 3442" d="M135.681,32.061a.336.336,0,1,1,.419.224.336.336,0,0,1-.419-.224" fill="#221f20"/>
        <path id="Path_3443" data-name="Path 3443" d="M120.89,32.558a.225.225,0,1,1,.219-.23.225.225,0,0,1-.219.23" fill="#221f20"/>
        <path id="Path_3444" data-name="Path 3444" d="M125.737,24.227a.2.2,0,0,1-.284.011.188.188,0,1,1,.237-.289.2.2,0,0,1,.047.278" fill="#221f20"/>
        <path id="Path_3445" data-name="Path 3445" d="M126.7,24.736a.189.189,0,1,1-.281.022.2.2,0,0,1,.281-.022" fill="#221f20"/>
        <path id="Path_3446" data-name="Path 3446" d="M127.814,25.737a.2.2,0,0,1-.276.055.2.2,0,0,1-.088-.271.2.2,0,0,1,.275-.054.205.205,0,0,1,.089.27" fill="#221f20"/>
        <path id="Path_3447" data-name="Path 3447" d="M128.626,26.473a.2.2,0,0,1-.089-.269.2.2,0,0,1,.276-.056" fill="#221f20"/>
        <path id="Path_3448" data-name="Path 3448" d="M124.727,23.119a.189.189,0,1,1-.255.275" fill="#221f20"/>
        <path id="Path_3449" data-name="Path 3449" d="M130.052,26.988a.213.213,0,0,1-.386-.175.214.214,0,0,1,.386.175" fill="#221f20"/>
        <path id="Path_3450" data-name="Path 3450" d="M131.112,27.167a.2.2,0,0,1,.156.232.213.213,0,0,1-.409-.11.2.2,0,0,1,.253-.122" fill="#221f20"/>
        <path id="Path_3451" data-name="Path 3451" d="M132.541,27.483a.19.19,0,0,1-.186.214.2.2,0,0,1-.235-.172.2.2,0,0,1,.191-.2.23.23,0,0,1,.147.037.193.193,0,0,1,.083.121" fill="#221f20"/>
        <path id="Path_3452" data-name="Path 3452" d="M133.642,27.27a.235.235,0,0,1-.163.042.167.167,0,0,1-.124-.082.193.193,0,0,1-.016-.143.219.219,0,0,1,.087-.123" fill="#221f20"/>
        <path id="Path_3453" data-name="Path 3453" d="M128.813,26.149a.189.189,0,1,1-.188.324" fill="#221f20"/>
        <path id="Path_3454" data-name="Path 3454" d="M134.237,25.869a.158.158,0,0,1,.133.063.239.239,0,0,1,.044.173.236.236,0,0,1-.087.155.159.159,0,0,1-.145.027.206.206,0,0,1-.112-.093.219.219,0,0,1-.028-.138.214.214,0,0,1,.063-.126.2.2,0,0,1,.132-.061" fill="#221f20"/>
        <path id="Path_3455" data-name="Path 3455" d="M133.649,25.081a.217.217,0,0,1-.073-.123.2.2,0,0,1,.02-.143.162.162,0,0,1,.126-.078.233.233,0,0,1,.167.057.224.224,0,0,1,.085.154.16.16,0,0,1-.054.137.2.2,0,0,1-.138.046.219.219,0,0,1-.133-.05" fill="#221f20"/>
        <path id="Path_3456" data-name="Path 3456" d="M132.4,24.872a.154.154,0,0,1-.034-.144.232.232,0,0,1,.116-.137.278.278,0,0,1,.093-.029.254.254,0,0,1,.088.009.156.156,0,0,1,.107.1.2.2,0,0,1-.013.144.219.219,0,0,1-.1.1.212.212,0,0,1-.135.02.224.224,0,0,1-.127-.068" fill="#221f20"/>
        <path id="Path_3457" data-name="Path 3457" d="M131.9,25.865c-.018-.132.053-.243.16-.245a.209.209,0,0,1,.208.175" fill="#221f20"/>
        <path id="Path_3458" data-name="Path 3458" d="M133.427,26.964a.216.216,0,0,1,.144-.04.186.186,0,0,1,.13.063.166.166,0,0,1,.036.143.233.233,0,0,1-.1.141" fill="#221f20"/>
        <path id="Path_3459" data-name="Path 3459" d="M123.792,28.315a.162.162,0,1,1-.268-.175.162.162,0,1,1,.268.175" fill="#221f20"/>
        <path id="Path_3460" data-name="Path 3460" d="M124.556,28.673a.174.174,0,0,1-.006.248.162.162,0,1,1-.24-.212.174.174,0,0,1,.246-.036" fill="#221f20"/>
        <path id="Path_3461" data-name="Path 3461" d="M125.206,29.635a.184.184,0,0,1-.247,0,.19.19,0,0,1,.28-.249.153.153,0,0,1,.038.122.2.2,0,0,1-.071.122" fill="#221f20"/>
        <path id="Path_3462" data-name="Path 3462" d="M125.458,30.414a.179.179,0,0,1,.093-.227.172.172,0,0,1,.241.057" fill="#221f20"/>
        <path id="Path_3463" data-name="Path 3463" d="M122.882,27.586a.17.17,0,0,1,.074.24.179.179,0,0,1-.216.106" fill="#221f20"/>
        <path id="Path_3464" data-name="Path 3464" d="M126,31.391a.162.162,0,1,1-.079-.31.162.162,0,1,1,.079.31" fill="#221f20"/>
        <path id="Path_3465" data-name="Path 3465" d="M126.285,32.19a.189.189,0,1,1-.2-.155.175.175,0,0,1,.2.155" fill="#221f20"/>
        <path id="Path_3466" data-name="Path 3466" d="M125.986,33.318a.186.186,0,0,1-.161-.188A.175.175,0,0,1,126.03,33a.173.173,0,0,1,.165.187.152.152,0,0,1-.07.108.2.2,0,0,1-.139.022" fill="#221f20"/>
        <path id="Path_3467" data-name="Path 3467" d="M125.534,34a.147.147,0,0,1,.1-.077.211.211,0,0,1,.139.009.2.2,0,0,1,.1.1.153.153,0,0,1,0,.129" fill="#221f20"/>
        <path id="Path_3468" data-name="Path 3468" d="M125.792,30.245a.171.171,0,0,1-.1.229.181.181,0,0,1-.237-.059" fill="#221f20"/>
        <path id="Path_3469" data-name="Path 3469" d="M125.116,35.04a.162.162,0,1,1,.188-.259.162.162,0,1,1-.188.259" fill="#221f20"/>
        <path id="Path_3470" data-name="Path 3470" d="M124.711,35.78a.174.174,0,0,1-.247-.022.162.162,0,1,1,.227-.225.174.174,0,0,1,.02.247" fill="#221f20"/>
        <path id="Path_3471" data-name="Path 3471" d="M123.723,36.385a.182.182,0,0,1,0-.248.173.173,0,0,1,.239.037.177.177,0,0,1,0,.25.169.169,0,0,1-.242-.039" fill="#221f20"/>
        <path id="Path_3472" data-name="Path 3472" d="M122.947,36.64a.181.181,0,0,1,.225.089.172.172,0,0,1-.055.245" fill="#221f20"/>
        <path id="Path_3473" data-name="Path 3473" d="M125.874,34.156a.172.172,0,0,1-.239.066.181.181,0,0,1-.1-.223" fill="#221f20"/>
        <path id="Path_3474" data-name="Path 3474" d="M126.89,27.566a.22.22,0,1,1,.077.276.2.2,0,0,1-.077-.276" fill="#221f20"/>
        <path id="Path_3475" data-name="Path 3475" d="M125.867,27.113a.189.189,0,1,1,.285-.036.2.2,0,0,1-.285.036" fill="#221f20"/>
        <path id="Path_3476" data-name="Path 3476" d="M124.683,26.117a.2.2,0,0,1,.279-.053.209.209,0,0,1,.1.273.2.2,0,0,1-.28.053.208.208,0,0,1-.1-.273" fill="#221f20"/>
        <path id="Path_3477" data-name="Path 3477" d="M123.875,25.343a.189.189,0,1,1-.207.312" fill="#221f20"/>
        <path id="Path_3478" data-name="Path 3478" d="M128.066,28.57a.189.189,0,1,1,.207-.312" fill="#221f20"/>
        <path id="Path_3479" data-name="Path 3479" d="M126,34.376a.159.159,0,0,1,.3-.111.159.159,0,1,1-.3.111" fill="#221f20"/>
        <path id="Path_3480" data-name="Path 3480" d="M128.1,35.727a.336.336,0,1,0,.475-.012.335.335,0,0,0-.475.012" fill="#221f20"/>
        <path id="Path_3481" data-name="Path 3481" d="M132.39,37.784a.336.336,0,1,0,.431.2.336.336,0,0,0-.431-.2" fill="#221f20"/>
        <path id="Path_3482" data-name="Path 3482" d="M126.128,40.26a.213.213,0,1,1-.283,0,.2.2,0,0,1,.283,0" fill="#221f20"/>
        <path id="Path_3483" data-name="Path 3483" d="M126.823,39.416a.189.189,0,1,1-.043.28.2.2,0,0,1,.043-.28" fill="#221f20"/>
        <path id="Path_3484" data-name="Path 3484" d="M128.115,38.631a.2.2,0,0,1-.041.277.2.2,0,0,1-.284-.006.2.2,0,0,1,.039-.278.205.205,0,0,1,.286.007" fill="#221f20"/>
        <path id="Path_3485" data-name="Path 3485" d="M129.107,38.19a.189.189,0,1,1-.2-.315" fill="#221f20"/>
        <path id="Path_3486" data-name="Path 3486" d="M124.906,41.154a.2.2,0,0,1,.284-.018.2.2,0,0,1-.017.28" fill="#221f20"/>
        <path id="Path_3487" data-name="Path 3487" d="M130.3,37.291a.214.214,0,0,1-.377.194.213.213,0,0,1,.377-.194" fill="#221f20"/>
        <path id="Path_3488" data-name="Path 3488" d="M131.238,36.705a.2.2,0,0,1,.26.116.214.214,0,0,1-.4.131.2.2,0,0,1,.143-.247" fill="#221f20"/>
        <path id="Path_3489" data-name="Path 3489" d="M132.767,36.652a.2.2,0,0,1-.2.192.209.209,0,0,1-.223-.167.19.19,0,0,1,.195-.206.229.229,0,0,1,.162.049.17.17,0,0,1,.065.132" fill="#221f20"/>
        <path id="Path_3490" data-name="Path 3490" d="M133.676,37.15a.212.212,0,0,1-.093-.118.188.188,0,0,1,.009-.145.166.166,0,0,1,.119-.087.234.234,0,0,1,.165.033" fill="#221f20"/>
        <path id="Path_3491" data-name="Path 3491" d="M128.9,37.875a.189.189,0,1,1,.2.315" fill="#221f20"/>
        <path id="Path_3492" data-name="Path 3492" d="M134.538,38.2a.206.206,0,0,1-.135-.054.216.216,0,0,1-.047-.263.206.206,0,0,1,.107-.1.157.157,0,0,1,.146.02.242.242,0,0,1,.059.326.159.159,0,0,1-.13.069" fill="#221f20"/>
        <path id="Path_3493" data-name="Path 3493" d="M134.244,39.295a.237.237,0,0,1-.164.065.163.163,0,0,1-.13-.073.2.2,0,0,1-.026-.141.213.213,0,0,1,.066-.126.225.225,0,0,1,.131-.057.2.2,0,0,1,.14.039.158.158,0,0,1,.06.134.227.227,0,0,1-.077.159" fill="#221f20"/>
        <path id="Path_3494" data-name="Path 3494" d="M132.734,39.309a.2.2,0,0,1,.114-.086.215.215,0,0,1,.069-.013.283.283,0,0,1,.069.011.192.192,0,0,1,.061.034.18.18,0,0,1,.048.051.209.209,0,0,1,.036.14.157.157,0,0,1-.083.121.22.22,0,0,1-.176.01.236.236,0,0,1-.142-.118.154.154,0,0,1,0-.15" fill="#221f20"/>
        <path id="Path_3495" data-name="Path 3495" d="M132.578,38.373a.209.209,0,0,1-.2.186c-.107,0-.184-.1-.172-.237" fill="#221f20"/>
        <path id="Path_3496" data-name="Path 3496" d="M133.876,36.834a.243.243,0,0,1,.1.136.167.167,0,0,1-.03.144.185.185,0,0,1-.127.069.209.209,0,0,1-.146-.033" fill="#221f20"/>
        <path id="Path_3497" data-name="Path 3497" d="M127.117,36.868a.22.22,0,1,1,.286.022.2.2,0,0,1-.286-.022" fill="#221f20"/>
        <path id="Path_3498" data-name="Path 3498" d="M126.34,37.672a.189.189,0,1,1,.064-.28.2.2,0,0,1-.064.28" fill="#221f20"/>
        <path id="Path_3499" data-name="Path 3499" d="M125,38.441a.2.2,0,0,1,.046-.28.208.208,0,0,1,.29,0,.2.2,0,0,1-.046.28.208.208,0,0,1-.29,0" fill="#221f20"/>
        <path id="Path_3500" data-name="Path 3500" d="M123.993,38.934a.189.189,0,1,1,.222.3" fill="#221f20"/>
        <path id="Path_3501" data-name="Path 3501" d="M128.464,36.109a.189.189,0,1,1-.222-.3" fill="#221f20"/>
        <path id="Path_3502" data-name="Path 3502" d="M127.054,35.047a.169.169,0,0,1-.186.2.222.222,0,0,1-.1-.029.2.2,0,0,1-.062-.061.152.152,0,0,1,0-.145.286.286,0,0,1,.1-.1.186.186,0,0,1,.047-.028c.014,0,.026-.013.038-.01a.22.22,0,0,1,.168.172" fill="#221f20"/>
        <path id="Path_3503" data-name="Path 3503" d="M127.793,34.524a.188.188,0,1,1-.069.249.184.184,0,0,1,.069-.249" fill="#221f20"/>
        <path id="Path_3504" data-name="Path 3504" d="M129,34.109a.186.186,0,0,1-.071.248.187.187,0,0,1-.175-.331.181.181,0,0,1,.246.083" fill="#221f20"/>
        <path id="Path_3505" data-name="Path 3505" d="M129.907,34.023a.187.187,0,0,1-.214-.14.18.18,0,0,1,.133-.226" fill="#221f20"/>
        <path id="Path_3506" data-name="Path 3506" d="M126.322,34.246a.19.19,0,0,1-.091.234.176.176,0,0,1-.252-.084" fill="#221f20"/>
        <path id="Path_3507" data-name="Path 3507" d="M131.12,33.774a.179.179,0,1,1-.356-.025.179.179,0,1,1,.356.025" fill="#221f20"/>
        <path id="Path_3508" data-name="Path 3508" d="M132.059,33.781a.182.182,0,0,1,.117.233.179.179,0,1,1-.343-.1.182.182,0,0,1,.226-.131" fill="#221f20"/>
        <path id="Path_3509" data-name="Path 3509" d="M133.178,34.424a.187.187,0,0,1-.237.1.187.187,0,0,1,.143-.346.18.18,0,0,1,.094.242" fill="#221f20"/>
        <path id="Path_3510" data-name="Path 3510" d="M133.838,35.054a.185.185,0,0,1-.039-.253.182.182,0,0,1,.256-.053" fill="#221f20"/>
        <path id="Path_3511" data-name="Path 3511" d="M129.827,33.657a.179.179,0,0,1,.215.148.187.187,0,0,1-.134.218" fill="#221f20"/>
        <path id="Path_3512" data-name="Path 3512" d="M133.675,35.1a.336.336,0,1,1,.469.074.336.336,0,0,1-.469-.074" fill="#221f20"/>
        <path id="Path_3513" data-name="Path 3513" d="M125.879,30.074a.159.159,0,0,0,.3.1.159.159,0,1,0-.3-.1" fill="#221f20"/>
        <path id="Path_3514" data-name="Path 3514" d="M126.9,29.352a.219.219,0,0,1-.16.18c-.012,0-.023,0-.038-.008a.21.21,0,0,1-.048-.026.271.271,0,0,1-.1-.1.152.152,0,0,1-.007-.145.208.208,0,0,1,.059-.064.215.215,0,0,1,.1-.033.169.169,0,0,1,.2.193" fill="#221f20"/>
        <path id="Path_3515" data-name="Path 3515" d="M127.823,29.5a.187.187,0,0,1-.161.338.184.184,0,0,1-.081-.245.182.182,0,0,1,.242-.093" fill="#221f20"/>
        <path id="Path_3516" data-name="Path 3516" d="M128.9,30.171a.182.182,0,0,1-.229.125.18.18,0,0,1-.111-.235.188.188,0,0,1,.229-.121.185.185,0,0,1,.111.231" fill="#221f20"/>
        <path id="Path_3517" data-name="Path 3517" d="M129.735,30.6a.18.18,0,0,1-.144-.218.186.186,0,0,1,.207-.151" fill="#221f20"/>
        <path id="Path_3518" data-name="Path 3518" d="M125.855,30.055a.177.177,0,0,1,.248-.1.191.191,0,0,1,.1.229" fill="#221f20"/>
        <path id="Path_3519" data-name="Path 3519" d="M131.021,30.425a.179.179,0,1,1-.355.042.179.179,0,1,1,.355-.042" fill="#221f20"/>
        <path id="Path_3520" data-name="Path 3520" d="M131.834,30.019a.184.184,0,0,1,.23.115.179.179,0,1,1-.337.118.184.184,0,0,1,.107-.233" fill="#221f20"/>
        <path id="Path_3521" data-name="Path 3521" d="M133.033,29.655a.179.179,0,1,1-.3.191.187.187,0,0,1,.053-.253.183.183,0,0,1,.249.062" fill="#221f20"/>
        <path id="Path_3522" data-name="Path 3522" d="M133.9,29.308a.182.182,0,0,1-.258-.039.185.185,0,0,1,.026-.255" fill="#221f20"/>
        <path id="Path_3523" data-name="Path 3523" d="M129.8,30.236a.187.187,0,0,1,.145.211.18.18,0,0,1-.208.158" fill="#221f20"/>
        <path id="Path_3524" data-name="Path 3524" d="M133.509,28.977a.336.336,0,1,0,.465-.1.336.336,0,0,0-.465.1" fill="#221f20"/>
      </g>
    </g>
    <g id="Group_1420" data-name="Group 1420">
      <g id="Group_1419" data-name="Group 1419" clip-path="url(#clip-path)">
        <path id="Path_3526" data-name="Path 3526" d="M5.6,9.821l.16.27c12.517,6,26.571,7.684,35.879,6.006,7.371-1.331,17.4-8.4,20.955-11.051l-.974-.652c-4.55,3.279-10.873,7.653-18.369,9.7-8.721,2.382-18.968.524-26.457-1.241C10.147,11.288,5.89,9.175,5.6,9.821" fill="#c9c9c9"/>
        <path id="Path_3527" data-name="Path 3527" d="M5.6,9.821l.16.27c12.517,6,26.571,7.684,35.879,6.006,7.371-1.331,17.4-8.4,20.955-11.051l-.974-.652c-4.55,3.279-10.873,7.653-18.369,9.7-8.721,2.382-18.968.524-26.457-1.241C10.147,11.288,5.89,9.175,5.6,9.821Z" fill="none" stroke="#221f20" stroke-miterlimit="10" stroke-width="0.391"/>
        <path id="Path_3528" data-name="Path 3528" d="M61.425,4.1c.1.493,1.15.857,1.15.857l.079.066c.387-.293.6-.465.6-.465L67.486,1.3v0L65.952.235s-4.7,3.017-4.527,3.866" fill="#c9c9c9"/>
        <path id="Path_3529" data-name="Path 3529" d="M61.425,4.1c.1.493,1.15.857,1.15.857l.079.066c.387-.293.6-.465.6-.465L67.486,1.3v0L65.952.235S61.253,3.252,61.425,4.1Z" fill="none" stroke="#221f20" stroke-miterlimit="10" stroke-width="0.391"/>
      </g>
    </g>
  </g>
</svg>
