<svg xmlns="http://www.w3.org/2000/svg" xmlns:xlink="http://www.w3.org/1999/xlink" width="151.054" height="52.937" viewBox="0 0 151.054 52.937">
  <defs>
    <clipPath id="clip-path">
      <rect id="Rectangle_1944" data-name="Rectangle 1944" width="151.054" height="52.937" transform="translate(0 0)" fill="none"/>
    </clipPath>
  </defs>
  <g id="Group_1413" data-name="Group 1413" transform="translate(0 0)">
    <g id="Group_1413-2" data-name="Group 1413" clip-path="url(#clip-path)">
      <path id="Path_3092" data-name="Path 3092" d="M2.729,52.742H38.512l.269-6.938s1.5.133,4.933.522c3.877.44,10.216,1.2,19.633,2.468,10.512,1.41,36.309,4.859,53.151,3.049,14.332-1.538,33.615-4.532,34.133-4.672.459-.125.113-2.247-.063-2.87s-1.3-.926-1.3-.926L3.037,41.191Z" fill="#2e160e"/>
      <path id="Path_3093" data-name="Path 3093" d="M2.729,52.742H38.512l.269-6.938s1.5.133,4.933.522c3.877.44,10.216,1.2,19.633,2.468,10.512,1.41,36.309,4.859,53.151,3.049,14.332-1.538,33.615-4.532,34.133-4.672.459-.125.113-2.247-.063-2.87s-1.3-.926-1.3-.926L3.037,41.191Z" fill="none" stroke="#221f20" stroke-miterlimit="10" stroke-width="0.389"/>
      <path id="Path_3094" data-name="Path 3094" d="M3.037,41.191s18.606-.28,30.138.751c12.443,1.114,56.1,7.76,73.879,7.3a196.822,196.822,0,0,0,42.218-5.863,5.187,5.187,0,0,0-.611-3.383c-.845-1.507-2.527-2.784-6.5-3.407-6.747-1.055-15.713-2.351-24.095-3.422-8.877-1.137-11.5-.751-21.106-8.472l.7-.482L67.732.841l-.58.448L62.939,4.536s-.175.14-.5.389c-.067.051-.137.109-.215.168C59.493,7.187,49.4,14.58,41.436,16.017,32.143,17.695,18.1,16,5.611,9.982c-.012,0-.024-.011-.036-.015S-4.376,31.135,3.037,41.191" fill="#fff"/>
      <path id="Path_3095" data-name="Path 3095" d="M3.037,41.191s18.606-.28,30.138.751c12.443,1.114,56.1,7.76,73.879,7.3a196.822,196.822,0,0,0,42.218-5.863,5.187,5.187,0,0,0-.611-3.383c-.845-1.507-2.527-2.784-6.5-3.407-6.747-1.055-15.713-2.351-24.095-3.422-8.877-1.137-11.5-.751-21.106-8.472l.7-.482L67.732.841l-.58.448L62.939,4.536s-.175.14-.5.389c-.067.051-.137.109-.215.168C59.493,7.187,49.4,14.58,41.436,16.017,32.143,17.695,18.1,16,5.611,9.982c-.012,0-.024-.011-.036-.015S-4.376,31.135,3.037,41.191Z" fill="none" stroke="#221f20" stroke-miterlimit="10" stroke-width="0.584"/>
      <path id="Path_3096" data-name="Path 3096" d="M45.513,43.233A17.453,17.453,0,0,1,53.09,29.421a20.127,20.127,0,0,1,12.718-3.173,83.1,83.1,0,0,1,12.4,2.005,66.6,66.6,0,0,1,7.549,2.538" fill="none" stroke="#221f20" stroke-linecap="round" stroke-miterlimit="10" stroke-width="0.667"/>
      <path id="Path_3097" data-name="Path 3097" d="M38.512,52.742l5.2-6.416c-3.43-.389-4.932-.522-4.932-.522Z" fill="#160602"/>
      <path id="Path_3098" data-name="Path 3098" d="M38.512,52.742l5.2-6.416c-3.43-.389-4.932-.522-4.932-.522Z" fill="none" stroke="#2e160e" stroke-linejoin="round" stroke-width="0.389"/>
      <path id="Path_3099" data-name="Path 3099" d="M85.9,29.984q-.344-.136-.707-.277" fill="none" stroke="#221f20" stroke-miterlimit="10" stroke-width="0.333"/>
      <path id="Path_3100" data-name="Path 3100" d="M83.775,29.178a58.7,58.7,0,0,0-19.3-3.763c-12.428,0-18.509,8.535-19.6,16.345" fill="none" stroke="#221f20" stroke-miterlimit="10" stroke-width="0.333" stroke-dasharray="1.516 1.516"/>
      <path id="Path_3101" data-name="Path 3101" d="M44.783,42.515c-.025.254-.045.506-.06.758" fill="none" stroke="#221f20" stroke-miterlimit="10" stroke-width="0.333"/>
      <path id="Path_3102" data-name="Path 3102" d="M5.384,10.695q.344.165.69.327" fill="none" stroke="#221f20" stroke-miterlimit="10" stroke-width="0.333"/>
      <path id="Path_3103" data-name="Path 3103" d="M7.421,11.631c11.153,4.882,24.4,6.8,34.186,5.038a32.147,32.147,0,0,0,8.121-2.879" fill="none" stroke="#221f20" stroke-miterlimit="10" stroke-width="0.333" stroke-dasharray="1.479 1.479"/>
      <path id="Path_3104" data-name="Path 3104" d="M50.391,13.459q.341-.172.678-.35" fill="none" stroke="#221f20" stroke-miterlimit="10" stroke-width="0.333"/>
      <path id="Path_3105" data-name="Path 3105" d="M64.007,3.712c-1.113.964-7.721,5.962-9.523,7.018-1.883,1.1-4.528,4.372-4.64,4.51l-.175.218,1.5,2.347c.725.721,3.873-.681,6.386-1.984.814-.492,7.763-4.712,8.228-5.111a2.373,2.373,0,0,1,1.961.313c.337.214,3.522,2.833,6.894,5.606,3.487,2.867,7.44,6.117,9.555,7.789.3.239.582.457.843.66,2.416,1.881,2.692,2.177,1.829,3.63-.7,1.177-4.011,6.56-4.044,6.614A30.573,30.573,0,0,0,80.732,41.2l-.064.266,2.526,1.66.207-.118a19.855,19.855,0,0,0,6.463-6.751c2.3-3.829,7.008-11.042,7.28-11.421,0,0,1.146-1.724.616.489" fill="none" stroke="#221f20" stroke-linecap="round" stroke-miterlimit="10" stroke-width="0.667"/>
      <path id="Path_3106" data-name="Path 3106" d="M97.145,23.879a3.987,3.987,0,0,0-.458.613" fill="none" stroke="#221f20" stroke-miterlimit="10" stroke-width="0.333"/>
      <path id="Path_3107" data-name="Path 3107" d="M95.818,25.64c-1.68,2.221-4.527,6.736-6.621,10.221a20.665,20.665,0,0,1-4.784,5.488" fill="none" stroke="#221f20" stroke-miterlimit="10" stroke-width="0.333" stroke-dasharray="1.443 1.443"/>
      <path id="Path_3108" data-name="Path 3108" d="M83.841,41.784c-.269.195-.483.338-.625.429l-.638-.419" fill="none" stroke="#221f20" stroke-miterlimit="10" stroke-width="0.333"/>
      <path id="Path_3109" data-name="Path 3109" d="M82.194,41.541l-.638-.419c.045-.174.112-.427.2-.735" fill="none" stroke="#221f20" stroke-miterlimit="10" stroke-width="0.333"/>
      <path id="Path_3110" data-name="Path 3110" d="M82.21,38.9a22.543,22.543,0,0,1,1.291-3.2c.019-.029,3.333-5.416,4.036-6.6,1.247-2.1.29-2.843-2.021-4.642-.259-.2-.538-.419-.838-.656-2.109-1.668-6.058-4.915-9.543-7.781-4.088-3.361-6.612-5.432-6.971-5.661-.76-.484-2.226-.812-2.885-.247-.323.275-5.023,3.155-8.1,5.024-2.2,1.142-4.89,2.247-5.451,2.1l-.27-.425" fill="none" stroke="#221f20" stroke-miterlimit="10" stroke-width="0.333" stroke-dasharray="1.555 1.555"/>
      <path id="Path_3111" data-name="Path 3111" d="M51.036,16.159l-.409-.644c.116-.14.285-.34.493-.58" fill="none" stroke="#221f20" stroke-miterlimit="10" stroke-width="0.333"/>
      <path id="Path_3112" data-name="Path 3112" d="M52.219,13.721a14.232,14.232,0,0,1,2.658-2.32c1.573-.921,9.178-6.626,12.295-9.05" fill="none" stroke="#221f20" stroke-miterlimit="10" stroke-width="0.333" stroke-dasharray="1.635 1.635"/>
      <path id="Path_3113" data-name="Path 3113" d="M67.814,1.848c.274-.217.476-.381.59-.48" fill="none" stroke="#221f20" stroke-miterlimit="10" stroke-width="0.333"/>
      <path id="Path_3114" data-name="Path 3114" d="M63.572,10.3l-2.249-2.99a1.311,1.311,0,0,0-1.819-.33L57.18,8.725a1.31,1.31,0,0,0-.187,1.839l2.249,2.99a1.311,1.311,0,0,0,1.819.33l2.324-1.748a1.31,1.31,0,0,0,.187-1.839m-5.957-.2a.5.5,0,0,1,.071-.7L60.01,7.65a.5.5,0,0,1,.69.125l2.25,2.99a.5.5,0,0,1-.071.7l-2.324,1.748a.5.5,0,0,1-.691-.125Z" fill="#fff"/>
      <path id="Path_3115" data-name="Path 3115" d="M63.572,10.3l-2.249-2.99a1.311,1.311,0,0,0-1.819-.33L57.18,8.725a1.31,1.31,0,0,0-.187,1.839l2.249,2.99a1.311,1.311,0,0,0,1.819.33l2.324-1.748A1.31,1.31,0,0,0,63.572,10.3Zm-5.957-.2a.5.5,0,0,1,.071-.7L60.01,7.65a.5.5,0,0,1,.69.125l2.25,2.99a.5.5,0,0,1-.071.7l-2.324,1.748a.5.5,0,0,1-.691-.125Z" fill="none" stroke="#221f20" stroke-miterlimit="10" stroke-width="0.389"/>
      <path id="Path_3116" data-name="Path 3116" d="M60.987,9.7h0a.381.381,0,0,0,.536.071L62.4,9.1a.382.382,0,1,0-.464-.607l-.883.675a.383.383,0,0,0-.071.536" fill="#fff"/>
      <path id="Path_3117" data-name="Path 3117" d="M60.987,9.7h0a.381.381,0,0,0,.536.071L62.4,9.1a.382.382,0,1,0-.464-.607l-.883.675A.383.383,0,0,0,60.987,9.7Z" fill="none" stroke="#221f20" stroke-miterlimit="10" stroke-width="0.389"/>
      <path id="Path_3118" data-name="Path 3118" d="M90.583,31.943l-3.205-1.931a1.31,1.31,0,0,0-1.81.374l-1.5,2.49a1.31,1.31,0,0,0,.514,1.776l3.2,1.932A1.312,1.312,0,0,0,89.6,36.21l1.5-2.491a1.31,1.31,0,0,0-.514-1.776m-5.6,2.042a.5.5,0,0,1-.195-.674l1.5-2.491a.5.5,0,0,1,.687-.142l3.205,1.932a.5.5,0,0,1,.195.674l-1.5,2.491a.5.5,0,0,1-.688.142Z" fill="#fff"/>
      <path id="Path_3119" data-name="Path 3119" d="M90.583,31.943l-3.205-1.931a1.31,1.31,0,0,0-1.81.374l-1.5,2.49a1.31,1.31,0,0,0,.514,1.776l3.2,1.932A1.312,1.312,0,0,0,89.6,36.21l1.5-2.491A1.31,1.31,0,0,0,90.583,31.943Zm-5.6,2.042a.5.5,0,0,1-.195-.674l1.5-2.491a.5.5,0,0,1,.687-.142l3.205,1.932a.5.5,0,0,1,.195.674l-1.5,2.491a.5.5,0,0,1-.688.142Z" fill="none" stroke="#221f20" stroke-miterlimit="10" stroke-width="0.389"/>
      <path id="Path_3120" data-name="Path 3120" d="M88.232,32.262h0a.383.383,0,0,0,.524-.134l.54-.914a.382.382,0,1,0-.657-.389l-.541.913a.382.382,0,0,0,.134.524" fill="#fff"/>
      <path id="Path_3121" data-name="Path 3121" d="M88.232,32.262h0a.383.383,0,0,0,.524-.134l.54-.914a.382.382,0,1,0-.657-.389l-.541.913A.382.382,0,0,0,88.232,32.262Z" fill="none" stroke="#221f20" stroke-miterlimit="10" stroke-width="0.389"/>
      <path id="Path_3122" data-name="Path 3122" d="M5.575,9.772l.035.21C18.1,16,32.143,17.695,41.436,16.017,49.4,14.58,59.493,7.187,62.226,5.092l-.907-.72C56.791,7.631,50.5,11.983,43.044,14.023c-8.682,2.371-18.879.518-26.33-1.234C10.1,11.232,5.863,9.13,5.575,9.772" fill="#c1c1c1"/>
      <path id="Path_3123" data-name="Path 3123" d="M5.575,9.772l.035.21C18.1,16,32.143,17.695,41.436,16.017,49.4,14.58,59.493,7.187,62.226,5.092l-.907-.72C56.791,7.631,50.5,11.983,43.044,14.023c-8.682,2.371-18.879.518-26.33-1.234C10.1,11.232,5.863,9.13,5.575,9.772Z" fill="none" stroke="#221f20" stroke-miterlimit="10" stroke-width="0.389"/>
      <path id="Path_3124" data-name="Path 3124" d="M61.12,4.077c.1.494,1.145.853,1.145.853l.175,0c.323-.249.5-.39.5-.39l4.213-3.247L65.625.234s-4.672,3-4.505,3.843" fill="#c1c1c1"/>
      <path id="Path_3125" data-name="Path 3125" d="M61.12,4.077c.1.494,1.145.853,1.145.853l.175,0c.323-.249.5-.39.5-.39l4.213-3.247L65.625.234S60.953,3.232,61.12,4.077Z" fill="none" stroke="#221f20" stroke-miterlimit="10" stroke-width="0.389"/>
    </g>
  </g>
</svg>
