<svg id="Group_1610" data-name="Group 1610" xmlns="http://www.w3.org/2000/svg" xmlns:xlink="http://www.w3.org/1999/xlink" width="155.958" height="54.659" viewBox="0 0 155.958 54.659">
  <defs>
    <clipPath id="clip-path">
      <rect id="Rectangle_2135" data-name="Rectangle 2135" width="155.958" height="54.659" fill="none"/>
    </clipPath>
  </defs>
  <g id="Group_1610-2" data-name="Group 1610" transform="translate(0 0)" clip-path="url(#clip-path)">
    <path id="Path_13355" data-name="Path 13355" d="M.2,54.458H37.146l.277-7.163s1.551.137,5.093.539c4,.454,10.547,1.242,20.271,2.544,10.853,1.455,37.487,5.017,54.876,3.151,14.8-1.591,34.705-4.678,35.24-4.823.474-.129.116-2.319-.064-2.967-.177-.627-1.339-.952-1.339-.952L.515,42.532Z" transform="translate(2.618 -0.001)" fill="#2e160e"/>
    <path id="Path_13356" data-name="Path 13356" d="M.2,54.458H37.146l.277-7.163s1.551.137,5.093.539c4,.454,10.547,1.242,20.271,2.544,10.853,1.455,37.487,5.017,54.876,3.151,14.8-1.591,34.705-4.678,35.24-4.823.474-.129.116-2.319-.064-2.967-.177-.627-1.339-.952-1.339-.952L.515,42.532Z" transform="translate(2.618 -0.001)" fill="none" stroke="#221f20" stroke-miterlimit="10" stroke-width="0.402"/>
    <path id="Path_13357" data-name="Path 13357" d="M4.6,42.532s19.214-.293,31.12.776C48.569,44.457,93.645,51.319,112,50.841a203.583,203.583,0,0,0,43.588-6.054,5.366,5.366,0,0,0-.631-3.5c-.872-1.556-2.608-2.87-6.712-3.513-6.966-1.094-16.224-2.428-24.882-3.537-9.161-1.17-11.87-.776-21.786-8.747l.723-.5L71.4.873l-.6.458v0L66.452,4.683s-.217.177-.615.478c-.245.193-.555.431-.928.7-3.65,2.721-13.084,9.3-20.657,10.672-9.563,1.725-24-.008-36.86-6.17-.057-.024-.109-.048-.165-.076,0,0-10.274,21.854-2.625,32.241" transform="translate(-1.469 0)" fill="#fff"/>
    <path id="Path_13358" data-name="Path 13358" d="M4.6,42.532s19.214-.293,31.12.776C48.569,44.457,93.645,51.319,112,50.841a203.583,203.583,0,0,0,43.588-6.054,5.366,5.366,0,0,0-.631-3.5c-.872-1.556-2.608-2.87-6.712-3.513-6.966-1.094-16.224-2.428-24.882-3.537-9.161-1.17-11.87-.776-21.786-8.747l.723-.5L71.4.873l-.6.458v0L66.452,4.683s-.217.177-.615.478c-.245.193-.555.431-.928.7-3.65,2.721-13.084,9.3-20.657,10.672-9.563,1.725-24-.008-36.86-6.17-.057-.024-.109-.048-.165-.076C7.227,10.291-3.047,32.145,4.6,42.532Z" transform="translate(-1.469 0)" fill="none" stroke="#221f20" stroke-miterlimit="10" stroke-width="0.603"/>
    <path id="Path_13359" data-name="Path 13359" d="M67.419,44.638a18.017,18.017,0,0,1,7.823-14.26A20.78,20.78,0,0,1,88.373,27.1a85.847,85.847,0,0,1,12.8,2.07,68.667,68.667,0,0,1,7.794,2.62" transform="translate(-20.428 0)" fill="none" stroke="#221f20" stroke-linecap="round" stroke-miterlimit="10" stroke-width="0.688"/>
    <path id="Path_13360" data-name="Path 13360" d="M110.824,54.458l5.37-6.624c-3.541-.4-5.093-.539-5.093-.539Z" transform="translate(-71.06 -0.001)" fill="#160602"/>
    <path id="Path_13361" data-name="Path 13361" d="M110.824,54.458l5.37-6.624c-3.541-.4-5.093-.539-5.093-.539Z" transform="translate(-71.06 -0.001)" fill="none" stroke="#2e160e" stroke-linejoin="round" stroke-width="0.402"/>
    <path id="Path_13362" data-name="Path 13362" d="M149.686,11.044c.236.114.474.227.712.338" transform="translate(-144.126 0)" fill="none" stroke="#221f20" stroke-miterlimit="10" stroke-width="0.344"/>
    <path id="Path_13363" data-name="Path 13363" d="M104.615,12.011c11.515,5.041,25.193,7.023,35.295,5.2a33.13,33.13,0,0,0,8.385-2.973" transform="translate(-96.952 0)" fill="none" stroke="#221f20" stroke-miterlimit="10" stroke-width="0.344" stroke-dasharray="1.527 1.527"/>
    <path id="Path_13364" data-name="Path 13364" d="M103.23,13.9c.235-.119.468-.24.7-.361" transform="translate(-51.202 0)" fill="none" stroke="#221f20" stroke-miterlimit="10" stroke-width="0.344"/>
    <path id="Path_13365" data-name="Path 13365" d="M69.682,3.835c-1.149.995-7.971,6.155-9.832,7.245-1.944,1.139-4.675,4.514-4.791,4.658l-.18.224,1.55,2.423c.749.745,4-.7,6.594-2.048.84-.508,8.014-4.865,8.5-5.277a2.45,2.45,0,0,1,2.024.323c.348.222,3.636,2.925,7.118,5.788,3.6,2.96,7.682,6.316,9.865,8.042.311.246.6.472.87.682,2.495,1.942,2.78,2.247,1.889,3.747-.723,1.216-4.141,6.773-4.175,6.829a31.539,31.539,0,0,0-2.159,6.073l-.066.274,2.608,1.714.213-.121a20.53,20.53,0,0,0,6.674-6.97c2.375-3.954,7.234-11.4,7.516-11.792,0,0,1.182-1.78.635.5" transform="translate(-3.596 0)" fill="none" stroke="#221f20" stroke-linecap="round" stroke-miterlimit="10" stroke-width="0.688"/>
    <path id="Path_13366" data-name="Path 13366" d="M56.132,24.656a4.13,4.13,0,0,0-.473.633" transform="translate(44.167 0)" fill="none" stroke="#221f20" stroke-miterlimit="10" stroke-width="0.344"/>
    <path id="Path_13367" data-name="Path 13367" d="M68.8,26.474c-1.735,2.293-4.675,6.955-6.836,10.552a21.347,21.347,0,0,1-4.936,5.665" transform="translate(30.128 0)" fill="none" stroke="#221f20" stroke-miterlimit="10" stroke-width="0.344" stroke-dasharray="1.49 1.49"/>
    <path id="Path_13368" data-name="Path 13368" d="M70.7,43.14c-.279.2-.5.35-.648.444l-.659-.432" transform="translate(15.867 -0.001)" fill="none" stroke="#221f20" stroke-miterlimit="10" stroke-width="0.344"/>
    <path id="Path_13369" data-name="Path 13369" d="M71.754,42.891l-.659-.433c.047-.179.116-.44.206-.758" transform="translate(13.109 -0.001)" fill="none" stroke="#221f20" stroke-miterlimit="10" stroke-width="0.344"/>
    <path id="Path_13370" data-name="Path 13370" d="M96.764,40.165a23.417,23.417,0,0,1,1.333-3.3c.02-.03,3.441-5.592,4.167-6.813,1.287-2.167.3-2.936-2.086-4.792-.268-.209-.556-.433-.866-.678-2.177-1.722-6.255-5.075-9.853-8.033-4.22-3.47-6.826-5.609-7.2-5.845-.786-.5-2.3-.838-2.98-.255-.333.284-5.185,3.258-8.365,5.187-2.277,1.179-5.049,2.32-5.628,2.168l-.279-.438" transform="translate(-11.885 0)" fill="none" stroke="#221f20" stroke-miterlimit="10" stroke-width="0.344" stroke-dasharray="1.606 1.606"/>
    <path id="Path_13371" data-name="Path 13371" d="M103.6,16.685l-.422-.665c.12-.144.294-.351.508-.6" transform="translate(-50.906 0)" fill="none" stroke="#221f20" stroke-miterlimit="10" stroke-width="0.344"/>
    <path id="Path_13372" data-name="Path 13372" d="M86.6,14.169a14.738,14.738,0,0,1,2.744-2.395c1.624-.951,9.476-6.841,12.694-9.344" transform="translate(-32.69 0)" fill="none" stroke="#221f20" stroke-miterlimit="10" stroke-width="0.344" stroke-dasharray="1.688 1.688"/>
    <path id="Path_13373" data-name="Path 13373" d="M85.332,1.91c.283-.224.492-.394.609-.495" transform="translate(-15.315 0)" fill="none" stroke="#221f20" stroke-miterlimit="10" stroke-width="0.344"/>
    <path id="Path_13374" data-name="Path 13374" d="M97.114,10.633,94.792,7.546A1.354,1.354,0,0,0,92.914,7.2l-2.4,1.8a1.353,1.353,0,0,0-.193,1.9L92.644,14a1.352,1.352,0,0,0,1.878.341l2.4-1.8a1.353,1.353,0,0,0,.193-1.9m-6.15-.207a.515.515,0,0,1,.073-.721l2.4-1.8a.514.514,0,0,1,.713.13l2.322,3.087a.514.514,0,0,1-.073.72l-2.4,1.8a.514.514,0,0,1-.713-.129Z" transform="translate(-31.478 0)" fill="#fff"/>
    <path id="Path_13375" data-name="Path 13375" d="M97.114,10.633,94.792,7.546A1.354,1.354,0,0,0,92.914,7.2l-2.4,1.8a1.353,1.353,0,0,0-.193,1.9L92.644,14a1.352,1.352,0,0,0,1.878.341l2.4-1.8A1.353,1.353,0,0,0,97.114,10.633Zm-6.15-.207a.515.515,0,0,1,.073-.721l2.4-1.8a.514.514,0,0,1,.713.13l2.322,3.087a.514.514,0,0,1-.073.72l-2.4,1.8a.514.514,0,0,1-.713-.129Z" transform="translate(-31.478 0)" fill="none" stroke="#221f20" stroke-miterlimit="10" stroke-width="0.402"/>
    <path id="Path_13376" data-name="Path 13376" d="M91.453,10.017h0a.4.4,0,0,0,.553.074l.911-.7a.395.395,0,0,0-.479-.627l-.911.7a.4.4,0,0,0-.074.553" transform="translate(-28.486 0)" fill="#fff"/>
    <path id="Path_13377" data-name="Path 13377" d="M91.453,10.017h0a.4.4,0,0,0,.553.074l.911-.7a.395.395,0,0,0-.479-.627l-.911.7A.4.4,0,0,0,91.453,10.017Z" transform="translate(-28.486 0)" fill="none" stroke="#221f20" stroke-miterlimit="10" stroke-width="0.402"/>
    <path id="Path_13378" data-name="Path 13378" d="M68.63,32.983l-3.309-1.994a1.353,1.353,0,0,0-1.869.386L61.9,33.946a1.352,1.352,0,0,0,.531,1.833l3.308,1.995a1.353,1.353,0,0,0,1.869-.386l1.551-2.572a1.354,1.354,0,0,0-.531-1.833m-5.782,2.108a.514.514,0,0,1-.2-.7L64.2,31.824a.513.513,0,0,1,.709-.147l3.308,1.995a.513.513,0,0,1,.2.7l-1.55,2.571a.515.515,0,0,1-.71.147Z" transform="translate(24.895 0)" fill="#fff"/>
    <path id="Path_13379" data-name="Path 13379" d="M68.63,32.983l-3.309-1.994a1.353,1.353,0,0,0-1.869.386L61.9,33.946a1.352,1.352,0,0,0,.531,1.833l3.308,1.995a1.353,1.353,0,0,0,1.869-.386l1.551-2.572A1.354,1.354,0,0,0,68.63,32.983Zm-5.782,2.108a.514.514,0,0,1-.2-.7L64.2,31.824a.513.513,0,0,1,.709-.147l3.308,1.995a.513.513,0,0,1,.2.7l-1.55,2.571a.515.515,0,0,1-.71.147Z" transform="translate(24.895 0)" fill="none" stroke="#221f20" stroke-miterlimit="10" stroke-width="0.402"/>
    <path id="Path_13380" data-name="Path 13380" d="M63.9,33.311h0a.4.4,0,0,0,.541-.139L65,32.229a.395.395,0,0,0-.679-.4l-.559.943a.4.4,0,0,0,.139.541" transform="translate(27.196 0)" fill="#fff"/>
    <path id="Path_13381" data-name="Path 13381" d="M63.9,33.311h0a.4.4,0,0,0,.541-.139L65,32.229a.395.395,0,0,0-.679-.4l-.559.943A.4.4,0,0,0,63.9,33.311Z" transform="translate(27.196 0)" fill="none" stroke="#221f20" stroke-miterlimit="10" stroke-width="0.402"/>
    <path id="Path_13382" data-name="Path 13382" d="M149.312,43.789c-.252-13.4-11.176-15.969-20.815-18.233-1.626-.382-3.161-.742-4.652-1.151-2.878-.788-4.8-2.225-5.715-4.271-1.694-3.793.661-8.633.685-8.68" transform="translate(-110.872 0)" fill="none" stroke="#221f20" stroke-linecap="round" stroke-miterlimit="10" stroke-width="0.688"/>
    <path id="Path_13383" data-name="Path 13383" d="M68,30.96c-.236-.094-.48-.189-.73-.286" transform="translate(20.69 0)" fill="none" stroke="#221f20" stroke-miterlimit="10" stroke-width="0.344"/>
    <path id="Path_13384" data-name="Path 13384" d="M109.627,30.127A60.6,60.6,0,0,0,89.7,26.242c-12.831,0-19.11,8.812-20.24,16.875" transform="translate(-23.132 0)" fill="none" stroke="#221f20" stroke-miterlimit="10" stroke-width="0.344" stroke-dasharray="1.565 1.565"/>
    <path id="Path_13385" data-name="Path 13385" d="M109.782,43.9q-.039.393-.062.782" transform="translate(-63.544 -0.001)" fill="none" stroke="#221f20" stroke-miterlimit="10" stroke-width="0.344"/>
    <path id="Path_13386" data-name="Path 13386" d="M33.324,34.7a.212.212,0,1,1,.088-.272.2.2,0,0,1-.088.272" transform="translate(89.484 0)" fill="#221f20"/>
    <path id="Path_13387" data-name="Path 13387" d="M32.884,35.6a.193.193,0,1,1-.263-.113.2.2,0,0,1,.263.113" transform="translate(90.541 -0.001)" fill="#221f20"/>
    <path id="Path_13388" data-name="Path 13388" d="M32.276,37.032a.2.2,0,0,1-.267-.1.206.206,0,0,1,.071-.278.2.2,0,0,1,.269.1.2.2,0,0,1-.073.278" transform="translate(91.6 -0.001)" fill="#221f20"/>
    <path id="Path_13389" data-name="Path 13389" d="M31.5,38.09a.193.193,0,1,1,.351-.158" transform="translate(92.636 -0.001)" fill="#221f20"/>
    <path id="Path_13390" data-name="Path 13390" d="M31.209,39.371A.212.212,0,1,1,31.3,39.1a.2.2,0,0,1-.088.271" transform="translate(93.714 -0.001)" fill="#221f20"/>
    <path id="Path_13391" data-name="Path 13391" d="M30.769,40.268a.2.2,0,0,1-.088.271.2.2,0,0,1-.263-.114.2.2,0,0,1,.088-.271.2.2,0,0,1,.263.114" transform="translate(94.771 -0.001)" fill="#221f20"/>
    <path id="Path_13392" data-name="Path 13392" d="M30.16,41.7a.2.2,0,0,1-.266-.1.2.2,0,0,1,.072-.277.2.2,0,0,1,.268.1.2.2,0,0,1-.074.278" transform="translate(95.83 -0.001)" fill="#221f20"/>
    <path id="Path_13393" data-name="Path 13393" d="M29.437,42.762a.205.205,0,0,1,.126-.253.2.2,0,0,1,.245.152" transform="translate(96.721 -0.001)" fill="#221f20"/>
    <path id="Path_13394" data-name="Path 13394" d="M31.806,37.933a.193.193,0,1,1-.351.157" transform="translate(92.677 -0.001)" fill="#221f20"/>
    <path id="Path_13395" data-name="Path 13395" d="M29.461,44.187a.213.213,0,0,1,.055-.418.211.211,0,0,1-.055.418" transform="translate(96.962 -0.001)" fill="#221f20"/>
    <path id="Path_13396" data-name="Path 13396" d="M30.156,45.257a.216.216,0,0,1-.148.08.167.167,0,0,1-.141-.049.208.208,0,0,1,0-.28.224.224,0,0,1,.13-.074.2.2,0,0,1,.146.032.169.169,0,0,1,.072.131.218.218,0,0,1-.055.16" transform="translate(95.935 -0.001)" fill="#221f20"/>
    <path id="Path_13397" data-name="Path 13397" d="M30.852,45.893a.187.187,0,0,1,.027-.145A.205.205,0,0,1,31,45.656a.211.211,0,0,1,.257.105.166.166,0,0,1,0,.149.214.214,0,0,1-.13.109.23.23,0,0,1-.172-.008.175.175,0,0,1-.1-.118" transform="translate(93.842 -0.001)" fill="#221f20"/>
    <path id="Path_13398" data-name="Path 13398" d="M32.242,45.6a.21.21,0,0,1,.138.242.2.2,0,0,1-.266.121" transform="translate(91.459 -0.001)" fill="#221f20"/>
    <path id="Path_13399" data-name="Path 13399" d="M29.792,42.662a.2.2,0,0,1-.135.255.205.205,0,0,1-.236-.155" transform="translate(96.737 -0.001)" fill="#221f20"/>
    <path id="Path_13400" data-name="Path 13400" d="M33.2,44.806a.207.207,0,0,1,.149,0,.219.219,0,0,1,.112.094.181.181,0,0,1,.024.071.2.2,0,0,1,0,.073.209.209,0,0,1-.076.128.167.167,0,0,1-.147.028.223.223,0,0,1-.076-.037.276.276,0,0,1-.059-.071.221.221,0,0,1-.026-.171.165.165,0,0,1,.1-.114" transform="translate(89.364 -0.001)" fill="#221f20"/>
    <path id="Path_13401" data-name="Path 13401" d="M33.324,43.725a.279.279,0,0,1,.031-.088.219.219,0,0,1,.058-.063.167.167,0,0,1,.148-.025.217.217,0,0,1,.115.1.2.2,0,0,1,.025.067.188.188,0,0,1,0,.075.222.222,0,0,1-.071.127.2.2,0,0,1-.14.052.17.17,0,0,1-.132-.071.227.227,0,0,1-.037-.169" transform="translate(88.932 -0.001)" fill="#221f20"/>
    <path id="Path_13402" data-name="Path 13402" d="M32.94,42.789a.2.2,0,0,1-.032.144.221.221,0,0,1-.112.09.21.21,0,0,1-.14,0,.217.217,0,0,1-.114-.094.165.165,0,0,1-.007-.15.222.222,0,0,1,.134-.115.237.237,0,0,1,.179.009.169.169,0,0,1,.092.121" transform="translate(90.495 -0.001)" fill="#221f20"/>
    <path id="Path_13403" data-name="Path 13403" d="M31.384,43.147a.01.01,0,0,0,.006.012l.009-.006a.218.218,0,0,0,.01-.05.314.314,0,0,1,.046-.137A.138.138,0,0,1,31.6,42.9a.2.2,0,0,1,.1.052.308.308,0,0,1,.045.063.3.3,0,0,1,.027.094" transform="translate(92.808 -0.001)" fill="#221f20"/>
    <path id="Path_13404" data-name="Path 13404" d="M32.4,45.965a.235.235,0,0,1-.129-.111.174.174,0,0,1,0-.151.192.192,0,0,1,.11-.1.212.212,0,0,1,.149,0" transform="translate(91.168 -0.001)" fill="#221f20"/>
    <path id="Path_13405" data-name="Path 13405" d="M30.808,35.491a.193.193,0,1,1-.264-.1.2.2,0,0,1,.264.1" transform="translate(94.689 -0.001)" fill="#221f20"/>
    <path id="Path_13406" data-name="Path 13406" d="M30.189,36.9a.2.2,0,0,1-.268-.088.2.2,0,0,1,.066-.277.2.2,0,0,1,.269.088.2.2,0,0,1-.067.277" transform="translate(95.782 -0.001)" fill="#221f20"/>
    <path id="Path_13407" data-name="Path 13407" d="M29.39,37.937a.193.193,0,1,1,.347-.167" transform="translate(96.853 -0.001)" fill="#221f20"/>
    <path id="Path_13408" data-name="Path 13408" d="M29.085,39.18a.209.209,0,1,1,.083-.271.2.2,0,0,1-.083.271" transform="translate(97.968 -0.001)" fill="#221f20"/>
    <path id="Path_13409" data-name="Path 13409" d="M28.621,40.049a.193.193,0,1,1-.264-.1.2.2,0,0,1,.264.1" transform="translate(99.063 -0.001)" fill="#221f20"/>
    <path id="Path_13410" data-name="Path 13410" d="M28,41.454a.2.2,0,0,1-.268-.088.2.2,0,0,1,.066-.277.2.2,0,0,1,.269.088.2.2,0,0,1-.067.277" transform="translate(100.157 -0.001)" fill="#221f20"/>
    <path id="Path_13411" data-name="Path 13411" d="M27.2,42.494a.193.193,0,1,1,.347-.167" transform="translate(101.227 -0.001)" fill="#221f20"/>
    <path id="Path_13412" data-name="Path 13412" d="M29.693,37.771a.193.193,0,1,1-.347.166" transform="translate(96.897 -0.001)" fill="#221f20"/>
    <path id="Path_13413" data-name="Path 13413" d="M31.259,44.452a.345.345,0,1,1,.488-.012.346.346,0,0,1-.488.012" transform="translate(92.964 -0.001)" fill="#221f20"/>
    <path id="Path_13414" data-name="Path 13414" d="M27.219,36a.166.166,0,1,1,.193-.266.167.167,0,1,1-.193.266" transform="translate(101.321 -0.001)" fill="#221f20"/>
    <path id="Path_13415" data-name="Path 13415" d="M28.1,36.759a.18.18,0,0,1-.254-.022.166.166,0,1,1,.233-.232.179.179,0,0,1,.021.254" transform="translate(100.02 -0.001)" fill="#221f20"/>
    <path id="Path_13416" data-name="Path 13416" d="M28.6,37.38a.187.187,0,0,1,0-.254.176.176,0,0,1,.246.038.181.181,0,0,1,0,.256.174.174,0,0,1-.249-.04" transform="translate(98.513 -0.001)" fill="#221f20"/>
    <path id="Path_13417" data-name="Path 13417" d="M29.387,37.643a.185.185,0,0,1,.231.092.176.176,0,0,1-.056.251" transform="translate(96.924 -0.001)" fill="#221f20"/>
    <path id="Path_13418" data-name="Path 13418" d="M26.2,35.316a.163.163,0,1,1,.21.1.162.162,0,0,1-.21-.1" transform="translate(103.246 0)" fill="#221f20"/>
    <path id="Path_13419" data-name="Path 13419" d="M23.857,36.7a.345.345,0,1,0,.488-.012.346.346,0,0,0-.488.012" transform="translate(107.744 -0.001)" fill="#221f20"/>
    <path id="Path_13420" data-name="Path 13420" d="M19.707,38.818a.345.345,0,1,0,.443.2.346.346,0,0,0-.443-.2" transform="translate(116.306 -0.001)" fill="#221f20"/>
    <path id="Path_13421" data-name="Path 13421" d="M26.7,41.361a.219.219,0,1,1-.291,0,.206.206,0,0,1,.291,0" transform="translate(102.878 -0.001)" fill="#221f20"/>
    <path id="Path_13422" data-name="Path 13422" d="M25.42,40.494a.194.194,0,1,1-.044.288.206.206,0,0,1,.044-.288" transform="translate(104.873 -0.001)" fill="#221f20"/>
    <path id="Path_13423" data-name="Path 13423" d="M24.673,39.688a.2.2,0,0,1-.042.285.211.211,0,0,1-.292-.007.2.2,0,0,1,.041-.285.209.209,0,0,1,.293.007" transform="translate(106.948 -0.001)" fill="#221f20"/>
    <path id="Path_13424" data-name="Path 13424" d="M23.633,39.235a.194.194,0,1,1-.209-.323" transform="translate(109.007 -0.001)" fill="#221f20"/>
    <path id="Path_13425" data-name="Path 13425" d="M27.292,42.28a.206.206,0,0,1,.292-.019.208.208,0,0,1-.017.288" transform="translate(101.032 -0.001)" fill="#221f20"/>
    <path id="Path_13426" data-name="Path 13426" d="M22.479,38.312a.219.219,0,0,1-.387.2.219.219,0,0,1,.387-.2" transform="translate(111.39 -0.001)" fill="#221f20"/>
    <path id="Path_13427" data-name="Path 13427" d="M21.011,37.709a.2.2,0,0,1,.268.12.22.22,0,0,1-.414.134.2.2,0,0,1,.146-.254" transform="translate(113.818 -0.001)" fill="#221f20"/>
    <path id="Path_13428" data-name="Path 13428" d="M19.994,37.655a.209.209,0,0,1-.2.2.215.215,0,0,1-.229-.172.2.2,0,0,1,.2-.211.228.228,0,0,1,.166.051.173.173,0,0,1,.067.135" transform="translate(116.406 -0.001)" fill="#221f20"/>
    <path id="Path_13429" data-name="Path 13429" d="M18.526,38.167a.217.217,0,0,1-.095-.121.189.189,0,0,1,.009-.149.17.17,0,0,1,.122-.09.241.241,0,0,1,.169.035" transform="translate(118.807 -0.001)" fill="#221f20"/>
    <path id="Path_13430" data-name="Path 13430" d="M23.212,38.911a.205.205,0,0,1,.288.045.208.208,0,0,1-.08.279" transform="translate(109.22 -0.001)" fill="#221f20"/>
    <path id="Path_13431" data-name="Path 13431" d="M17.779,39.249a.207.207,0,0,1-.138-.056.221.221,0,0,1-.049-.269.209.209,0,0,1,.11-.1.162.162,0,0,1,.15.02.249.249,0,0,1,.06.335.161.161,0,0,1-.133.071" transform="translate(120.44 -0.001)" fill="#221f20"/>
    <path id="Path_13432" data-name="Path 13432" d="M18.294,40.37a.239.239,0,0,1-.169.066.164.164,0,0,1-.133-.074.2.2,0,0,1-.027-.146.219.219,0,0,1,.2-.187.209.209,0,0,1,.143.04.163.163,0,0,1,.062.138.23.23,0,0,1-.079.163" transform="translate(119.623 -0.001)" fill="#221f20"/>
    <path id="Path_13433" data-name="Path 13433" d="M19.2,40.385a.209.209,0,0,1,.117-.089.228.228,0,0,1,.072-.013.351.351,0,0,1,.07.011.174.174,0,0,1,.062.036.178.178,0,0,1,.05.052.219.219,0,0,1,.037.144.164.164,0,0,1-.085.125.234.234,0,0,1-.182.01.25.25,0,0,1-.145-.121.161.161,0,0,1,0-.155" transform="translate(117.162 -0.001)" fill="#221f20"/>
    <path id="Path_13434" data-name="Path 13434" d="M20.135,39.423a.215.215,0,0,1-.2.191c-.11,0-.189-.106-.177-.243" transform="translate(116.07 -0.001)" fill="#221f20"/>
    <path id="Path_13435" data-name="Path 13435" d="M18.515,37.842a.235.235,0,0,1,.1.14.172.172,0,0,1-.029.148.194.194,0,0,1-.132.071.224.224,0,0,1-.149-.034" transform="translate(119.024 -0.001)" fill="#221f20"/>
    <path id="Path_13436" data-name="Path 13436" d="M25,37.877a.226.226,0,1,1,.294.023A.209.209,0,0,1,25,37.877" transform="translate(105.592 -0.001)" fill="#221f20"/>
    <path id="Path_13437" data-name="Path 13437" d="M26.389,38.7a.195.195,0,1,1,.066-.287.209.209,0,0,1-.066.287" transform="translate(103.408 -0.001)" fill="#221f20"/>
    <path id="Path_13438" data-name="Path 13438" d="M27.195,39.493a.2.2,0,0,1,.047-.288.216.216,0,0,1,.3,0,.206.206,0,0,1-.047.289.215.215,0,0,1-.3-.005" transform="translate(101.223 -0.001)" fill="#221f20"/>
    <path id="Path_13439" data-name="Path 13439" d="M28.245,40a.195.195,0,1,1,.228.31" transform="translate(99.141 -0.001)" fill="#221f20"/>
    <path id="Path_13440" data-name="Path 13440" d="M24.305,37.1a.195.195,0,1,1-.228-.31" transform="translate(107.675 -0.001)" fill="#221f20"/>
    <path id="Path_13441" data-name="Path 13441" d="M25.8,36.006a.173.173,0,0,1-.191.208.222.222,0,0,1-.1-.029.21.21,0,0,1-.063-.063.155.155,0,0,1,0-.149.292.292,0,0,1,.1-.1.19.19,0,0,1,.048-.028c.015,0,.027-.013.039-.01a.225.225,0,0,1,.173.176" transform="translate(104.732 -0.001)" fill="#221f20"/>
    <path id="Path_13442" data-name="Path 13442" d="M24.485,35.469a.193.193,0,1,1-.071.256.189.189,0,0,1,.071-.256" transform="translate(106.805 -0.001)" fill="#221f20"/>
    <path id="Path_13443" data-name="Path 13443" d="M26.52,35.183a.2.2,0,0,1-.093.24.182.182,0,0,1-.26-.086" transform="translate(103.258 -0.001)" fill="#221f20"/>
    <path id="Path_13444" data-name="Path 13444" d="M91.646,10.09l.165.277c12.859,6.162,27.3,7.895,36.86,6.17,7.573-1.366,17.879-8.631,21.529-11.352l-1-.67c-4.675,3.368-11.171,7.862-18.872,9.964-8.96,2.448-19.487.539-27.181-1.274-6.833-1.608-11.207-3.778-11.5-3.115" transform="translate(-85.888 0)" fill="#c9c9c9"/>
    <path id="Path_13445" data-name="Path 13445" d="M91.646,10.09l.165.277c12.859,6.162,27.3,7.895,36.86,6.17,7.573-1.366,17.879-8.631,21.529-11.352l-1-.67c-4.675,3.368-11.171,7.862-18.872,9.964-8.96,2.448-19.487.539-27.181-1.274C96.313,11.6,91.939,9.427,91.646,10.09Z" transform="translate(-85.888 0)" fill="none" stroke="#221f20" stroke-miterlimit="10" stroke-width="0.402"/>
    <path id="Path_13446" data-name="Path 13446" d="M86.631,4.213c.1.506,1.182.88,1.182.88l.08.069c.4-.3.615-.479.615-.479l4.349-3.348v0L91.282.242s-4.828,3.1-4.651,3.971" transform="translate(-23.525 0)" fill="#c9c9c9"/>
    <path id="Path_13447" data-name="Path 13447" d="M86.631,4.213c.1.506,1.182.88,1.182.88l.08.069c.4-.3.615-.479.615-.479l4.349-3.348v0L91.282.242S86.454,3.341,86.631,4.213Z" transform="translate(-23.525 0)" fill="none" stroke="#221f20" stroke-miterlimit="10" stroke-width="0.402"/>
  </g>
</svg>
