<svg xmlns="http://www.w3.org/2000/svg" xmlns:xlink="http://www.w3.org/1999/xlink" width="151.806" height="52.849" viewBox="0 0 151.806 52.849">
  <defs>
    <clipPath id="clip-path">
      <rect id="Rectangle_1938" data-name="Rectangle 1938" width="151.806" height="52.849" transform="translate(0 0)" fill="none"/>
    </clipPath>
  </defs>
  <g id="Group_1404" data-name="Group 1404" transform="translate(0 0)">
    <g id="Group_1404-2" data-name="Group 1404" clip-path="url(#clip-path)">
      <path id="Path_2345" data-name="Path 2345" d="M2.744,52.654H38.705l.27-6.972s1.51.133,4.957.524c3.9.442,10.267,1.209,19.732,2.481,10.564,1.416,36.489,4.879,53.415,3.063,14.4-1.549,33.781-4.554,34.3-4.695.462-.125.113-2.258-.063-2.887-.172-.611-1.3-.928-1.3-.928L3.049,41.045Z" fill="#2e160e"/>
      <path id="Path_2346" data-name="Path 2346" d="M2.744,52.654H38.705l.27-6.972s1.51.133,4.957.524c3.9.442,10.267,1.209,19.732,2.481,10.564,1.416,36.489,4.879,53.415,3.063,14.4-1.549,33.781-4.554,34.3-4.695.462-.125.113-2.258-.063-2.887-.172-.611-1.3-.928-1.3-.928L3.049,41.045Z" fill="none" stroke="#221f20" stroke-miterlimit="10" stroke-width="0.391"/>
      <path id="Path_2347" data-name="Path 2347" d="M84.456,13.9c.069-.088-7.4-5.379-10.293-8.27a20.228,20.228,0,0,0-3.778-2.9A3.943,3.943,0,0,0,69.378,2.2c-.221.3,14.979,11.82,15.078,11.693" fill="#c1c1c1"/>
      <path id="Path_2348" data-name="Path 2348" d="M84.456,13.9c.069-.088-7.4-5.379-10.293-8.27a20.228,20.228,0,0,0-3.778-2.9A3.943,3.943,0,0,0,69.378,2.2C69.157,2.508,84.357,14.023,84.456,13.9Z" fill="none" stroke="#221f20" stroke-miterlimit="10" stroke-width="0.196"/>
      <path id="Path_2349" data-name="Path 2349" d="M3.049,41.045s18.7-.282,30.292.755c12.5,1.119,56.381,7.8,74.246,7.332a197.876,197.876,0,0,0,42.428-5.892,5.224,5.224,0,0,0-.614-3.4c-.849-1.514-2.539-2.794-6.534-3.42-6.781-1.064-15.792-2.363-24.219-3.439-8.917-1.142-13.386-1.479-23.2-10.239-7.051-5.853-18.82-15-20.123-15.854-1.463-.959-2.692-1.765-3.776-2.4-3.255-1.9-5.219-2.218-8.3-.277,0,0-.239.191-.673.524-.282.219-.654.5-1.1.825l-2.238.169c-4.276,2.962-9.723,6.3-15.991,8.013-8.721,2.386-18.968.524-26.457-1.237-4.316-1.013-7.622-2.257-9.488-2.828l-1.456.109L5.6,9.666s-10,21.273-2.555,31.379" fill="#fff"/>
      <path id="Path_2350" data-name="Path 2350" d="M3.049,41.045s18.7-.282,30.292.755c12.5,1.119,56.381,7.8,74.246,7.332a197.876,197.876,0,0,0,42.428-5.892,5.224,5.224,0,0,0-.614-3.4c-.849-1.514-2.539-2.794-6.534-3.42-6.781-1.064-15.792-2.363-24.219-3.439-8.917-1.142-13.386-1.479-23.2-10.239-7.051-5.853-18.82-15-20.123-15.854-1.463-.959-2.692-1.765-3.776-2.4-3.255-1.9-5.219-2.218-8.3-.277,0,0-.239.191-.673.524-.282.219-.654.5-1.1.825l-2.238.169c-4.276,2.962-9.723,6.3-15.991,8.013-8.721,2.386-18.968.524-26.457-1.237-4.316-1.013-7.622-2.257-9.488-2.828l-1.456.109L5.6,9.666S-4.4,30.939,3.049,41.045Z" fill="none" stroke="#221f20" stroke-miterlimit="10" stroke-width="0.587"/>
      <path id="Path_2351" data-name="Path 2351" d="M45.74,43.1a17.536,17.536,0,0,1,7.615-13.88,20.228,20.228,0,0,1,12.781-3.19A83.554,83.554,0,0,1,78.6,28.042a97.02,97.02,0,0,1,12.575,4.63,69.344,69.344,0,0,0,4.744-5.917c.611-.853,1.715-2.243-1.146-4.579" fill="none" stroke="#221f20" stroke-linecap="round" stroke-miterlimit="10" stroke-width="0.67"/>
      <path id="Path_2352" data-name="Path 2352" d="M90.6,23.749a.57.57,0,1,0,.571-.571A.571.571,0,0,0,90.6,23.749Z" fill="none" stroke="#221f20" stroke-miterlimit="10" stroke-width="0.391"/>
      <path id="Path_2353" data-name="Path 2353" d="M85.4,19.6a.57.57,0,1,0,.571-.571A.571.571,0,0,0,85.4,19.6Z" fill="none" stroke="#221f20" stroke-miterlimit="10" stroke-width="0.391"/>
      <path id="Path_2354" data-name="Path 2354" d="M80.171,15.314a.57.57,0,1,0,.571-.571A.57.57,0,0,0,80.171,15.314Z" fill="none" stroke="#221f20" stroke-miterlimit="10" stroke-width="0.391"/>
      <path id="Path_2355" data-name="Path 2355" d="M74.882,11.832a.57.57,0,1,0,.571-.571A.571.571,0,0,0,74.882,11.832Z" fill="none" stroke="#221f20" stroke-miterlimit="10" stroke-width="0.391"/>
      <path id="Path_2356" data-name="Path 2356" d="M69.048,8.224a.571.571,0,1,0,.571-.571A.571.571,0,0,0,69.048,8.224Z" fill="none" stroke="#221f20" stroke-miterlimit="10" stroke-width="0.391"/>
      <path id="Path_2357" data-name="Path 2357" d="M93.914,21.472s.916-2.051-.869.142c-.868,1.067-1.875,2.136-1.875,2.136" fill="none" stroke="#221f20" stroke-miterlimit="10" stroke-width="1.174"/>
      <path id="Path_2358" data-name="Path 2358" d="M88.626,17.2s.629-1.886-.677-.3c-.875,1.061-1.874,2.6-1.874,2.6" fill="none" stroke="#221f20" stroke-miterlimit="10" stroke-width="1.174"/>
      <path id="Path_2359" data-name="Path 2359" d="M83.485,13.037s.916-2.051-.869.142c-.868,1.067-1.875,2.136-1.875,2.136" fill="none" stroke="#221f20" stroke-miterlimit="10" stroke-width="1.174"/>
      <path id="Path_2360" data-name="Path 2360" d="M78.361,9.227s.916-2.051-.869.142c-.868,1.067-2.039,2.463-2.039,2.463" fill="none" stroke="#221f20" stroke-miterlimit="10" stroke-width="1.174"/>
      <path id="Path_2361" data-name="Path 2361" d="M72.847,4.611s1.215-1.9-1.182.514A12.672,12.672,0,0,0,69.79,8.1" fill="none" stroke="#221f20" stroke-miterlimit="10" stroke-width="1.174"/>
      <path id="Path_2362" data-name="Path 2362" d="M38.705,52.654l5.227-6.448c-3.447-.391-4.957-.524-4.957-.524Z" fill="#160602"/>
      <path id="Path_2363" data-name="Path 2363" d="M38.705,52.654l5.227-6.448c-3.447-.391-4.957-.524-4.957-.524Z" fill="none" stroke="#2e160e" stroke-linejoin="round" stroke-width="0.391"/>
      <path id="Path_2364" data-name="Path 2364" d="M110.062,31.652a145.631,145.631,0,0,1,0,17.274" fill="none" stroke="#221f20" stroke-miterlimit="10" stroke-width="0.335" stroke-dasharray="1.534 1.534"/>
      <path id="Path_2365" data-name="Path 2365" d="M109.119,31.42s.956,15.905,0,17.643" fill="none" stroke="#221f20" stroke-linecap="round" stroke-miterlimit="10" stroke-width="0.67"/>
      <path id="Path_2366" data-name="Path 2366" d="M111.354,34.022a.432.432,0,1,0,.432-.432.431.431,0,0,0-.432.432" fill="#221f20"/>
      <path id="Path_2367" data-name="Path 2367" d="M112.17,33.185a.239.239,0,1,0,.238-.238.238.238,0,0,0-.238.238" fill="#221f20"/>
      <path id="Path_2368" data-name="Path 2368" d="M111,33.274a.238.238,0,1,0,.132-.31.238.238,0,0,0-.132.31" fill="#221f20"/>
      <path id="Path_2369" data-name="Path 2369" d="M111.327,36.091a.432.432,0,1,0,.432-.432.431.431,0,0,0-.432.432" fill="#221f20"/>
      <path id="Path_2370" data-name="Path 2370" d="M112.143,35.255a.239.239,0,1,0,.238-.238.238.238,0,0,0-.238.238" fill="#221f20"/>
      <path id="Path_2371" data-name="Path 2371" d="M110.97,35.344a.238.238,0,1,0,.132-.31.238.238,0,0,0-.132.31" fill="#221f20"/>
      <path id="Path_2372" data-name="Path 2372" d="M111.3,38.161a.432.432,0,1,0,.432-.432.431.431,0,0,0-.432.432" fill="#221f20"/>
      <path id="Path_2373" data-name="Path 2373" d="M112.115,37.325a.239.239,0,1,0,.238-.238.238.238,0,0,0-.238.238" fill="#221f20"/>
      <path id="Path_2374" data-name="Path 2374" d="M110.943,37.414a.238.238,0,1,0,.132-.31.238.238,0,0,0-.132.31" fill="#221f20"/>
      <path id="Path_2375" data-name="Path 2375" d="M111.272,40.124a.432.432,0,1,0,.432-.432.431.431,0,0,0-.432.432" fill="#221f20"/>
      <path id="Path_2376" data-name="Path 2376" d="M112.088,39.288a.239.239,0,1,0,.238-.238.238.238,0,0,0-.238.238" fill="#221f20"/>
      <path id="Path_2377" data-name="Path 2377" d="M110.915,39.377a.238.238,0,1,0,.132-.31.238.238,0,0,0-.132.31" fill="#221f20"/>
      <path id="Path_2378" data-name="Path 2378" d="M111.327,42.087a.432.432,0,1,0,.432-.432.431.431,0,0,0-.432.432" fill="#221f20"/>
      <path id="Path_2379" data-name="Path 2379" d="M112.143,41.251a.239.239,0,1,0,.238-.238.238.238,0,0,0-.238.238" fill="#221f20"/>
      <path id="Path_2380" data-name="Path 2380" d="M110.97,41.339a.238.238,0,1,0,.132-.31.238.238,0,0,0-.132.31" fill="#221f20"/>
      <path id="Path_2381" data-name="Path 2381" d="M111.412,44.049a.432.432,0,1,0,.432-.432.431.431,0,0,0-.432.432" fill="#221f20"/>
      <path id="Path_2382" data-name="Path 2382" d="M112.228,43.213a.239.239,0,1,0,.238-.238.238.238,0,0,0-.238.238" fill="#221f20"/>
      <path id="Path_2383" data-name="Path 2383" d="M111.055,43.3a.238.238,0,1,0,.132-.31.238.238,0,0,0-.132.31" fill="#221f20"/>
      <path id="Path_2384" data-name="Path 2384" d="M111.385,46.012a.432.432,0,1,0,.432-.432.431.431,0,0,0-.432.432" fill="#221f20"/>
      <path id="Path_2385" data-name="Path 2385" d="M112.2,45.176a.239.239,0,1,0,.238-.238.238.238,0,0,0-.238.238" fill="#221f20"/>
      <path id="Path_2386" data-name="Path 2386" d="M111.028,45.265a.238.238,0,1,0,.132-.31.238.238,0,0,0-.132.31" fill="#221f20"/>
      <path id="Path_2387" data-name="Path 2387" d="M111.533,47.975a.432.432,0,1,0,.432-.432.431.431,0,0,0-.432.432" fill="#221f20"/>
      <path id="Path_2388" data-name="Path 2388" d="M112.349,47.139a.238.238,0,1,0,.238-.238.238.238,0,0,0-.238.238" fill="#221f20"/>
      <path id="Path_2389" data-name="Path 2389" d="M111.176,47.228a.238.238,0,1,0,.132-.31.238.238,0,0,0-.132.31" fill="#221f20"/>
      <path id="Path_2390" data-name="Path 2390" d="M112.826,32.3s.918,10.075.29,16.645" fill="none" stroke="#221f20" stroke-miterlimit="10" stroke-width="0.335" stroke-dasharray="1.534 1.534"/>
      <path id="Path_2391" data-name="Path 2391" d="M37.352,42.137C37.107,29.091,26.473,26.593,17.091,24.39c-1.582-.372-3.077-.723-4.528-1.121C9.761,22.5,7.89,21.1,7,19.112c-1.649-3.692.644-8.4.666-8.449" fill="none" stroke="#221f20" stroke-linecap="round" stroke-miterlimit="10" stroke-width="0.67"/>
      <path id="Path_2392" data-name="Path 2392" d="M6.922,10.447c-.1.2-2.436,4.947-.638,8.98.989,2.218,3.032,3.765,6.073,4.6,1.464.4,2.966.753,4.556,1.126,9.549,2.244,19.424,4.563,19.657,17" fill="none" stroke="#221f20" stroke-miterlimit="10" stroke-width="0.335" stroke-dasharray="1.534 1.534"/>
      <path id="Path_2393" data-name="Path 2393" d="M5.25,10.459c11.6,5.6,25.964,7.886,36.4,6C50.9,14.8,62.7,5.433,63.421,4.859c3.14-2.052,5.013-1.328,10.731,2.423l2.372,1.736c1.2.785,10.962,8.454,18.246,14.5,0,0,2.194,1-.3,4.085A51.069,51.069,0,0,1,90.7,31.852s-12.763-6.6-26.066-6.6S45.268,34.983,44.785,43.2" fill="none" stroke="#221f20" stroke-miterlimit="10" stroke-width="0.335" stroke-dasharray="1.534 1.534"/>
      <line id="Line_10" data-name="Line 10" x1="2.541" y1="1.225" transform="translate(88.322 30.501)" fill="none" stroke="#221f20" stroke-miterlimit="10" stroke-width="0.783"/>
      <path id="Path_2394" data-name="Path 2394" d="M18.636,26.516a.432.432,0,1,1-.534.3.432.432,0,0,1,.534-.3" fill="#221f20"/>
      <path id="Path_2395" data-name="Path 2395" d="M17.608,27.071a.239.239,0,1,1-.3.164.238.238,0,0,1,.3-.164" fill="#221f20"/>
      <path id="Path_2396" data-name="Path 2396" d="M18.015,25.968a.239.239,0,1,1-.335.042.239.239,0,0,1,.335-.042" fill="#221f20"/>
      <path id="Path_2397" data-name="Path 2397" d="M20.477,26.884a.432.432,0,1,1-.485.372.432.432,0,0,1,.485-.372" fill="#221f20"/>
      <path id="Path_2398" data-name="Path 2398" d="M19.542,27.584a.239.239,0,1,1-.267.2.238.238,0,0,1,.267-.2" fill="#221f20"/>
      <path id="Path_2399" data-name="Path 2399" d="M19.783,26.433a.238.238,0,1,1-.325.09.238.238,0,0,1,.325-.09" fill="#221f20"/>
      <path id="Path_2400" data-name="Path 2400" d="M22.354,27.425a.432.432,0,1,1-.458.4.432.432,0,0,1,.458-.4" fill="#221f20"/>
      <path id="Path_2401" data-name="Path 2401" d="M21.468,28.186a.238.238,0,1,1-.253.223.239.239,0,0,1,.253-.223" fill="#221f20"/>
      <path id="Path_2402" data-name="Path 2402" d="M21.631,27.021a.238.238,0,1,1-.318.112.238.238,0,0,1,.318-.112" fill="#221f20"/>
      <path id="Path_2403" data-name="Path 2403" d="M24.369,28.02a.432.432,0,1,1-.459.4.433.433,0,0,1,.459-.4" fill="#221f20"/>
      <path id="Path_2404" data-name="Path 2404" d="M23.482,28.78a.239.239,0,1,1-.255.222.238.238,0,0,1,.255-.222" fill="#221f20"/>
      <path id="Path_2405" data-name="Path 2405" d="M23.647,27.615a.239.239,0,1,1-.318.111.237.237,0,0,1,.318-.111" fill="#221f20"/>
      <path id="Path_2406" data-name="Path 2406" d="M26.368,29.016a.432.432,0,1,1-.523.316.432.432,0,0,1,.523-.316" fill="#221f20"/>
      <path id="Path_2407" data-name="Path 2407" d="M25.36,29.607a.239.239,0,1,1-.289.174.238.238,0,0,1,.289-.174" fill="#221f20"/>
      <path id="Path_2408" data-name="Path 2408" d="M25.728,28.49a.238.238,0,1,1-.333.054.238.238,0,0,1,.333-.054" fill="#221f20"/>
      <path id="Path_2409" data-name="Path 2409" d="M28.141,30.01a.432.432,0,1,1-.593.147.432.432,0,0,1,.593-.147" fill="#221f20"/>
      <path id="Path_2410" data-name="Path 2410" d="M27,30.276a.238.238,0,1,1-.327.081A.238.238,0,0,1,27,30.276" fill="#221f20"/>
      <path id="Path_2411" data-name="Path 2411" d="M27.686,29.318a.238.238,0,1,1-.334-.047.239.239,0,0,1,.334.047" fill="#221f20"/>
      <path id="Path_2412" data-name="Path 2412" d="M29.849,31.185a.432.432,0,1,1-.593.147.432.432,0,0,1,.593-.147" fill="#221f20"/>
      <path id="Path_2413" data-name="Path 2413" d="M28.711,31.451a.238.238,0,1,1-.327.081.238.238,0,0,1,.327-.081" fill="#221f20"/>
      <path id="Path_2414" data-name="Path 2414" d="M29.394,30.493a.238.238,0,1,1-.334-.047.239.239,0,0,1,.334.047" fill="#221f20"/>
      <path id="Path_2415" data-name="Path 2415" d="M31.424,32.228a.433.433,0,1,1-.594.147.433.433,0,0,1,.594-.147" fill="#221f20"/>
      <path id="Path_2416" data-name="Path 2416" d="M30.286,32.494a.238.238,0,1,1-.327.081.238.238,0,0,1,.327-.081" fill="#221f20"/>
      <path id="Path_2417" data-name="Path 2417" d="M30.968,31.536a.238.238,0,1,1-.334-.047.239.239,0,0,1,.334.047" fill="#221f20"/>
      <path id="Path_2418" data-name="Path 2418" d="M32.662,33.573a.432.432,0,1,1-.608.062.433.433,0,0,1,.608-.062" fill="#221f20"/>
      <path id="Path_2419" data-name="Path 2419" d="M31.5,33.676a.238.238,0,1,1-.335.034.238.238,0,0,1,.335-.034" fill="#221f20"/>
      <path id="Path_2420" data-name="Path 2420" d="M32.309,32.824a.239.239,0,1,1-.324-.094.239.239,0,0,1,.324.094" fill="#221f20"/>
      <path id="Path_2421" data-name="Path 2421" d="M33.579,35.29a.432.432,0,1,1-.589-.164.433.433,0,0,1,.589.164" fill="#221f20"/>
      <path id="Path_2422" data-name="Path 2422" d="M32.458,34.962a.239.239,0,1,1-.326-.091.239.239,0,0,1,.326.091" fill="#221f20"/>
      <path id="Path_2423" data-name="Path 2423" d="M33.523,34.464a.239.239,0,1,1-.267-.205.238.238,0,0,1,.267.205" fill="#221f20"/>
      <path id="Path_2424" data-name="Path 2424" d="M34.738,37.042a.432.432,0,1,1-.567-.228.433.433,0,0,1,.567.228" fill="#221f20"/>
      <path id="Path_2425" data-name="Path 2425" d="M33.66,36.592a.239.239,0,1,1-.313-.126.239.239,0,0,1,.313.126" fill="#221f20"/>
      <path id="Path_2426" data-name="Path 2426" d="M34.774,36.215a.239.239,0,1,1-.243-.234.239.239,0,0,1,.243.234" fill="#221f20"/>
      <path id="Path_2427" data-name="Path 2427" d="M35.286,39.055a.432.432,0,1,1-.567-.228.433.433,0,0,1,.567.228" fill="#221f20"/>
      <path id="Path_2428" data-name="Path 2428" d="M34.208,38.6a.239.239,0,1,1-.313-.126.239.239,0,0,1,.313.126" fill="#221f20"/>
      <path id="Path_2429" data-name="Path 2429" d="M35.322,38.228a.239.239,0,1,1-.243-.234.239.239,0,0,1,.243.234" fill="#221f20"/>
      <path id="Path_2430" data-name="Path 2430" d="M35.713,41.172a.432.432,0,1,1-.516-.328.432.432,0,0,1,.516.328" fill="#221f20"/>
      <path id="Path_2431" data-name="Path 2431" d="M34.735,40.533a.238.238,0,1,1-.285-.181.238.238,0,0,1,.285.181" fill="#221f20"/>
      <path id="Path_2432" data-name="Path 2432" d="M35.9,40.365a.238.238,0,1,1-.2-.274.238.238,0,0,1,.2.274" fill="#221f20"/>
      <path id="Path_2433" data-name="Path 2433" d="M16.685,25.922a.432.432,0,1,1-.534.3.432.432,0,0,1,.534-.3" fill="#221f20"/>
      <path id="Path_2434" data-name="Path 2434" d="M15.658,26.477a.239.239,0,1,1-.3.164.238.238,0,0,1,.3-.164" fill="#221f20"/>
      <path id="Path_2435" data-name="Path 2435" d="M16.064,25.374a.239.239,0,1,1-.335.042.239.239,0,0,1,.335-.042" fill="#221f20"/>
      <path id="Path_2436" data-name="Path 2436" d="M14.769,25.617a.432.432,0,1,1-.534.3.432.432,0,0,1,.534-.3" fill="#221f20"/>
      <path id="Path_2437" data-name="Path 2437" d="M13.741,26.173a.239.239,0,1,1-.3.164.238.238,0,0,1,.3-.164" fill="#221f20"/>
      <path id="Path_2438" data-name="Path 2438" d="M14.148,25.069a.239.239,0,1,1-.335.042.239.239,0,0,1,.335-.042" fill="#221f20"/>
      <path id="Path_2439" data-name="Path 2439" d="M12.93,25.133a.432.432,0,1,1-.534.3.432.432,0,0,1,.534-.3" fill="#221f20"/>
      <path id="Path_2440" data-name="Path 2440" d="M11.9,25.688a.239.239,0,1,1-.3.164.238.238,0,0,1,.3-.164" fill="#221f20"/>
      <path id="Path_2441" data-name="Path 2441" d="M12.309,24.585a.239.239,0,1,1-.335.042.239.239,0,0,1,.335-.042" fill="#221f20"/>
      <path id="Path_2442" data-name="Path 2442" d="M11.285,24.656a.432.432,0,1,1-.534.3.432.432,0,0,1,.534-.3" fill="#221f20"/>
      <path id="Path_2443" data-name="Path 2443" d="M10.257,25.211a.239.239,0,1,1-.3.164.238.238,0,0,1,.3-.164" fill="#221f20"/>
      <path id="Path_2444" data-name="Path 2444" d="M10.664,24.108a.239.239,0,1,1-.335.042.239.239,0,0,1,.335-.042" fill="#221f20"/>
      <path id="Path_2445" data-name="Path 2445" d="M9.648,24.471a.432.432,0,1,1-.583.183.431.431,0,0,1,.583-.183" fill="#221f20"/>
      <path id="Path_2446" data-name="Path 2446" d="M8.53,24.807a.239.239,0,1,1-.323.1.239.239,0,0,1,.323-.1" fill="#221f20"/>
      <path id="Path_2447" data-name="Path 2447" d="M9.151,23.809a.239.239,0,0,1-.363.31.239.239,0,1,1,.363-.31" fill="#221f20"/>
      <path id="Path_2448" data-name="Path 2448" d="M8.148,23.19a.432.432,0,1,1-.609.054.433.433,0,0,1,.609-.054" fill="#221f20"/>
      <path id="Path_2449" data-name="Path 2449" d="M6.983,23.279a.239.239,0,1,1-.336.03.238.238,0,0,1,.336-.03" fill="#221f20"/>
      <path id="Path_2450" data-name="Path 2450" d="M7.8,22.437a.241.241,0,0,1-.1.323.239.239,0,0,1-.226-.421.24.24,0,0,1,.324.1" fill="#221f20"/>
      <path id="Path_2451" data-name="Path 2451" d="M6.827,22a.432.432,0,1,1-.61-.037.432.432,0,0,1,.61.037" fill="#221f20"/>
      <path id="Path_2452" data-name="Path 2452" d="M5.662,21.915a.238.238,0,1,1-.337-.02.24.24,0,0,1,.337.02" fill="#221f20"/>
      <path id="Path_2453" data-name="Path 2453" d="M6.6,21.2a.238.238,0,1,1-.3-.145.24.24,0,0,1,.3.145" fill="#221f20"/>
      <path id="Path_2454" data-name="Path 2454" d="M5.694,20.358a.432.432,0,1,1-.6-.094.433.433,0,0,1,.6.094" fill="#221f20"/>
      <path id="Path_2455" data-name="Path 2455" d="M4.543,20.164a.238.238,0,1,1-.333-.052.238.238,0,0,1,.333.052" fill="#221f20"/>
      <path id="Path_2456" data-name="Path 2456" d="M5.542,19.544a.238.238,0,1,1-.29-.173.239.239,0,0,1,.29.173" fill="#221f20"/>
      <path id="Path_2457" data-name="Path 2457" d="M4.983,18.8a.432.432,0,1,1-.517-.325.432.432,0,0,1,.517.325" fill="#221f20"/>
      <path id="Path_2458" data-name="Path 2458" d="M4,18.169a.238.238,0,1,1-.285-.18.238.238,0,0,1,.285.18" fill="#221f20"/>
      <path id="Path_2459" data-name="Path 2459" d="M5.166,18a.239.239,0,1,1-.2-.273.239.239,0,0,1,.2.273" fill="#221f20"/>
      <path id="Path_2460" data-name="Path 2460" d="M4.733,16.872a.432.432,0,1,1-.453-.41.432.432,0,0,1,.453.41" fill="#221f20"/>
      <path id="Path_2461" data-name="Path 2461" d="M3.876,16.078a.238.238,0,1,1-.25-.226.237.237,0,0,1,.25.226" fill="#221f20"/>
      <path id="Path_2462" data-name="Path 2462" d="M5.052,16.107a.239.239,0,1,1-.148-.3.239.239,0,0,1,.148.3" fill="#221f20"/>
      <path id="Path_2463" data-name="Path 2463" d="M2.831,17.6c2.414,15.34,29.126,5.493,31.4,24.146" fill="none" stroke="#221f20" stroke-miterlimit="10" stroke-width="0.335" stroke-dasharray="1.534 1.534"/>
      <path id="Path_2464" data-name="Path 2464" d="M90.3,30.491c0-6.461-20.216-19.576-24.694-21.5a40,40,0,0,0-5.251-1.343" fill="none" stroke="#221f20" stroke-miterlimit="10" stroke-width="0.335" stroke-dasharray="1.534 1.534"/>
      <path id="Path_2465" data-name="Path 2465" d="M66.112,11.388a.432.432,0,1,0-.082-.6.431.431,0,0,0,.082.6" fill="#221f20"/>
      <path id="Path_2466" data-name="Path 2466" d="M65.941,10.233A.238.238,0,1,0,65.9,9.9a.238.238,0,0,0,.045.334" fill="#221f20"/>
      <path id="Path_2467" data-name="Path 2467" d="M65.3,11.22a.238.238,0,1,0-.167-.293.238.238,0,0,0,.167.293" fill="#221f20"/>
      <path id="Path_2468" data-name="Path 2468" d="M67.743,12.664a.432.432,0,1,0-.082-.6.431.431,0,0,0,.082.6" fill="#221f20"/>
      <path id="Path_2469" data-name="Path 2469" d="M67.572,11.508a.238.238,0,1,0-.045-.334.238.238,0,0,0,.045.334" fill="#221f20"/>
      <path id="Path_2470" data-name="Path 2470" d="M66.932,12.495a.238.238,0,1,0-.167-.293.238.238,0,0,0,.167.293" fill="#221f20"/>
      <path id="Path_2471" data-name="Path 2471" d="M69.493,13.581a.432.432,0,1,0-.082-.605.431.431,0,0,0,.082.605" fill="#221f20"/>
      <path id="Path_2472" data-name="Path 2472" d="M69.322,12.425a.238.238,0,1,0-.045-.334.238.238,0,0,0,.045.334" fill="#221f20"/>
      <path id="Path_2473" data-name="Path 2473" d="M68.682,13.412a.238.238,0,1,0-.167-.293.238.238,0,0,0,.167.293" fill="#221f20"/>
      <path id="Path_2474" data-name="Path 2474" d="M71.067,14.553a.432.432,0,1,0-.082-.605.431.431,0,0,0,.082.605" fill="#221f20"/>
      <path id="Path_2475" data-name="Path 2475" d="M70.9,13.4a.238.238,0,1,0-.045-.334.238.238,0,0,0,.045.334" fill="#221f20"/>
      <path id="Path_2476" data-name="Path 2476" d="M70.257,14.384a.238.238,0,1,0-.167-.293.238.238,0,0,0,.167.293" fill="#221f20"/>
      <path id="Path_2477" data-name="Path 2477" d="M72.513,15.7a.432.432,0,1,0-.082-.605.431.431,0,0,0,.082.605" fill="#221f20"/>
      <path id="Path_2478" data-name="Path 2478" d="M72.342,14.543a.238.238,0,1,0-.045-.334.238.238,0,0,0,.045.334" fill="#221f20"/>
      <path id="Path_2479" data-name="Path 2479" d="M71.7,15.53a.238.238,0,1,0-.167-.293.238.238,0,0,0,.167.293" fill="#221f20"/>
      <path id="Path_2480" data-name="Path 2480" d="M74.078,16.566a.432.432,0,1,0-.082-.6.431.431,0,0,0,.082.6" fill="#221f20"/>
      <path id="Path_2481" data-name="Path 2481" d="M73.907,15.41a.238.238,0,1,0-.045-.334.238.238,0,0,0,.045.334" fill="#221f20"/>
      <path id="Path_2482" data-name="Path 2482" d="M73.267,16.4A.238.238,0,1,0,73.1,16.1a.238.238,0,0,0,.167.293" fill="#221f20"/>
      <path id="Path_2483" data-name="Path 2483" d="M75.672,17.761a.432.432,0,1,0-.082-.6.431.431,0,0,0,.082.6" fill="#221f20"/>
      <path id="Path_2484" data-name="Path 2484" d="M75.5,16.606a.238.238,0,1,0-.045-.334.238.238,0,0,0,.045.334" fill="#221f20"/>
      <path id="Path_2485" data-name="Path 2485" d="M74.861,17.592a.238.238,0,1,0-.167-.293.238.238,0,0,0,.167.293" fill="#221f20"/>
      <path id="Path_2486" data-name="Path 2486" d="M77.323,18.866a.432.432,0,1,0-.082-.6.431.431,0,0,0,.082.6" fill="#221f20"/>
      <path id="Path_2487" data-name="Path 2487" d="M77.152,17.711a.238.238,0,1,0-.045-.334.238.238,0,0,0,.045.334" fill="#221f20"/>
      <path id="Path_2488" data-name="Path 2488" d="M76.512,18.7a.238.238,0,1,0-.167-.293.238.238,0,0,0,.167.293" fill="#221f20"/>
      <path id="Path_2489" data-name="Path 2489" d="M78.921,20.148a.432.432,0,1,0-.082-.605.431.431,0,0,0,.082.605" fill="#221f20"/>
      <path id="Path_2490" data-name="Path 2490" d="M78.751,18.992a.238.238,0,1,0-.046-.334.238.238,0,0,0,.046.334" fill="#221f20"/>
      <path id="Path_2491" data-name="Path 2491" d="M78.111,19.979a.238.238,0,1,0-.167-.293.238.238,0,0,0,.167.293" fill="#221f20"/>
      <path id="Path_2492" data-name="Path 2492" d="M80.317,21.175a.432.432,0,1,0-.015-.611.433.433,0,0,0,.015.611" fill="#221f20"/>
      <path id="Path_2493" data-name="Path 2493" d="M80.273,20.008a.239.239,0,1,0-.009-.337.238.238,0,0,0,.009.337" fill="#221f20"/>
      <path id="Path_2494" data-name="Path 2494" d="M79.53,20.919a.238.238,0,1,0-.134-.309.239.239,0,0,0,.134.309" fill="#221f20"/>
      <path id="Path_2495" data-name="Path 2495" d="M81.81,22.4a.432.432,0,1,0,.068-.607.432.432,0,0,0-.068.607" fill="#221f20"/>
      <path id="Path_2496" data-name="Path 2496" d="M81.925,21.238a.239.239,0,1,0,.037-.335.237.237,0,0,0-.037.335" fill="#221f20"/>
      <path id="Path_2497" data-name="Path 2497" d="M81.064,22.04a.238.238,0,1,0-.091-.325.238.238,0,0,0,.091.325" fill="#221f20"/>
      <path id="Path_2498" data-name="Path 2498" d="M64.533,10.816a.432.432,0,1,0-.349-.5.431.431,0,0,0,.349.5" fill="#221f20"/>
      <path id="Path_2499" data-name="Path 2499" d="M63.853,9.866a.238.238,0,1,0-.193-.277.238.238,0,0,0,.193.277" fill="#221f20"/>
      <path id="Path_2500" data-name="Path 2500" d="M63.735,11.036a.239.239,0,1,0-.283-.185.238.238,0,0,0,.283.185" fill="#221f20"/>
      <path id="Path_2501" data-name="Path 2501" d="M62.782,10.086a.432.432,0,1,0-.41-.453.432.432,0,0,0,.41.453" fill="#221f20"/>
      <path id="Path_2502" data-name="Path 2502" d="M61.987,9.231a.238.238,0,1,0-.226-.25.239.239,0,0,0,.226.25" fill="#221f20"/>
      <path id="Path_2503" data-name="Path 2503" d="M62.018,10.406a.239.239,0,1,0-.3-.147.238.238,0,0,0,.3.147" fill="#221f20"/>
      <path id="Path_2504" data-name="Path 2504" d="M83.268,23.945a.432.432,0,1,0-.082-.6.431.431,0,0,0,.082.6" fill="#221f20"/>
      <path id="Path_2505" data-name="Path 2505" d="M83.1,22.789a.238.238,0,1,0-.045-.334.238.238,0,0,0,.045.334" fill="#221f20"/>
      <path id="Path_2506" data-name="Path 2506" d="M82.458,23.776a.238.238,0,1,0-.167-.293.238.238,0,0,0,.167.293" fill="#221f20"/>
      <path id="Path_2507" data-name="Path 2507" d="M84.948,25.185a.432.432,0,1,0-.082-.6.431.431,0,0,0,.082.6" fill="#221f20"/>
      <path id="Path_2508" data-name="Path 2508" d="M84.777,24.029a.238.238,0,1,0-.045-.334.238.238,0,0,0,.045.334" fill="#221f20"/>
      <path id="Path_2509" data-name="Path 2509" d="M84.138,25.016a.238.238,0,1,0-.167-.293.238.238,0,0,0,.167.293" fill="#221f20"/>
      <path id="Path_2510" data-name="Path 2510" d="M86.383,26.645a.432.432,0,1,0-.082-.6.431.431,0,0,0,.082.6" fill="#221f20"/>
      <path id="Path_2511" data-name="Path 2511" d="M86.212,25.489a.238.238,0,1,0-.045-.334.238.238,0,0,0,.045.334" fill="#221f20"/>
      <path id="Path_2512" data-name="Path 2512" d="M85.572,26.476a.238.238,0,1,0-.167-.293.238.238,0,0,0,.167.293" fill="#221f20"/>
      <path id="Path_2513" data-name="Path 2513" d="M87.323,28.259a.432.432,0,1,0,.076-.606.432.432,0,0,0-.076.606" fill="#221f20"/>
      <path id="Path_2514" data-name="Path 2514" d="M87.455,27.1a.238.238,0,1,0,.042-.335.239.239,0,0,0-.042.335" fill="#221f20"/>
      <path id="Path_2515" data-name="Path 2515" d="M86.583,27.888a.238.238,0,1,0-.086-.326.238.238,0,0,0,.086.326" fill="#221f20"/>
      <path id="Path_2516" data-name="Path 2516" d="M88.166,29.828a.432.432,0,1,0,.207-.575.432.432,0,0,0-.207.575" fill="#221f20"/>
      <path id="Path_2517" data-name="Path 2517" d="M88.548,28.725a.239.239,0,1,0,.114-.317.238.238,0,0,0-.114.317" fill="#221f20"/>
      <path id="Path_2518" data-name="Path 2518" d="M87.525,29.3a.238.238,0,1,0-.012-.337.239.239,0,0,0,.012.337" fill="#221f20"/>
      <path id="Path_2519" data-name="Path 2519" d="M60.769,9.723a.432.432,0,1,0-.41-.453.432.432,0,0,0,.41.453" fill="#221f20"/>
      <path id="Path_2520" data-name="Path 2520" d="M59.974,8.867a.238.238,0,1,0-.226-.25.239.239,0,0,0,.226.25" fill="#221f20"/>
      <path id="Path_2521" data-name="Path 2521" d="M60.005,10.042a.239.239,0,1,0-.3-.147.238.238,0,0,0,.3.147" fill="#221f20"/>
      <path id="Path_2522" data-name="Path 2522" d="M57.479,9.587c3.9,1.262,3.8.713,8.464,3.166a93.165,93.165,0,0,1,9.821,6.05,54.619,54.619,0,0,1,8.362,7.16,91.747,91.747,0,0,0-18.278-3.6c-9.139-.685-22.55,4.1-24.012,20.39" fill="none" stroke="#221f20" stroke-miterlimit="10" stroke-width="0.335" stroke-dasharray="1.534 1.534"/>
      <path id="Path_2523" data-name="Path 2523" d="M83.36,26.934a.432.432,0,1,0,.311.526.433.433,0,0,0-.311-.526" fill="#221f20"/>
      <path id="Path_2524" data-name="Path 2524" d="M83.966,27.931a.239.239,0,1,0,.171.29.238.238,0,0,0-.171-.29" fill="#221f20"/>
      <path id="Path_2525" data-name="Path 2525" d="M84.172,26.774a.238.238,0,1,0,.267.2.238.238,0,0,0-.267-.2" fill="#221f20"/>
      <path id="Path_2526" data-name="Path 2526" d="M81.217,26.374a.432.432,0,1,0,.381.477.431.431,0,0,0-.381-.477" fill="#221f20"/>
      <path id="Path_2527" data-name="Path 2527" d="M81.956,27.277a.238.238,0,1,0,.21.264.238.238,0,0,0-.21-.264" fill="#221f20"/>
      <path id="Path_2528" data-name="Path 2528" d="M82,26.1a.238.238,0,1,0,.293.166A.238.238,0,0,0,82,26.1" fill="#221f20"/>
      <path id="Path_2529" data-name="Path 2529" d="M79.179,25.614a.432.432,0,1,0,.312.525.432.432,0,0,0-.312-.525" fill="#221f20"/>
      <path id="Path_2530" data-name="Path 2530" d="M79.788,26.61a.238.238,0,1,0,.172.29.239.239,0,0,0-.172-.29" fill="#221f20"/>
      <path id="Path_2531" data-name="Path 2531" d="M79.991,25.452a.238.238,0,1,0,.268.2.239.239,0,0,0-.268-.2" fill="#221f20"/>
      <path id="Path_2532" data-name="Path 2532" d="M77.064,24.92a.432.432,0,1,0,.2.578.432.432,0,0,0-.2-.578" fill="#221f20"/>
      <path id="Path_2533" data-name="Path 2533" d="M77.453,26.021a.238.238,0,1,0,.108.319.238.238,0,0,0-.108-.319" fill="#221f20"/>
      <path id="Path_2534" data-name="Path 2534" d="M77.892,24.931a.238.238,0,1,0,.22.255.238.238,0,0,0-.22-.255" fill="#221f20"/>
      <path id="Path_2535" data-name="Path 2535" d="M74.878,24.456a.432.432,0,1,0,.263.552.432.432,0,0,0-.263-.552" fill="#221f20"/>
      <path id="Path_2536" data-name="Path 2536" d="M75.393,25.5a.238.238,0,1,0,.145.3.238.238,0,0,0-.145-.3" fill="#221f20"/>
      <path id="Path_2537" data-name="Path 2537" d="M75.7,24.369a.238.238,0,1,0,.248.228.238.238,0,0,0-.248-.228" fill="#221f20"/>
      <path id="Path_2538" data-name="Path 2538" d="M72.533,23.989a.432.432,0,1,0,.336.51.431.431,0,0,0-.336-.51" fill="#221f20"/>
      <path id="Path_2539" data-name="Path 2539" d="M73.187,24.957a.238.238,0,1,0,.185.282.238.238,0,0,0-.185-.282" fill="#221f20"/>
      <path id="Path_2540" data-name="Path 2540" d="M73.337,23.79a.238.238,0,1,0,.277.192.238.238,0,0,0-.277-.192" fill="#221f20"/>
      <path id="Path_2541" data-name="Path 2541" d="M70.138,23.652a.432.432,0,1,0,.263.552.432.432,0,0,0-.263-.552" fill="#221f20"/>
      <path id="Path_2542" data-name="Path 2542" d="M70.653,24.7a.238.238,0,1,0,.145.3.238.238,0,0,0-.145-.3" fill="#221f20"/>
      <path id="Path_2543" data-name="Path 2543" d="M70.962,23.565a.238.238,0,1,0,.248.228.238.238,0,0,0-.248-.228" fill="#221f20"/>
      <path id="Path_2544" data-name="Path 2544" d="M67.824,23.552a.432.432,0,1,0,.354.5.432.432,0,0,0-.354-.5" fill="#221f20"/>
      <path id="Path_2545" data-name="Path 2545" d="M68.513,24.5a.238.238,0,1,0,.195.275.238.238,0,0,0-.195-.275" fill="#221f20"/>
      <path id="Path_2546" data-name="Path 2546" d="M68.62,23.324a.239.239,0,1,0,.284.182.238.238,0,0,0-.284-.182" fill="#221f20"/>
      <path id="Path_2547" data-name="Path 2547" d="M65.639,23.211a.432.432,0,1,0,.354.5.432.432,0,0,0-.354-.5" fill="#221f20"/>
      <path id="Path_2548" data-name="Path 2548" d="M66.327,24.155a.238.238,0,1,0,.195.275.238.238,0,0,0-.195-.275" fill="#221f20"/>
      <path id="Path_2549" data-name="Path 2549" d="M66.435,22.984a.239.239,0,1,0,.284.182.238.238,0,0,0-.284-.182" fill="#221f20"/>
      <path id="Path_2550" data-name="Path 2550" d="M63.4,23.508a.432.432,0,1,0,.426.438.433.433,0,0,0-.426-.438" fill="#221f20"/>
      <path id="Path_2551" data-name="Path 2551" d="M64.23,24.334a.239.239,0,1,0,.235.242.239.239,0,0,0-.235-.242" fill="#221f20"/>
      <path id="Path_2552" data-name="Path 2552" d="M64.156,23.161a.239.239,0,1,0,.309.136.238.238,0,0,0-.309-.136" fill="#221f20"/>
      <path id="Path_2553" data-name="Path 2553" d="M61.175,23.388a.432.432,0,1,0,.354.5.432.432,0,0,0-.354-.5" fill="#221f20"/>
      <path id="Path_2554" data-name="Path 2554" d="M61.864,24.332a.238.238,0,1,0,.195.275.238.238,0,0,0-.195-.275" fill="#221f20"/>
      <path id="Path_2555" data-name="Path 2555" d="M61.972,23.16a.239.239,0,1,0,.284.182.238.238,0,0,0-.284-.182" fill="#221f20"/>
      <path id="Path_2556" data-name="Path 2556" d="M58.828,23.686a.432.432,0,1,0,.459.4.433.433,0,0,0-.459-.4" fill="#221f20"/>
      <path id="Path_2557" data-name="Path 2557" d="M59.716,24.445a.239.239,0,1,0,.254.222.238.238,0,0,0-.254-.222" fill="#221f20"/>
      <path id="Path_2558" data-name="Path 2558" d="M59.55,23.281a.239.239,0,1,0,.318.111.237.237,0,0,0-.318-.111" fill="#221f20"/>
      <path id="Path_2559" data-name="Path 2559" d="M56.643,24.438a.432.432,0,1,0,.523.316.432.432,0,0,0-.523-.316" fill="#221f20"/>
      <path id="Path_2560" data-name="Path 2560" d="M57.651,25.029a.239.239,0,1,0,.289.174.238.238,0,0,0-.289-.174" fill="#221f20"/>
      <path id="Path_2561" data-name="Path 2561" d="M57.283,23.912a.238.238,0,1,0,.333.054.238.238,0,0,0-.333-.054" fill="#221f20"/>
      <path id="Path_2562" data-name="Path 2562" d="M54.574,25.421a.432.432,0,1,0,.593.147.432.432,0,0,0-.593-.147" fill="#221f20"/>
      <path id="Path_2563" data-name="Path 2563" d="M55.711,25.687a.238.238,0,1,0,.327.081.238.238,0,0,0-.327-.081" fill="#221f20"/>
      <path id="Path_2564" data-name="Path 2564" d="M55.029,24.73a.238.238,0,1,0,.334-.047.239.239,0,0,0-.334.047" fill="#221f20"/>
      <path id="Path_2565" data-name="Path 2565" d="M52.646,26.325a.432.432,0,1,0,.593.147.432.432,0,0,0-.593-.147" fill="#221f20"/>
      <path id="Path_2566" data-name="Path 2566" d="M53.783,26.591a.238.238,0,1,0,.327.081.238.238,0,0,0-.327-.081" fill="#221f20"/>
      <path id="Path_2567" data-name="Path 2567" d="M53.1,25.633a.238.238,0,1,0,.334-.047.239.239,0,0,0-.334.047" fill="#221f20"/>
      <path id="Path_2568" data-name="Path 2568" d="M51.094,27.437a.432.432,0,1,0,.593.147.432.432,0,0,0-.593-.147" fill="#221f20"/>
      <path id="Path_2569" data-name="Path 2569" d="M52.231,27.7a.238.238,0,1,0,.327.081.238.238,0,0,0-.327-.081" fill="#221f20"/>
      <path id="Path_2570" data-name="Path 2570" d="M51.549,26.745a.238.238,0,1,0,.334-.047.239.239,0,0,0-.334.047" fill="#221f20"/>
      <path id="Path_2571" data-name="Path 2571" d="M49.316,28.568a.432.432,0,1,0,.608.062.433.433,0,0,0-.608-.062" fill="#221f20"/>
      <path id="Path_2572" data-name="Path 2572" d="M50.479,28.671a.238.238,0,1,0,.335.034.238.238,0,0,0-.335-.034" fill="#221f20"/>
      <path id="Path_2573" data-name="Path 2573" d="M49.669,27.819a.239.239,0,1,0,.324-.094.24.24,0,0,0-.324.094" fill="#221f20"/>
      <path id="Path_2574" data-name="Path 2574" d="M47.688,30.416a.432.432,0,1,0,.589-.164.433.433,0,0,0-.589.164" fill="#221f20"/>
      <path id="Path_2575" data-name="Path 2575" d="M48.809,30.088A.238.238,0,1,0,49.134,30a.238.238,0,0,0-.325.091" fill="#221f20"/>
      <path id="Path_2576" data-name="Path 2576" d="M47.744,29.59a.239.239,0,1,0,.267-.2.238.238,0,0,0-.267.2" fill="#221f20"/>
      <path id="Path_2577" data-name="Path 2577" d="M46.165,32.559a.432.432,0,1,0,.567-.228.433.433,0,0,0-.567.228" fill="#221f20"/>
      <path id="Path_2578" data-name="Path 2578" d="M47.243,32.108a.239.239,0,1,0,.313-.126.239.239,0,0,0-.313.126" fill="#221f20"/>
      <path id="Path_2579" data-name="Path 2579" d="M46.129,31.731a.239.239,0,1,0,.243-.234.239.239,0,0,0-.243.234" fill="#221f20"/>
      <path id="Path_2580" data-name="Path 2580" d="M44.831,34.762a.432.432,0,1,0,.567-.228.433.433,0,0,0-.567.228" fill="#221f20"/>
      <path id="Path_2581" data-name="Path 2581" d="M45.909,34.311a.239.239,0,1,0,.313-.126.239.239,0,0,0-.313.126" fill="#221f20"/>
      <path id="Path_2582" data-name="Path 2582" d="M44.795,33.934a.239.239,0,1,0,.243-.234.239.239,0,0,0-.243.234" fill="#221f20"/>
      <path id="Path_2583" data-name="Path 2583" d="M43.761,36.962a.432.432,0,1,0,.516-.328.432.432,0,0,0-.516.328" fill="#221f20"/>
      <path id="Path_2584" data-name="Path 2584" d="M44.739,36.323a.238.238,0,1,0,.285-.181.238.238,0,0,0-.285.181" fill="#221f20"/>
      <path id="Path_2585" data-name="Path 2585" d="M43.575,36.155a.238.238,0,1,0,.2-.274.238.238,0,0,0-.2.274" fill="#221f20"/>
      <path id="Path_2586" data-name="Path 2586" d="M43.076,39.429a.432.432,0,1,0,.516-.328.432.432,0,0,0-.516.328" fill="#221f20"/>
      <path id="Path_2587" data-name="Path 2587" d="M44.054,38.79a.238.238,0,1,0,.285-.181.238.238,0,0,0-.285.181" fill="#221f20"/>
      <path id="Path_2588" data-name="Path 2588" d="M42.89,38.622a.238.238,0,1,0,.2-.274.238.238,0,0,0-.2.274" fill="#221f20"/>
      <path id="Path_2589" data-name="Path 2589" d="M42.526,41.891a.432.432,0,1,0,.516-.328.432.432,0,0,0-.516.328" fill="#221f20"/>
      <path id="Path_2590" data-name="Path 2590" d="M43.5,41.252a.238.238,0,1,0,.285-.181.238.238,0,0,0-.285.181" fill="#221f20"/>
      <path id="Path_2591" data-name="Path 2591" d="M42.34,41.085a.238.238,0,1,0,.2-.274.238.238,0,0,0-.2.274" fill="#221f20"/>
      <path id="Path_2592" data-name="Path 2592" d="M85.127,27.732a.432.432,0,1,0,.311.526.433.433,0,0,0-.311-.526" fill="#221f20"/>
      <path id="Path_2593" data-name="Path 2593" d="M85.733,28.73a.239.239,0,1,0,.171.29.238.238,0,0,0-.171-.29" fill="#221f20"/>
      <path id="Path_2594" data-name="Path 2594" d="M85.939,27.573a.238.238,0,1,0,.267.2.238.238,0,0,0-.267-.2" fill="#221f20"/>
      <path id="Path_2595" data-name="Path 2595" d="M5.6,9.47l.25.313c12.493,5.963,26.505,7.634,35.789,5.963,7.2-1.3,17.223-8.237,20.948-10.992l-.966-.711c-.747.536-1.542,1.1-2.379,1.683-4.276,2.961-9.723,6.3-15.991,8.013-8.721,2.386-18.968.524-26.457-1.237-4.316-1.013-7.622-2.257-9.488-2.829-1.013-.316-1.6-.43-1.706-.2" fill="#c1c1c1"/>
      <path id="Path_2596" data-name="Path 2596" d="M5.6,9.47l.25.313c12.493,5.963,26.505,7.634,35.789,5.963,7.2-1.3,17.223-8.237,20.948-10.992l-.966-.711c-.747.536-1.542,1.1-2.379,1.683-4.276,2.961-9.723,6.3-15.991,8.013-8.721,2.386-18.968.524-26.457-1.237-4.316-1.013-7.622-2.257-9.488-2.829C6.3,9.357,5.706,9.243,5.6,9.47Z" fill="none" stroke="#221f20" stroke-miterlimit="10" stroke-width="0.196"/>
      <path id="Path_2597" data-name="Path 2597" d="M61.426,3.746c.1.5,1.15.857,1.15.857l0,.129c.435-.333.673-.524.673-.524,3.079-1.941,5.044-1.62,8.3.277l.473-.414L66.293.115S61.254,2.9,61.426,3.746" fill="#c1c1c1"/>
      <path id="Path_2598" data-name="Path 2598" d="M61.426,3.746c.1.5,1.15.857,1.15.857l0,.129c.435-.333.673-.524.673-.524,3.079-1.941,5.044-1.62,8.3.277l.473-.414L66.293.115S61.254,2.9,61.426,3.746Z" fill="none" stroke="#221f20" stroke-miterlimit="10" stroke-width="0.196"/>
    </g>
  </g>
</svg>
