<svg xmlns="http://www.w3.org/2000/svg" xmlns:xlink="http://www.w3.org/1999/xlink" width="151.246" height="52.803" viewBox="0 0 151.246 52.803">
  <defs>
    <clipPath id="clip-path">
      <rect id="Rectangle_1933" data-name="Rectangle 1933" width="151.247" height="52.803" transform="translate(0 0)" fill="none"/>
    </clipPath>
  </defs>
  <g id="Group_1399" data-name="Group 1399" transform="translate(0 0)">
    <g id="Group_1399-2" data-name="Group 1399" clip-path="url(#clip-path)">
      <path id="Path_1575" data-name="Path 1575" d="M2.638,52.608H38.49l.269-6.951s1.506.133,4.942.523c3.885.44,10.236,1.2,19.672,2.469C73.9,50.061,99.751,53.517,116.626,51.7c14.358-1.541,33.679-4.537,34.2-4.677.461-.125.114-2.255-.062-2.879-.172-.608-1.3-.924-1.3-.924L2.942,41.035Z" fill="#2e160e"/>
      <path id="Path_1576" data-name="Path 1576" d="M2.638,52.608H38.49l.269-6.951s1.506.133,4.942.523c3.885.44,10.236,1.2,19.672,2.469C73.9,50.061,99.751,53.517,116.626,51.7c14.358-1.541,33.679-4.537,34.2-4.677.461-.125.114-2.255-.062-2.879-.172-.608-1.3-.924-1.3-.924L2.942,41.035Z" fill="none" stroke="#221f20" stroke-miterlimit="10" stroke-width="0.39"/>
      <path id="Path_1577" data-name="Path 1577" d="M2.942,41.035s18.646-.285,30.2.749c12.466,1.119,56.209,7.778,74.02,7.314a197.608,197.608,0,0,0,42.3-5.875,5.2,5.2,0,0,0-.613-3.393c-.846-1.51-2.531-2.785-6.514-3.41-6.76-1.061-15.743-2.356-24.145-3.432-8.89-1.135-13.009-1.588-21.127-8.523l-1.931-1.682h-.07c-6.9-5.722-18.49-15.244-19.847-16.133l-.133-.086c-1.349-.885-2.512-1.646-3.553-2.258-3.367-1.974-5.512-2.384-8.773-.328L62.717,4c-.019.016-.281.223-.737.574-.027.023-.055.043-.086.066-2.887,2.2-12.8,9.389-20.545,10.786-10.255,1.849-24.435-.363-35.86-5.875,0,0-.023.055-.074.16C4.53,11.678-4.107,31.463,2.942,41.035" fill="#fff"/>
      <path id="Path_1578" data-name="Path 1578" d="M2.942,41.035s18.646-.285,30.2.749c12.466,1.119,56.209,7.778,74.02,7.314a197.608,197.608,0,0,0,42.3-5.875,5.2,5.2,0,0,0-.613-3.393c-.846-1.51-2.531-2.785-6.514-3.41-6.76-1.061-15.743-2.356-24.145-3.432-8.89-1.135-13.009-1.588-21.127-8.523l-1.931-1.682h-.07c-6.9-5.722-18.49-15.244-19.847-16.133l-.133-.086c-1.349-.885-2.512-1.646-3.553-2.258-3.367-1.974-5.512-2.384-8.773-.328L62.717,4c-.019.016-.281.223-.737.574-.027.023-.055.043-.086.066-2.887,2.2-12.8,9.389-20.545,10.786-10.255,1.849-24.435-.363-35.86-5.875,0,0-.023.055-.074.16C4.53,11.678-4.107,31.463,2.942,41.035Z" fill="none" stroke="#221f20" stroke-miterlimit="10" stroke-width="0.39"/>
      <path id="Path_1579" data-name="Path 1579" d="M85.487,27.859c5.819,1.752,9.736.1,11.93-2.943" fill="none" stroke="#221f20" stroke-miterlimit="10" stroke-width="0.334" stroke-dasharray="1.529 1.529"/>
      <path id="Path_1580" data-name="Path 1580" d="M96.831,24.137c-1.681,2.632-5.3,4.322-10.258,3.149,0,0,0-6.727-25.23-21.633" fill="none" stroke="#221f20" stroke-linecap="round" stroke-miterlimit="10" stroke-width="0.668"/>
      <path id="Path_1581" data-name="Path 1581" d="M85.487,27.859c0-6.441-20.155-19.517-24.619-21.434" fill="none" stroke="#221f20" stroke-miterlimit="10" stroke-width="0.334" stroke-dasharray="1.529 1.529"/>
      <path id="Path_1582" data-name="Path 1582" d="M61.369,8.814a.431.431,0,1,0-.082-.6.431.431,0,0,0,.082.6" fill="#221f20"/>
      <path id="Path_1583" data-name="Path 1583" d="M61.2,7.662a.237.237,0,1,0-.046-.333.236.236,0,0,0,.046.333" fill="#221f20"/>
      <path id="Path_1584" data-name="Path 1584" d="M60.561,8.645a.237.237,0,1,0-.166-.292.237.237,0,0,0,.166.292" fill="#221f20"/>
      <path id="Path_1585" data-name="Path 1585" d="M62.994,10.085a.43.43,0,1,0-.082-.6.431.431,0,0,0,.082.6" fill="#221f20"/>
      <path id="Path_1586" data-name="Path 1586" d="M62.824,8.933a.238.238,0,1,0-.045-.333.238.238,0,0,0,.045.333" fill="#221f20"/>
      <path id="Path_1587" data-name="Path 1587" d="M62.186,9.917a.238.238,0,1,0-.166-.292.238.238,0,0,0,.166.292" fill="#221f20"/>
      <path id="Path_1588" data-name="Path 1588" d="M64.739,11a.431.431,0,1,0-.082-.6.431.431,0,0,0,.082.6" fill="#221f20"/>
      <path id="Path_1589" data-name="Path 1589" d="M64.568,9.847a.238.238,0,1,0-.045-.333.238.238,0,0,0,.045.333" fill="#221f20"/>
      <path id="Path_1590" data-name="Path 1590" d="M63.931,10.831a.238.238,0,1,0-.166-.292.238.238,0,0,0,.166.292" fill="#221f20"/>
      <path id="Path_1591" data-name="Path 1591" d="M66.309,11.968a.43.43,0,1,0-.082-.6.432.432,0,0,0,.082.6" fill="#221f20"/>
      <path id="Path_1592" data-name="Path 1592" d="M66.139,10.816a.238.238,0,1,0-.045-.332.238.238,0,0,0,.045.332" fill="#221f20"/>
      <path id="Path_1593" data-name="Path 1593" d="M65.5,11.8a.238.238,0,1,0-.166-.292.238.238,0,0,0,.166.292" fill="#221f20"/>
      <path id="Path_1594" data-name="Path 1594" d="M67.75,13.111a.431.431,0,1,0-.082-.6.431.431,0,0,0,.082.6" fill="#221f20"/>
      <path id="Path_1595" data-name="Path 1595" d="M67.58,11.959a.238.238,0,1,0-.045-.333.238.238,0,0,0,.045.333" fill="#221f20"/>
      <path id="Path_1596" data-name="Path 1596" d="M66.942,12.942a.237.237,0,1,0-.166-.292.236.236,0,0,0,.166.292" fill="#221f20"/>
      <path id="Path_1597" data-name="Path 1597" d="M69.31,13.976a.431.431,0,1,0-.082-.6.431.431,0,0,0,.082.6" fill="#221f20"/>
      <path id="Path_1598" data-name="Path 1598" d="M69.14,12.824a.238.238,0,1,0-.045-.333.238.238,0,0,0,.045.333" fill="#221f20"/>
      <path id="Path_1599" data-name="Path 1599" d="M68.5,13.807a.238.238,0,1,0-.166-.292.238.238,0,0,0,.166.292" fill="#221f20"/>
      <path id="Path_1600" data-name="Path 1600" d="M70.9,15.167a.431.431,0,1,0-.082-.6.431.431,0,0,0,.082.6" fill="#221f20"/>
      <path id="Path_1601" data-name="Path 1601" d="M70.729,14.015a.238.238,0,1,0-.045-.333.238.238,0,0,0,.045.333" fill="#221f20"/>
      <path id="Path_1602" data-name="Path 1602" d="M70.091,15a.238.238,0,1,0-.166-.292.238.238,0,0,0,.166.292" fill="#221f20"/>
      <path id="Path_1603" data-name="Path 1603" d="M72.546,16.269a.431.431,0,1,0-.082-.6.431.431,0,0,0,.082.6" fill="#221f20"/>
      <path id="Path_1604" data-name="Path 1604" d="M72.375,15.117a.238.238,0,1,0-.045-.333.238.238,0,0,0,.045.333" fill="#221f20"/>
      <path id="Path_1605" data-name="Path 1605" d="M71.737,16.1a.238.238,0,1,0-.166-.292.238.238,0,0,0,.166.292" fill="#221f20"/>
      <path id="Path_1606" data-name="Path 1606" d="M74.139,17.547a.431.431,0,1,0-.082-.6.431.431,0,0,0,.082.6" fill="#221f20"/>
      <path id="Path_1607" data-name="Path 1607" d="M73.969,16.394a.238.238,0,1,0-.045-.332.238.238,0,0,0,.045.332" fill="#221f20"/>
      <path id="Path_1608" data-name="Path 1608" d="M73.331,17.378a.238.238,0,1,0-.166-.292.238.238,0,0,0,.166.292" fill="#221f20"/>
      <path id="Path_1609" data-name="Path 1609" d="M75.531,18.571a.43.43,0,1,0-.015-.609.431.431,0,0,0,.015.609" fill="#221f20"/>
      <path id="Path_1610" data-name="Path 1610" d="M75.487,17.407a.238.238,0,1,0-.009-.336.237.237,0,0,0,.009.336" fill="#221f20"/>
      <path id="Path_1611" data-name="Path 1611" d="M74.745,18.316a.238.238,0,1,0-.134-.308.237.237,0,0,0,.134.308" fill="#221f20"/>
      <path id="Path_1612" data-name="Path 1612" d="M77.019,19.792a.431.431,0,1,0,.068-.6.431.431,0,0,0-.068.6" fill="#221f20"/>
      <path id="Path_1613" data-name="Path 1613" d="M77.133,18.634a.238.238,0,1,0,.037-.334.237.237,0,0,0-.037.334" fill="#221f20"/>
      <path id="Path_1614" data-name="Path 1614" d="M76.275,19.433a.238.238,0,1,0-.09-.324.239.239,0,0,0,.09.324" fill="#221f20"/>
      <path id="Path_1615" data-name="Path 1615" d="M59.794,8.243a.431.431,0,1,0-.348-.5.431.431,0,0,0,.348.5" fill="#221f20"/>
      <path id="Path_1616" data-name="Path 1616" d="M59.117,7.3a.238.238,0,1,0-.192-.276.238.238,0,0,0,.192.276" fill="#221f20"/>
      <path id="Path_1617" data-name="Path 1617" d="M59,8.463a.238.238,0,1,0-.281-.184A.237.237,0,0,0,59,8.463" fill="#221f20"/>
      <path id="Path_1618" data-name="Path 1618" d="M78.473,21.332a.431.431,0,1,0-.082-.6.431.431,0,0,0,.082.6" fill="#221f20"/>
      <path id="Path_1619" data-name="Path 1619" d="M78.3,20.18a.238.238,0,1,0-.045-.333.238.238,0,0,0,.045.333" fill="#221f20"/>
      <path id="Path_1620" data-name="Path 1620" d="M77.665,21.164a.238.238,0,1,0-.166-.292.238.238,0,0,0,.166.292" fill="#221f20"/>
      <path id="Path_1621" data-name="Path 1621" d="M80.148,22.568a.431.431,0,1,0-.082-.6.431.431,0,0,0,.082.6" fill="#221f20"/>
      <path id="Path_1622" data-name="Path 1622" d="M79.977,21.416a.238.238,0,1,0-.045-.333.238.238,0,0,0,.045.333" fill="#221f20"/>
      <path id="Path_1623" data-name="Path 1623" d="M79.34,22.4a.237.237,0,1,0,.125-.458.237.237,0,0,0-.125.458" fill="#221f20"/>
      <path id="Path_1624" data-name="Path 1624" d="M81.578,24.024a.431.431,0,1,0-.082-.6.431.431,0,0,0,.082.6" fill="#221f20"/>
      <path id="Path_1625" data-name="Path 1625" d="M81.407,22.872a.238.238,0,1,0-.045-.333.238.238,0,0,0,.045.333" fill="#221f20"/>
      <path id="Path_1626" data-name="Path 1626" d="M80.77,23.856a.238.238,0,1,0-.166-.292.238.238,0,0,0,.166.292" fill="#221f20"/>
      <path id="Path_1627" data-name="Path 1627" d="M82.515,25.633a.43.43,0,1,0,.076-.6.43.43,0,0,0-.076.6" fill="#221f20"/>
      <path id="Path_1628" data-name="Path 1628" d="M82.646,24.476a.238.238,0,1,0,.042-.334.238.238,0,0,0-.042.334" fill="#221f20"/>
      <path id="Path_1629" data-name="Path 1629" d="M81.777,25.263a.238.238,0,1,0-.086-.325.237.237,0,0,0,.086.325" fill="#221f20"/>
      <path id="Path_1630" data-name="Path 1630" d="M83.355,27.2a.431.431,0,1,0,.207-.573.431.431,0,0,0-.207.573" fill="#221f20"/>
      <path id="Path_1631" data-name="Path 1631" d="M83.737,26.1a.238.238,0,1,0,.114-.316.237.237,0,0,0-.114.316" fill="#221f20"/>
      <path id="Path_1632" data-name="Path 1632" d="M82.716,26.675a.238.238,0,1,0-.012-.336.238.238,0,0,0,.012.336" fill="#221f20"/>
      <path id="Path_1633" data-name="Path 1633" d="M94.336,28.862a.431.431,0,1,0,.544.275.431.431,0,0,0-.544-.275" fill="#221f20"/>
      <path id="Path_1634" data-name="Path 1634" d="M95.382,29.375a.238.238,0,1,0,.3.152.238.238,0,0,0-.3-.152" fill="#221f20"/>
      <path id="Path_1635" data-name="Path 1635" d="M94.933,28.292a.238.238,0,1,0,.335.028.238.238,0,0,0-.335-.028" fill="#221f20"/>
      <path id="Path_1636" data-name="Path 1636" d="M92.475,29.378a.431.431,0,1,0,.429.432.43.43,0,0,0-.429-.432" fill="#221f20"/>
      <path id="Path_1637" data-name="Path 1637" d="M93.306,30.194a.238.238,0,1,0,.237.239.239.239,0,0,0-.237-.239" fill="#221f20"/>
      <path id="Path_1638" data-name="Path 1638" d="M93.221,29.024a.238.238,0,1,0,.309.133.239.239,0,0,0-.309-.133" fill="#221f20"/>
      <path id="Path_1639" data-name="Path 1639" d="M90.693,29.655a.431.431,0,1,0,.429.432.43.43,0,0,0-.429-.432" fill="#221f20"/>
      <path id="Path_1640" data-name="Path 1640" d="M91.524,30.471a.238.238,0,1,0,.237.239.239.239,0,0,0-.237-.239" fill="#221f20"/>
      <path id="Path_1641" data-name="Path 1641" d="M91.439,29.3a.238.238,0,1,0,.309.133.239.239,0,0,0-.309-.133" fill="#221f20"/>
      <path id="Path_1642" data-name="Path 1642" d="M88.732,29.625a.431.431,0,1,0,.429.432.43.43,0,0,0-.429-.432" fill="#221f20"/>
      <path id="Path_1643" data-name="Path 1643" d="M89.563,30.441a.238.238,0,1,0,.237.239.239.239,0,0,0-.237-.239" fill="#221f20"/>
      <path id="Path_1644" data-name="Path 1644" d="M89.478,29.272a.238.238,0,1,0,.309.133.239.239,0,0,0-.309-.133" fill="#221f20"/>
      <path id="Path_1645" data-name="Path 1645" d="M87,29.595a.431.431,0,1,0,.429.432A.43.43,0,0,0,87,29.595" fill="#221f20"/>
      <path id="Path_1646" data-name="Path 1646" d="M87.836,30.411a.238.238,0,1,0,.237.239.239.239,0,0,0-.237-.239" fill="#221f20"/>
      <path id="Path_1647" data-name="Path 1647" d="M87.751,29.242a.238.238,0,1,0,.309.133.239.239,0,0,0-.309-.133" fill="#221f20"/>
      <path id="Path_1648" data-name="Path 1648" d="M85.471,29.2a.431.431,0,1,0,.339.506.43.43,0,0,0-.339-.506" fill="#221f20"/>
      <path id="Path_1649" data-name="Path 1649" d="M86.131,30.157a.238.238,0,1,0,.187.279.236.236,0,0,0-.187-.279" fill="#221f20"/>
      <path id="Path_1650" data-name="Path 1650" d="M86.271,28.993a.238.238,0,1,0,.278.189.237.237,0,0,0-.278-.189" fill="#221f20"/>
      <path id="Path_1651" data-name="Path 1651" d="M95.9,28.046a.431.431,0,1,0,.606.065.432.432,0,0,0-.606-.065" fill="#221f20"/>
      <path id="Path_1652" data-name="Path 1652" d="M97.056,28.155a.238.238,0,1,0,.334.036.238.238,0,0,0-.334-.036" fill="#221f20"/>
      <path id="Path_1653" data-name="Path 1653" d="M96.253,27.3a.238.238,0,1,0,.323-.092.237.237,0,0,0-.323.092" fill="#221f20"/>
      <path id="Path_1654" data-name="Path 1654" d="M97.389,26.547a.431.431,0,1,0,.609.007.43.43,0,0,0-.609-.007" fill="#221f20"/>
      <path id="Path_1655" data-name="Path 1655" d="M98.554,26.546a.238.238,0,1,0,.336,0,.237.237,0,0,0-.336,0" fill="#221f20"/>
      <path id="Path_1656" data-name="Path 1656" d="M97.674,25.772a.238.238,0,1,0,.313-.122.238.238,0,0,0-.313.122" fill="#221f20"/>
      <path id="Path_1657" data-name="Path 1657" d="M99.589,26.716a10.45,10.45,0,0,1-9.328,4.535c-1.829-.072-5.571-.654-7.836-1.012,0,0,1.751-5.424-11.434-14.034-2.965-1.935-10.367-7.07-13.525-7.976" fill="none" stroke="#221f20" stroke-miterlimit="10" stroke-width="0.334" stroke-dasharray="1.529 1.529"/>
      <path id="Path_1658" data-name="Path 1658" d="M83.668,28.553a.431.431,0,1,0,.339.506.43.43,0,0,0-.339-.506" fill="#221f20"/>
      <path id="Path_1659" data-name="Path 1659" d="M84.328,29.513a.238.238,0,1,0,.187.279.236.236,0,0,0-.187-.279" fill="#221f20"/>
      <path id="Path_1660" data-name="Path 1660" d="M84.468,28.349a.238.238,0,1,0,.278.189.237.237,0,0,0-.278-.189" fill="#221f20"/>
      <path id="Path_1661" data-name="Path 1661" d="M94.93,22.673l.134.111" fill="none" stroke="#221f20" stroke-miterlimit="10" stroke-width="0.39"/>
      <path id="Path_1662" data-name="Path 1662" d="M5.2,10.208c.229.111.46.22.691.328" fill="none" stroke="#221f20" stroke-miterlimit="10" stroke-width="0.334"/>
      <path id="Path_1663" data-name="Path 1663" d="M7.271,11.161c11.167,4.88,24.424,6.8,34.218,5.033,9.221-1.662,20.987-11,21.7-11.569,3.837-2.412,5.763-1.148,11.465,2.59l.132.087c1.131.742,11.248,8.964,18.485,14.949" fill="none" stroke="#221f20" stroke-miterlimit="10" stroke-width="0.334" stroke-dasharray="1.519 1.519"/>
      <path id="Path_1664" data-name="Path 1664" d="M93.857,22.735l.588.487" fill="none" stroke="#221f20" stroke-miterlimit="10" stroke-width="0.334"/>
      <path id="Path_1665" data-name="Path 1665" d="M149.463,43.222s1.128.316,1.3.926c.175.626.52,2.752.061,2.878-.517.141-19.838,3.138-34.2,4.68C99.752,53.518,73.9,50.063,63.371,48.65c-17.783-2.385-24.612-2.994-24.612-2.994l-.269,6.952H2.639l.305-11.574" fill="none" stroke="#221f20" stroke-miterlimit="10" stroke-width="0.39"/>
      <circle id="Ellipse_137" data-name="Ellipse 137" cx="0.569" cy="0.569" r="0.569" transform="translate(90.227 23.222)" fill="none" stroke="#221f20" stroke-miterlimit="10" stroke-width="0.39"/>
      <circle id="Ellipse_138" data-name="Ellipse 138" cx="0.569" cy="0.569" r="0.569" transform="translate(85.041 19.089)" fill="none" stroke="#221f20" stroke-miterlimit="10" stroke-width="0.39"/>
      <circle id="Ellipse_139" data-name="Ellipse 139" cx="0.569" cy="0.569" r="0.569" transform="translate(79.829 14.812)" fill="none" stroke="#221f20" stroke-miterlimit="10" stroke-width="0.39"/>
      <circle id="Ellipse_140" data-name="Ellipse 140" cx="0.569" cy="0.569" r="0.569" transform="translate(74.557 11.341)" fill="none" stroke="#221f20" stroke-miterlimit="10" stroke-width="0.39"/>
      <circle id="Ellipse_141" data-name="Ellipse 141" cx="0.569" cy="0.569" r="0.569" transform="translate(68.74 7.743)" fill="none" stroke="#221f20" stroke-miterlimit="10" stroke-width="0.39"/>
      <path id="Path_1666" data-name="Path 1666" d="M93.531,21.52s.913-2.045-.866.141c-.866,1.064-1.869,2.13-1.869,2.13" fill="none" stroke="#221f20" stroke-miterlimit="10" stroke-width="1.17"/>
      <path id="Path_1667" data-name="Path 1667" d="M88.6,17.447s.284-2.065-1.018-.487c-.873,1.058-1.869,2.589-1.869,2.589" fill="none" stroke="#221f20" stroke-miterlimit="10" stroke-width="1.17"/>
      <path id="Path_1668" data-name="Path 1668" d="M83.5,13.259s.552-2.193-1.228-.006C81.4,14.316,80.4,15.382,80.4,15.382" fill="none" stroke="#221f20" stroke-miterlimit="10" stroke-width="1.17"/>
      <path id="Path_1669" data-name="Path 1669" d="M78.259,8.924s.679-1.657-1.1.529c-.865,1.064-2.033,2.456-2.033,2.456" fill="none" stroke="#221f20" stroke-miterlimit="10" stroke-width="1.17"/>
      <path id="Path_1670" data-name="Path 1670" d="M72.527,4.71s1.211-1.894-1.179.512a12.666,12.666,0,0,0-1.869,2.965" fill="none" stroke="#221f20" stroke-miterlimit="10" stroke-width="1.17"/>
      <path id="Path_1671" data-name="Path 1671" d="M61.339,4.143C56.8,7.409,50.5,11.77,43.028,13.812c-8.7,2.377-18.914.521-26.379-1.236C10.018,11.016,5.7,8.91,5.41,9.553" fill="none" stroke="#221f20" stroke-miterlimit="10" stroke-width="0.195"/>
      <path id="Path_1672" data-name="Path 1672" d="M61.981,4.575s-.74-.234-.839-.727C60.971,3,65.991.229,65.991.229l5.715,3.944" fill="none" stroke="#221f20" stroke-miterlimit="10" stroke-width="0.39"/>
      <line id="Line_6" data-name="Line 6" y1="6.428" x2="5.212" transform="translate(38.49 46.179)" fill="none" stroke="#221f20" stroke-miterlimit="10" stroke-width="0.39"/>
      <path id="Path_1673" data-name="Path 1673" d="M118.706,33.963a.187.187,0,1,1-.255-.11.2.2,0,0,1,.255.11" fill="#221f20"/>
      <path id="Path_1674" data-name="Path 1674" d="M119.144,35.355a.2.2,0,0,1-.26-.093.2.2,0,0,1,.07-.27.2.2,0,0,1,.26.093.2.2,0,0,1-.07.27" fill="#221f20"/>
      <path id="Path_1675" data-name="Path 1675" d="M119.392,36.382a.187.187,0,1,1,.34-.153" fill="#221f20"/>
      <path id="Path_1676" data-name="Path 1676" d="M120.16,37.624a.2.2,0,0,1-.255-.11.188.188,0,1,1,.255.11" fill="#221f20"/>
      <path id="Path_1677" data-name="Path 1677" d="M120.759,38.495a.2.2,0,0,1-.086.263.2.2,0,0,1-.255-.111.2.2,0,0,1,.086-.263.2.2,0,0,1,.255.111" fill="#221f20"/>
      <path id="Path_1678" data-name="Path 1678" d="M121.195,39.887a.194.194,0,0,1-.258-.1.188.188,0,1,1,.258.1" fill="#221f20"/>
      <path id="Path_1679" data-name="Path 1679" d="M121.358,40.916a.2.2,0,0,1,.123-.246.192.192,0,0,1,.237.148" fill="#221f20"/>
      <path id="Path_1680" data-name="Path 1680" d="M119.733,36.229a.2.2,0,0,1-.086.263.2.2,0,0,1-.255-.11" fill="#221f20"/>
      <path id="Path_1681" data-name="Path 1681" d="M121.616,42.3a.207.207,0,0,1,.053-.406.2.2,0,0,1-.053.406" fill="#221f20"/>
      <path id="Path_1682" data-name="Path 1682" d="M121.293,43.337a.211.211,0,0,1-.144.078.17.17,0,0,1-.137-.047.2.2,0,0,1,0-.272.219.219,0,0,1,.127-.072.191.191,0,0,1,.142.031.166.166,0,0,1,.07.127.213.213,0,0,1-.054.155" fill="#221f20"/>
      <path id="Path_1683" data-name="Path 1683" d="M119.937,43.953a.187.187,0,0,1,.026-.141.2.2,0,0,1,.113-.089.2.2,0,0,1,.249.1.161.161,0,0,1,0,.145.211.211,0,0,1-.126.106.227.227,0,0,1-.167-.008.17.17,0,0,1-.093-.115" fill="#221f20"/>
      <path id="Path_1684" data-name="Path 1684" d="M118.975,43.672a.2.2,0,0,1,.133.235.189.189,0,0,1-.257.117" fill="#221f20"/>
      <path id="Path_1685" data-name="Path 1685" d="M121.719,40.818a.194.194,0,0,1-.131.248.2.2,0,0,1-.229-.151" fill="#221f20"/>
      <path id="Path_1686" data-name="Path 1686" d="M117.875,42.9a.2.2,0,0,1,.144,0,.211.211,0,0,1,.109.091.2.2,0,0,1,.024.069.212.212,0,0,1,0,.071.2.2,0,0,1-.073.124.159.159,0,0,1-.143.027.212.212,0,0,1-.074-.036.275.275,0,0,1-.057-.068.22.22,0,0,1-.025-.167.161.161,0,0,1,.1-.11" fill="#221f20"/>
      <path id="Path_1687" data-name="Path 1687" d="M117.571,41.85a.26.26,0,0,1,.03-.085.194.194,0,0,1,.056-.061.159.159,0,0,1,.144-.024.2.2,0,0,1,.112.091.228.228,0,0,1,.024.066.174.174,0,0,1,0,.072.22.22,0,0,1-.069.124.2.2,0,0,1-.136.05.163.163,0,0,1-.128-.069.214.214,0,0,1-.036-.164" fill="#221f20"/>
      <path id="Path_1688" data-name="Path 1688" d="M118.716,40.942a.193.193,0,0,1-.031.14.218.218,0,0,1-.109.087.2.2,0,0,1-.136,0,.2.2,0,0,1-.11-.091.158.158,0,0,1-.007-.145.213.213,0,0,1,.13-.112.23.23,0,0,1,.174.008.166.166,0,0,1,.089.118" fill="#221f20"/>
      <path id="Path_1689" data-name="Path 1689" d="M119.451,41.289a.009.009,0,0,0,.005.012l.009-.007a.36.36,0,0,0,.01-.047.3.3,0,0,1,.044-.134.134.134,0,0,1,.137-.058.181.181,0,0,1,.1.049.33.33,0,0,1,.045.062.312.312,0,0,1,.026.091" fill="#221f20"/>
      <path id="Path_1690" data-name="Path 1690" d="M118.849,44.024a.222.222,0,0,1-.125-.108.165.165,0,0,1,0-.147.192.192,0,0,1,.107-.1.21.21,0,0,1,.144,0" fill="#221f20"/>
      <path id="Path_1691" data-name="Path 1691" d="M120.717,33.86a.188.188,0,1,1-.256-.1.2.2,0,0,1,.256.1" fill="#221f20"/>
      <path id="Path_1692" data-name="Path 1692" d="M121.177,35.224a.192.192,0,0,1-.26-.085.2.2,0,0,1,.064-.269.193.193,0,0,1,.261.085.2.2,0,0,1-.065.269" fill="#221f20"/>
      <path id="Path_1693" data-name="Path 1693" d="M121.441,36.233a.187.187,0,1,1,.336-.162" fill="#221f20"/>
      <path id="Path_1694" data-name="Path 1694" d="M122.227,37.439a.2.2,0,1,1,.081-.263.195.195,0,0,1-.081.263" fill="#221f20"/>
      <path id="Path_1695" data-name="Path 1695" d="M122.839,38.283a.188.188,0,1,1-.256-.1.2.2,0,0,1,.256.1" fill="#221f20"/>
      <path id="Path_1696" data-name="Path 1696" d="M123.3,39.646a.192.192,0,0,1-.26-.085.2.2,0,0,1,.064-.269.193.193,0,0,1,.261.085.2.2,0,0,1-.065.269" fill="#221f20"/>
      <path id="Path_1697" data-name="Path 1697" d="M123.563,40.656a.187.187,0,1,1,.336-.162" fill="#221f20"/>
      <path id="Path_1698" data-name="Path 1698" d="M121.778,36.072a.187.187,0,1,1-.337.161" fill="#221f20"/>
      <path id="Path_1699" data-name="Path 1699" d="M119.48,42.555a.335.335,0,1,1,.473-.012.335.335,0,0,1-.473.012" fill="#221f20"/>
      <path id="Path_1700" data-name="Path 1700" d="M123.67,34.352a.161.161,0,1,1,.188-.258.162.162,0,1,1-.188.258" fill="#221f20"/>
      <path id="Path_1701" data-name="Path 1701" d="M123.266,35.09a.173.173,0,0,1-.246-.022.162.162,0,1,1,.246.022" fill="#221f20"/>
      <path id="Path_1702" data-name="Path 1702" d="M122.281,35.693a.181.181,0,0,1,0-.247.172.172,0,0,1,.238.037.177.177,0,0,1,0,.249.169.169,0,0,1-.242-.039" fill="#221f20"/>
      <path id="Path_1703" data-name="Path 1703" d="M121.507,35.948a.179.179,0,0,1,.224.089.171.171,0,0,1-.055.244" fill="#221f20"/>
      <path id="Path_1704" data-name="Path 1704" d="M126.641,35.037a.335.335,0,1,0,.473-.012.334.334,0,0,0-.473.012" fill="#221f20"/>
      <path id="Path_1705" data-name="Path 1705" d="M130.922,37.088a.335.335,0,1,0,.43.2.334.334,0,0,0-.43-.2" fill="#221f20"/>
      <path id="Path_1706" data-name="Path 1706" d="M124.679,39.556a.213.213,0,1,1-.282,0,.2.2,0,0,1,.282,0" fill="#221f20"/>
      <path id="Path_1707" data-name="Path 1707" d="M125.371,38.715a.188.188,0,1,1-.043.279.2.2,0,0,1,.043-.279" fill="#221f20"/>
      <path id="Path_1708" data-name="Path 1708" d="M126.66,37.932a.2.2,0,0,1-.041.276.2.2,0,0,1-.283-.006.2.2,0,0,1,.039-.277.2.2,0,0,1,.285.007" fill="#221f20"/>
      <path id="Path_1709" data-name="Path 1709" d="M127.649,37.492a.188.188,0,1,1-.2-.314" fill="#221f20"/>
      <path id="Path_1710" data-name="Path 1710" d="M123.46,40.447a.2.2,0,0,1,.283-.018.2.2,0,0,1-.017.28" fill="#221f20"/>
      <path id="Path_1711" data-name="Path 1711" d="M128.842,36.6a.213.213,0,0,1-.375.193.212.212,0,0,1,.375-.193" fill="#221f20"/>
      <path id="Path_1712" data-name="Path 1712" d="M129.773,36.012a.2.2,0,0,1,.26.116.213.213,0,0,1-.4.13.2.2,0,0,1,.142-.246" fill="#221f20"/>
      <path id="Path_1713" data-name="Path 1713" d="M131.3,35.959a.2.2,0,0,1-.2.191.208.208,0,0,1-.222-.166.19.19,0,0,1,.2-.206.226.226,0,0,1,.161.05.168.168,0,0,1,.065.131" fill="#221f20"/>
      <path id="Path_1714" data-name="Path 1714" d="M132.2,36.456a.21.21,0,0,1-.092-.118.19.19,0,0,1,.008-.144.165.165,0,0,1,.119-.087.237.237,0,0,1,.164.033" fill="#221f20"/>
      <path id="Path_1715" data-name="Path 1715" d="M127.447,37.178a.188.188,0,1,1,.2.314" fill="#221f20"/>
      <path id="Path_1716" data-name="Path 1716" d="M133.063,37.506a.2.2,0,0,1-.134-.054.217.217,0,0,1-.048-.262.2.2,0,0,1,.107-.1.159.159,0,0,1,.146.019.231.231,0,0,1,.093.151.234.234,0,0,1-.035.174.156.156,0,0,1-.129.069" fill="#221f20"/>
      <path id="Path_1717" data-name="Path 1717" d="M132.77,38.6a.232.232,0,0,1-.164.064.159.159,0,0,1-.129-.072.2.2,0,0,1-.026-.141.218.218,0,0,1,.066-.126.228.228,0,0,1,.13-.056.2.2,0,0,1,.14.039.159.159,0,0,1,.06.134.227.227,0,0,1-.077.158" fill="#221f20"/>
      <path id="Path_1718" data-name="Path 1718" d="M131.265,38.608a.2.2,0,0,1,.114-.086.21.21,0,0,1,.069-.013.332.332,0,0,1,.068.011.192.192,0,0,1,.061.034.194.194,0,0,1,.048.051.22.22,0,0,1,.036.14.16.16,0,0,1-.083.121.224.224,0,0,1-.176.01.241.241,0,0,1-.141-.118.156.156,0,0,1,0-.15" fill="#221f20"/>
      <path id="Path_1719" data-name="Path 1719" d="M131.109,37.675a.208.208,0,0,1-.2.185c-.107,0-.183-.1-.172-.236" fill="#221f20"/>
      <path id="Path_1720" data-name="Path 1720" d="M132.4,36.141a.235.235,0,0,1,.1.135.163.163,0,0,1-.029.144.185.185,0,0,1-.127.069.211.211,0,0,1-.145-.033" fill="#221f20"/>
      <path id="Path_1721" data-name="Path 1721" d="M125.664,36.175a.219.219,0,1,1,.285.022.2.2,0,0,1-.285-.022" fill="#221f20"/>
      <path id="Path_1722" data-name="Path 1722" d="M124.89,36.976a.189.189,0,1,1,.064-.279.2.2,0,0,1-.064.279" fill="#221f20"/>
      <path id="Path_1723" data-name="Path 1723" d="M123.552,37.743a.2.2,0,0,1,.046-.28.208.208,0,0,1,.289,0,.2.2,0,0,1-.046.279.209.209,0,0,1-.289,0" fill="#221f20"/>
      <path id="Path_1724" data-name="Path 1724" d="M122.55,38.234a.189.189,0,1,1,.222.3" fill="#221f20"/>
      <path id="Path_1725" data-name="Path 1725" d="M127.008,35.418a.189.189,0,1,1-.221-.3" fill="#221f20"/>
      <path id="Path_1726" data-name="Path 1726" d="M125.6,34.359a.169.169,0,0,1-.186.2.221.221,0,0,1-.1-.028.208.208,0,0,1-.061-.061.15.15,0,0,1,0-.145.285.285,0,0,1,.1-.1.209.209,0,0,1,.046-.027c.015,0,.026-.013.038-.01a.217.217,0,0,1,.168.171" fill="#221f20"/>
      <path id="Path_1727" data-name="Path 1727" d="M94.93,22.673l.134.111" fill="none" stroke="#221f20" stroke-miterlimit="10" stroke-width="0.39"/>
      <path id="Path_1728" data-name="Path 1728" d="M149.463,43.222s1.128.316,1.3.926c.175.626.52,2.752.061,2.878-.517.141-19.838,3.138-34.2,4.68C99.752,53.518,73.9,50.063,63.371,48.65c-17.783-2.385-24.612-2.994-24.612-2.994l-.269,6.952H2.639l.305-11.574" fill="none" stroke="#221f20" stroke-miterlimit="10" stroke-width="0.39"/>
      <circle id="Ellipse_142" data-name="Ellipse 142" cx="0.569" cy="0.569" r="0.569" transform="translate(90.227 23.222)" fill="none" stroke="#221f20" stroke-miterlimit="10" stroke-width="0.39"/>
      <circle id="Ellipse_143" data-name="Ellipse 143" cx="0.569" cy="0.569" r="0.569" transform="translate(85.041 19.089)" fill="none" stroke="#221f20" stroke-miterlimit="10" stroke-width="0.39"/>
      <circle id="Ellipse_144" data-name="Ellipse 144" cx="0.569" cy="0.569" r="0.569" transform="translate(79.829 14.812)" fill="none" stroke="#221f20" stroke-miterlimit="10" stroke-width="0.39"/>
      <circle id="Ellipse_145" data-name="Ellipse 145" cx="0.569" cy="0.569" r="0.569" transform="translate(74.557 11.341)" fill="none" stroke="#221f20" stroke-miterlimit="10" stroke-width="0.39"/>
      <circle id="Ellipse_146" data-name="Ellipse 146" cx="0.569" cy="0.569" r="0.569" transform="translate(68.74 7.743)" fill="none" stroke="#221f20" stroke-miterlimit="10" stroke-width="0.39"/>
      <path id="Path_1729" data-name="Path 1729" d="M93.531,21.52s.913-2.045-.866.141c-.866,1.064-1.869,2.13-1.869,2.13" fill="none" stroke="#221f20" stroke-miterlimit="10" stroke-width="1.17"/>
      <path id="Path_1730" data-name="Path 1730" d="M88.6,17.447s.284-2.065-1.018-.487c-.873,1.058-1.869,2.589-1.869,2.589" fill="none" stroke="#221f20" stroke-miterlimit="10" stroke-width="1.17"/>
      <path id="Path_1731" data-name="Path 1731" d="M83.5,13.259s.552-2.193-1.228-.006C81.4,14.316,80.4,15.382,80.4,15.382" fill="none" stroke="#221f20" stroke-miterlimit="10" stroke-width="1.17"/>
      <path id="Path_1732" data-name="Path 1732" d="M78.259,8.924s.679-1.657-1.1.529c-.865,1.064-2.033,2.456-2.033,2.456" fill="none" stroke="#221f20" stroke-miterlimit="10" stroke-width="1.17"/>
      <path id="Path_1733" data-name="Path 1733" d="M72.527,4.71s1.211-1.894-1.179.512a12.666,12.666,0,0,0-1.869,2.965" fill="none" stroke="#221f20" stroke-miterlimit="10" stroke-width="1.17"/>
      <path id="Path_1734" data-name="Path 1734" d="M61.339,4.143C56.8,7.409,50.5,11.77,43.028,13.812c-8.7,2.377-18.914.521-26.379-1.236C10.018,11.016,5.7,8.91,5.41,9.553" fill="none" stroke="#221f20" stroke-miterlimit="10" stroke-width="0.195"/>
      <path id="Path_1735" data-name="Path 1735" d="M61.981,4.575s-.74-.234-.839-.727C60.971,3,65.991.229,65.991.229l5.715,3.944" fill="none" stroke="#221f20" stroke-miterlimit="10" stroke-width="0.39"/>
      <line id="Line_7" data-name="Line 7" y1="6.428" x2="5.212" transform="translate(38.49 46.179)" fill="none" stroke="#221f20" stroke-miterlimit="10" stroke-width="0.39"/>
      <path id="Path_1736" data-name="Path 1736" d="M118.706,33.963a.187.187,0,1,1-.255-.11.2.2,0,0,1,.255.11" fill="#221f20"/>
      <path id="Path_1737" data-name="Path 1737" d="M119.144,35.355a.2.2,0,0,1-.26-.093.2.2,0,0,1,.07-.27.2.2,0,0,1,.26.093.2.2,0,0,1-.07.27" fill="#221f20"/>
      <path id="Path_1738" data-name="Path 1738" d="M119.392,36.382a.187.187,0,1,1,.34-.153" fill="#221f20"/>
      <path id="Path_1739" data-name="Path 1739" d="M120.16,37.624a.2.2,0,0,1-.255-.11.188.188,0,1,1,.255.11" fill="#221f20"/>
      <path id="Path_1740" data-name="Path 1740" d="M120.759,38.495a.2.2,0,0,1-.086.263.2.2,0,0,1-.255-.111.2.2,0,0,1,.086-.263.2.2,0,0,1,.255.111" fill="#221f20"/>
      <path id="Path_1741" data-name="Path 1741" d="M121.195,39.887a.194.194,0,0,1-.258-.1.188.188,0,1,1,.258.1" fill="#221f20"/>
      <path id="Path_1742" data-name="Path 1742" d="M121.358,40.916a.2.2,0,0,1,.123-.246.192.192,0,0,1,.237.148" fill="#221f20"/>
      <path id="Path_1743" data-name="Path 1743" d="M119.733,36.229a.2.2,0,0,1-.086.263.2.2,0,0,1-.255-.11" fill="#221f20"/>
      <path id="Path_1744" data-name="Path 1744" d="M121.616,42.3a.207.207,0,0,1,.053-.406.2.2,0,0,1-.053.406" fill="#221f20"/>
      <path id="Path_1745" data-name="Path 1745" d="M121.293,43.337a.211.211,0,0,1-.144.078.17.17,0,0,1-.137-.047.2.2,0,0,1,0-.272.219.219,0,0,1,.127-.072.191.191,0,0,1,.142.031.166.166,0,0,1,.07.127.213.213,0,0,1-.054.155" fill="#221f20"/>
      <path id="Path_1746" data-name="Path 1746" d="M119.937,43.953a.187.187,0,0,1,.026-.141.2.2,0,0,1,.113-.089.2.2,0,0,1,.249.1.161.161,0,0,1,0,.145.211.211,0,0,1-.126.106.227.227,0,0,1-.167-.008.17.17,0,0,1-.093-.115" fill="#221f20"/>
      <path id="Path_1747" data-name="Path 1747" d="M118.975,43.672a.2.2,0,0,1,.133.235.189.189,0,0,1-.257.117" fill="#221f20"/>
      <path id="Path_1748" data-name="Path 1748" d="M121.719,40.818a.194.194,0,0,1-.131.248.2.2,0,0,1-.229-.151" fill="#221f20"/>
      <path id="Path_1749" data-name="Path 1749" d="M117.875,42.9a.2.2,0,0,1,.144,0,.211.211,0,0,1,.109.091.2.2,0,0,1,.024.069.212.212,0,0,1,0,.071.2.2,0,0,1-.073.124.159.159,0,0,1-.143.027.212.212,0,0,1-.074-.036.275.275,0,0,1-.057-.068.22.22,0,0,1-.025-.167.161.161,0,0,1,.1-.11" fill="#221f20"/>
      <path id="Path_1750" data-name="Path 1750" d="M117.571,41.85a.26.26,0,0,1,.03-.085.194.194,0,0,1,.056-.061.159.159,0,0,1,.144-.024.2.2,0,0,1,.112.091.228.228,0,0,1,.024.066.174.174,0,0,1,0,.072.22.22,0,0,1-.069.124.2.2,0,0,1-.136.05.163.163,0,0,1-.128-.069.214.214,0,0,1-.036-.164" fill="#221f20"/>
      <path id="Path_1751" data-name="Path 1751" d="M118.716,40.942a.193.193,0,0,1-.031.14.218.218,0,0,1-.109.087.2.2,0,0,1-.136,0,.2.2,0,0,1-.11-.091.158.158,0,0,1-.007-.145.213.213,0,0,1,.13-.112.23.23,0,0,1,.174.008.166.166,0,0,1,.089.118" fill="#221f20"/>
      <path id="Path_1752" data-name="Path 1752" d="M119.451,41.289a.009.009,0,0,0,.005.012l.009-.007a.36.36,0,0,0,.01-.047.3.3,0,0,1,.044-.134.134.134,0,0,1,.137-.058.181.181,0,0,1,.1.049.33.33,0,0,1,.045.062.312.312,0,0,1,.026.091" fill="#221f20"/>
      <path id="Path_1753" data-name="Path 1753" d="M118.849,44.024a.222.222,0,0,1-.125-.108.165.165,0,0,1,0-.147.192.192,0,0,1,.107-.1.21.21,0,0,1,.144,0" fill="#221f20"/>
      <path id="Path_1754" data-name="Path 1754" d="M120.717,33.86a.188.188,0,1,1-.256-.1.2.2,0,0,1,.256.1" fill="#221f20"/>
      <path id="Path_1755" data-name="Path 1755" d="M121.177,35.224a.192.192,0,0,1-.26-.085.2.2,0,0,1,.064-.269.193.193,0,0,1,.261.085.2.2,0,0,1-.065.269" fill="#221f20"/>
      <path id="Path_1756" data-name="Path 1756" d="M121.441,36.233a.187.187,0,1,1,.336-.162" fill="#221f20"/>
      <path id="Path_1757" data-name="Path 1757" d="M122.227,37.439a.2.2,0,1,1,.081-.263.195.195,0,0,1-.081.263" fill="#221f20"/>
      <path id="Path_1758" data-name="Path 1758" d="M122.839,38.283a.188.188,0,1,1-.256-.1.2.2,0,0,1,.256.1" fill="#221f20"/>
      <path id="Path_1759" data-name="Path 1759" d="M123.3,39.646a.192.192,0,0,1-.26-.085.2.2,0,0,1,.064-.269.193.193,0,0,1,.261.085.2.2,0,0,1-.065.269" fill="#221f20"/>
      <path id="Path_1760" data-name="Path 1760" d="M123.563,40.656a.187.187,0,1,1,.336-.162" fill="#221f20"/>
      <path id="Path_1761" data-name="Path 1761" d="M121.778,36.072a.187.187,0,1,1-.337.161" fill="#221f20"/>
      <path id="Path_1762" data-name="Path 1762" d="M119.48,42.555a.335.335,0,1,1,.473-.012.335.335,0,0,1-.473.012" fill="#221f20"/>
      <path id="Path_1763" data-name="Path 1763" d="M123.67,34.352a.161.161,0,1,1,.188-.258.162.162,0,1,1-.188.258" fill="#221f20"/>
      <path id="Path_1764" data-name="Path 1764" d="M123.266,35.09a.173.173,0,0,1-.246-.022.162.162,0,1,1,.246.022" fill="#221f20"/>
      <path id="Path_1765" data-name="Path 1765" d="M122.281,35.693a.181.181,0,0,1,0-.247.172.172,0,0,1,.238.037.177.177,0,0,1,0,.249.169.169,0,0,1-.242-.039" fill="#221f20"/>
      <path id="Path_1766" data-name="Path 1766" d="M121.507,35.948a.179.179,0,0,1,.224.089.171.171,0,0,1-.055.244" fill="#221f20"/>
      <path id="Path_1767" data-name="Path 1767" d="M126.641,35.037a.335.335,0,1,0,.473-.012.334.334,0,0,0-.473.012" fill="#221f20"/>
      <path id="Path_1768" data-name="Path 1768" d="M130.922,37.088a.335.335,0,1,0,.43.2.334.334,0,0,0-.43-.2" fill="#221f20"/>
      <path id="Path_1769" data-name="Path 1769" d="M124.679,39.556a.213.213,0,1,1-.282,0,.2.2,0,0,1,.282,0" fill="#221f20"/>
      <path id="Path_1770" data-name="Path 1770" d="M125.371,38.715a.188.188,0,1,1-.043.279.2.2,0,0,1,.043-.279" fill="#221f20"/>
      <path id="Path_1771" data-name="Path 1771" d="M126.66,37.932a.2.2,0,0,1-.041.276.2.2,0,0,1-.283-.006.2.2,0,0,1,.039-.277.2.2,0,0,1,.285.007" fill="#221f20"/>
      <path id="Path_1772" data-name="Path 1772" d="M127.649,37.492a.188.188,0,1,1-.2-.314" fill="#221f20"/>
      <path id="Path_1773" data-name="Path 1773" d="M123.46,40.447a.2.2,0,0,1,.283-.018.2.2,0,0,1-.017.28" fill="#221f20"/>
      <path id="Path_1774" data-name="Path 1774" d="M128.842,36.6a.213.213,0,0,1-.375.193.212.212,0,0,1,.375-.193" fill="#221f20"/>
      <path id="Path_1775" data-name="Path 1775" d="M129.773,36.012a.2.2,0,0,1,.26.116.213.213,0,0,1-.4.13.2.2,0,0,1,.142-.246" fill="#221f20"/>
      <path id="Path_1776" data-name="Path 1776" d="M131.3,35.959a.2.2,0,0,1-.2.191.208.208,0,0,1-.222-.166.19.19,0,0,1,.2-.206.226.226,0,0,1,.161.05.168.168,0,0,1,.065.131" fill="#221f20"/>
      <path id="Path_1777" data-name="Path 1777" d="M132.2,36.456a.21.21,0,0,1-.092-.118.19.19,0,0,1,.008-.144.165.165,0,0,1,.119-.087.237.237,0,0,1,.164.033" fill="#221f20"/>
      <path id="Path_1778" data-name="Path 1778" d="M127.447,37.178a.188.188,0,1,1,.2.314" fill="#221f20"/>
      <path id="Path_1779" data-name="Path 1779" d="M133.063,37.506a.2.2,0,0,1-.134-.054.217.217,0,0,1-.048-.262.2.2,0,0,1,.107-.1.159.159,0,0,1,.146.019.231.231,0,0,1,.093.151.234.234,0,0,1-.035.174.156.156,0,0,1-.129.069" fill="#221f20"/>
      <path id="Path_1780" data-name="Path 1780" d="M132.77,38.6a.232.232,0,0,1-.164.064.159.159,0,0,1-.129-.072.2.2,0,0,1-.026-.141.218.218,0,0,1,.066-.126.228.228,0,0,1,.13-.056.2.2,0,0,1,.14.039.159.159,0,0,1,.06.134.227.227,0,0,1-.077.158" fill="#221f20"/>
      <path id="Path_1781" data-name="Path 1781" d="M131.265,38.608a.2.2,0,0,1,.114-.086.21.21,0,0,1,.069-.013.332.332,0,0,1,.068.011.192.192,0,0,1,.061.034.194.194,0,0,1,.048.051.22.22,0,0,1,.036.14.16.16,0,0,1-.083.121.224.224,0,0,1-.176.01.241.241,0,0,1-.141-.118.156.156,0,0,1,0-.15" fill="#221f20"/>
      <path id="Path_1782" data-name="Path 1782" d="M131.109,37.675a.208.208,0,0,1-.2.185c-.107,0-.183-.1-.172-.236" fill="#221f20"/>
      <path id="Path_1783" data-name="Path 1783" d="M132.4,36.141a.235.235,0,0,1,.1.135.163.163,0,0,1-.029.144.185.185,0,0,1-.127.069.211.211,0,0,1-.145-.033" fill="#221f20"/>
      <path id="Path_1784" data-name="Path 1784" d="M125.664,36.175a.219.219,0,1,1,.285.022.2.2,0,0,1-.285-.022" fill="#221f20"/>
      <path id="Path_1785" data-name="Path 1785" d="M124.89,36.976a.189.189,0,1,1,.064-.279.2.2,0,0,1-.064.279" fill="#221f20"/>
      <path id="Path_1786" data-name="Path 1786" d="M123.552,37.743a.2.2,0,0,1,.046-.28.208.208,0,0,1,.289,0,.2.2,0,0,1-.046.279.209.209,0,0,1-.289,0" fill="#221f20"/>
      <path id="Path_1787" data-name="Path 1787" d="M122.55,38.234a.189.189,0,1,1,.222.3" fill="#221f20"/>
      <path id="Path_1788" data-name="Path 1788" d="M127.008,35.418a.189.189,0,1,1-.221-.3" fill="#221f20"/>
      <path id="Path_1789" data-name="Path 1789" d="M125.6,34.359a.169.169,0,0,1-.186.2.221.221,0,0,1-.1-.028.208.208,0,0,1-.061-.061.15.15,0,0,1,0-.145.285.285,0,0,1,.1-.1.209.209,0,0,1,.046-.027c.015,0,.026-.013.038-.01a.217.217,0,0,1,.168.171" fill="#221f20"/>
      <path id="Path_1790" data-name="Path 1790" d="M94.93,22.673l.134.111" fill="none" stroke="#221f20" stroke-miterlimit="10" stroke-width="0.39"/>
      <circle id="Ellipse_147" data-name="Ellipse 147" cx="0.569" cy="0.569" r="0.569" transform="translate(90.227 23.222)" fill="none" stroke="#221f20" stroke-miterlimit="10" stroke-width="0.39"/>
      <circle id="Ellipse_148" data-name="Ellipse 148" cx="0.569" cy="0.569" r="0.569" transform="translate(85.041 19.089)" fill="none" stroke="#221f20" stroke-miterlimit="10" stroke-width="0.39"/>
      <circle id="Ellipse_149" data-name="Ellipse 149" cx="0.569" cy="0.569" r="0.569" transform="translate(79.829 14.812)" fill="none" stroke="#221f20" stroke-miterlimit="10" stroke-width="0.39"/>
      <circle id="Ellipse_150" data-name="Ellipse 150" cx="0.569" cy="0.569" r="0.569" transform="translate(74.557 11.341)" fill="none" stroke="#221f20" stroke-miterlimit="10" stroke-width="0.39"/>
      <circle id="Ellipse_151" data-name="Ellipse 151" cx="0.569" cy="0.569" r="0.569" transform="translate(68.74 7.743)" fill="none" stroke="#221f20" stroke-miterlimit="10" stroke-width="0.39"/>
      <path id="Path_1791" data-name="Path 1791" d="M93.531,21.52s.913-2.045-.866.141c-.866,1.064-1.869,2.13-1.869,2.13" fill="none" stroke="#221f20" stroke-miterlimit="10" stroke-width="1.17"/>
      <path id="Path_1792" data-name="Path 1792" d="M88.6,17.447s.284-2.065-1.018-.487c-.873,1.058-1.869,2.589-1.869,2.589" fill="none" stroke="#221f20" stroke-miterlimit="10" stroke-width="1.17"/>
      <path id="Path_1793" data-name="Path 1793" d="M83.5,13.259s.552-2.193-1.228-.006C81.4,14.316,80.4,15.382,80.4,15.382" fill="none" stroke="#221f20" stroke-miterlimit="10" stroke-width="1.17"/>
      <path id="Path_1794" data-name="Path 1794" d="M78.259,8.924s.679-1.657-1.1.529c-.865,1.064-2.033,2.456-2.033,2.456" fill="none" stroke="#221f20" stroke-miterlimit="10" stroke-width="1.17"/>
      <path id="Path_1795" data-name="Path 1795" d="M72.527,4.71s1.211-1.894-1.179.512a12.666,12.666,0,0,0-1.869,2.965" fill="none" stroke="#221f20" stroke-miterlimit="10" stroke-width="1.17"/>
      <path id="Path_1796" data-name="Path 1796" d="M38.49,52.608,43.7,46.18c-3.436-.39-4.942-.523-4.942-.523Z" fill="#160602"/>
      <path id="Path_1797" data-name="Path 1797" d="M38.49,52.608,43.7,46.18c-3.436-.39-4.942-.523-4.942-.523Z" fill="none" stroke="#2e160e" stroke-linejoin="round" stroke-width="0.39"/>
      <path id="Path_1798" data-name="Path 1798" d="M118.706,33.963a.187.187,0,1,1-.255-.11.2.2,0,0,1,.255.11" fill="#221f20"/>
      <path id="Path_1799" data-name="Path 1799" d="M119.144,35.355a.2.2,0,0,1-.26-.093.2.2,0,0,1,.07-.27.2.2,0,0,1,.26.093.2.2,0,0,1-.07.27" fill="#221f20"/>
      <path id="Path_1800" data-name="Path 1800" d="M119.392,36.382a.187.187,0,1,1,.34-.153" fill="#221f20"/>
      <path id="Path_1801" data-name="Path 1801" d="M120.16,37.624a.2.2,0,0,1-.255-.11.188.188,0,1,1,.255.11" fill="#221f20"/>
      <path id="Path_1802" data-name="Path 1802" d="M120.759,38.495a.2.2,0,0,1-.086.263.2.2,0,0,1-.255-.111.2.2,0,0,1,.086-.263.2.2,0,0,1,.255.111" fill="#221f20"/>
      <path id="Path_1803" data-name="Path 1803" d="M121.195,39.887a.194.194,0,0,1-.258-.1.188.188,0,1,1,.258.1" fill="#221f20"/>
      <path id="Path_1804" data-name="Path 1804" d="M121.358,40.916a.2.2,0,0,1,.123-.246.192.192,0,0,1,.237.148" fill="#221f20"/>
      <path id="Path_1805" data-name="Path 1805" d="M119.733,36.229a.2.2,0,0,1-.086.263.2.2,0,0,1-.255-.11" fill="#221f20"/>
      <path id="Path_1806" data-name="Path 1806" d="M121.616,42.3a.207.207,0,0,1,.053-.406.2.2,0,0,1-.053.406" fill="#221f20"/>
      <path id="Path_1807" data-name="Path 1807" d="M121.293,43.337a.211.211,0,0,1-.144.078.17.17,0,0,1-.137-.047.2.2,0,0,1,0-.272.219.219,0,0,1,.127-.072.191.191,0,0,1,.142.031.166.166,0,0,1,.07.127.213.213,0,0,1-.054.155" fill="#221f20"/>
      <path id="Path_1808" data-name="Path 1808" d="M119.937,43.953a.187.187,0,0,1,.026-.141.2.2,0,0,1,.113-.089.2.2,0,0,1,.249.1.161.161,0,0,1,0,.145.211.211,0,0,1-.126.106.227.227,0,0,1-.167-.008.17.17,0,0,1-.093-.115" fill="#221f20"/>
      <path id="Path_1809" data-name="Path 1809" d="M118.975,43.672a.2.2,0,0,1,.133.235.189.189,0,0,1-.257.117" fill="#221f20"/>
      <path id="Path_1810" data-name="Path 1810" d="M121.719,40.818a.194.194,0,0,1-.131.248.2.2,0,0,1-.229-.151" fill="#221f20"/>
      <path id="Path_1811" data-name="Path 1811" d="M117.875,42.9a.2.2,0,0,1,.144,0,.211.211,0,0,1,.109.091.2.2,0,0,1,.024.069.212.212,0,0,1,0,.071.2.2,0,0,1-.073.124.159.159,0,0,1-.143.027.212.212,0,0,1-.074-.036.275.275,0,0,1-.057-.068.22.22,0,0,1-.025-.167.161.161,0,0,1,.1-.11" fill="#221f20"/>
      <path id="Path_1812" data-name="Path 1812" d="M117.571,41.85a.26.26,0,0,1,.03-.085.194.194,0,0,1,.056-.061.159.159,0,0,1,.144-.024.2.2,0,0,1,.112.091.228.228,0,0,1,.024.066.174.174,0,0,1,0,.072.22.22,0,0,1-.069.124.2.2,0,0,1-.136.05.163.163,0,0,1-.128-.069.214.214,0,0,1-.036-.164" fill="#221f20"/>
      <path id="Path_1813" data-name="Path 1813" d="M118.716,40.942a.193.193,0,0,1-.031.14.218.218,0,0,1-.109.087.2.2,0,0,1-.136,0,.2.2,0,0,1-.11-.091.158.158,0,0,1-.007-.145.213.213,0,0,1,.13-.112.23.23,0,0,1,.174.008.166.166,0,0,1,.089.118" fill="#221f20"/>
      <path id="Path_1814" data-name="Path 1814" d="M119.451,41.289a.009.009,0,0,0,.005.012l.009-.007a.36.36,0,0,0,.01-.047.3.3,0,0,1,.044-.134.134.134,0,0,1,.137-.058.181.181,0,0,1,.1.049.33.33,0,0,1,.045.062.312.312,0,0,1,.026.091" fill="#221f20"/>
      <path id="Path_1815" data-name="Path 1815" d="M118.849,44.024a.222.222,0,0,1-.125-.108.165.165,0,0,1,0-.147.192.192,0,0,1,.107-.1.21.21,0,0,1,.144,0" fill="#221f20"/>
      <path id="Path_1816" data-name="Path 1816" d="M120.717,33.86a.188.188,0,1,1-.256-.1.2.2,0,0,1,.256.1" fill="#221f20"/>
      <path id="Path_1817" data-name="Path 1817" d="M121.177,35.224a.192.192,0,0,1-.26-.085.2.2,0,0,1,.064-.269.193.193,0,0,1,.261.085.2.2,0,0,1-.065.269" fill="#221f20"/>
      <path id="Path_1818" data-name="Path 1818" d="M121.441,36.233a.187.187,0,1,1,.336-.162" fill="#221f20"/>
      <path id="Path_1819" data-name="Path 1819" d="M122.227,37.439a.2.2,0,1,1,.081-.263.195.195,0,0,1-.081.263" fill="#221f20"/>
      <path id="Path_1820" data-name="Path 1820" d="M122.839,38.283a.188.188,0,1,1-.256-.1.2.2,0,0,1,.256.1" fill="#221f20"/>
      <path id="Path_1821" data-name="Path 1821" d="M123.3,39.646a.192.192,0,0,1-.26-.085.2.2,0,0,1,.064-.269.193.193,0,0,1,.261.085.2.2,0,0,1-.065.269" fill="#221f20"/>
      <path id="Path_1822" data-name="Path 1822" d="M123.563,40.656a.187.187,0,1,1,.336-.162" fill="#221f20"/>
      <path id="Path_1823" data-name="Path 1823" d="M121.778,36.072a.187.187,0,1,1-.337.161" fill="#221f20"/>
      <path id="Path_1824" data-name="Path 1824" d="M119.48,42.555a.335.335,0,1,1,.473-.012.335.335,0,0,1-.473.012" fill="#221f20"/>
      <path id="Path_1825" data-name="Path 1825" d="M123.67,34.352a.161.161,0,1,1,.188-.258.162.162,0,1,1-.188.258" fill="#221f20"/>
      <path id="Path_1826" data-name="Path 1826" d="M123.266,35.09a.173.173,0,0,1-.246-.022.162.162,0,1,1,.246.022" fill="#221f20"/>
      <path id="Path_1827" data-name="Path 1827" d="M122.281,35.693a.181.181,0,0,1,0-.247.172.172,0,0,1,.238.037.177.177,0,0,1,0,.249.169.169,0,0,1-.242-.039" fill="#221f20"/>
      <path id="Path_1828" data-name="Path 1828" d="M121.507,35.948a.179.179,0,0,1,.224.089.171.171,0,0,1-.055.244" fill="#221f20"/>
      <path id="Path_1829" data-name="Path 1829" d="M126.641,35.037a.335.335,0,1,0,.473-.012.334.334,0,0,0-.473.012" fill="#221f20"/>
      <path id="Path_1830" data-name="Path 1830" d="M130.922,37.088a.335.335,0,1,0,.43.2.334.334,0,0,0-.43-.2" fill="#221f20"/>
      <path id="Path_1831" data-name="Path 1831" d="M124.679,39.556a.213.213,0,1,1-.282,0,.2.2,0,0,1,.282,0" fill="#221f20"/>
      <path id="Path_1832" data-name="Path 1832" d="M125.371,38.715a.188.188,0,1,1-.043.279.2.2,0,0,1,.043-.279" fill="#221f20"/>
      <path id="Path_1833" data-name="Path 1833" d="M126.66,37.932a.2.2,0,0,1-.041.276.2.2,0,0,1-.283-.006.2.2,0,0,1,.039-.277.2.2,0,0,1,.285.007" fill="#221f20"/>
      <path id="Path_1834" data-name="Path 1834" d="M127.649,37.492a.188.188,0,1,1-.2-.314" fill="#221f20"/>
      <path id="Path_1835" data-name="Path 1835" d="M123.46,40.447a.2.2,0,0,1,.283-.018.2.2,0,0,1-.017.28" fill="#221f20"/>
      <path id="Path_1836" data-name="Path 1836" d="M128.842,36.6a.213.213,0,0,1-.375.193.212.212,0,0,1,.375-.193" fill="#221f20"/>
      <path id="Path_1837" data-name="Path 1837" d="M129.773,36.012a.2.2,0,0,1,.26.116.213.213,0,0,1-.4.13.2.2,0,0,1,.142-.246" fill="#221f20"/>
      <path id="Path_1838" data-name="Path 1838" d="M131.3,35.959a.2.2,0,0,1-.2.191.208.208,0,0,1-.222-.166.19.19,0,0,1,.2-.206.226.226,0,0,1,.161.05.168.168,0,0,1,.065.131" fill="#221f20"/>
      <path id="Path_1839" data-name="Path 1839" d="M132.2,36.456a.21.21,0,0,1-.092-.118.19.19,0,0,1,.008-.144.165.165,0,0,1,.119-.087.237.237,0,0,1,.164.033" fill="#221f20"/>
      <path id="Path_1840" data-name="Path 1840" d="M127.447,37.178a.188.188,0,1,1,.2.314" fill="#221f20"/>
      <path id="Path_1841" data-name="Path 1841" d="M133.063,37.506a.2.2,0,0,1-.134-.054.217.217,0,0,1-.048-.262.2.2,0,0,1,.107-.1.159.159,0,0,1,.146.019.231.231,0,0,1,.093.151.234.234,0,0,1-.035.174.156.156,0,0,1-.129.069" fill="#221f20"/>
      <path id="Path_1842" data-name="Path 1842" d="M132.77,38.6a.232.232,0,0,1-.164.064.159.159,0,0,1-.129-.072.2.2,0,0,1-.026-.141.218.218,0,0,1,.066-.126.228.228,0,0,1,.13-.056.2.2,0,0,1,.14.039.159.159,0,0,1,.06.134.227.227,0,0,1-.077.158" fill="#221f20"/>
      <path id="Path_1843" data-name="Path 1843" d="M131.265,38.608a.2.2,0,0,1,.114-.086.21.21,0,0,1,.069-.013.332.332,0,0,1,.068.011.192.192,0,0,1,.061.034.194.194,0,0,1,.048.051.22.22,0,0,1,.036.14.16.16,0,0,1-.083.121.224.224,0,0,1-.176.01.241.241,0,0,1-.141-.118.156.156,0,0,1,0-.15" fill="#221f20"/>
      <path id="Path_1844" data-name="Path 1844" d="M131.109,37.675a.208.208,0,0,1-.2.185c-.107,0-.183-.1-.172-.236" fill="#221f20"/>
      <path id="Path_1845" data-name="Path 1845" d="M132.4,36.141a.235.235,0,0,1,.1.135.163.163,0,0,1-.029.144.185.185,0,0,1-.127.069.211.211,0,0,1-.145-.033" fill="#221f20"/>
      <path id="Path_1846" data-name="Path 1846" d="M125.664,36.175a.219.219,0,1,1,.285.022.2.2,0,0,1-.285-.022" fill="#221f20"/>
      <path id="Path_1847" data-name="Path 1847" d="M124.89,36.976a.189.189,0,1,1,.064-.279.2.2,0,0,1-.064.279" fill="#221f20"/>
      <path id="Path_1848" data-name="Path 1848" d="M123.552,37.743a.2.2,0,0,1,.046-.28.208.208,0,0,1,.289,0,.2.2,0,0,1-.046.279.209.209,0,0,1-.289,0" fill="#221f20"/>
      <path id="Path_1849" data-name="Path 1849" d="M122.55,38.234a.189.189,0,1,1,.222.3" fill="#221f20"/>
      <path id="Path_1850" data-name="Path 1850" d="M127.008,35.418a.189.189,0,1,1-.221-.3" fill="#221f20"/>
      <path id="Path_1851" data-name="Path 1851" d="M125.6,34.359a.169.169,0,0,1-.186.2.221.221,0,0,1-.1-.028.208.208,0,0,1-.061-.061.15.15,0,0,1,0-.145.285.285,0,0,1,.1-.1.209.209,0,0,1,.046-.027c.015,0,.026-.013.038-.01a.217.217,0,0,1,.168.171" fill="#221f20"/>
      <path id="Path_1852" data-name="Path 1852" d="M5.411,9.552l0,.16c.051-.1.074-.16.074-.16,11.425,5.512,25.605,7.723,35.86,5.875,7.743-1.4,17.658-8.59,20.545-10.786l-.554-.5-.25.179-.07.051c-4.509,3.237-10.692,7.446-17.994,9.44-8.695,2.375-18.911.522-26.377-1.237C10.018,11.015,5.7,8.908,5.411,9.552" fill="#c9c9c9"/>
      <path id="Path_1853" data-name="Path 1853" d="M5.411,9.552l0,.16c.051-.1.074-.16.074-.16,11.425,5.512,25.605,7.723,35.86,5.875,7.743-1.4,17.658-8.59,20.545-10.786l-.554-.5-.25.179-.07.051c-4.509,3.237-10.692,7.446-17.994,9.44-8.695,2.375-18.911.522-26.377-1.237C10.018,11.015,5.7,8.908,5.411,9.552Z" fill="none" stroke="#221f20" stroke-miterlimit="10" stroke-width="0.39"/>
      <path id="Path_1854" data-name="Path 1854" d="M61.141,3.849a.691.691,0,0,0,.191.339,1.474,1.474,0,0,0,.375.27,2.031,2.031,0,0,0,.273.117c.456-.352.717-.558.737-.574l.039-.023c3.261-2.056,5.406-1.646,8.773.327l.179-.132L65.994.229S60.969,3,61.141,3.849" fill="#c9c9c9"/>
      <path id="Path_1855" data-name="Path 1855" d="M61.141,3.849a.691.691,0,0,0,.191.339,1.474,1.474,0,0,0,.375.27,2.031,2.031,0,0,0,.273.117c.456-.352.717-.558.737-.574l.039-.023c3.261-2.056,5.406-1.646,8.773.327l.179-.132L65.994.229S60.969,3,61.141,3.849Z" fill="none" stroke="#221f20" stroke-miterlimit="10" stroke-width="0.39"/>
    </g>
  </g>
</svg>
