<svg id="Group_1398" data-name="Group 1398" xmlns="http://www.w3.org/2000/svg" xmlns:xlink="http://www.w3.org/1999/xlink" width="150.67" height="52.568" viewBox="0 0 150.67 52.568">
  <defs>
    <clipPath id="clip-path">
      <rect id="Rectangle_1932" data-name="Rectangle 1932" width="150.669" height="52.568" transform="translate(0 0)" fill="none"/>
    </clipPath>
  </defs>
  <g id="Group_1398-2" data-name="Group 1398" clip-path="url(#clip-path)">
    <path id="Path_1234" data-name="Path 1234" d="M2.725,52.374H38.417l.268-6.92s1.5.132,4.92.52c3.864.439,10.186,1.2,19.58,2.458,10.489,1.406,36.22,4.847,53.019,3.045,14.295-1.538,33.529-4.52,34.046-4.66.454-.124.112-2.245-.063-2.866s-1.293-.92-1.293-.92L3.028,40.852Z" fill="#2e160e"/>
    <path id="Path_1235" data-name="Path 1235" d="M2.725,52.374H38.417l.268-6.92s1.5.132,4.92.52c3.864.439,10.186,1.2,19.58,2.458,10.489,1.406,36.22,4.847,53.019,3.045,14.295-1.538,33.529-4.52,34.046-4.66.454-.124.112-2.245-.063-2.866s-1.293-.92-1.293-.92L3.028,40.852Z" fill="none" stroke="#221f20" stroke-miterlimit="10" stroke-width="0.388"/>
    <path id="Path_1236" data-name="Path 1236" d="M3.027,40.852s18.562-.284,30.061.746c12.415,1.114,55.959,7.743,73.694,7.281a196.727,196.727,0,0,0,42.111-5.848,5.192,5.192,0,0,0-.608-3.379c-.844-1.5-2.522-2.773-6.487-3.394-6.733-1.056-15.677-2.346-24.037-3.417-8.851-1.13-12.951-1.581-21.037-8.486l-1.988-1.673C87.867,16.985,76.329,7.506,74.978,6.62l-.132-.085c-1.344-.882-2.5-1.643-3.542-2.253-3.347-1.961-5.487-2.368-8.73-.322l-.039.023c-.015.016-.275.222-.734.571-.182.14-.4.3-.648.49-3.437,2.563-12.625,9-19.891,10.314C31.053,17.2,16.937,15,5.559,9.509l-.054.125c-.8,1.759-9.538,21.634-2.478,31.218" fill="#fff"/>
    <path id="Path_1237" data-name="Path 1237" d="M3.027,40.852s18.562-.284,30.061.746c12.415,1.114,55.959,7.743,73.694,7.281a196.727,196.727,0,0,0,42.111-5.848,5.192,5.192,0,0,0-.608-3.379c-.844-1.5-2.522-2.773-6.487-3.394-6.733-1.056-15.677-2.346-24.037-3.417-8.851-1.13-12.951-1.581-21.037-8.486l-1.988-1.673C87.867,16.985,76.329,7.506,74.978,6.62l-.132-.085c-1.344-.882-2.5-1.643-3.542-2.253-3.347-1.961-5.487-2.368-8.73-.322l-.039.023c-.015.016-.275.222-.734.571-.182.14-.4.3-.648.49-3.437,2.563-12.625,9-19.891,10.314C31.053,17.2,16.937,15,5.559,9.509l-.054.125C4.7,11.393-4.033,31.268,3.027,40.852Z" fill="none" stroke="#221f20" stroke-miterlimit="10" stroke-width="0.583"/>
    <path id="Path_1238" data-name="Path 1238" d="M94.6,22.572l.133.111" fill="none" stroke="#221f20" stroke-miterlimit="10" stroke-width="0.388"/>
    <path id="Path_1239" data-name="Path 1239" d="M5.271,10.162q.342.165.688.326" fill="none" stroke="#221f20" stroke-miterlimit="10" stroke-width="0.332"/>
    <path id="Path_1240" data-name="Path 1240" d="M7.336,11.111c11.117,4.859,24.315,6.768,34.065,5.01,9.18-1.654,20.894-10.947,21.6-11.516,3.82-2.4,5.737-1.144,11.413,2.578l.132.086c1.126.739,11.2,8.924,18.4,14.882" fill="none" stroke="#221f20" stroke-miterlimit="10" stroke-width="0.332" stroke-dasharray="1.512 1.512"/>
    <path id="Path_1241" data-name="Path 1241" d="M93.536,22.633l.585.485" fill="none" stroke="#221f20" stroke-miterlimit="10" stroke-width="0.332"/>
    <path id="Path_1242" data-name="Path 1242" d="M46.174,42.927q.02-.384.045-.761" fill="none" stroke="#221f20" stroke-miterlimit="10" stroke-width="0.332"/>
    <path id="Path_1243" data-name="Path 1243" d="M46.341,40.636c.606-6.265,2.46-10.967,8.283-14.547,6.165-3.79,21.23-.31,24.187.426,10.571,2.632,14.674,2.65,17.609-.429" fill="none" stroke="#221f20" stroke-miterlimit="10" stroke-width="0.332" stroke-dasharray="1.532 1.532"/>
    <path id="Path_1244" data-name="Path 1244" d="M96.925,25.513c.156-.191.31-.391.462-.6" fill="none" stroke="#221f20" stroke-miterlimit="10" stroke-width="0.332"/>
    <path id="Path_1245" data-name="Path 1245" d="M96.788,24.146C94.44,27.823,91.449,28.859,79,25.761a79.266,79.266,0,0,0-12.25-2.044c-5.75-.443-9.966.133-12.532,1.71-6.778,4.167-8.428,9.993-8.819,17.459" fill="none" stroke="#221f20" stroke-linecap="round" stroke-miterlimit="10" stroke-width="0.665"/>
    <path id="Path_1246" data-name="Path 1246" d="M89.922,23.685a.567.567,0,1,0,.566-.566A.566.566,0,0,0,89.922,23.685Z" fill="none" stroke="#221f20" stroke-miterlimit="10" stroke-width="0.388"/>
    <path id="Path_1247" data-name="Path 1247" d="M84.759,19.57A.566.566,0,1,0,85.325,19,.566.566,0,0,0,84.759,19.57Z" fill="none" stroke="#221f20" stroke-miterlimit="10" stroke-width="0.388"/>
    <path id="Path_1248" data-name="Path 1248" d="M79.571,15.313a.567.567,0,1,0,.566-.566A.566.566,0,0,0,79.571,15.313Z" fill="none" stroke="#221f20" stroke-miterlimit="10" stroke-width="0.388"/>
    <path id="Path_1249" data-name="Path 1249" d="M74.322,11.857a.567.567,0,1,0,.566-.566A.566.566,0,0,0,74.322,11.857Z" fill="none" stroke="#221f20" stroke-miterlimit="10" stroke-width="0.388"/>
    <path id="Path_1250" data-name="Path 1250" d="M68.532,8.275a.567.567,0,1,0,.566-.566A.566.566,0,0,0,68.532,8.275Z" fill="none" stroke="#221f20" stroke-miterlimit="10" stroke-width="0.388"/>
    <path id="Path_1251" data-name="Path 1251" d="M93.212,21.424s.909-2.035-.862.141c-.862,1.059-1.861,2.119-1.861,2.119" fill="none" stroke="#221f20" stroke-miterlimit="10" stroke-width="1.165"/>
    <path id="Path_1252" data-name="Path 1252" d="M88.305,17.369s.283-2.056-1.013-.485c-.869,1.054-1.861,2.577-1.861,2.577" fill="none" stroke="#221f20" stroke-miterlimit="10" stroke-width="1.165"/>
    <path id="Path_1253" data-name="Path 1253" d="M83.22,13.2s.549-2.183-1.222-.006c-.862,1.058-1.861,2.119-1.861,2.119" fill="none" stroke="#221f20" stroke-miterlimit="10" stroke-width="1.165"/>
    <path id="Path_1254" data-name="Path 1254" d="M78.008,8.884s.676-1.649-1.1.527c-.862,1.059-2.024,2.445-2.024,2.445" fill="none" stroke="#221f20" stroke-miterlimit="10" stroke-width="1.165"/>
    <path id="Path_1255" data-name="Path 1255" d="M72.3,4.689s1.205-1.886-1.174.51a12.593,12.593,0,0,0-1.86,2.952" fill="none" stroke="#221f20" stroke-miterlimit="10" stroke-width="1.165"/>
    <path id="Path_1256" data-name="Path 1256" d="M94.807,26.54s-2.4-1.606.079-3.924c0,0,.255-.158,1.841,1.739" fill="none" stroke="#221f20" stroke-miterlimit="10" stroke-width="0.388"/>
    <path id="Path_1257" data-name="Path 1257" d="M38.417,52.374l5.187-6.4c-3.421-.388-4.92-.52-4.92-.52Z" fill="#160602"/>
    <path id="Path_1258" data-name="Path 1258" d="M38.417,52.374l5.187-6.4c-3.421-.388-4.92-.52-4.92-.52Z" fill="none" stroke="#2e160e" stroke-linejoin="round" stroke-width="0.388"/>
    <path id="Path_1259" data-name="Path 1259" d="M109.938,31.62a144.618,144.618,0,0,1,0,17.145" fill="none" stroke="#221f20" stroke-miterlimit="10" stroke-width="0.332" stroke-dasharray="1.523 1.523"/>
    <path id="Path_1260" data-name="Path 1260" d="M109,31.39s.949,15.786,0,17.511" fill="none" stroke="#221f20" stroke-linecap="round" stroke-miterlimit="10" stroke-width="0.665"/>
    <path id="Path_1261" data-name="Path 1261" d="M110.994,33.848a.429.429,0,1,0,.429-.429.429.429,0,0,0-.429.429" fill="#221f20"/>
    <path id="Path_1262" data-name="Path 1262" d="M111.8,33.019a.237.237,0,1,0,.237-.237.237.237,0,0,0-.237.237" fill="#221f20"/>
    <path id="Path_1263" data-name="Path 1263" d="M110.64,33.107a.236.236,0,1,0,.131-.308.236.236,0,0,0-.131.308" fill="#221f20"/>
    <path id="Path_1264" data-name="Path 1264" d="M110.967,35.9a.429.429,0,1,0,.429-.429.429.429,0,0,0-.429.429" fill="#221f20"/>
    <path id="Path_1265" data-name="Path 1265" d="M111.776,35.073a.237.237,0,1,0,.237-.237.237.237,0,0,0-.237.237" fill="#221f20"/>
    <path id="Path_1266" data-name="Path 1266" d="M110.613,35.161a.236.236,0,1,0,.13-.308.236.236,0,0,0-.13.308" fill="#221f20"/>
    <path id="Path_1267" data-name="Path 1267" d="M110.94,37.957a.429.429,0,1,0,.429-.429.429.429,0,0,0-.429.429" fill="#221f20"/>
    <path id="Path_1268" data-name="Path 1268" d="M111.749,37.127a.237.237,0,1,0,.237-.237.237.237,0,0,0-.237.237" fill="#221f20"/>
    <path id="Path_1269" data-name="Path 1269" d="M110.586,37.216a.236.236,0,1,0,.13-.308.236.236,0,0,0-.13.308" fill="#221f20"/>
    <path id="Path_1270" data-name="Path 1270" d="M110.913,39.9a.429.429,0,1,0,.429-.429.429.429,0,0,0-.429.429" fill="#221f20"/>
    <path id="Path_1271" data-name="Path 1271" d="M111.722,39.075a.237.237,0,1,0,.237-.237.237.237,0,0,0-.237.237" fill="#221f20"/>
    <path id="Path_1272" data-name="Path 1272" d="M110.559,39.164a.236.236,0,1,0,.13-.308.236.236,0,0,0-.13.308" fill="#221f20"/>
    <path id="Path_1273" data-name="Path 1273" d="M110.967,41.853a.429.429,0,1,0,.429-.429.429.429,0,0,0-.429.429" fill="#221f20"/>
    <path id="Path_1274" data-name="Path 1274" d="M111.776,41.023a.237.237,0,1,0,.237-.237.237.237,0,0,0-.237.237" fill="#221f20"/>
    <path id="Path_1275" data-name="Path 1275" d="M110.613,41.112a.236.236,0,1,0,.13-.308.236.236,0,0,0-.13.308" fill="#221f20"/>
    <path id="Path_1276" data-name="Path 1276" d="M111.052,43.8a.429.429,0,1,0,.429-.429.429.429,0,0,0-.429.429" fill="#221f20"/>
    <path id="Path_1277" data-name="Path 1277" d="M111.861,42.971a.237.237,0,1,0,.237-.237.237.237,0,0,0-.237.237" fill="#221f20"/>
    <path id="Path_1278" data-name="Path 1278" d="M110.7,43.06a.237.237,0,1,0,.131-.308.237.237,0,0,0-.131.308" fill="#221f20"/>
    <path id="Path_1279" data-name="Path 1279" d="M111.024,45.749a.429.429,0,1,0,.429-.429.429.429,0,0,0-.429.429" fill="#221f20"/>
    <path id="Path_1280" data-name="Path 1280" d="M111.834,44.919a.237.237,0,1,0,.237-.237.237.237,0,0,0-.237.237" fill="#221f20"/>
    <path id="Path_1281" data-name="Path 1281" d="M110.67,45.008a.237.237,0,1,0,.131-.308.237.237,0,0,0-.131.308" fill="#221f20"/>
    <path id="Path_1282" data-name="Path 1282" d="M111.172,47.7a.429.429,0,1,0,.429-.429.429.429,0,0,0-.429.429" fill="#221f20"/>
    <path id="Path_1283" data-name="Path 1283" d="M111.981,46.867a.237.237,0,1,0,.237-.237.237.237,0,0,0-.237.237" fill="#221f20"/>
    <path id="Path_1284" data-name="Path 1284" d="M110.817,46.956a.237.237,0,1,0,.131-.308.237.237,0,0,0-.131.308" fill="#221f20"/>
    <path id="Path_1285" data-name="Path 1285" d="M112.683,32.214a126.189,126.189,0,0,1,.064,16.4" fill="none" stroke="#221f20" stroke-miterlimit="10" stroke-width="0.332" stroke-dasharray="1.523 1.523"/>
    <path id="Path_1286" data-name="Path 1286" d="M117.753,33.193a.205.205,0,1,1,.085-.263.2.2,0,0,1-.085.263" fill="#221f20"/>
    <path id="Path_1287" data-name="Path 1287" d="M118.349,34.059a.187.187,0,1,1-.254-.109.195.195,0,0,1,.254.109" fill="#221f20"/>
    <path id="Path_1288" data-name="Path 1288" d="M118.785,35.444a.193.193,0,0,1-.258-.093.2.2,0,0,1,.069-.269.194.194,0,0,1,.258.093.2.2,0,0,1-.069.269" fill="#221f20"/>
    <path id="Path_1289" data-name="Path 1289" d="M119.032,36.467a.193.193,0,0,1,.085-.262.2.2,0,0,1,.253.109" fill="#221f20"/>
    <path id="Path_1290" data-name="Path 1290" d="M119.8,37.7a.205.205,0,1,1,.085-.262.194.194,0,0,1-.085.262" fill="#221f20"/>
    <path id="Path_1291" data-name="Path 1291" d="M120.392,38.571a.2.2,0,0,1-.085.262.2.2,0,0,1-.254-.11.194.194,0,0,1,.085-.262.2.2,0,0,1,.254.11" fill="#221f20"/>
    <path id="Path_1292" data-name="Path 1292" d="M120.827,39.957a.193.193,0,0,1-.257-.1.2.2,0,0,1,.069-.268.194.194,0,0,1,.259.094.2.2,0,0,1-.071.269" fill="#221f20"/>
    <path id="Path_1293" data-name="Path 1293" d="M120.989,40.981a.2.2,0,0,1,.122-.245.193.193,0,0,1,.237.147" fill="#221f20"/>
    <path id="Path_1294" data-name="Path 1294" d="M119.371,36.315a.187.187,0,1,1-.339.152" fill="#221f20"/>
    <path id="Path_1295" data-name="Path 1295" d="M121.245,42.357a.206.206,0,0,1,.053-.4.2.2,0,0,1-.053.4" fill="#221f20"/>
    <path id="Path_1296" data-name="Path 1296" d="M120.924,43.391a.209.209,0,0,1-.143.078.164.164,0,0,1-.136-.048.2.2,0,0,1,0-.27.214.214,0,0,1,.126-.072.193.193,0,0,1,.141.031.168.168,0,0,1,.07.127.216.216,0,0,1-.054.154" fill="#221f20"/>
    <path id="Path_1297" data-name="Path 1297" d="M119.575,44.005a.184.184,0,0,1,.026-.14.2.2,0,0,1,.112-.089.2.2,0,0,1,.249.1.162.162,0,0,1,0,.144.213.213,0,0,1-.126.1.227.227,0,0,1-.167-.008.167.167,0,0,1-.092-.114" fill="#221f20"/>
    <path id="Path_1298" data-name="Path 1298" d="M118.616,43.725a.2.2,0,0,1,.134.234.189.189,0,0,1-.258.116" fill="#221f20"/>
    <path id="Path_1299" data-name="Path 1299" d="M121.348,40.884a.193.193,0,0,1-.13.247.2.2,0,0,1-.229-.15" fill="#221f20"/>
    <path id="Path_1300" data-name="Path 1300" d="M117.522,42.955a.2.2,0,0,1,.144,0,.213.213,0,0,1,.108.091.167.167,0,0,1,.023.068.188.188,0,0,1,0,.071.2.2,0,0,1-.073.124.163.163,0,0,1-.142.027.216.216,0,0,1-.073-.036.263.263,0,0,1-.058-.069.215.215,0,0,1-.025-.165.161.161,0,0,1,.1-.11" fill="#221f20"/>
    <path id="Path_1301" data-name="Path 1301" d="M117.219,41.911a.26.26,0,0,1,.03-.085.19.19,0,0,1,.056-.06.16.16,0,0,1,.143-.025.207.207,0,0,1,.111.092.214.214,0,0,1,.025.065.188.188,0,0,1,0,.071.211.211,0,0,1-.069.124.2.2,0,0,1-.135.05.163.163,0,0,1-.127-.069.212.212,0,0,1-.036-.163" fill="#221f20"/>
    <path id="Path_1302" data-name="Path 1302" d="M118.359,41.007a.192.192,0,0,1-.031.139.214.214,0,0,1-.108.087.215.215,0,0,1-.245-.1.156.156,0,0,1-.007-.144.217.217,0,0,1,.129-.112.227.227,0,0,1,.173.009.163.163,0,0,1,.089.117" fill="#221f20"/>
    <path id="Path_1303" data-name="Path 1303" d="M119.09,41.352a.008.008,0,0,0,.006.011l.009-.006a.261.261,0,0,0,.009-.047.321.321,0,0,1,.044-.133.135.135,0,0,1,.137-.058.181.181,0,0,1,.1.049.326.326,0,0,1,.044.062.314.314,0,0,1,.026.09" fill="#221f20"/>
    <path id="Path_1304" data-name="Path 1304" d="M118.491,44.075a.225.225,0,0,1-.125-.108.17.17,0,0,1,0-.146.186.186,0,0,1,.107-.094.2.2,0,0,1,.144,0" fill="#221f20"/>
    <path id="Path_1305" data-name="Path 1305" d="M120.35,33.956a.186.186,0,1,1-.255-.1.194.194,0,0,1,.255.1" fill="#221f20"/>
    <path id="Path_1306" data-name="Path 1306" d="M120.809,35.314a.191.191,0,0,1-.259-.085.2.2,0,0,1,.064-.267.191.191,0,0,1,.259.084.2.2,0,0,1-.064.268" fill="#221f20"/>
    <path id="Path_1307" data-name="Path 1307" d="M121.072,36.319a.186.186,0,1,1,.335-.161" fill="#221f20"/>
    <path id="Path_1308" data-name="Path 1308" d="M121.854,37.52a.2.2,0,1,1,.081-.262.195.195,0,0,1-.081.262" fill="#221f20"/>
    <path id="Path_1309" data-name="Path 1309" d="M122.463,38.359a.186.186,0,1,1-.255-.1.194.194,0,0,1,.255.1" fill="#221f20"/>
    <path id="Path_1310" data-name="Path 1310" d="M122.922,39.717a.192.192,0,0,1-.26-.085.2.2,0,0,1,.064-.267.191.191,0,0,1,.259.084.2.2,0,0,1-.063.268" fill="#221f20"/>
    <path id="Path_1311" data-name="Path 1311" d="M123.185,40.722a.186.186,0,1,1,.335-.161" fill="#221f20"/>
    <path id="Path_1312" data-name="Path 1312" d="M121.407,36.158a.186.186,0,1,1-.335.161" fill="#221f20"/>
    <path id="Path_1313" data-name="Path 1313" d="M119.12,42.613a.333.333,0,1,1,.471-.012.333.333,0,0,1-.471.012" fill="#221f20"/>
    <path id="Path_1314" data-name="Path 1314" d="M123.29,34.446a.161.161,0,1,1,.187-.257.161.161,0,1,1-.187.257" fill="#221f20"/>
    <path id="Path_1315" data-name="Path 1315" d="M122.889,35.181a.173.173,0,0,1-.245-.021.161.161,0,1,1,.225-.224.172.172,0,0,1,.02.245" fill="#221f20"/>
    <path id="Path_1316" data-name="Path 1316" d="M121.908,35.781a.181.181,0,0,1,0-.246.171.171,0,0,1,.237.037.175.175,0,0,1,0,.248.168.168,0,0,1-.24-.039" fill="#221f20"/>
    <path id="Path_1317" data-name="Path 1317" d="M121.137,36.035a.178.178,0,0,1,.223.089.169.169,0,0,1-.054.242" fill="#221f20"/>
    <path id="Path_1318" data-name="Path 1318" d="M124.465,33.678a.158.158,0,1,1-.3.11" fill="#221f20"/>
    <path id="Path_1319" data-name="Path 1319" d="M126.248,35.128a.334.334,0,1,0,.471-.012.332.332,0,0,0-.471.012" fill="#221f20"/>
    <path id="Path_1320" data-name="Path 1320" d="M130.51,37.17a.333.333,0,1,0,.428.2.334.334,0,0,0-.428-.2" fill="#221f20"/>
    <path id="Path_1321" data-name="Path 1321" d="M124.295,39.627a.212.212,0,1,1-.281,0,.2.2,0,0,1,.281,0" fill="#221f20"/>
    <path id="Path_1322" data-name="Path 1322" d="M124.984,38.79a.187.187,0,1,1-.043.278.2.2,0,0,1,.043-.278" fill="#221f20"/>
    <path id="Path_1323" data-name="Path 1323" d="M126.267,38.01a.2.2,0,0,1-.041.275.2.2,0,0,1-.282-.006.2.2,0,0,1,.04-.276.2.2,0,0,1,.283.007" fill="#221f20"/>
    <path id="Path_1324" data-name="Path 1324" d="M127.252,37.573a.2.2,0,0,1-.277-.041.2.2,0,0,1,.075-.271" fill="#221f20"/>
    <path id="Path_1325" data-name="Path 1325" d="M123.082,40.515a.187.187,0,1,1,.265.26" fill="#221f20"/>
    <path id="Path_1326" data-name="Path 1326" d="M128.439,36.681a.212.212,0,0,1-.374.192.212.212,0,0,1,.374-.192" fill="#221f20"/>
    <path id="Path_1327" data-name="Path 1327" d="M129.366,36.1a.2.2,0,0,1,.259.116.212.212,0,0,1-.4.129.2.2,0,0,1,.141-.245" fill="#221f20"/>
    <path id="Path_1328" data-name="Path 1328" d="M130.884,36.046a.2.2,0,0,1-.2.191.207.207,0,0,1-.221-.166.189.189,0,0,1,.194-.2.223.223,0,0,1,.16.049.169.169,0,0,1,.065.131" fill="#221f20"/>
    <path id="Path_1329" data-name="Path 1329" d="M131.786,36.541a.212.212,0,0,1-.092-.117.186.186,0,0,1,.009-.144.165.165,0,0,1,.117-.087.237.237,0,0,1,.164.034" fill="#221f20"/>
    <path id="Path_1330" data-name="Path 1330" d="M127.05,37.26a.2.2,0,0,1,.278.044.2.2,0,0,1-.077.269" fill="#221f20"/>
    <path id="Path_1331" data-name="Path 1331" d="M132.642,37.587a.2.2,0,0,1-.134-.054.216.216,0,0,1-.047-.26.205.205,0,0,1,.107-.1.158.158,0,0,1,.144.02.238.238,0,0,1,.059.323.157.157,0,0,1-.129.069" fill="#221f20"/>
    <path id="Path_1332" data-name="Path 1332" d="M132.35,38.67a.228.228,0,0,1-.163.064.156.156,0,0,1-.128-.072.19.19,0,0,1-.027-.14.21.21,0,0,1,.066-.125.215.215,0,0,1,.13-.056.2.2,0,0,1,.139.038.162.162,0,0,1,.06.134.231.231,0,0,1-.077.157" fill="#221f20"/>
    <path id="Path_1333" data-name="Path 1333" d="M130.851,38.684a.2.2,0,0,1,.113-.086.209.209,0,0,1,.069-.012.266.266,0,0,1,.068.01.2.2,0,0,1,.061.034.209.209,0,0,1,.047.051.2.2,0,0,1,.036.139.157.157,0,0,1-.082.121.222.222,0,0,1-.175.009.236.236,0,0,1-.141-.117.154.154,0,0,1,0-.149" fill="#221f20"/>
    <path id="Path_1334" data-name="Path 1334" d="M130.7,37.755a.207.207,0,0,1-.2.184c-.107,0-.183-.1-.171-.234" fill="#221f20"/>
    <path id="Path_1335" data-name="Path 1335" d="M131.985,36.227a.232.232,0,0,1,.1.135.164.164,0,0,1-.029.143.189.189,0,0,1-.127.069.214.214,0,0,1-.144-.033" fill="#221f20"/>
    <path id="Path_1336" data-name="Path 1336" d="M125.276,36.261a.218.218,0,1,1,.284.022.2.2,0,0,1-.284-.022" fill="#221f20"/>
    <path id="Path_1337" data-name="Path 1337" d="M124.5,37.059a.188.188,0,1,1,.064-.278.2.2,0,0,1-.064.278" fill="#221f20"/>
    <path id="Path_1338" data-name="Path 1338" d="M123.173,37.823a.2.2,0,0,1,.046-.278.206.206,0,0,1,.287,0,.2.2,0,0,1-.046.278.206.206,0,0,1-.287,0" fill="#221f20"/>
    <path id="Path_1339" data-name="Path 1339" d="M122.175,38.311a.188.188,0,1,1,.221.3" fill="#221f20"/>
    <path id="Path_1340" data-name="Path 1340" d="M126.614,35.507a.188.188,0,1,1-.22-.3" fill="#221f20"/>
    <path id="Path_1341" data-name="Path 1341" d="M125.214,34.453a.167.167,0,0,1-.185.2.22.22,0,0,1-.1-.028.2.2,0,0,1-.061-.061.15.15,0,0,1,0-.144.279.279,0,0,1,.094-.1.183.183,0,0,1,.046-.028c.015,0,.026-.012.038-.009a.216.216,0,0,1,.167.17" fill="#221f20"/>
    <path id="Path_1342" data-name="Path 1342" d="M125.948,33.934a.186.186,0,0,1,.176.327.18.18,0,0,1-.244-.08.182.182,0,0,1,.068-.247" fill="#221f20"/>
    <path id="Path_1343" data-name="Path 1343" d="M124.487,33.658a.19.19,0,0,1-.09.232.176.176,0,0,1-.251-.084" fill="#221f20"/>
    <path id="Path_1344" data-name="Path 1344" d="M86.354,27.481a3.651,3.651,0,0,0-.084-.754" fill="none" stroke="#221f20" stroke-miterlimit="10" stroke-width="0.332"/>
    <path id="Path_1345" data-name="Path 1345" d="M85.756,25.314C82.695,19.121,68.7,9.736,63.2,6.811" fill="none" stroke="#221f20" stroke-miterlimit="10" stroke-width="0.332" stroke-dasharray="1.509 1.509"/>
    <path id="Path_1346" data-name="Path 1346" d="M62.531,6.464c-.258-.128-.488-.236-.687-.321" fill="none" stroke="#221f20" stroke-miterlimit="10" stroke-width="0.332"/>
    <path id="Path_1347" data-name="Path 1347" d="M62.343,8.521a.429.429,0,1,0-.081-.6.429.429,0,0,0,.081.6" fill="#221f20"/>
    <path id="Path_1348" data-name="Path 1348" d="M62.174,7.374a.236.236,0,1,0-.046-.332.236.236,0,0,0,.046.332" fill="#221f20"/>
    <path id="Path_1349" data-name="Path 1349" d="M61.539,8.354a.236.236,0,1,0-.166-.291.236.236,0,0,0,.166.291" fill="#221f20"/>
    <path id="Path_1350" data-name="Path 1350" d="M63.961,9.787a.429.429,0,1,0-.081-.6.429.429,0,0,0,.081.6" fill="#221f20"/>
    <path id="Path_1351" data-name="Path 1351" d="M63.792,8.64a.237.237,0,1,0-.045-.332.237.237,0,0,0,.045.332" fill="#221f20"/>
    <path id="Path_1352" data-name="Path 1352" d="M63.157,9.62a.236.236,0,1,0-.166-.291.237.237,0,0,0,.166.291" fill="#221f20"/>
    <path id="Path_1353" data-name="Path 1353" d="M65.7,10.7a.429.429,0,1,0-.081-.6.429.429,0,0,0,.081.6" fill="#221f20"/>
    <path id="Path_1354" data-name="Path 1354" d="M65.529,9.55a.236.236,0,1,0-.046-.332.236.236,0,0,0,.046.332" fill="#221f20"/>
    <path id="Path_1355" data-name="Path 1355" d="M64.894,10.529a.236.236,0,1,0-.166-.291.236.236,0,0,0,.166.291" fill="#221f20"/>
    <path id="Path_1356" data-name="Path 1356" d="M67.261,11.662a.429.429,0,1,0-.081-.6.429.429,0,0,0,.081.6" fill="#221f20"/>
    <path id="Path_1357" data-name="Path 1357" d="M67.092,10.515a.237.237,0,1,0-.045-.332.237.237,0,0,0,.045.332" fill="#221f20"/>
    <path id="Path_1358" data-name="Path 1358" d="M66.457,11.494a.236.236,0,1,0-.166-.291.237.237,0,0,0,.166.291" fill="#221f20"/>
    <path id="Path_1359" data-name="Path 1359" d="M68.7,12.8a.429.429,0,1,0-.081-.6.429.429,0,0,0,.081.6" fill="#221f20"/>
    <path id="Path_1360" data-name="Path 1360" d="M68.527,11.652a.237.237,0,1,0-.045-.332.237.237,0,0,0,.045.332" fill="#221f20"/>
    <path id="Path_1361" data-name="Path 1361" d="M67.892,12.632a.236.236,0,1,0-.166-.291.237.237,0,0,0,.166.291" fill="#221f20"/>
    <path id="Path_1362" data-name="Path 1362" d="M70.249,13.66a.429.429,0,1,0-.081-.6.429.429,0,0,0,.081.6" fill="#221f20"/>
    <path id="Path_1363" data-name="Path 1363" d="M70.079,12.513a.237.237,0,1,0-.045-.332.237.237,0,0,0,.045.332" fill="#221f20"/>
    <path id="Path_1364" data-name="Path 1364" d="M69.444,13.493a.236.236,0,1,0-.166-.291.237.237,0,0,0,.166.291" fill="#221f20"/>
    <path id="Path_1365" data-name="Path 1365" d="M71.831,14.846a.429.429,0,1,0-.081-.6.429.429,0,0,0,.081.6" fill="#221f20"/>
    <path id="Path_1366" data-name="Path 1366" d="M71.661,13.7a.237.237,0,1,0-.045-.332.237.237,0,0,0,.045.332" fill="#221f20"/>
    <path id="Path_1367" data-name="Path 1367" d="M71.026,14.679a.236.236,0,1,0-.166-.291.237.237,0,0,0,.166.291" fill="#221f20"/>
    <path id="Path_1368" data-name="Path 1368" d="M73.47,15.943a.429.429,0,1,0-.081-.6.429.429,0,0,0,.081.6" fill="#221f20"/>
    <path id="Path_1369" data-name="Path 1369" d="M73.3,14.8a.237.237,0,1,0-.045-.332.237.237,0,0,0,.045.332" fill="#221f20"/>
    <path id="Path_1370" data-name="Path 1370" d="M72.665,15.776a.236.236,0,1,0-.166-.291.237.237,0,0,0,.166.291" fill="#221f20"/>
    <path id="Path_1371" data-name="Path 1371" d="M75.057,17.215a.429.429,0,1,0-.081-.6.429.429,0,0,0,.081.6" fill="#221f20"/>
    <path id="Path_1372" data-name="Path 1372" d="M74.887,16.068a.237.237,0,1,0-.045-.332.237.237,0,0,0,.045.332" fill="#221f20"/>
    <path id="Path_1373" data-name="Path 1373" d="M74.252,17.048a.236.236,0,1,0-.166-.291.237.237,0,0,0,.166.291" fill="#221f20"/>
    <path id="Path_1374" data-name="Path 1374" d="M76.442,18.235a.429.429,0,1,0-.015-.606.429.429,0,0,0,.015.606" fill="#221f20"/>
    <path id="Path_1375" data-name="Path 1375" d="M76.4,17.076a.237.237,0,1,0-.008-.335.238.238,0,0,0,.008.335" fill="#221f20"/>
    <path id="Path_1376" data-name="Path 1376" d="M75.66,17.981a.237.237,0,1,0-.133-.307.236.236,0,0,0,.133.307" fill="#221f20"/>
    <path id="Path_1377" data-name="Path 1377" d="M77.923,19.451a.429.429,0,1,0,.067-.6.429.429,0,0,0-.067.6" fill="#221f20"/>
    <path id="Path_1378" data-name="Path 1378" d="M78.037,18.3a.237.237,0,1,0,.037-.333.237.237,0,0,0-.037.333" fill="#221f20"/>
    <path id="Path_1379" data-name="Path 1379" d="M77.183,19.093a.236.236,0,1,0-.09-.322.236.236,0,0,0,.09.322" fill="#221f20"/>
    <path id="Path_1380" data-name="Path 1380" d="M60.776,7.954a.429.429,0,1,0-.347-.5.429.429,0,0,0,.347.5" fill="#221f20"/>
    <path id="Path_1381" data-name="Path 1381" d="M60.1,7.01a.237.237,0,1,0-.191-.275.237.237,0,0,0,.191.275" fill="#221f20"/>
    <path id="Path_1382" data-name="Path 1382" d="M59.983,8.172a.237.237,0,1,0-.28-.183.236.236,0,0,0,.28.183" fill="#221f20"/>
    <path id="Path_1383" data-name="Path 1383" d="M79.371,20.984a.429.429,0,1,0-.081-.6.43.43,0,0,0,.081.6" fill="#221f20"/>
    <path id="Path_1384" data-name="Path 1384" d="M79.2,19.837a.237.237,0,1,0-.045-.332.237.237,0,0,0,.045.332" fill="#221f20"/>
    <path id="Path_1385" data-name="Path 1385" d="M78.566,20.816a.236.236,0,1,0-.166-.291.237.237,0,0,0,.166.291" fill="#221f20"/>
    <path id="Path_1386" data-name="Path 1386" d="M81.038,22.214a.429.429,0,1,0-.081-.6.43.43,0,0,0,.081.6" fill="#221f20"/>
    <path id="Path_1387" data-name="Path 1387" d="M80.868,21.067a.237.237,0,1,0-.045-.332.237.237,0,0,0,.045.332" fill="#221f20"/>
    <path id="Path_1388" data-name="Path 1388" d="M80.234,22.047a.236.236,0,1,0-.166-.291.237.237,0,0,0,.166.291" fill="#221f20"/>
    <path id="Path_1389" data-name="Path 1389" d="M82.462,23.664a.429.429,0,1,0-.081-.6.43.43,0,0,0,.081.6" fill="#221f20"/>
    <path id="Path_1390" data-name="Path 1390" d="M82.292,22.517a.237.237,0,1,0-.045-.332.237.237,0,0,0,.045.332" fill="#221f20"/>
    <path id="Path_1391" data-name="Path 1391" d="M81.658,23.5a.236.236,0,1,0-.166-.291.236.236,0,0,0,.166.291" fill="#221f20"/>
    <path id="Path_1392" data-name="Path 1392" d="M83.395,25.265a.429.429,0,1,0,.076-.6.429.429,0,0,0-.076.6" fill="#221f20"/>
    <path id="Path_1393" data-name="Path 1393" d="M83.526,24.113a.237.237,0,1,0,.042-.332.237.237,0,0,0-.042.332" fill="#221f20"/>
    <path id="Path_1394" data-name="Path 1394" d="M82.661,24.9a.237.237,0,1,0-.085-.324.237.237,0,0,0,.085.324" fill="#221f20"/>
    <path id="Path_1395" data-name="Path 1395" d="M84.232,26.823a.429.429,0,1,0,.206-.57.429.429,0,0,0-.206.57" fill="#221f20"/>
    <path id="Path_1396" data-name="Path 1396" d="M84.611,25.728a.236.236,0,1,0,.114-.315.238.238,0,0,0-.114.315" fill="#221f20"/>
    <path id="Path_1397" data-name="Path 1397" d="M83.6,26.3a.237.237,0,1,0-.012-.334.237.237,0,0,0,.012.334" fill="#221f20"/>
    <path id="Path_1398" data-name="Path 1398" d="M83.151,26.908S81.226,22.534,71.922,15.88C69.055,13.829,61.6,8.841,58.457,7.94" fill="none" stroke="#221f20" stroke-miterlimit="10" stroke-width="0.332" stroke-dasharray="1.523 1.523"/>
    <path id="Path_1399" data-name="Path 1399" d="M37.714,42.036c-.243-12.949-10.8-15.428-20.109-17.615-1.571-.369-3.055-.717-4.495-1.112-2.78-.761-4.638-2.149-5.521-4.126-1.636-3.665.639-8.34.662-8.386" fill="none" stroke="#221f20" stroke-linecap="round" stroke-miterlimit="10" stroke-width="0.665"/>
    <path id="Path_1400" data-name="Path 1400" d="M7.511,10.583c-.1.2-2.418,4.91-.633,8.913.982,2.2,3.009,3.737,6.027,4.563,1.454.4,2.944.748,4.522,1.118C26.905,27.4,36.706,29.7,36.937,42.051" fill="none" stroke="#221f20" stroke-miterlimit="10" stroke-width="0.332" stroke-dasharray="1.523 1.523"/>
    <path id="Path_1401" data-name="Path 1401" d="M19.264,26.755a.429.429,0,1,1-.53.3.429.429,0,0,1,.53-.3" fill="#221f20"/>
    <path id="Path_1402" data-name="Path 1402" d="M18.244,27.306a.237.237,0,1,1-.292.163.236.236,0,0,1,.292-.163" fill="#221f20"/>
    <path id="Path_1403" data-name="Path 1403" d="M18.648,26.211a.237.237,0,1,1-.332.042.237.237,0,0,1,.332-.042" fill="#221f20"/>
    <path id="Path_1404" data-name="Path 1404" d="M21.091,27.12a.429.429,0,1,1-.481.369.428.428,0,0,1,.481-.369" fill="#221f20"/>
    <path id="Path_1405" data-name="Path 1405" d="M20.163,27.815a.237.237,0,1,1-.265.2.236.236,0,0,1,.265-.2" fill="#221f20"/>
    <path id="Path_1406" data-name="Path 1406" d="M20.4,26.673a.237.237,0,1,1-.322.09.236.236,0,0,1,.322-.09" fill="#221f20"/>
    <path id="Path_1407" data-name="Path 1407" d="M22.954,27.657a.429.429,0,1,1-.455.4.429.429,0,0,1,.455-.4" fill="#221f20"/>
    <path id="Path_1408" data-name="Path 1408" d="M22.074,28.412a.236.236,0,1,1-.251.221.237.237,0,0,1,.251-.221" fill="#221f20"/>
    <path id="Path_1409" data-name="Path 1409" d="M22.236,27.257a.237.237,0,1,1-.316.111.236.236,0,0,1,.316-.111" fill="#221f20"/>
    <path id="Path_1410" data-name="Path 1410" d="M24.954,28.248a.429.429,0,1,1-.456.4.429.429,0,0,1,.456-.4" fill="#221f20"/>
    <path id="Path_1411" data-name="Path 1411" d="M24.073,29a.237.237,0,1,1-.252.221A.238.238,0,0,1,24.073,29" fill="#221f20"/>
    <path id="Path_1412" data-name="Path 1412" d="M24.237,27.846a.236.236,0,1,1-.316.111.237.237,0,0,1,.316-.111" fill="#221f20"/>
    <path id="Path_1413" data-name="Path 1413" d="M26.938,29.236a.429.429,0,1,1-.519.313.428.428,0,0,1,.519-.313" fill="#221f20"/>
    <path id="Path_1414" data-name="Path 1414" d="M25.938,29.823a.236.236,0,1,1-.287.173.237.237,0,0,1,.287-.173" fill="#221f20"/>
    <path id="Path_1415" data-name="Path 1415" d="M26.3,28.714a.237.237,0,1,1-.33.053.236.236,0,0,1,.33-.053" fill="#221f20"/>
    <path id="Path_1416" data-name="Path 1416" d="M28.7,30.222a.429.429,0,1,1-.589.146.429.429,0,0,1,.589-.146" fill="#221f20"/>
    <path id="Path_1417" data-name="Path 1417" d="M27.569,30.487a.237.237,0,1,1-.325.08.236.236,0,0,1,.325-.08" fill="#221f20"/>
    <path id="Path_1418" data-name="Path 1418" d="M28.246,29.536a.236.236,0,1,1-.331-.047.236.236,0,0,1,.331.047" fill="#221f20"/>
    <path id="Path_1419" data-name="Path 1419" d="M30.393,31.389a.429.429,0,1,1-.589.146.429.429,0,0,1,.589-.146" fill="#221f20"/>
    <path id="Path_1420" data-name="Path 1420" d="M29.264,31.653a.237.237,0,1,1-.325.08.236.236,0,0,1,.325-.08" fill="#221f20"/>
    <path id="Path_1421" data-name="Path 1421" d="M29.941,30.7a.236.236,0,1,1-.331-.047.236.236,0,0,1,.331.047" fill="#221f20"/>
    <path id="Path_1422" data-name="Path 1422" d="M31.956,32.424a.429.429,0,1,1-.589.146.429.429,0,0,1,.589-.146" fill="#221f20"/>
    <path id="Path_1423" data-name="Path 1423" d="M30.827,32.688a.237.237,0,1,1-.325.08.236.236,0,0,1,.325-.08" fill="#221f20"/>
    <path id="Path_1424" data-name="Path 1424" d="M31.5,31.737a.236.236,0,1,1-.331-.047.236.236,0,0,1,.331.047" fill="#221f20"/>
    <path id="Path_1425" data-name="Path 1425" d="M33.185,33.759a.429.429,0,1,1-.6.061.429.429,0,0,1,.6-.061" fill="#221f20"/>
    <path id="Path_1426" data-name="Path 1426" d="M32.03,33.861a.237.237,0,1,1-.333.034.238.238,0,0,1,.333-.034" fill="#221f20"/>
    <path id="Path_1427" data-name="Path 1427" d="M32.834,33.016a.237.237,0,1,1-.321-.093.237.237,0,0,1,.321.093" fill="#221f20"/>
    <path id="Path_1428" data-name="Path 1428" d="M34.1,35.463a.429.429,0,1,1-.584-.163.429.429,0,0,1,.584.163" fill="#221f20"/>
    <path id="Path_1429" data-name="Path 1429" d="M32.982,35.138a.236.236,0,1,1-.322-.09.236.236,0,0,1,.322.09" fill="#221f20"/>
    <path id="Path_1430" data-name="Path 1430" d="M34.039,34.643a.236.236,0,1,1-.265-.2.236.236,0,0,1,.265.2" fill="#221f20"/>
    <path id="Path_1431" data-name="Path 1431" d="M35.245,37.2a.429.429,0,1,1-.562-.227.428.428,0,0,1,.562.227" fill="#221f20"/>
    <path id="Path_1432" data-name="Path 1432" d="M34.176,36.755a.237.237,0,1,1-.31-.125.237.237,0,0,1,.31.125" fill="#221f20"/>
    <path id="Path_1433" data-name="Path 1433" d="M35.281,36.381a.237.237,0,1,1-.241-.232.236.236,0,0,1,.241.232" fill="#221f20"/>
    <path id="Path_1434" data-name="Path 1434" d="M35.789,39.2a.429.429,0,1,1-.562-.227.428.428,0,0,1,.562.227" fill="#221f20"/>
    <path id="Path_1435" data-name="Path 1435" d="M34.719,38.753a.237.237,0,1,1-.31-.125.237.237,0,0,1,.31.125" fill="#221f20"/>
    <path id="Path_1436" data-name="Path 1436" d="M35.825,38.379a.237.237,0,1,1-.241-.232.236.236,0,0,1,.241.232" fill="#221f20"/>
    <path id="Path_1437" data-name="Path 1437" d="M36.213,41.3a.429.429,0,1,1-.512-.325.43.43,0,0,1,.512.325" fill="#221f20"/>
    <path id="Path_1438" data-name="Path 1438" d="M35.243,40.667a.237.237,0,1,1-.282-.18.236.236,0,0,1,.282.18" fill="#221f20"/>
    <path id="Path_1439" data-name="Path 1439" d="M36.4,40.5a.237.237,0,1,1-.195-.272.237.237,0,0,1,.195.272" fill="#221f20"/>
    <path id="Path_1440" data-name="Path 1440" d="M17.328,26.165a.429.429,0,1,1-.53.295.429.429,0,0,1,.53-.295" fill="#221f20"/>
    <path id="Path_1441" data-name="Path 1441" d="M16.308,26.717a.237.237,0,1,1-.292.163.236.236,0,0,1,.292-.163" fill="#221f20"/>
    <path id="Path_1442" data-name="Path 1442" d="M16.712,25.621a.237.237,0,1,1-.333.042.238.238,0,0,1,.333-.042" fill="#221f20"/>
    <path id="Path_1443" data-name="Path 1443" d="M15.426,25.863a.429.429,0,1,1-.53.3.429.429,0,0,1,.53-.3" fill="#221f20"/>
    <path id="Path_1444" data-name="Path 1444" d="M14.406,26.414a.237.237,0,1,1-.292.163.236.236,0,0,1,.292-.163" fill="#221f20"/>
    <path id="Path_1445" data-name="Path 1445" d="M14.81,25.319a.237.237,0,1,1-.332.042.237.237,0,0,1,.332-.042" fill="#221f20"/>
    <path id="Path_1446" data-name="Path 1446" d="M13.6,25.382a.429.429,0,1,1-.53.3.429.429,0,0,1,.53-.3" fill="#221f20"/>
    <path id="Path_1447" data-name="Path 1447" d="M12.581,25.933a.237.237,0,1,1-.292.163.236.236,0,0,1,.292-.163" fill="#221f20"/>
    <path id="Path_1448" data-name="Path 1448" d="M12.984,24.838a.237.237,0,1,1-.332.042.237.237,0,0,1,.332-.042" fill="#221f20"/>
    <path id="Path_1449" data-name="Path 1449" d="M11.968,24.909a.429.429,0,1,1-.53.3.429.429,0,0,1,.53-.3" fill="#221f20"/>
    <path id="Path_1450" data-name="Path 1450" d="M10.948,25.46a.237.237,0,1,1-.292.163.236.236,0,0,1,.292-.163" fill="#221f20"/>
    <path id="Path_1451" data-name="Path 1451" d="M11.351,24.365a.237.237,0,1,1-.332.042.237.237,0,0,1,.332-.042" fill="#221f20"/>
    <path id="Path_1452" data-name="Path 1452" d="M10.343,24.337a.429.429,0,1,1-.578.182.429.429,0,0,1,.578-.182" fill="#221f20"/>
    <path id="Path_1453" data-name="Path 1453" d="M9.233,24.671a.237.237,0,1,1-.319.1.235.235,0,0,1,.319-.1" fill="#221f20"/>
    <path id="Path_1454" data-name="Path 1454" d="M9.85,23.68a.237.237,0,1,1-.334-.026.237.237,0,0,1,.334.026" fill="#221f20"/>
    <path id="Path_1455" data-name="Path 1455" d="M8.854,23.454a.429.429,0,1,1-.6.054.428.428,0,0,1,.6-.054" fill="#221f20"/>
    <path id="Path_1456" data-name="Path 1456" d="M7.7,23.543a.237.237,0,1,1-.333.03.236.236,0,0,1,.333-.03" fill="#221f20"/>
    <path id="Path_1457" data-name="Path 1457" d="M8.512,22.706a.236.236,0,1,1-.32-.1.236.236,0,0,1,.32.1" fill="#221f20"/>
    <path id="Path_1458" data-name="Path 1458" d="M7.543,22.272a.429.429,0,1,1-.605-.036.429.429,0,0,1,.605.036" fill="#221f20"/>
    <path id="Path_1459" data-name="Path 1459" d="M6.387,22.188a.237.237,0,1,1-.334-.02.236.236,0,0,1,.334.02" fill="#221f20"/>
    <path id="Path_1460" data-name="Path 1460" d="M7.316,21.482a.237.237,0,1,1-.3-.144.236.236,0,0,1,.3.144" fill="#221f20"/>
    <path id="Path_1461" data-name="Path 1461" d="M6.419,20.643a.429.429,0,1,1-.6-.094.428.428,0,0,1,.6.094" fill="#221f20"/>
    <path id="Path_1462" data-name="Path 1462" d="M5.276,20.45a.237.237,0,1,1-.331-.052.237.237,0,0,1,.331.052" fill="#221f20"/>
    <path id="Path_1463" data-name="Path 1463" d="M6.268,19.836a.237.237,0,1,1-.287-.172.236.236,0,0,1,.287.172" fill="#221f20"/>
    <path id="Path_1464" data-name="Path 1464" d="M5.713,19.1a.429.429,0,1,1-.513-.323.428.428,0,0,1,.513.323" fill="#221f20"/>
    <path id="Path_1465" data-name="Path 1465" d="M4.74,18.471a.236.236,0,1,1-.283-.178.237.237,0,0,1,.283.178" fill="#221f20"/>
    <path id="Path_1466" data-name="Path 1466" d="M5.894,18.3a.236.236,0,1,1-.2-.271.236.236,0,0,1,.2.271" fill="#221f20"/>
    <path id="Path_1467" data-name="Path 1467" d="M5.465,17.183a.429.429,0,1,1-.45-.406.428.428,0,0,1,.45.406" fill="#221f20"/>
    <path id="Path_1468" data-name="Path 1468" d="M4.615,16.4a.237.237,0,1,1-.249-.224.236.236,0,0,1,.249.224" fill="#221f20"/>
    <path id="Path_1469" data-name="Path 1469" d="M5.781,16.424a.236.236,0,1,1-.146-.3.236.236,0,0,1,.146.3" fill="#221f20"/>
    <path id="Path_1470" data-name="Path 1470" d="M34.5,41.735s.35-4.365-5.36-8.944c-3.157-2.533-10.524-4.869-16.087-5.611S2.973,22,3.727,14.076" fill="none" stroke="#221f20" stroke-miterlimit="10" stroke-width="0.332" stroke-dasharray="1.523 1.523"/>
    <path id="Path_1471" data-name="Path 1471" d="M94.534,28.7a.429.429,0,1,0,.541.274.43.43,0,0,0-.541-.274" fill="#221f20"/>
    <path id="Path_1472" data-name="Path 1472" d="M95.575,29.207a.237.237,0,1,0,.3.151.237.237,0,0,0-.3-.151" fill="#221f20"/>
    <path id="Path_1473" data-name="Path 1473" d="M95.128,28.129a.237.237,0,1,0,.333.028.235.235,0,0,0-.333-.028" fill="#221f20"/>
    <path id="Path_1474" data-name="Path 1474" d="M92.681,29.21a.429.429,0,1,0,.427.43.428.428,0,0,0-.427-.43" fill="#221f20"/>
    <path id="Path_1475" data-name="Path 1475" d="M93.508,30.022a.237.237,0,1,0,.236.237.236.236,0,0,0-.236-.237" fill="#221f20"/>
    <path id="Path_1476" data-name="Path 1476" d="M93.424,28.858a.237.237,0,1,0,.307.132.236.236,0,0,0-.307-.132" fill="#221f20"/>
    <path id="Path_1477" data-name="Path 1477" d="M90.907,29.486a.429.429,0,1,0,.427.43.428.428,0,0,0-.427-.43" fill="#221f20"/>
    <path id="Path_1478" data-name="Path 1478" d="M91.734,30.3a.237.237,0,1,0,.236.237.236.236,0,0,0-.236-.237" fill="#221f20"/>
    <path id="Path_1479" data-name="Path 1479" d="M91.65,29.134a.237.237,0,1,0,.307.132.237.237,0,0,0-.307-.132" fill="#221f20"/>
    <path id="Path_1480" data-name="Path 1480" d="M88.955,29.456a.429.429,0,1,0,.427.43.428.428,0,0,0-.427-.43" fill="#221f20"/>
    <path id="Path_1481" data-name="Path 1481" d="M89.782,30.269a.237.237,0,1,0,.236.237.236.236,0,0,0-.236-.237" fill="#221f20"/>
    <path id="Path_1482" data-name="Path 1482" d="M89.7,29.1a.237.237,0,1,0,.307.132A.236.236,0,0,0,89.7,29.1" fill="#221f20"/>
    <path id="Path_1483" data-name="Path 1483" d="M87.235,29.427a.429.429,0,1,0,.427.43.428.428,0,0,0-.427-.43" fill="#221f20"/>
    <path id="Path_1484" data-name="Path 1484" d="M88.062,30.239a.237.237,0,1,0,.236.237.236.236,0,0,0-.236-.237" fill="#221f20"/>
    <path id="Path_1485" data-name="Path 1485" d="M87.978,29.075a.237.237,0,1,0,.308.132.237.237,0,0,0-.308-.132" fill="#221f20"/>
    <path id="Path_1486" data-name="Path 1486" d="M85.709,29.03a.429.429,0,1,0,.337.5.429.429,0,0,0-.337-.5" fill="#221f20"/>
    <path id="Path_1487" data-name="Path 1487" d="M86.365,29.986a.237.237,0,1,0,.186.278.237.237,0,0,0-.186-.278" fill="#221f20"/>
    <path id="Path_1488" data-name="Path 1488" d="M86.5,28.827a.237.237,0,1,0,.277.188.236.236,0,0,0-.277-.188" fill="#221f20"/>
    <path id="Path_1489" data-name="Path 1489" d="M83.922,28.668a.429.429,0,1,0,.274.541.429.429,0,0,0-.274-.541" fill="#221f20"/>
    <path id="Path_1490" data-name="Path 1490" d="M84.46,29.7a.237.237,0,1,0,.15.3.237.237,0,0,0-.15-.3" fill="#221f20"/>
    <path id="Path_1491" data-name="Path 1491" d="M84.737,28.562a.237.237,0,1,0,.252.22.237.237,0,0,0-.252-.22" fill="#221f20"/>
    <path id="Path_1492" data-name="Path 1492" d="M82,28.41a.429.429,0,1,0,.344.5.429.429,0,0,0-.344-.5" fill="#221f20"/>
    <path id="Path_1493" data-name="Path 1493" d="M82.673,29.356a.237.237,0,1,0,.19.275.236.236,0,0,0-.19-.275" fill="#221f20"/>
    <path id="Path_1494" data-name="Path 1494" d="M82.8,28.2a.237.237,0,1,0,.279.184A.235.235,0,0,0,82.8,28.2" fill="#221f20"/>
    <path id="Path_1495" data-name="Path 1495" d="M80.328,28.027a.429.429,0,1,0,.309.522.429.429,0,0,0-.309-.522" fill="#221f20"/>
    <path id="Path_1496" data-name="Path 1496" d="M80.931,29.018a.236.236,0,1,0,.17.288.236.236,0,0,0-.17-.288" fill="#221f20"/>
    <path id="Path_1497" data-name="Path 1497" d="M81.135,27.869a.237.237,0,1,0,.266.2.237.237,0,0,0-.266-.2" fill="#221f20"/>
    <path id="Path_1498" data-name="Path 1498" d="M78.581,27.631a.429.429,0,1,0,.378.474.428.428,0,0,0-.378-.474" fill="#221f20"/>
    <path id="Path_1499" data-name="Path 1499" d="M79.315,28.529a.236.236,0,1,0,.209.262.237.237,0,0,0-.209-.262" fill="#221f20"/>
    <path id="Path_1500" data-name="Path 1500" d="M79.358,27.362a.237.237,0,1,0,.291.165.236.236,0,0,0-.291-.165" fill="#221f20"/>
    <path id="Path_1501" data-name="Path 1501" d="M76.688,27.15a.429.429,0,1,0,.31.521.429.429,0,0,0-.31-.521" fill="#221f20"/>
    <path id="Path_1502" data-name="Path 1502" d="M77.293,28.139a.237.237,0,1,0,.171.288.237.237,0,0,0-.171-.288" fill="#221f20"/>
    <path id="Path_1503" data-name="Path 1503" d="M77.494,26.99a.237.237,0,1,0,.266.2.237.237,0,0,0-.266-.2" fill="#221f20"/>
    <path id="Path_1504" data-name="Path 1504" d="M74.8,26.707a.429.429,0,1,0,.258.549.429.429,0,0,0-.258-.549" fill="#221f20"/>
    <path id="Path_1505" data-name="Path 1505" d="M75.3,27.75a.237.237,0,1,0,.142.3.237.237,0,0,0-.142-.3" fill="#221f20"/>
    <path id="Path_1506" data-name="Path 1506" d="M75.617,26.626a.237.237,0,1,0,.245.228.237.237,0,0,0-.245-.228" fill="#221f20"/>
    <path id="Path_1507" data-name="Path 1507" d="M72.87,26.361a.429.429,0,1,0,.261.548.429.429,0,0,0-.261-.548" fill="#221f20"/>
    <path id="Path_1508" data-name="Path 1508" d="M73.382,27.4a.237.237,0,1,0,.144.3.237.237,0,0,0-.144-.3" fill="#221f20"/>
    <path id="Path_1509" data-name="Path 1509" d="M73.688,26.275a.237.237,0,1,0,.246.227.237.237,0,0,0-.246-.227" fill="#221f20"/>
    <path id="Path_1510" data-name="Path 1510" d="M96.087,27.884a.429.429,0,1,0,.6.065.43.43,0,0,0-.6-.065" fill="#221f20"/>
    <path id="Path_1511" data-name="Path 1511" d="M97.241,27.993a.236.236,0,1,0,.333.036.237.237,0,0,0-.333-.036" fill="#221f20"/>
    <path id="Path_1512" data-name="Path 1512" d="M96.442,27.143a.237.237,0,1,0,.322-.091.237.237,0,0,0-.322.091" fill="#221f20"/>
    <path id="Path_1513" data-name="Path 1513" d="M97.574,26.392a.429.429,0,1,0,.605.007.427.427,0,0,0-.605-.007" fill="#221f20"/>
    <path id="Path_1514" data-name="Path 1514" d="M98.733,26.391a.237.237,0,1,0,.335,0,.237.237,0,0,0-.335,0" fill="#221f20"/>
    <path id="Path_1515" data-name="Path 1515" d="M97.857,25.62a.237.237,0,1,0,.312-.121.237.237,0,0,0-.312.121" fill="#221f20"/>
    <path id="Path_1516" data-name="Path 1516" d="M70.912,26.222a.429.429,0,1,0,.333.507.429.429,0,0,0-.333-.507" fill="#221f20"/>
    <path id="Path_1517" data-name="Path 1517" d="M71.561,27.183a.237.237,0,1,0,.184.28.238.238,0,0,0-.184-.28" fill="#221f20"/>
    <path id="Path_1518" data-name="Path 1518" d="M71.71,26.025a.237.237,0,1,0,.275.191.237.237,0,0,0-.275-.191" fill="#221f20"/>
    <path id="Path_1519" data-name="Path 1519" d="M69,25.629a.429.429,0,1,0,.261.548A.429.429,0,0,0,69,25.629" fill="#221f20"/>
    <path id="Path_1520" data-name="Path 1520" d="M69.515,26.67a.237.237,0,1,0,.144.3.237.237,0,0,0-.144-.3" fill="#221f20"/>
    <path id="Path_1521" data-name="Path 1521" d="M69.822,25.543a.237.237,0,1,0,.245.227.238.238,0,0,0-.245-.227" fill="#221f20"/>
    <path id="Path_1522" data-name="Path 1522" d="M66.99,25.367a.429.429,0,1,0,.351.494.428.428,0,0,0-.351-.494" fill="#221f20"/>
    <path id="Path_1523" data-name="Path 1523" d="M67.674,26.3a.237.237,0,1,0,.194.273.237.237,0,0,0-.194-.273" fill="#221f20"/>
    <path id="Path_1524" data-name="Path 1524" d="M67.781,25.141a.236.236,0,1,0,.282.181.238.238,0,0,0-.282-.181" fill="#221f20"/>
    <path id="Path_1525" data-name="Path 1525" d="M64.958,25.192a.429.429,0,1,0,.351.494.428.428,0,0,0-.351-.494" fill="#221f20"/>
    <path id="Path_1526" data-name="Path 1526" d="M65.641,26.128a.237.237,0,1,0,.194.273.237.237,0,0,0-.194-.273" fill="#221f20"/>
    <path id="Path_1527" data-name="Path 1527" d="M65.748,24.966a.236.236,0,1,0,.282.181.237.237,0,0,0-.282-.181" fill="#221f20"/>
    <path id="Path_1528" data-name="Path 1528" d="M62.9,25.313a.429.429,0,1,0,.423.434.428.428,0,0,0-.423-.434" fill="#221f20"/>
    <path id="Path_1529" data-name="Path 1529" d="M63.723,26.133a.237.237,0,1,0,.234.24.237.237,0,0,0-.234-.24" fill="#221f20"/>
    <path id="Path_1530" data-name="Path 1530" d="M63.65,24.969a.236.236,0,1,0,.306.135.236.236,0,0,0-.306-.135" fill="#221f20"/>
    <path id="Path_1531" data-name="Path 1531" d="M60.811,25.317a.429.429,0,1,0,.484.366.429.429,0,0,0-.484-.366" fill="#221f20"/>
    <path id="Path_1532" data-name="Path 1532" d="M61.744,26a.237.237,0,1,0,.267.2.237.237,0,0,0-.267-.2" fill="#221f20"/>
    <path id="Path_1533" data-name="Path 1533" d="M61.5,24.864a.237.237,0,1,0,.323.087.237.237,0,0,0-.323-.087" fill="#221f20"/>
    <path id="Path_1534" data-name="Path 1534" d="M59,25.725a.429.429,0,1,0,.456.4.429.429,0,0,0-.456-.4" fill="#221f20"/>
    <path id="Path_1535" data-name="Path 1535" d="M59.883,26.478a.237.237,0,1,0,.252.221.238.238,0,0,0-.252-.221" fill="#221f20"/>
    <path id="Path_1536" data-name="Path 1536" d="M59.718,25.323a.236.236,0,1,0,.316.111.237.237,0,0,0-.316-.111" fill="#221f20"/>
    <path id="Path_1537" data-name="Path 1537" d="M57.181,26.219a.429.429,0,1,0,.519.313.428.428,0,0,0-.519-.313" fill="#221f20"/>
    <path id="Path_1538" data-name="Path 1538" d="M58.181,26.805a.236.236,0,1,0,.287.173.237.237,0,0,0-.287-.173" fill="#221f20"/>
    <path id="Path_1539" data-name="Path 1539" d="M57.815,25.7a.237.237,0,1,0,.33.053.236.236,0,0,0-.33-.053" fill="#221f20"/>
    <path id="Path_1540" data-name="Path 1540" d="M55.242,27.186a.428.428,0,1,0,.588.146.426.426,0,0,0-.588-.146" fill="#221f20"/>
    <path id="Path_1541" data-name="Path 1541" d="M56.37,27.451a.237.237,0,1,0,.325.08.236.236,0,0,0-.325-.08" fill="#221f20"/>
    <path id="Path_1542" data-name="Path 1542" d="M55.693,26.5a.236.236,0,1,0,.331-.047.236.236,0,0,0-.331.047" fill="#221f20"/>
    <path id="Path_1543" data-name="Path 1543" d="M53.546,28.384a.429.429,0,1,0,.589.146.429.429,0,0,0-.589-.146" fill="#221f20"/>
    <path id="Path_1544" data-name="Path 1544" d="M54.675,28.648a.237.237,0,1,0,.325.08.236.236,0,0,0-.325-.08" fill="#221f20"/>
    <path id="Path_1545" data-name="Path 1545" d="M54,27.7a.236.236,0,1,0,.331-.047A.236.236,0,0,0,54,27.7" fill="#221f20"/>
    <path id="Path_1546" data-name="Path 1546" d="M51.983,29.566a.429.429,0,1,0,.589.145.429.429,0,0,0-.589-.145" fill="#221f20"/>
    <path id="Path_1547" data-name="Path 1547" d="M53.112,29.83a.237.237,0,1,0,.325.08.236.236,0,0,0-.325-.08" fill="#221f20"/>
    <path id="Path_1548" data-name="Path 1548" d="M52.435,28.88a.236.236,0,1,0,.331-.047.236.236,0,0,0-.331.047" fill="#221f20"/>
    <path id="Path_1549" data-name="Path 1549" d="M50.754,30.9a.429.429,0,1,0,.6.061.429.429,0,0,0-.6-.061" fill="#221f20"/>
    <path id="Path_1550" data-name="Path 1550" d="M51.909,31a.237.237,0,1,0,.332.034A.236.236,0,0,0,51.909,31" fill="#221f20"/>
    <path id="Path_1551" data-name="Path 1551" d="M51.1,30.158a.237.237,0,1,0,.321-.093.236.236,0,0,0-.321.093" fill="#221f20"/>
    <path id="Path_1552" data-name="Path 1552" d="M49.844,32.6a.429.429,0,1,0,.584-.163.429.429,0,0,0-.584.163" fill="#221f20"/>
    <path id="Path_1553" data-name="Path 1553" d="M50.957,32.28a.236.236,0,1,0,.321-.09.235.235,0,0,0-.321.09" fill="#221f20"/>
    <path id="Path_1554" data-name="Path 1554" d="M49.9,31.785a.236.236,0,1,0,.265-.2.236.236,0,0,0-.265.2" fill="#221f20"/>
    <path id="Path_1555" data-name="Path 1555" d="M48.693,34.345a.429.429,0,1,0,.562-.227.428.428,0,0,0-.562.227" fill="#221f20"/>
    <path id="Path_1556" data-name="Path 1556" d="M49.763,33.9a.237.237,0,1,0,.31-.125.237.237,0,0,0-.31.125" fill="#221f20"/>
    <path id="Path_1557" data-name="Path 1557" d="M48.657,33.523a.237.237,0,1,0,.241-.232.236.236,0,0,0-.241.232" fill="#221f20"/>
    <path id="Path_1558" data-name="Path 1558" d="M48.15,36.342a.429.429,0,1,0,.562-.227.428.428,0,0,0-.562.227" fill="#221f20"/>
    <path id="Path_1559" data-name="Path 1559" d="M49.219,35.9a.237.237,0,1,0,.31-.125.237.237,0,0,0-.31.125" fill="#221f20"/>
    <path id="Path_1560" data-name="Path 1560" d="M48.114,35.521a.237.237,0,1,0,.241-.232.236.236,0,0,0-.241.232" fill="#221f20"/>
    <path id="Path_1561" data-name="Path 1561" d="M47.725,38.444a.429.429,0,1,0,.512-.325.43.43,0,0,0-.512.325" fill="#221f20"/>
    <path id="Path_1562" data-name="Path 1562" d="M48.7,37.809a.237.237,0,1,0,.282-.18.236.236,0,0,0-.282.18" fill="#221f20"/>
    <path id="Path_1563" data-name="Path 1563" d="M47.54,37.643a.237.237,0,1,0,.195-.272.237.237,0,0,0-.195.272" fill="#221f20"/>
    <path id="Path_1564" data-name="Path 1564" d="M47.519,40.456a.429.429,0,1,0,.512-.325.43.43,0,0,0-.512.325" fill="#221f20"/>
    <path id="Path_1565" data-name="Path 1565" d="M48.489,39.821a.237.237,0,1,0,.282-.18.236.236,0,0,0-.282.18" fill="#221f20"/>
    <path id="Path_1566" data-name="Path 1566" d="M47.334,39.655a.237.237,0,1,0,.195-.272.237.237,0,0,0-.195.272" fill="#221f20"/>
    <path id="Path_1567" data-name="Path 1567" d="M47.313,42.468a.428.428,0,1,0,.511-.325.428.428,0,0,0-.511.325" fill="#221f20"/>
    <path id="Path_1568" data-name="Path 1568" d="M48.283,41.833a.237.237,0,1,0,.282-.18.236.236,0,0,0-.282.18" fill="#221f20"/>
    <path id="Path_1569" data-name="Path 1569" d="M47.128,41.667a.237.237,0,1,0,.2-.272.237.237,0,0,0-.2.272" fill="#221f20"/>
    <path id="Path_1570" data-name="Path 1570" d="M99.763,26.561a10.4,10.4,0,0,1-9.286,4.515C84,30.821,73.3,28.146,68.861,27.415c-4.9-.808-19.117-2.617-20.11,16.307" fill="none" stroke="#221f20" stroke-miterlimit="10" stroke-width="0.332" stroke-dasharray="1.523 1.523"/>
    <path id="Path_1571" data-name="Path 1571" d="M5.486,9.509l.019.124c.035-.081.055-.124.055-.124C16.938,15,31.054,17.2,41.263,15.357c7.266-1.308,16.454-7.751,19.891-10.314l.011-.92c-4.516,3.25-10.791,7.6-18.232,9.627-8.656,2.365-18.826.52-26.259-1.231-6.6-1.554-10.9-3.651-11.188-3.01" fill="#c1c1c1"/>
    <path id="Path_1572" data-name="Path 1572" d="M5.486,9.509l.019.124c.035-.081.055-.124.055-.124C16.938,15,31.054,17.2,41.263,15.357c7.266-1.308,16.454-7.751,19.891-10.314l.011-.92c-4.516,3.25-10.791,7.6-18.232,9.627-8.656,2.365-18.826.52-26.259-1.231C10.072,10.965,5.769,8.868,5.486,9.509Z" fill="none" stroke="#221f20" stroke-miterlimit="10" stroke-width="0.388"/>
    <path id="Path_1573" data-name="Path 1573" d="M60.967,3.832c.1.489.835.722.835.722.458-.349.718-.555.734-.571l.039-.023c3.242-2.046,5.382-1.639,8.729.322l.179-.128L65.794.228s-5,2.761-4.827,3.6" fill="#c1c1c1"/>
    <path id="Path_1574" data-name="Path 1574" d="M60.967,3.832c.1.489.835.722.835.722.458-.349.718-.555.734-.571l.039-.023c3.242-2.046,5.382-1.639,8.729.322l.179-.128L65.794.228S60.8,2.989,60.967,3.832Z" fill="none" stroke="#221f20" stroke-miterlimit="10" stroke-width="0.388"/>
  </g>
</svg>
