<svg id="Group_1401" data-name="Group 1401" xmlns="http://www.w3.org/2000/svg" xmlns:xlink="http://www.w3.org/1999/xlink" width="151.283" height="52.78" viewBox="0 0 151.283 52.78">
  <defs>
    <clipPath id="clip-path">
      <rect id="Rectangle_1935" data-name="Rectangle 1935" width="151.283" height="52.78" transform="translate(0 0)" fill="none"/>
    </clipPath>
  </defs>
  <g id="Group_1401-2" data-name="Group 1401" clip-path="url(#clip-path)">
    <path id="Path_1886" data-name="Path 1886" d="M2.963,40.906a1.042,1.042,0,0,0,.074.109s18.638-.281,30.188.753c12.462,1.115,56.187,7.771,73.991,7.307A197.214,197.214,0,0,0,149.5,43.2a5.2,5.2,0,0,0-.612-3.389c-.846-1.509-2.531-2.784-6.512-3.412-6.757-1.056-15.737-2.355-24.132-3.427-8.89-1.139-13.008-1.587-21.122-8.52l-2-1.68c-7.027-5.838-18.755-14.954-20.054-15.8-1.47-.963-2.7-1.774-3.79-2.406C68.052,2.686,66.1,2.374,63.034,4.3c0,0-.195.156-.55.433-.07.055-.144.113-.226.172C59.423,7.073,49.41,14.376,41.5,15.8c-9.315,1.68-23.4-.024-35.916-6.06a.234.234,0,0,0-.019.04c-.464,1-9.694,21.266-2.6,31.123" fill="#fff"/>
    <path id="Path_1887" data-name="Path 1887" d="M2.963,40.906a1.042,1.042,0,0,0,.074.109s18.638-.281,30.188.753c12.462,1.115,56.187,7.771,73.991,7.307A197.214,197.214,0,0,0,149.5,43.2a5.2,5.2,0,0,0-.612-3.389c-.846-1.509-2.531-2.784-6.512-3.412-6.757-1.056-15.737-2.355-24.132-3.427-8.89-1.139-13.008-1.587-21.122-8.52l-2-1.68c-7.027-5.838-18.755-14.954-20.054-15.8-1.47-.963-2.7-1.774-3.79-2.406C68.052,2.686,66.1,2.374,63.034,4.3c0,0-.195.156-.55.433-.07.055-.144.113-.226.172C59.423,7.073,49.41,14.376,41.5,15.8c-9.315,1.68-23.4-.024-35.916-6.06a.234.234,0,0,0-.019.04C5.1,10.785-4.13,31.049,2.963,40.906Z" fill="none" stroke="#221f20" stroke-miterlimit="10" stroke-width="0.585"/>
    <path id="Path_1888" data-name="Path 1888" d="M46.375,43.1q.02-.385.045-.764" fill="none" stroke="#221f20" stroke-miterlimit="10" stroke-width="0.334"/>
    <path id="Path_1889" data-name="Path 1889" d="M46.543,40.8c.608-6.287,2.469-11,8.312-14.6,6.187-3.8,21.3-.311,24.271.427,10.608,2.641,14.725,2.66,17.671-.43" fill="none" stroke="#221f20" stroke-miterlimit="10" stroke-width="0.334" stroke-dasharray="1.538 1.538"/>
    <path id="Path_1890" data-name="Path 1890" d="M97.3,25.626q.235-.288.463-.6" fill="none" stroke="#221f20" stroke-miterlimit="10" stroke-width="0.334"/>
    <path id="Path_1891" data-name="Path 1891" d="M97.181,24.243c-2.358,3.692-5.361,4.733-17.862,1.622a79.6,79.6,0,0,0-12.3-2.053c-5.774-.445-10.007.133-12.583,1.717-6.807,4.184-8.463,10.034-8.855,17.53" fill="none" stroke="#221f20" stroke-linecap="round" stroke-miterlimit="10" stroke-width="0.668"/>
    <path id="Path_1892" data-name="Path 1892" d="M2.733,52.584H38.57l.269-6.948s6.827.608,24.6,2.994c10.527,1.412,36.364,4.866,53.232,3.053,14.354-1.54,33.665-4.538,34.184-4.679.461-.125.114-2.25-.063-2.873s-1.3-.929-1.3-.929a197.192,197.192,0,0,1-42.284,5.873c-17.8.464-61.529-6.192-73.991-7.307-11.55-1.034-30.188-.753-30.188-.753a1.224,1.224,0,0,1-.074-.109Z" fill="#2e160e"/>
    <path id="Path_1893" data-name="Path 1893" d="M2.733,52.584H38.57l.269-6.948s6.827.608,24.6,2.994c10.527,1.412,36.364,4.866,53.232,3.053,14.354-1.54,33.665-4.538,34.184-4.679.461-.125.114-2.25-.063-2.873s-1.3-.929-1.3-.929a197.192,197.192,0,0,1-42.284,5.873c-17.8.464-61.529-6.192-73.991-7.307-11.55-1.034-30.188-.753-30.188-.753a1.224,1.224,0,0,1-.074-.109Z" fill="none" stroke="#221f20" stroke-miterlimit="10" stroke-width="0.39"/>
    <path id="Path_1894" data-name="Path 1894" d="M90.287,23.78a.569.569,0,1,0,.569-.569A.569.569,0,0,0,90.287,23.78Z" fill="none" stroke="#221f20" stroke-miterlimit="10" stroke-width="0.39"/>
    <path id="Path_1895" data-name="Path 1895" d="M85.1,19.648a.569.569,0,1,0,.569-.569A.569.569,0,0,0,85.1,19.648Z" fill="none" stroke="#221f20" stroke-miterlimit="10" stroke-width="0.39"/>
    <path id="Path_1896" data-name="Path 1896" d="M79.894,15.374a.569.569,0,1,0,.569-.569A.569.569,0,0,0,79.894,15.374Z" fill="none" stroke="#221f20" stroke-miterlimit="10" stroke-width="0.39"/>
    <path id="Path_1897" data-name="Path 1897" d="M74.623,11.9a.569.569,0,1,0,.569-.569A.569.569,0,0,0,74.623,11.9Z" fill="none" stroke="#221f20" stroke-miterlimit="10" stroke-width="0.39"/>
    <path id="Path_1898" data-name="Path 1898" d="M68.809,8.307a.569.569,0,1,0,.569-.569A.569.569,0,0,0,68.809,8.307Z" fill="none" stroke="#221f20" stroke-miterlimit="10" stroke-width="0.39"/>
    <path id="Path_1899" data-name="Path 1899" d="M93.59,21.51s.913-2.044-.866.141c-.865,1.064-1.868,2.129-1.868,2.129" fill="none" stroke="#221f20" stroke-miterlimit="10" stroke-width="1.17"/>
    <path id="Path_1900" data-name="Path 1900" d="M88.32,17.253s.627-1.879-.674-.3c-.873,1.057-1.869,2.587-1.869,2.587" fill="none" stroke="#221f20" stroke-miterlimit="10" stroke-width="1.17"/>
    <path id="Path_1901" data-name="Path 1901" d="M83.2,13.1s.912-2.044-.867.141c-.865,1.064-1.867,2.129-1.867,2.129" fill="none" stroke="#221f20" stroke-miterlimit="10" stroke-width="1.17"/>
    <path id="Path_1902" data-name="Path 1902" d="M78.09,9.307s.913-2.044-.866.141c-.865,1.064-2.032,2.455-2.032,2.455" fill="none" stroke="#221f20" stroke-miterlimit="10" stroke-width="1.17"/>
    <path id="Path_1903" data-name="Path 1903" d="M72.6,4.707s1.21-1.894-1.178.512a12.667,12.667,0,0,0-1.869,2.964" fill="none" stroke="#221f20" stroke-miterlimit="10" stroke-width="1.17"/>
    <path id="Path_1904" data-name="Path 1904" d="M5.563,9.782a.291.291,0,0,1,.02-.039c12.512,6.036,26.6,7.74,35.915,6.059C49.64,14.332,60,6.647,62.484,4.736l-1.073-.6c-4.534,3.263-10.836,7.623-18.3,9.666-8.7,2.375-18.907.519-26.37-1.236C10.109,11.01,5.871,8.9,5.583,9.548Z" fill="#c1c1c1"/>
    <path id="Path_1905" data-name="Path 1905" d="M5.563,9.782a.291.291,0,0,1,.02-.039c12.512,6.036,26.6,7.74,35.915,6.059C49.64,14.332,60,6.647,62.484,4.736l-1.073-.6c-4.534,3.263-10.836,7.623-18.3,9.666-8.7,2.375-18.907.519-26.37-1.236C10.109,11.01,5.871,8.9,5.583,9.548Z" fill="none" stroke="#221f20" stroke-miterlimit="10" stroke-width="0.39"/>
    <path id="Path_1906" data-name="Path 1906" d="M84.164,13.96C84.018,13.9,72.176,4.193,70.141,2.83c-.062-.042-.853-.585-1-.522" fill="none" stroke="#221f20" stroke-miterlimit="10" stroke-width="0.195"/>
    <path id="Path_1907" data-name="Path 1907" d="M95.192,26.647s-2.407-1.613.079-3.94c0,0,.256-.158,1.848,1.746" fill="none" stroke="#221f20" stroke-linecap="round" stroke-miterlimit="10" stroke-width="0.668"/>
    <path id="Path_1908" data-name="Path 1908" d="M38.571,52.585l5.21-6.426-4.942-.524Z" fill="#160602"/>
    <path id="Path_1909" data-name="Path 1909" d="M38.571,52.585l5.21-6.426-4.942-.524Z" fill="none" stroke="#2e160e" stroke-linejoin="round" stroke-width="0.39"/>
    <path id="Path_1910" data-name="Path 1910" d="M5.391,10.472q.344.167.691.328" fill="none" stroke="#221f20" stroke-miterlimit="10" stroke-width="0.334"/>
    <path id="Path_1911" data-name="Path 1911" d="M7.463,11.424c11.163,4.879,24.416,6.8,34.207,5.032C50.887,14.794,62.648,5.464,63.362,4.892c3.13-2.046,5-1.323,10.695,2.414l2.364,1.73c1.13.741,9.917,7.635,17.011,13.476" fill="none" stroke="#221f20" stroke-miterlimit="10" stroke-width="0.334" stroke-dasharray="1.516 1.516"/>
    <path id="Path_1912" data-name="Path 1912" d="M94.017,22.994q.3.245.588.487" fill="none" stroke="#221f20" stroke-miterlimit="10" stroke-width="0.334"/>
    <path id="Path_1913" data-name="Path 1913" d="M111.24,31.951c.787.626,3.022,2.948,2.568,4.357-.287.887-1.661,1.993-6.584,2.223a88.922,88.922,0,0,1-12.205-.787C82.273,36.4,66.41,34.722,60.785,44.967" fill="none" stroke="#221f20" stroke-linecap="round" stroke-miterlimit="10" stroke-width="0.668"/>
    <path id="Path_1914" data-name="Path 1914" d="M61.468,45.342c5.376-9.79,20.952-8.145,33.468-6.822a90.028,90.028,0,0,0,12.325.79c4.372-.2,6.756-1.109,7.289-2.764.713-2.209-1.9-4.27-2.032-4.375" fill="none" stroke="#221f20" stroke-miterlimit="10" stroke-width="0.334" stroke-dasharray="1.529 1.529"/>
    <path id="Path_1915" data-name="Path 1915" d="M36.893,42.431c-.244-13-10.842-15.491-20.192-17.687-1.577-.37-3.066-.72-4.512-1.116C9.4,22.864,7.532,21.47,6.645,19.485c-1.643-3.68.642-8.374.664-8.42" fill="none" stroke="#221f20" stroke-linecap="round" stroke-miterlimit="10" stroke-width="0.668"/>
    <path id="Path_1916" data-name="Path 1916" d="M6.567,10.849c-.1.2-2.427,4.93-.635,8.95.985,2.21,3.021,3.751,6.051,4.581,1.46.4,2.956.751,4.54,1.123,9.517,2.236,19.358,4.547,19.59,16.942" fill="none" stroke="#221f20" stroke-miterlimit="10" stroke-width="0.334" stroke-dasharray="1.529 1.529"/>
    <path id="Path_1917" data-name="Path 1917" d="M18.2,26.912a.43.43,0,1,1-.532.3.43.43,0,0,1,.532-.3" fill="#221f20"/>
    <path id="Path_1918" data-name="Path 1918" d="M17.181,27.465a.238.238,0,1,1-.294.164.239.239,0,0,1,.294-.164" fill="#221f20"/>
    <path id="Path_1919" data-name="Path 1919" d="M17.587,26.366a.238.238,0,1,1-.333.042.237.237,0,0,1,.333-.042" fill="#221f20"/>
    <path id="Path_1920" data-name="Path 1920" d="M20.04,27.279a.431.431,0,1,1-.483.371.43.43,0,0,1,.483-.371" fill="#221f20"/>
    <path id="Path_1921" data-name="Path 1921" d="M19.108,27.976a.238.238,0,1,1-.267.2.238.238,0,0,1,.267-.2" fill="#221f20"/>
    <path id="Path_1922" data-name="Path 1922" d="M19.348,26.829a.238.238,0,1,1-.324.09.238.238,0,0,1,.324-.09" fill="#221f20"/>
    <path id="Path_1923" data-name="Path 1923" d="M21.911,27.818a.43.43,0,1,1-.457.4.431.431,0,0,1,.457-.4" fill="#221f20"/>
    <path id="Path_1924" data-name="Path 1924" d="M21.027,28.576a.237.237,0,1,1-.252.222.237.237,0,0,1,.252-.222" fill="#221f20"/>
    <path id="Path_1925" data-name="Path 1925" d="M21.19,27.416a.238.238,0,1,1-.317.112.239.239,0,0,1,.317-.112" fill="#221f20"/>
    <path id="Path_1926" data-name="Path 1926" d="M23.919,28.411a.43.43,0,1,1-.458.4.431.431,0,0,1,.458-.4" fill="#221f20"/>
    <path id="Path_1927" data-name="Path 1927" d="M23.034,29.168a.238.238,0,1,1-.253.222.239.239,0,0,1,.253-.222" fill="#221f20"/>
    <path id="Path_1928" data-name="Path 1928" d="M23.2,28.008a.237.237,0,1,1-.317.111.238.238,0,0,1,.317-.111" fill="#221f20"/>
    <path id="Path_1929" data-name="Path 1929" d="M25.911,29.4a.431.431,0,1,1-.521.315.431.431,0,0,1,.521-.315" fill="#221f20"/>
    <path id="Path_1930" data-name="Path 1930" d="M24.907,29.992a.237.237,0,1,1-.288.174.239.239,0,0,1,.288-.174" fill="#221f20"/>
    <path id="Path_1931" data-name="Path 1931" d="M25.274,28.879a.238.238,0,1,1-.333.053.239.239,0,0,1,.333-.053" fill="#221f20"/>
    <path id="Path_1932" data-name="Path 1932" d="M27.678,30.394a.43.43,0,1,1-.591.146.43.43,0,0,1,.591-.146" fill="#221f20"/>
    <path id="Path_1933" data-name="Path 1933" d="M26.544,30.659a.238.238,0,1,1-.326.081.239.239,0,0,1,.326-.081" fill="#221f20"/>
    <path id="Path_1934" data-name="Path 1934" d="M27.224,29.7a.238.238,0,1,1-.333-.047.238.238,0,0,1,.333.047" fill="#221f20"/>
    <path id="Path_1935" data-name="Path 1935" d="M29.38,31.565a.43.43,0,1,1-.591.146.43.43,0,0,1,.591-.146" fill="#221f20"/>
    <path id="Path_1936" data-name="Path 1936" d="M28.246,31.83a.238.238,0,1,1-.326.081.239.239,0,0,1,.326-.081" fill="#221f20"/>
    <path id="Path_1937" data-name="Path 1937" d="M28.926,30.875a.238.238,0,1,1-.333-.047.238.238,0,0,1,.333.047" fill="#221f20"/>
    <path id="Path_1938" data-name="Path 1938" d="M30.949,32.6a.43.43,0,1,1-.591.146.43.43,0,0,1,.591-.146" fill="#221f20"/>
    <path id="Path_1939" data-name="Path 1939" d="M29.816,32.869a.238.238,0,0,1-.247.407.238.238,0,0,1,.247-.407" fill="#221f20"/>
    <path id="Path_1940" data-name="Path 1940" d="M30.5,31.915a.238.238,0,1,1-.333-.047.239.239,0,0,1,.333.047" fill="#221f20"/>
    <path id="Path_1941" data-name="Path 1941" d="M32.183,33.945a.43.43,0,1,1-.606.061.43.43,0,0,1,.606-.061" fill="#221f20"/>
    <path id="Path_1942" data-name="Path 1942" d="M31.024,34.047a.237.237,0,1,1-.334.034.237.237,0,0,1,.334-.034" fill="#221f20"/>
    <path id="Path_1943" data-name="Path 1943" d="M31.831,33.2a.237.237,0,1,1-.323-.094.238.238,0,0,1,.323.094" fill="#221f20"/>
    <path id="Path_1944" data-name="Path 1944" d="M33.1,35.656a.431.431,0,1,1-.586-.164.429.429,0,0,1,.586.164" fill="#221f20"/>
    <path id="Path_1945" data-name="Path 1945" d="M31.98,35.329a.238.238,0,1,1-.324-.09.239.239,0,0,1,.324.09" fill="#221f20"/>
    <path id="Path_1946" data-name="Path 1946" d="M33.041,34.832a.238.238,0,1,1-.266-.205.238.238,0,0,1,.266.205" fill="#221f20"/>
    <path id="Path_1947" data-name="Path 1947" d="M34.252,37.4a.43.43,0,1,1-.565-.228.431.431,0,0,1,.565.228" fill="#221f20"/>
    <path id="Path_1948" data-name="Path 1948" d="M33.178,36.953a.237.237,0,1,1-.312-.126.238.238,0,0,1,.312.126" fill="#221f20"/>
    <path id="Path_1949" data-name="Path 1949" d="M34.288,36.577a.238.238,0,1,1-.242-.233.238.238,0,0,1,.242.233" fill="#221f20"/>
    <path id="Path_1950" data-name="Path 1950" d="M34.8,39.408a.43.43,0,1,1-.565-.228.431.431,0,0,1,.565.228" fill="#221f20"/>
    <path id="Path_1951" data-name="Path 1951" d="M33.724,38.959a.237.237,0,1,1-.312-.126.238.238,0,0,1,.312.126" fill="#221f20"/>
    <path id="Path_1952" data-name="Path 1952" d="M34.834,38.583a.238.238,0,1,1-.242-.233.238.238,0,0,1,.242.233" fill="#221f20"/>
    <path id="Path_1953" data-name="Path 1953" d="M35.224,41.518a.431.431,0,1,1-.514-.327.431.431,0,0,1,.514.327" fill="#221f20"/>
    <path id="Path_1954" data-name="Path 1954" d="M34.25,40.881a.238.238,0,1,1-.284-.18.239.239,0,0,1,.284.18" fill="#221f20"/>
    <path id="Path_1955" data-name="Path 1955" d="M35.41,40.714a.238.238,0,1,1-.2-.273.238.238,0,0,1,.2.273" fill="#221f20"/>
    <path id="Path_1956" data-name="Path 1956" d="M16.261,26.32a.43.43,0,1,1-.532.3.43.43,0,0,1,.532-.3" fill="#221f20"/>
    <path id="Path_1957" data-name="Path 1957" d="M15.237,26.873a.238.238,0,1,1-.294.164.239.239,0,0,1,.294-.164" fill="#221f20"/>
    <path id="Path_1958" data-name="Path 1958" d="M15.643,25.774a.238.238,0,1,1-.333.042.237.237,0,0,1,.333-.042" fill="#221f20"/>
    <path id="Path_1959" data-name="Path 1959" d="M14.352,26.016a.43.43,0,1,1-.532.3.43.43,0,0,1,.532-.3" fill="#221f20"/>
    <path id="Path_1960" data-name="Path 1960" d="M13.328,26.57a.238.238,0,1,1-.294.164.239.239,0,0,1,.294-.164" fill="#221f20"/>
    <path id="Path_1961" data-name="Path 1961" d="M13.733,25.47a.238.238,0,1,1-.333.042.237.237,0,0,1,.333-.042" fill="#221f20"/>
    <path id="Path_1962" data-name="Path 1962" d="M12.519,25.533a.43.43,0,1,1-.532.3.43.43,0,0,1,.532-.3" fill="#221f20"/>
    <path id="Path_1963" data-name="Path 1963" d="M11.495,26.087a.238.238,0,1,1-.294.164.239.239,0,0,1,.294-.164" fill="#221f20"/>
    <path id="Path_1964" data-name="Path 1964" d="M11.9,24.987a.238.238,0,1,1-.333.042.237.237,0,0,1,.333-.042" fill="#221f20"/>
    <path id="Path_1965" data-name="Path 1965" d="M10.88,25.058a.43.43,0,1,1-.532.3.43.43,0,0,1,.532-.3" fill="#221f20"/>
    <path id="Path_1966" data-name="Path 1966" d="M9.856,25.612a.238.238,0,1,1-.3.164.239.239,0,0,1,.3-.164" fill="#221f20"/>
    <path id="Path_1967" data-name="Path 1967" d="M10.261,24.512a.238.238,0,1,1-.333.042.237.237,0,0,1,.333-.042" fill="#221f20"/>
    <path id="Path_1968" data-name="Path 1968" d="M9.248,24.484a.43.43,0,1,1-.581.183.431.431,0,0,1,.581-.183" fill="#221f20"/>
    <path id="Path_1969" data-name="Path 1969" d="M8.134,24.819a.238.238,0,1,1-.321.1.239.239,0,0,1,.321-.1" fill="#221f20"/>
    <path id="Path_1970" data-name="Path 1970" d="M8.753,23.824a.238.238,0,1,1-.335-.026.238.238,0,0,1,.335.026" fill="#221f20"/>
    <path id="Path_1971" data-name="Path 1971" d="M7.753,23.6a.431.431,0,1,1-.606.054.43.43,0,0,1,.606-.054" fill="#221f20"/>
    <path id="Path_1972" data-name="Path 1972" d="M6.593,23.686a.238.238,0,0,1-.306.365.238.238,0,0,1,.306-.365" fill="#221f20"/>
    <path id="Path_1973" data-name="Path 1973" d="M7.41,22.847a.238.238,0,1,1-.322-.1.238.238,0,0,1,.322.1" fill="#221f20"/>
    <path id="Path_1974" data-name="Path 1974" d="M6.437,22.411a.43.43,0,1,1-.608-.036.431.431,0,0,1,.608.036" fill="#221f20"/>
    <path id="Path_1975" data-name="Path 1975" d="M5.276,22.327a.238.238,0,1,1-.335-.02.237.237,0,0,1,.335.02" fill="#221f20"/>
    <path id="Path_1976" data-name="Path 1976" d="M6.209,21.618a.238.238,0,1,1-.3-.144.238.238,0,0,1,.3.144" fill="#221f20"/>
    <path id="Path_1977" data-name="Path 1977" d="M5.308,20.776a.431.431,0,1,1-.6-.094.431.431,0,0,1,.6.094" fill="#221f20"/>
    <path id="Path_1978" data-name="Path 1978" d="M4.16,20.581a.238.238,0,1,1-.332-.052.238.238,0,0,1,.332.052" fill="#221f20"/>
    <path id="Path_1979" data-name="Path 1979" d="M5.157,19.964a.238.238,0,1,1-.289-.172.239.239,0,0,1,.289.172" fill="#221f20"/>
    <path id="Path_1980" data-name="Path 1980" d="M4.6,19.226a.431.431,0,1,1-.515-.324.429.429,0,0,1,.515.324" fill="#221f20"/>
    <path id="Path_1981" data-name="Path 1981" d="M3.622,18.594a.237.237,0,1,1-.284-.179.237.237,0,0,1,.284.179" fill="#221f20"/>
    <path id="Path_1982" data-name="Path 1982" d="M4.781,18.421a.238.238,0,1,1-.2-.272.237.237,0,0,1,.2.272" fill="#221f20"/>
    <path id="Path_1983" data-name="Path 1983" d="M4.35,17.3a.431.431,0,1,1-.452-.408.431.431,0,0,1,.452.408" fill="#221f20"/>
    <path id="Path_1984" data-name="Path 1984" d="M3.5,16.51a.238.238,0,1,1-.249-.225.237.237,0,0,1,.249.225" fill="#221f20"/>
    <path id="Path_1985" data-name="Path 1985" d="M4.668,16.539a.238.238,0,1,1-.147-.3.237.237,0,0,1,.147.3" fill="#221f20"/>
    <path id="Path_1986" data-name="Path 1986" d="M82.559,38.089a.43.43,0,1,0,.321.518.432.432,0,0,0-.321-.518" fill="#221f20"/>
    <path id="Path_1987" data-name="Path 1987" d="M83.184,39.071a.238.238,0,1,0,.177.286.238.238,0,0,0-.177-.286" fill="#221f20"/>
    <path id="Path_1988" data-name="Path 1988" d="M83.365,37.913a.238.238,0,1,0,.271.2.237.237,0,0,0-.271-.2" fill="#221f20"/>
    <path id="Path_1989" data-name="Path 1989" d="M80.465,38.075a.431.431,0,1,0,.322.517.43.43,0,0,0-.322-.517" fill="#221f20"/>
    <path id="Path_1990" data-name="Path 1990" d="M81.092,39.055a.238.238,0,1,0,.178.285.237.237,0,0,0-.178-.285" fill="#221f20"/>
    <path id="Path_1991" data-name="Path 1991" d="M81.271,37.9a.238.238,0,1,0,.271.2.237.237,0,0,0-.271-.2" fill="#221f20"/>
    <path id="Path_1992" data-name="Path 1992" d="M78.271,38.447a.431.431,0,1,0,.408.452.431.431,0,0,0-.408-.452" fill="#221f20"/>
    <path id="Path_1993" data-name="Path 1993" d="M79.061,39.3a.238.238,0,1,0,.225.25.238.238,0,0,0-.225-.25" fill="#221f20"/>
    <path id="Path_1994" data-name="Path 1994" d="M79.033,38.13a.238.238,0,1,0,.3.147.237.237,0,0,0-.3-.147" fill="#221f20"/>
    <path id="Path_1995" data-name="Path 1995" d="M76.291,38.631a.431.431,0,1,0,.523.311.43.43,0,0,0-.523-.311" fill="#221f20"/>
    <path id="Path_1996" data-name="Path 1996" d="M77.3,39.213a.238.238,0,1,0,.289.172.238.238,0,0,0-.289-.172" fill="#221f20"/>
    <path id="Path_1997" data-name="Path 1997" d="M76.925,38.1a.238.238,0,1,0,.332.051.237.237,0,0,0-.332-.051" fill="#221f20"/>
    <path id="Path_1998" data-name="Path 1998" d="M74.439,38.811a.431.431,0,1,0,.523.311.43.43,0,0,0-.523-.311" fill="#221f20"/>
    <path id="Path_1999" data-name="Path 1999" d="M75.447,39.393a.238.238,0,1,0,.289.172.238.238,0,0,0-.289-.172" fill="#221f20"/>
    <path id="Path_2000" data-name="Path 2000" d="M75.073,38.283a.238.238,0,1,0,.332.051.237.237,0,0,0-.332-.051" fill="#221f20"/>
    <path id="Path_2001" data-name="Path 2001" d="M72.568,39.069a.431.431,0,1,0,.523.311.43.43,0,0,0-.523-.311" fill="#221f20"/>
    <path id="Path_2002" data-name="Path 2002" d="M73.576,39.652a.238.238,0,1,0,.289.172.238.238,0,0,0-.289-.172" fill="#221f20"/>
    <path id="Path_2003" data-name="Path 2003" d="M73.2,38.541a.238.238,0,1,0,.332.051.237.237,0,0,0-.332-.051" fill="#221f20"/>
    <path id="Path_2004" data-name="Path 2004" d="M70.795,39.67a.43.43,0,1,0,.562.234.43.43,0,0,0-.562-.234" fill="#221f20"/>
    <path id="Path_2005" data-name="Path 2005" d="M71.875,40.1a.237.237,0,1,0,.31.129.238.238,0,0,0-.31-.129" fill="#221f20"/>
    <path id="Path_2006" data-name="Path 2006" d="M71.349,39.058a.238.238,0,1,0,.336,0,.237.237,0,0,0-.336,0" fill="#221f20"/>
    <path id="Path_2007" data-name="Path 2007" d="M69.162,40.647a.43.43,0,1,0,.609.013.43.43,0,0,0-.609-.013" fill="#221f20"/>
    <path id="Path_2008" data-name="Path 2008" d="M70.326,40.659a.238.238,0,1,0,.336.007.237.237,0,0,0-.336-.007" fill="#221f20"/>
    <path id="Path_2009" data-name="Path 2009" d="M69.454,39.876a.238.238,0,1,0,.314-.119.237.237,0,0,0-.314.119" fill="#221f20"/>
    <path id="Path_2010" data-name="Path 2010" d="M67.229,41.2a.431.431,0,1,0,.606-.054.431.431,0,0,0-.606.054" fill="#221f20"/>
    <path id="Path_2011" data-name="Path 2011" d="M68.387,41.078a.238.238,0,1,0,.335-.03.238.238,0,0,0-.335.03" fill="#221f20"/>
    <path id="Path_2012" data-name="Path 2012" d="M67.433,40.4a.237.237,0,1,0,.3-.153.237.237,0,0,0-.3.153" fill="#221f20"/>
    <path id="Path_2013" data-name="Path 2013" d="M65.481,42.032a.431.431,0,1,0,.606-.054.43.43,0,0,0-.606.054" fill="#221f20"/>
    <path id="Path_2014" data-name="Path 2014" d="M66.64,41.914a.238.238,0,1,0,.335-.03.238.238,0,0,0-.335.03" fill="#221f20"/>
    <path id="Path_2015" data-name="Path 2015" d="M65.686,41.232a.237.237,0,1,0,.3-.153.237.237,0,0,0-.3.153" fill="#221f20"/>
    <path id="Path_2016" data-name="Path 2016" d="M63.993,43.769a.431.431,0,1,0,.586-.164.43.43,0,0,0-.586.164" fill="#221f20"/>
    <path id="Path_2017" data-name="Path 2017" d="M65.11,43.442a.238.238,0,1,0,.324-.09.239.239,0,0,0-.324.09" fill="#221f20"/>
    <path id="Path_2018" data-name="Path 2018" d="M64.049,42.945a.238.238,0,1,0,.266-.2.238.238,0,0,0-.266.2" fill="#221f20"/>
    <path id="Path_2019" data-name="Path 2019" d="M88.544,38.6a.43.43,0,1,0,.258.551.429.429,0,0,0-.258-.551" fill="#221f20"/>
    <path id="Path_2020" data-name="Path 2020" d="M89.05,39.646a.238.238,0,1,0,.142.3.237.237,0,0,0-.142-.3" fill="#221f20"/>
    <path id="Path_2021" data-name="Path 2021" d="M89.365,38.517a.238.238,0,1,0,.246.229.238.238,0,0,0-.246-.229" fill="#221f20"/>
    <path id="Path_2022" data-name="Path 2022" d="M86.465,38.339a.431.431,0,1,0,.259.551.43.43,0,0,0-.259-.551" fill="#221f20"/>
    <path id="Path_2023" data-name="Path 2023" d="M86.974,39.386a.238.238,0,1,0,.143.3.238.238,0,0,0-.143-.3" fill="#221f20"/>
    <path id="Path_2024" data-name="Path 2024" d="M87.286,38.257a.238.238,0,1,0,.246.229.239.239,0,0,0-.246-.229" fill="#221f20"/>
    <path id="Path_2025" data-name="Path 2025" d="M84.243,38.453a.431.431,0,1,0,.352.5.431.431,0,0,0-.352-.5" fill="#221f20"/>
    <path id="Path_2026" data-name="Path 2026" d="M84.928,39.394a.237.237,0,1,0,.194.274.238.238,0,0,0-.194-.274" fill="#221f20"/>
    <path id="Path_2027" data-name="Path 2027" d="M85.037,38.227a.237.237,0,1,0,.283.182.239.239,0,0,0-.283-.182" fill="#221f20"/>
    <path id="Path_2028" data-name="Path 2028" d="M94.675,39.278a.431.431,0,1,0,.233.562.43.43,0,0,0-.233-.562" fill="#221f20"/>
    <path id="Path_2029" data-name="Path 2029" d="M95.135,40.347a.238.238,0,1,0,.129.31.238.238,0,0,0-.129-.31" fill="#221f20"/>
    <path id="Path_2030" data-name="Path 2030" d="M95.5,39.233a.238.238,0,1,0,.235.24.238.238,0,0,0-.235-.24" fill="#221f20"/>
    <path id="Path_2031" data-name="Path 2031" d="M92.61,38.927a.43.43,0,1,0,.235.562.431.431,0,0,0-.235-.562" fill="#221f20"/>
    <path id="Path_2032" data-name="Path 2032" d="M93.072,40a.238.238,0,1,0,.129.31.238.238,0,0,0-.129-.31" fill="#221f20"/>
    <path id="Path_2033" data-name="Path 2033" d="M93.434,38.881a.238.238,0,1,0,.236.239.238.238,0,0,0-.236-.239" fill="#221f20"/>
    <path id="Path_2034" data-name="Path 2034" d="M90.385,38.942a.431.431,0,1,0,.33.512.431.431,0,0,0-.33-.512" fill="#221f20"/>
    <path id="Path_2035" data-name="Path 2035" d="M91.028,39.913a.237.237,0,1,0,.182.282.237.237,0,0,0-.182-.282" fill="#221f20"/>
    <path id="Path_2036" data-name="Path 2036" d="M91.188,38.752a.237.237,0,1,0,.274.194.238.238,0,0,0-.274-.194" fill="#221f20"/>
    <path id="Path_2037" data-name="Path 2037" d="M100.7,39.611a.431.431,0,1,0,.28.541.43.43,0,0,0-.28-.541" fill="#221f20"/>
    <path id="Path_2038" data-name="Path 2038" d="M101.246,40.638a.238.238,0,1,0,.155.3.237.237,0,0,0-.155-.3" fill="#221f20"/>
    <path id="Path_2039" data-name="Path 2039" d="M101.515,39.5a.238.238,0,1,0,.255.219.238.238,0,0,0-.255-.219" fill="#221f20"/>
    <path id="Path_2040" data-name="Path 2040" d="M98.61,39.437a.43.43,0,1,0,.281.54.431.431,0,0,0-.281-.54" fill="#221f20"/>
    <path id="Path_2041" data-name="Path 2041" d="M99.161,40.463a.238.238,0,1,0,.155.3.238.238,0,0,0-.155-.3" fill="#221f20"/>
    <path id="Path_2042" data-name="Path 2042" d="M99.427,39.321a.238.238,0,1,0,.255.218.237.237,0,0,0-.255-.218" fill="#221f20"/>
    <path id="Path_2043" data-name="Path 2043" d="M96.394,39.641a.431.431,0,1,0,.372.482.43.43,0,0,0-.372-.482" fill="#221f20"/>
    <path id="Path_2044" data-name="Path 2044" d="M97.117,40.553a.237.237,0,1,0,.205.266.238.238,0,0,0-.205-.266" fill="#221f20"/>
    <path id="Path_2045" data-name="Path 2045" d="M97.178,39.383a.238.238,0,1,0,.29.17.238.238,0,0,0-.29-.17" fill="#221f20"/>
    <path id="Path_2046" data-name="Path 2046" d="M106.6,39.946a.431.431,0,1,0,.281.54.429.429,0,0,0-.281-.54" fill="#221f20"/>
    <path id="Path_2047" data-name="Path 2047" d="M107.154,40.972a.238.238,0,1,0,.155.3.238.238,0,0,0-.155-.3" fill="#221f20"/>
    <path id="Path_2048" data-name="Path 2048" d="M107.422,39.831a.238.238,0,1,0,.255.219.238.238,0,0,0-.255-.219" fill="#221f20"/>
    <path id="Path_2049" data-name="Path 2049" d="M104.517,39.773a.43.43,0,1,0,.282.54.431.431,0,0,0-.282-.54" fill="#221f20"/>
    <path id="Path_2050" data-name="Path 2050" d="M105.068,40.8a.237.237,0,1,0,.155.3.238.238,0,0,0-.155-.3" fill="#221f20"/>
    <path id="Path_2051" data-name="Path 2051" d="M105.334,39.657a.238.238,0,1,0,.256.218.237.237,0,0,0-.256-.218" fill="#221f20"/>
    <path id="Path_2052" data-name="Path 2052" d="M102.3,39.978a.43.43,0,1,0,.372.482.431.431,0,0,0-.372-.482" fill="#221f20"/>
    <path id="Path_2053" data-name="Path 2053" d="M103.025,40.89a.237.237,0,1,0,.206.266.238.238,0,0,0-.206-.266" fill="#221f20"/>
    <path id="Path_2054" data-name="Path 2054" d="M103.085,39.72a.238.238,0,1,0,.29.17.238.238,0,0,0-.29-.17" fill="#221f20"/>
    <path id="Path_2055" data-name="Path 2055" d="M112.084,39.7a.43.43,0,1,0,.58.185.431.431,0,0,0-.58-.185" fill="#221f20"/>
    <path id="Path_2056" data-name="Path 2056" d="M113.2,40.038a.237.237,0,1,0,.32.1.237.237,0,0,0-.32-.1" fill="#221f20"/>
    <path id="Path_2057" data-name="Path 2057" d="M112.583,39.04a.238.238,0,1,0,.335-.025.237.237,0,0,0-.335.025" fill="#221f20"/>
    <path id="Path_2058" data-name="Path 2058" d="M110.259,39.877a.43.43,0,1,0,.458.4.431.431,0,0,0-.458-.4" fill="#221f20"/>
    <path id="Path_2059" data-name="Path 2059" d="M111.144,40.633a.238.238,0,1,0,.253.221.237.237,0,0,0-.253-.221" fill="#221f20"/>
    <path id="Path_2060" data-name="Path 2060" d="M110.979,39.473a.237.237,0,1,0,.317.111.238.238,0,0,0-.317-.111" fill="#221f20"/>
    <path id="Path_2061" data-name="Path 2061" d="M108.354,40.115a.431.431,0,1,0,.408.452.431.431,0,0,0-.408-.452" fill="#221f20"/>
    <path id="Path_2062" data-name="Path 2062" d="M109.144,40.969a.238.238,0,1,0,.225.25.238.238,0,0,0-.225-.25" fill="#221f20"/>
    <path id="Path_2063" data-name="Path 2063" d="M109.116,39.8a.238.238,0,1,0,.3.147.237.237,0,0,0-.3-.147" fill="#221f20"/>
    <path id="Path_2064" data-name="Path 2064" d="M115.552,36.287a.43.43,0,1,0,.354-.495.43.43,0,0,0-.354.495" fill="#221f20"/>
    <path id="Path_2065" data-name="Path 2065" d="M116.217,35.331a.238.238,0,1,0,.195-.273.237.237,0,0,0-.195.273" fill="#221f20"/>
    <path id="Path_2066" data-name="Path 2066" d="M115.079,35.611a.238.238,0,1,0,.079-.327.238.238,0,0,0-.079.327" fill="#221f20"/>
    <path id="Path_2067" data-name="Path 2067" d="M114.768,37.665a.431.431,0,1,0,.609-.02.43.43,0,0,0-.609.02" fill="#221f20"/>
    <path id="Path_2068" data-name="Path 2068" d="M115.931,37.613a.238.238,0,1,0,.336-.011.237.237,0,0,0-.336.011" fill="#221f20"/>
    <path id="Path_2069" data-name="Path 2069" d="M115.017,36.879a.238.238,0,1,0,.307-.136.237.237,0,0,0-.307.136" fill="#221f20"/>
    <path id="Path_2070" data-name="Path 2070" d="M113.447,38.827a.431.431,0,1,0,.608.034.431.431,0,0,0-.608-.034" fill="#221f20"/>
    <path id="Path_2071" data-name="Path 2071" d="M114.61,38.877a.238.238,0,1,0,.336.019.238.238,0,0,0-.336-.019" fill="#221f20"/>
    <path id="Path_2072" data-name="Path 2072" d="M113.765,38.066a.237.237,0,1,0,.318-.108.237.237,0,0,0-.318.108" fill="#221f20"/>
    <path id="Path_2073" data-name="Path 2073" d="M115.077,34.211a.43.43,0,1,0,.354-.495.43.43,0,0,0-.354.495" fill="#221f20"/>
    <path id="Path_2074" data-name="Path 2074" d="M115.742,33.255a.238.238,0,1,0,.195-.273.237.237,0,0,0-.195.273" fill="#221f20"/>
    <path id="Path_2075" data-name="Path 2075" d="M114.6,33.535a.238.238,0,1,0,.079-.327.238.238,0,0,0-.079.327" fill="#221f20"/>
    <path id="Path_2076" data-name="Path 2076" d="M87.4,27.184a3.678,3.678,0,0,0-.084-.757" fill="none" stroke="#221f20" stroke-miterlimit="10" stroke-width="0.334"/>
    <path id="Path_2077" data-name="Path 2077" d="M86.8,25.008C83.727,18.789,69.671,9.366,64.155,6.429" fill="none" stroke="#221f20" stroke-miterlimit="10" stroke-width="0.334" stroke-dasharray="1.515 1.515"/>
    <path id="Path_2078" data-name="Path 2078" d="M63.482,6.081c-.259-.129-.49-.237-.69-.323" fill="none" stroke="#221f20" stroke-miterlimit="10" stroke-width="0.334"/>
    <path id="Path_2079" data-name="Path 2079" d="M63.293,8.147a.431.431,0,1,0-.082-.6.429.429,0,0,0,.082.6" fill="#221f20"/>
    <path id="Path_2080" data-name="Path 2080" d="M63.122,6.995a.238.238,0,1,0-.045-.333.238.238,0,0,0,.045.333" fill="#221f20"/>
    <path id="Path_2081" data-name="Path 2081" d="M62.485,7.979a.238.238,0,1,0-.166-.292.238.238,0,0,0,.166.292" fill="#221f20"/>
    <path id="Path_2082" data-name="Path 2082" d="M64.917,9.418a.431.431,0,1,0-.082-.6.429.429,0,0,0,.082.6" fill="#221f20"/>
    <path id="Path_2083" data-name="Path 2083" d="M64.747,8.266a.238.238,0,1,0-.045-.333.238.238,0,0,0,.045.333" fill="#221f20"/>
    <path id="Path_2084" data-name="Path 2084" d="M64.109,9.25a.238.238,0,1,0-.166-.292.238.238,0,0,0,.166.292" fill="#221f20"/>
    <path id="Path_2085" data-name="Path 2085" d="M66.661,10.331a.431.431,0,1,0-.082-.6.429.429,0,0,0,.082.6" fill="#221f20"/>
    <path id="Path_2086" data-name="Path 2086" d="M66.491,9.18a.238.238,0,1,0-.045-.333.238.238,0,0,0,.045.333" fill="#221f20"/>
    <path id="Path_2087" data-name="Path 2087" d="M65.853,10.163a.238.238,0,1,0-.166-.292.238.238,0,0,0,.166.292" fill="#221f20"/>
    <path id="Path_2088" data-name="Path 2088" d="M68.231,11.3a.431.431,0,1,0-.082-.6.429.429,0,0,0,.082.6" fill="#221f20"/>
    <path id="Path_2089" data-name="Path 2089" d="M68.06,10.149a.238.238,0,1,0-.045-.333.238.238,0,0,0,.045.333" fill="#221f20"/>
    <path id="Path_2090" data-name="Path 2090" d="M67.423,11.132a.238.238,0,1,0-.166-.292.238.238,0,0,0,.166.292" fill="#221f20"/>
    <path id="Path_2091" data-name="Path 2091" d="M69.672,12.442a.43.43,0,1,0-.082-.6.428.428,0,0,0,.082.6" fill="#221f20"/>
    <path id="Path_2092" data-name="Path 2092" d="M69.5,11.291a.238.238,0,1,0-.045-.333.238.238,0,0,0,.045.333" fill="#221f20"/>
    <path id="Path_2093" data-name="Path 2093" d="M68.864,12.274a.238.238,0,1,0-.166-.292.238.238,0,0,0,.166.292" fill="#221f20"/>
    <path id="Path_2094" data-name="Path 2094" d="M71.23,13.307a.431.431,0,1,0-.082-.6.429.429,0,0,0,.082.6" fill="#221f20"/>
    <path id="Path_2095" data-name="Path 2095" d="M71.06,12.155a.238.238,0,1,0-.045-.333.238.238,0,0,0,.045.333" fill="#221f20"/>
    <path id="Path_2096" data-name="Path 2096" d="M70.423,13.138a.238.238,0,1,0-.166-.292.238.238,0,0,0,.166.292" fill="#221f20"/>
    <path id="Path_2097" data-name="Path 2097" d="M72.819,14.5a.431.431,0,1,0-.082-.6.429.429,0,0,0,.082.6" fill="#221f20"/>
    <path id="Path_2098" data-name="Path 2098" d="M72.649,13.346a.238.238,0,1,0-.045-.333.238.238,0,0,0,.045.333" fill="#221f20"/>
    <path id="Path_2099" data-name="Path 2099" d="M72.011,14.33a.238.238,0,1,0-.166-.292.238.238,0,0,0,.166.292" fill="#221f20"/>
    <path id="Path_2100" data-name="Path 2100" d="M74.465,15.6a.431.431,0,1,0-.082-.6.429.429,0,0,0,.082.6" fill="#221f20"/>
    <path id="Path_2101" data-name="Path 2101" d="M74.294,14.447a.238.238,0,1,0-.045-.333.238.238,0,0,0,.045.333" fill="#221f20"/>
    <path id="Path_2102" data-name="Path 2102" d="M73.657,15.431a.238.238,0,1,0-.166-.292.238.238,0,0,0,.166.292" fill="#221f20"/>
    <path id="Path_2103" data-name="Path 2103" d="M76.058,16.876a.431.431,0,1,0-.082-.6.429.429,0,0,0,.082.6" fill="#221f20"/>
    <path id="Path_2104" data-name="Path 2104" d="M75.887,15.725a.238.238,0,1,0-.045-.333.238.238,0,0,0,.045.333" fill="#221f20"/>
    <path id="Path_2105" data-name="Path 2105" d="M75.25,16.708a.238.238,0,1,0-.166-.292.238.238,0,0,0,.166.292" fill="#221f20"/>
    <path id="Path_2106" data-name="Path 2106" d="M77.449,17.9a.43.43,0,1,0-.015-.609.431.431,0,0,0,.015.609" fill="#221f20"/>
    <path id="Path_2107" data-name="Path 2107" d="M77.4,16.737A.237.237,0,1,0,77.4,16.4a.237.237,0,0,0,.009.336" fill="#221f20"/>
    <path id="Path_2108" data-name="Path 2108" d="M76.664,17.645a.238.238,0,1,0-.134-.308.237.237,0,0,0,.134.308" fill="#221f20"/>
    <path id="Path_2109" data-name="Path 2109" d="M78.936,19.121a.43.43,0,1,0,.068-.6.431.431,0,0,0-.068.6" fill="#221f20"/>
    <path id="Path_2110" data-name="Path 2110" d="M79.051,17.963a.238.238,0,1,0,.037-.334.237.237,0,0,0-.037.334" fill="#221f20"/>
    <path id="Path_2111" data-name="Path 2111" d="M78.193,18.762a.238.238,0,1,0-.09-.324.239.239,0,0,0,.09.324" fill="#221f20"/>
    <path id="Path_2112" data-name="Path 2112" d="M61.719,7.577a.431.431,0,1,0-.348-.5.431.431,0,0,0,.348.5" fill="#221f20"/>
    <path id="Path_2113" data-name="Path 2113" d="M61.041,6.63a.238.238,0,1,0-.192-.276.238.238,0,0,0,.192.276" fill="#221f20"/>
    <path id="Path_2114" data-name="Path 2114" d="M60.923,7.8a.238.238,0,1,0-.281-.184.238.238,0,0,0,.281.184" fill="#221f20"/>
    <path id="Path_2115" data-name="Path 2115" d="M80.39,20.66a.431.431,0,1,0-.082-.6.43.43,0,0,0,.082.6" fill="#221f20"/>
    <path id="Path_2116" data-name="Path 2116" d="M80.219,19.508a.238.238,0,1,0-.045-.333.239.239,0,0,0,.045.333" fill="#221f20"/>
    <path id="Path_2117" data-name="Path 2117" d="M79.582,20.492a.238.238,0,1,0-.166-.292.238.238,0,0,0,.166.292" fill="#221f20"/>
    <path id="Path_2118" data-name="Path 2118" d="M82.064,21.9a.431.431,0,1,0-.082-.6.43.43,0,0,0,.082.6" fill="#221f20"/>
    <path id="Path_2119" data-name="Path 2119" d="M81.893,20.744a.238.238,0,1,0-.045-.333.238.238,0,0,0,.045.333" fill="#221f20"/>
    <path id="Path_2120" data-name="Path 2120" d="M81.256,21.728a.238.238,0,1,0-.166-.292.238.238,0,0,0,.166.292" fill="#221f20"/>
    <path id="Path_2121" data-name="Path 2121" d="M83.494,23.351a.431.431,0,1,0-.082-.6.43.43,0,0,0,.082.6" fill="#221f20"/>
    <path id="Path_2122" data-name="Path 2122" d="M83.323,22.2a.238.238,0,1,0-.045-.333.239.239,0,0,0,.045.333" fill="#221f20"/>
    <path id="Path_2123" data-name="Path 2123" d="M82.686,23.183a.238.238,0,1,0-.166-.292.238.238,0,0,0,.166.292" fill="#221f20"/>
    <path id="Path_2124" data-name="Path 2124" d="M84.431,24.959a.43.43,0,1,0,.076-.6.43.43,0,0,0-.076.6" fill="#221f20"/>
    <path id="Path_2125" data-name="Path 2125" d="M84.562,23.8a.237.237,0,1,0,.042-.333.237.237,0,0,0-.042.333" fill="#221f20"/>
    <path id="Path_2126" data-name="Path 2126" d="M83.693,24.589a.238.238,0,1,0-.086-.325.237.237,0,0,0,.086.325" fill="#221f20"/>
    <path id="Path_2127" data-name="Path 2127" d="M85.27,26.523a.43.43,0,1,0,.207-.573.431.431,0,0,0-.207.573" fill="#221f20"/>
    <path id="Path_2128" data-name="Path 2128" d="M85.652,25.424a.238.238,0,1,0,.114-.316.237.237,0,0,0-.114.316" fill="#221f20"/>
    <path id="Path_2129" data-name="Path 2129" d="M84.632,26a.237.237,0,1,0-.012-.336.238.238,0,0,0,.012.336" fill="#221f20"/>
    <path id="Path_2130" data-name="Path 2130" d="M84.185,26.609S82.252,22.217,72.91,15.536c-2.879-2.06-10.363-7.068-13.52-7.973" fill="none" stroke="#221f20" stroke-miterlimit="10" stroke-width="0.334" stroke-dasharray="1.529 1.529"/>
    <path id="Path_2131" data-name="Path 2131" d="M119.948,34.1a.187.187,0,1,1-.255-.11.2.2,0,0,1,.255.11" fill="#221f20"/>
    <path id="Path_2132" data-name="Path 2132" d="M120.386,35.488a.2.2,0,0,1-.26-.093.2.2,0,0,1,.07-.27.2.2,0,0,1,.26.093.2.2,0,0,1-.07.27" fill="#221f20"/>
    <path id="Path_2133" data-name="Path 2133" d="M120.633,36.515a.187.187,0,1,1,.34-.153" fill="#221f20"/>
    <path id="Path_2134" data-name="Path 2134" d="M121.4,37.757a.2.2,0,0,1-.255-.11.2.2,0,0,1,.086-.263.206.206,0,0,1,.169.373" fill="#221f20"/>
    <path id="Path_2135" data-name="Path 2135" d="M122,38.627a.2.2,0,0,1-.086.263.206.206,0,1,1,.086-.263" fill="#221f20"/>
    <path id="Path_2136" data-name="Path 2136" d="M122.436,40.018a.194.194,0,0,1-.258-.1.188.188,0,1,1,.258.1" fill="#221f20"/>
    <path id="Path_2137" data-name="Path 2137" d="M122.6,41.047a.2.2,0,0,1,.122-.246.2.2,0,0,1,.238.148" fill="#221f20"/>
    <path id="Path_2138" data-name="Path 2138" d="M120.974,36.362a.2.2,0,0,1-.086.263.2.2,0,0,1-.255-.11" fill="#221f20"/>
    <path id="Path_2139" data-name="Path 2139" d="M122.856,42.429a.207.207,0,0,1,.053-.406.2.2,0,0,1-.053.406" fill="#221f20"/>
    <path id="Path_2140" data-name="Path 2140" d="M122.534,43.467a.211.211,0,0,1-.144.078.164.164,0,0,1-.136-.048.2.2,0,0,1,0-.271.222.222,0,0,1,.127-.072.191.191,0,0,1,.142.031.168.168,0,0,1,.07.127.213.213,0,0,1-.054.155" fill="#221f20"/>
    <path id="Path_2141" data-name="Path 2141" d="M121.179,44.083a.186.186,0,0,1,.026-.141.2.2,0,0,1,.113-.089.2.2,0,0,1,.249.1.164.164,0,0,1,0,.145.211.211,0,0,1-.126.106.227.227,0,0,1-.167-.008.17.17,0,0,1-.093-.115" fill="#221f20"/>
    <path id="Path_2142" data-name="Path 2142" d="M120.216,43.8a.2.2,0,0,1,.134.235.19.19,0,0,1-.258.117" fill="#221f20"/>
    <path id="Path_2143" data-name="Path 2143" d="M122.959,40.949a.194.194,0,0,1-.131.248.2.2,0,0,1-.229-.151" fill="#221f20"/>
    <path id="Path_2144" data-name="Path 2144" d="M119.117,43.029a.2.2,0,0,1,.144,0,.211.211,0,0,1,.109.091.2.2,0,0,1,.024.069.205.205,0,0,1,0,.07.2.2,0,0,1-.073.125.159.159,0,0,1-.143.027.231.231,0,0,1-.074-.036.263.263,0,0,1-.057-.069.217.217,0,0,1-.025-.166.161.161,0,0,1,.095-.11" fill="#221f20"/>
    <path id="Path_2145" data-name="Path 2145" d="M118.814,41.981a.26.26,0,0,1,.03-.085.194.194,0,0,1,.056-.061.157.157,0,0,1,.143-.024.2.2,0,0,1,.112.091.2.2,0,0,1,.025.066.174.174,0,0,1,0,.072.216.216,0,0,1-.07.124.2.2,0,0,1-.135.05.163.163,0,0,1-.128-.069.214.214,0,0,1-.036-.164" fill="#221f20"/>
    <path id="Path_2146" data-name="Path 2146" d="M119.958,41.073a.193.193,0,0,1-.031.14.218.218,0,0,1-.109.087.217.217,0,0,1-.246-.1.158.158,0,0,1-.007-.145.213.213,0,0,1,.13-.112.23.23,0,0,1,.174.008.166.166,0,0,1,.089.118" fill="#221f20"/>
    <path id="Path_2147" data-name="Path 2147" d="M120.692,41.419a.01.01,0,0,0,.006.012l.009-.007a.261.261,0,0,0,.009-.047.313.313,0,0,1,.045-.134.133.133,0,0,1,.137-.058.181.181,0,0,1,.095.049.329.329,0,0,1,.045.062.346.346,0,0,1,.026.091" fill="#221f20"/>
    <path id="Path_2148" data-name="Path 2148" d="M120.091,44.154a.222.222,0,0,1-.125-.108.165.165,0,0,1,0-.147.192.192,0,0,1,.107-.095.21.21,0,0,1,.144,0" fill="#221f20"/>
    <path id="Path_2149" data-name="Path 2149" d="M121.958,33.994a.187.187,0,1,1-.256-.1.2.2,0,0,1,.256.1" fill="#221f20"/>
    <path id="Path_2150" data-name="Path 2150" d="M122.418,35.357a.192.192,0,0,1-.26-.085.2.2,0,0,1,.065-.269.194.194,0,0,1,.26.085.2.2,0,0,1-.065.269" fill="#221f20"/>
    <path id="Path_2151" data-name="Path 2151" d="M122.682,36.366a.187.187,0,1,1,.336-.162" fill="#221f20"/>
    <path id="Path_2152" data-name="Path 2152" d="M123.468,37.572a.2.2,0,1,1,.081-.263.2.2,0,0,1-.081.263" fill="#221f20"/>
    <path id="Path_2153" data-name="Path 2153" d="M124.079,38.415a.187.187,0,1,1-.256-.1.2.2,0,0,1,.256.1" fill="#221f20"/>
    <path id="Path_2154" data-name="Path 2154" d="M124.539,39.778a.192.192,0,0,1-.26-.085.2.2,0,0,1,.065-.269.194.194,0,0,1,.26.085.2.2,0,0,1-.065.269" fill="#221f20"/>
    <path id="Path_2155" data-name="Path 2155" d="M124.8,40.787a.187.187,0,1,1,.336-.162" fill="#221f20"/>
    <path id="Path_2156" data-name="Path 2156" d="M123.019,36.2a.188.188,0,1,1-.338.161" fill="#221f20"/>
    <path id="Path_2157" data-name="Path 2157" d="M120.722,42.685a.335.335,0,1,1,.473-.012.335.335,0,0,1-.473.012" fill="#221f20"/>
    <path id="Path_2158" data-name="Path 2158" d="M124.91,34.485a.161.161,0,1,1,.187-.258.161.161,0,1,1-.187.258" fill="#221f20"/>
    <path id="Path_2159" data-name="Path 2159" d="M124.506,35.223a.173.173,0,0,1-.246-.022.161.161,0,1,1,.226-.224.174.174,0,0,1,.02.246" fill="#221f20"/>
    <path id="Path_2160" data-name="Path 2160" d="M123.521,35.826a.181.181,0,0,1,0-.247.172.172,0,0,1,.238.037.176.176,0,0,1,0,.249.168.168,0,0,1-.241-.039" fill="#221f20"/>
    <path id="Path_2161" data-name="Path 2161" d="M122.747,36.081a.179.179,0,0,1,.224.089.171.171,0,0,1-.055.244" fill="#221f20"/>
    <path id="Path_2162" data-name="Path 2162" d="M127.879,35.17a.335.335,0,1,0,.473-.012.334.334,0,0,0-.473.012" fill="#221f20"/>
    <path id="Path_2163" data-name="Path 2163" d="M132.159,37.221a.335.335,0,1,0,.43.2.335.335,0,0,0-.43-.2" fill="#221f20"/>
    <path id="Path_2164" data-name="Path 2164" d="M125.918,39.688a.213.213,0,1,1-.282,0,.2.2,0,0,1,.282,0" fill="#221f20"/>
    <path id="Path_2165" data-name="Path 2165" d="M126.61,38.847a.188.188,0,1,1-.043.279.2.2,0,0,1,.043-.279" fill="#221f20"/>
    <path id="Path_2166" data-name="Path 2166" d="M127.9,38.064a.2.2,0,0,1-.041.276.2.2,0,0,1-.283-.006.2.2,0,0,1,.039-.277.2.2,0,0,1,.285.007" fill="#221f20"/>
    <path id="Path_2167" data-name="Path 2167" d="M128.887,37.625a.2.2,0,0,1-.278-.041.2.2,0,0,1,.075-.272" fill="#221f20"/>
    <path id="Path_2168" data-name="Path 2168" d="M124.7,40.578a.2.2,0,0,1,.283-.018.2.2,0,0,1-.017.279" fill="#221f20"/>
    <path id="Path_2169" data-name="Path 2169" d="M130.08,36.729a.213.213,0,0,1-.375.193.212.212,0,0,1,.375-.193" fill="#221f20"/>
    <path id="Path_2170" data-name="Path 2170" d="M131.01,36.145a.2.2,0,0,1,.26.116.213.213,0,0,1-.4.13.2.2,0,0,1,.142-.246" fill="#221f20"/>
    <path id="Path_2171" data-name="Path 2171" d="M132.535,36.092a.2.2,0,0,1-.2.191.208.208,0,0,1-.222-.166.191.191,0,0,1,.2-.206.226.226,0,0,1,.161.05.168.168,0,0,1,.065.131" fill="#221f20"/>
    <path id="Path_2172" data-name="Path 2172" d="M133.44,36.589a.21.21,0,0,1-.092-.118.19.19,0,0,1,.008-.144.168.168,0,0,1,.119-.087.237.237,0,0,1,.164.033" fill="#221f20"/>
    <path id="Path_2173" data-name="Path 2173" d="M128.685,37.311a.2.2,0,0,1,.279.044.2.2,0,0,1-.077.27" fill="#221f20"/>
    <path id="Path_2174" data-name="Path 2174" d="M134.3,37.639a.2.2,0,0,1-.134-.054.217.217,0,0,1-.069-.123.222.222,0,0,1,.021-.139.2.2,0,0,1,.107-.1.154.154,0,0,1,.145.02.224.224,0,0,1,.094.15.234.234,0,0,1-.035.174.156.156,0,0,1-.129.069" fill="#221f20"/>
    <path id="Path_2175" data-name="Path 2175" d="M134.006,38.726a.232.232,0,0,1-.164.064.159.159,0,0,1-.129-.072.2.2,0,0,1-.026-.141.213.213,0,0,1,.066-.125.225.225,0,0,1,.13-.057.2.2,0,0,1,.14.039.161.161,0,0,1,.06.134.227.227,0,0,1-.077.158" fill="#221f20"/>
    <path id="Path_2176" data-name="Path 2176" d="M132.5,38.74a.2.2,0,0,1,.113-.086.221.221,0,0,1,.07-.013.332.332,0,0,1,.068.011.192.192,0,0,1,.061.034.234.234,0,0,1,.048.051.22.22,0,0,1,.036.14.16.16,0,0,1-.083.121.22.22,0,0,1-.176.009.236.236,0,0,1-.141-.117.156.156,0,0,1,0-.15" fill="#221f20"/>
    <path id="Path_2177" data-name="Path 2177" d="M132.345,37.807a.208.208,0,0,1-.2.185c-.107,0-.183-.1-.172-.236" fill="#221f20"/>
    <path id="Path_2178" data-name="Path 2178" d="M133.64,36.273a.235.235,0,0,1,.1.135.163.163,0,0,1-.029.144.185.185,0,0,1-.127.069.217.217,0,0,1-.145-.033" fill="#221f20"/>
    <path id="Path_2179" data-name="Path 2179" d="M126.9,36.307a.219.219,0,1,1,.285.022.2.2,0,0,1-.285-.022" fill="#221f20"/>
    <path id="Path_2180" data-name="Path 2180" d="M126.129,37.109a.189.189,0,1,1,.064-.279.2.2,0,0,1-.064.279" fill="#221f20"/>
    <path id="Path_2181" data-name="Path 2181" d="M124.792,37.876a.2.2,0,0,1,.046-.28.208.208,0,0,1,.289.005.2.2,0,0,1-.046.279.209.209,0,0,1-.289,0" fill="#221f20"/>
    <path id="Path_2182" data-name="Path 2182" d="M123.79,38.366a.189.189,0,1,1,.222.3" fill="#221f20"/>
    <path id="Path_2183" data-name="Path 2183" d="M128.246,35.551a.189.189,0,1,1-.221-.3" fill="#221f20"/>
    <path id="Path_2184" data-name="Path 2184" d="M126.841,34.493a.169.169,0,0,1-.186.2.188.188,0,0,1-.16-.089.15.15,0,0,1,0-.145.283.283,0,0,1,.094-.1.209.209,0,0,1,.046-.027c.015,0,.026-.013.038-.01a.217.217,0,0,1,.168.171" fill="#221f20"/>
    <path id="Path_2185" data-name="Path 2185" d="M94.687,28.967a.431.431,0,1,0,.543.275.431.431,0,0,0-.543-.275" fill="#221f20"/>
    <path id="Path_2186" data-name="Path 2186" d="M95.733,29.479a.237.237,0,1,0,.3.152.238.238,0,0,0-.3-.152" fill="#221f20"/>
    <path id="Path_2187" data-name="Path 2187" d="M95.284,28.4a.237.237,0,1,0,.334.028.237.237,0,0,0-.334-.028" fill="#221f20"/>
    <path id="Path_2188" data-name="Path 2188" d="M92.826,29.482a.431.431,0,1,0,.429.432.43.43,0,0,0-.429-.432" fill="#221f20"/>
    <path id="Path_2189" data-name="Path 2189" d="M93.657,30.3a.238.238,0,1,0,.237.238.238.238,0,0,0-.237-.238" fill="#221f20"/>
    <path id="Path_2190" data-name="Path 2190" d="M93.572,29.129a.237.237,0,1,0,.309.133.239.239,0,0,0-.309-.133" fill="#221f20"/>
    <path id="Path_2191" data-name="Path 2191" d="M91.045,29.76a.431.431,0,1,0,.429.432.43.43,0,0,0-.429-.432" fill="#221f20"/>
    <path id="Path_2192" data-name="Path 2192" d="M91.876,30.575a.238.238,0,1,0,.237.238.238.238,0,0,0-.237-.238" fill="#221f20"/>
    <path id="Path_2193" data-name="Path 2193" d="M91.791,29.407a.237.237,0,1,0,.309.133.239.239,0,0,0-.309-.133" fill="#221f20"/>
    <path id="Path_2194" data-name="Path 2194" d="M89.085,29.73a.431.431,0,1,0,.429.432.43.43,0,0,0-.429-.432" fill="#221f20"/>
    <path id="Path_2195" data-name="Path 2195" d="M89.915,30.546a.238.238,0,1,0,.237.238.238.238,0,0,0-.237-.238" fill="#221f20"/>
    <path id="Path_2196" data-name="Path 2196" d="M89.831,29.377a.237.237,0,1,0,.309.133.239.239,0,0,0-.309-.133" fill="#221f20"/>
    <path id="Path_2197" data-name="Path 2197" d="M87.358,29.7a.431.431,0,1,0,.429.432.43.43,0,0,0-.429-.432" fill="#221f20"/>
    <path id="Path_2198" data-name="Path 2198" d="M88.189,30.516a.238.238,0,1,0,.237.238.238.238,0,0,0-.237-.238" fill="#221f20"/>
    <path id="Path_2199" data-name="Path 2199" d="M88.1,29.347a.237.237,0,1,0,.309.133.239.239,0,0,0-.309-.133" fill="#221f20"/>
    <path id="Path_2200" data-name="Path 2200" d="M85.826,29.3a.431.431,0,1,0,.338.506.43.43,0,0,0-.338-.506" fill="#221f20"/>
    <path id="Path_2201" data-name="Path 2201" d="M86.485,30.262a.238.238,0,1,0,.187.279.236.236,0,0,0-.187-.279" fill="#221f20"/>
    <path id="Path_2202" data-name="Path 2202" d="M86.626,29.1a.238.238,0,0,0,.088.467.238.238,0,1,0-.088-.467" fill="#221f20"/>
    <path id="Path_2203" data-name="Path 2203" d="M84.032,28.939a.43.43,0,1,0,.275.543.43.43,0,0,0-.275-.543" fill="#221f20"/>
    <path id="Path_2204" data-name="Path 2204" d="M84.571,29.97a.238.238,0,1,0,.152.3.238.238,0,0,0-.152-.3" fill="#221f20"/>
    <path id="Path_2205" data-name="Path 2205" d="M84.85,28.832a.238.238,0,1,0,.253.221.237.237,0,0,0-.253-.221" fill="#221f20"/>
    <path id="Path_2206" data-name="Path 2206" d="M82.1,28.68a.431.431,0,1,0,.346.5.43.43,0,0,0-.346-.5" fill="#221f20"/>
    <path id="Path_2207" data-name="Path 2207" d="M82.777,29.629a.237.237,0,1,0,.191.277.238.238,0,0,0-.191-.277" fill="#221f20"/>
    <path id="Path_2208" data-name="Path 2208" d="M82.9,28.464a.238.238,0,1,0,.28.185.237.237,0,0,0-.28-.185" fill="#221f20"/>
    <path id="Path_2209" data-name="Path 2209" d="M80.423,28.3a.431.431,0,1,0,.31.524.43.43,0,0,0-.31-.524" fill="#221f20"/>
    <path id="Path_2210" data-name="Path 2210" d="M81.028,29.29a.237.237,0,1,0,.171.289.237.237,0,0,0-.171-.289" fill="#221f20"/>
    <path id="Path_2211" data-name="Path 2211" d="M81.233,28.136a.238.238,0,1,0,.267.2.237.237,0,0,0-.267-.2" fill="#221f20"/>
    <path id="Path_2212" data-name="Path 2212" d="M78.669,27.9a.431.431,0,1,0,.38.476.43.43,0,0,0-.38-.476" fill="#221f20"/>
    <path id="Path_2213" data-name="Path 2213" d="M79.406,28.8a.237.237,0,1,0,.209.263.238.238,0,0,0-.209-.263" fill="#221f20"/>
    <path id="Path_2214" data-name="Path 2214" d="M79.449,27.627a.238.238,0,1,0,.292.165.237.237,0,0,0-.292-.165" fill="#221f20"/>
    <path id="Path_2215" data-name="Path 2215" d="M76.769,27.414a.43.43,0,1,0,.311.523.43.43,0,0,0-.311-.523" fill="#221f20"/>
    <path id="Path_2216" data-name="Path 2216" d="M77.376,28.407a.238.238,0,1,0,.172.289.238.238,0,0,0-.172-.289" fill="#221f20"/>
    <path id="Path_2217" data-name="Path 2217" d="M77.578,27.253a.238.238,0,1,0,.267.2.238.238,0,0,0-.267-.2" fill="#221f20"/>
    <path id="Path_2218" data-name="Path 2218" d="M74.871,26.969a.431.431,0,1,0,.259.551.43.43,0,0,0-.259-.551" fill="#221f20"/>
    <path id="Path_2219" data-name="Path 2219" d="M75.379,28.017a.238.238,0,1,0,.143.3.237.237,0,0,0-.143-.3" fill="#221f20"/>
    <path id="Path_2220" data-name="Path 2220" d="M75.692,26.888a.238.238,0,1,0,.246.229.238.238,0,0,0-.246-.229" fill="#221f20"/>
    <path id="Path_2221" data-name="Path 2221" d="M72.935,26.622a.43.43,0,1,0,.262.55.431.431,0,0,0-.262-.55" fill="#221f20"/>
    <path id="Path_2222" data-name="Path 2222" d="M73.448,27.667a.238.238,0,1,0,.144.3.237.237,0,0,0-.144-.3" fill="#221f20"/>
    <path id="Path_2223" data-name="Path 2223" d="M73.756,26.536a.238.238,0,1,0,.247.227.237.237,0,0,0-.247-.227" fill="#221f20"/>
    <path id="Path_2224" data-name="Path 2224" d="M96.246,28.151a.431.431,0,1,0,.6.065.43.43,0,0,0-.6-.065" fill="#221f20"/>
    <path id="Path_2225" data-name="Path 2225" d="M97.406,28.261a.237.237,0,1,0,.334.036.237.237,0,0,0-.334-.036" fill="#221f20"/>
    <path id="Path_2226" data-name="Path 2226" d="M96.6,27.407a.238.238,0,1,0,.323-.092.237.237,0,0,0-.323.092" fill="#221f20"/>
    <path id="Path_2227" data-name="Path 2227" d="M97.739,26.653a.43.43,0,1,0,.609.007.431.431,0,0,0-.609-.007" fill="#221f20"/>
    <path id="Path_2228" data-name="Path 2228" d="M98.9,26.652a.238.238,0,1,0,.336,0,.237.237,0,0,0-.336,0" fill="#221f20"/>
    <path id="Path_2229" data-name="Path 2229" d="M98.023,25.878a.238.238,0,1,0,.313-.122.238.238,0,0,0-.313.122" fill="#221f20"/>
    <path id="Path_2230" data-name="Path 2230" d="M70.968,26.483a.43.43,0,1,0,.335.509.431.431,0,0,0-.335-.509" fill="#221f20"/>
    <path id="Path_2231" data-name="Path 2231" d="M71.62,27.447a.237.237,0,1,0,.185.281.237.237,0,0,0-.185-.281" fill="#221f20"/>
    <path id="Path_2232" data-name="Path 2232" d="M71.77,26.285a.238.238,0,1,0,.275.191.237.237,0,0,0-.275-.191" fill="#221f20"/>
    <path id="Path_2233" data-name="Path 2233" d="M69.053,25.887a.43.43,0,1,0,.262.55.431.431,0,0,0-.262-.55" fill="#221f20"/>
    <path id="Path_2234" data-name="Path 2234" d="M69.566,26.932a.238.238,0,1,0,.144.3.237.237,0,0,0-.144-.3" fill="#221f20"/>
    <path id="Path_2235" data-name="Path 2235" d="M69.874,25.8a.238.238,0,1,0,.247.227.237.237,0,0,0-.247-.227" fill="#221f20"/>
    <path id="Path_2236" data-name="Path 2236" d="M67.031,25.624a.431.431,0,1,0,.353.5.43.43,0,0,0-.353-.5" fill="#221f20"/>
    <path id="Path_2237" data-name="Path 2237" d="M67.717,26.564a.238.238,0,1,0,.195.274.238.238,0,0,0-.195-.274" fill="#221f20"/>
    <path id="Path_2238" data-name="Path 2238" d="M67.824,25.4a.238.238,0,1,0,.283.181.238.238,0,0,0-.283-.181" fill="#221f20"/>
    <path id="Path_2239" data-name="Path 2239" d="M64.99,25.448a.431.431,0,1,0,.353.5.43.43,0,0,0-.353-.5" fill="#221f20"/>
    <path id="Path_2240" data-name="Path 2240" d="M65.676,26.388a.238.238,0,1,0,.195.274.238.238,0,0,0-.195-.274" fill="#221f20"/>
    <path id="Path_2241" data-name="Path 2241" d="M65.784,25.221a.238.238,0,1,0,.283.181.238.238,0,0,0-.283-.181" fill="#221f20"/>
    <path id="Path_2242" data-name="Path 2242" d="M62.928,25.57a.431.431,0,1,0,.425.436.43.43,0,0,0-.425-.436" fill="#221f20"/>
    <path id="Path_2243" data-name="Path 2243" d="M63.751,26.393a.238.238,0,1,0,.235.241.238.238,0,0,0-.235-.241" fill="#221f20"/>
    <path id="Path_2244" data-name="Path 2244" d="M63.677,25.224a.238.238,0,1,0,.307.136.238.238,0,0,0-.307-.136" fill="#221f20"/>
    <path id="Path_2245" data-name="Path 2245" d="M60.826,25.574a.431.431,0,1,0,.486.367.43.43,0,0,0-.486-.367" fill="#221f20"/>
    <path id="Path_2246" data-name="Path 2246" d="M61.764,26.264a.238.238,0,1,0,.268.2.238.238,0,0,0-.268-.2" fill="#221f20"/>
    <path id="Path_2247" data-name="Path 2247" d="M61.515,25.119a.238.238,0,1,0,.324.088.237.237,0,0,0-.324-.088" fill="#221f20"/>
    <path id="Path_2248" data-name="Path 2248" d="M59.009,25.983a.43.43,0,1,0,.458.4.43.43,0,0,0-.458-.4" fill="#221f20"/>
    <path id="Path_2249" data-name="Path 2249" d="M59.894,26.74a.238.238,0,1,0,.253.222.239.239,0,0,0-.253-.222" fill="#221f20"/>
    <path id="Path_2250" data-name="Path 2250" d="M59.729,25.579a.237.237,0,1,0,.317.111.238.238,0,0,0-.317-.111" fill="#221f20"/>
    <path id="Path_2251" data-name="Path 2251" d="M57.181,26.479a.431.431,0,1,0,.521.314.431.431,0,0,0-.521-.314" fill="#221f20"/>
    <path id="Path_2252" data-name="Path 2252" d="M58.186,27.068a.237.237,0,1,0,.288.174.239.239,0,0,0-.288-.174" fill="#221f20"/>
    <path id="Path_2253" data-name="Path 2253" d="M57.819,25.955a.237.237,0,1,0,.332.053.238.238,0,0,0-.332-.053" fill="#221f20"/>
    <path id="Path_2254" data-name="Path 2254" d="M55.234,27.451a.43.43,0,1,0,.591.146.43.43,0,0,0-.591-.146" fill="#221f20"/>
    <path id="Path_2255" data-name="Path 2255" d="M56.368,27.716a.238.238,0,1,0,.326.081.239.239,0,0,0-.326-.081" fill="#221f20"/>
    <path id="Path_2256" data-name="Path 2256" d="M55.688,26.761a.238.238,0,1,0,.333-.047.238.238,0,0,0-.333.047" fill="#221f20"/>
    <path id="Path_2257" data-name="Path 2257" d="M53.532,28.653a.43.43,0,1,0,.591.146.43.43,0,0,0-.591-.146" fill="#221f20"/>
    <path id="Path_2258" data-name="Path 2258" d="M54.666,28.919a.238.238,0,1,0,.326.081.239.239,0,0,0-.326-.081" fill="#221f20"/>
    <path id="Path_2259" data-name="Path 2259" d="M53.986,27.964a.238.238,0,1,0,.333-.047.238.238,0,0,0-.333.047" fill="#221f20"/>
    <path id="Path_2260" data-name="Path 2260" d="M51.962,29.84a.43.43,0,1,0,.591.146.43.43,0,0,0-.591-.146" fill="#221f20"/>
    <path id="Path_2261" data-name="Path 2261" d="M53.1,30.1a.238.238,0,1,0,.326.081A.239.239,0,0,0,53.1,30.1" fill="#221f20"/>
    <path id="Path_2262" data-name="Path 2262" d="M52.416,29.151a.238.238,0,1,0,.333-.047.238.238,0,0,0-.333.047" fill="#221f20"/>
    <path id="Path_2263" data-name="Path 2263" d="M50.728,31.181a.43.43,0,1,0,.606.061.43.43,0,0,0-.606-.061" fill="#221f20"/>
    <path id="Path_2264" data-name="Path 2264" d="M51.888,31.284a.237.237,0,1,0,.334.034.236.236,0,0,0-.334-.034" fill="#221f20"/>
    <path id="Path_2265" data-name="Path 2265" d="M51.08,30.434a.237.237,0,1,0,.323-.094.238.238,0,0,0-.323.094" fill="#221f20"/>
    <path id="Path_2266" data-name="Path 2266" d="M49.814,32.892a.431.431,0,1,0,.586-.164.429.429,0,0,0-.586.164" fill="#221f20"/>
    <path id="Path_2267" data-name="Path 2267" d="M50.932,32.565a.238.238,0,1,0,.324-.09.239.239,0,0,0-.324.09" fill="#221f20"/>
    <path id="Path_2268" data-name="Path 2268" d="M49.87,32.068a.238.238,0,1,0,.266-.2.238.238,0,0,0-.266.2" fill="#221f20"/>
    <path id="Path_2269" data-name="Path 2269" d="M48.659,34.638a.43.43,0,1,0,.565-.228.431.431,0,0,0-.565.228" fill="#221f20"/>
    <path id="Path_2270" data-name="Path 2270" d="M49.733,34.189a.237.237,0,1,0,.312-.126.238.238,0,0,0-.312.126" fill="#221f20"/>
    <path id="Path_2271" data-name="Path 2271" d="M48.623,33.814a.238.238,0,1,0,.242-.233.238.238,0,0,0-.242.233" fill="#221f20"/>
    <path id="Path_2272" data-name="Path 2272" d="M48.113,36.644a.43.43,0,1,0,.565-.228.431.431,0,0,0-.565.228" fill="#221f20"/>
    <path id="Path_2273" data-name="Path 2273" d="M49.187,36.195a.237.237,0,1,0,.312-.126.238.238,0,0,0-.312.126" fill="#221f20"/>
    <path id="Path_2274" data-name="Path 2274" d="M48.077,35.82a.238.238,0,1,0,.242-.233.238.238,0,0,0-.242.233" fill="#221f20"/>
    <path id="Path_2275" data-name="Path 2275" d="M47.687,38.754a.431.431,0,1,0,.514-.327.431.431,0,0,0-.514.327" fill="#221f20"/>
    <path id="Path_2276" data-name="Path 2276" d="M48.662,38.117a.238.238,0,1,0,.284-.18.239.239,0,0,0-.284.18" fill="#221f20"/>
    <path id="Path_2277" data-name="Path 2277" d="M47.5,37.95a.238.238,0,1,0,.2-.273.238.238,0,0,0-.2.273" fill="#221f20"/>
    <path id="Path_2278" data-name="Path 2278" d="M47.48,40.774a.431.431,0,1,0,.514-.327.431.431,0,0,0-.514.327" fill="#221f20"/>
    <path id="Path_2279" data-name="Path 2279" d="M48.454,40.137a.238.238,0,1,0,.284-.18.239.239,0,0,0-.284.18" fill="#221f20"/>
    <path id="Path_2280" data-name="Path 2280" d="M47.294,39.97a.238.238,0,1,0,.2-.273.238.238,0,0,0-.2.273" fill="#221f20"/>
    <path id="Path_2281" data-name="Path 2281" d="M47.273,42.794a.431.431,0,1,0,.514-.327.431.431,0,0,0-.514.327" fill="#221f20"/>
    <path id="Path_2282" data-name="Path 2282" d="M48.247,42.157a.238.238,0,1,0,.284-.18.239.239,0,0,0-.284.18" fill="#221f20"/>
    <path id="Path_2283" data-name="Path 2283" d="M47.087,41.99a.238.238,0,1,0,.2-.273.238.238,0,0,0-.2.273" fill="#221f20"/>
    <path id="Path_2284" data-name="Path 2284" d="M99.938,26.822a10.447,10.447,0,0,1-9.325,4.533c-6.506-.256-17.248-2.941-21.7-3.675-4.923-.812-19.194-2.628-20.193,16.373" fill="none" stroke="#221f20" stroke-miterlimit="10" stroke-width="0.334" stroke-dasharray="1.529 1.529"/>
    <path id="Path_2285" data-name="Path 2285" d="M64.835,45.835c5.789-8.1,24.071-5.186,35.077-4a47.81,47.81,0,0,0,11.771,0c4.334-.61,5.208-2.817,5.741-4.472a4.986,4.986,0,0,0-.853-4.329" fill="none" stroke="#221f20" stroke-miterlimit="10" stroke-width="0.334" stroke-dasharray="1.529 1.529"/>
    <path id="Path_2286" data-name="Path 2286" d="M61.213,3.844c.047.238.542.671,1.045,1.064.082-.058.156-.117.226-.171.355-.277.55-.433.55-.433,3.061-1.93,5.018-1.618,8.243.261l.5-.393L66.064.229S61.045,3,61.213,3.844" fill="#c9c9c9"/>
    <path id="Path_2287" data-name="Path 2287" d="M61.213,3.844c.047.238.542.671,1.045,1.064.082-.058.156-.117.226-.171.355-.277.55-.433.55-.433,3.061-1.93,5.018-1.618,8.243.261l.5-.393L66.064.229S61.045,3,61.213,3.844Z" fill="none" stroke="#221f20" stroke-miterlimit="10" stroke-width="0.39"/>
  </g>
</svg>
