<svg xmlns="http://www.w3.org/2000/svg" width="473.541" height="452.277" viewBox="0 0 473.541 452.277">
  <g id="Group_334" data-name="Group 334" transform="translate(-117.813 -22.951)">
    <g id="Group_323" data-name="Group 323" transform="translate(117.813 86.944)">
      <path id="Path_462" data-name="Path 462" d="M329.445,447.995q-7.464-3.545-15.009-7.885c-97.108-55.926-52.2-122.528-123.717-135.07-68.221-11.963-92.194-88.973-56.356-155.806,11.977-22.337,24.571-37.973,37.483-48.5,18.916,17.073,28.2,33.95,25.822,56.531-3.05,28.98-35.758,38.809-24.571,73.38C184.859,267,238,259.452,254.786,280.128c15.163,18.687,8.643,49.992,21.523,61.858,18.659,17.186,29.746-4.539,48.808,14.914C339.179,371.251,362.483,417.573,329.445,447.995Z" transform="translate(-117.813 -81.992)" fill="#fff"/>
      <path id="Path_463" data-name="Path 463" d="M583.778,306.97c-4.41,28-16.828,57.735-40.165,87.825-39.956,51.514-123.547,98.9-217.338,54.321,33.038-30.421,9.734-76.744-4.333-91.1-19.062-19.452-30.149,2.272-48.808-14.914-12.88-11.863-6.361-43.171-21.523-61.858-16.777-20.676-69.924-13.125-81.69-49.485-11.187-34.569,21.523-44.4,24.571-73.382,2.375-22.581-6.905-39.457-25.822-56.531,60.31-49.235,127.336,12.917,168.782,23.541,48.7,12.482,104.472-5.2,157.3,16.945,7.233,13.867,9.755,31.427,6.316,50.108C495.537,222.544,490.373,294.8,583.778,306.97Z" transform="translate(-114.643 -83.114)" fill="#d3c5b0"/>
      <path id="Path_464" data-name="Path 464" d="M564.195,303.425C470.79,291.252,475.948,219,481.491,188.9c3.438-18.681.913-36.241-6.316-50.108a128.783,128.783,0,0,1,19.21,10.026C537.29,176,575.057,234.441,564.195,303.425Z" transform="translate(-95.06 -79.568)" fill="#fff"/>
      <path id="Path_465" data-name="Path 465" d="M175.408,310.006c-18.642-6.441-38.979.85-25.929,8.643,14.329,8.559,33.216,31.861,37.622,46.775,4.158,14.072,15.592,12.372,18.981-2.712S205.3,320.332,175.408,310.006Z" transform="translate(-116.06 -68.825)" fill="#fff"/>
    </g>
    <g id="Group_324" data-name="Group 324" transform="translate(181.935 31.263)">
      <path id="Path_466" data-name="Path 466" d="M579.26,399.094a65.2,65.2,0,0,1-6.914,10.541c-26.194-21.29-83.095-69.762-108.332-99.853-26.438-31.522-24.066-32.03-25.76-59.824s-2.711-55.757-6.1-66.6-7.288-14.573-18.135-23.049-40.674-35.42-47.791-42.368-8.983-7.288-17.117-7.288c-7.581,0-28.406-2.06-41.358-5.9.762-1.327,3.146-1.408,5.6-1.213,14.914,1.187,41.86,1.017,50.5,1.017,4.067,0,7.118.338,11.524,4.407s37.623,34.4,48.638,43.216,14.236,11.184,14.914,22.709,4.745,59.485,5.762,75.414,15.163,27.574,35.589,51.01C512.488,338.253,556.042,382.146,579.26,399.094Z" transform="translate(-169.841 -26.137)" fill="#ece6de"/>
      <path id="Path_467" data-name="Path 467" d="M517.457,452.092c-10.264,5.39-17.893,10.546-24.846,17.393C470.749,430,412.653,360.672,390.589,341.364c-16.274-14.235-48.131-14.743-62.875-28.98-12.651-12.215-35.929-48.809-43.047-56.943S250.586,246.6,234.5,244.425c-20.864-2.814-43.346-10.97-44.523-19.406,18.128,6.562,38.468,8.039,47.574,8.73-.772-4.633-2.62-8.974-6.879-13.987,19.647.334,63.652.768,63.652.768l-3.389-20.336s-44.089-20.366-72.2-39.318c-29.658-20-44.4-39.488-39.826-45.419a8.048,8.048,0,0,1,2.914-2.31c-8.781,16.769,32.139,31.8,55.892,38.745,34.234,10,52.707,29.658,72.874,50.843s45.249,85.245,53.044,99.65,20.676,20.505,30.336,23.727,13.9,8.472,18.473,15.083,18.3,22.877,42.537,51.181A450.7,450.7,0,0,0,517.457,452.092Z" transform="translate(-178.097 -25.52)" fill="#ece6de"/>
      <path id="Path_468" data-name="Path 468" d="M346.054,197.49l-36.909,9.341c-19.747-20.742-38.164-39.875-71.779-49.693-4.908-1.434-10.549-3.213-16.334-5.283a41.255,41.255,0,0,0-9.871-27.317c13.906,7.887,45.6,25.321,46.194,25.647-.675-.491-43.985-31.936-56.595-42.023C188.05,97.993,181.441,86.3,184.322,81.888c1.071-1.638,3.1-2.362,5.893-2.346-14.443,6.962,6,23.706,20.376,28.446a120.55,120.55,0,0,0-.957-23l.278.117c12.829,5.4,60.131,23.752,60.5,23.893-.213-.284-25.8-34.394-30.5-41.349-8.134-12.032-16.608-31.861-10.849-35.758,6.164-4.17,16.609,4.066,23.388,10.676s30.5,30.167,48.3,52.537c7.181,9.027,22.588,28.131,38.413,47.7A278.263,278.263,0,0,0,346.054,197.49Z" transform="translate(-177.743 -30.765)" fill="#ece6de"/>
      <path id="Path_469" data-name="Path 469" d="M211.368,119.371a41.261,41.261,0,0,1,9.871,27.317c-22.209-7.942-46.523-20.159-39.558-33.462,6.078-2.962,17.4-.851,28.613,5.531l1.077.614Z" transform="translate(-177.946 -25.599)" fill="#fff"/>
      <path id="Path_470" data-name="Path 470" d="M572.736,409.558a115.223,115.223,0,0,1-42.068,33.013c-8.19,3.688-15.085,6.914-21.082,10.061a450.827,450.827,0,0,1-62.469-59.717c-24.234-28.3-37.961-44.568-42.537-51.181s-8.811-11.863-18.472-15.083-22.54-9.322-30.336-23.727-32.877-78.466-53.044-99.65c-.366-.383-.731-.768-1.1-1.15l36.909-9.341c5.957,25.642,14.346,43.622,19.776,57.1,9.081,22.532,18.827,33.718,18.979,33.893-6.946-12.372-13.364-35.739-8.81-54.738,3.9-16.274,15.253-30,20-35.42,4.657-5.318,5.253-10.511-.508-20.507s-15.083-20.166-18.981-27.115-4.745-15.253-16.1-16.607c-8.616-1.03-25.582-5.885-38.791-13.961-.293-.318-.583-.638-.866-.956-4.857-5.514-5.911-8.38-5.09-9.8,12.951,3.845,33.776,5.906,41.357,5.906,8.135,0,10,.338,17.117,7.287s36.945,33.895,47.792,42.368,14.745,12.2,18.133,23.049,4.407,38.808,6.1,66.6-.678,28.3,25.76,59.824C489.646,339.8,546.546,388.267,572.736,409.558Z" transform="translate(-170.231 -26.06)" fill="#ece6de"/>
      <path id="Path_471" data-name="Path 471" d="M236.846,227.433c-9.106-.69-29.446-2.168-47.574-8.73a4.589,4.589,0,0,1-.048-.592c-.169-8.643,20-5.083,36.437-4.746,1.246.026,2.692.053,4.3.081h0C234.226,218.458,236.073,222.8,236.846,227.433Z" transform="translate(-177.388 -19.203)" fill="#fff"/>
      <path id="Path_472" data-name="Path 472" d="M210.5,105.072c-14.372-4.74-34.817-21.486-20.376-28.446h0c4.663.023,11.446,2.111,19.419,5.45A120.459,120.459,0,0,1,210.5,105.072Z" transform="translate(-177.646 -27.845)" fill="#fff"/>
      <path id="Path_473" data-name="Path 473" d="M367.74,228.392c-4.554,19,1.865,42.366,8.81,54.738-.152-.176-9.9-11.362-18.979-33.893-8.665-21.5-24.89-54.489-26.665-111.769,23.384,28.932,47.679,58.894,47.679,58.894,5.426-7.966,4.916-15.761,1.186-22.54s-16.947-27.454-20-33.216-3.559-5.932-13.121-7.871c-9.273-1.885-23.778-7.774-33.293-17.951,13.209,8.075,30.17,12.93,38.791,13.96,11.355,1.355,12.2,9.659,16.1,16.608s13.219,17.125,18.981,27.115,5.165,15.185.508,20.507C382.992,198.394,371.639,212.122,367.74,228.392Z" transform="translate(-169.485 -25.416)" fill="#ece6de"/>
      <path id="Path_474" data-name="Path 474" d="M372.77,273.054h0" transform="translate(-165.702 -15.339)" fill="none" stroke="#00ff12" stroke-miterlimit="10" stroke-width="0.159"/>
    </g>
    <g id="Group_332" data-name="Group 332" transform="translate(210.709 22.951)">
      <g id="Group_325" data-name="Group 325">
        <path id="Path_475" data-name="Path 475" d="M212.551,48.551C242.1,43,335.272,24.094,335.272,24.094c5.35-1.064,11.564,6.658,12.6,12.013l53.954,251.7c1.694,8.473-3.22,13.217-12.184,14.971-29.592,5.79-89.329,17.568-120.514,23.294-5.629,1.033-13.163-3.1-14.314-9.111C243.711,259,205.823,64.313,205.823,64.313,204.8,58.992,203.716,50.209,212.551,48.551Z" transform="translate(-205.149 -22.884)" fill="#ece6de"/>
        <path id="Path_476" data-name="Path 476" d="M217.521,47.6,340.242,23.144a9.847,9.847,0,0,1,11.584,7.727l.01.05,49.606,255.119a9.847,9.847,0,0,1-7.787,11.544l-.051.011L270.272,320.887a9.845,9.845,0,0,1-11.494-7.808L209.783,59.126A9.844,9.844,0,0,1,217.521,47.6Z" transform="translate(-204.865 -22.951)" fill="#fff"/>
      </g>
      <g id="Group_331" data-name="Group 331" transform="translate(12 15.203)">
        <rect id="Rectangle_190" data-name="Rectangle 190" width="131.948" height="29.339" transform="translate(0 25.236) rotate(-11.026)" fill="#570707"/>
        <g id="Group_328" data-name="Group 328" transform="translate(10.162 11.706)">
          <circle id="Ellipse_1213" data-name="Ellipse 1213" cx="8.473" cy="8.473" r="8.473" transform="translate(0 15.863)" fill="#fff"/>
          <g id="Group_327" data-name="Group 327" transform="translate(19.076)">
            <circle id="Ellipse_1214" data-name="Ellipse 1214" cx="2.034" cy="2.034" r="2.034" transform="translate(92.025 5.622)" fill="#fff"/>
            <path id="Rectangle_191" data-name="Rectangle 191" d="M244.948,65.559l32.1-6.255a1.271,1.271,0,0,1,1.49,1.005h0a1.27,1.27,0,0,1-1,1.49l-32.1,6.255a1.271,1.271,0,0,1-1.491-1h0A1.272,1.272,0,0,1,244.948,65.559Z" transform="translate(-243.919 -47.546)" fill="#fff"/>
            <path id="Rectangle_192" data-name="Rectangle 192" d="M301.561,54.528l32.1-6.255a1.271,1.271,0,0,1,1.49,1h0a1.27,1.27,0,0,1-1,1.491l-32.1,6.255a1.272,1.272,0,0,1-1.491-1h0A1.272,1.272,0,0,1,301.561,54.528Z" transform="translate(-240.314 -48.249)" fill="#fff"/>
            <path id="Rectangle_193" data-name="Rectangle 193" d="M246,71.193,263.8,67.729a1.272,1.272,0,0,1,1.491,1.005h0a1.271,1.271,0,0,1-1.005,1.491l-17.808,3.463a1.271,1.271,0,0,1-1.49-1.005h0A1.272,1.272,0,0,1,246,71.193Z" transform="translate(-243.852 -47.01)" fill="#d3c5b0"/>
          </g>
        </g>
        <g id="Group_329" data-name="Group 329" transform="translate(55.87 170.963)">
          <path id="Rectangle_194" data-name="Rectangle 194" d="M274.715,211.882l70.7-13.776a7.118,7.118,0,0,1,8.348,5.626h0a7.118,7.118,0,0,1-5.625,8.348l-70.7,13.776a7.119,7.119,0,0,1-8.349-5.626h0A7.119,7.119,0,0,1,274.715,211.882Z" transform="translate(-268.956 -197.973)" fill="#570707"/>
          <rect id="Rectangle_195" data-name="Rectangle 195" width="50.317" height="2.881" rx="1.354" transform="translate(17.498 17.404) rotate(-11.026)" fill="#570707"/>
        </g>
        <path id="Path_487" data-name="Path 487" d="M283.112,248.382l68.014-13.252a1.44,1.44,0,0,1,1.689,1.138h0a1.439,1.439,0,0,1-1.137,1.689h0L283.663,251.21a1.44,1.44,0,0,1-1.689-1.138h0A1.44,1.44,0,0,1,283.112,248.382Z" transform="translate(-212.259 -24.646)" fill="#d3c5b0"/>
        <g id="Group_330" data-name="Group 330" transform="translate(76.31 147.817)">
          <circle id="Ellipse_1215" data-name="Ellipse 1215" cx="2.457" cy="2.457" r="2.457" transform="translate(0 5.186)" fill="#fff"/>
          <circle id="Ellipse_1216" data-name="Ellipse 1216" cx="2.457" cy="2.457" r="2.457" transform="translate(6.653 3.89)" fill="#fff" opacity="0.3" style="isolation: isolate"/>
          <circle id="Ellipse_1217" data-name="Ellipse 1217" cx="2.457" cy="2.457" r="2.457" transform="translate(13.308 2.593)" fill="#fff" opacity="0.3" style="isolation: isolate"/>
          <circle id="Ellipse_1218" data-name="Ellipse 1218" cx="2.457" cy="2.457" r="2.457" transform="translate(19.961 1.297)" fill="#fff" opacity="0.3" style="isolation: isolate"/>
          <circle id="Ellipse_1219" data-name="Ellipse 1219" cx="2.457" cy="2.457" r="2.457" transform="translate(26.615)" fill="#fff" opacity="0.3" style="isolation: isolate"/>
        </g>
        <rect id="Rectangle_197" data-name="Rectangle 197" width="99.271" height="2.881" rx="1.354" transform="translate(54.138 217.15) rotate(-11.026)" fill="#d3c5b0"/>
      </g>
    </g>
    <line id="Line_31" data-name="Line 31" y1="0.003" transform="translate(381.241 152.125)" fill="none" stroke="#f70d3a" stroke-miterlimit="10" stroke-width="0.159"/>
    <path id="Path_477" data-name="Path 477" d="M365.477,144.4h0l-.066-.106Z" transform="translate(15.765 7.726)" fill="#f87c69"/>
    <path id="Path_478" data-name="Path 478" d="M372.77,273.054h0" transform="translate(16.233 15.924)" fill="none" stroke="#00ff12" stroke-miterlimit="10" stroke-width="0.159"/>
    <path id="Path_479" data-name="Path 479" d="M376.114,183.261c-4.761-7.73-13.661-19.891-15.423-23.218-3.051-5.762-4.746-11.524-13.051-14.744-8.822-3.422-29.487-12.542-36.774-33.726,13.049,11.525,36.429,21.3,45.079,22.032,6.292.532,11.7,11.933,15.253,24.743C373.577,170.212,376.114,183.261,376.114,183.261Z" transform="translate(12.292 5.643)" opacity="0.3" style="isolation: isolate"/>
    <g id="Group_333" data-name="Group 333" transform="translate(319.601 108.579)">
      <path id="Path_480" data-name="Path 480" d="M362.894,114.847c-4.632-3.965-7.079-4.2-13.78-4.2-7.581,0-28.405-2.06-41.357-5.906.762-1.327,3.146-1.407,5.6-1.213,13.483,1.073,37.394,1.034,48.13,1.017Z" transform="translate(-307.507 -103.453)" fill="#ece6de"/>
      <path id="Path_481" data-name="Path 481" d="M369.163,146.922l-.066-.106-.066-.106c-.145-.241-.28-.478-.411-.708-3.9-6.95-4.745-15.253-16.1-16.608-8.616-1.03-25.582-5.884-38.791-13.96-.293-.319-.583-.638-.866-.957-4.857-5.513-5.911-8.38-5.09-9.8,12.951,3.845,33.776,5.905,41.357,5.905,6.7,0,10.169.339,14.572,4.915Z" transform="translate(-307.522 -103.376)" fill="#ff977f" stroke="#ff977f" stroke-miterlimit="10" stroke-width="0.159"/>
      <path id="Path_482" data-name="Path 482" d="M371.977,160.769c-4.761-7.73-10.439-16.839-12.2-20.167-3.051-5.763-3.559-5.932-13.121-7.871-9.273-1.885-23.778-7.774-33.293-17.95,13.209,8.075,30.17,12.93,38.791,13.96,11.355,1.355,12.2,9.659,16.1,16.608.131.232.266.467.411.708l.066.106.066.106Z" transform="translate(-307.15 -102.732)" fill="#ece6de"/>
    </g>
    <path id="Path_483" data-name="Path 483" d="M572.361,409.558a115.223,115.223,0,0,1-42.068,33.013c-8.19,3.688-15.085,6.914-21.082,10.061a450.827,450.827,0,0,1-62.469-59.717c-24.234-28.3-37.961-44.568-42.537-51.181s-8.811-11.863-18.472-15.083-33.048-50.334-17.626-97.616a113.144,113.144,0,0,1,20-35.42c4.656-5.318,5.252-10.511-.508-20.507s-15.083-20.167-18.981-27.115-4.745-15.253-16.1-16.608c-8.617-1.03-25.582-5.884-38.791-13.96-.292-.319-.584-.638-.866-.957-4.857-5.513-5.911-8.38-5.09-9.8,12.951,3.846,33.776,5.906,41.357,5.906,8.135,0,10,.339,17.117,7.287s36.946,33.895,47.792,42.368,14.745,12.2,18.133,23.049,4.407,38.809,6.1,66.6-.678,28.3,25.76,59.824C489.272,339.8,546.172,388.267,572.361,409.558Z" transform="translate(12.078 5.203)" fill="#fff"/>
    <path id="Path_484" data-name="Path 484" d="M378.038,187.159c-5.464,8.237-14.278,32.98-16.819,50.1,5.593-14.235,15.59-38.809,21.521-46.6A22.757,22.757,0,0,0,378.038,187.159Z" transform="translate(15.498 10.455)" fill="#ece6de"/>
    <path id="Path_485" data-name="Path 485" d="M421.847,276.877c-3.051,2.712-14.405,13.9-21.354,39.827" transform="translate(17.998 16.168)" fill="none" stroke="#ece6de" stroke-linecap="round" stroke-miterlimit="10" stroke-width="1.564"/>
    <path id="Path_486" data-name="Path 486" d="M419.857,295.6c-1.549,2.287-9.174,13.3-11.716,26.692" transform="translate(18.485 17.36)" fill="none" stroke="#ece6de" stroke-linecap="round" stroke-miterlimit="10" stroke-width="2.231"/>
  </g>
</svg>
