<svg id="Group_1406" dataName="Group 1406" xmlns="http://www.w3.org/2000/svg" xmlnsXlink="http://www.w3.org/1999/xlink" width="93.853" height="18.165" viewBox="0 0 93.853 18.165">
  <defs>
    <clipPath id="clip-path">
      <rect id="Rectangle_1920" dataName="Rectangle 1920" width="93.853" height="18.165" fill="none"/>
    </clipPath>
  </defs>
  <g id="Group_1405" dataName="Group 1405" clip-path="url(#clip-path)">
    <path id="Path_1057" dataName="Path 1057" d="M5.946,17.885H2.409V9.069H0V6.2H2.409V4.156C2.409,1.736,3.475,0,7,0c.746,0,1.917.15,1.917.15V2.816H7.688c-1.253,0-1.743.381-1.743,1.435V6.2H8.872l-.261,2.87H5.946ZM14.06,5.969c-.052,0-.1,0-.157,0-3.279,0-4.78,2.467-4.78,5.968,0,4.411,1.946,6.176,4.805,6.176a3.455,3.455,0,0,0,3.364-1.973v1.743h3.364V6.2H17.293V8A3.447,3.447,0,0,0,14.06,5.969m.855,2.761c1.377,0,2.2.961,2.2,2.595l0,1.669a2.236,2.236,0,0,1-2.207,2.39c-2.343,0-2.281-2.53-2.281-3.373C12.634,9.176,13.883,8.731,14.915,8.731Zm7.1,3.313c0-1.42-.068-6.067,5.986-6.067a6,6,0,0,1,3.445.773l-.816,2.53A5.324,5.324,0,0,0,28.3,8.721a2.522,2.522,0,0,0-2.771,2.706l0,1.237A2.581,2.581,0,0,0,28.3,15.428a5.8,5.8,0,0,0,2.312-.563l.813,2.477s-.928.778-3.407.778c-5.764,0-6-4.169-6-6.075ZM51.168,5.972c3.279,0,4.8,2.467,4.8,5.968,0,4.411-1.946,6.176-4.805,6.176a3.652,3.652,0,0,1-3.5-1.973v1.743H44.347V.355L47.873.048V7.839c.509-1.363,2.182-1.866,3.3-1.866Zm-.989,2.758a2.291,2.291,0,0,0-2.306,2.595l0,1.669a2.234,2.234,0,0,0,2.31,2.39c2.344,0,2.281-2.53,2.281-3.373,0-2.835-1.249-3.28-2.281-3.28M37.564,5.982c-3.719,0-5.683,2.028-5.683,5.632v.67c0,4.677,2.758,5.882,6.045,5.882a9.459,9.459,0,0,0,4.642-.894l-.66-2.38a10.289,10.289,0,0,1-3.559.724c-1.926,0-2.754-.491-2.966-2.342H42.85V11.364c0-3.909-2.2-5.382-5.286-5.382Zm.09,2.383c1.288,0,2.122.79,2.076,2.621H35.389c.075-1.927.975-2.62,2.265-2.62ZM63,5.966c-3.82,0-5.83,2.152-5.83,6.01,0,5.292,3.466,6.144,5.837,6.144,3.47,0,5.779-1.868,5.779-6.1,0-4.4-2.6-6.058-5.785-6.058M62.955,8.74c1.68,0,2.345,1.257,2.345,2.688v1.23c0,1.733-.931,2.736-2.351,2.736-1.328,0-2.262-.938-2.262-2.736v-1.23c0-1.918,1.111-2.688,2.268-2.688M75.814,5.966c-3.819,0-5.83,2.152-5.83,6.01,0,5.292,3.466,6.144,5.837,6.144,3.47,0,5.779-1.868,5.779-6.1,0-4.4-2.6-6.058-5.785-6.058M75.766,8.74c1.68,0,2.345,1.257,2.345,2.688v1.23c0,1.733-.931,2.736-2.351,2.736-1.328,0-2.262-.938-2.262-2.736v-1.23c0-1.918,1.111-2.688,2.268-2.688m7.166,9.145V.355L86.469.048V11.8l3.509-5.6h3.735L90.052,12l3.8,5.888H90.108l-3.639-5.717v5.717Z" fill="#1877f2"/>
  </g>
</svg>
