<svg id="Group_1404" dataName="Group 1404" xmlns="http://www.w3.org/2000/svg" xmlnsXlink="http://www.w3.org/1999/xlink" width="71.213" height="23.442" viewBox="0 0 71.213 23.442">
  <defs>
    <clipPath id="clip-path">
      <rect id="Rectangle_1915" dataName="Rectangle 1915" width="71.213" height="23.442" fill="none"/>
    </clipPath>
  </defs>
  <g id="Group_1403" dataName="Group 1403" transform="translate(0 0)" clip-path="url(#clip-path)">
    <path id="Path_1052" dataName="Path 1052" d="M82.643,30.388a5.876,5.876,0,1,1-5.876-5.858,5.786,5.786,0,0,1,5.876,5.858m-2.572,0a3.312,3.312,0,1,0-6.608,0,3.312,3.312,0,1,0,6.608,0" transform="translate(-52.168 -18.052)" fill="#ea4335"/>
    <path id="Path_1053" dataName="Path 1053" d="M130.643,30.388a5.876,5.876,0,1,1-5.876-5.858,5.786,5.786,0,0,1,5.876,5.858m-2.572,0a3.312,3.312,0,1,0-6.608,0,3.312,3.312,0,1,0,6.608,0" transform="translate(-87.491 -18.052)" fill="#fbbc05"/>
    <path id="Path_1054" dataName="Path 1054" d="M178.1,24.884V35.4c0,4.326-2.551,6.093-5.567,6.093a5.578,5.578,0,0,1-5.192-3.452l2.24-.932a3.236,3.236,0,0,0,2.95,2.078c1.931,0,3.127-1.191,3.127-3.433v-.842h-.09a3.988,3.988,0,0,1-3.085,1.331,5.862,5.862,0,0,1,0-11.713,4.059,4.059,0,0,1,3.085,1.31h.09v-.953H178.1Zm-2.261,5.525a3.3,3.3,0,0,0-3.127-3.571,3.387,3.387,0,0,0-3.262,3.571,3.362,3.362,0,0,0,3.262,3.528,3.274,3.274,0,0,0,3.127-3.528" transform="translate(-122.799 -18.052)" fill="#4285f4"/>
    <rect id="Rectangle_1914" dataName="Rectangle 1914" width="2.509" height="17.167" transform="translate(56.819 0.668)" fill="#34a853"/>
    <path id="Path_1055" dataName="Path 1055" d="M237.427,32.308l2,1.331a5.831,5.831,0,0,1-4.881,2.6,5.731,5.731,0,0,1-5.813-5.858,5.567,5.567,0,0,1,5.525-5.858,5.44,5.44,0,0,1,5.013,3.726l.267.666L231.7,32.155a2.981,2.981,0,0,0,2.839,1.775A3.343,3.343,0,0,0,237.427,32.308ZM231.281,30.2l5.235-2.174a2.268,2.268,0,0,0-2.174-1.241,3.213,3.213,0,0,0-3.061,3.415" transform="translate(-168.322 -18.044)" fill="#ea4335"/>
    <path id="Path_1056" dataName="Path 1056" d="M9.225,10.812V8.327H17.6a8.235,8.235,0,0,1,.124,1.5,8.207,8.207,0,0,1-2.152,5.813,8.317,8.317,0,0,1-6.344,2.551A9.223,9.223,0,0,1,0,9.1,9.223,9.223,0,0,1,9.228,0a8.667,8.667,0,0,1,6.233,2.506L13.707,4.26A6.335,6.335,0,0,0,9.225,2.485,6.525,6.525,0,0,0,2.7,9.1a6.525,6.525,0,0,0,6.523,6.611,6.085,6.085,0,0,0,4.593-1.82,5.151,5.151,0,0,0,1.347-3.077Z" transform="translate(0 0)" fill="#4285f4"/>
  </g>
</svg>
