<svg xmlns="http://www.w3.org/2000/svg" xmlns:xlink="http://www.w3.org/1999/xlink" width="161.006" height="46.703" viewBox="0 0 161.006 46.703">
  <defs>
    <clipPath id="clip-path">
      <rect id="Rectangle_1985" data-name="Rectangle 1985" width="161.006" height="46.703" transform="translate(0 0)" fill="none"/>
    </clipPath>
    <clipPath id="clip-path-2">
      <rect id="Rectangle_1986" data-name="Rectangle 1986" width="54.963" height="38.864" transform="translate(105.11 6.649) rotate(-1.401)" fill="none"/>
    </clipPath>
  </defs>
  <g id="Group_1443" data-name="Group 1443" transform="translate(0 0)">
    <g id="Group_1444" data-name="Group 1444">
      <g id="Group_1443-2" data-name="Group 1443" clip-path="url(#clip-path)">
        <path id="Path_4324" data-name="Path 4324" d="M2.942,46.508H38.879l.27-6.968s1.506.133,4.954.524c3.891.442,10.256,1.208,19.715,2.475,10.561,1.42,36.469,4.88,53.384,3.066,14.393-1.549,33.759-4.552,34.279-4.692.458-.125.114-2.256-.062-2.886-.172-.61-1.3-.927-1.3-.927L3.247,34.907Z" fill="#2e160e"/>
        <path id="Path_4325" data-name="Path 4325" d="M2.942,46.508H38.879l.27-6.968s1.506.133,4.954.524c3.891.442,10.256,1.208,19.715,2.475,10.561,1.42,36.469,4.88,53.384,3.066,14.393-1.549,33.759-4.552,34.279-4.692.458-.125.114-2.256-.062-2.886-.172-.61-1.3-.927-1.3-.927L3.247,34.907Z" fill="none" stroke="#221f20" stroke-miterlimit="10" stroke-width="0.391"/>
        <path id="Path_4326" data-name="Path 4326" d="M3.857,7.91c.141-.317.305-.745.317-.772l.148-.185C16.3,10.813,33.014,15.2,47.95,18.4c5.6,1.2,13.642,3.57,18.96,5.138,1.76.516,3.281.966,4.336,1.259a.478.478,0,0,0,.149.02.639.639,0,0,0,.571-.4.592.592,0,0,0-.2-.759c-.277-.176-.844-.5-1.388-.809-.41-.235-.8-.458-1.012-.587l-1.244-.747c-2.729-1.626-7.3-4.352-6.631-5.622A64.576,64.576,0,0,1,67.2,7.536C68.275,6.105,70.887,2.66,72.267.764c.023-.028.043-.055.062-.082L72.3.6a52.968,52.968,0,0,1,5.024,3.871C79.653,6.32,80.959,7.38,82.875,8.8c16.962,12.129,27.249,16.938,35.894,18.041,8.419,1.079,17.423,2.377,24.2,3.441,4,.626,5.685,1.9,6.533,3.417a5.217,5.217,0,0,1,.614,3.4,198.037,198.037,0,0,1-42.4,5.889c-17.857.465-61.7-6.21-74.2-7.328-11.578-1.036-30.268-.754-30.268-.754-6.717-9.1-.449-24.6.935-27.762" fill="#fff"/>
        <path id="Path_4327" data-name="Path 4327" d="M3.857,7.91c.141-.317.305-.745.317-.772l.148-.185C16.3,10.813,33.014,15.2,47.95,18.4c5.6,1.2,13.642,3.57,18.96,5.138,1.76.516,3.281.966,4.336,1.259a.478.478,0,0,0,.149.02.639.639,0,0,0,.571-.4.592.592,0,0,0-.2-.759c-.277-.176-.844-.5-1.388-.809-.41-.235-.8-.458-1.012-.587l-1.244-.747c-2.729-1.626-7.3-4.352-6.631-5.622A64.576,64.576,0,0,1,67.2,7.536C68.275,6.105,70.887,2.66,72.267.764c.023-.028.043-.055.062-.082L72.3.6a52.968,52.968,0,0,1,5.024,3.871C79.653,6.32,80.959,7.38,82.875,8.8c16.962,12.129,27.249,16.938,35.894,18.041,8.419,1.079,17.423,2.377,24.2,3.441,4,.626,5.685,1.9,6.533,3.417a5.217,5.217,0,0,1,.614,3.4,198.037,198.037,0,0,1-42.4,5.889c-17.857.465-61.7-6.21-74.2-7.328-11.578-1.036-30.268-.754-30.268-.754-6.717-9.1-.449-24.6.935-27.762" fill="none" stroke="#221f20" stroke-miterlimit="10" stroke-width="0.391"/>
        <path id="Path_4328" data-name="Path 4328" d="M38.879,46.508,44.1,40.064c-3.449-.391-4.954-.524-4.954-.524Z" fill="#160602"/>
        <path id="Path_4329" data-name="Path 4329" d="M38.879,46.508,44.1,40.064c-3.449-.391-4.954-.524-4.954-.524Z" fill="none" stroke="#2e160e" stroke-linejoin="round" stroke-width="0.391"/>
        <path id="Path_4330" data-name="Path 4330" d="M115.418,26.406c.79.627,3.032,2.957,2.576,4.369-.287.889-1.666,2-6.6,2.23a89.328,89.328,0,0,1-12.24-.79c-12.781-1.35-28.688-3.03-34.33,7.243" fill="none" stroke="#221f20" stroke-linecap="round" stroke-miterlimit="10" stroke-width="0.669"/>
        <path id="Path_4331" data-name="Path 4331" d="M65.508,39.834c5.391-9.817,21.01-8.167,33.562-6.841a90.4,90.4,0,0,0,12.358.793c4.385-.206,6.776-1.113,7.31-2.772.714-2.216-1.9-4.283-2.037-4.388" fill="none" stroke="#221f20" stroke-miterlimit="10" stroke-width="0.335" stroke-dasharray="1.533 1.533"/>
        <path id="Path_4332" data-name="Path 4332" d="M69.88,27.726a.93.93,0,0,0,.286-1.138L59.313,23.861a.735.735,0,0,0-.32.5,1.165,1.165,0,0,0,.034.635Z" fill="none" stroke="#221f20" stroke-linecap="round" stroke-miterlimit="10" stroke-width="0.669"/>
        <path id="Path_4333" data-name="Path 4333" d="M45.924,21.772a.73.73,0,0,0,.339-.495c.114-.454-.053-.642-.053-.642L35.357,17.907a.735.735,0,0,0-.32.5,1.165,1.165,0,0,0,.034.635Z" fill="none" stroke="#221f20" stroke-linecap="round" stroke-miterlimit="10" stroke-width="0.669"/>
        <path id="Path_4334" data-name="Path 4334" d="M81.927,9.336l-3.389,4.891a.733.733,0,0,0,.357.477,1.17,1.17,0,0,0,.607.191l3.374-4.87" fill="none" stroke="#221f20" stroke-miterlimit="10" stroke-width="0.391"/>
        <path id="Path_4335" data-name="Path 4335" d="M87.354,12.588a3.194,3.194,0,0,1-2.318,1.369l-1.215-2.333a2.348,2.348,0,0,0,1.757-1.349Z" fill="none" stroke="#221f20" stroke-miterlimit="10" stroke-width="0.391"/>
        <path id="Path_4336" data-name="Path 4336" d="M87.266,12.8l7.2,6.833-.607.466L86.811,13.14" fill="none" stroke="#221f20" stroke-miterlimit="10" stroke-width="0.391"/>
        <path id="Path_4337" data-name="Path 4337" d="M86.991,13.318l6.394,7.151-.853.655-5.96-7.789" fill="none" stroke="#221f20" stroke-miterlimit="10" stroke-width="0.391"/>
        <path id="Path_4338" data-name="Path 4338" d="M87.2,14.183l4.817,7.129-.956.735L85.972,13.8" fill="none" stroke="#221f20" stroke-miterlimit="10" stroke-width="0.391"/>
        <path id="Path_4339" data-name="Path 4339" d="M85.37,13.916l4.524,8.534,1.04-.305" fill="none" stroke="#221f20" stroke-miterlimit="10" stroke-width="0.391"/>
        <path id="Path_4340" data-name="Path 4340" d="M88.34,19.518l.93,2.976-.882.456-3.352-8.994" fill="none" stroke="#221f20" stroke-miterlimit="10" stroke-width="0.391"/>
        <path id="Path_4341" data-name="Path 4341" d="M85.294,10.493s-5.919-5.036-4.952,1.131c0,0,0-.869.366-1.084s.165-3.128,3.6.707" fill="none" stroke="#221f20" stroke-miterlimit="10" stroke-width="0.391"/>
        <path id="Path_4342" data-name="Path 4342" d="M85.578,10.275s-.064-.511-.74-.133" fill="none" stroke="#221f20" stroke-miterlimit="10" stroke-width="0.391"/>
        <path id="Path_4343" data-name="Path 4343" d="M83.864,10.89s-.461.459-.044.734" fill="none" stroke="#221f20" stroke-miterlimit="10" stroke-width="0.391"/>
        <path id="Path_4344" data-name="Path 4344" d="M83.646,10.543s-1.252,1.505-2.077,1.37" fill="none" stroke="#221f20" stroke-miterlimit="10" stroke-width="0.391"/>
      </g>
    </g>
    <g id="Group_1446" data-name="Group 1446">
      <g id="Group_1445" data-name="Group 1445" clip-path="url(#clip-path-2)">
        <path id="Path_4345" data-name="Path 4345" d="M126.187,28.867a.188.188,0,1,1-.256-.11.2.2,0,0,1,.256.11" fill="#221f20"/>
        <path id="Path_4346" data-name="Path 4346" d="M126.626,30.262a.194.194,0,0,1-.26-.094.2.2,0,0,1,.069-.27.2.2,0,0,1,.261.094.2.2,0,0,1-.07.27" fill="#221f20"/>
        <path id="Path_4347" data-name="Path 4347" d="M126.874,31.292a.2.2,0,0,1,.086-.264.2.2,0,0,1,.255.11" fill="#221f20"/>
        <path id="Path_4348" data-name="Path 4348" d="M127.644,32.537a.2.2,0,0,1-.257-.111.188.188,0,1,1,.257.111" fill="#221f20"/>
        <path id="Path_4349" data-name="Path 4349" d="M128.244,33.41a.2.2,0,0,1-.086.264.2.2,0,0,1-.256-.111.188.188,0,1,1,.342-.153" fill="#221f20"/>
        <path id="Path_4350" data-name="Path 4350" d="M128.682,34.805a.2.2,0,0,1-.259-.1.188.188,0,1,1,.259.1" fill="#221f20"/>
        <path id="Path_4351" data-name="Path 4351" d="M128.845,35.837a.2.2,0,0,1,.123-.246.193.193,0,0,1,.238.148" fill="#221f20"/>
        <path id="Path_4352" data-name="Path 4352" d="M127.215,31.139a.2.2,0,0,1-.086.264.2.2,0,0,1-.256-.111" fill="#221f20"/>
        <path id="Path_4353" data-name="Path 4353" d="M129.1,37.222a.207.207,0,0,1,.053-.407.205.205,0,0,1-.053.407" fill="#221f20"/>
        <path id="Path_4354" data-name="Path 4354" d="M128.78,38.263a.211.211,0,0,1-.144.078.168.168,0,0,1-.137-.047.2.2,0,0,1,0-.273.219.219,0,0,1,.127-.072.192.192,0,0,1,.142.031.17.17,0,0,1,.07.128.214.214,0,0,1-.054.155" fill="#221f20"/>
        <path id="Path_4355" data-name="Path 4355" d="M127.421,38.881a.187.187,0,0,1,.026-.141.208.208,0,0,1,.363.013.161.161,0,0,1,0,.145.211.211,0,0,1-.126.106.229.229,0,0,1-.168-.008.168.168,0,0,1-.093-.115" fill="#221f20"/>
        <path id="Path_4356" data-name="Path 4356" d="M126.456,38.6a.2.2,0,0,1,.134.235.19.19,0,0,1-.259.118" fill="#221f20"/>
        <path id="Path_4357" data-name="Path 4357" d="M129.206,35.739a.193.193,0,0,1-.131.248.2.2,0,0,1-.23-.15" fill="#221f20"/>
        <path id="Path_4358" data-name="Path 4358" d="M125.354,37.825a.2.2,0,0,1,.145,0,.219.219,0,0,1,.109.091.176.176,0,0,1,.023.069.188.188,0,0,1,0,.071.2.2,0,0,1-.074.125.157.157,0,0,1-.142.027.226.226,0,0,1-.075-.036.28.28,0,0,1-.057-.069.209.209,0,0,1-.025-.166.163.163,0,0,1,.095-.111" fill="#221f20"/>
        <path id="Path_4359" data-name="Path 4359" d="M125.049,36.773a.26.26,0,0,1,.03-.085.2.2,0,0,1,.057-.061.16.16,0,0,1,.143-.025.206.206,0,0,1,.112.092.2.2,0,0,1,.025.066.174.174,0,0,1,0,.072.218.218,0,0,1-.07.124.2.2,0,0,1-.135.051.163.163,0,0,1-.129-.07.214.214,0,0,1-.036-.164" fill="#221f20"/>
        <path id="Path_4360" data-name="Path 4360" d="M126.2,35.863a.193.193,0,0,1-.031.14.212.212,0,0,1-.109.087.2.2,0,0,1-.136,0,.215.215,0,0,1-.111-.092.158.158,0,0,1-.007-.145.219.219,0,0,1,.131-.113.232.232,0,0,1,.173.009.163.163,0,0,1,.09.118" fill="#221f20"/>
        <path id="Path_4361" data-name="Path 4361" d="M126.933,36.21a.01.01,0,0,0,.006.012l.009-.007a.362.362,0,0,0,.01-.047.3.3,0,0,1,.044-.134.135.135,0,0,1,.137-.059.186.186,0,0,1,.1.05.381.381,0,0,1,.045.062.346.346,0,0,1,.026.091" fill="#221f20"/>
        <path id="Path_4362" data-name="Path 4362" d="M126.33,38.952a.224.224,0,0,1-.126-.108.172.172,0,0,1,0-.147.2.2,0,0,1,.108-.1.212.212,0,0,1,.145,0" fill="#221f20"/>
        <path id="Path_4363" data-name="Path 4363" d="M128.2,28.764a.188.188,0,1,1-.256-.1.2.2,0,0,1,.256.1" fill="#221f20"/>
        <path id="Path_4364" data-name="Path 4364" d="M128.663,30.131a.193.193,0,0,1-.261-.085.2.2,0,0,1,.065-.27.194.194,0,0,1,.261.085.2.2,0,0,1-.065.27" fill="#221f20"/>
        <path id="Path_4365" data-name="Path 4365" d="M128.928,31.142a.188.188,0,1,1,.337-.162" fill="#221f20"/>
        <path id="Path_4366" data-name="Path 4366" d="M129.716,32.352a.2.2,0,1,1,.081-.264.195.195,0,0,1-.081.264" fill="#221f20"/>
        <path id="Path_4367" data-name="Path 4367" d="M130.329,33.2a.188.188,0,1,1-.256-.1.2.2,0,0,1,.256.1" fill="#221f20"/>
        <path id="Path_4368" data-name="Path 4368" d="M130.791,34.564a.193.193,0,0,1-.261-.085.2.2,0,0,1,.065-.27.194.194,0,0,1,.261.085.2.2,0,0,1-.065.27" fill="#221f20"/>
        <path id="Path_4369" data-name="Path 4369" d="M131.055,35.576a.188.188,0,1,1,.337-.162" fill="#221f20"/>
        <path id="Path_4370" data-name="Path 4370" d="M129.266,30.981a.188.188,0,1,1-.338.162" fill="#221f20"/>
        <path id="Path_4371" data-name="Path 4371" d="M126.963,37.48a.336.336,0,1,1,.475-.012.337.337,0,0,1-.475.012" fill="#221f20"/>
        <path id="Path_4372" data-name="Path 4372" d="M131.162,29.257A.161.161,0,1,1,131.35,29a.162.162,0,1,1-.188.258" fill="#221f20"/>
        <path id="Path_4373" data-name="Path 4373" d="M130.758,30a.175.175,0,0,1-.248-.022.162.162,0,1,1,.228-.225.174.174,0,0,1,.02.247" fill="#221f20"/>
        <path id="Path_4374" data-name="Path 4374" d="M129.77,30.6a.181.181,0,0,1,0-.247.173.173,0,0,1,.239.036.177.177,0,0,1,0,.25.169.169,0,0,1-.242-.039" fill="#221f20"/>
        <path id="Path_4375" data-name="Path 4375" d="M128.994,30.857a.181.181,0,0,1,.225.089.172.172,0,0,1-.055.245" fill="#221f20"/>
        <path id="Path_4376" data-name="Path 4376" d="M134.14,29.943a.336.336,0,1,0,.475-.012.335.335,0,0,0-.475.012" fill="#221f20"/>
        <path id="Path_4377" data-name="Path 4377" d="M138.432,32a.336.336,0,1,0,.431.2.336.336,0,0,0-.431-.2" fill="#221f20"/>
        <path id="Path_4378" data-name="Path 4378" d="M132.173,34.474a.213.213,0,1,1-.283,0,.2.2,0,0,1,.283,0" fill="#221f20"/>
        <path id="Path_4379" data-name="Path 4379" d="M132.868,33.63a.189.189,0,1,1-.043.28.2.2,0,0,1,.043-.28" fill="#221f20"/>
        <path id="Path_4380" data-name="Path 4380" d="M134.159,32.846a.2.2,0,0,1-.041.277.2.2,0,0,1-.284-.006.2.2,0,0,1,.04-.278.2.2,0,0,1,.285.007" fill="#221f20"/>
        <path id="Path_4381" data-name="Path 4381" d="M135.15,32.4a.2.2,0,0,1-.279-.041.2.2,0,0,1,.076-.273" fill="#221f20"/>
        <path id="Path_4382" data-name="Path 4382" d="M130.952,35.367a.2.2,0,0,1,.284-.018.2.2,0,0,1-.017.28" fill="#221f20"/>
        <path id="Path_4383" data-name="Path 4383" d="M136.346,31.507a.213.213,0,0,1-.376.193.213.213,0,0,1,.376-.193" fill="#221f20"/>
        <path id="Path_4384" data-name="Path 4384" d="M137.279,30.921a.2.2,0,0,1,.26.116.214.214,0,0,1-.4.131.2.2,0,0,1,.142-.247" fill="#221f20"/>
        <path id="Path_4385" data-name="Path 4385" d="M138.808,30.868a.2.2,0,0,1-.2.192.209.209,0,0,1-.223-.167.191.191,0,0,1,.2-.206.225.225,0,0,1,.161.049.17.17,0,0,1,.065.132" fill="#221f20"/>
        <path id="Path_4386" data-name="Path 4386" d="M139.716,31.366a.212.212,0,0,1-.093-.118.185.185,0,0,1,.009-.144.167.167,0,0,1,.119-.088.235.235,0,0,1,.165.034" fill="#221f20"/>
        <path id="Path_4387" data-name="Path 4387" d="M134.948,32.09a.189.189,0,1,1,.2.315" fill="#221f20"/>
        <path id="Path_4388" data-name="Path 4388" d="M140.578,32.419a.206.206,0,0,1-.135-.054.215.215,0,0,1-.047-.262.2.2,0,0,1,.107-.1.159.159,0,0,1,.146.019.242.242,0,0,1,.059.326.159.159,0,0,1-.13.069" fill="#221f20"/>
        <path id="Path_4389" data-name="Path 4389" d="M140.284,33.51a.237.237,0,0,1-.164.065.161.161,0,0,1-.129-.073.192.192,0,0,1-.027-.141.213.213,0,0,1,.066-.126.218.218,0,0,1,.131-.056.2.2,0,0,1,.14.038.159.159,0,0,1,.06.135.227.227,0,0,1-.077.158" fill="#221f20"/>
        <path id="Path_4390" data-name="Path 4390" d="M138.775,33.524a.2.2,0,0,1,.114-.086.215.215,0,0,1,.069-.013.283.283,0,0,1,.069.011.2.2,0,0,1,.061.034.234.234,0,0,1,.048.051.22.22,0,0,1,.036.14.157.157,0,0,1-.083.121.222.222,0,0,1-.177.01.237.237,0,0,1-.141-.118.154.154,0,0,1,0-.15" fill="#221f20"/>
        <path id="Path_4391" data-name="Path 4391" d="M138.619,32.588a.21.21,0,0,1-.2.186c-.108,0-.184-.1-.173-.237" fill="#221f20"/>
        <path id="Path_4392" data-name="Path 4392" d="M139.916,31.05a.24.24,0,0,1,.1.136.167.167,0,0,1-.03.144.185.185,0,0,1-.127.069.216.216,0,0,1-.145-.033" fill="#221f20"/>
        <path id="Path_4393" data-name="Path 4393" d="M133.161,31.084a.22.22,0,1,1,.286.022.2.2,0,0,1-.286-.022" fill="#221f20"/>
        <path id="Path_4394" data-name="Path 4394" d="M132.385,31.888a.189.189,0,1,1,.064-.28.2.2,0,0,1-.064.28" fill="#221f20"/>
        <path id="Path_4395" data-name="Path 4395" d="M131.044,32.657a.2.2,0,0,1,.046-.28.208.208,0,0,1,.29,0,.2.2,0,0,1-.047.28.207.207,0,0,1-.289,0" fill="#221f20"/>
        <path id="Path_4396" data-name="Path 4396" d="M130.039,33.149a.189.189,0,1,1,.222.3" fill="#221f20"/>
        <path id="Path_4397" data-name="Path 4397" d="M134.508,30.325a.189.189,0,1,1-.222-.3" fill="#221f20"/>
        <path id="Path_4398" data-name="Path 4398" d="M133.1,29.264a.169.169,0,0,1-.186.2.209.209,0,0,1-.1-.028.2.2,0,0,1-.061-.061.15.15,0,0,1,0-.145.275.275,0,0,1,.094-.1.187.187,0,0,1,.047-.028c.014,0,.026-.012.038-.009a.217.217,0,0,1,.168.171" fill="#221f20"/>
        <path id="Path_4399" data-name="Path 4399" d="M133.837,28.742a.184.184,0,0,1,.246.08.179.179,0,1,1-.315.169.185.185,0,0,1,.069-.249" fill="#221f20"/>
      </g>
    </g>
    <g id="Group_1448" data-name="Group 1448">
      <g id="Group_1447" data-name="Group 1447" clip-path="url(#clip-path)">
        <path id="Path_4400" data-name="Path 4400" d="M86.614,32.471a.432.432,0,1,0,.321.519.431.431,0,0,0-.321-.519" fill="#221f20"/>
        <path id="Path_4401" data-name="Path 4401" d="M87.241,33.456a.238.238,0,1,0,.177.286.238.238,0,0,0-.177-.286" fill="#221f20"/>
        <path id="Path_4402" data-name="Path 4402" d="M87.423,32.295a.238.238,0,1,0,.272.2.238.238,0,0,0-.272-.2" fill="#221f20"/>
        <path id="Path_4403" data-name="Path 4403" d="M84.514,32.457a.432.432,0,1,0,.323.518.431.431,0,0,0-.323-.518" fill="#221f20"/>
        <path id="Path_4404" data-name="Path 4404" d="M85.143,33.44a.238.238,0,1,0,.178.286.238.238,0,0,0-.178-.286" fill="#221f20"/>
        <path id="Path_4405" data-name="Path 4405" d="M85.322,32.278a.238.238,0,1,0,.272.2.238.238,0,0,0-.272-.2" fill="#221f20"/>
        <path id="Path_4406" data-name="Path 4406" d="M82.314,32.83a.432.432,0,1,0,.409.453.432.432,0,0,0-.409-.453" fill="#221f20"/>
        <path id="Path_4407" data-name="Path 4407" d="M83.106,33.687a.238.238,0,1,0,.226.25.238.238,0,0,0-.226-.25" fill="#221f20"/>
        <path id="Path_4408" data-name="Path 4408" d="M83.078,32.512a.238.238,0,1,0,.3.148.239.239,0,0,0-.3-.148" fill="#221f20"/>
        <path id="Path_4409" data-name="Path 4409" d="M80.328,33.014a.432.432,0,1,0,.525.312.432.432,0,0,0-.525-.312" fill="#221f20"/>
        <path id="Path_4410" data-name="Path 4410" d="M81.339,33.6a.238.238,0,1,0,.29.172.237.237,0,0,0-.29-.172" fill="#221f20"/>
        <path id="Path_4411" data-name="Path 4411" d="M80.964,32.484a.238.238,0,1,0,.333.051.238.238,0,0,0-.333-.051" fill="#221f20"/>
        <path id="Path_4412" data-name="Path 4412" d="M78.472,33.195a.432.432,0,1,0,.525.312.432.432,0,0,0-.525-.312" fill="#221f20"/>
        <path id="Path_4413" data-name="Path 4413" d="M79.482,33.779a.238.238,0,1,0,.29.172.237.237,0,0,0-.29-.172" fill="#221f20"/>
        <path id="Path_4414" data-name="Path 4414" d="M79.107,32.665a.238.238,0,1,0,.333.051.238.238,0,0,0-.333-.051" fill="#221f20"/>
        <path id="Path_4415" data-name="Path 4415" d="M76.6,33.454a.432.432,0,1,0,.525.312.432.432,0,0,0-.525-.312" fill="#221f20"/>
        <path id="Path_4416" data-name="Path 4416" d="M77.606,34.038a.238.238,0,1,0,.29.172.237.237,0,0,0-.29-.172" fill="#221f20"/>
        <path id="Path_4417" data-name="Path 4417" d="M77.231,32.924a.238.238,0,1,0,.333.051.238.238,0,0,0-.333-.051" fill="#221f20"/>
        <path id="Path_4418" data-name="Path 4418" d="M74.818,34.057a.432.432,0,1,0,.564.235.431.431,0,0,0-.564-.235" fill="#221f20"/>
        <path id="Path_4419" data-name="Path 4419" d="M75.9,34.493a.238.238,0,1,0,.311.13.238.238,0,0,0-.311-.13" fill="#221f20"/>
        <path id="Path_4420" data-name="Path 4420" d="M75.372,33.443a.238.238,0,1,0,.337,0,.238.238,0,0,0-.337,0" fill="#221f20"/>
        <path id="Path_4421" data-name="Path 4421" d="M73.179,35.037a.432.432,0,1,0,.61.014.432.432,0,0,0-.61-.014" fill="#221f20"/>
        <path id="Path_4422" data-name="Path 4422" d="M74.347,35.048a.238.238,0,1,0,.337.007.238.238,0,0,0-.337-.007" fill="#221f20"/>
        <path id="Path_4423" data-name="Path 4423" d="M73.472,34.263a.238.238,0,1,0,.315-.119.238.238,0,0,0-.315.119" fill="#221f20"/>
        <path id="Path_4424" data-name="Path 4424" d="M71.241,35.587a.432.432,0,1,0,.608-.054.431.431,0,0,0-.608.054" fill="#221f20"/>
        <path id="Path_4425" data-name="Path 4425" d="M72.4,35.469a.239.239,0,1,0,.336-.03.239.239,0,0,0-.336.03" fill="#221f20"/>
        <path id="Path_4426" data-name="Path 4426" d="M71.446,34.785a.238.238,0,1,0,.3-.153.238.238,0,0,0-.3.153" fill="#221f20"/>
        <path id="Path_4427" data-name="Path 4427" d="M69.489,36.425a.432.432,0,1,0,.608-.054.431.431,0,0,0-.608.054" fill="#221f20"/>
        <path id="Path_4428" data-name="Path 4428" d="M70.65,36.306a.239.239,0,1,0,.336-.03.239.239,0,0,0-.336.03" fill="#221f20"/>
        <path id="Path_4429" data-name="Path 4429" d="M69.694,35.623a.238.238,0,1,0,.3-.153.238.238,0,0,0-.3.153" fill="#221f20"/>
        <path id="Path_4430" data-name="Path 4430" d="M68,38.167A.432.432,0,1,0,68.584,38a.431.431,0,0,0-.588.164" fill="#221f20"/>
        <path id="Path_4431" data-name="Path 4431" d="M69.117,37.838a.238.238,0,1,0,.325-.091.238.238,0,0,0-.325.091" fill="#221f20"/>
        <path id="Path_4432" data-name="Path 4432" d="M68.052,37.341a.239.239,0,1,0,.267-.2.238.238,0,0,0-.267.2" fill="#221f20"/>
        <path id="Path_4433" data-name="Path 4433" d="M92.615,32.981a.432.432,0,1,0,.259.553.432.432,0,0,0-.259-.553" fill="#221f20"/>
        <path id="Path_4434" data-name="Path 4434" d="M93.123,34.032a.238.238,0,1,0,.143.305.238.238,0,0,0-.143-.305" fill="#221f20"/>
        <path id="Path_4435" data-name="Path 4435" d="M93.439,32.9a.238.238,0,1,0,.247.23.239.239,0,0,0-.247-.23" fill="#221f20"/>
        <path id="Path_4436" data-name="Path 4436" d="M90.531,32.722a.432.432,0,1,0,.26.552.431.431,0,0,0-.26-.552" fill="#221f20"/>
        <path id="Path_4437" data-name="Path 4437" d="M91.041,33.772a.238.238,0,1,0,.143.305.239.239,0,0,0-.143-.305" fill="#221f20"/>
        <path id="Path_4438" data-name="Path 4438" d="M91.354,32.639a.238.238,0,1,0,.247.229.238.238,0,0,0-.247-.229" fill="#221f20"/>
        <path id="Path_4439" data-name="Path 4439" d="M88.3,32.836a.432.432,0,1,0,.353.5.432.432,0,0,0-.353-.5" fill="#221f20"/>
        <path id="Path_4440" data-name="Path 4440" d="M88.99,33.779a.238.238,0,1,0,.195.275.238.238,0,0,0-.195-.275" fill="#221f20"/>
        <path id="Path_4441" data-name="Path 4441" d="M89.1,32.609a.239.239,0,1,0,.284.182.238.238,0,0,0-.284-.182" fill="#221f20"/>
        <path id="Path_4442" data-name="Path 4442" d="M98.764,33.663a.432.432,0,1,0,.234.564.432.432,0,0,0-.234-.564" fill="#221f20"/>
        <path id="Path_4443" data-name="Path 4443" d="M99.225,34.735a.238.238,0,1,0,.129.311.238.238,0,0,0-.129-.311" fill="#221f20"/>
        <path id="Path_4444" data-name="Path 4444" d="M99.59,33.619a.239.239,0,1,0,.236.24.238.238,0,0,0-.236-.24" fill="#221f20"/>
        <path id="Path_4445" data-name="Path 4445" d="M96.693,33.312a.432.432,0,1,0,.235.563.431.431,0,0,0-.235-.563" fill="#221f20"/>
        <path id="Path_4446" data-name="Path 4446" d="M97.157,34.383a.238.238,0,1,0,.13.311.238.238,0,0,0-.13-.311" fill="#221f20"/>
        <path id="Path_4447" data-name="Path 4447" d="M97.52,33.265a.239.239,0,1,0,.237.24.238.238,0,0,0-.237-.24" fill="#221f20"/>
        <path id="Path_4448" data-name="Path 4448" d="M94.462,33.327a.432.432,0,1,0,.331.513.432.432,0,0,0-.331-.513" fill="#221f20"/>
        <path id="Path_4449" data-name="Path 4449" d="M95.107,34.3a.238.238,0,1,0,.183.283.238.238,0,0,0-.183-.283" fill="#221f20"/>
        <path id="Path_4450" data-name="Path 4450" d="M95.267,33.136a.238.238,0,1,0,.275.194.237.237,0,0,0-.275-.194" fill="#221f20"/>
        <path id="Path_4451" data-name="Path 4451" d="M104.8,34a.432.432,0,1,0,.281.542A.432.432,0,0,0,104.8,34" fill="#221f20"/>
        <path id="Path_4452" data-name="Path 4452" d="M105.353,35.027a.238.238,0,1,0,.155.3.238.238,0,0,0-.155-.3" fill="#221f20"/>
        <path id="Path_4453" data-name="Path 4453" d="M105.622,33.883a.238.238,0,1,0,.256.219.238.238,0,0,0-.256-.219" fill="#221f20"/>
        <path id="Path_4454" data-name="Path 4454" d="M102.71,33.823a.432.432,0,1,0,.282.541.431.431,0,0,0-.282-.541" fill="#221f20"/>
        <path id="Path_4455" data-name="Path 4455" d="M103.262,34.851a.238.238,0,1,0,.156.3.238.238,0,0,0-.156-.3" fill="#221f20"/>
        <path id="Path_4456" data-name="Path 4456" d="M103.529,33.707a.238.238,0,1,0,.256.219.238.238,0,0,0-.256-.219" fill="#221f20"/>
        <path id="Path_4457" data-name="Path 4457" d="M100.488,34.027a.432.432,0,1,0,.373.483.432.432,0,0,0-.373-.483" fill="#221f20"/>
        <path id="Path_4458" data-name="Path 4458" d="M101.213,34.942a.238.238,0,1,0,.206.267.238.238,0,0,0-.206-.267" fill="#221f20"/>
        <path id="Path_4459" data-name="Path 4459" d="M101.274,33.768a.238.238,0,1,0,.291.17.238.238,0,0,0-.291-.17" fill="#221f20"/>
        <path id="Path_4460" data-name="Path 4460" d="M110.726,34.333a.432.432,0,1,0,.281.542.432.432,0,0,0-.281-.542" fill="#221f20"/>
        <path id="Path_4461" data-name="Path 4461" d="M111.277,35.362a.238.238,0,1,0,.155.3.239.239,0,0,0-.155-.3" fill="#221f20"/>
        <path id="Path_4462" data-name="Path 4462" d="M111.546,34.218a.238.238,0,1,0,.256.219.238.238,0,0,0-.256-.219" fill="#221f20"/>
        <path id="Path_4463" data-name="Path 4463" d="M108.633,34.16a.432.432,0,1,0,.282.541.432.432,0,0,0-.282-.541" fill="#221f20"/>
        <path id="Path_4464" data-name="Path 4464" d="M109.186,35.188a.238.238,0,1,0,.156.3.239.239,0,0,0-.156-.3" fill="#221f20"/>
        <path id="Path_4465" data-name="Path 4465" d="M109.452,34.043a.238.238,0,1,0,.256.219.238.238,0,0,0-.256-.219" fill="#221f20"/>
        <path id="Path_4466" data-name="Path 4466" d="M106.411,34.365a.432.432,0,1,0,.373.483.432.432,0,0,0-.373-.483" fill="#221f20"/>
        <path id="Path_4467" data-name="Path 4467" d="M107.137,35.28a.238.238,0,1,0,.206.267.239.239,0,0,0-.206-.267" fill="#221f20"/>
        <path id="Path_4468" data-name="Path 4468" d="M107.2,34.106a.238.238,0,1,0,.291.17.238.238,0,0,0-.291-.17" fill="#221f20"/>
        <path id="Path_4469" data-name="Path 4469" d="M116.221,34.084a.432.432,0,1,0,.582.186.432.432,0,0,0-.582-.186" fill="#221f20"/>
        <path id="Path_4470" data-name="Path 4470" d="M117.338,34.425a.238.238,0,1,0,.321.1.238.238,0,0,0-.321-.1" fill="#221f20"/>
        <path id="Path_4471" data-name="Path 4471" d="M116.721,33.425a.238.238,0,1,0,.336-.025.238.238,0,0,0-.336.025" fill="#221f20"/>
        <path id="Path_4472" data-name="Path 4472" d="M114.391,34.264a.432.432,0,1,0,.459.4.431.431,0,0,0-.459-.4" fill="#221f20"/>
        <path id="Path_4473" data-name="Path 4473" d="M115.279,35.022a.239.239,0,1,0,.253.222.238.238,0,0,0-.253-.222" fill="#221f20"/>
        <path id="Path_4474" data-name="Path 4474" d="M115.113,33.859a.238.238,0,1,0,.318.111.238.238,0,0,0-.318-.111" fill="#221f20"/>
        <path id="Path_4475" data-name="Path 4475" d="M112.48,34.5a.432.432,0,1,0,.409.453.432.432,0,0,0-.409-.453" fill="#221f20"/>
        <path id="Path_4476" data-name="Path 4476" d="M113.273,35.359a.238.238,0,1,0,.226.25.238.238,0,0,0-.226-.25" fill="#221f20"/>
        <path id="Path_4477" data-name="Path 4477" d="M113.245,34.184a.238.238,0,1,0,.3.148.239.239,0,0,0-.3-.148" fill="#221f20"/>
        <path id="Path_4478" data-name="Path 4478" d="M119.7,30.664a.432.432,0,1,0,.355-.5.432.432,0,0,0-.355.5" fill="#221f20"/>
        <path id="Path_4479" data-name="Path 4479" d="M120.366,29.706a.238.238,0,1,0,.2-.274.239.239,0,0,0-.2.274" fill="#221f20"/>
        <path id="Path_4480" data-name="Path 4480" d="M119.224,29.986a.238.238,0,1,0,.079-.328.239.239,0,0,0-.079.328" fill="#221f20"/>
        <path id="Path_4481" data-name="Path 4481" d="M118.912,32.046a.432.432,0,1,0,.61-.02.431.431,0,0,0-.61.02" fill="#221f20"/>
        <path id="Path_4482" data-name="Path 4482" d="M120.079,31.993a.238.238,0,1,0,.337-.011.239.239,0,0,0-.337.011" fill="#221f20"/>
        <path id="Path_4483" data-name="Path 4483" d="M119.162,31.257a.238.238,0,1,0,.308-.136.237.237,0,0,0-.308.136" fill="#221f20"/>
        <path id="Path_4484" data-name="Path 4484" d="M117.588,33.211a.432.432,0,1,0,.61.034.432.432,0,0,0-.61-.034" fill="#221f20"/>
        <path id="Path_4485" data-name="Path 4485" d="M118.754,33.262a.238.238,0,1,0,.336.019.239.239,0,0,0-.336-.019" fill="#221f20"/>
        <path id="Path_4486" data-name="Path 4486" d="M117.907,32.448a.238.238,0,1,0,.318-.108.237.237,0,0,0-.318.108" fill="#221f20"/>
        <path id="Path_4487" data-name="Path 4487" d="M119.223,28.582a.432.432,0,1,0,.355-.5.432.432,0,0,0-.355.5" fill="#221f20"/>
        <path id="Path_4488" data-name="Path 4488" d="M119.889,27.623a.238.238,0,1,0,.2-.274.239.239,0,0,0-.2.274" fill="#221f20"/>
        <path id="Path_4489" data-name="Path 4489" d="M118.748,27.9a.238.238,0,1,0,.079-.328.239.239,0,0,0-.079.328" fill="#221f20"/>
        <path id="Path_4490" data-name="Path 4490" d="M68.372,39.841c5.805-8.124,24.138-5.2,35.175-4.014a47.926,47.926,0,0,0,11.8,0c4.346-.612,5.223-2.825,5.758-4.484A5,5,0,0,0,120.252,27" fill="none" stroke="#221f20" stroke-miterlimit="10" stroke-width="0.335" stroke-dasharray="1.533 1.533"/>
        <path id="Path_4491" data-name="Path 4491" d="M4.439,6.578l-.117.375C16.3,10.813,33.014,15.2,47.95,18.4c5.6,1.2,13.642,3.57,18.96,5.138,1.76.516,3.281.966,4.336,1.259a.477.477,0,0,0,.149.019.638.638,0,0,0,.571-.394.592.592,0,0,0-.2-.759c-.277-.176-.844-.5-1.388-.809-.41-.235-.8-.458-1.012-.587-.395-.239-.814-.489-1.244-.747-2.729-1.626-7.3-4.352-6.631-5.622A64.609,64.609,0,0,1,67.2,7.536C68.275,6.105,70.887,2.66,72.267.764c-.34-.329-.653-.626-.708-.559-.258.336-.95,1.411-1.189,1.74l.012-.008c-1.415,1.947-2.682,3.632-3.8,5.13a65.223,65.223,0,0,0-5.787,8.473c-1,1.924,3.026,4.328,6.925,6.655.43.254.848.5,1.243.743.215.133.61.359,1.028.6.106.059.215.121.321.184-.9-.262-1.982-.579-3.179-.931-5.329-1.572-13.38-3.945-19.019-5.153C33.2,14.441,16.513,10.062,4.56,6.207l-.36.9c.141-.317.227-.5.239-.524" fill="#c1c1c1"/>
        <path id="Path_4492" data-name="Path 4492" d="M4.439,6.578l-.117.375C16.3,10.813,33.014,15.2,47.95,18.4c5.6,1.2,13.642,3.57,18.96,5.138,1.76.516,3.281.966,4.336,1.259a.477.477,0,0,0,.149.019.638.638,0,0,0,.571-.394.592.592,0,0,0-.2-.759c-.277-.176-.844-.5-1.388-.809-.41-.235-.8-.458-1.012-.587-.395-.239-.814-.489-1.244-.747-2.729-1.626-7.3-4.352-6.631-5.622A64.609,64.609,0,0,1,67.2,7.536C68.275,6.105,70.887,2.66,72.267.764c-.34-.329-.653-.626-.708-.559-.258.336-.95,1.411-1.189,1.74l.012-.008c-1.415,1.947-2.682,3.632-3.8,5.13a65.223,65.223,0,0,0-5.787,8.473c-1,1.924,3.026,4.328,6.925,6.655.43.254.848.5,1.243.743.215.133.61.359,1.028.6.106.059.215.121.321.184-.9-.262-1.982-.579-3.179-.931-5.329-1.572-13.38-3.945-19.019-5.153C33.2,14.441,16.513,10.062,4.56,6.207l-.36.9C4.341,6.785,4.427,6.605,4.439,6.578Z" fill="none" stroke="#221f20" stroke-miterlimit="10" stroke-width="0.391"/>
        <path id="Path_4493" data-name="Path 4493" d="M18.2,20.7a.432.432,0,1,1-.533.3.432.432,0,0,1,.533-.3" fill="#221f20"/>
        <path id="Path_4494" data-name="Path 4494" d="M17.175,21.256a.238.238,0,1,1-.294.164.238.238,0,0,1,.294-.164" fill="#221f20"/>
        <path id="Path_4495" data-name="Path 4495" d="M17.582,20.153a.238.238,0,1,1-.334.042.238.238,0,0,1,.334-.042" fill="#221f20"/>
        <path id="Path_4496" data-name="Path 4496" d="M20.042,21.069a.432.432,0,1,1-.484.372.432.432,0,0,1,.484-.372" fill="#221f20"/>
        <path id="Path_4497" data-name="Path 4497" d="M19.107,21.768a.238.238,0,1,1-.267.2.238.238,0,0,1,.267-.2" fill="#221f20"/>
        <path id="Path_4498" data-name="Path 4498" d="M19.348,20.618a.238.238,0,1,1-.325.09.238.238,0,0,1,.325-.09" fill="#221f20"/>
        <path id="Path_4499" data-name="Path 4499" d="M21.917,21.609a.432.432,0,1,1-.458.4.432.432,0,0,1,.458-.4" fill="#221f20"/>
        <path id="Path_4500" data-name="Path 4500" d="M21.032,22.37a.238.238,0,1,1-.253.223.239.239,0,0,1,.253-.223" fill="#221f20"/>
        <path id="Path_4501" data-name="Path 4501" d="M21.195,21.206a.238.238,0,1,1-.318.112.238.238,0,0,1,.318-.112" fill="#221f20"/>
        <path id="Path_4502" data-name="Path 4502" d="M23.932,22.2a.432.432,0,1,1-.459.4.433.433,0,0,1,.459-.4" fill="#221f20"/>
        <path id="Path_4503" data-name="Path 4503" d="M23.044,22.963a.239.239,0,1,1-.253.222.238.238,0,0,1,.253-.222" fill="#221f20"/>
        <path id="Path_4504" data-name="Path 4504" d="M23.21,21.8a.238.238,0,1,1-.318.111.238.238,0,0,1,.318-.111" fill="#221f20"/>
        <path id="Path_4505" data-name="Path 4505" d="M25.929,23.2a.432.432,0,1,1-.523.315.431.431,0,0,1,.523-.315" fill="#221f20"/>
        <path id="Path_4506" data-name="Path 4506" d="M24.922,23.79a.238.238,0,1,1-.289.174.238.238,0,0,1,.289-.174" fill="#221f20"/>
        <path id="Path_4507" data-name="Path 4507" d="M25.29,22.673a.238.238,0,1,1-.333.054.238.238,0,0,1,.333-.054" fill="#221f20"/>
        <path id="Path_4508" data-name="Path 4508" d="M27.7,24.192a.432.432,0,1,1-.593.147.431.431,0,0,1,.593-.147" fill="#221f20"/>
        <path id="Path_4509" data-name="Path 4509" d="M26.564,24.458a.238.238,0,1,1-.327.081.238.238,0,0,1,.327-.081" fill="#221f20"/>
        <path id="Path_4510" data-name="Path 4510" d="M27.246,23.5a.238.238,0,1,1-.334-.047.239.239,0,0,1,.334.047" fill="#221f20"/>
        <path id="Path_4511" data-name="Path 4511" d="M29.408,25.366a.432.432,0,1,1-.593.146.431.431,0,0,1,.593-.146" fill="#221f20"/>
        <path id="Path_4512" data-name="Path 4512" d="M28.271,25.632a.238.238,0,1,1-.327.081.238.238,0,0,1,.327-.081" fill="#221f20"/>
        <path id="Path_4513" data-name="Path 4513" d="M28.953,24.675a.238.238,0,1,1-.334-.047.239.239,0,0,1,.334.047" fill="#221f20"/>
        <path id="Path_4514" data-name="Path 4514" d="M30.981,26.409a.432.432,0,1,1-.593.147.432.432,0,0,1,.593-.147" fill="#221f20"/>
        <path id="Path_4515" data-name="Path 4515" d="M29.844,26.675a.238.238,0,1,1-.327.081.238.238,0,0,1,.327-.081" fill="#221f20"/>
        <path id="Path_4516" data-name="Path 4516" d="M30.526,25.717a.238.238,0,1,1-.334-.047.239.239,0,0,1,.334.047" fill="#221f20"/>
        <path id="Path_4517" data-name="Path 4517" d="M32.219,27.753a.432.432,0,1,1-.607.062.432.432,0,0,1,.607-.062" fill="#221f20"/>
        <path id="Path_4518" data-name="Path 4518" d="M31.056,27.856a.238.238,0,1,1-.335.034.238.238,0,0,1,.335-.034" fill="#221f20"/>
        <path id="Path_4519" data-name="Path 4519" d="M31.866,27a.238.238,0,1,1-.324-.094.24.24,0,0,1,.324.094" fill="#221f20"/>
        <path id="Path_4520" data-name="Path 4520" d="M33.135,29.469a.432.432,0,1,1-.588-.164.431.431,0,0,1,.588.164" fill="#221f20"/>
        <path id="Path_4521" data-name="Path 4521" d="M32.015,29.141a.238.238,0,1,1-.325-.091.238.238,0,0,1,.325.091" fill="#221f20"/>
        <path id="Path_4522" data-name="Path 4522" d="M33.079,28.643a.239.239,0,1,1-.267-.2.238.238,0,0,1,.267.2" fill="#221f20"/>
        <path id="Path_4523" data-name="Path 4523" d="M34.294,31.22a.432.432,0,1,1-.566-.228.432.432,0,0,1,.566.228" fill="#221f20"/>
        <path id="Path_4524" data-name="Path 4524" d="M33.216,30.77a.238.238,0,1,1-.313-.126.24.24,0,0,1,.313.126" fill="#221f20"/>
        <path id="Path_4525" data-name="Path 4525" d="M34.33,30.393a.238.238,0,1,1-.243-.234.239.239,0,0,1,.243.234" fill="#221f20"/>
        <path id="Path_4526" data-name="Path 4526" d="M34.841,33.231A.432.432,0,1,1,34.275,33a.432.432,0,0,1,.566.228" fill="#221f20"/>
        <path id="Path_4527" data-name="Path 4527" d="M33.764,32.781a.238.238,0,1,1-.313-.126.24.24,0,0,1,.313.126" fill="#221f20"/>
        <path id="Path_4528" data-name="Path 4528" d="M34.877,32.4a.238.238,0,1,1-.243-.234.239.239,0,0,1,.243.234" fill="#221f20"/>
        <path id="Path_4529" data-name="Path 4529" d="M35.268,35.347a.432.432,0,1,1-.515-.328.431.431,0,0,1,.515.328" fill="#221f20"/>
        <path id="Path_4530" data-name="Path 4530" d="M34.291,34.708a.238.238,0,1,1-.284-.181.237.237,0,0,1,.284.181" fill="#221f20"/>
        <path id="Path_4531" data-name="Path 4531" d="M35.454,34.541a.238.238,0,1,1-.2-.274.238.238,0,0,1,.2.274" fill="#221f20"/>
        <path id="Path_4532" data-name="Path 4532" d="M16.253,20.107a.432.432,0,1,1-.533.3.432.432,0,0,1,.533-.3" fill="#221f20"/>
        <path id="Path_4533" data-name="Path 4533" d="M15.226,20.662a.238.238,0,1,1-.294.164.238.238,0,0,1,.294-.164" fill="#221f20"/>
        <path id="Path_4534" data-name="Path 4534" d="M15.632,19.559a.238.238,0,1,1-.334.042.238.238,0,0,1,.334-.042" fill="#221f20"/>
        <path id="Path_4535" data-name="Path 4535" d="M14.338,19.8a.432.432,0,1,1-.533.3.432.432,0,0,1,.533-.3" fill="#221f20"/>
        <path id="Path_4536" data-name="Path 4536" d="M13.311,20.358a.238.238,0,1,1-.294.164.238.238,0,0,1,.294-.164" fill="#221f20"/>
        <path id="Path_4537" data-name="Path 4537" d="M13.717,19.255a.238.238,0,1,1-.334.042.238.238,0,0,1,.334-.042" fill="#221f20"/>
        <path id="Path_4538" data-name="Path 4538" d="M12.5,19.318a.432.432,0,1,1-.533.3.432.432,0,0,1,.533-.3" fill="#221f20"/>
        <path id="Path_4539" data-name="Path 4539" d="M11.473,19.874a.238.238,0,1,1-.294.164.238.238,0,0,1,.294-.164" fill="#221f20"/>
        <path id="Path_4540" data-name="Path 4540" d="M11.879,18.771a.238.238,0,1,1-.334.042.238.238,0,0,1,.334-.042" fill="#221f20"/>
        <path id="Path_4541" data-name="Path 4541" d="M10.856,18.842a.432.432,0,1,1-.533.3.432.432,0,0,1,.533-.3" fill="#221f20"/>
        <path id="Path_4542" data-name="Path 4542" d="M9.829,19.4a.238.238,0,1,1-.294.164.238.238,0,0,1,.294-.164" fill="#221f20"/>
        <path id="Path_4543" data-name="Path 4543" d="M10.235,18.294a.238.238,0,1,1-.334.042.238.238,0,0,1,.334-.042" fill="#221f20"/>
        <path id="Path_4544" data-name="Path 4544" d="M9.22,18.657a.432.432,0,1,1-.582.183.432.432,0,0,1,.582-.183" fill="#221f20"/>
        <path id="Path_4545" data-name="Path 4545" d="M8.1,18.993a.238.238,0,1,1-.321.1.238.238,0,0,1,.321-.1" fill="#221f20"/>
        <path id="Path_4546" data-name="Path 4546" d="M8.723,18a.238.238,0,1,1-.336-.026A.239.239,0,0,1,8.723,18" fill="#221f20"/>
        <path id="Path_4547" data-name="Path 4547" d="M7.721,17.377a.432.432,0,1,1-.608.054.431.431,0,0,1,.608-.054" fill="#221f20"/>
        <path id="Path_4548" data-name="Path 4548" d="M6.557,17.466a.239.239,0,1,1-.336.03.239.239,0,0,1,.336-.03" fill="#221f20"/>
        <path id="Path_4549" data-name="Path 4549" d="M7.377,16.624a.238.238,0,1,1-.322-.1.238.238,0,0,1,.322.1" fill="#221f20"/>
        <path id="Path_4550" data-name="Path 4550" d="M6.4,16.187a.432.432,0,1,1-.609-.037.431.431,0,0,1,.609.037" fill="#221f20"/>
        <path id="Path_4551" data-name="Path 4551" d="M5.236,16.1a.238.238,0,1,1-.336-.02.239.239,0,0,1,.336.02" fill="#221f20"/>
        <path id="Path_4552" data-name="Path 4552" d="M6.172,15.392a.238.238,0,1,1-.3-.145.238.238,0,0,1,.3.145" fill="#221f20"/>
        <path id="Path_4553" data-name="Path 4553" d="M5.269,14.547a.432.432,0,1,1-.6-.094.431.431,0,0,1,.6.094" fill="#221f20"/>
        <path id="Path_4554" data-name="Path 4554" d="M4.118,14.353a.238.238,0,1,1-.333-.052.238.238,0,0,1,.333.052" fill="#221f20"/>
        <path id="Path_4555" data-name="Path 4555" d="M5.117,13.734a.238.238,0,1,1-.289-.173.238.238,0,0,1,.289.173" fill="#221f20"/>
        <path id="Path_4556" data-name="Path 4556" d="M4.558,12.994a.432.432,0,1,1-.517-.325.432.432,0,0,1,.517.325" fill="#221f20"/>
        <path id="Path_4557" data-name="Path 4557" d="M3.578,12.359a.238.238,0,1,1-.285-.18.238.238,0,0,1,.285.18" fill="#221f20"/>
        <path id="Path_4558" data-name="Path 4558" d="M4.74,12.186a.238.238,0,1,1-.2-.273.238.238,0,0,1,.2.273" fill="#221f20"/>
        <path id="Path_4559" data-name="Path 4559" d="M4.308,11.063a.432.432,0,1,1-.453-.409.432.432,0,0,1,.453.409" fill="#221f20"/>
        <path id="Path_4560" data-name="Path 4560" d="M3.452,10.27a.238.238,0,1,1-.25-.226.238.238,0,0,1,.25.226" fill="#221f20"/>
        <path id="Path_4561" data-name="Path 4561" d="M4.627,10.3A.238.238,0,1,1,4.48,10a.238.238,0,0,1,.147.3" fill="#221f20"/>
        <path id="Path_4562" data-name="Path 4562" d="M2.407,11.787c2.413,15.33,29.107,5.49,31.375,24.13" fill="none" stroke="#221f20" stroke-miterlimit="10" stroke-width="0.196" stroke-dasharray="1.564 1.564"/>
        <path id="Path_4563" data-name="Path 4563" d="M36.712,35.987c-.245-13.038-10.861-15.148-20.237-17.35-1.581-.372-3.075-.722-4.525-1.12-2.8-.766-4.67-2.164-5.559-4.154a7.366,7.366,0,0,1-.384-5.672" fill="none" stroke="#221f20" stroke-linecap="round" stroke-miterlimit="10" stroke-width="0.669"/>
        <path id="Path_4564" data-name="Path 4564" d="M5.426,7.156c-.1.2-1.548,2.491.25,6.522.988,2.216,3.029,3.762,6.068,4.594,1.464.4,2.964.753,4.553,1.126,9.543,2.242,19.4,4.073,19.63,16.5" fill="none" stroke="#221f20" stroke-miterlimit="10" stroke-width="0.335" stroke-dasharray="1.533 1.533"/>
        <path id="Path_4565" data-name="Path 4565" d="M24.2,16.5a.73.73,0,0,0,.339-.495c.114-.454-.053-.642-.053-.642L13.634,12.636a.735.735,0,0,0-.32.5,1.16,1.16,0,0,0,.035.635Z" fill="none" stroke="#221f20" stroke-linecap="round" stroke-miterlimit="10" stroke-width="0.669"/>
      </g>
    </g>
  </g>
</svg>
