<svg id="Group_1449" data-name="Group 1449" xmlns="http://www.w3.org/2000/svg" xmlns:xlink="http://www.w3.org/1999/xlink" width="151.636" height="46.621" viewBox="0 0 151.636 46.621">
  <defs>
    <clipPath id="clip-path">
      <rect id="Rectangle_1988" data-name="Rectangle 1988" width="151.636" height="46.621" transform="translate(0 0)" fill="none"/>
    </clipPath>
  </defs>
  <g id="Group_1449-2" data-name="Group 1449" clip-path="url(#clip-path)">
    <path id="Path_4566" data-name="Path 4566" d="M2.936,46.426H38.81l.269-6.955s1.5.132,4.946.523c3.883.441,10.238,1.206,19.679,2.47,10.543,1.417,36.405,4.871,53.29,3.06,14.368-1.545,33.7-4.543,34.219-4.683.457-.125.114-2.253-.062-2.881-.172-.609-1.3-.925-1.3-.925L3.24,34.845Z" fill="#2e160e"/>
    <path id="Path_4567" data-name="Path 4567" d="M2.936,46.426H38.81l.269-6.955s1.5.132,4.946.523c3.883.441,10.238,1.206,19.679,2.47,10.543,1.417,36.405,4.871,53.29,3.06,14.368-1.545,33.7-4.543,34.219-4.683.457-.125.114-2.253-.062-2.881-.172-.609-1.3-.925-1.3-.925L3.24,34.845Z" fill="none" stroke="#221f20" stroke-miterlimit="10" stroke-width="0.39"/>
    <path id="Path_4568" data-name="Path 4568" d="M18.17,20.664a.431.431,0,1,1-.532.3.431.431,0,0,1,.532-.3" fill="#221f20"/>
    <path id="Path_4569" data-name="Path 4569" d="M17.145,21.218a.238.238,0,1,1-.294.164.239.239,0,0,1,.294-.164" fill="#221f20"/>
    <path id="Path_4570" data-name="Path 4570" d="M17.551,20.117a.238.238,0,1,1-.334.042.238.238,0,0,1,.334-.042" fill="#221f20"/>
    <path id="Path_4571" data-name="Path 4571" d="M20.007,21.032a.431.431,0,1,1-.483.371.43.43,0,0,1,.483-.371" fill="#221f20"/>
    <path id="Path_4572" data-name="Path 4572" d="M19.074,21.73a.238.238,0,1,1-.267.2.238.238,0,0,1,.267-.2" fill="#221f20"/>
    <path id="Path_4573" data-name="Path 4573" d="M19.314,20.581a.238.238,0,1,1-.324.09.238.238,0,0,1,.324-.09" fill="#221f20"/>
    <path id="Path_4574" data-name="Path 4574" d="M21.879,21.571a.431.431,0,1,1-.457.4.431.431,0,0,1,.457-.4" fill="#221f20"/>
    <path id="Path_4575" data-name="Path 4575" d="M21,22.33a.238.238,0,1,1-.252.222A.237.237,0,0,1,21,22.33" fill="#221f20"/>
    <path id="Path_4576" data-name="Path 4576" d="M21.157,21.168a.238.238,0,1,1-.317.112.238.238,0,0,1,.317-.112" fill="#221f20"/>
    <path id="Path_4577" data-name="Path 4577" d="M23.889,22.165a.431.431,0,1,1-.458.4.431.431,0,0,1,.458-.4" fill="#221f20"/>
    <path id="Path_4578" data-name="Path 4578" d="M23,22.922a.238.238,0,1,1-.253.222A.239.239,0,0,1,23,22.922" fill="#221f20"/>
    <path id="Path_4579" data-name="Path 4579" d="M23.169,21.761a.238.238,0,1,1-.317.111.238.238,0,0,1,.317-.111" fill="#221f20"/>
    <path id="Path_4580" data-name="Path 4580" d="M25.883,23.158a.431.431,0,1,1-.522.315.431.431,0,0,1,.522-.315" fill="#221f20"/>
    <path id="Path_4581" data-name="Path 4581" d="M24.878,23.748a.238.238,0,1,1-.288.174.238.238,0,0,1,.288-.174" fill="#221f20"/>
    <path id="Path_4582" data-name="Path 4582" d="M25.245,22.633a.238.238,0,1,1-.332.053.238.238,0,0,1,.332-.053" fill="#221f20"/>
    <path id="Path_4583" data-name="Path 4583" d="M27.652,24.149a.431.431,0,1,1-.592.146.431.431,0,0,1,.592-.146" fill="#221f20"/>
    <path id="Path_4584" data-name="Path 4584" d="M26.517,24.415a.238.238,0,1,1-.327.081.239.239,0,0,1,.327-.081" fill="#221f20"/>
    <path id="Path_4585" data-name="Path 4585" d="M27.2,23.459a.238.238,0,1,1-.333-.047.238.238,0,0,1,.333.047" fill="#221f20"/>
    <path id="Path_4586" data-name="Path 4586" d="M29.356,25.322a.431.431,0,1,1-.592.146.431.431,0,0,1,.592-.146" fill="#221f20"/>
    <path id="Path_4587" data-name="Path 4587" d="M28.221,25.587a.238.238,0,1,1-.327.081.239.239,0,0,1,.327-.081" fill="#221f20"/>
    <path id="Path_4588" data-name="Path 4588" d="M28.9,24.631a.238.238,0,1,1-.333-.047.238.238,0,0,1,.333.047" fill="#221f20"/>
    <path id="Path_4589" data-name="Path 4589" d="M30.927,26.362a.431.431,0,1,1-.593.146.433.433,0,0,1,.593-.146" fill="#221f20"/>
    <path id="Path_4590" data-name="Path 4590" d="M29.792,26.628a.238.238,0,1,1-.327.081.239.239,0,0,1,.327-.081" fill="#221f20"/>
    <path id="Path_4591" data-name="Path 4591" d="M30.472,25.672a.238.238,0,1,1-.333-.047.238.238,0,0,1,.333.047" fill="#221f20"/>
    <path id="Path_4592" data-name="Path 4592" d="M32.162,27.7a.431.431,0,1,1-.606.062.43.43,0,0,1,.606-.062" fill="#221f20"/>
    <path id="Path_4593" data-name="Path 4593" d="M31,27.807a.238.238,0,1,1-.335.034A.238.238,0,0,1,31,27.807" fill="#221f20"/>
    <path id="Path_4594" data-name="Path 4594" d="M31.81,26.957a.238.238,0,1,1-.323-.094.238.238,0,0,1,.323.094" fill="#221f20"/>
    <path id="Path_4595" data-name="Path 4595" d="M33.077,29.417a.431.431,0,1,1-.587-.164.43.43,0,0,1,.587.164" fill="#221f20"/>
    <path id="Path_4596" data-name="Path 4596" d="M31.958,29.09a.238.238,0,1,1-.324-.09.238.238,0,0,1,.324.09" fill="#221f20"/>
    <path id="Path_4597" data-name="Path 4597" d="M33.021,28.593a.238.238,0,1,1-.267-.2.238.238,0,0,1,.267.2" fill="#221f20"/>
    <path id="Path_4598" data-name="Path 4598" d="M34.233,31.165a.431.431,0,1,1-.565-.228.431.431,0,0,1,.565.228" fill="#221f20"/>
    <path id="Path_4599" data-name="Path 4599" d="M33.158,30.716a.238.238,0,1,1-.312-.126.238.238,0,0,1,.312.126" fill="#221f20"/>
    <path id="Path_4600" data-name="Path 4600" d="M34.269,30.34a.238.238,0,1,1-.242-.233.238.238,0,0,1,.242.233" fill="#221f20"/>
    <path id="Path_4601" data-name="Path 4601" d="M34.779,33.173a.431.431,0,1,1-.565-.228.431.431,0,0,1,.565.228" fill="#221f20"/>
    <path id="Path_4602" data-name="Path 4602" d="M33.7,32.723a.238.238,0,1,1-.312-.126.238.238,0,0,1,.312.126" fill="#221f20"/>
    <path id="Path_4603" data-name="Path 4603" d="M34.815,32.348a.238.238,0,1,1-.242-.233.238.238,0,0,1,.242.233" fill="#221f20"/>
    <path id="Path_4604" data-name="Path 4604" d="M35.206,35.285a.431.431,0,1,1-.514-.327.43.43,0,0,1,.514.327" fill="#221f20"/>
    <path id="Path_4605" data-name="Path 4605" d="M34.23,34.647a.238.238,0,1,1-.284-.181.238.238,0,0,1,.284.181" fill="#221f20"/>
    <path id="Path_4606" data-name="Path 4606" d="M35.392,34.48a.238.238,0,1,1-.2-.274.238.238,0,0,1,.2.274" fill="#221f20"/>
    <path id="Path_4607" data-name="Path 4607" d="M16.224,20.071a.431.431,0,1,1-.532.3.431.431,0,0,1,.532-.3" fill="#221f20"/>
    <path id="Path_4608" data-name="Path 4608" d="M15.2,20.626a.238.238,0,1,1-.294.164.239.239,0,0,1,.294-.164" fill="#221f20"/>
    <path id="Path_4609" data-name="Path 4609" d="M15.6,19.525a.238.238,0,1,1-.334.042.238.238,0,0,1,.334-.042" fill="#221f20"/>
    <path id="Path_4610" data-name="Path 4610" d="M14.312,19.768a.431.431,0,1,1-.532.3.431.431,0,0,1,.532-.3" fill="#221f20"/>
    <path id="Path_4611" data-name="Path 4611" d="M13.287,20.322a.238.238,0,1,1-.294.164.239.239,0,0,1,.294-.164" fill="#221f20"/>
    <path id="Path_4612" data-name="Path 4612" d="M13.693,19.221a.238.238,0,1,1-.334.042.238.238,0,0,1,.334-.042" fill="#221f20"/>
    <path id="Path_4613" data-name="Path 4613" d="M12.478,19.284a.431.431,0,1,1-.532.3.431.431,0,0,1,.532-.3" fill="#221f20"/>
    <path id="Path_4614" data-name="Path 4614" d="M11.453,19.839a.238.238,0,1,1-.294.164.239.239,0,0,1,.294-.164" fill="#221f20"/>
    <path id="Path_4615" data-name="Path 4615" d="M11.858,18.738a.238.238,0,1,1-.334.042.238.238,0,0,1,.334-.042" fill="#221f20"/>
    <path id="Path_4616" data-name="Path 4616" d="M10.837,18.808a.431.431,0,1,1-.532.3.431.431,0,0,1,.532-.3" fill="#221f20"/>
    <path id="Path_4617" data-name="Path 4617" d="M9.812,19.363a.238.238,0,1,1-.294.164.239.239,0,0,1,.294-.164" fill="#221f20"/>
    <path id="Path_4618" data-name="Path 4618" d="M10.217,18.262a.238.238,0,1,1-.334.042.238.238,0,0,1,.334-.042" fill="#221f20"/>
    <path id="Path_4619" data-name="Path 4619" d="M9.2,18.624a.431.431,0,1,1-.581.183.431.431,0,0,1,.581-.183" fill="#221f20"/>
    <path id="Path_4620" data-name="Path 4620" d="M8.088,18.96a.238.238,0,1,1-.321.1.238.238,0,0,1,.321-.1" fill="#221f20"/>
    <path id="Path_4621" data-name="Path 4621" d="M8.708,17.964a.238.238,0,1,1-.335-.026.238.238,0,0,1,.335.026" fill="#221f20"/>
    <path id="Path_4622" data-name="Path 4622" d="M7.707,17.346A.431.431,0,1,1,7.1,17.4a.43.43,0,0,1,.607-.054" fill="#221f20"/>
    <path id="Path_4623" data-name="Path 4623" d="M6.545,17.435a.238.238,0,1,1-.335.03.238.238,0,0,1,.335-.03" fill="#221f20"/>
    <path id="Path_4624" data-name="Path 4624" d="M7.364,16.595a.238.238,0,1,1-.322-.1.238.238,0,0,1,.322.1" fill="#221f20"/>
    <path id="Path_4625" data-name="Path 4625" d="M6.39,16.159a.431.431,0,1,1-.609-.037.43.43,0,0,1,.609.037" fill="#221f20"/>
    <path id="Path_4626" data-name="Path 4626" d="M5.227,16.074a.238.238,0,1,1-.336-.02.239.239,0,0,1,.336.02" fill="#221f20"/>
    <path id="Path_4627" data-name="Path 4627" d="M6.162,15.365a.238.238,0,1,1-.3-.144.238.238,0,0,1,.3.144" fill="#221f20"/>
    <path id="Path_4628" data-name="Path 4628" d="M5.26,14.522a.431.431,0,1,1-.6-.094.431.431,0,0,1,.6.094" fill="#221f20"/>
    <path id="Path_4629" data-name="Path 4629" d="M4.111,14.327a.238.238,0,1,1-.332-.052.238.238,0,0,1,.332.052" fill="#221f20"/>
    <path id="Path_4630" data-name="Path 4630" d="M5.108,13.71a.238.238,0,1,1-.289-.172.238.238,0,0,1,.289.172" fill="#221f20"/>
    <path id="Path_4631" data-name="Path 4631" d="M4.55,12.971a.431.431,0,1,1-.516-.325.431.431,0,0,1,.516.325" fill="#221f20"/>
    <path id="Path_4632" data-name="Path 4632" d="M3.572,12.338a.238.238,0,1,1-.285-.179.238.238,0,0,1,.285.179" fill="#221f20"/>
    <path id="Path_4633" data-name="Path 4633" d="M4.732,12.165a.238.238,0,1,1-.2-.273.238.238,0,0,1,.2.273" fill="#221f20"/>
    <path id="Path_4634" data-name="Path 4634" d="M4.3,11.043a.431.431,0,1,1-.452-.409.431.431,0,0,1,.452.409" fill="#221f20"/>
    <path id="Path_4635" data-name="Path 4635" d="M3.446,10.252a.238.238,0,1,1-.25-.225.238.238,0,0,1,.25.225" fill="#221f20"/>
    <path id="Path_4636" data-name="Path 4636" d="M4.619,10.281a.238.238,0,1,1-.147-.3.237.237,0,0,1,.147.3" fill="#221f20"/>
    <path id="Path_4637" data-name="Path 4637" d="M2.4,11.766c2.408,15.3,29.056,5.48,31.32,24.088" fill="none" stroke="#221f20" stroke-miterlimit="10" stroke-width="0.195" stroke-dasharray="1.561 1.561"/>
    <path id="Path_4638" data-name="Path 4638" d="M3.851,7.9c.14-.316.3-.743.316-.771l.147-.184c11.955,3.853,28.641,8.232,43.551,11.429,5.594,1.2,13.618,3.563,18.927,5.128,1.756.516,3.275.964,4.328,1.257a.478.478,0,0,0,.149.02.639.639,0,0,0,.57-.394.593.593,0,0,0-.2-.758c-.278-.175-.843-.495-1.386-.808-.41-.234-.8-.456-1.011-.585-.394-.238-.812-.488-1.241-.746-2.725-1.623-7.283-4.344-6.62-5.612a64.436,64.436,0,0,1,5.7-8.349c1.073-1.429,3.68-4.868,5.058-6.761A.944.944,0,0,0,72.2.68L72.17.6a52.924,52.924,0,0,1,5.016,3.864c2.326,1.846,3.63,2.9,5.542,4.32,16.932,12.108,27.2,16.909,35.831,18.01,8.4,1.077,17.393,2.373,24.157,3.434,3.989.625,5.675,1.9,6.522,3.412a5.215,5.215,0,0,1,.614,3.4,197.731,197.731,0,0,1-42.327,5.878c-17.826.464-61.592-6.2-74.07-7.315C21.9,34.564,3.24,34.845,3.24,34.845c-6.7-9.087-.447-24.559.934-27.713" fill="#fff"/>
    <path id="Path_4639" data-name="Path 4639" d="M3.851,7.9c.14-.316.3-.743.316-.771l.147-.184c11.955,3.853,28.641,8.232,43.551,11.429,5.594,1.2,13.618,3.563,18.927,5.128,1.756.516,3.275.964,4.328,1.257a.478.478,0,0,0,.149.02.639.639,0,0,0,.57-.394.593.593,0,0,0-.2-.758c-.278-.175-.843-.495-1.386-.808-.41-.234-.8-.456-1.011-.585-.394-.238-.812-.488-1.241-.746-2.725-1.623-7.283-4.344-6.62-5.612a64.436,64.436,0,0,1,5.7-8.349c1.073-1.429,3.68-4.868,5.058-6.761A.944.944,0,0,0,72.2.68L72.17.6a52.924,52.924,0,0,1,5.016,3.864c2.326,1.846,3.63,2.9,5.542,4.32,16.932,12.108,27.2,16.909,35.831,18.01,8.4,1.077,17.393,2.373,24.157,3.434,3.989.625,5.675,1.9,6.522,3.412a5.215,5.215,0,0,1,.614,3.4,197.731,197.731,0,0,1-42.327,5.878c-17.826.464-61.592-6.2-74.07-7.315C21.9,34.564,3.24,34.845,3.24,34.845c-6.7-9.087-.447-24.559.934-27.713" fill="none" stroke="#221f20" stroke-miterlimit="10" stroke-width="0.39"/>
    <path id="Path_4640" data-name="Path 4640" d="M38.81,46.426l5.215-6.432c-3.443-.391-4.946-.523-4.946-.523Z" fill="#160602"/>
    <path id="Path_4641" data-name="Path 4641" d="M38.81,46.426l5.215-6.432c-3.443-.391-4.946-.523-4.946-.523Z" fill="none" stroke="#2e160e" stroke-linejoin="round" stroke-width="0.39"/>
    <path id="Path_4642" data-name="Path 4642" d="M115.214,26.359c.789.626,3.026,2.951,2.571,4.361-.286.888-1.662,2-6.59,2.226a89.125,89.125,0,0,1-12.218-.788c-12.759-1.348-28.638-3.025-34.269,7.23" fill="none" stroke="#221f20" stroke-linecap="round" stroke-miterlimit="10" stroke-width="0.668"/>
    <path id="Path_4643" data-name="Path 4643" d="M65.392,39.764c5.381-9.8,20.973-8.153,33.5-6.829a90.227,90.227,0,0,0,12.337.791c4.377-.205,6.764-1.11,7.3-2.767.713-2.212-1.9-4.274-2.034-4.38" fill="none" stroke="#221f20" stroke-miterlimit="10" stroke-width="0.334" stroke-dasharray="1.53 1.53"/>
    <path id="Path_4644" data-name="Path 4644" d="M36.647,35.923C36.4,22.908,25.806,20.8,16.446,18.6c-1.578-.371-3.07-.722-4.517-1.118-2.8-.765-4.662-2.16-5.549-4.148-1.645-3.683-.162-6.149-.14-6.2" fill="none" stroke="#221f20" stroke-linecap="round" stroke-miterlimit="10" stroke-width="0.668"/>
    <path id="Path_4645" data-name="Path 4645" d="M5.416,7.143c-.1.2-1.545,2.486.249,6.51.987,2.213,3.025,3.756,6.058,4.586,1.461.4,2.959.752,4.545,1.124C25.794,21.6,35.63,23.429,35.863,35.837" fill="none" stroke="#221f20" stroke-miterlimit="10" stroke-width="0.334" stroke-dasharray="1.53 1.53"/>
    <path id="Path_4646" data-name="Path 4646" d="M69.757,27.677a.727.727,0,0,0,.338-.5c.114-.453-.053-.64-.053-.64L59.209,23.819a.732.732,0,0,0-.319.5,1.157,1.157,0,0,0,.033.634Z" fill="none" stroke="#221f20" stroke-linecap="round" stroke-miterlimit="10" stroke-width="0.668"/>
    <path id="Path_4647" data-name="Path 4647" d="M45.843,21.733a.727.727,0,0,0,.338-.495c.114-.453-.053-.641-.053-.641L35.295,17.875a.732.732,0,0,0-.319.5,1.157,1.157,0,0,0,.033.634Z" fill="none" stroke="#221f20" stroke-linecap="round" stroke-miterlimit="10" stroke-width="0.668"/>
    <path id="Path_4648" data-name="Path 4648" d="M24.159,16.472a.727.727,0,0,0,.338-.495c.114-.453-.053-.64-.053-.64L13.611,12.614a.732.732,0,0,0-.319.5,1.157,1.157,0,0,0,.033.634Z" fill="none" stroke="#221f20" stroke-linecap="round" stroke-miterlimit="10" stroke-width="0.668"/>
    <path id="Path_4649" data-name="Path 4649" d="M81.783,9.32,78.4,14.2a.729.729,0,0,0,.357.475,1.156,1.156,0,0,0,.6.192l3.369-4.862" fill="none" stroke="#221f20" stroke-miterlimit="10" stroke-width="0.39"/>
    <path id="Path_4650" data-name="Path 4650" d="M87.2,12.566a3.184,3.184,0,0,1-2.314,1.366L83.673,11.6a2.347,2.347,0,0,0,1.754-1.347Z" fill="none" stroke="#221f20" stroke-miterlimit="10" stroke-width="0.39"/>
    <path id="Path_4651" data-name="Path 4651" d="M87.112,12.78,94.3,19.6l-.606.465-7.04-6.95" fill="none" stroke="#221f20" stroke-miterlimit="10" stroke-width="0.39"/>
    <path id="Path_4652" data-name="Path 4652" d="M86.838,13.295l6.383,7.138-.852.654L86.42,13.312" fill="none" stroke="#221f20" stroke-miterlimit="10" stroke-width="0.39"/>
    <path id="Path_4653" data-name="Path 4653" d="M87.049,14.158l4.808,7.117-.954.733L85.82,13.772" fill="none" stroke="#221f20" stroke-miterlimit="10" stroke-width="0.39"/>
    <path id="Path_4654" data-name="Path 4654" d="M85.22,13.892l4.516,8.519,1.038-.3" fill="none" stroke="#221f20" stroke-miterlimit="10" stroke-width="0.39"/>
    <path id="Path_4655" data-name="Path 4655" d="M88.184,19.484l.929,2.971-.881.455-3.346-8.978" fill="none" stroke="#221f20" stroke-miterlimit="10" stroke-width="0.39"/>
    <path id="Path_4656" data-name="Path 4656" d="M85.143,10.475S79.234,5.447,80.2,11.6c0,0,0-.867.365-1.082s.165-3.122,3.6.706" fill="none" stroke="#221f20" stroke-miterlimit="10" stroke-width="0.39"/>
    <path id="Path_4657" data-name="Path 4657" d="M85.427,10.257s-.064-.51-.738-.133" fill="none" stroke="#221f20" stroke-miterlimit="10" stroke-width="0.39"/>
    <path id="Path_4658" data-name="Path 4658" d="M83.716,10.871s-.459.458-.043.733" fill="none" stroke="#221f20" stroke-miterlimit="10" stroke-width="0.39"/>
    <path id="Path_4659" data-name="Path 4659" d="M83.5,10.525s-1.25,1.5-2.074,1.367" fill="none" stroke="#221f20" stroke-miterlimit="10" stroke-width="0.39"/>
    <path id="Path_4660" data-name="Path 4660" d="M4.431,6.567l-.117.375c11.955,3.852,28.641,8.232,43.551,11.428,5.594,1.2,13.619,3.564,18.927,5.129,1.756.515,3.275.964,4.328,1.257a.508.508,0,0,0,.149.019.637.637,0,0,0,.57-.394.591.591,0,0,0-.2-.757c-.277-.176-.843-.5-1.386-.808-.41-.234-.8-.457-1.011-.586-.394-.238-.812-.488-1.241-.745-2.724-1.624-7.283-4.344-6.62-5.613a64.5,64.5,0,0,1,5.7-8.349c1.073-1.428,3.68-4.867,5.058-6.76C71.8.435,71.487.138,71.433.2c-.258.335-.949,1.409-1.187,1.737l.012-.008c-1.413,1.944-2.678,3.626-3.8,5.121a65.4,65.4,0,0,0-5.777,8.458c-1,1.92,3.021,4.321,6.913,6.643.429.254.847.5,1.241.742.215.133.609.359,1.027.6.105.058.214.121.32.183-.9-.261-1.979-.577-3.174-.928-5.32-1.57-13.356-3.939-18.985-5.145C33.143,14.416,16.484,10.045,4.552,6.2l-.359.894c.14-.316.226-.5.238-.523" fill="#c1c1c1"/>
    <path id="Path_4661" data-name="Path 4661" d="M4.431,6.567l-.117.375c11.955,3.852,28.641,8.232,43.551,11.428,5.594,1.2,13.619,3.564,18.927,5.129,1.756.515,3.275.964,4.328,1.257a.508.508,0,0,0,.149.019.637.637,0,0,0,.57-.394.591.591,0,0,0-.2-.757c-.277-.176-.843-.5-1.386-.808-.41-.234-.8-.457-1.011-.586-.394-.238-.812-.488-1.241-.745-2.724-1.624-7.283-4.344-6.62-5.613a64.5,64.5,0,0,1,5.7-8.349c1.073-1.428,3.68-4.867,5.058-6.76C71.8.435,71.487.138,71.433.2c-.258.335-.949,1.409-1.187,1.737l.012-.008c-1.413,1.944-2.678,3.626-3.8,5.121a65.4,65.4,0,0,0-5.777,8.458c-1,1.92,3.021,4.321,6.913,6.643.429.254.847.5,1.241.742.215.133.609.359,1.027.6.105.058.214.121.32.183-.9-.261-1.979-.577-3.174-.928-5.32-1.57-13.356-3.939-18.985-5.145C33.143,14.416,16.484,10.045,4.552,6.2l-.359.894C4.333,6.774,4.419,6.594,4.431,6.567Z" fill="none" stroke="#221f20" stroke-miterlimit="10" stroke-width="0.39"/>
  </g>
</svg>
