<svg xmlns="http://www.w3.org/2000/svg" xmlns:xlink="http://www.w3.org/1999/xlink" width="149.757" height="46.946" viewBox="0 0 149.757 46.946">
  <defs>
    <clipPath id="clip-path">
      <rect id="Rectangle_1981" data-name="Rectangle 1981" width="149.757" height="46.946" transform="translate(0 0)" fill="none"/>
    </clipPath>
  </defs>
  <g id="Group_1436" data-name="Group 1436" transform="translate(0 0)">
    <g id="Group_1436-2" data-name="Group 1436" clip-path="url(#clip-path)">
      <path id="Path_4183" data-name="Path 4183" d="M3,46.748h36.39l.273-7.056s1.529.135,5.017.531c3.943.447,10.389,1.223,19.963,2.506,10.694,1.438,36.929,4.942,54.057,3.1,14.574-1.568,30.214-3.939,30.558-4.359.495-.6.277-2.185.1-2.823-.174-.618-1.279-.459-1.279-.459L3.306,35Z" fill="#2e160e"/>
      <path id="Path_4184" data-name="Path 4184" d="M3,46.748h36.39l.273-7.056s1.529.135,5.017.531c3.943.447,10.389,1.223,19.963,2.506,10.694,1.438,36.929,4.942,54.057,3.1,14.574-1.568,30.214-3.939,30.558-4.359.495-.6.277-2.185.1-2.823-.174-.618-1.279-.459-1.279-.459L3.306,35Z" fill="none" stroke="#221f20" stroke-miterlimit="10" stroke-width="0.396"/>
      <path id="Path_4185" data-name="Path 4185" d="M3.306,35s18.926-.285,30.653.764c12.654,1.133,57.054,7.891,75.133,7.42,23.483-.614,38.984-4.993,38.984-4.993a8.707,8.707,0,0,0-.424-4.161c-1.5-3.528-5.828-4.949-8.921-5.674-4.208-.982-9.435-.665-18.446-1.524C105.362,25.414,82.651,5.788,75.758.74c-1.382,1.9-4.09,5.472-5.195,6.941a65.34,65.34,0,0,0-5.784,8.469c-.669,1.286,3.951,4.046,6.715,5.693.435.261.863.515,1.263.756.214.131.606.357,1.021.594.555.317,1.125.642,1.406.82a.6.6,0,0,1,.206.768.647.647,0,0,1-.578.4.49.49,0,0,1-.151-.02c-1.069-.3-2.609-.752-4.391-1.275-5.384-1.588-13.525-3.987-19.2-5.2C35.951,15.441,19.021,11,4.636,6.319l.123-.381s-.028.056-.079.163v0C3.821,7.985-3.813,25.335,3.306,35" fill="#fff"/>
      <path id="Path_4186" data-name="Path 4186" d="M3.306,35s18.926-.285,30.653.764c12.654,1.133,57.054,7.891,75.133,7.42,23.483-.614,38.984-4.993,38.984-4.993a8.707,8.707,0,0,0-.424-4.161c-1.5-3.528-5.828-4.949-8.921-5.674-4.208-.982-9.435-.665-18.446-1.524C105.362,25.414,82.651,5.788,75.758.74c-1.382,1.9-4.09,5.472-5.195,6.941a65.34,65.34,0,0,0-5.784,8.469c-.669,1.286,3.951,4.046,6.715,5.693.435.261.863.515,1.263.756.214.131.606.357,1.021.594.555.317,1.125.642,1.406.82a.6.6,0,0,1,.206.768.647.647,0,0,1-.578.4.49.49,0,0,1-.151-.02c-1.069-.3-2.609-.752-4.391-1.275-5.384-1.588-13.525-3.987-19.2-5.2C35.951,15.441,19.021,11,4.636,6.319l.123-.381s-.028.056-.079.163v0C3.821,7.985-3.813,25.335,3.306,35Z" fill="none" stroke="#221f20" stroke-miterlimit="10" stroke-width="0.594"/>
      <path id="Path_4187" data-name="Path 4187" d="M39.387,46.748l5.29-6.525c-3.488-.4-5.017-.531-5.017-.531Z" fill="#160602"/>
      <path id="Path_4188" data-name="Path 4188" d="M39.387,46.748l5.29-6.525c-3.488-.4-5.017-.531-5.017-.531Z" fill="none" stroke="#2e160e" stroke-linejoin="round" stroke-width="0.396"/>
      <path id="Path_4189" data-name="Path 4189" d="M4.636,6.319C19.02,11,35.95,15.441,51.071,18.684c5.674,1.216,13.814,3.615,19.2,5.2,1.782.522,3.322.978,4.391,1.274a.49.49,0,0,0,.151.02.645.645,0,0,0,.578-.4.6.6,0,0,0-.206-.768c-.281-.178-.852-.5-1.406-.819-.416-.238-.808-.464-1.021-.594-.4-.242-.828-.5-1.263-.756-2.764-1.648-7.385-4.407-6.715-5.694a65.409,65.409,0,0,1,5.784-8.469c1.1-1.469,3.813-5.04,5.195-6.941L75.425.5C75.314.42,75.207.344,75.1.273c-1.433,1.976-4.034,5.416-5.171,6.933a66.159,66.159,0,0,0-5.859,8.58c-1.014,1.948,3.068,4.383,7.012,6.739.435.257.859.51,1.259.752.218.134.618.364,1.041.606.107.059.218.122.325.186-.911-.266-2.008-.586-3.219-.943-5.4-1.591-13.549-3.995-19.254-5.218-15.1-3.235-32-7.669-46.356-12.341l-.2.534c.051-.107.079-.162.079-.162Z" fill="#c1c1c1"/>
      <path id="Path_4190" data-name="Path 4190" d="M4.636,6.319C19.02,11,35.95,15.441,51.071,18.684c5.674,1.216,13.814,3.615,19.2,5.2,1.782.522,3.322.978,4.391,1.274a.49.49,0,0,0,.151.02.645.645,0,0,0,.578-.4.6.6,0,0,0-.206-.768c-.281-.178-.852-.5-1.406-.819-.416-.238-.808-.464-1.021-.594-.4-.242-.828-.5-1.263-.756-2.764-1.648-7.385-4.407-6.715-5.694a65.409,65.409,0,0,1,5.784-8.469c1.1-1.469,3.813-5.04,5.195-6.941L75.425.5C75.314.42,75.207.344,75.1.273c-1.433,1.976-4.034,5.416-5.171,6.933a66.159,66.159,0,0,0-5.859,8.58c-1.014,1.948,3.068,4.383,7.012,6.739.435.257.859.51,1.259.752.218.134.618.364,1.041.606.107.059.218.122.325.186-.911-.266-2.008-.586-3.219-.943-5.4-1.591-13.549-3.995-19.254-5.218-15.1-3.235-32-7.669-46.356-12.341l-.2.534c.051-.107.079-.162.079-.162Z" fill="none" stroke="#221f20" stroke-miterlimit="10" stroke-width="0.396"/>
    </g>
  </g>
</svg>
